<svg width="24" height="24" viewBox="0 0 24 24" fill="none" xmlns="http://www.w3.org/2000/svg">
<path d="M9 18.5V20.5" stroke="#1877F2" stroke-width="1.5" stroke-linecap="round"/>
<path d="M15 19L15 20" stroke="#1877F2" stroke-width="1.5" stroke-linecap="round"/>
<path d="M12 20V22" stroke="#1877F2" stroke-width="1.5" stroke-linecap="round"/>
<path d="M12.7649 11.9591C12.7649 11.5449 12.4291 11.2091 12.0149 11.2091C11.6007 11.2091 11.2649 11.5449 11.2649 11.9591H12.7649ZM12.7649 14.7321V11.9591H11.2649V14.7321H12.7649Z" fill="#1877F2"/>
<path d="M9.47684 3.46084L4.80857 12.1631C3.6852 14.2573 5.81469 16.5813 8.2039 15.8687L11.7286 14.8175C11.9154 14.7617 12.1144 14.7618 12.3012 14.8177L15.7931 15.8632C18.181 16.5782 20.3131 14.2574 19.1934 12.1621L14.5453 3.46444C13.5027 1.51351 10.5226 1.5114 9.47684 3.46084Z" stroke="white" stroke-width="1.5"/>
</svg>
