<svg width="50" height="50" viewBox="0 0 50 50" fill="none" xmlns="http://www.w3.org/2000/svg">
<path d="M45.7344 5.18359H4.26562C1.91357 5.18359 0 7.09717 0 9.44922V40.5508C0 42.9028 1.91357 44.8164 4.26562 44.8164H45.7344C48.0864 44.8164 50 42.9028 50 40.5508V9.44922C50 7.09717 48.0864 5.18359 45.7344 5.18359ZM48.3802 40.5508C48.3802 42.0097 47.1934 43.1966 45.7344 43.1966H4.26562C2.80664 43.1966 1.61982 42.0097 1.61982 40.5508V20.6264H48.3801V40.5508H48.3802ZM48.3802 19.0064H1.61982V13.7148H48.3801V19.0064H48.3802ZM48.3802 12.095H1.61982V9.44922C1.61982 7.99033 2.80664 6.80342 4.26562 6.80342H45.7344C47.1934 6.80342 48.3802 7.99033 48.3802 9.44922V12.095Z" fill="white"/>
<path d="M18.088 15.5508H4.26504C3.81768 15.5508 3.45508 15.9134 3.45508 16.3607C3.45508 16.808 3.81758 17.1707 4.26504 17.1707H18.0879C18.5353 17.1707 18.8979 16.8081 18.8979 16.3607C18.8979 15.9134 18.5354 15.5508 18.088 15.5508Z" fill="white"/>
<path d="M25.0001 15.5508H21.5443C21.097 15.5508 20.7344 15.9134 20.7344 16.3607C20.7344 16.808 21.0969 17.1707 21.5443 17.1707H25.0001C25.4475 17.1707 25.8101 16.8081 25.8101 16.3607C25.8101 15.9134 25.4475 15.5508 25.0001 15.5508Z" fill="white"/>
<path d="M31.9122 15.5508H28.4564C28.0091 15.5508 27.6465 15.9134 27.6465 16.3607C27.6465 16.808 28.009 17.1707 28.4564 17.1707H31.9122C32.3596 17.1707 32.7222 16.8081 32.7222 16.3607C32.7222 15.9134 32.3597 15.5508 31.9122 15.5508Z" fill="white"/>
<path d="M38.8223 15.5508H35.3666C34.9192 15.5508 34.5566 15.9134 34.5566 16.3607C34.5566 16.808 34.9191 17.1707 35.3666 17.1707H38.8224C39.2697 17.1707 39.6323 16.8081 39.6323 16.3607C39.6322 15.9134 39.2697 15.5508 38.8223 15.5508Z" fill="white"/>
<path d="M45.7345 15.5508H42.2787C41.8313 15.5508 41.4688 15.9134 41.4688 16.3607C41.4688 16.808 41.8313 17.1707 42.2787 17.1707H45.7345C46.1818 17.1707 46.5444 16.8081 46.5444 16.3607C46.5443 15.9134 46.1818 15.5508 45.7345 15.5508Z" fill="white"/>
<path d="M5.99424 8.63965H5.13027C4.68291 8.63965 4.32031 9.00225 4.32031 9.44961C4.32031 9.89687 4.68281 10.2596 5.13027 10.2596H5.99424C6.4416 10.2596 6.8042 9.89697 6.8042 9.44961C6.8041 9.00225 6.4416 8.63965 5.99424 8.63965Z" fill="white"/>
<path d="M9.44932 8.63965H8.58535C8.13799 8.63965 7.77539 9.00225 7.77539 9.44961C7.77539 9.89687 8.13789 10.2596 8.58535 10.2596H9.44932C9.89668 10.2596 10.2593 9.89697 10.2593 9.44961C10.2593 9.00225 9.89678 8.63965 9.44932 8.63965Z" fill="white"/>
<path d="M12.9044 8.63965H12.0404C11.5931 8.63965 11.2305 9.00225 11.2305 9.44961C11.2305 9.89687 11.593 10.2596 12.0404 10.2596H12.9044C13.3518 10.2596 13.7144 9.89697 13.7144 9.44961C13.7144 9.00225 13.3518 8.63965 12.9044 8.63965Z" fill="white"/>
<path d="M21.5437 22.4619H4.26504C3.81768 22.4619 3.45508 22.8245 3.45508 23.2719V40.5505C3.45508 40.9978 3.81758 41.3604 4.26504 41.3604H21.5437C21.991 41.3604 22.3536 40.9979 22.3536 40.5505V23.2719C22.3536 22.8245 21.9911 22.4619 21.5437 22.4619ZM19.5883 24.0817L12.9044 30.7656L6.22051 24.0817H19.5883ZM5.075 25.2272L11.7589 31.9111L5.075 38.595V25.2272ZM6.22051 39.7405L12.9044 33.0566L19.5883 39.7405H6.22051ZM20.7338 38.595L14.0499 31.9111L20.7338 25.2272V38.595Z" fill="white"/>
<path d="M45.7344 22.4619H37.0951C36.6478 22.4619 36.2852 22.8245 36.2852 23.2719V40.5505C36.2852 40.9978 36.6477 41.3604 37.0951 41.3604H45.7344C46.1817 41.3604 46.5443 40.9979 46.5443 40.5505V23.2719C46.5442 22.8245 46.1817 22.4619 45.7344 22.4619ZM44.4238 24.0817L41.4146 30.1001L38.4055 24.0817H44.4238ZM37.905 26.7027L40.5092 31.9111L37.905 37.1195V26.7027ZM38.4055 39.7405L41.4146 33.7222L44.4238 39.7405H38.4055ZM44.9244 37.1195L42.3202 31.9111L44.9244 26.7027V37.1195Z" fill="white"/>
<path d="M33.6387 22.4619H24.9994C24.5521 22.4619 24.1895 22.8245 24.1895 23.2719V40.5505C24.1895 40.9978 24.552 41.3604 24.9994 41.3604H33.6387C34.086 41.3604 34.4486 40.9979 34.4486 40.5505V23.2719C34.4486 22.8245 34.0861 22.4619 33.6387 22.4619ZM32.3282 24.0817L29.319 30.1001L26.3099 24.0817H32.3282ZM25.8094 26.7027L28.4136 31.9111L25.8094 37.1195V26.7027ZM26.3099 39.7405L29.319 33.7222L32.3282 39.7405H26.3099ZM32.8288 37.1195L30.2246 31.9111L32.8288 26.7027V37.1195Z" fill="white"/>
</svg>
