<svg width="50" height="50" viewBox="0 0 50 50" fill="none" xmlns="http://www.w3.org/2000/svg">
<g clip-path="url(#clip0_428_3713)">
<path d="M45.8358 3.12109H4.16453C1.86814 3.12109 0 4.98936 0 7.28575V34.445C0 36.7413 1.86814 38.6096 4.16453 38.6096H17.5911L15.0427 44.229C14.7796 44.8094 14.8291 45.4837 15.1744 46.0192C15.5196 46.5548 16.1131 46.8783 16.7503 46.8783H33.2499C33.2506 46.8783 33.2516 46.8783 33.2524 46.8783C34.288 46.8783 35.1274 46.0389 35.1274 45.0033C35.1274 44.6917 35.0518 44.3973 34.9166 44.1388L32.4089 38.6096H45.8355C48.1319 38.6096 50 36.7413 50 34.445V7.28575C50.0004 4.98936 48.1322 3.12109 45.8358 3.12109ZM46.2503 34.4451C46.2503 34.6737 46.0643 34.8596 45.8358 34.8596H4.16453C3.93603 34.8596 3.75003 34.6737 3.75003 34.4451V7.28575C3.75003 7.05712 3.93603 6.87112 4.16453 6.87112H45.8357C46.0642 6.87112 46.2502 7.05712 46.2502 7.28575L46.2503 34.4451Z" fill="white"/>
<path d="M30.7755 12.0544C30.6434 11.9224 30.4104 11.9419 30.2548 12.0974L28.2206 14.1313C28.0648 14.2871 28.0456 14.5208 28.1771 14.6527L31.065 17.5405C31.1307 17.6063 31.2227 17.6344 31.3167 17.6265C31.4112 17.6187 31.5079 17.5749 31.5863 17.4968L33.6202 15.4628C33.7757 15.3072 33.7952 15.0739 33.6631 14.942L30.7755 12.0544Z" fill="white"/>
<path d="M18.292 24.6977C18.2065 24.6122 18.0735 24.5875 17.9432 24.6324C17.8129 24.6772 17.7054 24.7856 17.661 24.9162L16.2713 29.033C16.2272 29.1626 16.2528 29.2941 16.3378 29.379C16.4018 29.4436 16.4928 29.4739 16.5892 29.4656C16.6202 29.463 16.652 29.4565 16.6837 29.4456L20.8004 28.0556C20.9309 28.0114 21.0394 27.9037 21.0842 27.7736C21.1294 27.6435 21.1044 27.5102 21.0191 27.4246L18.292 24.6977Z" fill="white"/>
<path d="M28.6886 22.7781C28.87 22.6953 29.0024 22.5325 29.046 22.3382C29.0897 22.1438 29.0401 21.9401 28.9121 21.7876C28.6721 21.5022 28.421 21.2121 28.1625 20.92L30.4222 18.6603C30.4968 18.5857 30.5438 18.4884 30.5514 18.3907C30.5595 18.2933 30.5283 18.2026 30.4653 18.1394L27.5772 15.2518C27.4452 15.1195 27.2122 15.1389 27.0565 15.2948L24.8527 17.4989C23.3747 16.0978 21.8903 14.8478 20.5821 13.9074C19.6609 13.2454 17.9758 12.1325 17.0376 12.1183C16.8664 12.1153 16.7008 12.1823 16.5791 12.3031C16.4571 12.4239 16.3893 12.5888 16.3906 12.7603C16.3955 13.3995 16.9566 14.5529 17.9705 16.0074C18.9355 17.3918 20.2613 18.9827 21.7738 20.5778L18.8988 23.4531C18.7428 23.609 18.7234 23.842 18.8555 23.9739L21.7434 26.8615C21.8091 26.9279 21.9002 26.9559 21.9948 26.9479C22.0888 26.94 22.1864 26.8961 22.2642 26.8185L25.195 23.8876C25.4508 24.114 25.7046 24.334 25.9548 24.5461C26.071 24.6445 26.217 24.6972 26.3668 24.6972C26.4007 24.6972 26.4347 24.6945 26.4687 24.6891C26.6526 24.6592 26.8143 24.5505 26.9111 24.3912C27.0821 24.1102 27.3049 23.8313 27.5737 23.563C27.9107 23.2253 28.2861 22.9612 28.6886 22.7781Z" fill="white"/>
<path d="M30.2862 23.3115C29.5439 23.3115 28.8354 23.6279 28.2367 24.2265C27.5182 24.945 27.2045 25.6987 27.3296 26.4063C27.4537 27.1068 28.0103 27.7347 28.8571 28.1277C29.5854 28.4661 30.2493 28.5709 30.8347 28.6636C31.4512 28.7608 32.0328 28.8531 32.5505 29.2042C32.6576 29.2773 32.7828 29.3144 32.9085 29.3144C32.9967 29.3144 33.0853 29.2962 33.1683 29.2589C33.37 29.1691 33.5108 28.9808 33.5405 28.7618C33.7623 27.1067 33.4448 25.6202 32.6465 24.5773C32.0303 23.7729 31.1701 23.3115 30.2862 23.3115Z" fill="white"/>
</g>
<defs>
<clipPath id="clip0_428_3713">
<rect width="50" height="50" fill="white"/>
</clipPath>
</defs>
</svg>
