<svg xmlns="http://www.w3.org/2000/svg" viewBox="0 0 429.34 259.52"><defs><style>.cls-1{fill:#b2614e;}.cls-2{fill:#824639;}.cls-3{fill:#995343;}.cls-4{fill:#d8e4ff;}.cls-5{fill:#edf3ff;}.cls-6{fill:#6276e7;}.cls-18,.cls-7,.cls-9{fill:none;stroke-miterlimit:10;}.cls-7,.cls-9{stroke:#2c1817;}.cls-7{stroke-width:0.75px;}.cls-8{fill:#2c1817;}.cls-9{stroke-width:0.5px;}.cls-10{fill:#1c166e;}.cls-11{fill:#231c8c;}.cls-12{fill:#0a0726;}.cls-13{fill:#161157;}.cls-14{fill:#2c24b0;}.cls-15{fill:#5e5d5b;}.cls-16{fill:#383837;}.cls-17{fill:#423ead;}.cls-18{stroke:#edf3ff;stroke-width:0.25px;}.cls-19{fill:#ffcc8a;}.cls-20{fill:#f5a345;}.cls-21{fill:#e59840;}.cls-22{fill:#5d78ed;}.cls-23{fill:#fff;}.cls-24{fill:#c1dcff;}</style></defs><g id="Layer_2" data-name="Layer 2"><g id="OBJECT"><path class="cls-1" d="M228.1,156.57c2.27,8.49,9.68,16.5,12.77,16.82a14,14,0,0,0,9.77-3.43c-1.16-4.33-2.58-8.81-3.74-13.14a15.66,15.66,0,0,0-1.82-4.68,9,9,0,0,0-8-3.7,12.1,12.1,0,0,0-8,4.1A4.29,4.29,0,0,0,228.1,156.57Z"/><path class="cls-2" d="M235.62,130.74c-.52-1-1.42-2.08-2.46-1.75s-1.13,1.79-1,2.89a91.78,91.78,0,0,0,3.28,12.7,15.63,15.63,0,0,0,1.75,4.14,5.22,5.22,0,0,0,3.64,2.43.88.88,0,0,0,.6-.1,1,1,0,0,0,.31-.43C244,145.45,238,135.21,235.62,130.74Z"/><path class="cls-3" d="M234.07,145.26c-1.56.47-1.88,2.6-2.16,2.46-1.45-.71-2.1-1.7-3-1.19s-.62,2.8-1.64,2.94c-.45-.73-3.35-.49-2.86,2.67s2.67,8,5.36,7a3.76,3.76,0,0,0,1.88-2.18,3.44,3.44,0,0,0,2.55,1.41c1.07.05,2.18-.64,2.18-1.52,1.37,1,1.37,1,4.23.3C241.68,156.84,239.7,143.55,234.07,145.26Z"/><path class="cls-1" d="M247.24,158.07c-.94-3.3-2-13.11-4.08-13.86s-8.73,2.85-9.71,4.06a3.46,3.46,0,0,0-.31,4.27c.78.93,5.58,0,6.6-.67-1.18,1.17-1.88,11.56,3.23,10.82C244.63,162.45,247.7,159.68,247.24,158.07Z"/><path class="cls-4" d="M234.44,175.38,251,160.91l26.85,51.64s-2.16,21.29-15.59,22.68C254.24,236.06,234.44,175.38,234.44,175.38Z"/><path class="cls-4" d="M305.64,116.27s-31.9,15-34.81,23.52-10.11,83.48-10.11,83.48L280.43,229Z"/><path class="cls-5" d="M334.34,117.39s39.75,3.89,46,8.06,23.33,100.4,17.53,109.88c-6.25,10.22-41.07,11-41.07,11H280.86s-1-115.23,2.32-117.34c9.28-5.95,22.46-12.74,22.46-12.74Z"/><polygon class="cls-6" points="317.73 127 308.07 132.86 313.73 140.04 308.07 246.35 335.24 246.35 319.94 140.04 323.94 131.66 317.73 127"/><polyline class="cls-7" points="298.94 119.84 305.92 134.17 317.73 127 327.29 134.17 340.94 118.1"/><path class="cls-1" d="M305.64,116.27l.86-38.19,23.8-13.64,4,53S317.2,130.86,305.64,116.27Z"/><path class="cls-3" d="M325.35,83.91s-4.08,18.7-19.43,20L306.5,84Z"/><path class="cls-1" d="M284.86,69.56c3,30.89,10.57,39,29.84,24.19,10.6-8.14,18.19-15.08,16.64-35.42C330.28,44.48,320,38.25,301.54,40,286.85,41.4,283.58,56.38,284.86,69.56Z"/><path class="cls-8" d="M337.77,42.72c-.82-2.6-2.16-5.3-4.7-6.57-3.48-1.74-4.31-.84-7.87.72.14-3.41-2.08-6.57-4.4-6.82C303.63,28.21,266.91,36.37,265,40.8s6.26,7.08,8.2,7.5c-1.58-.11-5.55,1.81-6.41,3.05-1.68,2.41,1.49,5.18,10.95,5.22-5,3.27-.09,7.08,8.43,4.41,3.11-1,17.48-5.93,25.95-9.33,5.87-2.36,12.77.42,14.8,6.14,3.23,9.08,4,22.64,4.67,22.95,4.77,2.23,7.21-3.87,7.52-13.27C339.28,60.74,339.8,49.18,337.77,42.72Z"/><path class="cls-8" d="M303.48,65.49c0,.86,3.67,1.87,5.87,2.06s3-.44,3-1.3-2.65-1.79-4.85-2S303.5,64.63,303.48,65.49Z"/><path class="cls-8" d="M303.5,72.81c-.07,1.26.36,2.3,1,2.33s1.14-1,1.2-2.22-.36-2.3-1-2.33S303.56,71.55,303.5,72.81Z"/><path class="cls-8" d="M295.78,64.84c0,.86-3.76,1.24-6,1s-2.94-1-2.91-1.81,2.72-1.32,4.92-1.13S295.8,64,295.78,64.84Z"/><path class="cls-8" d="M294.84,72.36c-.06,1.26-.6,2.25-1.2,2.22s-1-1.08-1-2.33.6-2.25,1.2-2.22S294.91,71.1,294.84,72.36Z"/><path class="cls-9" d="M299.35,69.09c-.66,4.29-2.27,13.37-1.7,14.25a1.78,1.78,0,0,0,2.7,0"/><path class="cls-9" d="M303.13,88.38s-1.28,2.23-2.89,2.35A5.18,5.18,0,0,1,297,89.31"/><ellipse class="cls-1" cx="334.12" cy="64.44" rx="7.04" ry="6.66" transform="translate(65.14 272.85) rotate(-48.69)"/><path class="cls-9" d="M337.83,62.35a9.12,9.12,0,0,0-7.43,2.91A7.36,7.36,0,0,1,335.55,67"/><path class="cls-10" d="M313.73,233.06H225.32l-14.4-48.52c-.7-2.37.65-4.29,3-4.29h79.85a6.22,6.22,0,0,1,5.55,4.29Z"/><path class="cls-11" d="M310.7,233.06H225.32l-14.4-48.52c-.7-2.37.65-4.29,3-4.29h76.82a6.22,6.22,0,0,1,5.55,4.29Z"/><path class="cls-12" d="M260.39,237.42H348.8a2.19,2.19,0,0,0,2.18-2.19h0a2.18,2.18,0,0,0-2.18-2.18H260.39a2.18,2.18,0,0,0-2.19,2.18h0A2.19,2.19,0,0,0,260.39,237.42Z"/><path class="cls-13" d="M225.32,237.42h88.41a2.19,2.19,0,0,0,2.18-2.19h0a2.18,2.18,0,0,0-2.18-2.18H225.32a2.18,2.18,0,0,0-2.19,2.18h0A2.19,2.19,0,0,0,225.32,237.42Z"/><ellipse class="cls-14" cx="258.27" cy="206.66" rx="5.16" ry="6.72" transform="translate(-67.37 264.68) rotate(-48.77)"/><path class="cls-15" d="M340.81,236.13h3.83a.8.8,0,0,0,.8-.8h0a.8.8,0,0,0-.8-.8h-3.83a.79.79,0,0,0-.79.8h0A.79.79,0,0,0,340.81,236.13Z"/><path class="cls-16" d="M337.16,235.33a.8.8,0,1,0,.79-.8A.79.79,0,0,0,337.16,235.33Z"/><path class="cls-16" d="M334.44,235.33a.8.8,0,1,0,.8-.8A.8.8,0,0,0,334.44,235.33Z"/><path class="cls-1" d="M356.81,246.35c-5.73.52-13.63.42-15.92.52-5.15.23-27.16-7.67-25-9.45,1.25-1,3.87-.54,4.86-.16-.26.14-.28-1.73.51-2.27,2-1.34,9.09,3.51,19.66,2.33a9.4,9.4,0,0,1-4.8-4.52c-.7-1.56.81-3,1.45-2.63,2.49,1.24,4.89,2.58,7.42,3.76,2.84,1.32,5.17,2.83,10.82,3.49C356.38,237.48,356.91,246.34,356.81,246.35Z"/><path class="cls-7" d="M375.29,130.85c-5.27,4.7-9.57,10.86-10.67,17.84-.67,4.28-.12,8.65.43,13q3.93,30.81,7.87,61.62"/><polyline class="cls-7" points="379.73 221.33 354.68 226.83 356.81 246.35"/><path class="cls-17" d="M96.25,126.57s-26.07,12.53-31.75,18c-5.44,5.24,0,101.77,0,101.77h96.64s0-90-2.92-96.34c-4.61-10-33.28-24.56-33.28-24.56Z"/><path class="cls-18" d="M89.64,129.84s6.61,30.31,7.64,116.51"/><path class="cls-18" d="M131.5,129s7.24,4.28,5.9,117.34"/><path class="cls-18" d="M148.27,144.58s5.29,52.5,5.86,101.77"/><path class="cls-5" d="M96.25,126.57s7.61,45.69,7,119.78h28.28s3.34-78.21-6.64-120.9Z"/><ellipse class="cls-8" cx="87.97" cy="28.33" rx="25.23" ry="22.44" transform="matrix(0.87, -0.5, 0.5, 0.87, -2.38, 47.78)"/><ellipse class="cls-19" cx="99.78" cy="46.67" rx="21.04" ry="16.73" transform="translate(-9.97 56.14) rotate(-30)"/><ellipse class="cls-8" cx="112.54" cy="68.55" rx="35.73" ry="37.19"/><ellipse class="cls-8" cx="138.74" cy="69.05" rx="22.4" ry="28.9"/><path class="cls-1" d="M124.94,125.45l-.86-38.19-23.8-13.64-4,52.95S113.38,140,124.94,125.45Z"/><path class="cls-3" d="M108.61,93.21s.12,14,15.47,15.36V93.21Z"/><path class="cls-1" d="M142.15,77.5c-3,30.89-12,27.37-26.63,21.08A25.42,25.42,0,0,1,101,68.85c3.25-12.74,15-20.08,26.25-16.39S143.43,64.32,142.15,77.5Z"/><path class="cls-1" d="M103.3,74a6.41,6.41,0,0,1-6.83,6.49,7.34,7.34,0,0,1-6.83-7.25,6.41,6.41,0,0,1,6.83-6.49A7.34,7.34,0,0,1,103.3,74Z"/><path class="cls-9" d="M92.75,71.53a9.12,9.12,0,0,1,7.43,2.91A7.35,7.35,0,0,0,95,76.13"/><path class="cls-8" d="M127.28,68.93c.07.66-3.55,1.62-5.74,1.87s-3-.2-3.07-.86,2.53-1.5,4.72-1.75S127.2,68.27,127.28,68.93Z"/><path class="cls-8" d="M127.71,77c.15,1.26-.22,2.32-.81,2.39s-1.2-.89-1.34-2.14.22-2.32.82-2.39S127.57,75.75,127.71,77Z"/><path class="cls-8" d="M134.93,68.06c.07.66,3.82.77,6,.52s2.88-.87,2.8-1.53-2.8-.89-5-.64S134.85,67.4,134.93,68.06Z"/><path class="cls-8" d="M136.32,76c.15,1.25.75,2.21,1.34,2.14s1-1.14.82-2.39-.74-2.21-1.34-2.14S136.18,74.77,136.32,76Z"/><path class="cls-9" d="M131.62,73c.92,4.23,3.09,13.2,2.58,14.11a1.79,1.79,0,0,1-2.7.17"/><path class="cls-9" d="M129,92.52s1.42,2.15,3,2.17a5.17,5.17,0,0,0,3.14-1.62"/><path class="cls-8" d="M141,53.47s-13.55,13.36-26.69,14.37l-13.14,1s-4.37-14.93,2.15-19.41S141,53.47,141,53.47Z"/><path class="cls-7" d="M97.28,139s9.65,5.36,16.9,4.23,13.1-7.11,13.1-7.11"/><polygon class="cls-20" points="204.34 184.44 156.18 184.44 120.67 246.35 166.52 246.35 204.34 184.44"/><path class="cls-1" d="M87.86,220.09c3.1-.52,36.22-12.89,39.31-13.41a1,1,0,0,0,.14,1.62c1.45.88,8.89-3.68,8.72-5.24a9.44,9.44,0,0,0-1.58-3.92c2.61.22,5.4.39,8,.39,3.18,0,3.89-.41,4-1.83.06-1-4.22-1.49-9.7-2.29-2.3-.33-6-1.27-8.05-.25-15.34,7.56-42.1,13.25-47.62,14.7C78.78,213.85,81.1,220.09,87.86,220.09Z"/><path class="cls-17" d="M64.5,144.58S52.38,152.48,41.38,229C39.48,242.18,88,223.61,88,223.61l-1.92-15-21.4,4.72Z"/><path class="cls-5" d="M77.57,207.3,89.46,205l5.88,20.72-14,3.29S74.41,223.48,77.57,207.3Z"/><line class="cls-18" x1="57.67" y1="213" x2="86.05" y2="208.66"/><path class="cls-18" d="M67.27,147.37c6,5,12.52,10.71,13.39,18.47.53,4.72-7.35,32.09-11.9,45.46"/><polygon class="cls-21" points="207.75 184.44 159.59 184.44 124.08 246.35 169.93 246.35 207.75 184.44"/><path class="cls-1" d="M178,233.09s7.8-3.88,10.32-8.08,2-7.26,2-10.31c0-2.35-5.52-14.69-7.73-13.49-1.65.89,1.51,8.23,1.51,8.23s-4-8.09-5.71-6.65,3.19,10.85,3.19,10.85-4-6.55-5.71-5,3.52,8.19,3.52,8.19-3.91-4.66-5.48-2.87,9.32,10.67,9.32,10.67Z"/><rect class="cls-22" y="246.35" width="429.34" height="13.17"/><rect class="cls-23" x="149.78" width="62.75" height="47.11" rx="20.22"/><path class="cls-23" d="M168.29,54.84a13.24,13.24,0,0,0,4.43-5.62c2.71-6.66-.62-14.68-7.68-20.4a22.89,22.89,0,0,1,7.79,1.7c8.84,3.6,13.92,11.65,11.34,18C182.06,53.69,175.46,56.11,168.29,54.84Z"/><path class="cls-24" d="M166.5,23.56a3.67,3.67,0,1,1-3.67-3.67A3.66,3.66,0,0,1,166.5,23.56Z"/><path class="cls-24" d="M184.82,23.56a3.67,3.67,0,1,1-3.67-3.67A3.67,3.67,0,0,1,184.82,23.56Z"/><path class="cls-24" d="M203.14,23.56a3.67,3.67,0,1,1-3.67-3.67A3.67,3.67,0,0,1,203.14,23.56Z"/><rect class="cls-24" x="212.24" y="58.5" width="56.94" height="42.75" rx="18.35" transform="translate(481.41 159.76) rotate(-180)"/><path class="cls-24" d="M252.37,108.27a12.08,12.08,0,0,1-4-5.1c-2.46-6,.56-13.32,7-18.51a20.71,20.71,0,0,0-7.07,1.54c-8,3.26-12.63,10.57-10.3,16.32C239.88,107.22,245.86,109.42,252.37,108.27Z"/><path class="cls-23" d="M254,79.88a3.33,3.33,0,1,0,3.33-3.33A3.33,3.33,0,0,0,254,79.88Z"/><path class="cls-23" d="M237.38,79.88a3.33,3.33,0,1,0,3.32-3.33A3.33,3.33,0,0,0,237.38,79.88Z"/><path class="cls-23" d="M220.75,79.88a3.33,3.33,0,1,0,3.33-3.33A3.33,3.33,0,0,0,220.75,79.88Z"/></g></g></svg>