<svg width="50" height="50" viewBox="0 0 50 50" fill="none" xmlns="http://www.w3.org/2000/svg">
<g clip-path="url(#clip0_395_593)">
<path d="M10.185 16.1125C10.0896 16.1105 9.99471 16.1274 9.90582 16.1621C9.81694 16.1969 9.73579 16.2489 9.66704 16.315C9.59829 16.3812 9.54328 16.4604 9.50518 16.5479C9.46708 16.6354 9.44662 16.7295 9.445 16.825V31.79C9.44662 31.8854 9.46708 31.9796 9.50518 32.0671C9.54328 32.1546 9.59829 32.2337 9.66704 32.2999C9.73579 32.3661 9.81694 32.4181 9.90582 32.4528C9.99471 32.4876 10.0896 32.5045 10.185 32.5025C10.2804 32.5045 10.3753 32.4876 10.4642 32.4528C10.5531 32.4181 10.6342 32.3661 10.703 32.2999C10.7717 32.2337 10.8267 32.1546 10.8648 32.0671C10.9029 31.9796 10.9234 31.8854 10.925 31.79V16.825C10.9234 16.7295 10.9029 16.6354 10.8648 16.5479C10.8267 16.4604 10.7717 16.3812 10.703 16.315C10.6342 16.2489 10.5531 16.1969 10.4642 16.1621C10.3753 16.1274 10.2804 16.1105 10.185 16.1125ZM10.4075 12.8175C12.7025 12.8175 14.565 14.6125 14.565 16.825V31.79C14.565 34.0025 12.7025 35.7975 10.4075 35.7975C8.1125 35.7975 6.25 34 6.25 31.79V16.825C6.25 14.6125 8.1125 12.8175 10.4075 12.8175ZM14.7575 16.57V36.895H35.26V16.57H14.755H14.7575ZM11.335 13.275H38.675V37.9925C38.675 39.205 37.655 40.19 36.3975 40.19H13.615C12.3575 40.19 11.34 39.205 11.34 37.9925V13.275H11.335ZM39.765 16.075C39.6698 16.073 39.5751 16.0898 39.4864 16.1244C39.3977 16.159 39.3166 16.2107 39.2479 16.2767C39.1792 16.3426 39.1241 16.4214 39.0859 16.5086C39.0476 16.5959 39.0269 16.6898 39.025 16.785V31.75C39.0266 31.8454 39.0471 31.9396 39.0852 32.0271C39.1233 32.1146 39.1783 32.1937 39.247 32.2599C39.3158 32.3261 39.3969 32.3781 39.4858 32.4128C39.5747 32.4476 39.6696 32.4645 39.765 32.4625C40.175 32.4625 40.505 31.99 40.505 31.75V16.785C40.5034 16.6895 40.4829 16.5954 40.4448 16.5079C40.4067 16.4204 40.3517 16.3412 40.283 16.275C40.2142 16.2089 40.1331 16.1569 40.0442 16.1221C39.9553 16.0874 39.8604 16.0705 39.765 16.0725V16.075ZM22.54 38.0125C23.485 38.0125 24.25 38.75 24.25 39.66V45.46C24.25 48.2325 22.76 50 20.1 50C17.485 50 15.945 48.29 15.79 45.46V39.66C15.79 38.75 16.555 38.01 17.5 38.01C18.4425 38.01 19.2075 38.75 19.2075 39.66V45.3725C19.2675 46.4875 19.4625 46.705 20.1025 46.705C20.6975 46.705 20.8325 46.545 20.8325 45.46V39.66C20.8325 38.75 21.5975 38.01 22.5425 38.01L22.54 38.0125ZM33.895 38.0125C34.8375 38.0125 35.6025 38.75 35.6025 39.66V45.46C35.6025 48.2325 34.11 50 31.4525 50C28.8375 50 27.2975 48.29 27.1425 45.46V39.66C27.1425 38.75 27.9075 38.01 28.8525 38.01C29.795 38.01 30.56 38.75 30.56 39.66V45.3725C30.62 46.4875 30.815 46.705 31.455 46.705C32.05 46.705 32.185 46.545 32.185 45.46V39.66C32.185 38.75 32.95 38.01 33.895 38.01V38.0125ZM31.66 0.674972C31.9352 0.319416 32.3367 0.0834217 32.7812 0.0159291C33.2257 -0.0515634 33.6792 0.0546245 34.0475 0.312471C34.2273 0.435491 34.3803 0.593728 34.4972 0.777599C34.614 0.96147 34.6924 1.16715 34.7274 1.38218C34.7625 1.59721 34.7536 1.81713 34.7011 2.0286C34.6487 2.24007 34.5539 2.4387 34.4225 2.61247L32.7225 4.86997C35.6395 6.69882 37.7645 9.55529 38.6775 12.875C38.97 12.81 39.2775 12.775 39.5925 12.775C41.8875 12.775 43.75 14.57 43.75 16.7825V31.75C43.75 33.9625 41.8875 35.7575 39.5925 35.7575C37.2975 35.7575 35.435 33.9625 35.435 31.75V16.785C35.435 15.99 35.675 15.2475 36.0925 14.6225L35.585 14.7025C34.76 9.66997 30.24 5.90997 24.895 5.90997C19.3675 5.90997 14.7425 9.92747 14.14 15.1825L10.7425 14.82C11.21 10.745 13.515 7.23497 16.8175 5.03997L14.9875 2.61497C14.8561 2.44121 14.7613 2.24257 14.7089 2.0311C14.6564 1.81963 14.6475 1.59971 14.6826 1.38468C14.7176 1.16965 14.796 0.96397 14.9128 0.780099C15.0297 0.596228 15.1827 0.437991 15.3625 0.314971C15.7308 0.0571245 16.1843 -0.0490634 16.6288 0.0184291C17.0733 0.0859217 17.4748 0.321916 17.75 0.677471L19.875 3.49497C21.4842 2.91119 23.1832 2.61337 24.895 2.61497C26.545 2.61497 28.1325 2.88747 29.6125 3.38997L31.66 0.674972ZM21.59 8.34247C22.22 8.34247 22.73 8.83497 22.73 9.44247C22.7241 9.73909 22.6007 10.0212 22.387 10.227C22.1733 10.4328 21.8866 10.5453 21.59 10.54C21.4429 10.5426 21.2967 10.5163 21.1598 10.4624C21.0229 10.4086 20.898 10.3283 20.7921 10.2261C20.6863 10.124 20.6016 10.002 20.5429 9.86708C20.4842 9.73219 20.4526 9.58706 20.45 9.43997C20.45 8.83497 20.96 8.34247 21.59 8.34247ZM28.425 8.34247C29.055 8.34247 29.565 8.83497 29.565 9.44247C29.5591 9.73909 29.4357 10.0212 29.222 10.227C29.0083 10.4328 28.7216 10.5453 28.425 10.54C28.1284 10.5447 27.842 10.4315 27.6287 10.2252C27.4155 10.019 27.2928 9.73659 27.2875 9.43997C27.2875 8.83497 27.7975 8.34247 28.425 8.34247Z" fill="white"/>
</g>
<defs>
<clipPath id="clip0_395_593">
<rect width="50" height="50" fill="white"/>
</clipPath>
</defs>
</svg>
