<svg width="50" height="50" viewBox="0 0 50 50" fill="none" xmlns="http://www.w3.org/2000/svg">
<path d="M15.398 38.1507L11.4588 43.074V48.9589C11.4588 49.5339 10.9927 50 10.4168 50C9.84085 50 9.37563 49.5339 9.37563 48.9589V42.7091C9.37563 42.4721 9.45562 42.2434 9.60392 42.0588L13.7706 36.8501C14.1308 36.4013 14.7858 36.3274 15.2354 36.6875C15.6829 37.0464 15.7569 37.7018 15.398 38.1507V38.1507ZM40.3674 28.481C40.5334 28.6712 40.6246 28.9151 40.6246 29.1671V48.9587C40.6246 49.5337 40.159 49.9998 39.5835 49.9998C39.0076 49.9998 38.5415 49.5337 38.5415 48.9587V31.7251L36.2457 34.0209C35.9236 34.3426 35.432 34.4182 35.0277 34.2081L32.2433 32.7576L29.8334 33.7555L29.1827 36.6847C29.0759 37.1608 28.6535 37.4997 28.1653 37.4997L21.8347 37.5002C21.3462 37.5002 20.9242 37.1612 20.8174 36.6852L20.1667 33.7559L17.7105 32.7381L14.1257 34.2449C13.7357 34.4079 13.2848 34.321 12.9851 34.0209L9.72989 30.7657C9.43113 30.4669 9.34249 30.0155 9.50593 29.6251L11.0122 26.0412L9.99489 23.585L7.06474 22.9321C6.5887 22.8254 6.24973 22.4034 6.24973 21.9148L6.25016 15.5854C6.25016 15.0968 6.58914 14.6749 7.06517 14.5689L9.99532 13.9161L10.9932 11.5069L9.54269 8.72252C9.33213 8.31913 9.40823 7.82623 9.7299 7.50454L13.7552 3.47927C14.0768 3.15716 14.5689 3.08194 14.9727 3.29206L17.7571 4.74258L20.167 3.7447L20.8177 0.815868C20.9245 0.339835 21.3469 0 21.8351 0H28.1666C28.6551 0 29.0771 0.339835 29.1839 0.815868L29.8346 3.7447L32.2446 4.74258L35.0289 3.29206C35.4323 3.08194 35.9239 3.1576 36.2469 3.47927L40.2722 7.50454C40.5939 7.82621 40.67 8.31912 40.4594 8.72252L39.0089 11.5069L40.0068 13.9161L42.9369 14.5689C43.4129 14.6749 43.7515 15.0977 43.7515 15.5854V21.9156C43.7515 22.4042 43.4125 22.8261 42.9369 22.9329L40.0068 23.5858L39.0089 25.995L40.2108 28.3007L40.3674 28.481ZM35.3126 32.0082L38.1775 29.1433L33.2368 23.4971C31.5913 26.342 28.5167 28.2617 24.9999 28.2617C19.7549 28.2617 15.4883 23.9956 15.4883 18.751C15.4883 14.641 18.1098 11.1319 21.7684 9.80638L24.0953 5.73485C24.0996 5.7275 24.1065 5.72231 24.1109 5.71582C24.2929 5.41403 24.621 5.20996 24.9998 5.20996C25.3785 5.20996 25.7063 5.41404 25.8887 5.71582C25.893 5.72317 25.9 5.7275 25.9043 5.73485L28.2312 9.80638C31.8903 11.1316 34.5112 14.6406 34.5112 18.751C34.5112 19.6586 34.3807 20.5354 34.1424 21.3673L37.2148 24.8785L38.2879 22.2879C38.4181 21.9744 38.6935 21.7435 39.0238 21.67L41.6669 21.082V16.422L39.0238 15.8339C38.6935 15.76 38.4181 15.5296 38.2879 15.2161L36.8966 11.857C36.779 11.5725 36.7933 11.2504 36.9355 10.9768L38.2581 8.4392L35.3133 5.49443L32.7749 6.81578C32.5016 6.95847 32.18 6.97143 31.8946 6.8547L28.5356 5.46339C28.2221 5.33368 27.9912 5.05914 27.9169 4.72751L27.3297 2.08536H22.6684L22.0813 4.72751C22.0069 5.05914 21.7765 5.33369 21.4626 5.46339L18.1035 6.8547C17.8186 6.97187 17.4974 6.95803 17.2232 6.81578L14.6848 5.49443L11.74 8.4392L13.0622 10.9768C13.2048 11.25 13.2191 11.5725 13.1011 11.857L11.7098 15.2161C11.5796 15.5296 11.3051 15.7604 10.9739 15.8339L8.33085 16.422V21.082L10.9739 21.67C11.3042 21.7439 11.5796 21.9744 11.7098 22.2879L13.1011 25.6469C13.2079 25.9042 13.207 26.193 13.0993 26.4498L11.6954 29.7889L13.961 32.0546L17.3006 30.6511C17.5574 30.5438 17.845 30.5425 18.1035 30.6493L21.4626 32.0406C21.776 32.1704 22.0069 32.4449 22.0813 32.7765L22.6684 35.4182H27.3297L27.9168 32.7765C27.9912 32.4449 28.2216 32.1703 28.5355 32.0406L31.8946 30.6493C32.1795 30.5309 32.5012 30.546 32.7749 30.6878L35.3126 32.0082ZM31.606 20.0498C31.82 19.8622 32.089 19.7792 32.3527 19.7943C32.4011 19.4536 32.4275 19.1042 32.4275 18.7497C32.4275 16.6773 31.5732 14.8018 30.2 13.4532C30.2095 13.5665 30.2043 13.6815 30.1766 13.7939L29.1662 17.8348V21.8748C29.1662 22.1562 29.0616 22.4165 28.8644 22.615C28.6659 22.8126 28.4057 22.9168 28.1251 22.9168L21.8748 22.9172C21.6046 22.9172 21.3326 22.8018 21.1355 22.6154C20.947 22.4178 20.8337 22.1463 20.8337 21.8752V17.8352L19.8232 13.7943C19.7947 13.6815 19.79 13.5669 19.7999 13.4536C18.4263 14.8027 17.5724 16.6782 17.5724 18.7501C17.5719 22.8459 20.9045 26.1781 24.9999 26.1781C28.0035 26.1781 30.5951 24.3851 31.7641 21.8133L31.5069 21.5202C31.1286 21.0865 31.1727 20.4289 31.6059 20.0497L31.606 20.0498ZM23.1702 11.5518L21.9449 13.6958L22.6886 16.6675H27.3114L28.0551 13.6958L26.8298 11.5518L26.1493 10.361L26.0421 10.1734V12.5007C26.0421 13.0758 25.576 13.5427 25.0001 13.5427C24.4241 13.5427 23.9581 13.0767 23.9581 12.5007V10.1734L23.8508 10.361L23.1702 11.5518ZM22.9168 20.8337H27.0835V18.7497H22.9168V20.8337ZM42.7083 32.2918C42.7083 32.8668 43.1744 33.3329 43.7503 33.3329H48.959C49.535 33.3329 50.0002 32.8668 50.0002 32.2918C50.0002 31.7167 49.5345 31.2498 48.959 31.2498H43.75C43.1745 31.2498 42.7084 31.7163 42.7084 32.2918H42.7083ZM43.7499 35.4164C43.177 35.4164 42.7079 35.8851 42.7079 36.4584C42.7079 37.0313 43.177 37.4995 43.7499 37.4995H44.7919C45.3648 37.4995 45.833 37.0308 45.833 36.4584C45.833 35.8851 45.3643 35.4164 44.7919 35.4164H43.7499ZM48.9586 35.4164C48.3857 35.4164 47.9166 35.8851 47.9166 36.4584C47.9166 37.0313 48.3857 37.4995 48.9586 37.4995C49.5315 37.4995 49.9997 37.0308 49.9997 36.4584C49.9997 35.8846 49.5315 35.4164 48.9586 35.4164ZM48.9586 39.5834H43.7499C43.174 39.5834 42.7079 40.0495 42.7079 40.6246C42.7079 41.1996 43.174 41.6666 43.7499 41.6666H48.9586C49.5345 41.6666 49.9997 41.2005 49.9997 40.6246C49.9997 40.05 49.5345 39.5834 48.9586 39.5834ZM48.9586 43.7497H43.7499C43.174 43.7497 42.7079 44.2158 42.7079 44.7908C42.7079 45.3659 43.174 45.8328 43.7499 45.8328H48.9586C49.5345 45.8328 49.9997 45.3668 49.9997 44.7908C49.9997 44.2167 49.5345 43.7497 48.9586 43.7497ZM46.8755 47.9164H43.75C43.1741 47.9164 42.708 48.3825 42.708 48.9584C42.708 49.5335 43.1741 49.9996 43.75 49.9996H46.8751C47.451 49.9996 47.9162 49.5335 47.9162 48.9584C47.9166 48.3834 47.451 47.9164 46.8755 47.9164H46.8755ZM6.24983 31.2495H1.04112C0.465218 31.2495 0 31.7156 0 32.2915C0 32.8666 0.46565 33.3327 1.04112 33.3327H6.24983C6.82574 33.3327 7.29183 32.8666 7.29183 32.2915C7.2914 31.7161 6.82531 31.2495 6.24983 31.2495ZM6.24983 39.5833H5.20783C4.63495 39.5833 4.16671 40.052 4.16671 40.6245C4.16671 41.1973 4.63583 41.6665 5.20783 41.6665H6.24983C6.82271 41.6665 7.29183 41.1973 7.29183 40.6245C7.2914 40.052 6.82228 39.5833 6.24983 39.5833ZM1.04112 41.6664C1.614 41.6664 2.08312 41.1973 2.08312 40.6244C2.08312 40.0515 1.614 39.5833 1.04112 39.5833C0.46824 39.5833 0 40.052 0 40.6244C0 41.1973 0.468251 41.6664 1.04112 41.6664ZM6.24983 35.4162H1.04112C0.465218 35.4162 0 35.8831 0 36.4582C0 37.0332 0.46565 37.4993 1.04112 37.4993H6.24983C6.82574 37.4993 7.29183 37.0332 7.29183 36.4582C7.2914 35.8835 6.82531 35.4162 6.24983 35.4162ZM6.24983 43.7495H1.04112C0.465218 43.7495 0 44.2156 0 44.7906C0 45.3657 0.46565 45.8326 1.04112 45.8326H6.24983C6.82574 45.8326 7.29183 45.3665 7.29183 44.7906C7.2914 44.2164 6.82531 43.7495 6.24983 43.7495ZM4.1663 47.9162H1.04123C0.46533 47.9162 0.000110624 48.3823 0.000110624 48.9582C0.000110624 49.5333 0.465761 49.9993 1.04123 49.9993H4.1663C4.74221 49.9993 5.20743 49.5333 5.20743 48.9582C5.20786 48.3832 4.74221 47.9162 4.1663 47.9162ZM13.5412 43.7495C13.5412 44.3245 14.0073 44.7906 14.5823 44.7906H28.1246C28.7005 44.7906 29.1657 44.3245 29.1657 43.7495C29.1657 43.1745 28.7 42.7075 28.1246 42.7075L14.5834 42.7079C14.0084 42.7084 13.5418 43.1745 13.5418 43.7495H13.5412ZM17.7079 46.875H14.5828C14.0078 46.875 13.5417 47.342 13.5417 47.917C13.5417 48.4921 14.0078 48.959 14.5828 48.959H17.7079C18.2838 48.959 18.7499 48.4921 18.7499 47.917C18.7499 47.3415 18.2838 46.875 17.7079 46.875ZM35.4163 42.7083H32.2913C31.7154 42.7083 31.2493 43.1744 31.2493 43.7503C31.2493 44.3253 31.7154 44.7914 32.2913 44.7914H35.4163C35.9923 44.7914 36.4575 44.3253 36.4575 43.7503C36.4579 43.1744 35.9923 42.7083 35.4163 42.7083ZM35.4163 46.875H21.8741C21.299 46.875 20.833 47.342 20.833 47.917C20.833 48.4921 21.299 48.959 21.8741 48.959H35.4163C35.9923 48.959 36.4575 48.4921 36.4575 47.917C36.4579 47.3415 35.9923 46.875 35.4163 46.875Z" fill="white"/>
</svg>
