<svg width="50" height="50" viewBox="0 0 50 50" fill="none" xmlns="http://www.w3.org/2000/svg">
<path d="M25.2222 0C12.9444 0 3 4.97222 3 11.1111V38.8889C3 45.0278 12.9722 50 25.2222 50C37.4722 50 47.4444 45.0278 47.4444 38.8889V11.1111C47.4444 4.97222 37.5 0 25.2222 0ZM41.8889 38.8889C41.8889 40.2778 35.9722 44.4444 25.2222 44.4444C14.4722 44.4444 8.55556 40.2778 8.55556 38.8889V32.6944C13.0278 34.8611 18.8889 36.1111 25.2222 36.1111C31.5556 36.1111 37.4167 34.8611 41.8889 32.6944V38.8889ZM41.8889 26.25C38.2778 28.8889 31.9444 30.5556 25.2222 30.5556C18.5 30.5556 12.1667 28.8889 8.55556 26.25V18.4444C12.6389 20.75 18.5833 22.2222 25.2222 22.2222C31.8611 22.2222 37.8056 20.75 41.8889 18.4444V26.25ZM25.2222 16.6667C14.4722 16.6667 8.55556 12.5 8.55556 11.1111C8.55556 9.72222 14.4722 5.55556 25.2222 5.55556C35.9722 5.55556 41.8889 9.72222 41.8889 11.1111C41.8889 12.5 35.9722 16.6667 25.2222 16.6667Z" fill="white"/>
</svg>
