<svg width="45" height="45" viewBox="0 0 45 45" fill="none" xmlns="http://www.w3.org/2000/svg">
<path d="M43.3929 0H1.60714C0.719624 0 0 0.719624 0 1.60714V43.3929C0 44.2804 0.719624 45 1.60714 45H43.3929C44.2804 45 45 44.2804 45 43.3929V1.60714C45 0.719624 44.2804 0 43.3929 0ZM41.7857 9.64286H23.4937L26.708 3.21429H41.7857V9.64286ZM23.1135 3.21429L19.8992 9.64286H17.0648L20.2791 3.21429H23.1135ZM3.21429 3.21429H16.6849L13.4706 9.64286H3.21429V3.21429ZM3.21429 41.7857V12.8571H17.6786V41.7857H3.21429ZM41.7857 41.7857H20.8929V12.8571H41.7857V41.7857Z" fill="white"/>
<path d="M8.03557 6.42843C8.03557 7.31595 7.31595 8.03557 6.42843 8.03557C5.54091 8.03557 4.82129 7.31595 4.82129 6.42843C4.82129 5.54091 5.54091 4.82129 6.42843 4.82129C7.31595 4.82129 8.03557 5.54091 8.03557 6.42843Z" fill="white"/>
<path d="M12.8574 6.42843C12.8574 7.31595 12.1377 8.03557 11.2502 8.03557C10.3627 8.03557 9.64307 7.31595 9.64307 6.42843C9.64307 5.54091 10.3627 4.82129 11.2502 4.82129C12.1377 4.82129 12.8574 5.54091 12.8574 6.42843Z" fill="white"/>
<path d="M33.7502 27.3217C34.6363 27.3217 35.3574 28.0428 35.3574 28.9289V29.2044C35.3574 30.281 35.7082 31.3044 36.3557 32.1432C35.7082 32.9819 35.3574 34.0053 35.3574 35.0819V35.3574C35.3574 36.2435 34.6363 36.9646 33.7502 36.9646C32.8627 36.9646 32.1431 37.6842 32.1431 38.5717C32.1431 39.4592 32.8627 40.1789 33.7502 40.1789C36.4088 40.1789 38.5716 38.016 38.5716 35.3574V35.0819C38.5716 34.6525 38.7388 34.2486 39.0427 33.9447L39.7081 33.2793C40.3359 32.6515 40.3359 31.6345 39.7081 31.0067L39.0427 30.3412C38.7388 30.0377 38.5716 29.6334 38.5716 29.2044V28.9289C38.5716 26.2703 36.4088 24.1074 33.7502 24.1074C32.8627 24.1074 32.1431 24.827 32.1431 25.7146C32.1431 26.6021 32.8627 27.3217 33.7502 27.3217V27.3217Z" fill="white"/>
<path d="M23.6371 33.9441C23.9406 34.2476 24.1078 34.6519 24.1078 35.0809V35.3564C24.1078 38.015 26.2707 40.1779 28.9292 40.1779C29.8168 40.1779 30.5364 39.4583 30.5364 38.5707C30.5364 37.6832 29.8168 36.9636 28.9292 36.9636C28.0432 36.9636 27.3221 36.2425 27.3221 35.3564V35.0809C27.3221 34.0043 26.9712 32.9809 26.3241 32.1422C26.9713 31.3034 27.3221 30.28 27.3221 29.2034V28.9279C27.3221 28.0418 28.0432 27.3207 28.9292 27.3207C29.8168 27.3207 30.5364 26.6011 30.5364 25.7136C30.5364 24.8261 29.8168 24.1064 28.9292 24.1064C26.2707 24.1064 24.1078 26.2693 24.1078 28.9279V29.2034C24.1078 29.6328 23.9406 30.0367 23.6368 30.3406L22.9713 31.0061C22.3435 31.6338 22.3435 32.6509 22.9713 33.2787L23.6371 33.9441Z" fill="white"/>
<path d="M14.4641 14.4639H6.42843C5.54091 14.4639 4.82129 15.1835 4.82129 16.071V24.1067C4.82129 24.9942 5.54091 25.7139 6.42843 25.7139H14.4641C15.3517 25.7139 16.0713 24.9942 16.0713 24.1067V16.071C16.0713 15.1835 15.3517 14.4639 14.4641 14.4639ZM12.857 22.4996H8.03557V17.6782H12.857V22.4996Z" fill="white"/>
<path d="M14.4641 27.3213H6.42843C5.54091 27.3213 4.82129 28.0409 4.82129 28.9284C4.82129 29.816 5.54091 30.5356 6.42843 30.5356H14.4641C15.3517 30.5356 16.0713 29.816 16.0713 28.9284C16.0713 28.0409 15.3517 27.3213 14.4641 27.3213Z" fill="white"/>
<path d="M14.4641 32.1426H6.42843C5.54091 32.1426 4.82129 32.8622 4.82129 33.7497C4.82129 34.6372 5.54091 35.3569 6.42843 35.3569H14.4641C15.3517 35.3569 16.0713 34.6372 16.0713 33.7497C16.0713 32.8622 15.3517 32.1426 14.4641 32.1426Z" fill="white"/>
<path d="M14.4641 36.9639H6.42843C5.54091 36.9639 4.82129 37.6835 4.82129 38.571C4.82129 39.4585 5.54091 40.1782 6.42843 40.1782H14.4641C15.3517 40.1782 16.0713 39.4585 16.0713 38.571C16.0713 37.6835 15.3517 36.9639 14.4641 36.9639Z" fill="white"/>
<path d="M24.1901 21.4016C24.3666 21.9296 24.8039 22.3293 25.3452 22.4569C25.4682 22.486 25.5916 22.5 25.7147 22.5C26.1362 22.5 26.5466 22.3342 26.8512 22.029L27.3218 21.5583L29.4 23.6365C29.7139 23.9504 30.125 24.1071 30.5361 24.1071C30.9472 24.1071 31.3587 23.95 31.6726 23.6361C32.3004 23.0083 32.3004 21.9913 31.6726 21.3635L29.5944 19.2857L30.0654 18.8147C30.4593 18.4208 30.6211 17.8511 30.4931 17.3088C30.365 16.7674 29.9657 16.3301 29.4377 16.1536L24.6162 14.5465C24.0387 14.3535 23.4015 14.5049 22.9714 14.935C22.5406 15.3651 22.3906 16.0022 22.5829 16.5798L24.1901 21.4016Z" fill="white"/>
</svg>
