<svg xmlns="http://www.w3.org/2000/svg" viewBox="0 0 2999.09 1825.53"><defs><style>.cls-1{isolation:isolate;}.cls-2{fill:#9bc1f9;opacity:0.3;}.cls-3{fill:#466eb6;}.cls-4{fill:#7f1ca0;}.cls-5{fill:#f47458;}.cls-6{fill:#f48c7f;}.cls-7{fill:#b75742;}.cls-8{fill:#13375b;}.cls-9{fill:#355389;}.cls-10{fill:#86b1f2;}.cls-11{fill:#fae0b2;}.cls-12{fill:#daeef7;mix-blend-mode:multiply;}.cls-13{fill:#50bfa5;}.cls-14{fill:#3c8f7c;}.cls-15{fill:#184655;}.cls-16{fill:#f7cc7f;}.cls-17{fill:#efefef;}.cls-18{fill:#fff;}.cls-19{fill:#f79c8d;}.cls-20{fill:#042a44;}.cls-21{fill:#07345a;}.cls-22{fill:#f7a491;}.cls-23{fill:#327f6b;}</style></defs><g class="cls-1"><g id="Layer_2" data-name="Layer 2"><g id="Layer_1-2" data-name="Layer 1"><path class="cls-2" d="M2770.08,1426.94H2418.83c37.6-34.54,61.56-86.86,61.56-145.43v-43c0-124.66,90.63-225.72,202.43-225.72h0c114.6,0,207.51-103.6,207.51-231.39h0c0-127.8-92.91-231.4-207.51-231.4h-34C2537,550,2446.4,448.91,2446.4,324.25h0c0-104-75.63-188.36-168.92-188.36H957.63c-103.83,0-188,93.87-188,209.65h0C769.62,424.7,809,493.6,867,529.28H635.19c-96.7,0-175.08,80.89-175.08,180.67h0c0,119.58-93.93,216.51-209.8,216.51H215.07C96.29,926.46,0,1025.83,0,1148.41H0C0,1271,96.29,1370.36,215.07,1370.36h0c115.87,0,209.81,96.94,209.81,216.52v41.27c0,99.79,78.38,180.68,175.07,180.68h814.66c6.14.59,12.37.91,18.67.91h1336.8c105.7,0,191.39-85.69,191.39-191.4h0C2961.47,1512.63,2875.78,1426.94,2770.08,1426.94Z"/><path class="cls-3" d="M846.06,1197.2c-5.33,0-9.67,6.13-9.69,13.73s4.29,13.76,9.62,13.78,9.66-6.14,9.68-13.73S851.39,1197.21,846.06,1197.2Zm0,3.89c2.86,0,5.17,1.44,5.17,3.19s-2.33,3.18-5.19,3.18-5.18-1.44-5.17-3.2S843.18,1201.08,846.05,1201.09Zm0,18.46c-4,0-7.3-2.22-7.29-4.93s3.28-4.91,7.31-4.9,7.31,2.22,7.3,4.93S850,1219.56,846,1219.55Z"/><path class="cls-4" d="M824.14,1227.57a33.54,33.54,0,0,0-3.1,13.94l-.24,100.69a11.07,11.07,0,0,0,11.09,11l57.58.14a11.08,11.08,0,0,0,11.15-11l.25-100.69a33.43,33.43,0,0,0-3-14Z"/><path class="cls-4" d="M824.14,1227.57a33.54,33.54,0,0,0-3.1,13.94l-.24,100.69a11.07,11.07,0,0,0,11.09,11l57.58.14a11.08,11.08,0,0,0,11.15-11l.25-100.69a33.43,33.43,0,0,0-3-14Z"/><path class="cls-5" d="M900.87,1241.7l-.24,100.7a11.08,11.08,0,0,1-11.15,11l-57.58-.14a11.07,11.07,0,0,1-11.1-11l.25-100.7a33.29,33.29,0,0,1,3.1-13.93l73.68.18A33.17,33.17,0,0,1,900.87,1241.7Z"/><path class="cls-6" d="M836.06,1342.24l.25-100.7a33.38,33.38,0,0,1,3.1-13.93l-15.27,0a33.54,33.54,0,0,0-3.1,13.94l-.24,100.69a11.07,11.07,0,0,0,11.09,11l15.27,0A11.07,11.07,0,0,1,836.06,1342.24Z"/><path class="cls-7" d="M900.87,1241.7l-.24,100.7a11.08,11.08,0,0,1-11.15,11l-23.54-.06a11.12,11.12,0,0,0,11.26-11l.25-100.7a33.15,33.15,0,0,0-3.07-13.94l23.45,0A33.17,33.17,0,0,1,900.87,1241.7Z"/><path class="cls-8" d="M897.84,1227.75l-73.7-.18h0a5.87,5.87,0,0,1,5.9-5.82l61.92.16a5.86,5.86,0,0,1,5.88,5.84Z"/><rect class="cls-9" x="854.49" y="1288.76" width="12.51" height="79.82" transform="translate(-470.03 2186.16) rotate(-89.86)"/><path class="cls-10" d="M751.62,1195.15h8.8a9.23,9.23,0,0,0-5.2-1.57H534.66c-11.54,0-20.89,8.29-20.89,18.52v11.76c0,10.23,9.35,18.52,20.89,18.52l218.09-.06Z"/><path class="cls-3" d="M626.4,1193.62c-11,0-20,7.93-20,17.71v13.3c0,9.78,9,17.71,20,17.71H763.7v-3h-.56l-34.91-2.93-7.05-24.53s13.61-13.56,14.5-13.91,27.46-1.41,27.46-1.41h.56v-3Z"/><path class="cls-11" d="M754.8,1217.89c0-14.34,8.36-21.3,8.36-21.3H629.21c-10.13,0-18.35,7.29-18.35,16.27v10.24c0,9,8.22,16.26,18.35,16.26H763.16S754.8,1236,754.8,1217.89Z"/><path class="cls-12" d="M610.86,1212.86v10.24a14.46,14.46,0,0,0,.54,3.9c4.51-9.8,13.17-19.24,29.65-22.27,38.49-7.09,122.11-8.14,122.11-8.14H629.21C619.08,1196.59,610.86,1203.88,610.86,1212.86Z"/><path class="cls-13" d="M748,1292.7h10a9.75,9.75,0,0,0-5.89-2H502.43a23.41,23.41,0,0,0-23.64,23.19v14.72a23.41,23.41,0,0,0,23.64,23.18l246.84-.08Z"/><path class="cls-14" d="M606.27,1290.79A22.4,22.4,0,0,0,583.65,1313v16.64a22.4,22.4,0,0,0,22.62,22.17H761.66v-3.72H761l-39.5-3.67-8-30.71s15.41-17,16.42-17.41S761,1294.5,761,1294.5h.64v-3.7Z"/><path class="cls-11" d="M751.59,1321.17c0-18,9.46-26.66,9.46-26.66H609.45a20.57,20.57,0,0,0-20.77,20.36v12.81a20.57,20.57,0,0,0,20.77,20.37h151.6S751.59,1343.78,751.59,1321.17Z"/><path class="cls-12" d="M588.68,1314.87v12.81a20.21,20.21,0,0,0,.6,4.89c5.11-12.27,14.91-24.08,33.57-27.88,43.55-8.87,138.2-10.18,138.2-10.18H609.45A20.57,20.57,0,0,0,588.68,1314.87Z"/><path class="cls-5" d="M470.56,1243.82h-10a11.46,11.46,0,0,1,5.89-1.56H716.2c13.07,0,23.66,8.23,23.66,18.39v11.69c0,10.16-10.59,18.39-23.66,18.39l-246.93-.06Z"/><path class="cls-7" d="M612.33,1242.3c12.5,0,22.63,7.88,22.63,17.59v13.21c0,9.71-10.13,17.59-22.63,17.59H456.87v-3h.64l39.53-2.91,8-24.37s-15.41-13.47-16.42-13.81-31.09-1.41-31.09-1.41h-.64v-2.94Z"/><path class="cls-11" d="M467,1266.41c0-14.25-9.46-21.15-9.46-21.15H609.15c11.47,0,20.78,7.23,20.78,16.15v10.17c0,8.92-9.31,16.16-20.78,16.16H457.49S467,1284.35,467,1266.41Z"/><path class="cls-12" d="M629.93,1261.41v10.17a12.58,12.58,0,0,1-.61,3.87c-5.11-9.73-14.92-19.1-33.58-22.12-43.57-7-138.25-8.07-138.25-8.07H609.15C620.62,1245.26,629.93,1252.49,629.93,1261.41Z"/><rect class="cls-15" x="1312.72" y="1262.83" width="23.83" height="546.04" transform="translate(309.18 -219.81) rotate(10.73)"/><polygon class="cls-15" points="2062.25 1808.8 2090.41 1808.8 1985.46 1265.34 1962.05 1269.77 2062.25 1808.8"/><polygon class="cls-15" points="1546.68 1808.8 1574.84 1808.8 1469.89 1265.34 1446.48 1269.77 1546.68 1808.8"/><polygon class="cls-15" points="1805.66 1808.8 1782.8 1809.07 1883.41 1267.78 1906.83 1272.21 1805.66 1808.8"/><path class="cls-11" d="M1703.52,533.42c92.71,9.93,212.69,20.41,333.13,224.8C2168.29,981.61,2099,1315.31,1995.1,1408s-443.25,207.22-728.51,35.81c0,0-172.24-103.87-83.84-276.27,136-265.3,116.81-320.62,177.63-424.59S1506.73,512.35,1703.52,533.42Z"/><path class="cls-16" d="M2036.65,758.22c-82.21-139.51-164.19-188.66-237.44-209,28.33,29.32,57,67,85.8,115.83,131.64,223.39,62.35,557.09-41.55,649.82-92.14,82.23-369.44,181.55-630,83.44,26.78,29.64,53.11,45.52,53.11,45.52,285.26,171.41,624.61,56.92,728.51-35.81S2168.29,981.61,2036.65,758.22Z"/><path class="cls-6" d="M417.3,691.76c-2.62,20.72,19,37.17,38.15,35.87,21.22-1.43,39.22-18.83,42.32-39.68,3.36-22.57-10.2-40.62-31.18-42.27-20.42-1.61-33.49,16.57-27.59,34.91,4.23,13.15,16.23,18,22.28,14.42,4.71-2.83,4.43-10-1.28-11.22a5.91,5.91,0,0,0-5.86,2.53c-5-2-9.74-11.08-6.52-20.9,4.12-12.54,20-13.26,29.83-7.41,12.53,7.45,14.5,23.48,9.9,36.26-4.82,13.41-18,24-32.34,25a30,30,0,0,1-31.84-27.49A2.94,2.94,0,0,0,417.3,691.76Z"/><path class="cls-11" d="M1845.82,0c-96-.57-174,46.75-174.37,105.69-.18,29.47,19.11,56.27,50.44,75.77l-39.46,86.67,82.35-67.07a264.38,264.38,0,0,0,79.77,12.39c96,.57,174-46.75,174.37-105.7S1941.77.57,1845.82,0Z"/><path class="cls-16" d="M1779.35,116.89a60.55,60.55,0,1,0,43.11-74A60.53,60.53,0,0,0,1779.35,116.89Z"/><path class="cls-17" d="M1871.64,102.48A32.37,32.37,0,1,1,1809,119Z"/><path class="cls-5" d="M855.38,836.88l264.91-2a11,11,0,0,0,10.88-11l-1.33-177.11a11,11,0,0,0-11-10.88l-264.92,2a11,11,0,0,0-10.87,11L844.34,826A11,11,0,0,0,855.38,836.88Z"/><polygon class="cls-5" points="1121.71 734.38 1207.25 821.55 1101.73 801.86 1121.71 734.38"/><path class="cls-18" d="M1044.54,722.1l-25.74-.46s-32.43-24.22-33.43-32.79,4.33-26.67-.7-29-15.69-4.07-22.42,7.27c-4.89,8.22-.82,38.26-3.85,40.27-1.89,1.26-16.69,1.41-27.51,1.35a19.08,19.08,0,0,0-17,10.15v0a10.17,10.17,0,0,0,2.46,12.57l5.74,4.8-4.52,6a10.18,10.18,0,0,0,2,14.2l4.54,3.46L921,763.54a10.18,10.18,0,0,0,1.81,15l4,2.82-.6,1.12a10.17,10.17,0,0,0,3.32,13.34l4.05,2.68,68.56,1.21a47,47,0,0,0,18.74-3.52l24.19-3.56a5.32,5.32,0,0,0,4.53-5.24l.15-60A5.3,5.3,0,0,0,1044.54,722.1Z"/><polygon class="cls-19" points="1405.87 872.97 1382.04 944.46 1454.66 915.89 1405.87 872.97"/><path class="cls-20" d="M1480.74,660.23c-4.85.2-18.11,4.63-37.51,41.17-24.78,46.66-61,187.62-61,187.62l108.08,40.11,13.88-29.42,22.87-226.5S1482.08,660.18,1480.74,660.23Z"/><path class="cls-21" d="M1623.61,639.92c-30.91,0-107.38,9-142.87,20.33,0,0-26.08,223.34,23.47,393,11.09,38-9.17,157.49-9.17,157.49l320.26-4.22S1777.36,917.69,1791.65,871s14.63-209.28,14.63-209.28-2.19-.34-72-12.36C1701.79,643.78,1656.61,639.87,1623.61,639.92Z"/><path class="cls-22" d="M1660.93,1625.32s-7.09,81.5-20.12,104.07.69,60.93,1.38,66.2,27.42,12.78,69.93,8.27,41.82-14.29,38.39-30.09-26-36.11-27.42-51.15,13-69.21,13-69.21Z"/><path class="cls-23" d="M1531.17,1143.52s-221.07-12.23-270.44,17.56,8.93,91,8.93,91,180,78,481.29,95.31c71.35,4.1,77.5-185.41,64.16-201.09S1531.17,1143.52,1531.17,1143.52Z"/><path class="cls-9" d="M1717.42,1810.19c43.77-4.65,38.36-26.08,34.83-42.35-2.21-10.19-14.77-22.19-22.25-33.55-3.92,3.1-10.28,8.59-29.29,14.18-19.74,5.82-46.8-5.68-64-12.89-6.15,22.8-6.43,51.86-5.85,56.27C1631.52,1797.28,1673.65,1814.83,1717.42,1810.19Z"/><path class="cls-14" d="M1693.26,1301.14c-8.83,66.61-52.57,398.2-52.57,398.2l101.48,12.54s124.78-432.81,118.38-499-53.11-71.77-53.11-71.77S1716.64,1124.81,1693.26,1301.14Z"/><path class="cls-21" d="M1596.05,358.14s33.72-35.54,60.83,7.7c0,0,20.89-11.73,35.55,9.16,0,0,37.74-11.36,46.91,45.07,0,0,19.42-3.66,22,19.43s-9.16,38.47-9.16,38.47,10.91,8.18,6,29.41c-4.22,18-19.15,20.8-19.15,20.8s-4,30.41-17.22,39.57-31.15,4.77-31.15,4.77-4.77,16.49-20.16,15S1636,571.42,1618.77,578s-61.93-.36-61.93-.36-50.2-22.36-35.18-73.66c0,0-26.38-23.82-3.3-52.4,0,0-16.85-44.71,16.49-71.09S1596.05,358.14,1596.05,358.14Z"/><path class="cls-22" d="M1601.75,599.47l-6.1,45.28s-13.68,65.23,3.91,77.8,74.8-79.66,74.8-79.66l-6-114.73Z"/><path class="cls-5" d="M1670.27,565.34c-14.53,39.13-49.13,63.19-73.7,72.52l5.18-38.39,66.57-71.31Z"/><path class="cls-22" d="M1627.67,407.63c-35.69-12.29-73.74,11.42-79.18,48.21a457.18,457.18,0,0,0-4.91,58.09c-1,52.88,26.41,104.35,50.42,104.35s90.38-34.23,92.78-109.31C1688.27,462.62,1665.13,420.52,1627.67,407.63Z"/><path class="cls-22" d="M1669.09,514.91c0,11.67,7.73,21.12,17.27,21.12s17.28-9.45,17.28-21.12-7.74-21.12-17.28-21.12S1669.09,503.24,1669.09,514.91Z"/><path class="cls-21" d="M1523.64,381.31c-24.81,19.65-33.5,49.51-19.42,66.69s45.61,15.18,70.41-4.47,33.5-49.51,19.42-66.69S1548.44,361.66,1523.64,381.31Z"/><path class="cls-22" d="M1809.77,686.57c-30-11.19-44.59,257.69-48.63,368.37-53,5.08-145.45,0-168.47-1.69-10.82-.81-35.77-9.92-46.54-11.32-11-1.44-21-2.19-26.45-1.25-2,.34-57.26,22.87-62,27.81-5.87,6.13-21.72,21.58-19,28.26s30.49-18.62,30.49-18.62l13.59-7.6c-16.92,16.48-49.2,38.17-44.55,46.07,4.54,7.71,33.65-14.31,54.4-29.32-17.8,16-39.91,44.69-34.82,49.16,4.58,4,29.73-29.17,56.61-38.73,10-3.54,19.89,6.27,27.72,7.45,5.76.87,14.65,2.73,20.3,1.13l29.1-8.23c9.92.9,10.17,6.74,20.18,8.87,11.62,2.46,30.69,5.06,45.49,8.66,85.23,20.75,113.66,30.39,139.75,30.38C1876,1145.92,1880.54,713,1809.77,686.57Z"/><path class="cls-21" d="M1866.59,939c5.61-113.37,4.79-253.09-59-276.93-25.16-9.41-69.52,47.15-61.54,279.23C1780.12,944.11,1830.1,946.37,1866.59,939Z"/><polygon class="cls-19" points="1509.85 890.3 1516.35 890.3 1614.06 1129.61 1607.33 1128.59 1509.85 890.3"/><path class="cls-22" d="M1364.2,1695s8.86,28.29-7,47-81.73,37.07-90.38,47.2-8,18.76-8,18.76l184.9-5.07-2-55.65-8.52-40Z"/><path class="cls-9" d="M1345.7,1751.36s47.51,19.15,70.46,7.81,22.26-14.48,28.9-10.25,9,56.4,9,56.4l-207.92,6.09c-14.47-.33-21.78-11-10-20,8-6.24,17.37-10.41,22.66-13.44C1275.07,1768.64,1345.7,1751.36,1345.7,1751.36Z"/><path class="cls-14" d="M1371.21,1195.74c-14.29-30-46.79-69-104-45.49-54.54,22.42-69.18,77.51-52,133.92s130.5,388,134.45,433.64l90.45.6s-16.44-262.59-20.47-326.06C1415.81,1331.28,1395.94,1247.62,1371.21,1195.74Z"/><path class="cls-5" d="M1224.37,890.3h302.37A19.71,19.71,0,0,1,1545,902.54l93.1,227.07h166.7a8.44,8.44,0,0,1,8.44,8.43h0a8.44,8.44,0,0,1-8.44,8.44H1330.34a33.12,33.12,0,0,1-30.21-19.56l-93.75-208.83A19.71,19.71,0,0,1,1224.37,890.3Z"/><path class="cls-18" d="M1387.16,1022.53c2,10.2,10.94,17,19.87,15.23s14.52-11.5,12.48-21.7-10.94-17-19.87-15.24S1385.12,1012.33,1387.16,1022.53Z"/><ellipse class="cls-2" cx="2237.26" cy="419.48" rx="149.3" ry="149.61"/><rect class="cls-15" x="2076.69" y="416.54" width="55.04" height="4.24"/><rect class="cls-15" x="2343.12" y="416.54" width="55.04" height="4.24"/><rect class="cls-15" x="2234.91" y="259.71" width="4.23" height="55.16"/><rect class="cls-15" x="2234.91" y="525.63" width="4.23" height="55.16"/><path class="cls-15" d="M2241.81,419.48a4.56,4.56,0,1,1-4.55-4.56A4.56,4.56,0,0,1,2241.81,419.48Z"/><path class="cls-15" d="M2237.26,421.52a2,2,0,0,1-1.44-.6l-81.87-82a2,2,0,1,1,2.88-2.89l81.87,82a2,2,0,0,1-1.44,3.48Z"/><path class="cls-15" d="M2263.58,502.39a1.47,1.47,0,0,1-.74-.86l-26.46-80.1a1.48,1.48,0,0,1,2.81-.93l26.46,80.1a1.48,1.48,0,0,1-2.07,1.79Z"/><path class="cls-21" d="M2475.21,756.94l13.33-21.64-10.7-4.34a4.57,4.57,0,0,1-2.52-6h0a4.57,4.57,0,0,1,6-2.52l12.34,5,11.91-19.43-11.43-4.64a4.58,4.58,0,0,1-2.52-6h0a4.58,4.58,0,0,1,6-2.52l13.07,5.3L2524.45,678a4.56,4.56,0,0,1,5.6-1.82l2,.81a4.57,4.57,0,0,1,2.18,6.63l-12.87,21,18.95,7.69L2554.15,690a4.58,4.58,0,0,1,5.6-1.83l2.18.89a4.57,4.57,0,0,1,2.18,6.63l-12.87,21,10.71,4.34a4.58,4.58,0,0,1,2.52,6h0a4.58,4.58,0,0,1-6,2.52l-12.35-5L2534.43,744l11.43,4.63a4.57,4.57,0,0,1,2.52,6h0a4.57,4.57,0,0,1-6,2.52l-13.07-5.3-14.13,23a4.57,4.57,0,0,1-5.61,1.84l-2.34-.95a4.58,4.58,0,0,1-2.18-6.64l13.33-21.64-19-7.69-14.13,23a4.58,4.58,0,0,1-5.62,1.84l-2.33-.95A4.58,4.58,0,0,1,2475.21,756.94Zm48.29-17.34,11.91-19.43-18.95-7.69-11.91,19.44Z"/><path class="cls-6" d="M1306.13,168.18l13.63-30.76-17.61-28.65a4.62,4.62,0,0,1,4.41-7L1340,105.2l21.82-25.6a4.62,4.62,0,0,1,8,2l7.06,32.89L1408,127.35a4.62,4.62,0,0,1,.55,8.27l-29.1,16.87-2.6,33.54a4.62,4.62,0,0,1-7.69,3.08l-25-22.46-32.69,7.89A4.62,4.62,0,0,1,1306.13,168.18Z"/><path class="cls-16" d="M2293.16,168.15l10.22-23.07-13.21-21.5a3.46,3.46,0,0,1,3.31-5.26l25.09,2.59,16.37-19.2a3.47,3.47,0,0,1,6,1.52l5.29,24.67,23.32,9.62a3.47,3.47,0,0,1,.41,6.21l-21.82,12.65-2,25.16a3.47,3.47,0,0,1-5.78,2.31L2321.66,167l-24.52,5.92A3.46,3.46,0,0,1,2293.16,168.15Z"/><path class="cls-6" d="M2191.71,827.22l-1.62-19.11-16.66-9.5a2.63,2.63,0,0,1,.28-4.71l17.68-7.45,3.88-18.78a2.64,2.64,0,0,1,4.58-1.19L2212.39,781l19.06-2.11a2.64,2.64,0,0,1,2.54,4l-9.92,16.41,7.9,17.47a2.64,2.64,0,0,1-3,3.65L2210.29,816,2196.11,829A2.63,2.63,0,0,1,2191.71,827.22Z"/><path class="cls-16" d="M663,546.29l7.5-16.91-9.69-15.77a2.55,2.55,0,0,1,2.43-3.86l18.4,1.9,12-14.08a2.54,2.54,0,0,1,4.42,1.12L702,516.78l17.1,7.06a2.54,2.54,0,0,1,.31,4.55l-16,9.28-1.43,18.44a2.54,2.54,0,0,1-4.23,1.7l-13.77-12.36-18,4.34A2.54,2.54,0,0,1,663,546.29Z"/><path class="cls-13" d="M1243.11,515.68l7.5-16.91L1240.92,483a2.55,2.55,0,0,1,2.43-3.86l18.4,1.9,12-14.08a2.55,2.55,0,0,1,4.43,1.12l3.88,18.09,17.1,7.06a2.54,2.54,0,0,1,.3,4.55l-16,9.28L1282,525.5a2.55,2.55,0,0,1-4.24,1.7L1264,514.84l-18,4.34A2.54,2.54,0,0,1,1243.11,515.68Z"/><polygon class="cls-13" points="954.3 241.65 984 237.34 996.21 284.36 1040.41 283.42 1055.3 317.12 1072.36 309.58 1052.44 264.51 1010.55 265.4 997.85 216.49 953.16 222.97 954.3 241.65"/><polygon class="cls-21" points="890.61 1029.31 913.09 1009.42 949.08 1042.05 985.53 1017.02 1016.46 1037.03 1026.59 1021.38 985.23 994.61 950.68 1018.33 913.24 984.38 879.42 1014.31 890.61 1029.31"/><path class="cls-13" d="M537.61,1053.91l18.86-30.64-15.14-6.14a6.46,6.46,0,0,1-3.57-8.43h0a6.46,6.46,0,0,1,8.43-3.57l17.47,7.08,16.86-27.51-16.18-6.56a6.47,6.47,0,0,1-3.56-8.43h0a6.47,6.47,0,0,1,8.43-3.57l18.5,7.5,19.58-31.5a6.49,6.49,0,0,1,7.94-2.59l2.82,1.15a6.47,6.47,0,0,1,3.09,9.38l-18.21,29.73,26.82,10.88,19.58-31.51a6.48,6.48,0,0,1,7.93-2.58l3.08,1.25a6.48,6.48,0,0,1,3.09,9.39L645.22,997l15.15,6.14a6.48,6.48,0,0,1,3.56,8.44h0a6.48,6.48,0,0,1-8.43,3.57L638,1008l-16.6,27.62,16.17,6.56a6.46,6.46,0,0,1,3.57,8.43h0a6.46,6.46,0,0,1-8.43,3.57l-18.5-7.5-20,32.49a6.48,6.48,0,0,1-8,2.6l-3.3-1.34a6.47,6.47,0,0,1-3.09-9.39l18.87-30.64-26.83-10.87-20,32.49a6.48,6.48,0,0,1-8,2.6l-3.3-1.34A6.47,6.47,0,0,1,537.61,1053.91ZM606,1029.36l16.87-27.51L596,991l-16.87,27.51Z"/><path class="cls-14" d="M2250.94,1441.45c-1.92-16.94-4.19-34.27-12.06-49.39-9.56-18.38-26.36-31.64-41-46.25a256.64,256.64,0,0,1-61.19-97.53c-9.79-28.3-14.68-58.45-28.17-85.18-8.24-16.31-19.48-30.9-28.84-46.6-22.13-37.11-34.17-81-64.17-112A134.67,134.67,0,0,0,2045.89,1111c7.39,8.62,16,16.39,21.59,26.25,10.22,17.91,9.29,39.75,10.49,60.34a264.9,264.9,0,0,0,31.68,110.89c19.68,36.15,48.1,68.34,58.62,108.14,7.89,29.83,5.54,63.29,22.36,89.14,1.82,2.8,3.9,5.61,4.35,8.93a19.56,19.56,0,0,1-.33,5.6c-.38,2.4-.75,4.8-1.13,7.2-3.83,24.42-7.78,55.48,13.2,73.75,14.54,12.66,33.25,13,43.69-3.87s9.59-41.73,8.8-60.79C2257.91,1504.83,2254.51,1473,2250.94,1441.45Z"/><path class="cls-23" d="M2288.73,1421.82c-8.16-28.26-20.83-55.18-27.18-83.9-6.16-27.86-6.2-56.67-6.22-85.2q0-46.9-.07-93.81c0-19.47,0-39-3.25-58.24-6.93-41.3-28.39-79.5-32-121.23-1.57-18,.25-36.28-1.73-54.28-1.14-10.29-3.77-20.78-8.53-29.91a13.32,13.32,0,0,0-23.91.67c-10.43,22.6-17,47-12.83,71.22,2.53,14.53,8.82,28.07,13.51,42,20.92,62.2,9.81,131.06,26,194.67,4.89,19.2,12.27,38,13.13,57.82,2.06,47.37-33.33,90.65-30.08,138,2.66,38.79,30.55,70.89,42.25,107.95,6.56,20.76,8,42.9,15,63.5,5.45,16,18.14,35.44,37.84,30.58,18.7-4.61,13.05-19.88,12.21-34.46C2300,1517.87,2302.65,1470,2288.73,1421.82Z"/><path class="cls-14" d="M2331.54,1447.71c-.82-14.68-3.3-29.45-1.25-44,1.74-12.3,6.63-23.89,10.13-35.8,6.55-22.33,8.17-45.77,9.76-69q4.32-63.32,8.65-126.63c4.48-65.62,9-131.42,21.26-196,3.4-17.94,7.23-37.37-.83-53.75-1.7-3.45-5.05-7.11-8.71-6-2.61.82-3.9,3.69-4.84,6.26-26.82,72.88-37,151.35-66.89,223-7.17,17.16-15.51,34-19.22,52.28-4.46,21.89-2,44.51-1.44,66.84.83,32-2.29,64.31-11.13,95.11-4.63,16.11-10.83,31.86-13.37,48.43-3.16,20.67-.5,41.71,1.48,62.53a960.6,960.6,0,0,1,3.85,120.43c-.72,23.61,19.21,23,32.42,8.49,9.24-10.15,9.15-21.29,12.31-33.92C2314.11,1524.52,2334.06,1492.67,2331.54,1447.71Z"/><path class="cls-23" d="M2207,1511.75c-17.63-28.32-52.75-44.42-64-75.84-2.87-8-4-16.59-7.49-24.33-7.78-17.18-25.47-26.89-42.86-34.79a3.67,3.67,0,0,0-5.19,3.31h0a12.55,12.55,0,0,0,5.44,10.61A70.48,70.48,0,0,1,2121,1429c5.37,18.41,3,38.6,9.72,56.57,5.6,15.1,17.14,27.43,22.56,42.59,4.95,13.86,4.43,29,6.76,43.54s8.79,30,22.13,36.1C2230.44,1630.1,2218.37,1530.05,2207,1511.75Z"/><path class="cls-14" d="M2407.83,1502.41c-.76,13.69,1.34,28-4,40.67-3.43,8.07-9.6,14.6-14.66,21.76-17.77,25.14-24.22,60.77-51.53,74.92-1.81.94-3.82,1.77-5.81,1.4-2.8-.52-4.63-3.22-5.76-5.84-6.69-15.6.82-33.18,5.27-49.56.78-2.87,1.43-6.07.06-8.7-1.5-2.9-4.93-4.16-7.27-6.44-4.66-4.54-4.23-12-3.3-18.5a421.31,421.31,0,0,1,9.74-47.83c2.37-8.92,5.1-17.92,10.24-25.59,5.66-8.43,13.88-14.73,21.58-21.35A255.59,255.59,0,0,0,2437,1347.16c3.16-9.19,6-18.9,12.5-26.1s18.14-10.91,26.08-5.32c5.65,4-17.49,41.21-20.19,45.67-7.71,12.76-7.81,23.86-12.17,38C2432.55,1434.15,2409.87,1465.21,2407.83,1502.41Z"/><path class="cls-23" d="M2380.91,1518.24c5.05-13.06,10.14-26.3,11.81-40.21,1.85-15.46-.61-31.28,2-46.62,3.39-19.74,14.9-37.09,20.59-56.28,4.11-13.86,5.12-28.43,7.6-42.67,7.06-40.74,26.21-80.55,20.71-121.53-1.19-8.91-5.21-19.3-14.06-20.82-8-1.38-15.3,5.94-17.38,13.81s-.53,16.17,0,24.3a100.28,100.28,0,0,1-18,64.31c-12.58,17.8-30.84,31.21-42.16,49.84-13.89,22.86-15.78,50.76-22.86,76.55-14.1,51.31-49.44,96.07-55.89,148.89-2.56,21,2.37,46.57,21.77,55C2351.26,1647.06,2368.2,1551.11,2380.91,1518.24Z"/><path class="cls-5" d="M2282.83,1583.36H2154.08a13.65,13.65,0,0,0-13.26,16.82l46.93,197.91a13.63,13.63,0,0,0,13.26,10.5h154.67a13.63,13.63,0,0,0,13.26-10.5l46.93-197.91a13.65,13.65,0,0,0-13.26-16.82Z"/><rect class="cls-15" x="365.2" y="1351.71" width="625.85" height="32.32"/><rect class="cls-15" x="376.52" y="1539.22" width="409.18" height="28.28"/><rect class="cls-15" x="903.24" y="1367.88" width="26.4" height="440.86"/><rect class="cls-15" x="529.88" y="1367.88" width="26.4" height="440.86"/><polygon class="cls-15" points="715.46 1808.74 857.67 1371.67 834.36 1364.08 689.68 1808.74 715.46 1808.74"/><polygon class="cls-15" points="315.42 1808.74 437.05 1370.71 413.43 1364.15 289.98 1808.74 315.42 1808.74"/><path class="cls-15" d="M2237.26,244.75c-96.3,0-174.37,78.23-174.37,174.73S2141,594.21,2237.26,594.21,2411.62,516,2411.62,419.48,2333.56,244.75,2237.26,244.75Zm9.35,324c-82.3,5.18-153.2-57.48-158.36-139.95s57.36-153.51,139.66-158.69,153.19,57.48,158.35,140S2328.9,563.62,2246.61,568.8Z"/><rect class="cls-20" x="124.46" y="1806.04" width="2874.63" height="19.5"/><path class="cls-18" d="M1572.25,559.58l46.49-.76s-.78,17.68-21.22,18.6C1572.61,578.55,1572.25,559.58,1572.25,559.58Z"/></g></g></g></svg>