<svg width="41" height="50" viewBox="0 0 41 50" fill="none" xmlns="http://www.w3.org/2000/svg">
<g clip-path="url(#clip0_392_583)">
<path d="M29.5413 17.127C28.493 17.045 27.3671 17.2954 25.6428 17.9536C25.7891 17.8982 23.9983 18.5964 23.4974 18.7737C22.3849 19.1615 21.4695 19.3743 20.4434 19.3743C19.4283 19.3743 18.493 19.1704 17.4159 18.8091C17.0397 18.6802 16.6666 18.5428 16.2967 18.3969C16.1149 18.326 15.45 18.06 15.3037 18.0046C13.8676 17.4417 13.0586 17.2289 12.3871 17.2466C9.83389 17.2799 7.41589 18.7537 6.01297 21.1961C3.14949 26.1695 4.73415 35.1567 8.92077 41.2116C11.1504 44.412 12.3693 45.5556 12.8614 45.5401C13.3534 45.5179 13.7147 45.4137 14.5967 45.0414L14.9669 44.8841C17.1943 43.9333 18.7568 43.5144 21.1083 43.5144C23.3711 43.5144 24.8826 43.9266 27.0214 44.8486L27.3937 45.0082C28.2758 45.3849 28.595 45.4692 29.149 45.4559C29.9425 45.4448 30.9199 44.5317 33.0896 41.3468C33.6836 40.4802 34.2089 39.5671 34.6632 38.6429C34.3646 38.397 34.0748 38.1404 33.7944 37.8739C30.9376 35.1522 29.1712 31.482 29.1225 26.9474C29.0747 23.5923 30.1776 20.322 32.2475 17.681C31.3787 17.3603 30.4662 17.1735 29.5413 17.127ZM29.8849 12.7076C31.454 12.814 35.9487 13.2927 38.8742 17.5747C38.6349 17.7076 33.5019 20.6864 33.5551 26.9098C33.6349 34.3566 40.071 36.83 40.1508 36.8566C40.0976 37.0427 39.1136 40.3938 36.7466 43.8512C34.6987 46.8566 32.571 49.8353 29.22 49.8885C25.9221 49.9683 24.8583 47.947 21.1083 47.947C17.3317 47.947 16.1615 49.8353 13.0498 49.9683C9.80508 50.0746 7.35827 46.7236 5.2838 43.7449C1.05507 37.6278 -2.16301 26.5108 2.1721 18.9842C4.32635 15.2342 8.15614 12.8672 12.3317 12.814C15.4966 12.7342 18.5019 14.9417 20.4434 14.9417C22.3583 14.9417 25.7891 12.3885 29.8849 12.7076ZM27.3583 8.66508C25.6295 10.7395 22.8104 12.3619 20.071 12.1491C19.6987 9.32997 21.0817 6.37785 22.6774 4.54274C24.4593 2.46827 27.4381 0.925719 29.9115 0.819336C30.2306 3.69168 29.087 6.59061 27.3583 8.66508Z" fill="white"/>
</g>
<defs>
<clipPath id="clip0_392_583">
<rect width="40.4255" height="50" fill="white"/>
</clipPath>
</defs>
</svg>
