<svg width="65" height="45" viewBox="0 0 65 45" fill="none" xmlns="http://www.w3.org/2000/svg">
<path fill-rule="evenodd" clip-rule="evenodd" d="M16.4643 18.6735C16.4643 15.7214 18.8575 13.3281 21.8097 13.3281H43.1913C46.1434 13.3281 48.5367 15.7214 48.5367 18.6735V25.8007H52.4046C53.1384 23.7246 55.1183 22.2371 57.4457 22.2371C60.3978 22.2371 62.7911 24.6304 62.7911 27.5825C62.7911 30.5346 60.3978 32.9279 57.4457 32.9279C55.1183 32.9279 53.1384 31.4405 52.4046 29.3643H48.5367V36.4915C48.5367 39.4436 46.1434 41.8369 43.1913 41.8369H21.8097C18.8575 41.8369 16.4643 39.4436 16.4643 36.4915V29.3643H12.5966C11.8628 31.4405 9.88278 32.9279 7.55536 32.9279C4.60317 32.9279 2.20996 30.5346 2.20996 27.5825C2.20996 24.6304 4.60317 22.2371 7.55536 22.2371C9.88278 22.2371 11.8628 23.7246 12.5966 25.8007H16.4643V18.6735ZM55.6639 27.5825C55.6639 28.5664 56.4618 29.3643 57.4457 29.3643C58.4296 29.3643 59.2275 28.5664 59.2275 27.5825C59.2275 26.5986 58.4296 25.8007 57.4457 25.8007C56.4618 25.8007 55.6639 26.5986 55.6639 27.5825ZM44.9731 18.6735V36.4915C44.9731 37.4754 44.1752 38.2733 43.1913 38.2733H21.8097C20.8257 38.2733 20.0279 37.4754 20.0279 36.4915V18.6735C20.0279 17.6896 20.8257 16.8917 21.8097 16.8917H43.1913C44.1752 16.8917 44.9731 17.6896 44.9731 18.6735ZM9.33715 27.5825C9.33715 26.5986 8.53941 25.8007 7.55536 25.8007C6.5713 25.8007 5.77356 26.5986 5.77356 27.5825C5.77356 28.5664 6.5713 29.3643 7.55536 29.3643C8.53941 29.3643 9.33715 28.5664 9.33715 27.5825Z" fill="white"/>
<path fill-rule="evenodd" clip-rule="evenodd" d="M32.5008 6.20129C29.5487 6.20129 27.1554 8.5945 27.1554 11.5467H23.5918C23.5918 6.62639 27.5805 2.6377 32.5008 2.6377C37.421 2.6377 41.4098 6.62639 41.4098 11.5467H37.8462C37.8462 8.5945 35.4529 6.20129 32.5008 6.20129Z" fill="white"/>
</svg>
