<svg xmlns="http://www.w3.org/2000/svg" xmlns:xlink="http://www.w3.org/1999/xlink" viewBox="0 0 950.95 585.02"><defs><style>.cls-1{mask:url(#mask);filter:url(#luminosity-noclip-2);}.cls-2{mix-blend-mode:multiply;fill:url(#linear-gradient);}.cls-3,.cls-4,.cls-5{opacity:0.5;}.cls-4{fill:url(#linear-gradient-2);}.cls-5{fill:url(#linear-gradient-3);}.cls-6{fill:url(#linear-gradient-4);}.cls-7{opacity:0.4;}.cls-8{opacity:0.54;}.cls-9{fill:url(#linear-gradient-5);}.cls-10{fill:url(#linear-gradient-6);}.cls-11{fill:url(#linear-gradient-7);}.cls-12{fill:url(#linear-gradient-8);}.cls-13{opacity:0.8;}.cls-14{fill:#eac4f9;}.cls-15{fill:url(#linear-gradient-9);}.cls-16,.cls-21{fill:#fff;}.cls-17{fill:url(#linear-gradient-10);}.cls-18{fill:url(#linear-gradient-11);}.cls-19{fill:url(#linear-gradient-12);}.cls-20{fill:url(#linear-gradient-13);}.cls-21{opacity:0.6;}.cls-22{fill:url(#linear-gradient-14);}.cls-23{fill:url(#linear-gradient-15);}.cls-24{fill:url(#linear-gradient-16);}.cls-25{fill:url(#linear-gradient-17);}.cls-26{fill:url(#linear-gradient-18);}.cls-27{fill:url(#linear-gradient-19);}.cls-28{fill:url(#linear-gradient-20);}.cls-29{fill:url(#linear-gradient-21);}.cls-30{fill:url(#linear-gradient-22);}.cls-31{fill:url(#linear-gradient-23);}.cls-32{fill:url(#linear-gradient-24);}.cls-33{fill:url(#linear-gradient-25);}.cls-34{fill:url(#linear-gradient-26);}.cls-35{fill:url(#linear-gradient-27);}.cls-36{fill:url(#linear-gradient-28);}.cls-37{fill:url(#linear-gradient-29);}.cls-38{fill:url(#linear-gradient-30);}.cls-39{fill:url(#linear-gradient-31);}.cls-40{fill:url(#linear-gradient-32);}.cls-41{fill:url(#linear-gradient-33);}.cls-42{fill:url(#linear-gradient-34);}.cls-43{fill:url(#linear-gradient-35);}.cls-44{fill:url(#linear-gradient-36);}.cls-45{fill:url(#linear-gradient-37);}.cls-46{fill:url(#linear-gradient-38);}.cls-47{fill:url(#linear-gradient-39);}.cls-48{fill:url(#linear-gradient-40);}.cls-49{fill:url(#linear-gradient-41);}.cls-50{fill:url(#linear-gradient-42);}.cls-51{fill:url(#linear-gradient-43);}.cls-52{fill:url(#linear-gradient-44);}.cls-53{fill:#50c7fe;}.cls-54{fill:url(#linear-gradient-45);}.cls-55{fill:url(#linear-gradient-46);}.cls-56{fill:url(#linear-gradient-47);}.cls-57{fill:url(#linear-gradient-48);}.cls-58{fill:url(#linear-gradient-49);}.cls-59{fill:url(#linear-gradient-50);}.cls-60{fill:url(#linear-gradient-51);}.cls-61{fill:url(#linear-gradient-52);}.cls-62{fill:url(#linear-gradient-53);}.cls-63{fill:url(#linear-gradient-54);}.cls-64{fill:url(#linear-gradient-55);}.cls-65{fill:url(#linear-gradient-56);}.cls-66{fill:url(#linear-gradient-57);}.cls-67{fill:url(#linear-gradient-58);}.cls-68{opacity:0.3;}.cls-69{fill:url(#linear-gradient-59);}.cls-70{fill:url(#linear-gradient-60);}.cls-71{fill:url(#linear-gradient-61);}.cls-72{fill:url(#linear-gradient-62);}.cls-73{fill:url(#linear-gradient-63);}.cls-74{fill:url(#linear-gradient-64);}.cls-75{fill:url(#linear-gradient-65);}.cls-76{fill:url(#linear-gradient-66);}.cls-77{fill:url(#linear-gradient-67);}.cls-78{fill:url(#linear-gradient-68);}.cls-79{fill:url(#linear-gradient-69);}.cls-80{fill:url(#linear-gradient-70);}.cls-81{fill:url(#linear-gradient-71);}.cls-82{fill:url(#linear-gradient-72);}.cls-83{fill:url(#linear-gradient-73);}.cls-84{fill:url(#linear-gradient-74);}.cls-85{fill:url(#linear-gradient-75);}.cls-86{fill:url(#linear-gradient-76);}.cls-87{fill:url(#linear-gradient-77);}.cls-88{fill:url(#linear-gradient-78);}.cls-89{fill:url(#linear-gradient-79);}.cls-90{fill:url(#linear-gradient-80);}.cls-91{fill:url(#linear-gradient-81);}.cls-92{fill:url(#linear-gradient-82);}.cls-93{fill:url(#linear-gradient-83);}.cls-94{fill:url(#linear-gradient-84);}.cls-95{fill:url(#linear-gradient-85);}.cls-96{fill:url(#linear-gradient-86);}.cls-97{fill:url(#linear-gradient-87);}.cls-98{mask:url(#mask-2);}.cls-99{opacity:0.32;fill:url(#linear-gradient-88);}.cls-100{fill:url(#linear-gradient-89);}.cls-101{fill:url(#linear-gradient-90);}.cls-102{fill:url(#linear-gradient-91);}.cls-103{fill:url(#linear-gradient-92);}.cls-104{fill:url(#linear-gradient-93);}.cls-105{fill:url(#linear-gradient-94);}.cls-106{fill:url(#linear-gradient-95);}.cls-107{fill:url(#linear-gradient-96);}.cls-108{fill:url(#linear-gradient-97);}.cls-109{fill:url(#linear-gradient-98);}.cls-110{fill:url(#linear-gradient-99);}.cls-111{filter:url(#luminosity-noclip);}</style><filter id="luminosity-noclip" x="482.57" y="-8519.51" width="14.89" height="32766" filterUnits="userSpaceOnUse" color-interpolation-filters="sRGB"><feFlood flood-color="#fff" result="bg"/><feBlend in="SourceGraphic" in2="bg"/></filter><mask id="mask" x="482.57" y="-8519.51" width="14.89" height="32766" maskUnits="userSpaceOnUse"><g class="cls-111"/></mask><linearGradient id="linear-gradient" x1="813.1" y1="-608.74" x2="826.57" y2="-608.74" gradientTransform="translate(-506.35 613.78) rotate(23.84)" gradientUnits="userSpaceOnUse"><stop offset="0" stop-color="#fff"/><stop offset="1"/></linearGradient><linearGradient id="linear-gradient-2" x1="-4139.81" y1="708.47" x2="-3165.81" y2="1.16" gradientTransform="matrix(-1, 0, 0, 1, -3137.05, 0)" gradientUnits="userSpaceOnUse"><stop offset="0" stop-color="#a737d5"/><stop offset="1" stop-color="#ef497a"/></linearGradient><linearGradient id="linear-gradient-3" x1="-3275.8" y1="163.93" x2="-4113.13" y2="562.24" gradientTransform="matrix(-1, 0, 0, 1, -3137.05, 0)" gradientUnits="userSpaceOnUse"><stop offset="0" stop-color="#ed539f"/><stop offset="1" stop-color="#a061c2"/></linearGradient><linearGradient id="linear-gradient-4" x1="-3829.6" y1="3851.68" x2="-3646.58" y2="4109.71" gradientTransform="translate(-1905.96 -5179.23) rotate(-49.47)" gradientUnits="userSpaceOnUse"><stop offset="0" stop-color="#53d8ff"/><stop offset="1" stop-color="#3840f7"/></linearGradient><linearGradient id="linear-gradient-5" x1="897.71" y1="300.1" x2="705.72" y2="434.73" gradientTransform="matrix(1, 0, 0, 1, 0, 0)" xlink:href="#linear-gradient-4"/><linearGradient id="linear-gradient-6" x1="932.16" y1="349.23" x2="740.17" y2="483.86" gradientTransform="matrix(1, 0, 0, 1, 0, 0)" xlink:href="#linear-gradient-4"/><linearGradient id="linear-gradient-7" x1="904.03" y1="309.12" x2="712.04" y2="443.75" gradientTransform="matrix(1, 0, 0, 1, 0, 0)" xlink:href="#linear-gradient-4"/><linearGradient id="linear-gradient-8" x1="933.36" y1="350.94" x2="741.37" y2="485.57" gradientTransform="matrix(1, 0, 0, 1, 0, 0)" xlink:href="#linear-gradient-4"/><linearGradient id="linear-gradient-9" x1="920.7" y1="-1999.01" x2="1083.9" y2="-1999.01" gradientTransform="translate(-1409.64 537.69) rotate(57.92)" xlink:href="#linear-gradient-4"/><linearGradient id="linear-gradient-10" x1="889.63" y1="-2192.27" x2="910.26" y2="-2039.27" gradientTransform="translate(-1409.64 537.69) rotate(57.92)" xlink:href="#linear-gradient-4"/><linearGradient id="linear-gradient-11" x1="6009.94" y1="504.51" x2="5748.94" y2="673.71" gradientTransform="matrix(-1, 0, 0, 1, 6715.26, 0)" xlink:href="#linear-gradient-4"/><linearGradient id="linear-gradient-12" x1="872.12" y1="394.15" x2="643.47" y2="642.51" gradientUnits="userSpaceOnUse"><stop offset="0" stop-color="#fdf53f"/><stop offset="1" stop-color="#d93c65"/></linearGradient><linearGradient id="linear-gradient-13" x1="631.59" y1="458.2" x2="885.56" y2="458.2" gradientUnits="userSpaceOnUse"><stop offset="0" stop-color="#cb236d"/><stop offset="1" stop-color="#4c246d"/></linearGradient><linearGradient id="linear-gradient-14" x1="175.79" y1="990.26" x2="137.31" y2="801.3" gradientTransform="translate(15.28 -482.44) rotate(-5.68)" gradientUnits="userSpaceOnUse"><stop offset="0" stop-color="#2b3582"/><stop offset="1" stop-color="#150e42"/></linearGradient><linearGradient id="linear-gradient-15" x1="874.16" y1="75.85" x2="559.72" y2="585.07" xlink:href="#linear-gradient-12"/><linearGradient id="linear-gradient-16" x1="660.97" y1="432.3" x2="408.68" y2="447.14" xlink:href="#linear-gradient-12"/><linearGradient id="linear-gradient-17" x1="474.66" y1="340.86" x2="190.66" y2="645.86" xlink:href="#linear-gradient-12"/><linearGradient id="linear-gradient-18" x1="320.95" y1="577.5" x2="215.21" y2="431.42" gradientUnits="userSpaceOnUse"><stop offset="0" stop-color="#fdf53f"/><stop offset="0.28" stop-color="#f3c14a"/><stop offset="1" stop-color="#d93c65"/></linearGradient><linearGradient id="linear-gradient-19" x1="-1776.63" y1="586.92" x2="-1830.82" y2="320.73" gradientTransform="matrix(-0.98, -0.2, -0.2, 0.98, -938.31, -436.13)" xlink:href="#linear-gradient-14"/><linearGradient id="linear-gradient-20" x1="1003.37" y1="-157.64" x2="1063.37" y2="-257.64" gradientTransform="matrix(0.84, 0.55, -0.55, 0.84, -303.17, 140.15)" xlink:href="#linear-gradient-4"/><linearGradient id="linear-gradient-21" x1="175.37" y1="78.84" x2="252.87" y2="78.84" xlink:href="#linear-gradient-13"/><linearGradient id="linear-gradient-22" x1="-2346.14" y1="-3730.42" x2="-2340.6" y2="-3785.05" gradientTransform="matrix(-0.37, -0.93, -0.93, 0.37, -4141.55, -688.74)" xlink:href="#linear-gradient-12"/><linearGradient id="linear-gradient-23" x1="-2393.37" y1="-3761.76" x2="-2372.39" y2="-3804.51" gradientTransform="matrix(-0.37, -0.93, -0.93, 0.37, -4141.55, -688.74)" xlink:href="#linear-gradient-12"/><linearGradient id="linear-gradient-24" x1="-2283.77" y1="-3759.76" x2="-2316.43" y2="-3814.98" gradientTransform="matrix(-0.37, -0.93, -0.93, 0.37, -4141.55, -688.74)" xlink:href="#linear-gradient-12"/><linearGradient id="linear-gradient-25" x1="-3927.86" y1="-1196.65" x2="-3903.44" y2="-950.69" gradientTransform="matrix(-0.91, -0.42, -0.42, 0.91, -3754.91, -560.85)" xlink:href="#linear-gradient-14"/><linearGradient id="linear-gradient-26" x1="-2324.88" y1="-3914.69" x2="-2369.21" y2="-3850.56" gradientTransform="matrix(-0.37, -0.93, -0.93, 0.37, -4141.55, -688.74)" xlink:href="#linear-gradient-12"/><linearGradient id="linear-gradient-27" x1="-3919.41" y1="-1406.3" x2="-3885.03" y2="-1406.3" gradientTransform="matrix(-0.63, -0.77, -0.77, 0.63, -3249.51, -2086.63)" xlink:href="#linear-gradient-4"/><linearGradient id="linear-gradient-28" x1="-2354.87" y1="-3859.93" x2="-2326.72" y2="-3859.93" gradientTransform="matrix(-0.37, -0.93, -0.93, 0.37, -4141.55, -688.74)" xlink:href="#linear-gradient-14"/><linearGradient id="linear-gradient-29" x1="-3892.58" y1="-1380.74" x2="-3869.87" y2="-1380.74" gradientTransform="matrix(-0.88, -0.48, -0.48, 0.88, -3785.35, -596.92)" xlink:href="#linear-gradient-4"/><linearGradient id="linear-gradient-30" x1="-2350.26" y1="-3826.7" x2="-2331.66" y2="-3826.7" gradientTransform="matrix(-0.37, -0.93, -0.93, 0.37, -4141.55, -688.74)" xlink:href="#linear-gradient-14"/><linearGradient id="linear-gradient-31" x1="139.05" y1="256.48" x2="316.74" y2="256.48" xlink:href="#linear-gradient-13"/><linearGradient id="linear-gradient-32" x1="123.77" y1="471.63" x2="52.97" y2="631.86" gradientUnits="userSpaceOnUse"><stop offset="0" stop-color="#fdf53f"/><stop offset="0.66" stop-color="#e57a58"/><stop offset="1" stop-color="#d93c65"/></linearGradient><linearGradient id="linear-gradient-33" x1="182.2" y1="497.45" x2="111.41" y2="657.68" xlink:href="#linear-gradient-32"/><linearGradient id="linear-gradient-34" x1="114.08" y1="565.64" x2="126.5" y2="506.02" xlink:href="#linear-gradient-32"/><linearGradient id="linear-gradient-35" x1="200.81" y1="579.17" x2="250.81" y2="579.17" xlink:href="#linear-gradient-13"/><linearGradient id="linear-gradient-36" x1="239.33" y1="483.01" x2="225.67" y2="577.41" gradientTransform="matrix(1, 0, 0, 1, 0, 0)" xlink:href="#linear-gradient-14"/><linearGradient id="linear-gradient-37" x1="203.31" y1="564.1" x2="216.84" y2="564.1" gradientUnits="userSpaceOnUse"><stop offset="0" stop-color="#f9b776"/><stop offset="1" stop-color="#f47960"/></linearGradient><linearGradient id="linear-gradient-38" x1="279.24" y1="569.26" x2="319.61" y2="569.26" xlink:href="#linear-gradient-13"/><linearGradient id="linear-gradient-39" x1="307.01" y1="492.81" x2="293.35" y2="587.2" gradientTransform="matrix(1, 0, 0, 1, 0, 0)" xlink:href="#linear-gradient-14"/><linearGradient id="linear-gradient-40" x1="128.49" y1="503.05" x2="235.6" y2="503.05" gradientTransform="matrix(1, 0, 0, 1, 0, 0)" xlink:href="#linear-gradient-14"/><linearGradient id="linear-gradient-41" x1="267.39" y1="565.24" x2="283.54" y2="565.24" xlink:href="#linear-gradient-37"/><linearGradient id="linear-gradient-42" x1="225.78" y1="458.42" x2="108.2" y2="591.74" gradientTransform="matrix(1, 0, 0, 1, 0, 0)" xlink:href="#linear-gradient-14"/><linearGradient id="linear-gradient-43" x1="165.15" y1="326.22" x2="205.41" y2="326.22" xlink:href="#linear-gradient-37"/><linearGradient id="linear-gradient-44" x1="96.84" y1="387.37" x2="250.68" y2="387.37" gradientTransform="matrix(1, 0, 0, 1, 0, 0)" xlink:href="#linear-gradient-4"/><linearGradient id="linear-gradient-45" x1="245.7" y1="415.72" x2="283.01" y2="415.72" xlink:href="#linear-gradient-37"/><linearGradient id="linear-gradient-46" x1="-147.41" y1="2165.55" x2="-183.72" y2="2213.58" gradientTransform="translate(52.56 -1864.17) rotate(-8.21)" xlink:href="#linear-gradient-37"/><linearGradient id="linear-gradient-47" x1="-175.14" y1="2177.14" x2="-131.77" y2="2177.14" gradientTransform="translate(52.56 -1864.17) rotate(-8.21)" xlink:href="#linear-gradient-14"/><linearGradient id="linear-gradient-48" x1="-200.59" y1="2203.59" x2="-171.47" y2="2173.71" gradientTransform="translate(52.56 -1864.17) rotate(-8.21)" xlink:href="#linear-gradient-37"/><linearGradient id="linear-gradient-49" x1="-2010.23" y1="-5845.62" x2="-2110.02" y2="-5749.15" gradientTransform="matrix(-1.39, -0.07, -0.07, 1.39, -10940.39, -158.31)" gradientUnits="userSpaceOnUse"><stop offset="0" stop-color="#9cfffb"/><stop offset="1" stop-color="#9bfffa"/></linearGradient><linearGradient id="linear-gradient-50" x1="-3183.66" y1="-6123.1" x2="-3283.44" y2="-6026.63" gradientTransform="matrix(0.65, -1.23, -1.23, -0.65, 5993.96, -11151.57)" xlink:href="#linear-gradient-49"/><linearGradient id="linear-gradient-51" x1="251.96" y1="594.53" x2="259.41" y2="770.28" gradientTransform="matrix(1, 0, 0, 1, 0, 0)" xlink:href="#linear-gradient-4"/><linearGradient id="linear-gradient-52" x1="302.9" y1="592.37" x2="310.36" y2="768.12" gradientTransform="matrix(1, 0, 0, 1, 0, 0)" xlink:href="#linear-gradient-4"/><linearGradient id="linear-gradient-53" x1="280.76" y1="593.31" x2="288.21" y2="769.06" gradientTransform="matrix(1, 0, 0, 1, 0, 0)" xlink:href="#linear-gradient-4"/><linearGradient id="linear-gradient-54" x1="272.21" y1="422.56" x2="258.47" y2="524.11" gradientTransform="matrix(1, 0, 0, 1, 0, 0)" xlink:href="#linear-gradient-14"/><linearGradient id="linear-gradient-55" x1="503.74" y1="95.39" x2="312.08" y2="229.79" gradientTransform="matrix(1, 0, 0, 1, 0, 0)" xlink:href="#linear-gradient-4"/><linearGradient id="linear-gradient-56" x1="538.13" y1="144.44" x2="346.47" y2="278.83" gradientTransform="matrix(1, 0, 0, 1, 0, 0)" xlink:href="#linear-gradient-4"/><linearGradient id="linear-gradient-57" x1="510.05" y1="104.4" x2="318.4" y2="238.79" gradientTransform="matrix(1, 0, 0, 1, 0, 0)" xlink:href="#linear-gradient-4"/><linearGradient id="linear-gradient-58" x1="539.33" y1="146.15" x2="347.67" y2="280.54" gradientTransform="matrix(1, 0, 0, 1, 0, 0)" xlink:href="#linear-gradient-4"/><linearGradient id="linear-gradient-59" x1="178.2" y1="285.27" x2="-13.45" y2="419.66" gradientTransform="matrix(1, 0, 0, 1, 0, 0)" xlink:href="#linear-gradient-4"/><linearGradient id="linear-gradient-60" x1="212.59" y1="334.31" x2="20.94" y2="468.7" gradientTransform="matrix(1, 0, 0, 1, 0, 0)" xlink:href="#linear-gradient-4"/><linearGradient id="linear-gradient-61" x1="184.52" y1="294.27" x2="-7.14" y2="428.67" gradientTransform="matrix(1, 0, 0, 1, 0, 0)" xlink:href="#linear-gradient-4"/><linearGradient id="linear-gradient-62" x1="213.79" y1="336.02" x2="22.13" y2="470.41" gradientTransform="matrix(1, 0, 0, 1, 0, 0)" xlink:href="#linear-gradient-4"/><linearGradient id="linear-gradient-63" x1="600.55" y1="113.48" x2="593.82" y2="157.88" gradientTransform="matrix(1, 0, 0, 1, 0, 0)" xlink:href="#linear-gradient-14"/><linearGradient id="linear-gradient-64" x1="597.89" y1="133.47" x2="583.54" y2="185.74" gradientTransform="matrix(1, 0, 0, 1, 0, 0)" xlink:href="#linear-gradient-4"/><linearGradient id="linear-gradient-65" x1="597.36" y1="133.32" x2="583.01" y2="185.6" gradientTransform="matrix(1, 0, 0, 1, 0, 0)" xlink:href="#linear-gradient-4"/><linearGradient id="linear-gradient-66" x1="596.03" y1="132.96" x2="581.68" y2="185.23" gradientTransform="matrix(1, 0, 0, 1, 0, 0)" xlink:href="#linear-gradient-4"/><linearGradient id="linear-gradient-67" x1="595.67" y1="132.86" x2="581.32" y2="185.13" gradientTransform="matrix(1, 0, 0, 1, 0, 0)" xlink:href="#linear-gradient-4"/><linearGradient id="linear-gradient-68" x1="600.09" y1="32.78" x2="595.69" y2="152.26" xlink:href="#linear-gradient-12"/><linearGradient id="linear-gradient-69" x1="607.83" y1="74.76" x2="611.06" y2="177.11" xlink:href="#linear-gradient-12"/><linearGradient id="linear-gradient-70" x1="590.09" y1="75.32" x2="593.31" y2="177.67" xlink:href="#linear-gradient-12"/><linearGradient id="linear-gradient-71" x1="414.81" y1="483.73" x2="422.29" y2="483.73" xlink:href="#linear-gradient-13"/><linearGradient id="linear-gradient-72" x1="416.74" y1="481.67" x2="438.88" y2="481.67" gradientTransform="matrix(1, 0, 0, 1, 0, 0)" xlink:href="#linear-gradient-14"/><linearGradient id="linear-gradient-73" x1="498.61" y1="417.78" x2="512.78" y2="417.78" gradientTransform="matrix(1, 0, 0, 1, 0, 0)" xlink:href="#linear-gradient-4"/><linearGradient id="linear-gradient-74" x1="500.74" y1="416.79" x2="528.37" y2="416.79" gradientTransform="matrix(1, 0, 0, 1, 0, 0)" xlink:href="#linear-gradient-14"/><linearGradient id="linear-gradient-75" x1="429.25" y1="459.02" x2="449.31" y2="459.02" xlink:href="#linear-gradient-37"/><linearGradient id="linear-gradient-76" x1="518.77" y1="396.12" x2="539.01" y2="396.12" xlink:href="#linear-gradient-37"/><linearGradient id="linear-gradient-77" x1="629.73" y1="260.11" x2="498.74" y2="386.8" gradientTransform="matrix(1, 0, 0, 1, 0, 0)" xlink:href="#linear-gradient-14"/><linearGradient id="linear-gradient-78" x1="561.07" y1="348.98" x2="539.96" y2="367.24" gradientTransform="matrix(1, 0, 0, 1, 0, 0)" xlink:href="#linear-gradient-14"/><linearGradient id="linear-gradient-79" x1="536.49" y1="350.17" x2="525.15" y2="366.4" gradientTransform="matrix(1, 0, 0, 1, 0, 0)" xlink:href="#linear-gradient-14"/><linearGradient id="linear-gradient-80" x1="367.08" y1="-88" x2="366.01" y2="-186.74" gradientTransform="translate(91.7 381.12) rotate(23.84)" xlink:href="#linear-gradient-13"/><linearGradient id="linear-gradient-81" x1="350" y1="-179.2" x2="349.52" y2="-190.73" gradientTransform="translate(91.7 381.12) rotate(23.84)" xlink:href="#linear-gradient-13"/><linearGradient id="linear-gradient-82" x1="349.4" y1="-196.5" x2="351.77" y2="-163.48" gradientTransform="translate(91.7 381.12) rotate(23.84)" xlink:href="#linear-gradient-13"/><linearGradient id="linear-gradient-83" x1="382.11" y1="-180.52" x2="381.63" y2="-192.05" gradientTransform="translate(91.7 381.12) rotate(23.84)" xlink:href="#linear-gradient-13"/><linearGradient id="linear-gradient-84" x1="381.42" y1="-198.81" x2="383.8" y2="-165.78" gradientTransform="translate(91.7 381.12) rotate(23.84)" xlink:href="#linear-gradient-13"/><linearGradient id="linear-gradient-85" x1="368.23" y1="-214.89" x2="365.02" y2="-191.37" gradientTransform="translate(91.7 381.12) rotate(23.84)" xlink:href="#linear-gradient-13"/><linearGradient id="linear-gradient-86" x1="369.2" y1="-196.57" x2="357.44" y2="-86.8" gradientTransform="translate(91.7 381.12) rotate(23.84)" xlink:href="#linear-gradient-13"/><linearGradient id="linear-gradient-87" x1="823.03" y1="-637.54" x2="818.4" y2="-600.83" gradientTransform="translate(-506.35 613.78) rotate(23.84)" xlink:href="#linear-gradient-2"/><filter id="luminosity-noclip-2" x="482.57" y="380.97" width="14.89" height="14.48" filterUnits="userSpaceOnUse" color-interpolation-filters="sRGB"><feFlood flood-color="#fff" result="bg"/><feBlend in="SourceGraphic" in2="bg"/></filter><mask id="mask-2" x="482.57" y="380.97" width="14.89" height="14.48" maskUnits="userSpaceOnUse"><g class="cls-1"><path class="cls-2" d="M491,395.27l-7.17-3.17a2,2,0,0,1-1.12-2.44l2.22-7.26a2,2,0,0,1,2.75-1.26l8.62,3.81a2,2,0,0,1,1,2.83l-3.67,6.62A2,2,0,0,1,491,395.27Z"/></g></mask><linearGradient id="linear-gradient-88" x1="813.1" y1="-608.74" x2="826.57" y2="-608.74" gradientTransform="translate(-506.35 613.78) rotate(23.84)" gradientUnits="userSpaceOnUse"><stop offset="0" stop-color="#fff"/><stop offset="1" stop-color="#fff"/></linearGradient><linearGradient id="linear-gradient-89" x1="651.77" y1="157.64" x2="712.98" y2="157.64" xlink:href="#linear-gradient-37"/><linearGradient id="linear-gradient-90" x1="644.43" y1="179.42" x2="574.99" y2="295.02" gradientTransform="matrix(1, 0, 0, 1, 0, 0)" xlink:href="#linear-gradient-4"/><linearGradient id="linear-gradient-91" x1="610.57" y1="237.8" x2="492.1" y2="338.02" gradientTransform="matrix(1, 0, 0, 1, 0, 0)" xlink:href="#linear-gradient-4"/><linearGradient id="linear-gradient-92" x1="495.1" y1="331.38" x2="537.47" y2="331.38" xlink:href="#linear-gradient-37"/><linearGradient id="linear-gradient-93" x1="386.98" y1="318.22" x2="524.45" y2="249.19" xlink:href="#linear-gradient-13"/><linearGradient id="linear-gradient-94" x1="456.34" y1="289.55" x2="480.8" y2="289.55" xlink:href="#linear-gradient-13"/><linearGradient id="linear-gradient-95" x1="618.03" y1="-1013.78" x2="643.24" y2="-1039.65" gradientTransform="translate(-286.09 1030.8) rotate(15.65)" xlink:href="#linear-gradient-37"/><linearGradient id="linear-gradient-96" x1="-768.23" y1="957.92" x2="-800.15" y2="1000.15" gradientTransform="translate(434.02 -1035.55) rotate(-46.73)" xlink:href="#linear-gradient-37"/><linearGradient id="linear-gradient-97" x1="-792.61" y1="968.06" x2="-754.48" y2="968.06" gradientTransform="translate(434.02 -1035.55) rotate(-46.73)" xlink:href="#linear-gradient-14"/><linearGradient id="linear-gradient-98" x1="-814.99" y1="991.36" x2="-789.38" y2="965.09" gradientTransform="translate(434.02 -1035.55) rotate(-46.73)" xlink:href="#linear-gradient-37"/><linearGradient id="linear-gradient-99" x1="702.83" y1="137.75" x2="710.71" y2="137.75" xlink:href="#linear-gradient-37"/></defs><g id="Layer_2" data-name="Layer 2"><g id="Illustration"><g class="cls-3"><path class="cls-4" d="M32.75,248.29C57.54,210.61,110.1,190.42,111.47,134c.52-21.39-14.33-38.57-7.64-59.53C148.66-66.21,360.46,30.18,451.94,59.9,490,72.28,535.6,86.06,576.56,84.26c47.15-2.08,91-26.44,137.62-31a109.41,109.41,0,0,1,40.38,3.31c47.09,13.12,88.67,62.42,104.33,117.2,12.69,44.39-3.52,88.22,16.41,131.7,21.24,46.34,63.07,78.53,73.61,132,12.65,64.22-35.68,120.06-87.6,121.81-33,1.11-94.3-4.64-122.37-26.83-34.18-27-67.78-28.79-107.63-27.76-75.84,2-151.68,20.54-226.54,33.77-64.15,11.33-127.37,28.11-192.38,30.24-47.75,1.56-88.26,2.27-114.1-54.17C67.41,447.1-19.27,327.32,32.75,248.29Z"/><path class="cls-5" d="M67.17,259.73c17.57-25.62,60.77-28,87.1-42.55,48.61-26.88,3.55-72,17-112.06C182.08,72.74,218,41.9,255.66,47.73c26.64,4.13,48.9,18.87,73.19,28.85,23.41,9.62,48.76,15.48,73.59,20.86,54.67,11.86,111.68,19.06,167.87,16.68,43.62-1.85,84.15-23.47,127.33-27.52A105.32,105.32,0,0,1,735,89.53c43.57,11.65,82,55.42,96.53,104,11.74,39.41-3.26,78.32,15.18,116.92,19.65,41.14,58.35,69.71,68.11,117.21,11.7,57-33,106.58-81.05,108.13-30.58,1-87.25-4.12-113.22-23.82-31.63-24-62.71-25.56-99.58-24.64-70.17,1.75-140.34,18.24-209.6,30-59.35,10-117.84,24.95-178,26.84-44.18,1.39-81.66,2-105.56-48.08C99.25,436.22,19.05,329.9,67.17,259.73Z"/></g><path class="cls-6" d="M301,535.48a6.09,6.09,0,0,1-9.93-1.94c-9.32-22-30.06-86.55,8.55-159.41,32.61-61.52,44.44-98,48.67-114.91a3.82,3.82,0,0,1,7.24-.52C371.08,296.32,411.36,424,301,535.48Z"/><g class="cls-7"><g class="cls-8"><path class="cls-9" d="M855.32,368.58,726,367.86a6.79,6.79,0,0,0-5.86,10.28l.65,1.08a6.8,6.8,0,0,0,5.82,3.29H855.28a6.79,6.79,0,0,0,6.79-6.78v-.36A6.78,6.78,0,0,0,855.32,368.58Z"/><path class="cls-10" d="M873.38,375.52v.21a6.79,6.79,0,0,0,6.79,6.78h28.7a6.79,6.79,0,0,0,6.56-5h0a6.79,6.79,0,0,0-6.51-8.54l-28.7-.21A6.79,6.79,0,0,0,873.38,375.52Z"/></g><g class="cls-8"><path class="cls-11" d="M824.22,392.94,726,392.22a6.79,6.79,0,0,0-5.86,10.28l.65,1.08a6.8,6.8,0,0,0,5.82,3.29h97.54a6.78,6.78,0,0,0,6.79-6.78v-.36A6.79,6.79,0,0,0,824.22,392.94Z"/><path class="cls-12" d="M842.28,399.88v.21a6.78,6.78,0,0,0,6.79,6.78h28.7a6.79,6.79,0,0,0,6.56-5h0a6.79,6.79,0,0,0-6.51-8.54l-28.7-.21A6.79,6.79,0,0,0,842.28,399.88Z"/></g></g><g class="cls-13"><path class="cls-14" d="M759.64,415.42a1,1,0,0,1-.54-.16c-1.13-.73-2.25-1.49-3.35-2.26a1,1,0,1,1,1.15-1.63c1.08.75,2.18,1.5,3.29,2.21a1,1,0,0,1,.29,1.38A1,1,0,0,1,759.64,415.42Z"/><path class="cls-14" d="M745.86,404.78a1,1,0,0,1-.67-.26c-2-1.86-4-3.84-5.93-5.86a1,1,0,1,1,1.46-1.37c1.86,2,3.82,3.93,5.82,5.75a1,1,0,0,1-.68,1.74Zm-14.41-16.17a1,1,0,0,1-.81-.42c-1.63-2.25-3.18-4.58-4.62-6.94a1,1,0,1,1,1.7-1c1.42,2.31,2.94,4.6,4.54,6.81a1,1,0,0,1-.22,1.4A1.06,1.06,0,0,1,731.45,388.61Zm-10.84-18.76a1,1,0,0,1-.91-.59c-1.14-2.52-2.18-5.13-3.11-7.74a1,1,0,1,1,1.88-.67c.91,2.56,1.94,5.12,3,7.6a1,1,0,0,1-.5,1.32A1,1,0,0,1,720.61,369.85Zm-6.77-20.57a1,1,0,0,1-1-.79c-.59-2.7-1.08-5.46-1.45-8.21a1,1,0,1,1,2-.27c.37,2.69.85,5.41,1.43,8.06a1,1,0,0,1-.77,1.19Zm-2.41-21.52a1,1,0,0,1-1-1v-.95c0-2.46.08-4.94.25-7.39a1,1,0,0,1,1.07-.93,1,1,0,0,1,.93,1.07c-.17,2.4-.25,4.84-.25,7.25v.93a1,1,0,0,1-1,1Zm2-21.57a.62.62,0,0,1-.19,0,1,1,0,0,1-.79-1.17c.54-2.72,1.19-5.45,1.94-8.11a1,1,0,0,1,1.23-.7,1,1,0,0,1,.69,1.24c-.73,2.61-1.37,5.29-1.9,8A1,1,0,0,1,713.45,306.19Zm6.35-20.7a.91.91,0,0,1-.39-.08,1,1,0,0,1-.53-1.31c1.08-2.55,2.28-5.09,3.55-7.55a1,1,0,0,1,1.35-.42,1,1,0,0,1,.43,1.35c-1.26,2.41-2.43,4.9-3.49,7.4A1,1,0,0,1,719.8,285.49Zm10.45-19a1,1,0,0,1-.82-1.57c1.57-2.28,3.26-4.52,5-6.66a1,1,0,0,1,1.4-.14,1,1,0,0,1,.14,1.41c-1.72,2.1-3.37,4.3-4.92,6.53A1,1,0,0,1,730.25,266.53Zm14.11-16.42a1,1,0,0,1-.68-1.73c2-1.9,4.12-3.75,6.27-5.49a1,1,0,0,1,1.26,1.56c-2.12,1.71-4.19,3.52-6.16,5.38A1,1,0,0,1,744.36,250.11Zm17.17-13.21a1,1,0,0,1-.53-1.85c2.36-1.47,4.8-2.85,7.26-4.12a1,1,0,1,1,.92,1.78c-2.41,1.24-4.81,2.6-7.13,4A1,1,0,0,1,761.53,236.9ZM781,227.44a1,1,0,0,1-.34-1.94c2.6-.94,5.28-1.79,8-2.53a1,1,0,0,1,.53,1.93c-2.62.72-5.24,1.56-7.79,2.48A1.07,1.07,0,0,1,781,227.44Z"/><path class="cls-14" d="M802.08,222.18a1,1,0,0,1-.14-2c1.33-.18,2.68-.35,4-.49a1,1,0,1,1,.21,2c-1.3.14-2.63.3-3.93.49Z"/><path class="cls-14" d="M884.82,245.74a1,1,0,0,1-.64-.23c-1-.85-2-1.68-3.08-2.49a1,1,0,1,1,1.22-1.58c1.06.82,2.12,1.67,3.15,2.53a1,1,0,0,1,.12,1.41A1,1,0,0,1,884.82,245.74Z"/><path class="cls-14" d="M840.23,429.79a1,1,0,0,1-.22-2c2.61-.58,5.23-1.28,7.78-2.06a1,1,0,1,1,.59,1.91c-2.6.8-5.27,1.51-7.93,2.11ZM860.44,423a1,1,0,0,1-.41-1.91c2.43-1.1,4.86-2.31,7.21-3.6a1,1,0,0,1,1.35.4,1,1,0,0,1-.39,1.36c-2.39,1.31-4.87,2.54-7.35,3.66A1,1,0,0,1,860.44,423Zm18.44-10.69a1,1,0,0,1-.81-.42,1,1,0,0,1,.22-1.39l1.37-1c1.69-1.26,3.37-2.59,5-4a1,1,0,0,1,1.29,1.53c-1.64,1.39-3.35,2.75-5.07,4-.46.35-.93.69-1.4,1A1,1,0,0,1,878.88,412.34Zm15.94-14.15a1,1,0,0,1-.68-.26,1,1,0,0,1-.06-1.42c1.81-2,3.57-4,5.22-6.12a1,1,0,1,1,1.57,1.23c-1.68,2.14-3.47,4.24-5.32,6.25A1,1,0,0,1,894.82,398.19Zm12.76-17.05a1,1,0,0,1-.86-1.52c1.38-2.29,2.68-4.66,3.87-7.05a1,1,0,1,1,1.79.89c-1.21,2.44-2.54,4.86-3.94,7.19A1,1,0,0,1,907.58,381.14Zm9.06-19.29a1.26,1.26,0,0,1-.33-.05,1,1,0,0,1-.62-1.28c.89-2.52,1.69-5.11,2.38-7.69a1,1,0,0,1,1.93.51c-.7,2.64-1.52,5.28-2.42,7.84A1,1,0,0,1,916.64,361.85Zm5-20.71h-.14a1,1,0,0,1-.85-1.13c.36-2.65.63-5.34.79-8a1,1,0,0,1,1.06-.94,1,1,0,0,1,.94,1.06c-.17,2.72-.44,5.47-.81,8.17A1,1,0,0,1,921.65,341.14Zm.77-21.3a1,1,0,0,1-1-.93c-.17-2.67-.45-5.37-.83-8a1,1,0,0,1,.85-1.14,1,1,0,0,1,1.13.85c.39,2.7.67,5.45.85,8.17a1,1,0,0,1-.94,1.06Zm-3.52-21a1,1,0,0,1-1-.73c-.7-2.58-1.52-5.17-2.43-7.68a1,1,0,0,1,1.89-.68c.92,2.57,1.75,5.2,2.47,7.83a1,1,0,0,1-.7,1.23Zm-7.68-19.88a1,1,0,0,1-.89-.54c-1.22-2.38-2.54-4.75-3.93-7a1,1,0,1,1,1.71-1.05c1.42,2.33,2.76,4.74,4,7.17a1,1,0,0,1-.89,1.45ZM899.69,261a1,1,0,0,1-.79-.37c-1.66-2.1-3.43-4.16-5.24-6.12a1,1,0,0,1,1.46-1.36c1.85,2,3.65,4.1,5.35,6.23a1,1,0,0,1-.16,1.41A1,1,0,0,1,899.69,261Z"/><path class="cls-14" d="M823.14,432.18a1,1,0,0,1,0-2c1.3-.08,2.63-.18,3.94-.3a1,1,0,0,1,.19,2c-1.33.13-2.69.23-4,.31Z"/><path class="cls-15" d="M811.48,406.68a1.27,1.27,0,0,0,1.33-.64l7.49-13.48a67,67,0,0,0,21.26-4.69L854,396.94a1.26,1.26,0,0,0,1.47,0l15.17-10.6a1.26,1.26,0,0,0,.49-1.38l-4.23-14.83a67.07,67.07,0,0,0,11.71-18.35l15.24-2.41a1.29,1.29,0,0,0,1-1l3.22-18.22a1.25,1.25,0,0,0-.63-1.33L884,321.3A67.13,67.13,0,0,0,879.35,300l9.07-12.47a1.26,1.26,0,0,0,0-1.47l-10.6-15.16a1.26,1.26,0,0,0-1.38-.5l-14.83,4.23A67.33,67.33,0,0,0,843.26,263l-2.4-15.24a1.29,1.29,0,0,0-1-1l-18.22-3.23a1.27,1.27,0,0,0-1.33.63l-7.5,13.49a67.39,67.39,0,0,0-21.26,4.68l-12.47-9.06a1.28,1.28,0,0,0-1.47,0l-15.16,10.61a1.25,1.25,0,0,0-.5,1.38L766.15,280a67.28,67.28,0,0,0-11.7,18.35l-15.24,2.41a1.26,1.26,0,0,0-1.05,1L734.93,320a1.28,1.28,0,0,0,.63,1.33l13.49,7.5a67.11,67.11,0,0,0,4.68,21.26l-9.06,12.46a1.28,1.28,0,0,0,0,1.48l10.6,15.16a1.27,1.27,0,0,0,1.39.49l14.83-4.23a67.07,67.07,0,0,0,18.35,11.71l2.41,15.24a1.28,1.28,0,0,0,1,1.05Z"/><path class="cls-16" d="M816.52,343a18,18,0,1,1,1.31-.05C817.39,343,817,343,816.52,343Zm0-32.86a14.93,14.93,0,1,0,11.28,24.7h0a14.93,14.93,0,0,0-11.28-24.7Z"/><path class="cls-16" d="M834.42,367.24l-1.16-2.76a43.84,43.84,0,0,0,8-4.44h0a43.21,43.21,0,0,0,14-54.35,41.94,41.94,0,0,0-3.39-5.74,43.15,43.15,0,1,0-53,64.1l-1.23,2.74A46.14,46.14,0,1,1,843,362.5l-.78.53h0l0,0h0a45.81,45.81,0,0,1-6.18,3.47l-.07,0-.09.05-.24.11Z"/><path class="cls-17" d="M847.45,234.33l3.59-7.86a37.53,37.53,0,0,0,11.67-3.57l7.36,4.51a.72.72,0,0,0,.83,0l8-6.6a.7.7,0,0,0,.21-.79l-3-8.1a37.38,37.38,0,0,0,5.72-10.77l8.4-2a.71.71,0,0,0,.55-.62l1-10.32a.73.73,0,0,0-.41-.72l-7.87-3.58a37.69,37.69,0,0,0-3.56-11.67l4.51-7.37a.69.69,0,0,0-.06-.82l-6.59-8a.71.71,0,0,0-.8-.21l-8.09,3a37.51,37.51,0,0,0-10.77-5.72l-2-8.41a.71.71,0,0,0-.62-.54l-10.32-1a.71.71,0,0,0-.72.41l-3.59,7.86A37.39,37.39,0,0,0,829.18,155l-7.37-4.51a.71.71,0,0,0-.82,0l-8,6.6a.7.7,0,0,0-.21.79l3,8.1a37.66,37.66,0,0,0-5.73,10.77l-8.4,2a.71.71,0,0,0-.54.62l-1,10.32a.69.69,0,0,0,.41.71l7.86,3.59A37.69,37.69,0,0,0,812,205.7l-4.51,7.37a.71.71,0,0,0,.06.82l6.6,8a.7.7,0,0,0,.79.21l8.09-3a37.57,37.57,0,0,0,10.78,5.72l2,8.41a.71.71,0,0,0,.62.54l10.32,1A.69.69,0,0,0,847.45,234.33Z"/><path class="cls-16" d="M845.92,199.64a10.7,10.7,0,0,1-8.6-17,10.71,10.71,0,1,1,10.24,16.93A11.42,11.42,0,0,1,845.92,199.64Zm0-18.41a7.71,7.71,0,1,0,4.56,1.5A7.68,7.68,0,0,0,846,181.23Z"/><path class="cls-14" d="M830.6,243.36a1.26,1.26,0,0,1-.28,0c-1.3-.38-2.6-.8-3.87-1.27a1,1,0,0,1,.69-1.87c1.22.44,2.48.85,3.73,1.22a1,1,0,0,1,.69,1.23A1,1,0,0,1,830.6,243.36Z"/><path class="cls-14" d="M816,236.76a1,1,0,0,1-.54-.16c-1-.66-2.07-1.37-3.06-2.1s-2-1.55-3-2.37a1,1,0,0,1,1.29-1.53c.94.79,1.92,1.56,2.9,2.29s2,1.39,3,2a1,1,0,0,1,.3,1.38A1,1,0,0,1,816,236.76Zm-14.26-13.1a1,1,0,0,1-.8-.39,58.56,58.56,0,0,1-4.17-6.29,1,1,0,0,1,.38-1.37,1,1,0,0,1,1.36.38,54.38,54.38,0,0,0,4,6.06,1,1,0,0,1-.19,1.4A1,1,0,0,1,801.76,223.66Zm-8.89-17.21a1,1,0,0,1-1-.71,57.49,57.49,0,0,1-1.76-7.33,1,1,0,1,1,2-.34,53.61,53.61,0,0,0,1.69,7.08,1,1,0,0,1-.66,1.25A1,1,0,0,1,792.87,206.45Zm-2.45-19.21h0a1,1,0,0,1-1-1.05,57.21,57.21,0,0,1,.86-7.5,1,1,0,0,1,1.17-.8,1,1,0,0,1,.8,1.16,55,55,0,0,0-.83,7.23A1,1,0,0,1,790.42,187.24Zm4.29-18.89a.91.91,0,0,1-.39-.08,1,1,0,0,1-.53-1.31,55,55,0,0,1,3.39-6.73,1,1,0,1,1,1.72,1,54.87,54.87,0,0,0-3.27,6.5A1,1,0,0,1,794.71,168.35Zm10.51-16.26a1,1,0,0,1-.68-.27,1,1,0,0,1,0-1.41,56,56,0,0,1,5.49-5.18,1,1,0,0,1,1.4.14,1,1,0,0,1-.13,1.4,54.31,54.31,0,0,0-5.29,5A1,1,0,0,1,805.22,152.09Z"/><path class="cls-14" d="M820.72,140.38a1,1,0,0,1-.89-.54,1,1,0,0,1,.44-1.35c1.2-.61,2.45-1.19,3.69-1.71a1,1,0,1,1,.77,1.85c-1.19.5-2.39,1.05-3.56,1.65A1,1,0,0,1,820.72,140.38Z"/><path class="cls-14" d="M869.43,139.54a1.07,1.07,0,0,1-.43-.09c-1.18-.55-2.39-1.07-3.61-1.54a1,1,0,1,1,.71-1.86c1.27.48,2.53,1,3.75,1.59a1,1,0,0,1-.42,1.9Z"/><path class="cls-14" d="M880.74,233.27a1,1,0,0,1-.62-1.78,54.83,54.83,0,0,0,6.14-5.77,1,1,0,1,1,1.47,1.34,56.23,56.23,0,0,1-6.36,6A1,1,0,0,1,880.74,233.27ZM895,216a1,1,0,0,1-.88-1.47,54.56,54.56,0,0,0,3.38-7.72,1,1,0,1,1,1.88.66,56.2,56.2,0,0,1-3.5,8A1,1,0,0,1,895,216Zm6.31-21.49h-.08a1,1,0,0,1-.91-1.08c.12-1.48.18-3,.18-4.47,0-1.31,0-2.64-.14-4a1,1,0,1,1,2-.14c.1,1.36.15,2.74.15,4.1,0,1.54-.06,3.1-.19,4.64A1,1,0,0,1,901.33,194.52Zm-2.68-22.23a1,1,0,0,1-.95-.69,54.52,54.52,0,0,0-3.28-7.76,1,1,0,1,1,1.78-.92,56.94,56.94,0,0,1,3.4,8.05,1,1,0,0,1-.64,1.26A.85.85,0,0,1,898.65,172.29Zm-11.24-19.38a1,1,0,0,1-.74-.33,55,55,0,0,0-6.09-5.83,1,1,0,0,1-.14-1.41,1,1,0,0,1,1.4-.14,57.3,57.3,0,0,1,6.32,6,1,1,0,0,1-.08,1.41A1,1,0,0,1,887.41,152.91Z"/><path class="cls-14" d="M865.14,242.09a1,1,0,0,1-.35-1.94c1.22-.45,2.45-1,3.63-1.49a1,1,0,0,1,.83,1.83c-1.23.55-2.5,1.07-3.77,1.54A1,1,0,0,1,865.14,242.09Z"/><path class="cls-16" d="M837.05,213.7a26.5,26.5,0,1,1,25.76-4.52h0a26.78,26.78,0,0,1-4.4,2.94l-.07,0-.24.13-1.38-2.67a23.08,23.08,0,0,0,4.18-2.76h0a23.56,23.56,0,0,0,4.2-31.8c-.32-.44-.66-.88-1-1.3a23.51,23.51,0,1,0-26,37.11Z"/></g><path class="cls-18" d="M603.71,558.37H886v-56.5H603.71C609.75,501.88,609.75,558.37,603.71,558.37Z"/><path class="cls-19" d="M886,544.24V518.39c0-9.12-5.58-16.51-12.46-16.51H604.9a9.79,9.79,0,0,1-9.8-9.79h0a3,3,0,0,1,3-3H891.64c6.73,0,17.42,10.58,17.42,23.64v36.11c0,12.31-10.38,22.29-16.73,22.29H599.62a4.53,4.53,0,0,1-4.52-4.52h0a8.26,8.26,0,0,1,8.26-8.26H875.28C881.18,558.37,886,552.05,886,544.24Z"/><path class="cls-16" d="M878.13,514.47H613.48a1,1,0,0,1,0-2H878.13a1,1,0,0,1,0,2Z"/><path class="cls-16" d="M878.13,522.86H613.48a1,1,0,0,1,0-2H878.13a1,1,0,0,1,0,2Z"/><path class="cls-16" d="M878.13,531.24H613.48a1,1,0,0,1,0-2H878.13a1,1,0,0,1,0,2Z"/><path class="cls-16" d="M878.13,539.63H613.48a1,1,0,0,1,0-2H878.13a1,1,0,0,1,0,2Z"/><path class="cls-16" d="M878.13,548H613.48a1,1,0,0,1,0-2H878.13a1,1,0,1,1,0,2Z"/><rect class="cls-20" x="631.59" y="427.55" width="253.97" height="61.3" rx="28.3"/><rect class="cls-21" x="827.02" y="434.6" width="29.84" height="47.21" rx="10.2" transform="translate(1683.87 916.4) rotate(180)"/><rect class="cls-21" x="811.44" y="434.6" width="11.19" height="47.21" rx="5.17" transform="translate(1634.07 916.4) rotate(180)"/><path class="cls-22" d="M240.38,296.57C237.11,322.86,220.77,485,307,536.69a4.09,4.09,0,0,0,6.18-3.21c1.4-19.32,2.28-80.72-33.19-153.19-25.58-52.28-35-75.85-37.92-83.91A.86.86,0,0,0,240.38,296.57Z"/><path class="cls-16" d="M313.16,535a1.48,1.48,0,0,1-1.31-.78c-43.29-79.57-63.11-178-62.06-181.4a1.5,1.5,0,0,1,2.91.67c.05,4.48,19,100.6,61.78,179.29a1.5,1.5,0,0,1-.6,2A1.54,1.54,0,0,1,313.16,535ZM252.65,353.69h0Z"/><path class="cls-23" d="M578.18,520.43l135-258.6H685.51a6,6,0,0,1-4.67-9.87L824.71,76.61a10.15,10.15,0,0,1,18,7L832.57,255.11a17.13,17.13,0,0,1-19.05,16l-19.29-2.2L660.3,559a21.32,21.32,0,0,1-19.36,12.39H594.52Z"/><path class="cls-24" d="M466.58,339.06l95.3,211.69a34.93,34.93,0,0,0,31.86,20.6h49.13a18,18,0,0,0,15.69-9.24L660.3,559h0a14,14,0,0,1-12.51-7.66l-127-248.78Z"/><path class="cls-25" d="M533.65,327.65h0a20.85,20.85,0,0,0-30.27,4.81L363.27,543a60.52,60.52,0,0,1-50.39,27H293.17l-16.05-46.22S407.38,324,441,293.8c0,0,33.44-30.13,66.4-7.35a55,55,0,0,1,19.36,24.4Z"/><path class="cls-26" d="M124.73,399.43s23.46-29.32,68.9-33.88c0,0,21.59,7.36,64.59,84.41s71.55,112.2,105,93l-2.77,4.6A50.51,50.51,0,0,1,317.22,572H298.7a63.37,63.37,0,0,1-51.46-26.36C213.77,499.13,145.29,406.65,124.73,399.43Z"/><path class="cls-16" d="M826.45,138h-.17a1.5,1.5,0,0,1-1.32-1.66l.94-8.38a1.5,1.5,0,0,1,3,.34l-.94,8.37A1.51,1.51,0,0,1,826.45,138Z"/><path class="cls-16" d="M706.35,243.71a1.47,1.47,0,0,1-.91-.31,1.5,1.5,0,0,1-.28-2.1L824,86.93a5.15,5.15,0,0,1,9.19,3.72l-2.09,18.5a1.5,1.5,0,1,1-3-.33l2.09-18.51a2.14,2.14,0,0,0-3.83-1.55L707.54,243.13A1.5,1.5,0,0,1,706.35,243.71Z"/><path class="cls-16" d="M436.85,405.53a1.5,1.5,0,0,1-1.25-2.34L497,312.12a11,11,0,0,1,19.05,1.45,1.5,1.5,0,1,1-2.71,1.28,8,8,0,0,0-13.85-1.05l-61.44,91.07A1.49,1.49,0,0,1,436.85,405.53Z"/><path class="cls-16" d="M420.88,429.2a1.46,1.46,0,0,1-.84-.26,1.5,1.5,0,0,1-.4-2.08l3.94-5.84a1.5,1.5,0,1,1,2.48,1.68l-3.93,5.84A1.51,1.51,0,0,1,420.88,429.2Z"/><path class="cls-27" d="M775.81,244.86c.61,37.32-1,266.83-129.52,326.28a5.77,5.77,0,0,1-8.17-5.44c1-27.27,9-113.4,69.6-209.55,43.72-69.37,60.42-101,65.77-111.81A1.22,1.22,0,0,1,775.81,244.86Z"/><path class="cls-16" d="M638.12,567.2a1.47,1.47,0,0,1-.85-.26,1.49,1.49,0,0,1-.38-2.09c38-54.91,66.64-116.45,84-158.4,19.23-46.54,29.48-80.82,29.73-83.73a1.5,1.5,0,0,1,3-.4c.5,2.52-11.39,40.23-29.27,83.71-17.48,42.53-46.41,104.89-84.92,160.53A1.49,1.49,0,0,1,638.12,567.2ZM750.6,322.9h0Z"/><path class="cls-28" d="M666.58,570.73c31.23,4,122.59,2.09,146.83-151.23a4.29,4.29,0,0,0-7.58-3.36C793,432.28,770,459.78,749.58,469.07c-63.19,28.77-84.15,70.07-90.73,89.21A9.45,9.45,0,0,0,666.58,570.73Z"/><path class="cls-16" d="M663.25,566.83a1.5,1.5,0,0,1-.5-2.91C747.43,533.5,787,461.32,787.35,460.59A1.5,1.5,0,0,1,790,462c-.1.19-10.12,18.69-30.59,40.71-18.88,20.32-50.8,47.91-95.64,64A1.52,1.52,0,0,1,663.25,566.83Z"/><path class="cls-29" d="M175.6,109.06s.06-.46.21-1.29a.66.66,0,0,1,.77-.54.67.67,0,0,1,.5.39c.34-.27.75-.58,1.21-.92a.67.67,0,1,1,.79,1.07c-1.09.81-1.84,1.43-2.2,1.73l-.21.18-1.3,1Zm1.07-5.6c.32-1.41.66-2.84,1-4.27a.65.65,0,0,1,.81-.47.66.66,0,0,1,.48.81c-.37,1.41-.72,2.83-1,4.22a.66.66,0,0,1-.79.5.64.64,0,0,1-.18-.06A.69.69,0,0,1,176.67,103.46Zm5.08,1.69a.67.67,0,0,1,.22-.92,43.72,43.72,0,0,1,3.91-2.09.66.66,0,1,1,.57,1.2,41.27,41.27,0,0,0-3.79,2,.67.67,0,0,1-.66,0A.64.64,0,0,1,181.75,105.15Zm7.83-3.82a.67.67,0,0,1,.43-.84,27.56,27.56,0,0,1,4.33-1.06.66.66,0,0,1,.21,1.31,27.62,27.62,0,0,0-4.13,1,.7.7,0,0,1-.53-.05A.66.66,0,0,1,189.58,101.33ZM178.89,95c.43-1.4.88-2.81,1.34-4.18a.67.67,0,0,1,.85-.42.68.68,0,0,1,.42.85c-.47,1.36-.91,2.75-1.33,4.13a.68.68,0,0,1-.83.45.75.75,0,0,1-.13-.06A.66.66,0,0,1,178.89,95Zm19.23,4.8a.67.67,0,0,1,.69-.65,21,21,0,0,1,3.19.34l1.21.21A.66.66,0,1,1,203,101l-1.26-.21a19.55,19.55,0,0,0-3-.32.61.61,0,0,1-.3-.08A.67.67,0,0,1,198.12,99.77Zm15.72,6.87a.66.66,0,0,1,.66-.42,6.22,6.22,0,0,1,2.33-1.18.66.66,0,1,1,.38,1.27,4.09,4.09,0,0,0-2.5,1.68l-1.17-.61Zm-7.06-6a.68.68,0,0,1,.66-.68,15.49,15.49,0,0,0,4.13-.57.67.67,0,0,1,.82.46.68.68,0,0,1-.45.83,17.75,17.75,0,0,1-4.48.62.73.73,0,0,1-.33-.08A.69.69,0,0,1,206.78,100.65Zm-25.05-14c.53-1.37,1.09-2.74,1.66-4.06a.67.67,0,1,1,1.23.53c-.57,1.31-1.12,2.66-1.64,4a.66.66,0,0,1-.87.38l-.08,0A.67.67,0,0,1,181.73,86.66Zm33.72,15.92c.61-1.57,1.13-2.94,1.53-4.08a.67.67,0,0,1,1.26.45c-.41,1.15-.93,2.53-1.55,4.11a.67.67,0,0,1-.86.38l-.08,0A.68.68,0,0,1,215.45,102.58Zm5.19,2.39a.66.66,0,0,1,.55-.76c1.26-.21,2.65-.45,4.22-.84a.67.67,0,0,1,.81.49.66.66,0,0,1-.49.8c-1.62.4-3,.65-4.33.86a.6.6,0,0,1-.42-.07A.64.64,0,0,1,220.64,105Zm-5.54-6.46a.67.67,0,0,1,.1-.94,11,11,0,0,0,2.23-2.47c.18-.25.33-.45.45-.59a1.36,1.36,0,0,1,.16-.17.63.63,0,0,1,.91.08.7.7,0,0,1-.07,1c-.1.11-.21.28-.36.48A12.26,12.26,0,0,1,216,98.62a.65.65,0,0,1-.73.06A.55.55,0,0,1,215.1,98.51Zm-29.87-19.9c.58-1.18,1.18-2.34,1.79-3.46l.24-.44a.66.66,0,0,1,.9-.26h0a.67.67,0,0,1,.26.91l-.24.43c-.6,1.1-1.19,2.24-1.76,3.41a.66.66,0,0,1-.89.3h0A.68.68,0,0,1,185.23,78.61ZM229.11,103a.67.67,0,0,1,.39-.86,41.69,41.69,0,0,0,3.94-1.69.67.67,0,0,1,.89.31.66.66,0,0,1-.3.89c-1.35.66-2.72,1.25-4.07,1.75a.7.7,0,0,1-.55-.05A.65.65,0,0,1,229.11,103Zm7.88-3.7a.66.66,0,0,1,.22-.91l.79-.49a29.82,29.82,0,0,0,2.73-1.94.67.67,0,0,1,.83,1,32.54,32.54,0,0,1-2.85,2l-.81.5a.67.67,0,0,1-.66,0A.58.58,0,0,1,237,99.27ZM189.7,71.84a.67.67,0,0,1-.21-.92c.8-1.26,1.62-2.49,2.46-3.65a.65.65,0,0,1,.93-.15A.66.66,0,0,1,193,68c-.82,1.15-1.63,2.35-2.41,3.59a.66.66,0,0,1-.88.23ZM243.88,94a.66.66,0,0,1,0-.94,28.49,28.49,0,0,0,2.64-3.34.68.68,0,0,1,.92-.18.66.66,0,0,1,.18.93,30.12,30.12,0,0,1-2.76,3.5.67.67,0,0,1-.81.13ZM194.73,64.72a.66.66,0,0,1-.09-.94c1-1.15,1.94-2.25,2.94-3.29a.66.66,0,0,1,.94,0,.66.66,0,0,1,0,.94c-1,1-1.95,2.09-2.87,3.21a.68.68,0,0,1-.84.16ZM248.59,86a31.12,31.12,0,0,0,1.58-4,.65.65,0,0,1,.83-.43.66.66,0,0,1,.44.83,34,34,0,0,1-1.64,4.14.67.67,0,0,1-.89.31h0A.68.68,0,0,1,248.59,86ZM200.72,58.4a.68.68,0,0,1,.07-.95c1.12-1,2.29-1.89,3.47-2.73a.68.68,0,0,1,.93.15.67.67,0,0,1-.16.93c-1.14.82-2.28,1.72-3.37,2.66a.65.65,0,0,1-.75.08A.52.52,0,0,1,200.72,58.4Zm50.46,19.48a18,18,0,0,0,.34-4L251,72a.67.67,0,1,1,1.29-.33l.47,1.82h0a17.55,17.55,0,0,1-.28,4.61.67.67,0,0,1-.77.54.48.48,0,0,1-.21-.07A.67.67,0,0,1,251.18,77.88ZM207.74,53.25a.67.67,0,0,1,.25-.91,39.52,39.52,0,0,1,4-2,.67.67,0,1,1,.53,1.22,38,38,0,0,0-3.83,1.92.68.68,0,0,1-.65,0A.63.63,0,0,1,207.74,53.25Zm7.92-3.59a.67.67,0,0,1,.45-.83,40.74,40.74,0,0,1,4.29-1.07.67.67,0,1,1,.25,1.31,41.23,41.23,0,0,0-4.15,1,.67.67,0,0,1-.52-.05A.74.74,0,0,1,215.66,49.66Zm34.28,18.12-1.09-4.22a.67.67,0,0,1,1.29-.34l1.09,4.23a.67.67,0,0,1-.48.81.66.66,0,0,1-.48-.06A.7.7,0,0,1,249.94,67.78Zm-25.76-19.9a.66.66,0,0,1,.61-.72c1.43-.12,2.92-.18,4.41-.16a.66.66,0,0,1,.66.67.67.67,0,0,1-.67.66c-1.45,0-2.9,0-4.29.16a.69.69,0,0,1-.38-.08A.67.67,0,0,1,224.18,47.88Zm23.58,11.45-1.09-4.22a.67.67,0,1,1,1.29-.33L249.05,59a.66.66,0,0,1-.48.81.61.61,0,0,1-.48-.06A.64.64,0,0,1,247.76,59.33ZM232.88,47.84a.66.66,0,0,1,.73-.59c1.42.14,2.89.35,4.36.61a.67.67,0,1,1-.23,1.31c-1.44-.25-2.87-.46-4.27-.6a.55.55,0,0,1-.25-.07A.67.67,0,0,1,232.88,47.84Zm8.58,1.44a.67.67,0,0,1,.81-.48c1.36.34,2.74.74,4.13,1.18l.35.12.12.46a.67.67,0,0,1-1.14.61c-1.27-.4-2.54-.76-3.78-1.08a.44.44,0,0,1-.16-.06A.68.68,0,0,1,241.46,49.28Z"/><path class="cls-30" d="M248.71,64.61s-1.6,19.26-15.86,19.61-28.74-2.83-33.4,2c0,0,10.22-36.38,46.84-28Z"/><path class="cls-31" d="M289,70.17s5.15,18.26.53,22.73c-4.4,4.26-45.34,17.25-49.33,18.51a.36.36,0,0,1-.43-.21h0a4.84,4.84,0,0,1,.37-4.39c4-6.38,16-25.32,21.42-29.89C268.18,71.41,289,70.17,289,70.17Z"/><path class="cls-16" d="M254,104.36a.44.44,0,0,0,.34,0c.23-.08,22.53-7.58,32-11.18a4.58,4.58,0,0,0,2.94-4,66.65,66.65,0,0,0-.62-13.77.44.44,0,1,0-.86.15,67.39,67.39,0,0,1,.61,13.57A3.69,3.69,0,0,1,286,92.39c-9.45,3.6-31.74,11.1-32,11.17a.45.45,0,0,0-.28.55A.44.44,0,0,0,254,104.36Z"/><path class="cls-32" d="M272.51,29.3s-9-16.71-15.41-16.72c-6.12,0-44.59,19.09-48.33,21a.35.35,0,0,0-.17.45h0a4.86,4.86,0,0,0,3.32,2.9C219.2,38.72,241,44,248.08,43.5,256.66,42.89,272.51,29.3,272.51,29.3Z"/><path class="cls-16" d="M223.74,29.59a.47.47,0,0,0,.4,0c.21-.1,21.45-10.19,30.75-14.18a3.7,3.7,0,0,1,4,.69,66.89,66.89,0,0,1,9,10.19.44.44,0,0,0,.61.11.44.44,0,0,0,.11-.61,68.43,68.43,0,0,0-9.12-10.33,4.57,4.57,0,0,0-4.9-.85c-9.32,4-30.57,14.09-30.79,14.19a.43.43,0,0,0-.2.58A.44.44,0,0,0,223.74,29.59Z"/><path class="cls-33" d="M348,46.07A98.12,98.12,0,0,1,321.83,61.9c-32.49,13.24-58.67,17.35-66.15,18.32a3.7,3.7,0,0,1-3.48-1.51,65.67,65.67,0,0,1-11.95-28.93,5.4,5.4,0,0,1,2.16-5.19c7.07-5.16,28.27-19.64,59.44-32.13a97.91,97.91,0,0,1,29.63-6.79C342.5,20,346.37,36.55,348,46.07Z"/><path class="cls-34" d="M331.48,5.67a101.42,101.42,0,0,1,41.12,5.5,1.82,1.82,0,0,1,1,2.5A101.87,101.87,0,0,1,348,46.07C346.37,36.55,342.5,20,331.48,5.67Z"/><ellipse class="cls-35" cx="314" cy="36.34" rx="16.46" ry="17.67" transform="translate(9.25 120.29) rotate(-22)"/><path class="cls-36" d="M309,22.66c-6.71,2.72-9.79,10.76-6.88,18s10.72,10.85,17.43,8.13,9.8-10.75,6.89-18S315.68,20,309,22.66Z"/><path class="cls-16" d="M320.19,43.94a.44.44,0,0,0,.49,0,11,11,0,0,0,3.05-12.62,11.31,11.31,0,0,0-1.86-3.1.44.44,0,0,0-.62-.06.45.45,0,0,0-.05.62,10.38,10.38,0,0,1,1.72,2.86,10.14,10.14,0,0,1-2.79,11.63.43.43,0,0,0-.07.61A.45.45,0,0,0,320.19,43.94Z"/><path class="cls-37" d="M279,37.92c-5.57,2.25-8.13,8.91-5.71,14.89s8.88,9,14.45,6.75,8.12-8.92,5.71-14.9S284.52,35.67,279,37.92Z"/><path class="cls-38" d="M280,39.7c-4.43,1.79-6.47,7.1-4.54,11.87s7.08,7.16,11.51,5.37,6.48-7.11,4.55-11.87S284.44,37.9,280,39.7Z"/><path class="cls-16" d="M287.35,53.88a.42.42,0,0,0,.48,0,7.42,7.42,0,0,0,2.07-8.51,7.52,7.52,0,0,0-1.26-2.09.43.43,0,1,0-.66.56,6.79,6.79,0,0,1,1.11,1.85,6.56,6.56,0,0,1-1.8,7.51.43.43,0,0,0-.07.61A.33.33,0,0,0,287.35,53.88Z"/><path class="cls-39" d="M315.74,400a1,1,0,0,1-.65-.24l-1.9-1.64a1,1,0,1,1,1.31-1.51l1.89,1.63a1,1,0,0,1-.65,1.76Zm-7.17-6.25a1,1,0,0,1-.66-.25l-2.25-2A1,1,0,1,1,307,390l2.25,2a1,1,0,0,1-.67,1.75Zm-7.43-6.7a1,1,0,0,1-.68-.26l-2.21-2a1,1,0,1,1,1.36-1.47l2.2,2a1,1,0,0,1,.06,1.42A1,1,0,0,1,301.14,387Zm-7.31-6.83a1,1,0,0,1-.69-.28L291,377.84a1,1,0,0,1,1.39-1.44l2.16,2.08a1,1,0,0,1,0,1.41A1,1,0,0,1,293.83,380.2Zm-7.18-7a1,1,0,0,1-.7-.29l-2.13-2.13a1,1,0,0,1,1.42-1.41c.7.71,1.41,1.41,2.12,2.12a1,1,0,0,1,0,1.41A1,1,0,0,1,286.65,373.23Zm-7-7.13a1,1,0,0,1-.72-.31c-.7-.72-1.39-1.44-2.08-2.17a1,1,0,0,1,1.45-1.37l2.07,2.16a1,1,0,0,1,0,1.41A1,1,0,0,1,279.64,366.1Zm-6.85-7.28a1,1,0,0,1-.74-.33l-2-2.22a1,1,0,0,1,1.49-1.34l2,2.21a1,1,0,0,1-.06,1.41A1,1,0,0,1,272.79,358.82Zm-6.65-7.46a1,1,0,0,1-.76-.34l-2-2.28a1,1,0,0,1,.12-1.41,1,1,0,0,1,1.41.11c.64.76,1.29,1.51,1.94,2.27a1,1,0,0,1-.1,1.41A1,1,0,0,1,266.14,351.36Zm-6.44-7.64a1,1,0,0,1-.77-.37c-.64-.77-1.27-1.55-1.89-2.33a1,1,0,0,1,.15-1.4,1,1,0,0,1,1.41.15c.62.78,1.24,1.55,1.87,2.32a1,1,0,0,1-.14,1.41A1,1,0,0,1,259.7,343.72Zm-6.2-7.83a1,1,0,0,1-.79-.39l-1.81-2.4a1,1,0,1,1,1.6-1.2c.59.8,1.19,1.59,1.8,2.38a1,1,0,0,1-.19,1.4A1,1,0,0,1,253.5,335.89Zm-5.92-8a1,1,0,0,1-.82-.42c-.58-.82-1.15-1.64-1.72-2.47a1,1,0,0,1,1.64-1.14c.57.82,1.14,1.64,1.72,2.45a1,1,0,0,1-.24,1.4A1,1,0,0,1,247.58,327.85ZM242,319.58a1,1,0,0,1-.84-.45l-1.63-2.54a1,1,0,0,1,.31-1.38,1,1,0,0,1,1.38.31q.8,1.26,1.62,2.52a1,1,0,0,1-.3,1.38A1,1,0,0,1,242,319.58Zm-5.27-8.5a1,1,0,0,1-.86-.49c-.52-.87-1-1.74-1.52-2.61a1,1,0,0,1,.38-1.36,1,1,0,0,1,1.36.37q.73,1.29,1.5,2.58a1,1,0,0,1-.35,1.37A1,1,0,0,1,236.69,311.08Zm-4.87-8.73a1,1,0,0,1-.88-.54c-.47-.89-.93-1.78-1.38-2.68a1,1,0,1,1,1.78-.9c.45.89.9,1.77,1.37,2.65a1,1,0,0,1-.89,1.47Zm-4.4-9a1,1,0,0,1-.91-.58c-.42-.92-.83-1.83-1.24-2.76a1,1,0,0,1,.52-1.31,1,1,0,0,1,1.32.51c.4.91.8,1.82,1.22,2.73a1,1,0,0,1-.5,1.32A1,1,0,0,1,227.42,293.37Zm-3.9-9.21a1,1,0,0,1-.93-.64c-.36-.94-.72-1.88-1.06-2.82a1,1,0,1,1,1.88-.69q.51,1.39,1.05,2.79a1,1,0,0,1-.58,1.29A.89.89,0,0,1,223.52,284.16Zm-3.29-9.44a1,1,0,0,1-1-.7c-.22-.72-.44-1.45-.65-2.17l-1.89.15a1,1,0,0,1-1.06-.94,1,1,0,0,1,.93-1.06c1-.06,2-.15,3-.25a1,1,0,0,1,1.1.89,1,1,0,0,1-.13.6l.66,2.19a1,1,0,0,1-1,1.29Zm-10.56-2.58h0c-1,0-2-.08-3-.15a1,1,0,1,1,.14-2c1,.06,2,.11,2.95.14a1,1,0,0,1,0,2Zm-9.94-1-.17,0c-1-.17-2-.37-3-.58a1,1,0,1,1,.43-1.95c1,.21,1.93.39,2.9.56a1,1,0,0,1-.17,2Zm26.85-.45a1,1,0,0,1-.19-2c1-.18,1.94-.39,2.9-.6a1,1,0,0,1,1.2.75,1,1,0,0,1-.75,1.2c-1,.22-2,.43-3,.62Zm-36.54-2a.89.89,0,0,1-.32-.05l-.65-.22q-1.12-.39-2.22-.81a1,1,0,0,1-.57-1.29,1,1,0,0,1,1.3-.58c.7.28,1.42.54,2.14.79l.63.21a1,1,0,0,1,.64,1.27A1,1,0,0,1,190,268.74Zm46.23-.44a1,1,0,0,1-.29-2c.94-.29,1.88-.6,2.82-.92a1,1,0,1,1,.65,1.89c-1,.33-1.92.65-2.88.94A1,1,0,0,1,236.27,268.3Zm-18.63-3.24a1,1,0,0,1-1-.78c-.23-1-.43-2-.63-3a1,1,0,0,1,2-.38c.19,1,.39,1.94.61,2.91a1,1,0,0,1-.76,1.19A.82.82,0,0,1,217.64,265.06Zm28-.22a1,1,0,0,1-.92-.6,1,1,0,0,1,.53-1.32c.91-.39,1.81-.79,2.71-1.21a1,1,0,1,1,.84,1.82c-.91.42-1.84.83-2.76,1.23A1,1,0,0,1,245.65,264.84Zm-64.8,0a1.12,1.12,0,0,1-.47-.11c-.89-.47-1.78-1-2.66-1.47a1,1,0,1,1,1-1.73c.85.49,1.71,1,2.58,1.42a1,1,0,0,1,.42,1.35A1,1,0,0,1,180.85,264.84Zm73.79-4.39a1,1,0,0,1-.49-1.87q1.31-.72,2.58-1.47a1,1,0,0,1,1.37.35,1,1,0,0,1-.35,1.37c-.87.51-1.75,1-2.63,1.5A1.07,1.07,0,0,1,254.64,260.45Zm-82.26-.89a1,1,0,0,1-.59-.2c-.81-.59-1.62-1.22-2.41-1.85a1,1,0,0,1-.15-1.41,1,1,0,0,1,1.4-.15q1.16.93,2.34,1.8a1,1,0,0,1,.22,1.4A1,1,0,0,1,172.38,259.56Zm43.52-4.34a1,1,0,0,1-1-.87c-.13-1-.24-2-.34-3a1,1,0,0,1,2-.2c.09,1,.21,2,.33,3a1,1,0,0,1-.86,1.12Zm47.25,0a1,1,0,0,1-.83-.44,1,1,0,0,1,.26-1.39q1.23-.84,2.43-1.71a1,1,0,0,1,1.18,1.61c-.82.6-1.65,1.18-2.48,1.75A1,1,0,0,1,263.15,255.21Zm-98.37-2.14a1,1,0,0,1-.7-.28c-.72-.71-1.43-1.44-2.13-2.18a1,1,0,0,1,1.46-1.37c.68.72,1.37,1.43,2.07,2.12a1,1,0,0,1-.7,1.71Zm106.33-3.91a1,1,0,0,1-.65-1.77c.76-.63,1.5-1.28,2.24-1.95a1,1,0,0,1,1.34,1.49c-.75.68-1.52,1.34-2.29,2A1,1,0,0,1,271.11,249.16Zm-113-3.55a1,1,0,0,1-.79-.39c-.62-.8-1.23-1.61-1.82-2.43a1,1,0,0,1,.23-1.4,1,1,0,0,1,1.39.23c.58.8,1.17,1.59,1.78,2.37a1,1,0,0,1-.17,1.41A1,1,0,0,1,158.13,245.61Zm57-.35a1,1,0,0,1-1-1c0-.69,0-1.37,0-2.06,0-.32,0-.65,0-1a1,1,0,0,1,1-1h0a1,1,0,0,1,1,1c0,.31,0,.63,0,.95q0,1,0,2a1,1,0,0,1-1,1Zm63.22-3a1,1,0,0,1-.68-.26,1,1,0,0,1-.05-1.42c.67-.72,1.33-1.46,2-2.21a1,1,0,0,1,1.52,1.3c-.66.77-1.34,1.53-2,2.27A1,1,0,0,1,278.36,242.28Zm-125.87-4.93a1,1,0,0,1-.86-.48c-.52-.87-1-1.75-1.51-2.64a1,1,0,1,1,1.75-1c.48.86,1,1.72,1.48,2.57a1,1,0,0,1-.35,1.37A1,1,0,0,1,152.49,237.35Zm63-2.08h-.1a1,1,0,0,1-.9-1.09c.1-1,.22-2,.36-3a1,1,0,0,1,1.12-.85,1,1,0,0,1,.86,1.12c-.14,1-.25,2-.35,2.94A1,1,0,0,1,215.49,235.27Zm69.11-.79a1,1,0,0,1-.56-.17,1,1,0,0,1-.27-1.39c.55-.82,1.09-1.66,1.58-2.48a1,1,0,0,1,1.72,1c-.52.86-1.07,1.73-1.64,2.58A1,1,0,0,1,284.6,234.48Zm-136.73-6a1,1,0,0,1-.92-.59c-.41-.93-.81-1.86-1.19-2.79a1,1,0,1,1,1.85-.76q.55,1.36,1.17,2.73a1,1,0,0,1-.5,1.32A1,1,0,0,1,147.87,228.49Zm141.5-2.78a.91.91,0,0,1-.39-.08,1,1,0,0,1-.53-1.31c.37-.9.72-1.82,1-2.74a1,1,0,0,1,1.89.65c-.33,1-.69,1.92-1.09,2.87A1,1,0,0,1,289.37,225.71Zm-72.27-.31a.9.9,0,0,1-.23,0,1,1,0,0,1-.75-1.2c.23-1,.48-2,.75-3a1,1,0,0,1,1.23-.7,1,1,0,0,1,.7,1.23c-.26,1-.51,1.91-.73,2.87A1,1,0,0,1,217.1,225.4Zm-72.81-6.25a1,1,0,0,1-1-.69c-.31-1-.6-1.94-.88-2.91a1,1,0,0,1,1.93-.55c.27,1,.56,1.9.86,2.84a1,1,0,0,1-.65,1.26A1,1,0,0,1,144.29,219.15Zm147.82-3H292a1,1,0,0,1-.84-1.13c.14-1,.24-1.94.31-2.91a1,1,0,1,1,2,.14c-.06,1-.17,2-.32,3.06A1,1,0,0,1,292.11,216.12ZM220,215.84a1.13,1.13,0,0,1-.36-.06,1,1,0,0,1-.58-1.29q.54-1.43,1.14-2.82a1,1,0,1,1,1.84.78c-.39.91-.76,1.82-1.11,2.75A1,1,0,0,1,220,215.84Zm-78.24-6.36a1,1,0,0,1-1-.81c-.21-1-.39-2-.56-3a1,1,0,0,1,2-.33c.16,1,.34,1.95.54,2.92a1,1,0,0,1-.79,1.18Zm82.43-2.7a.94.94,0,0,1-.48-.13,1,1,0,0,1-.39-1.36c.5-.89,1-1.78,1.54-2.63a1,1,0,0,1,1.38-.32,1,1,0,0,1,.32,1.38c-.51.82-1,1.68-1.49,2.54A1,1,0,0,1,224.19,206.78Zm68-.63a1,1,0,0,1-1-.88c-.12-1-.28-1.93-.47-2.88a1,1,0,1,1,2-.4c.21,1,.37,2,.5,3a1,1,0,0,1-.88,1.11Zm-151.89-6.57a1,1,0,0,1-1-.91q-.14-1.51-.21-3a1,1,0,1,1,2-.1c.05,1,.12,2,.2,3a1,1,0,0,1-.9,1.08Zm89.38-1.12a1,1,0,0,1-.78-1.62c.62-.8,1.28-1.59,1.95-2.35a1,1,0,0,1,1.5,1.32c-.64.74-1.28,1.5-1.88,2.27A1,1,0,0,1,229.72,198.46Zm60-1.94a1,1,0,0,1-.92-.61c-.39-.9-.81-1.78-1.27-2.62a1,1,0,0,1,.4-1.35,1,1,0,0,1,1.36.4c.48.89.94,1.83,1.35,2.78a1,1,0,0,1-.53,1.32A1.09,1.09,0,0,1,289.68,196.52Zm-53.11-5.34a1,1,0,0,1-.67-1.74c.76-.68,1.55-1.34,2.34-2a1,1,0,1,1,1.24,1.57c-.76.61-1.52,1.24-2.25,1.89A1,1,0,0,1,236.57,191.18Zm-96.52-1.59h0a1,1,0,0,1-1-1q0-1.51.15-3a1,1,0,1,1,2,.14c-.06,1-.11,2-.14,3A1,1,0,0,1,140.05,189.59Zm144.27-1.46a1,1,0,0,1-.74-.32,24.51,24.51,0,0,0-2.07-2,1,1,0,0,1,1.31-1.51,26.73,26.73,0,0,1,2.23,2.16,1,1,0,0,1-.05,1.41A1,1,0,0,1,284.32,188.13Zm-39.67-2.81a1,1,0,0,1-.5-1.87c.89-.5,1.8-1,2.71-1.43a1,1,0,0,1,.88,1.8c-.88.43-1.75.89-2.59,1.37A1,1,0,0,1,244.65,185.32Zm31.65-3a1,1,0,0,1-.42-.09,25.73,25.73,0,0,0-2.68-1.06,1,1,0,0,1-.64-1.26,1,1,0,0,1,1.26-.64,29.08,29.08,0,0,1,2.9,1.14,1,1,0,0,1-.42,1.91Zm-22.48-.89a1,1,0,0,1-.29-2c1-.29,2-.55,3-.77a1,1,0,1,1,.42,1.95c-.94.21-1.89.46-2.83.74A.9.9,0,0,1,253.82,181.38Zm12.83-1.53h-.07c-.94-.06-1.92-.09-2.9-.07a1,1,0,0,1-.05-2c1.05,0,2.09,0,3.09.08a1,1,0,0,1-.07,2Zm-125.73-.21h-.14a1,1,0,0,1-.85-1.13c.14-1,.29-2,.46-3a1,1,0,0,1,1.16-.82,1,1,0,0,1,.81,1.15q-.24,1.47-.45,2.94A1,1,0,0,1,140.92,179.64Zm1.87-9.82-.24,0a1,1,0,0,1-.73-1.21c.23-1,.48-2,.75-2.93a1,1,0,0,1,1.22-.71,1,1,0,0,1,.71,1.23c-.26,1-.51,1.91-.74,2.88A1,1,0,0,1,142.79,169.82Zm2.79-9.59a.91.91,0,0,1-.32-.06,1,1,0,0,1-.62-1.27c.32-1,.66-1.9,1-2.85a1,1,0,1,1,1.88.7c-.35.93-.68,1.86-1,2.8A1,1,0,0,1,145.58,160.23Zm3.64-9.31a1,1,0,0,1-.4-.09,1,1,0,0,1-.51-1.32c.4-.92.82-1.84,1.25-2.75a1,1,0,0,1,1.81.85c-.42.9-.83,1.8-1.23,2.71A1,1,0,0,1,149.22,150.92Zm4.4-9a.93.93,0,0,1-.48-.12,1,1,0,0,1-.4-1.35c.48-.89,1-1.77,1.46-2.65a1,1,0,0,1,1.37-.37,1,1,0,0,1,.37,1.36q-.74,1.3-1.44,2.61A1,1,0,0,1,153.62,141.93Zm5.07-8.61a.94.94,0,0,1-.53-.16,1,1,0,0,1-.31-1.38c.54-.85,1.09-1.69,1.66-2.53a1,1,0,1,1,1.66,1.11c-.56.83-1.1,1.66-1.63,2.5A1,1,0,0,1,158.69,133.32Zm5.68-8.24a1,1,0,0,1-.8-1.59c.6-.81,1.2-1.61,1.82-2.41A1,1,0,1,1,167,122.3c-.6.79-1.2,1.58-1.79,2.38A1,1,0,0,1,164.37,125.08Zm6.21-7.83a1,1,0,0,1-.64-.24,1,1,0,0,1-.12-1.41c.65-.77,1.31-1.53,2-2.29a1,1,0,0,1,1.41-.09,1,1,0,0,1,.09,1.41c-.65.75-1.3,1.5-1.94,2.26A1,1,0,0,1,170.58,117.25Z"/><path class="cls-40" d="M99.1,484.68c-2,3-10.21,71.8-11.49,97.19a3,3,0,0,0,3,3.15h0a3,3,0,0,0,3-2.54l14.92-95.61Z"/><path class="cls-41" d="M164.68,484.68c2,3,10.21,71.8,11.49,97.19a3,3,0,0,1-3,3.15h0a3,3,0,0,1-3-2.54l-14.92-95.61Z"/><path class="cls-42" d="M86.76,479.32v.75c0,5.39,4.6,9.81,10.42,9.91l69,1.18c5.74.09,10.52-4.05,10.79-9.36l0-.69c.29-5.54-4.41-10.2-10.39-10.31l-69-1.23C91.67,469.46,86.81,473.84,86.76,479.32Z"/><path class="cls-43" d="M220.92,579.38c-12.26,0-17.69-1.06-20.11-2a4.65,4.65,0,0,0,4.53,3.61h43.37a2.11,2.11,0,0,0,2-2.67C245.8,578.7,235.3,579.38,220.92,579.38Z"/><path class="cls-44" d="M250.74,578.3a1.92,1.92,0,0,0-.36-.73c-3.3-4.22-9.94-10.85-19-10.72-13.23.19-17.84,1.62-28.11.08l-2.43,8a4.63,4.63,0,0,0-.07,2.39c2.42,1,7.85,2,20.11,2C235.3,579.38,245.8,578.7,250.74,578.3Z"/><path class="cls-45" d="M206.28,558.27l-3,10.12s6.59,3,12.39.59l1.14-8.76Z"/><path class="cls-46" d="M296.17,573c-9.56,7.68-14.44,10.26-16.93,11a4.64,4.64,0,0,0,5.77,0l33.81-27.16a2.1,2.1,0,0,0-.07-3.34C315.14,556.89,307.38,564,296.17,573Z"/><path class="cls-47" d="M318.75,553.49a2.3,2.3,0,0,0-.74-.35c-5.21-1.2-14.51-2.19-21.47,3.57-10.19,8.42-12.89,12.43-21.86,17.67l3.12,7.75a4.64,4.64,0,0,0,1.44,1.91c2.49-.78,7.37-3.36,16.93-11C307.38,564,315.14,556.89,318.75,553.49Z"/><path class="cls-48" d="M142.62,443S216,449,231.07,456s-12.28,106.43-12.28,106.43-4.1,2-13.22-.87c0,0,9.35-73.3,2.39-89.2l-79.47-13Z"/><path class="cls-49" d="M267.39,560.42c.68.62,7.29,14,7.29,14s7.36-1.6,8.86-6.25l-6.62-12Z"/><path class="cls-50" d="M98.42,442.35a37.12,37.12,0,0,0-2.29,13.4,20.11,20.11,0,0,0,19.2,19.69l86.76,3.95a4.18,4.18,0,0,1,3.84,3.13c2,7.89,12,32.1,60.72,80.43a3.94,3.94,0,0,0,4.86.53l6.93-4.38a1.61,1.61,0,0,0,.53-2.16l-50.52-86.27a19.59,19.59,0,0,0-11.88-8.81L142.62,443Z"/><path class="cls-51" d="M199.07,309.53S174.63,324,165.15,332l19.59,10.93s10.58-12.23,20.67-17.32Z"/><path class="cls-52" d="M96.84,443s23.43,5.71,45.78,0c0,0,31.29-42,43.39-53.5,0,0,19.31,30.47,62.28,34.78l2.39-5.35s-34.21-15.77-44.74-40S191.18,344.32,181.6,338c-6-3.94-9.54-6.63-11.39-8.09a3.06,3.06,0,0,0-3.51-.23C156.54,335.88,108.69,368.65,96.84,443Z"/><path class="cls-53" d="M184.74,388.37a1,1,0,0,1-.79-.4,94.33,94.33,0,0,1-11.72-20.77,1,1,0,1,1,1.87-.71,92.68,92.68,0,0,0,11.43,20.27,1,1,0,0,1-.18,1.4A1,1,0,0,1,184.74,388.37Z"/><path class="cls-54" d="M245.7,416.09l4.84-1.29,14.68-3.4a6.81,6.81,0,0,1,5.17.87L283,420.21l-34.87,0Z"/><path class="cls-55" d="M222.93,298.9c.07.47-6.26,31.48-6.26,31.48l-17.63-4,1.63-30.28S221.79,291,222.93,298.9Z"/><path class="cls-56" d="M204.64,302.86l-2.11,15.87a2.08,2.08,0,0,0,0,.61c.18,1.24,1.11,5.48,5.38,4.27,3.88-1.1,7.44-2.05,9.9-1.29a2.23,2.23,0,0,1,1.54,2.58,96.91,96.91,0,0,1-4.06,14.45,2.23,2.23,0,0,1-2.71,1.32c-3.34-1-10.34-3.23-15.54-6.36a2.21,2.21,0,0,1-1.09-2c.17-4,.64-16.19.24-19.61-.37-3.2-4.3-5.12-6-5.81a2.2,2.2,0,0,1-1.22-1.23c-.79-2-1.89-6.57,3.9-8.45a2.24,2.24,0,0,0,1.42-2.9c-.86-2.38-1.22-6,3.25-8s7.95.39,9.78,2.36a2.23,2.23,0,0,0,2.85.34,1.76,1.76,0,0,1,2,.07,2.21,2.21,0,0,0,3.12-1c1.09-2.24,3.31-4.63,7.76-3.87,7.9,1.36,8.8,10.11,6.71,15.24s-10.56,3.18-14.82.59c-3.23-2-7.43.09-9.25,1.2A2.2,2.2,0,0,0,204.64,302.86Z"/><path class="cls-57" d="M195.48,318.48s3.25-9.09-.09-11.32-8.27-1.07-7.19,5.52C189.56,320.87,195.48,318.48,195.48,318.48Z"/><path class="cls-58" d="M232.23,427.06h.17l74.49-.08a3.33,3.33,0,1,0,0-6.65l-74.5.07a3.33,3.33,0,0,0-.16,6.66Z"/><path class="cls-59" d="M335.74,354.1s-.05.1-.07.16l-31.35,67.57a3.33,3.33,0,1,0,6,2.8l31.35-67.57a3.33,3.33,0,0,0-6-3Z"/><path class="cls-60" d="M265.4,430.79c-.33,1.35-31.41,117.93-39.29,147.48a5.34,5.34,0,0,0,5.11,6.75h0a5.3,5.3,0,0,0,5.14-4.06l34.51-139.89Z"/><path class="cls-61" d="M282.42,430.79c.33,1.35,31.41,117.93,39.29,147.48a5.34,5.34,0,0,1-5.12,6.75h0a5.3,5.3,0,0,1-5.13-4.06L277,441.07Z"/><path class="cls-62" d="M283.72,427H264.36v15.55a4,4,0,0,0,4,4H271v34.92a3,3,0,0,0,3,3.07h0a3,3,0,0,0,3-3.07V446.57h1.35a5.34,5.34,0,0,0,5.31-5.37Z"/><path class="cls-63" d="M216.76,423.25H324.85a3.32,3.32,0,0,1,3.21,2.51l1.51,5.92a3.35,3.35,0,0,1-3.23,4.19l-110.91-.64a3.36,3.36,0,0,1-3.2-4.18l1.32-5.27A3.31,3.31,0,0,1,216.76,423.25Z"/><g class="cls-7"><g class="cls-8"><path class="cls-64" d="M461.43,163.75,332.36,163a6.78,6.78,0,0,0-5.85,10.27l.65,1.08a6.78,6.78,0,0,0,5.81,3.28H461.39a6.77,6.77,0,0,0,6.77-6.77v-.36A6.78,6.78,0,0,0,461.43,163.75Z"/><path class="cls-65" d="M479.46,170.68v.21a6.77,6.77,0,0,0,6.77,6.77h28.65a6.78,6.78,0,0,0,6.55-5h0a6.79,6.79,0,0,0-6.5-8.53l-28.65-.21A6.78,6.78,0,0,0,479.46,170.68Z"/></g><g class="cls-8"><path class="cls-66" d="M430.38,188.07l-98-.72a6.78,6.78,0,0,0-5.85,10.27l.65,1.07A6.78,6.78,0,0,0,333,202h97.37a6.78,6.78,0,0,0,6.78-6.77v-.36A6.78,6.78,0,0,0,430.38,188.07Z"/><path class="cls-67" d="M448.41,195v.21a6.77,6.77,0,0,0,6.77,6.77h28.66a6.77,6.77,0,0,0,6.54-5h0a6.78,6.78,0,0,0-6.49-8.53l-28.66-.21A6.78,6.78,0,0,0,448.41,195Z"/></g></g><g class="cls-68"><g class="cls-8"><path class="cls-69" d="M135.89,353.63,6.82,352.91A6.77,6.77,0,0,0,1,363.17l.65,1.08a6.76,6.76,0,0,0,5.8,3.29H135.85a6.79,6.79,0,0,0,6.78-6.78v-.36A6.77,6.77,0,0,0,135.89,353.63Z"/><path class="cls-70" d="M153.92,360.55v.21a6.78,6.78,0,0,0,6.77,6.78h28.66a6.78,6.78,0,0,0,6.54-5h0a6.77,6.77,0,0,0-6.5-8.52l-28.65-.21A6.77,6.77,0,0,0,153.92,360.55Z"/></g><g class="cls-8"><path class="cls-71" d="M104.84,378l-98-.72A6.77,6.77,0,0,0,1,387.49l.65,1.08a6.76,6.76,0,0,0,5.8,3.29h97.38a6.78,6.78,0,0,0,6.77-6.78v-.36A6.77,6.77,0,0,0,104.84,378Z"/><path class="cls-72" d="M122.87,384.87v.21a6.79,6.79,0,0,0,6.78,6.78H158.3a6.77,6.77,0,0,0,6.54-5h0a6.77,6.77,0,0,0-6.49-8.52l-28.65-.21A6.78,6.78,0,0,0,122.87,384.87Z"/></g></g><path class="cls-73" d="M616.07,116.88c-.06-.73-.8-1.35-2.05-1.86,1.36-.75,2.11-1.55,2.05-2.34-.19-2.39-7.76-3.73-16.91-3S582.76,113,583,115.35c.06.72.8,1.35,2.06,1.85-1.37.75-2.12,1.56-2.06,2.35s.8,1.35,2.06,1.85c-1.37.76-2.12,1.56-2.06,2.35s.8,1.35,2.06,1.86c-1.37.75-2.12,1.55-2.06,2.34.09,1.06,1.62,1.91,4.09,2.47a20.87,20.87,0,0,0,.06,2.58c.36,4.41,5.31,7.86,11.86,7.86s12.23-4.71,12.29-9.13a21.22,21.22,0,0,0-.13-2.88c3.14-1,5-2.33,5-3.57-.06-.72-.8-1.35-2.05-1.85,1.36-.75,2.11-1.56,2.05-2.35s-.8-1.35-2.05-1.85C615.38,118.47,616.13,117.67,616.07,116.88Z"/><path class="cls-74" d="M594.93,131.37a39.8,39.8,0,0,1-7.25-.59.23.23,0,0,1-.18-.26.22.22,0,0,1,.26-.17,47.48,47.48,0,0,0,12.08.38A52.76,52.76,0,0,0,610,129a.22.22,0,0,1,.27.15.21.21,0,0,1-.15.27,52.08,52.08,0,0,1-10.22,1.76C598.18,131.3,596.51,131.37,594.93,131.37Z"/><path class="cls-75" d="M595,127.16a34.69,34.69,0,0,1-8.91-1,.22.22,0,0,1-.15-.27.21.21,0,0,1,.27-.15c3.17.9,8.27,1.18,13.65.74s10.29-1.5,13.28-2.88a.22.22,0,0,1,.29.1.23.23,0,0,1-.11.3c-3,1.4-8,2.49-13.42,2.92C598.2,127.1,596.55,127.16,595,127.16Z"/><path class="cls-76" d="M594.93,123a32.11,32.11,0,0,1-9.39-1.13.22.22,0,1,1,.14-.41c3.12,1,8.42,1.37,14.16.9,5.32-.43,10.29-1.51,13.28-2.89a.22.22,0,1,1,.18.4c-3,1.4-8,2.5-13.42,2.93C598.18,122.9,596.51,123,594.93,123Z"/><path class="cls-77" d="M595,118.76a37.57,37.57,0,0,1-7.91-.72.21.21,0,0,1-.16-.26.22.22,0,0,1,.26-.17,45.58,45.58,0,0,0,12.69.51c5.28-.42,10.21-1.49,13.21-2.86a.22.22,0,0,1,.18.4c-3,1.39-8,2.47-13.35,2.9C598.2,118.69,596.54,118.76,595,118.76Z"/><path class="cls-78" d="M576.82,95.67a31,31,0,0,0-5.54-10.82A71.48,71.48,0,0,1,555.86,45c-1.59-27.7,23-41.57,45.39-39.69s44.54,18.57,42.12,44.34c-1.49,15.86-10.36,27.89-17,34.79a36.68,36.68,0,0,0-8.81,15.61c-2,7.16-6.7,16.08-17.92,16.63C585.16,117.38,579.13,103.85,576.82,95.67Z"/><path class="cls-79" d="M603.38,111.15l7.84-51c.16-1.06.68-1.77,1.16-1.58s.73,1.18.57,2.23c0,0,0,.06,0,.09L604,111.42c-.07.38-.26.63-.43.54S603.32,111.52,603.38,111.15Z"/><path class="cls-80" d="M595.24,111.56l-7.85-51c-.16-1-.68-1.76-1.16-1.58s-.73,1.18-.57,2.24c0,0,0,.06,0,.09l8.93,50.54c.07.38.26.62.43.54S595.29,111.93,595.24,111.56Z"/><path class="cls-16" d="M611.16,55.76a.81.81,0,0,0-1-.27l-4.37,2-1.52-4.32a.87.87,0,0,0-.53-.53,1.07,1.07,0,0,0-1.34.41h0l-3.59,6.55-3.33-9.32v0a1.09,1.09,0,0,0-.5-.57,1.32,1.32,0,0,0-1.65.33l-5,6.91a.61.61,0,0,0,.18.87.83.83,0,0,0,1.07-.11l4.42-4.93,4,8.87h0a.77.77,0,0,0,.36.35.84.84,0,0,0,1-.27l3.84-6.17,1.44,3.12,0,0,0,.06a.83.83,0,0,0,1,.27l5.19-2.42A.61.61,0,0,0,611.16,55.76Z"/><path class="cls-16" d="M626.57,78.37a1.46,1.46,0,0,1-.89-.29,1.5,1.5,0,0,1-.32-2.1A56.19,56.19,0,0,0,629,70.5a1.5,1.5,0,1,1,2.6,1.5,62.28,62.28,0,0,1-3.8,5.77A1.49,1.49,0,0,1,626.57,78.37Z"/><path class="cls-16" d="M633,67.3a1.44,1.44,0,0,1-.6-.13,1.49,1.49,0,0,1-.77-2,45.94,45.94,0,0,0,1.07-34.86,1.5,1.5,0,1,1,2.72-1.25c.32.69,7.69,17.2-1,37.3A1.51,1.51,0,0,1,633,67.3Z"/><path class="cls-81" d="M419.32,468.92a16.45,16.45,0,0,1,3-8.65c-3,1-4.07,3.16-4.75,9-.82,7-2.29,25.87-2.67,30.06a8.63,8.63,0,0,0,2.67,7.59c.43.45,1.12.24,1.93-.4a13.56,13.56,0,0,1-2.65-6.06C416.3,497.68,418.63,478.16,419.32,468.92Z"/><path class="cls-82" d="M438.62,463.44l-5.13-6.65a40.27,40.27,0,0,1-9.32,3,12.13,12.13,0,0,0-1.88.44,16.45,16.45,0,0,0-3,8.65c-.69,9.24-3,28.76-2.5,31.57a13.56,13.56,0,0,0,2.65,6.06c1.66-1.29,3.83-4.4,5.48-7.58,2.45-4.74,10.77-18.91,12.72-24.2A25.38,25.38,0,0,0,438.62,463.44Z"/><path class="cls-83" d="M508.42,403a16.53,16.53,0,0,1,4.36-8c-3.07.46-4.53,2.44-6.18,8.11-2,6.75-6.53,25.14-7.6,29.2a8.67,8.67,0,0,0,1.37,7.93c.36.52,1.07.43,2-.07a13.48,13.48,0,0,1-1.61-6.42C500.69,430.89,506.22,412,508.42,403Z"/><path class="cls-84" d="M528.37,400.82l-4-7.41a40.59,40.59,0,0,1-9.7,1.46,11.55,11.55,0,0,0-1.93.12,16.53,16.53,0,0,0-4.36,8c-2.2,9-7.73,27.86-7.68,30.71a13.48,13.48,0,0,0,1.61,6.42c1.85-1,4.5-3.71,6.65-6.57,3.21-4.26,13.76-16.87,16.56-21.76A25.34,25.34,0,0,0,528.37,400.82Z"/><path class="cls-85" d="M438.62,447.26c-.9,1.18-7.45,13.1-8.87,15.69a3.78,3.78,0,0,0-.45,1.4,5.84,5.84,0,0,0,2.79,5.78,4,4,0,0,0,5.31-.9l11.91-15.69Z"/><path class="cls-86" d="M531.05,384.86c-1.09,1-9.52,11.69-11.35,14a3.86,3.86,0,0,0-.68,1.3,5.87,5.87,0,0,0,1.8,6.17,3.94,3.94,0,0,0,5.38,0L539,391.54Z"/><path class="cls-87" d="M547.1,328.64c0-3.31,19-2.13,35.63-4.06a9.36,9.36,0,0,1,7.8,15.82l-50.41,52a4,4,0,0,1-4.08,1,24.08,24.08,0,0,1-7.39-3.84,3.59,3.59,0,0,1-.67-4.88l23.17-33L530,357.84l-80.22,99.23a4.16,4.16,0,0,1-5.45.91,34,34,0,0,1-7.58-6.19,3.86,3.86,0,0,1-.24-4.6c8.85-13.53,57-87.2,59.23-94.85,2.51-8.43,11.74-23.87,20.37-24.42S547.1,328.64,547.1,328.64Z"/><path class="cls-88" d="M552.42,351.3a.53.53,0,0,1-.52-.4.52.52,0,0,1,.38-.65l19-5.05a.54.54,0,1,1,.27,1l-19,5A.36.36,0,0,1,552.42,351.3Z"/><path class="cls-89" d="M531.9,356.45a.53.53,0,0,1-.39-.9l4.75-5.15a.53.53,0,0,1,.75,0,.54.54,0,0,1,0,.76l-4.75,5.15A.56.56,0,0,1,531.9,356.45Z"/><path class="cls-90" d="M455.88,361.66l-10.13,25.07a8.78,8.78,0,0,0,4.57,11.3l59,26.5a6.34,6.34,0,0,0,8-2.38c3.68-5.83,9.79-16.48,13.1-27.54Z"/><path class="cls-16" d="M511.07,423.21a6.3,6.3,0,0,1-2.64-.57l-.12-.05a.38.38,0,0,1,.31-.69l.11.06a5.68,5.68,0,0,0,2.63.49.38.38,0,0,1,0,.75Zm-9-3.46a.45.45,0,0,1-.16,0l-2.73-1.23a.37.37,0,0,1-.19-.5.37.37,0,0,1,.49-.18l2.74,1.22a.39.39,0,0,1,.19.5A.37.37,0,0,1,502.08,419.75Zm14.74-.4a.35.35,0,0,1-.2-.05.38.38,0,0,1-.12-.52c.49-.78,1-1.64,1.55-2.56a.36.36,0,0,1,.51-.13.37.37,0,0,1,.14.51q-.83,1.39-1.56,2.58A.37.37,0,0,1,516.82,419.35ZM493,415.66a.28.28,0,0,1-.15,0l-2.74-1.23a.36.36,0,0,1-.18-.49.37.37,0,0,1,.49-.19l2.74,1.23a.37.37,0,0,1,.19.49A.39.39,0,0,1,493,415.66Zm-9.12-4.1a.4.4,0,0,1-.15,0l-2.74-1.23a.38.38,0,0,1,.31-.69l2.74,1.23a.38.38,0,0,1,.18.5A.36.36,0,0,1,483.83,411.56Zm37.94-.9a.33.33,0,0,1-.17,0,.37.37,0,0,1-.16-.51c.45-.86.9-1.75,1.34-2.67a.39.39,0,0,1,.51-.17.38.38,0,0,1,.17.5c-.45.92-.91,1.82-1.36,2.69A.38.38,0,0,1,521.77,410.66Zm-47.06-3.2-.15,0-2.74-1.23a.37.37,0,1,1,.31-.68l2.73,1.23a.36.36,0,0,1,.19.49A.37.37,0,0,1,474.71,407.46Zm-9.12-4.09a.32.32,0,0,1-.16,0l-2.73-1.22a.38.38,0,0,1-.19-.5.37.37,0,0,1,.49-.19l2.74,1.23a.38.38,0,0,1-.15.72ZM526,401.6l-.14,0a.37.37,0,0,1-.2-.49c.37-.91.74-1.84,1.08-2.78a.38.38,0,0,1,.71.26c-.35.95-.72,1.88-1.1,2.81A.38.38,0,0,1,526,401.6Zm-69.53-2.33-.15,0L453.57,398a.38.38,0,0,1-.18-.5.37.37,0,0,1,.49-.19l2.74,1.23a.38.38,0,0,1-.16.72Zm-8-5.54a.4.4,0,0,1-.34-.2,8.9,8.9,0,0,1-.95-3,.37.37,0,0,1,.33-.42.38.38,0,0,1,.42.32,8,8,0,0,0,.87,2.72.38.38,0,0,1-.16.5A.37.37,0,0,1,448.43,393.73Zm78.25-.4-.15,0-2.75-1.22a.38.38,0,0,1-.19-.49.39.39,0,0,1,.5-.19l2.74,1.21a.38.38,0,0,1,.19.5A.37.37,0,0,1,526.68,393.33Zm-9.15-4a.28.28,0,0,1-.15,0L514.64,388a.37.37,0,1,1,.3-.68l2.74,1.21a.37.37,0,0,1,.2.49A.39.39,0,0,1,517.53,389.29Zm-9.14-4.05a.45.45,0,0,1-.16,0L505.49,384a.37.37,0,0,1-.19-.49.38.38,0,0,1,.49-.2l2.75,1.22a.37.37,0,0,1-.15.71Zm-59.31-1.08a.39.39,0,0,1-.15,0,.37.37,0,0,1-.2-.49l1.12-2.78a.38.38,0,0,1,.49-.21.39.39,0,0,1,.21.49l-1.13,2.78A.36.36,0,0,1,449.08,384.16Zm50.16-3-.15,0L496.34,380a.39.39,0,0,1-.19-.5.39.39,0,0,1,.5-.19l2.74,1.21a.38.38,0,0,1,.19.5A.37.37,0,0,1,499.24,381.2Zm-9.15-4-.15,0-2.74-1.22a.36.36,0,0,1-.19-.49.37.37,0,0,1,.49-.19l2.75,1.21a.39.39,0,0,1,.19.5A.38.38,0,0,1,490.09,377.16Zm-37.27-2.27-.14,0a.39.39,0,0,1-.21-.49l1.13-2.78a.37.37,0,1,1,.69.28l-1.12,2.78A.38.38,0,0,1,452.82,374.89ZM481,373.12a.4.4,0,0,1-.15,0l-2.75-1.22a.37.37,0,0,1-.19-.49.37.37,0,0,1,.49-.19l2.75,1.21a.37.37,0,0,1,.19.49A.38.38,0,0,1,481,373.12Zm-9.15-4.05-.15,0-2.74-1.21a.37.37,0,0,1-.2-.49.39.39,0,0,1,.5-.2l2.74,1.22a.36.36,0,0,1,.19.49A.37.37,0,0,1,471.8,369.07Zm-15.23-3.45a.32.32,0,0,1-.14,0,.37.37,0,0,1-.21-.48l1.12-2.79a.38.38,0,0,1,.7.29l-1.12,2.78A.38.38,0,0,1,456.57,365.62Zm6.08-.59-.15,0-2.74-1.21a.38.38,0,0,1-.19-.5.37.37,0,0,1,.49-.19l2.75,1.22a.37.37,0,0,1-.16.71Z"/><path class="cls-91" d="M481.15,351.39l1-1.83a1.62,1.62,0,0,1,1.49-.37c2,.53,6.77,2,8.25,4.65l-.65,2.36Z"/><path class="cls-92" d="M487.72,352.1a2.91,2.91,0,0,1-1.28-.57,1.24,1.24,0,0,1-.38-1.5l2.64-6,3,1.34-2.63,6A1.28,1.28,0,0,1,487.72,352.1Z"/><path class="cls-93" d="M510.57,364.39l1-1.83a1.59,1.59,0,0,1,1.49-.36c2,.52,6.77,2,8.24,4.64l-.65,2.36Z"/><path class="cls-94" d="M517.14,365.1a2.8,2.8,0,0,1-1.28-.57,1.24,1.24,0,0,1-.38-1.5l2.91-6.6,3,1.34-2.92,6.6A1.26,1.26,0,0,1,517.14,365.1Z"/><path class="cls-95" d="M487.74,345.39l33.14,13.35a1.71,1.71,0,0,0,2.08-.63,14.61,14.61,0,0,0,1.93-4.09,4.12,4.12,0,0,0-2.24-4.8c-6-2.84-21.55-9.69-31.59-10.09a3.26,3.26,0,0,0-2.72,1.27,8,8,0,0,0-1.55,3.29A1.55,1.55,0,0,0,487.74,345.39Z"/><path class="cls-16" d="M488,344.3a1.12,1.12,0,0,1-.31-.05A1,1,0,0,1,487,343a9.31,9.31,0,0,1,1.43-2.64,3.82,3.82,0,0,1,3.45-1.37,40.44,40.44,0,0,1,9,2.13,1,1,0,1,1-.76,1.85,39.46,39.46,0,0,0-8.52-2,1.8,1.8,0,0,0-1.64.65,7,7,0,0,0-1.08,2A1,1,0,0,1,488,344.3Z"/><path class="cls-96" d="M466.32,344c10.61,4.53,56.48,24.22,69,31.68a3,3,0,0,1,1.4,3.12,98.22,98.22,0,0,1-6.64,20.89,2.58,2.58,0,0,1-2.93,1.39l-32.8-7.65-10.75-4.75L454.21,368a2.75,2.75,0,0,1-1-3.24c1.61-4.2,5.53-14,9.38-19.68A3.05,3.05,0,0,1,466.32,344Z"/><path class="cls-16" d="M527.93,397.93a.45.45,0,0,1-.16,0,.37.37,0,0,1-.18-.5c.39-.87.78-1.8,1.16-2.74a.37.37,0,0,1,.49-.21.37.37,0,0,1,.21.48c-.39,1-.78,1.9-1.18,2.78A.37.37,0,0,1,527.93,397.93Zm-6.42-.77h-.08l-2.93-.68a.38.38,0,0,1-.28-.45.37.37,0,0,1,.45-.28l2.93.68a.37.37,0,0,1-.09.74Zm-9.74-2.27h-.08l-2.92-.68a.37.37,0,0,1-.28-.46.36.36,0,0,1,.45-.27l2.92.68a.38.38,0,0,1,.28.45A.38.38,0,0,1,511.77,394.89ZM502,392.61H502l-2.92-.69a.37.37,0,0,1-.28-.45.38.38,0,0,1,.45-.28l2.92.68a.37.37,0,0,1-.09.74Zm-9.55-2.81a.37.37,0,0,1-.15,0l-2.75-1.22a.37.37,0,1,1,.3-.68l2.75,1.21a.38.38,0,0,1,.19.5A.37.37,0,0,1,492.48,389.8Zm38.93-1.24h-.11a.38.38,0,0,1-.25-.47c.3-1,.58-2,.83-2.87a.38.38,0,1,1,.73.2c-.26.92-.54,1.89-.84,2.89A.38.38,0,0,1,531.41,388.56ZM485,386.51a.36.36,0,0,1-.22-.07l-2.45-1.72a.37.37,0,0,1-.09-.52.36.36,0,0,1,.52-.09l2.45,1.72a.37.37,0,0,1,.09.52A.34.34,0,0,1,485,386.51Zm-8.19-5.75a.42.42,0,0,1-.21-.06L474.18,379a.38.38,0,1,1,.44-.61l2.45,1.72a.37.37,0,0,1,.09.52A.36.36,0,0,1,476.85,380.76Zm57-1.89h-.08a.38.38,0,0,1-.29-.44l0-.11c-.59-.35-1.28-.74-2-1.16a.37.37,0,0,1-.15-.51.38.38,0,0,1,.51-.15c.84.47,1.59.89,2.23,1.27a.47.47,0,0,1,.24.42l-.07.39A.36.36,0,0,1,533.89,378.87Zm-.19-.47Zm-65-3.38a.4.4,0,0,1-.21-.07L466,373.22a.37.37,0,0,1,.43-.61l2.46,1.72a.38.38,0,0,1-.22.69Zm56.77-1a.47.47,0,0,1-.16,0l-2.69-1.32a.38.38,0,0,1,.32-.68c1,.46,1.85.9,2.7,1.33a.37.37,0,0,1,.17.5A.38.38,0,0,1,525.44,374Zm-9-4.34a.45.45,0,0,1-.16,0l-2.71-1.27a.39.39,0,0,1-.19-.5.37.37,0,0,1,.5-.18l2.72,1.27a.37.37,0,0,1,.18.5A.38.38,0,0,1,516.43,369.65Zm-55.94-.38a.36.36,0,0,1-.22-.07l-2.45-1.72a.38.38,0,0,1-.09-.53.37.37,0,0,1,.52-.09l2.45,1.73a.38.38,0,0,1,.1.52A.4.4,0,0,1,460.49,369.27Zm46.86-3.81-.15,0-2.73-1.24a.38.38,0,0,1-.19-.5.38.38,0,0,1,.5-.19l2.73,1.24a.38.38,0,0,1-.16.72ZM457.53,362l-.15,0a.37.37,0,0,1-.2-.49c.36-.87.75-1.81,1.17-2.77a.37.37,0,0,1,.49-.2.37.37,0,0,1,.2.49q-.63,1.46-1.17,2.76A.37.37,0,0,1,457.53,362Zm40.71-.61a.41.41,0,0,1-.16,0l-2.74-1.22a.38.38,0,0,1,.31-.69l2.74,1.22a.39.39,0,0,1,.19.5A.37.37,0,0,1,498.24,361.35Zm-9.15-4.05a.4.4,0,0,1-.15,0l-2.75-1.21a.37.37,0,0,1-.19-.49.38.38,0,0,1,.5-.2l2.74,1.21a.37.37,0,0,1-.15.72Zm-9.16-4-.15,0-2.75-1.2a.37.37,0,0,1-.2-.49.37.37,0,0,1,.49-.19l2.76,1.19a.37.37,0,0,1,.19.49A.36.36,0,0,1,479.93,353.29Zm-18.29-.46a.35.35,0,0,1-.17,0,.36.36,0,0,1-.16-.5c.46-.92.93-1.81,1.4-2.67a.38.38,0,0,1,.66.37c-.47.84-.94,1.73-1.39,2.64A.38.38,0,0,1,461.64,352.83Zm9.11-3.51-.15,0-2.76-1.19a.37.37,0,1,1,.3-.68l2.75,1.18a.37.37,0,0,1,.2.49A.38.38,0,0,1,470.75,349.32Z"/><path class="cls-97" d="M491.37,397.45,482,393.29a2.67,2.67,0,0,1-1.47-3.21l2.92-9.55a2.65,2.65,0,0,1,3.62-1.64l11.31,5a2.65,2.65,0,0,1,1.26,3.71l-4.81,8.71A2.67,2.67,0,0,1,491.37,397.45Z"/><g class="cls-98"><path class="cls-99" d="M491,395.27l-7.17-3.17a2,2,0,0,1-1.12-2.44l2.22-7.26a2,2,0,0,1,2.75-1.26l8.62,3.81a2,2,0,0,1,1,2.83l-3.67,6.62A2,2,0,0,1,491,395.27Z"/></g><path class="cls-100" d="M652.37,176.53,693,144.81a1.57,1.57,0,0,0,.53-.76l4.29-14a1.57,1.57,0,0,1,.72-.9l2.79-1.58a1.54,1.54,0,0,1,.91-.2l8.68.85a1.56,1.56,0,0,1,1.38,1.29l.65,4.06a1.51,1.51,0,0,1-.25,1.13l-1.17,1.68a1.57,1.57,0,0,0-.08,1.63h0a1.53,1.53,0,0,1-.2,1.77,31.37,31.37,0,0,1-10.84,7.62,1.5,1.5,0,0,0-.52.37l-36.54,39.71a1.55,1.55,0,0,1-2.22.06l-8.9-8.65A1.55,1.55,0,0,1,652.37,176.53Z"/><path class="cls-101" d="M592.69,225l57.83-48.46a3,3,0,0,1,3.91.05c2.44,2.17,6.51,6.07,8.4,9.56a3.31,3.31,0,0,1-.63,4l-59.82,57.29Z"/><path class="cls-102" d="M602.38,224.07s10,10.27,8.32,28a27.79,27.79,0,0,1-5.76,14.29l-50.72,65.45a7.24,7.24,0,0,1-4.79,2.73c-7.46.91-27.3,2.7-41.35-1.95a1.88,1.88,0,0,1-1-2.71l46.12-81.14,27.93-32.5S594.42,211.63,602.38,224.07Z"/><path class="cls-53" d="M539,309.67a1,1,0,0,1-.59-.2,1,1,0,0,1-.21-1.4c.44-.59,44.15-59.46,47.11-66.63,2.7-6.56-3.66-11.61-3.93-11.83a1,1,0,0,1-.18-1.4,1,1,0,0,1,1.4-.18c.08.06,7.85,6.19,4.56,14.17-3,7.4-45.55,64.63-47.36,67.06A1,1,0,0,1,539,309.67Z"/><path class="cls-103" d="M537.47,310.26l-21.35,26.5s-3.13,17.13-5.85,19.45-10.48,3.87-12.5,0a29.82,29.82,0,0,1-2.67-7.84l6.93,2.94s-.16-1-.35-2.33a.07.07,0,0,0,0-.05l-.11-.56a30.47,30.47,0,0,1-.56-4.48c-.16-3.23.27-6.92,2.61-8.75a47.4,47.4,0,0,1,5.87-4.22l12.36-26.74S530.4,309.54,537.47,310.26Z"/><path class="cls-104" d="M442.91,301.54a1.83,1.83,0,0,0-1.28,2.61c2.46,5,9.7,15.89,24.63,12.44,19.12-4.41,77.43-48.49,90.63-60.53s30.69-27.05,39.24-25,3.4-2.86-2.53-6.84-8.13-9.81-3.71-8.72c0,0-10.64-3.45-26.89,5.5-15.88,8.75-93.42,38.67-119.38,30a1.66,1.66,0,0,0-2.15,1.29c-1,5.92-2.6,24.43,12.57,45.25A50.45,50.45,0,0,1,442.91,301.54Z"/><path class="cls-105" d="M456.82,297.06l-.48-.88c.2-.1,19.68-10.71,23.82-14.14l.64.77C476.58,286.3,457.63,296.63,456.82,297.06Z"/><path class="cls-106" d="M604.81,193.56,589.65,215a3.58,3.58,0,0,0,.32,4.52c2,2.18,5.49,5.25,9.2,6a2.9,2.9,0,0,0,3-1.25l8.07-12.38S611.74,192.37,604.81,193.56Z"/><path class="cls-107" d="M609.09,175.67c.31.29,12.94,25.08,12.94,25.08l-14.32,6.91-15.46-21.72S604,170.84,609.09,175.67Z"/><path class="cls-108" d="M598.76,188.54l7.14,11.9a1.83,1.83,0,0,0,.39.49c.85.79,3.75,3.09,6,0,1.92-2.67,3.72-5.1,5.64-6.1a2.29,2.29,0,0,1,3.08,1,84.58,84.58,0,0,1,4.89,11.58,2.28,2.28,0,0,1-1.33,2.79,62.72,62.72,0,0,1-13.7,4,2.27,2.27,0,0,1-2.16-.92c-2.19-3-8.35-11.36-10.46-13.46-2-2-5.56-1.21-7.18-.75a2.26,2.26,0,0,1-1.83-.24c-1.64-1-4.52-3.46-1.89-7.65a2.28,2.28,0,0,0-.71-3.1c-1.84-1.21-3.84-3.49-1.93-7.17s5.37-4.06,7.71-3.77a2.38,2.38,0,0,0,2.49-1.39,1.48,1.48,0,0,1,1.17-.92,2.23,2.23,0,0,0,1.8-2.61,5.84,5.84,0,0,1,3.26-6.69c6.18-3.4,11.59,2.13,13,6.8s-5.53,8-9.87,8.52c-3.19.41-4.94,3.89-5.64,5.71A2.24,2.24,0,0,0,598.76,188.54Z"/><path class="cls-109" d="M600.93,204.17s-2.74-8-6.26-7.74-6.28,3.8-1.92,7.73C598.17,209.06,600.93,204.17,600.93,204.17Z"/><path class="cls-110" d="M703.19,139.59a.41.41,0,0,1-.18-.05.36.36,0,0,1-.14-.48c.09-.16,2.14-3.83,4.72-3,2,.62,2.58.39,2.58.39a.35.35,0,0,1,.49.11.36.36,0,0,1-.12.5c-.16.11-.86.4-3.16-.31-2-.63-3.86,2.66-3.88,2.69A.37.37,0,0,1,703.19,139.59Z"/></g></g></svg>