<svg width="50" height="50" viewBox="0 0 50 50" fill="none" xmlns="http://www.w3.org/2000/svg">
<path d="M40.3883 39.5715H9.6126C8.02328 39.5685 6.50009 38.935 5.37734 37.8101C4.25459 36.6852 3.62402 35.1608 3.62402 33.5715V8.26006C3.62704 6.67272 4.25895 5.15125 5.38137 4.02883C6.50379 2.90641 8.02526 2.27451 9.6126 2.27148H40.3883C41.9754 2.27488 43.4965 2.90696 44.6186 4.02934C45.7407 5.15172 46.3724 6.67296 46.3755 8.26006V33.5715C46.3755 35.1606 45.7451 36.6847 44.6226 37.8096C43.5002 38.9344 41.9774 39.5681 40.3883 39.5715ZM9.6126 5.84291C8.97176 5.84367 8.35739 6.09857 7.90425 6.55171C7.45111 7.00485 7.19621 7.61922 7.19545 8.26006V33.5715C7.19432 33.8898 7.25599 34.2051 7.37693 34.4995C7.49786 34.794 7.67568 35.0616 7.90021 35.2872C8.12473 35.5128 8.39156 35.6919 8.68539 35.8142C8.97923 35.9365 9.29431 35.9997 9.6126 36.0001H40.3883C40.7065 35.9995 41.0214 35.9362 41.3151 35.8138C41.6087 35.6914 41.8754 35.5123 42.0998 35.2867C42.3241 35.0611 42.5018 34.7935 42.6227 34.4992C42.7435 34.2049 42.8051 33.8896 42.804 33.5715V8.26006C42.8033 7.61947 42.5486 7.00531 42.0957 6.55222C41.6429 6.09912 41.0289 5.84405 40.3883 5.84291H9.6126Z" fill="white"/>
<path d="M47.8574 47.7287H2.14314C1.66954 47.7287 1.21533 47.5405 0.880445 47.2056C0.545559 46.8707 0.357422 46.4165 0.357422 45.9429C0.357422 45.4693 0.545559 45.0151 0.880445 44.6803C1.21533 44.3454 1.66954 44.1572 2.14314 44.1572H47.8574C48.331 44.1572 48.7852 44.3454 49.1201 44.6803C49.455 45.0151 49.6431 45.4693 49.6431 45.9429C49.6431 46.4165 49.455 46.8707 49.1201 47.2056C48.7852 47.5405 48.331 47.7287 47.8574 47.7287Z" fill="white"/>
</svg>
