<svg width="50" height="50" viewBox="0 0 50 50" fill="none" xmlns="http://www.w3.org/2000/svg">
<g clip-path="url(#clip0_426_3694)">
<path d="M48.75 27.7083C47.9167 27.2917 46.6667 27.0833 45.8333 27.5L43.75 28.3333V3.33333C43.75 1.45833 42.2917 0 40.625 0H36.4583C34.7917 0 33.3333 1.45833 33.3333 3.125V6.25H28.125C26.4583 6.25 25 7.70833 25 9.375V16.6667H19.7917C18.125 16.6667 16.6667 18.125 16.6667 19.7917V30.625L10.4167 32.0833V31.4583C10.4167 30.2083 9.79167 29.1667 8.75 28.75L6.25 27.5C5.83333 26.0417 4.58333 25 3.125 25H1.04167C0.416667 25 0 25.4167 0 26.0417V48.9583C0 49.5833 0.416667 50 1.04167 50H3.125C4.58333 50 5.83333 48.9583 6.25 47.5L8.75 46.25C9.58333 45.8333 10.2083 44.7917 10.4167 43.75L20.4167 49.5833C20.8333 49.7917 21.4583 50 22.0833 50C22.5 50 23.125 49.7917 23.5417 49.5833L48.5417 36.25C49.5833 35.625 50.2083 34.5833 50.2083 33.5417V30.4167C50 29.375 49.5833 28.3333 48.75 27.7083ZM4.16667 46.875C4.16667 47.5 3.75 47.9167 3.125 47.9167H2.08333V27.0833H3.125C3.75 27.0833 4.16667 27.5 4.16667 28.125V46.875ZM8.33333 43.5417C8.33333 43.9583 8.125 44.375 7.70833 44.375L6.25 45.2083V29.7917L7.70833 30.625C8.125 30.8333 8.33333 31.0417 8.33333 31.4583V43.5417ZM35.4167 3.125C35.4167 2.5 35.8333 2.08333 36.4583 2.08333H40.625C41.25 2.08333 41.6667 2.5 41.6667 3.125V28.9583L35.4167 31.25V3.125ZM27.0833 9.375C27.0833 8.75 27.5 8.33333 28.125 8.33333H33.3333V32.0833L30.4167 33.125L29.7917 30.8333C29.375 29.5833 28.3333 28.75 27.2917 28.5417V9.375H27.0833ZM18.75 19.7917C18.75 19.1667 19.1667 18.75 19.7917 18.75H25V28.75L18.75 30.2083V19.7917ZM47.9167 33.3333C47.9167 33.75 47.7083 34.1667 47.2917 34.1667L22.2917 47.7083C22.0833 47.9167 21.6667 47.9167 21.25 47.7083L10.4167 41.4583V34.1667L26.4583 30.625C27.0833 30.4167 27.5 30.8333 27.7083 31.4583L28.75 34.7917C28.75 35 28.75 35.4167 28.75 35.625C28.5417 35.8333 28.3333 36.0417 28.125 36.0417L21.875 37.5C21.25 37.7083 21.0417 38.125 21.0417 38.75C21.25 39.1667 21.6667 39.5833 22.0833 39.5833H22.2917L28.5417 38.125C29.375 37.9167 30 37.2917 30.4167 36.6667C30.625 36.25 30.8333 35.8333 30.8333 35.4167L46.6667 29.5833C47.0833 29.375 47.2917 29.5833 47.7083 29.7917C47.9167 30 48.125 30.2083 48.125 30.625V33.3333H47.9167Z" fill="white"/>
</g>
<defs>
<clipPath id="clip0_426_3694">
<rect width="50" height="50" fill="white"/>
</clipPath>
</defs>
</svg>
