<svg width="80" height="80" viewBox="0 0 80 80" fill="none" xmlns="http://www.w3.org/2000/svg">
<g clip-path="url(#clip0_369_1822)">
<path d="M0 28.9524C0 18.8181 0 13.751 1.97226 9.88017C3.70711 6.47533 6.47533 3.70711 9.88017 1.97226C13.751 0 18.8181 0 28.9524 0H51.0476C61.1819 0 66.249 0 70.1198 1.97226C73.5247 3.70711 76.2929 6.47533 78.0277 9.88017C80 13.751 80 18.8181 80 28.9524V51.0476C80 61.1819 80 66.249 78.0277 70.1198C76.2929 73.5247 73.5247 76.2929 70.1198 78.0277C66.249 80 61.1819 80 51.0476 80H28.9524C18.8181 80 13.751 80 9.88017 78.0277C6.47533 76.2929 3.70711 73.5247 1.97226 70.1198C0 66.249 0 61.1819 0 51.0476V28.9524Z" fill="#001E36"/>
<path d="M17.1426 58.6181V23.4386C17.1426 23.1993 17.2426 23.0625 17.4759 23.0625C20.9206 23.0625 24.3636 22.8574 27.8092 22.8574C33.4002 22.8574 39.454 24.7691 41.5759 30.6181C42.0759 32.054 42.3426 33.5241 42.3426 35.0626C42.3426 38.0027 41.6759 40.4301 40.3426 42.3446C36.618 47.6927 30.1626 47.6096 24.3759 47.6096V58.5839C24.4212 58.9088 24.1443 59.0626 23.8759 59.0626H17.5426C17.2759 59.0626 17.1426 58.9258 17.1426 58.6181ZM24.4092 29.6608V41.148C26.7037 41.3161 29.1047 41.3344 31.3092 40.601C33.743 39.899 35.0759 37.7921 35.0759 35.2677C35.1436 33.1165 33.9714 31.0525 31.9759 30.2762C29.7979 29.3706 26.7603 29.3164 24.4092 29.6608Z" fill="#31A8FF"/>
<path d="M63.133 38.8785C62.1244 38.347 61.0503 37.9581 59.9398 37.7226C58.5129 37.3868 52.8848 36.2109 52.8827 39.1537C52.9326 40.7966 55.5406 41.6016 56.6929 42.0709C60.7382 43.4598 65.316 45.9423 65.226 50.9328C65.3497 57.1455 59.3304 59.629 54.1706 59.6296C51.4845 59.6574 48.6862 59.2414 46.2279 58.0884C45.9933 57.9641 45.8422 57.6985 45.8523 57.4278V51.4832C45.8258 51.2449 46.0816 51.0366 46.2816 51.208C48.6903 52.6647 51.5452 53.3719 54.3316 53.4097C55.5616 53.4097 57.9995 53.2905 57.981 51.4832C57.981 49.7489 55.0647 48.9515 53.9023 48.5109C52.2172 47.9094 50.6194 47.0761 49.1528 46.034C47.1031 44.572 45.8173 42.2279 45.8523 39.6491C45.8403 33.7994 51.3811 31.1737 56.371 31.1725C58.7038 31.1533 61.2087 31.326 63.3802 32.2733C63.6925 32.3653 63.7572 32.6942 63.7559 32.9889V38.5482C63.7757 38.8933 63.3925 39.0108 63.133 38.8785Z" fill="#31A8FF"/>
</g>
<defs>
<clipPath id="clip0_369_1822">
<rect width="80" height="80" fill="white"/>
</clipPath>
</defs>
</svg>
