<svg width="80" height="23" viewBox="0 0 80 23" fill="none" xmlns="http://www.w3.org/2000/svg">
<g clip-path="url(#clip0_369_1836)">
<path fill-rule="evenodd" clip-rule="evenodd" d="M72.6911 1.86523C69.4228 1.86523 67.5765 2.49624 66.5164 3.97496C65.4088 5.51947 65.1862 7.95745 65.1862 11.3912C65.1862 18.1318 66.2291 20.9495 72.6911 20.9495C73.4673 20.9495 76.1203 20.9347 77.6691 20.7457C78.2717 20.6458 78.5416 20.1843 78.5416 19.7714V19.0269C78.5416 18.4477 78.1039 18.0105 77.5229 18.0105H72.6908C69.045 18.0105 68.3875 17.1511 68.294 12.2651V10.6834C68.325 5.68348 68.9825 4.80431 72.6911 4.80431C76.1107 4.80431 76.7665 5.58455 76.8802 9.98636H71.4465V12.9581H78.5933C80.001 12.9581 80.001 11.9736 80.001 11.6503V10.7015C79.8989 3.84718 78.2591 1.86523 72.6911 1.86523ZM63.2805 2.12722L63.2028 2.10672C62.5372 1.96679 60.7183 1.86523 59.8165 1.86523C56.6252 1.86523 54.9386 3.20139 54.9386 5.72925V19.8036C54.9386 20.3829 55.3439 20.7877 55.9249 20.7877H57.0601C57.641 20.7877 58.0465 20.3831 58.0465 19.8036V5.98766C58.0465 5.3638 58.2043 4.80431 60.1085 4.80431L62.9282 4.80192C63.2042 4.83482 63.4677 4.75854 63.6705 4.58666C63.892 4.4 64.0138 4.12753 64.0138 3.82024V3.10818C64.0138 2.64095 63.7463 2.28337 63.2805 2.12722ZM49.6515 2.09194H48.5163C47.9356 2.09194 47.5298 2.49648 47.5298 3.076V18.0107H42.8088C39.8886 18.0107 38.7038 17.825 38.7038 13.1707V3.076C38.7038 2.49672 38.2981 2.09194 37.7173 2.09194H36.6143C36.0336 2.09194 35.5957 2.51484 35.5957 3.076V13.1707C35.5957 19.7855 37.9948 20.9495 43.0358 20.9495C44.8492 20.9495 47.3327 20.9495 49.7011 20.616L49.7559 20.6051C50.3409 20.4589 50.6377 20.124 50.6377 19.6096V3.076C50.6377 2.49672 50.2319 2.09194 49.6515 2.09194Z" fill="#CDCCCC"/>
<path fill-rule="evenodd" clip-rule="evenodd" d="M32.0936 2.5552C31.948 2.2453 31.6355 2.06055 31.2579 2.06055H29.7987C29.3748 2.06055 29.058 2.23123 28.8912 2.53851L26.7285 5.69833L28.6218 8.28745L31.9273 3.54594C32.2901 3.10516 32.1644 2.7061 32.0936 2.5552Z" fill="#74BB11"/>
<path fill-rule="evenodd" clip-rule="evenodd" d="M20.6922 2.5008L20.6903 2.49794C20.3606 2.05859 19.922 2.05859 19.7778 2.05859H18.3505C17.9849 2.05859 17.6854 2.22666 17.5291 2.51916C17.3682 2.81881 17.4022 3.17877 17.6249 3.51228L22.9121 10.8417L16.8323 19.3216C16.6199 19.6406 16.5901 19.9951 16.7505 20.2945C16.9078 20.587 17.2075 20.7546 17.5725 20.7546H19.0314C19.4066 20.7546 19.7365 20.5598 19.9015 20.253L26.7067 10.8756L20.6922 2.5008Z" fill="#009CD9"/>
<path fill-rule="evenodd" clip-rule="evenodd" d="M32.8186 19.3976L28.5768 13.5762L26.7109 16.1484L30.0655 20.6255L30.1528 20.6637C30.2859 20.7235 30.43 20.755 30.5759 20.7561H32.0026C32.3474 20.7561 32.6399 20.6031 32.8055 20.3356C32.9753 20.0615 32.98 19.7199 32.8186 19.3976Z" fill="#EB2084"/>
<path fill-rule="evenodd" clip-rule="evenodd" d="M11.2206 12.8286V17.7723C9.77601 17.994 7.57403 18.0431 6.82358 18.0431C3.50381 18.0431 3.14003 17.1361 3.14003 15.2097C3.14003 13.407 3.81467 12.8284 5.91557 12.8284L11.2206 12.8286ZM6.66148 1.86523C5.6357 1.86523 4.23685 1.89193 2.49639 2.10124L2.41772 2.11864C1.91067 2.26286 1.65393 2.59589 1.65393 3.10842V3.82024C1.65393 4.42718 2.03177 4.80431 2.64013 4.80431H6.66172C9.89973 4.80431 11.2206 5.68157 11.2206 7.83206V9.92199H5.91557C1.76931 9.92199 0 11.5032 0 15.2094C0 19.3402 1.83129 20.9498 6.5318 20.9498C8.43579 20.9498 11.9406 20.8017 13.236 20.4067C14.3282 20.1035 14.3282 19.2691 14.3282 18.995V7.63825C14.3282 3.75374 11.8204 1.86523 6.66172 1.86523H6.66148Z" fill="#CDCCCC"/>
</g>
<defs>
<clipPath id="clip0_369_1836">
<rect width="80" height="22.816" fill="white"/>
</clipPath>
</defs>
</svg>
