<svg width="80" height="42" viewBox="0 0 80 42" fill="none" xmlns="http://www.w3.org/2000/svg">
<g clip-path="url(#clip0_369_1798)">
<path d="M79.9997 10.8213C79.9997 4.86959 74.5842 -0.00976562 71.9247 -0.00976562C69.2652 -0.00976562 63.8496 4.86959 63.8496 10.8213C63.8496 13.7489 64.7397 16.3227 66.0694 18.2744C66.5091 19.2503 67.3134 20.312 68.0212 21.3843C68.9113 22.6283 69.8013 23.8723 70.3268 25.1162C69.8871 25.2985 69.5333 25.6524 69.3509 26.0921C69.7906 26.1779 70.241 26.2637 70.7665 26.3602C72.0963 26.5425 73.3402 26.446 74.048 26.1886C73.6083 26.5425 72.2678 26.7248 70.7665 26.6283C70.2625 26.6176 69.7585 26.564 69.2544 26.446V28.9339C69.2544 29.9098 70.0587 30.1779 71.0239 30.1779H73.5118C74.4877 30.1779 75.292 29.9098 75.292 28.9339V26.7141C75.292 25.9098 74.67 25.202 73.8764 25.0304C74.2303 24.3227 74.5842 23.6042 74.9381 22.8964L75.292 22.1886L75.5601 21.6524C75.7424 21.2985 76.0963 20.5908 76.4501 19.9688C78.4877 18.1028 79.9997 14.7248 79.9997 10.8213ZM74.9381 21.4701L74.67 22.0063L74.3161 22.7141C73.9622 23.4219 73.5118 24.2262 73.2544 25.0197H72.1928V21.7275H71.6566V25.009H70.6807C70.1445 23.765 69.2652 22.4353 68.3751 21.1055C68.107 20.7516 67.9354 20.4835 67.6673 20.1296C68.9113 21.1055 70.3268 21.7275 71.9247 21.7275C73.1579 21.7275 74.3697 21.3629 75.3885 20.6658C75.2062 20.8589 75.1204 21.1162 74.9381 21.4701ZM74.8523 20.5908C74.8523 20.5908 77.426 17.8347 78.1338 13.9313C77.1579 15.0894 75.5601 15.883 73.6941 15.883C70.7665 15.883 68.3644 14.017 68.3644 11.7114C68.3644 9.40578 70.7558 7.53983 73.6941 7.53983C75.5601 7.53983 77.1579 8.24761 78.1338 9.40578C76.6217 3.01436 69.6083 1.41651 69.6083 1.41651C69.6083 1.41651 70.048 0.880316 71.0239 0.622943C71.8282 0.354847 72.182 0.440637 72.7075 0.622943C73.3295 0.794525 79.4528 4.17254 79.4528 10.7463C79.3778 17.127 74.8523 20.5908 74.8523 20.5908Z" fill="#8ABC00"/>
<path d="M4.5471 28.9336C5.70528 28.9336 7.65702 29.2875 7.65702 30.6172C7.65702 31.325 7.21734 31.8612 6.59536 31.8612C5.97337 31.8612 5.70528 31.4215 4.72941 31.4215C3.39965 31.4215 2.77766 32.3974 2.77766 33.6414C2.77766 34.8853 3.39965 35.8612 4.55782 35.8612C5.716 35.8612 6.24147 35.4215 6.59536 35.4215C7.21734 35.4215 7.65702 36.0435 7.65702 36.5797C7.65702 37.9095 5.61949 38.3491 4.5471 38.3491C1.88758 38.2634 0.107422 36.2151 0.107422 33.6414C0.107422 30.9711 1.88758 28.9336 4.5471 28.9336Z" fill="#DCD9D9"/>
<path d="M8.1826 30.4448C8.17188 29.7264 8.74024 29.1258 9.46946 29.1151C9.48019 29.1151 9.50163 29.1151 9.51236 29.1151C10.07 29.1044 10.5847 29.4154 10.8421 29.9194C11.2818 29.3832 11.9038 28.9435 12.6223 28.9435C13.3408 28.9328 13.9413 29.5011 13.952 30.2196C13.952 30.2411 13.952 30.2518 13.952 30.2733C13.952 31.1633 13.2443 31.4314 12.3542 31.6888C11.196 32.0427 10.8421 32.3108 10.8421 33.6406V36.8363C10.8636 37.5762 10.2845 38.1875 9.54453 38.2089C8.80458 38.2304 8.19332 37.6513 8.17188 36.9113C8.17188 36.8899 8.17188 36.8577 8.17188 36.8363L8.1826 30.4448Z" fill="#DCD9D9"/>
<path d="M22.5621 36.7404C22.5729 37.4589 22.0045 38.0594 21.2753 38.0701C21.2646 38.0701 21.2431 38.0701 21.2324 38.0701C20.6104 38.0701 20.1707 37.6305 19.9884 37.2659C19.3664 37.9736 18.7444 38.2417 17.7686 38.2417C15.4629 38.2417 13.7793 36.2042 13.7793 33.5339C13.7793 30.9602 15.5595 28.8262 17.7686 28.8262C18.7444 28.8262 19.4522 29.0943 19.9884 29.802C20.1707 29.4482 20.6104 28.9978 21.2324 28.9978C21.9509 28.987 22.5514 29.5554 22.5621 30.2846C22.5621 30.3061 22.5621 30.3168 22.5621 30.3382V36.7404ZM16.3423 33.6305C16.3423 34.8744 16.9643 35.8503 18.1225 35.8503C19.2806 35.8503 19.8919 34.8744 19.8919 33.6305C19.8919 32.4723 19.2699 31.4106 18.1225 31.4106C16.975 31.4106 16.353 32.3972 16.3423 33.6305Z" fill="#DCD9D9"/>
<path d="M26.735 31.5917H24.4294C23.6251 31.5917 23.0996 31.2379 23.0996 30.4336C23.0996 29.6293 23.6358 29.2754 24.4294 29.2754H29.491C30.0272 29.2754 30.1988 29.3612 30.4669 29.6293C30.6385 29.7901 30.735 30.0153 30.735 30.2513C30.735 30.5194 30.6492 30.6909 30.3811 30.959L26.8315 35.7526H29.5875C30.3918 35.7526 30.9173 36.1065 30.9173 36.9966C30.9173 37.8009 30.3811 38.2405 29.5875 38.2405H24.3436C24.0433 38.2405 23.7323 38.1869 23.4535 38.0582C23.0996 37.8759 23.0996 37.522 23.0996 37.3505C23.0996 37.1789 23.0996 36.9108 23.5393 36.3746L26.735 31.5917Z" fill="#DCD9D9"/>
<path d="M33.577 37.1903L31.3571 31.9571C31.089 31.2493 30.8209 30.6273 30.8209 30.3592C30.7995 29.6943 31.3357 29.1367 32.0006 29.1152C32.022 29.1152 32.0435 29.1152 32.0649 29.1152C32.6869 29.1152 33.1266 29.4691 33.3947 30.0911L34.9067 34.0804L36.3223 30.5308C36.6762 29.7265 37.03 29.1152 37.7378 29.1152C38.5421 29.1152 39.0676 29.6514 39.0676 30.445C39.0676 30.7989 38.896 31.2493 38.7137 31.6032L34.9818 40.4825C34.7137 41.1903 34.4456 41.7265 33.5662 41.7265C32.9121 41.7587 32.3544 41.2439 32.3223 40.5898C32.3223 40.579 32.3223 40.579 32.3223 40.5683C32.3223 40.1286 32.5046 39.8605 32.762 39.1528L33.577 37.1903Z" fill="#DCD9D9"/>
<path d="M42.2736 34.4339C42.2736 34.9701 42.7133 35.8495 44.4077 35.8495C45.7374 35.8495 46.4452 35.0452 47.0672 35.0452C47.6892 35.0452 48.1288 35.4849 48.1288 36.2034C48.1288 37.4473 45.9948 38.3374 44.043 38.3374C41.2012 38.3374 39.5176 36.2999 39.5176 33.6296C39.5176 31.1417 41.3835 28.9219 44.043 28.9219C46.6168 28.9219 48.3004 31.0559 48.3004 33.3616C48.3004 34.2516 47.8607 34.5197 47.0565 34.5197L42.2736 34.4339ZM45.6516 32.6538C45.6516 32.0318 45.0296 31.0559 43.968 31.0559C42.9063 31.0559 42.2843 32.0318 42.2843 32.6538H45.6516Z" fill="#DCD9D9"/>
<path d="M57.5444 37.1908C57.5444 40.4723 55.4104 41.7163 52.8366 41.7163C51.5069 41.7163 48.9331 41.1801 48.9331 39.7645C48.9331 39.1426 49.4693 38.6064 49.9948 38.6064C50.7991 38.6064 51.2388 39.4107 52.7508 39.4107C54.3487 39.4107 54.9707 38.5206 54.9707 37.105H54.8849C54.3487 37.9093 53.3728 38.0809 52.4935 38.0809C50.0055 38.0809 48.6758 35.8611 48.6758 33.5554C48.6758 30.9817 50.4559 28.8477 52.6651 28.8477C53.6409 28.8477 54.3487 29.1158 54.8849 29.8235C55.0672 29.4696 55.5069 29.0192 56.1289 29.0192C56.8474 29.0085 57.4479 29.5769 57.4586 30.2954C57.4586 30.3168 57.4586 30.3275 57.4586 30.349C57.5444 30.4455 57.5444 37.1908 57.5444 37.1908ZM53.1047 31.4214C51.9466 31.4214 51.3353 32.3973 51.3353 33.6412C51.3353 34.8852 51.9573 35.8611 53.1047 35.8611C54.2522 35.8611 54.8849 34.8852 54.8849 33.6412C54.8849 32.3973 54.2522 31.4214 53.1047 31.4214Z" fill="#DCD9D9"/>
<path d="M67.1323 37.1908C67.1323 40.4723 64.9983 41.7163 62.4245 41.7163C61.0948 41.7163 58.521 41.1801 58.521 39.7645C58.521 39.1426 59.0572 38.6064 59.5827 38.6064C60.387 38.6064 60.8267 39.4107 62.3387 39.4107C63.9366 39.4107 64.5586 38.5206 64.5586 37.105H64.4728C63.9366 37.9093 62.9607 38.0809 62.0814 38.0809C59.5934 38.0809 58.2637 35.8611 58.2637 33.5554C58.2637 30.9817 60.0438 28.8477 62.2529 28.8477C63.2288 28.8477 63.9366 29.1158 64.4728 29.8235C64.6551 29.4696 65.0948 29.0192 65.7168 29.0192C66.4353 29.0085 67.0358 29.5769 67.0465 30.2954C67.0465 30.3168 67.0465 30.3275 67.0465 30.349C67.1323 30.4455 67.1323 37.1908 67.1323 37.1908ZM62.6926 31.4214C61.5344 31.4214 60.9232 32.3973 60.9232 33.6412C60.9232 34.8852 61.5452 35.8611 62.6926 35.8611C63.8401 35.8611 64.4728 34.8852 64.4728 33.6412C64.4728 32.3973 63.8401 31.4214 62.6926 31.4214Z" fill="#DCD9D9"/>
<path d="M75.5599 10.563C75.1202 10.563 74.6698 10.2949 74.0478 10.2949C72.9861 10.2949 72.4499 10.9169 72.4499 11.6247C72.4499 12.2466 72.9861 12.8686 74.0478 12.8686C74.4875 12.8686 75.206 12.6005 75.4633 12.6005C75.903 12.6005 76.2676 12.8686 76.2676 13.1367C76.2676 13.7587 74.6698 14.0268 73.962 14.0268C71.9245 14.0268 70.584 12.8686 70.584 11.6247C70.584 10.3807 71.9995 9.13672 73.962 9.13672C74.7663 9.13672 76.2676 9.31902 76.2676 9.94101C76.3641 10.1984 76.0103 10.563 75.5599 10.563Z" fill="#8ABC00"/>
</g>
<defs>
<clipPath id="clip0_369_1798">
<rect width="80" height="41.7158" fill="white"/>
</clipPath>
</defs>
</svg>
