<svg width="80" height="80" viewBox="0 0 80 80" fill="none" xmlns="http://www.w3.org/2000/svg">
<path d="M26.7708 80.0006C34.1308 80.0006 40.1042 74.0273 40.1042 66.6673V53.334H26.7708C19.4108 53.334 13.4375 59.3073 13.4375 66.6673C13.4375 74.0273 19.4108 80.0006 26.7708 80.0006Z" fill="#0ACF83"/>
<path d="M13.4375 39.9993C13.4375 32.6393 19.4108 26.666 26.7708 26.666H40.1042V53.3327H26.7708C19.4108 53.3327 13.4375 47.3594 13.4375 39.9993Z" fill="#A259FF"/>
<path d="M13.4375 13.3333C13.4375 5.97333 19.4108 0 26.7708 0H40.1042V26.6667H26.7708C19.4108 26.6667 13.4375 20.6933 13.4375 13.3333Z" fill="#F24E1E"/>
<path d="M40.1045 0H53.4378C60.7978 0 66.7712 5.97333 66.7712 13.3333C66.7712 20.6933 60.7978 26.6667 53.4378 26.6667H40.1045V0Z" fill="#FF7262"/>
<path d="M66.7712 39.9993C66.7712 47.3594 60.7978 53.3327 53.4378 53.3327C46.0778 53.3327 40.1045 47.3594 40.1045 39.9993C40.1045 32.6393 46.0778 26.666 53.4378 26.666C60.7978 26.666 66.7712 32.6393 66.7712 39.9993Z" fill="#1ABCFE"/>
</svg>
