<svg width="87" height="80" viewBox="0 0 87 80" fill="none" xmlns="http://www.w3.org/2000/svg">
<g clip-path="url(#clip0_369_1771)">
<path d="M51.8792 75.1372L85.1168 16.3194C88.098 11.1181 86.3325 4.48964 81.1629 1.45907C76.0497 -1.52217 69.4882 0.211599 66.5105 5.3248C66.4858 5.36709 66.4611 5.40938 66.44 5.44814L32.9346 64.1179L51.8792 75.1372Z" fill="#FCC934"/>
<path d="M16.3796 42.4531L48.1724 60.1855C53.2186 62.8566 55.1462 69.1116 52.4751 74.1578C52.394 74.3093 52.3095 74.4609 52.2214 74.6089C49.071 79.7503 42.4319 81.5087 37.1496 78.6015L5.29688 60.8339L16.3796 42.4531Z" fill="#FBBC04"/>
<path d="M18.3975 59.2175C22.6058 55.0092 22.6058 48.1861 18.3975 43.9778C14.1892 39.7695 7.3662 39.7695 3.1579 43.9778C-1.05041 48.1862 -1.05041 55.0092 3.15789 59.2175C7.3662 63.4258 14.1892 63.4258 18.3975 59.2175Z" fill="#F29900"/>
</g>
<defs>
<clipPath id="clip0_369_1771">
<rect width="86.5686" height="80" fill="white"/>
</clipPath>
</defs>
</svg>
