<svg width="74" height="81" viewBox="0 0 74 81" fill="none" xmlns="http://www.w3.org/2000/svg">
<path d="M73.1272 70.4849C73.1346 71.8965 72.8418 73.2935 72.2683 74.5833C71.6949 75.8732 70.8538 77.0264 69.8009 77.9666C68.748 78.9068 67.5073 79.6125 66.161 80.0369C64.8148 80.4613 63.3937 80.5947 61.9919 80.4283C56.8892 79.6732 53.1501 75.2331 53.2745 70.0763V10.7904C53.1512 5.62823 56.8996 1.18552 62.0089 0.438659C63.4093 0.274707 64.8286 0.409955 66.1729 0.835457C67.5171 1.26096 68.7557 1.96702 69.8067 2.90693C70.8577 3.84685 71.6972 4.9992 72.2696 6.28776C72.8421 7.57633 73.1344 8.97175 73.1272 10.3817V70.4849Z" fill="#F9AB00"/>
<path d="M10.6588 60.6647C16.1411 60.6647 20.5852 65.1091 20.5852 70.5911C20.5852 76.0734 16.1411 80.5175 10.6588 80.5175C5.17654 80.5175 0.732422 76.0734 0.732422 70.5914C0.732422 65.1091 5.17654 60.6647 10.6588 60.6647ZM36.7772 30.579C31.2692 30.881 26.9953 35.5014 27.1234 41.0164V67.6797C27.1234 74.9159 30.3074 79.3088 34.9724 80.2452C36.4187 80.5383 37.9121 80.5059 39.3443 80.1502C40.7765 79.7945 42.1115 79.1246 43.2526 78.1888C44.3937 77.2531 45.3123 76.0751 45.9416 74.7404C46.5709 73.4056 46.8952 71.9474 46.891 70.4718V40.5569C46.8934 39.2344 46.6325 37.9247 46.1234 36.7041C45.6142 35.4836 44.8672 34.3767 43.9257 33.4479C42.9843 32.5191 41.8673 31.7871 40.6399 31.2946C39.4126 30.8021 38.0995 30.559 36.7772 30.5793V30.579Z" fill="#E37400"/>
</svg>
