<svg width="72" height="80" viewBox="0 0 72 80" fill="none" xmlns="http://www.w3.org/2000/svg">
<path d="M49.1119 77.7496C55.0223 56.5564 52.8956 45.8733 42.5339 43.8207C44.1166 51.017 45.8971 58.4111 38.3299 63.4065C34.3731 66.0278 31.2325 65.0139 24.2093 59.6229C20.9697 66.2751 22.0579 72.9026 23.5664 80C13.5014 78.2442 5.56324 74.0649 1.87855 64.3462C-1.9298 55.493 0.172203 45.2303 7.09647 38.5533C9.51996 36.0804 12.1413 33.83 14.9357 31.8022C26.2619 23.2952 28.4628 15.0355 22.4782 2.25039C22.2062 1.5085 21.9837 0.766615 21.8353 0C34.4226 1.90417 46.3422 6.97373 56.4813 14.6893C78.5648 32.7419 75.894 65.2117 51.5107 77.1314C50.6699 77.1808 49.8785 77.3787 49.1119 77.7496Z" fill="#EE4854"/>
</svg>
