<svg width="80" height="80" viewBox="0 0 80 80" fill="none" xmlns="http://www.w3.org/2000/svg">
<g clip-path="url(#clip0_369_1828)">
<path d="M72.7478 0H7.25219C3.24688 0 0 3.24688 0 7.25219V72.7478C0 76.7531 3.24688 80 7.25219 80H72.7478C76.7531 80 80 76.7531 80 72.7478V7.25219C80 3.24688 76.7531 0 72.7478 0Z" fill="#DC395F"/>
<path d="M26.7352 25.1694C29.3945 25.1694 31.6223 23.085 31.6223 20.3531C31.6223 17.6231 29.3945 15.5391 26.7352 15.5391C24.0758 15.5391 21.8486 17.6231 21.8486 20.3531C21.8486 23.0847 24.0758 25.1694 26.7352 25.1694ZM16.602 50.9569C16.3148 52.1788 16.1708 53.4981 16.1708 54.5744C16.1708 58.8153 18.4705 61.6306 23.3577 61.6306C27.4108 61.6306 30.6967 59.2238 33.0627 55.3372L31.618 61.135H39.6664L44.2664 42.6853C45.4164 38.0141 47.6442 35.5894 51.0223 35.5894C53.6814 35.5894 55.3342 37.2431 55.3342 39.9731C55.3342 40.7641 55.2623 41.6256 54.9748 42.5603L52.603 51.0406C52.2436 52.2625 52.1005 53.485 52.1005 54.6341C52.1005 58.66 54.4714 61.6047 59.4305 61.6047C63.6708 61.6047 67.0483 58.875 68.917 52.3347L65.7552 51.1141C64.1739 55.4956 62.8083 56.2878 61.7302 56.2878C60.652 56.2878 60.077 55.5697 60.077 54.1331C60.077 53.4863 60.2214 52.7684 60.4364 51.9041L62.7367 43.6422C63.3114 41.7022 63.5273 39.9819 63.5273 38.4013C63.5273 32.2206 59.7898 28.995 55.2623 28.995C51.0223 28.995 46.7098 32.8197 44.5542 36.845L46.1348 29.62H33.8461L32.1211 35.9838H37.8708L34.3302 50.1588C31.5498 56.3394 26.4427 56.4397 25.8017 56.2963C24.7492 56.0588 24.0761 55.6591 24.0761 54.2916C24.0761 53.5025 24.2198 52.3691 24.5792 51.0025L29.9698 29.62H16.3148L14.5898 35.9838H20.267L16.6023 50.9569" fill="white"/>
</g>
<defs>
<clipPath id="clip0_369_1828">
<rect width="80" height="80" fill="white"/>
</clipPath>
</defs>
</svg>
