<svg width="80" height="38" viewBox="0 0 80 38" fill="none" xmlns="http://www.w3.org/2000/svg">
<g clip-path="url(#clip0_369_1764)">
<path d="M61.2453 0.00585938C56.8875 0.00585938 51.5175 2.6518 44.7472 8.0993C43.1144 9.44538 41.5059 10.8205 39.9222 12.224C38.5997 10.9787 36.9653 9.57805 35.0975 8.09898C28.405 2.65242 22.9575 0.00585938 18.6772 0.00585938C8.40437 0.00585938 0 8.48836 0 18.8387C0 29.2665 8.40437 37.6715 18.6772 37.6715C23.035 37.6715 28.405 35.0255 35.175 29.5777C36.8077 28.2319 38.4163 26.857 40 25.4537C41.3228 26.699 42.9572 28.0996 44.825 29.5784C51.5956 35.0259 56.965 37.6718 61.3228 37.6718C71.595 37.6718 80 29.1893 80 18.839C79.9225 8.48836 71.5175 0.00585938 61.2453 0.00585938ZM29.1828 22.1071C22.1016 27.7102 19.1444 28.0218 18.6772 28.0218C13.6969 28.0218 9.65 23.8968 9.65 18.8387C9.65 13.7802 13.6969 9.65555 18.6772 9.65555C19.2219 9.65555 22.1012 9.9668 29.1831 15.5702C30.5837 16.6596 31.9069 17.8271 32.9963 18.8387C31.8291 19.8502 30.5837 20.9399 29.1831 22.1074L29.1828 22.1071ZM42.8016 23.2743L36.3422 22.8852L35.7978 16.6596L39.8447 12.3018L40.3116 18.5274L46.8488 18.9165L42.8016 23.2743ZM61.2453 28.0218C60.7006 28.0218 57.8213 27.7105 50.7394 22.1071C49.3387 21.0174 48.0153 19.8502 46.9263 18.8384C48.0159 17.8271 49.3387 16.7374 50.6619 15.648C57.7434 9.9668 60.7006 9.65586 61.1675 9.65586C66.1481 9.65586 70.1947 13.7809 70.1947 18.839C70.2722 23.8971 66.2256 28.0218 61.2453 28.0218Z" fill="#BC1B23"/>
</g>
<defs>
<clipPath id="clip0_369_1764">
<rect width="80" height="37.824" fill="white"/>
</clipPath>
</defs>
</svg>
