<svg width="80" height="80" viewBox="0 0 80 80" fill="none" xmlns="http://www.w3.org/2000/svg">
<path fill-rule="evenodd" clip-rule="evenodd" d="M40 80C62.0914 80 80 62.0914 80 40C80 17.9086 62.0914 0 40 0C17.9086 0 0 17.9086 0 40C0 62.0914 17.9086 80 40 80Z" fill="#1FB6FF"/>
<path fill-rule="evenodd" clip-rule="evenodd" d="M36.0134 31.2028C38.9424 31.2346 33.7858 46.439 34.3393 53.0489C34.8977 59.7175 42.2765 57.7975 41.8081 53.9585C41.0113 47.4322 45.3588 26.9818 49.7678 26.9818C52.8613 26.9818 46.3415 41.0799 47.6244 50.1077C48.4732 56.0806 56.1772 54.0086 55.3943 50.4671C52.8045 38.7465 60.8285 27.4824 59.9293 19.5016C59.536 16.0097 57.436 14.302 55.3354 14.2853C47.9807 14.2287 42.2995 29.3114 42.2995 29.3114C42.2995 29.3114 42.8911 20.7389 37.1751 20.4242C28.4234 19.9419 19.7597 41.8445 20.0051 61.4015C20.0833 67.6406 27.8485 66.5779 27.4401 61.6035C26.6808 52.3526 31.8385 31.1581 36.0134 31.2028Z" fill="white"/>
</svg>
