<svg width="80" height="80" viewBox="0 0 80 80" fill="none" xmlns="http://www.w3.org/2000/svg">
<path d="M67.0968 0H12.9032C5.77697 0 0 5.77697 0 12.9032V67.0968C0 74.2232 5.77697 80 12.9032 80H67.0968C74.2232 80 80 74.2232 80 67.0968V12.9032C80 5.77697 74.2232 0 67.0968 0Z" fill="#FFD02F"/>
<path fill-rule="evenodd" clip-rule="evenodd" d="M54.1931 12.9023H46.4511L52.9028 24.5152L38.7092 12.9023H30.9673L38.064 27.0959L23.2253 12.9023H15.4834L23.2253 30.9669L15.4834 67.0959H23.2253L38.064 28.3862L30.9673 67.0959H38.7092L52.9028 25.8056L46.4511 67.0959H54.1931L68.3866 21.9346L54.1931 12.9023Z" fill="#050038"/>
</svg>
