<svg width="100" height="80" viewBox="0 0 100 80" fill="none" xmlns="http://www.w3.org/2000/svg">
<g clip-path="url(#clip0_369_1792)">
<path d="M61.9689 39.7333C61.8294 33.6879 56.851 28.8804 50.8044 28.952H22.0176V50.5147H40.6615V68.6478C40.5025 71.5161 41.5165 74.3257 43.4707 76.4313C45.4249 78.5368 48.1512 79.7573 51.0233 79.8123C53.9553 79.7834 56.7558 78.5909 58.8085 76.4971C60.8612 74.4034 61.998 71.5799 61.9689 68.6478V39.7333Z" fill="#B366F6"/>
<path d="M21.8908 50.7504C27.9057 50.7504 32.7817 45.8744 32.7817 39.8596C32.7817 33.8447 27.9057 28.9688 21.8908 28.9688C15.876 28.9688 11 33.8447 11 39.8596C11 45.8744 15.876 50.7504 21.8908 50.7504Z" fill="#8430CE"/>
<path d="M88.5501 10.8361C88.49 4.83383 83.6071 0 77.6045 0H48.161C42.5673 0.56147 38.3086 5.2691 38.3086 10.8908C38.3086 16.5126 42.5673 21.2202 48.161 21.7817H67.0238V39.8966C66.861 43.8508 68.8779 47.5765 72.2778 49.6021C75.6778 51.6277 79.9143 51.6277 83.3143 49.6021C86.7142 47.5765 88.7311 43.8508 88.5683 39.8966L88.5501 10.8361Z" fill="#C58AF8"/>
</g>
<defs>
<clipPath id="clip0_369_1792">
<rect width="77.5758" height="80" fill="white" transform="translate(11)"/>
</clipPath>
</defs>
</svg>
