<svg width="80" height="21" viewBox="0 0 80 21" fill="none" xmlns="http://www.w3.org/2000/svg">
<g clip-path="url(#clip0_369_1754)">
<path d="M34.7558 13.6222C34.7558 15.3841 33.3367 16.7687 31.6092 16.7687H28.2159L29.3264 20.5047L23.7395 16.7687H3.14656C1.41906 16.7687 0 15.3497 0 13.6222V3.15437C0 1.42687 1.41906 0.0078125 3.14656 0.0078125H31.575C33.3367 0.0078125 34.7216 1.42687 34.7216 3.15437V13.6153H34.7558V13.6222Z" fill="url(#paint0_linear_369_1754)"/>
<path d="M3.05762 4.26477C3.05762 3.5518 3.52387 3.1543 4.14074 3.1543C4.75777 3.1543 5.22387 3.55867 5.22387 4.26477V9.26242C5.22387 10.5923 6.06027 11.6412 7.44496 11.6412C8.74059 11.6412 9.63871 10.5305 9.63871 9.26242V4.26477C9.63871 3.5518 10.1048 3.1543 10.7218 3.1543C11.3387 3.1543 11.805 3.55867 11.805 4.26477V9.38586C11.805 11.792 9.83059 13.6155 7.45184 13.6155C5.04559 13.6155 3.09871 11.8262 3.09871 9.38586V4.26477H3.05762ZM17.4125 8.06258C17.0079 8.06258 16.2403 7.44555 15.5615 7.44555C15.1914 7.44555 14.8486 7.6307 14.8486 8.03508C14.8486 8.99492 18.427 8.87148 18.427 11.216C18.427 12.6076 17.2548 13.6563 15.4929 13.6563C14.3207 13.6563 12.6207 13.0052 12.6207 12.0523C12.6207 11.7438 12.9292 11.1268 13.5187 11.1268C14.3207 11.1268 14.6909 11.8398 15.6506 11.8398C16.2678 11.8398 16.4528 11.6204 16.4528 11.2502C16.4528 10.2905 12.8743 10.4482 12.8743 8.06945C12.8743 6.65039 14.0465 5.6632 15.685 5.6632C16.7064 5.6632 18.2762 6.12945 18.2762 7.14398C18.2762 7.60336 17.9059 8.06258 17.4125 8.06258ZM21.2034 10.3179C21.3611 11.3393 22.1904 11.7987 23.1503 11.7987C24.199 11.7987 24.9393 10.9623 25.4946 10.9623C25.9265 10.9623 26.3311 11.3941 26.3311 11.8604C26.3311 12.7584 24.4801 13.6221 22.9651 13.6221C20.6481 13.6221 19.0782 11.9221 19.0782 9.6393C19.0782 7.54164 20.5932 5.62898 22.7801 5.62898C25.0354 5.62898 26.4818 7.66492 26.4818 9.39242C26.4818 10.0095 26.2007 10.3179 25.5839 10.3179H21.2034ZM24.4459 8.96055C24.3225 8.06258 23.7671 7.38398 22.8075 7.38398C21.882 7.38398 21.2651 8.0968 21.169 8.96055H24.4459ZM27.565 6.76695C27.565 6.08836 28.1203 5.74555 28.6139 5.74555C29.169 5.74555 29.6353 5.96492 29.6353 6.6093H29.6696C30.074 6.01977 30.4715 5.74555 31.1228 5.74555C31.6165 5.74555 32.1442 6.1157 32.1442 6.85602C32.1442 7.53477 31.5273 7.56898 30.9103 7.87742C30.2934 8.15867 29.6764 8.43273 29.6764 9.26914V12.4499C29.6764 13.1285 29.2445 13.5948 28.655 13.5948C28.0379 13.5948 27.6336 13.1285 27.6336 12.4499V6.76695H27.565Z" fill="white"/>
<path d="M38.6498 5.22492H37.0733C36.3945 5.22492 36.0859 4.73148 36.0859 4.23789C36.0859 3.74414 36.4563 3.2507 37.0731 3.2507H42.3517C42.9686 3.2507 43.3387 3.7443 43.3387 4.23789C43.3387 4.73148 43.0577 5.22492 42.3517 5.22492H40.775V12.416C40.775 13.129 40.3088 13.5266 39.6919 13.5266C39.0748 13.5266 38.6087 13.1221 38.6087 12.416V5.22492H38.6498ZM44.1752 10.3184C44.3328 11.3398 45.1623 11.7991 46.122 11.7991C47.1708 11.7991 47.9111 10.9627 48.4664 10.9627C48.8983 10.9627 49.3028 11.3946 49.3028 11.8609C49.3028 12.7588 47.4519 13.6226 45.9369 13.6226C43.6198 13.6226 42.05 11.9226 42.05 9.63976C42.05 7.54211 43.565 5.62945 45.7519 5.62945C48.0072 5.62945 49.4536 7.66539 49.4536 9.39289C49.4536 10.0099 49.1725 10.3184 48.5556 10.3184H44.1752ZM47.4108 8.96102C47.2873 8.06305 46.732 7.38445 45.7723 7.38445C44.8469 7.38445 44.23 8.09727 44.1341 8.96102H47.4106H47.4108ZM54.9172 8.06305C54.5128 8.06305 53.745 7.44602 53.0663 7.44602C52.6961 7.44602 52.3533 7.63117 52.3533 8.03555C52.3533 8.99539 55.9317 8.87195 55.9317 11.2165C55.9317 12.608 54.7595 13.6568 52.9978 13.6568C51.8255 13.6568 50.1255 13.0057 50.1255 12.0527C50.1255 11.7443 50.4339 11.1273 51.0234 11.1273C51.8255 11.1273 52.1956 11.8402 53.1555 11.8402C53.7723 11.8402 53.9575 11.6209 53.9575 11.2507C53.9575 10.291 50.3791 10.4487 50.3791 8.06992C50.3791 6.65086 51.5512 5.66367 53.1897 5.66367C54.2111 5.66367 55.7809 6.12992 55.7809 7.14445C55.7809 7.60383 55.4106 8.06305 54.9172 8.06305ZM57.5702 7.63117H57.1041C56.5487 7.63117 56.2059 7.28836 56.2059 6.7332C56.2059 6.20523 56.6105 5.83508 57.1041 5.83508H57.5702V4.60117C57.5702 3.92258 58.002 3.45633 58.5916 3.45633C59.2086 3.45633 59.613 3.92258 59.613 4.60117V5.83508H60.2025C60.7303 5.83508 61.1897 6.08195 61.1897 6.7332C61.1897 7.38445 60.7236 7.63117 60.2025 7.63117H59.613V12.3818C59.613 13.0605 59.1811 13.5266 58.5916 13.5266C57.9745 13.5266 57.5702 13.0605 57.5702 12.3818V7.63117ZM64.0483 3.77164C64.0483 4.42289 63.5205 4.9782 62.8761 4.9782C62.2591 4.9782 61.7038 4.42289 61.7038 3.77164C61.7038 3.18211 62.2591 2.62695 62.8761 2.62695C63.493 2.63367 64.0483 3.15477 64.0483 3.77164ZM61.8616 6.89102C61.8616 6.21227 62.2934 5.74617 62.883 5.74617C63.4998 5.74617 63.9044 6.21227 63.9044 6.89102V12.416C63.9044 13.0948 63.4725 13.5609 62.883 13.5609C62.2659 13.5609 61.8616 13.0948 61.8616 12.416V6.89102ZM64.9737 6.89086C64.9737 6.21211 65.4056 5.74602 65.9952 5.74602C66.523 5.74602 66.8589 6.02711 66.9548 6.5207C67.3594 5.96539 67.9763 5.6843 68.9634 5.6843C70.6019 5.6843 71.8016 6.7057 71.8016 8.4607V12.416C71.8016 13.0948 71.3697 13.5609 70.7802 13.5609C70.1631 13.5609 69.7586 13.0948 69.7586 12.416V8.77602C69.7586 7.81633 69.1417 7.35695 68.4014 7.35695C67.565 7.35695 67.0714 7.97398 67.0714 8.77602V12.3887C67.0714 13.0673 66.6395 13.5335 66.05 13.5335C65.433 13.5335 65.0286 13.0673 65.0286 12.3887V6.89086H64.9737ZM79.9455 12.8479C79.9455 15.3159 78.307 16.584 75.9627 16.584C75.1263 16.584 72.6927 16.1796 72.6927 15.0416C72.6927 14.6371 73.1245 14.1435 73.5291 14.1435C74.1803 14.1435 74.9206 14.7948 76.1203 14.7948C77.1417 14.7948 77.882 14.2052 77.882 13.1565V12.6627H77.8477C77.4159 13.2799 76.703 13.6501 75.7775 13.6501C73.6181 13.6501 72.5967 11.7374 72.5967 9.70148C72.5967 7.63117 73.9266 5.69117 75.99 5.69117C76.703 5.69117 77.505 5.99961 77.8752 6.65086C77.9986 6.09555 78.3414 5.78711 78.8966 5.78711C79.5136 5.78711 79.9181 6.2532 79.9181 6.93195V12.8616H79.9455V12.8479ZM76.2436 7.54211C75.1606 7.54211 74.6395 8.65258 74.6395 9.61242C74.6395 10.7229 75.1673 11.7101 76.2436 11.7101C77.3542 11.7101 77.882 10.6885 77.882 9.67414C77.882 8.68008 77.3884 7.54211 76.2436 7.54211Z" fill="#206FA5"/>
</g>
<defs>
<linearGradient id="paint0_linear_369_1754" x1="17.3786" y1="0.00822244" x2="17.3786" y2="20.5043" gradientUnits="userSpaceOnUse">
<stop stop-color="#77C150"/>
<stop offset="1" stop-color="#4C8B3F"/>
</linearGradient>
<clipPath id="clip0_369_1754">
<rect width="80" height="20.64" fill="white"/>
</clipPath>
</defs>
</svg>
