<svg width="80" height="80" viewBox="0 0 80 80" fill="none" xmlns="http://www.w3.org/2000/svg">
<path fill-rule="evenodd" clip-rule="evenodd" d="M12.3297 51.9316L8.14463 53.4344L7.91992 65.6724L22.4073 60.4703C17.4383 58.8296 13.8096 55.943 12.3297 51.9316Z" fill="#FDBD39"/>
<path fill-rule="evenodd" clip-rule="evenodd" d="M14.5208 38.9883L0 44.2025L8.1456 53.4348L12.3307 51.932C10.8551 47.9324 11.7651 43.4112 14.5208 38.9883Z" fill="#F69833"/>
<path fill-rule="evenodd" clip-rule="evenodd" d="M38.9563 21.3284C20.4654 27.9682 8.54441 41.6694 12.3302 51.9309L79.2918 27.8862C75.506 17.6246 57.4473 14.6886 38.9563 21.3284Z" fill="#FECF33"/>
<path fill-rule="evenodd" clip-rule="evenodd" d="M52.6655 58.4892C71.1565 51.8494 83.0999 38.209 79.2917 27.8867L12.3301 51.9315C16.1382 62.2538 34.1746 65.129 52.6655 58.4892Z" fill="#EE6723"/>
<path fill-rule="evenodd" clip-rule="evenodd" d="M79.2917 27.8867L12.3301 51.9315C13.6413 55.4856 18.6414 57.2366 25.6572 57.2366C32.497 57.2366 41.2526 55.5736 50.3806 52.2958C68.8716 45.6561 81.8812 34.9058 79.2917 27.8867Z" fill="#F69833"/>
<path fill-rule="evenodd" clip-rule="evenodd" d="M65.9649 22.582C59.1251 22.582 50.3695 24.2451 41.2414 27.5228C22.7505 34.1627 9.74084 44.9128 12.3304 51.932L79.292 27.8872C77.9808 24.333 72.9807 22.582 65.9649 22.582Z" fill="#FDBD39"/>
<path fill-rule="evenodd" clip-rule="evenodd" d="M62.2674 66.3201H62.2669C60.2968 66.3201 57.3903 64.5709 53.628 61.1211C49.177 57.0397 44.0783 51.0617 39.2711 44.2884C34.464 37.5155 30.514 30.7441 28.1487 25.2215C25.5716 19.2034 25.2042 15.503 27.0565 14.2231C27.4627 13.9428 27.9523 13.8008 28.5117 13.8008C30.0184 13.8008 32.9543 14.9035 38.3833 20.157L38.502 20.2718L38.486 20.4351C38.4489 20.8125 38.4147 21.1933 38.3842 21.567L38.3236 22.3091L37.791 21.7817C31.9415 15.989 29.3665 15.3637 28.5308 15.3637C28.2925 15.3637 28.1028 15.4113 27.9667 15.5053C27.1632 16.0602 27.1115 18.7783 29.61 24.6122C31.9331 30.0364 35.8257 36.7053 40.5707 43.3906C45.3158 50.0765 50.3364 55.9661 54.7079 59.9746C59.4218 64.2969 61.546 64.7637 62.2406 64.7637C62.4804 64.7637 62.6753 64.713 62.8198 64.6131C63.6674 64.0277 63.6684 61.116 60.8821 54.8367L60.7542 54.5484L61.0342 54.3978C61.3143 54.2471 61.5851 54.0987 61.8391 53.9568L62.1745 53.7694L62.3292 54.1176C64.3048 58.567 66.1515 64.2221 63.7299 65.8953C63.3217 66.1772 62.8297 66.3201 62.2674 66.3201ZM62.2669 65.6338H62.2674L62.2671 65.977L62.2669 65.6338Z" fill="#EE6723"/>
<path fill-rule="evenodd" clip-rule="evenodd" d="M53.1156 58.3022L53.0874 58.6442C52.62 64.33 51.3891 71.1656 48.1798 71.4423C48.1152 71.4479 48.0482 71.4509 47.9813 71.4509C45.8011 71.4509 43.7385 68.3804 41.8508 62.3247C40.0648 56.5956 38.6788 48.9034 37.9483 40.6651C37.2177 32.4285 37.2287 24.6158 37.9791 18.6662C38.7971 12.183 40.3544 8.79724 42.6074 8.6029C42.674 8.59686 42.743 8.59375 42.8112 8.59375C44.3928 8.59375 46.7764 10.3541 49.2166 18.5534L47.6233 18.8557C46.8086 16.1157 45.9207 13.8872 45.0392 12.3559C44.2238 10.9395 43.431 10.1595 42.8067 10.1595C42.7862 10.1595 42.7655 10.1603 42.7451 10.162C41.7686 10.2463 40.3464 12.5748 39.5535 18.8595C38.8164 24.7023 38.8075 32.398 39.5284 40.5289C40.2498 48.6609 41.6131 56.2382 43.3671 61.8646C44.1526 64.3845 45.0142 66.4613 45.8587 67.8706C46.6375 69.1701 47.3911 69.8858 47.9808 69.8858C48.0011 69.8858 48.0213 69.8849 48.0414 69.8832C48.9758 69.8027 50.7367 67.3797 51.4778 58.8547L53.1156 58.3022Z" fill="#EE6723"/>
</svg>
