<svg width="50" height="50" viewBox="0 0 50 50" fill="none" xmlns="http://www.w3.org/2000/svg">
<g clip-path="url(#clip0_428_3746)">
<path d="M44.8958 13.5413C43.7499 11.6663 41.2499 10.7288 38.0208 10.7288C36.1907 10.728 34.3688 10.9733 32.6041 11.458C30.8333 5.72884 28.1249 2.08301 24.9999 2.08301C21.8749 2.08301 19.1666 5.72884 17.3958 11.458C15.6311 10.9733 13.8092 10.728 11.9791 10.7288C8.74994 10.7288 6.24994 11.6663 5.1041 13.5413C3.95827 15.4163 5.31243 20.6247 9.27077 24.9997C5.31243 29.3747 3.5416 33.6455 5.1041 36.458C6.6666 39.2705 8.74994 39.2705 11.9791 39.2705C13.8092 39.2713 15.6311 39.0261 17.3958 38.5413C19.1666 44.2705 21.8749 47.9163 24.9999 47.9163C28.1249 47.9163 30.8333 44.2705 32.6041 38.5413C34.3688 39.0261 36.1907 39.2713 38.0208 39.2705C41.2499 39.2705 43.7499 38.333 44.8958 36.458C46.0416 34.583 44.6874 29.3747 40.7291 24.9997C44.6874 20.6247 46.4583 16.3538 44.8958 13.5413ZM24.9999 5.20801C26.1458 5.20801 28.1249 7.60384 29.5833 12.2913C28.0234 12.7544 26.4929 13.3109 24.9999 13.958C23.507 13.3109 21.9765 12.7544 20.4166 12.2913C21.8749 7.60384 23.8541 5.20801 24.9999 5.20801ZM31.2499 24.9997C31.2499 26.458 31.1458 27.8122 31.0416 29.0622L28.3333 30.833L24.9999 32.4997L21.6666 30.833L18.9583 29.0622C18.8541 27.8122 18.7499 26.458 18.7499 24.9997C18.7499 23.5413 18.8541 22.1872 18.9583 20.9372L21.6666 19.1663L24.9999 17.4997L28.3333 19.1663L31.0416 20.9372C31.1458 22.1872 31.2499 23.5413 31.2499 24.9997ZM34.3749 23.2288L36.3541 24.9997L34.3749 26.7705V23.2288ZM30.6249 33.1247L30.3124 34.6872L28.7499 34.1663L29.8958 33.5413L30.6249 33.1247ZM21.2499 34.1663L19.6874 34.6872L19.3749 33.1247L20.1041 33.5413L21.2499 34.1663ZM15.6249 26.7705L13.6458 24.9997L15.6249 23.2288V26.7705ZM19.3749 16.8747L19.6874 15.3122L21.2499 15.833L20.1041 16.458L19.3749 16.8747ZM29.8958 16.458L28.7499 15.833L30.3124 15.3122L30.6249 16.8747L29.8958 16.458ZM7.81243 15.1038C8.33327 14.3747 9.89577 13.8538 11.9791 13.8538C13.5613 13.87 15.1355 14.0799 16.6666 14.4788C16.3541 15.9372 16.1458 17.4997 15.9374 19.1663C14.3585 20.2721 12.8615 21.4906 11.4583 22.8122C8.2291 19.2705 7.18743 16.2497 7.81243 15.1038ZM11.9791 36.1455C9.89577 36.1455 8.33327 35.6247 7.81243 34.8955C7.2916 34.1663 8.2291 30.7288 11.4583 27.1872C12.8615 28.5088 14.3585 29.7272 15.9374 30.833C16.1458 32.4997 16.3541 34.0622 16.6666 35.5205C15.1355 35.9195 13.5613 36.1294 11.9791 36.1455ZM24.9999 44.7913C23.8541 44.7913 21.8749 42.3955 20.4166 37.708C21.9765 37.245 23.507 36.6884 24.9999 36.0413C26.4929 36.6884 28.0234 37.245 29.5833 37.708C28.1249 42.3955 26.1458 44.7913 24.9999 44.7913ZM42.1874 34.8955C41.6666 35.6247 40.1041 36.1455 38.0208 36.1455C36.4386 36.1294 34.8644 35.9195 33.3333 35.5205C33.6458 34.0622 33.8541 32.4997 34.0624 30.833C35.6414 29.7272 37.1383 28.5088 38.5416 27.1872C41.7708 30.7288 42.8124 33.7497 42.1874 34.8955ZM38.5416 22.8122C37.1383 21.4906 35.6414 20.2721 34.0624 19.1663C33.8541 17.4997 33.6458 15.9372 33.3333 14.4788C34.8644 14.0799 36.4386 13.87 38.0208 13.8538C40.1041 13.8538 41.6666 14.3747 42.1874 15.1038C42.7083 15.833 41.7708 19.2705 38.5416 22.8122Z" fill="white"/>
<path d="M25 28.125C26.7259 28.125 28.125 26.7259 28.125 25C28.125 23.2741 26.7259 21.875 25 21.875C23.2741 21.875 21.875 23.2741 21.875 25C21.875 26.7259 23.2741 28.125 25 28.125Z" fill="white"/>
</g>
<defs>
<clipPath id="clip0_428_3746">
<rect width="50" height="50" fill="white"/>
</clipPath>
</defs>
</svg>
