<svg xmlns="http://www.w3.org/2000/svg" xmlns:xlink="http://www.w3.org/1999/xlink" viewBox="0 0 273.33 271.03"><defs><style>.cls-1{isolation:isolate;}.cls-2,.cls-33,.cls-41,.cls-64{mix-blend-mode:multiply;}.cls-2,.cls-41{opacity:0.31;}.cls-2{fill:url(#linear-gradient);}.cls-3{fill:url(#linear-gradient-2);}.cls-4{fill:#fff;}.cls-5{fill:url(#linear-gradient-3);}.cls-6{fill:url(#linear-gradient-4);}.cls-7{fill:url(#linear-gradient-5);}.cls-8{fill:url(#linear-gradient-6);}.cls-9{fill:url(#linear-gradient-7);}.cls-10{fill:url(#linear-gradient-8);}.cls-11{fill:url(#linear-gradient-9);}.cls-12{fill:url(#linear-gradient-10);}.cls-13{fill:url(#linear-gradient-11);}.cls-14{fill:url(#linear-gradient-12);}.cls-15{fill:url(#linear-gradient-13);}.cls-16{fill:url(#linear-gradient-14);}.cls-17{fill:url(#linear-gradient-15);}.cls-18{fill:url(#linear-gradient-16);}.cls-19{fill:url(#linear-gradient-17);}.cls-20{fill:url(#linear-gradient-18);}.cls-21{fill:url(#linear-gradient-19);}.cls-22{fill:url(#linear-gradient-20);}.cls-23{fill:url(#linear-gradient-21);}.cls-24{fill:url(#linear-gradient-22);}.cls-25{fill:url(#linear-gradient-23);}.cls-26{fill:url(#linear-gradient-24);}.cls-27{fill:url(#linear-gradient-25);}.cls-28{fill:url(#linear-gradient-26);}.cls-29{fill:url(#linear-gradient-27);}.cls-30{fill:url(#linear-gradient-28);}.cls-31{fill:url(#linear-gradient-29);}.cls-32{fill:url(#linear-gradient-30);}.cls-33{fill:url(#linear-gradient-31);}.cls-34{fill:url(#linear-gradient-32);}.cls-35{fill:url(#linear-gradient-33);}.cls-36{fill:url(#linear-gradient-34);}.cls-37{fill:url(#linear-gradient-35);}.cls-38{fill:url(#linear-gradient-36);}.cls-39{fill:url(#linear-gradient-37);}.cls-40{fill:url(#linear-gradient-38);}.cls-41{fill:url(#linear-gradient-39);}.cls-42{fill:url(#linear-gradient-40);}.cls-43{fill:url(#linear-gradient-41);}.cls-44{fill:url(#linear-gradient-42);}.cls-45{fill:url(#linear-gradient-43);}.cls-46{fill:url(#linear-gradient-44);}.cls-47{fill:url(#linear-gradient-45);}.cls-48{fill:url(#linear-gradient-46);}.cls-49{fill:url(#linear-gradient-47);}.cls-50{fill:url(#linear-gradient-48);}.cls-51{fill:url(#linear-gradient-49);}.cls-52{fill:url(#linear-gradient-50);}.cls-53{fill:url(#linear-gradient-51);}.cls-54{fill:url(#linear-gradient-52);}.cls-55{fill:url(#linear-gradient-53);}.cls-56{fill:url(#linear-gradient-54);}.cls-57{fill:url(#linear-gradient-55);}.cls-58{fill:url(#linear-gradient-56);}.cls-59{fill:url(#linear-gradient-57);}.cls-60{fill:url(#linear-gradient-58);}.cls-61{fill:url(#linear-gradient-59);}.cls-62{fill:url(#linear-gradient-60);}.cls-63{fill:url(#linear-gradient-61);}.cls-64{fill:url(#linear-gradient-62);}.cls-65{fill:url(#linear-gradient-63);}.cls-66{fill:url(#linear-gradient-64);}</style><linearGradient id="linear-gradient" x1="136.66" y1="293.81" x2="136.66" y2="223.18" gradientUnits="userSpaceOnUse"><stop offset="0" stop-color="#d18afc"/><stop offset="0.04" stop-color="#c483fb"/><stop offset="0.17" stop-color="#a16ff9"/><stop offset="0.3" stop-color="#845ff7"/><stop offset="0.44" stop-color="#6d53f5"/><stop offset="0.59" stop-color="#5d4af4"/><stop offset="0.77" stop-color="#5445f3"/><stop offset="1" stop-color="#5143f3"/></linearGradient><linearGradient id="linear-gradient-2" x1="58.46" y1="53.34" x2="71.41" y2="94.45" xlink:href="#linear-gradient"/><linearGradient id="linear-gradient-3" x1="72.39" y1="48.96" x2="85.34" y2="90.07" xlink:href="#linear-gradient"/><linearGradient id="linear-gradient-4" x1="-1443.77" y1="4.58" x2="-1430.82" y2="45.69" gradientTransform="matrix(-1, 0, 0, 1, -1225.28, 0)" xlink:href="#linear-gradient"/><linearGradient id="linear-gradient-5" x1="-1429.85" y1="0.2" x2="-1416.9" y2="41.3" gradientTransform="matrix(-1, 0, 0, 1, -1225.28, 0)" xlink:href="#linear-gradient"/><linearGradient id="linear-gradient-6" x1="-2157.32" y1="1289.47" x2="-2147.26" y2="1289.47" gradientTransform="matrix(-0.89, 0.45, 0.45, 0.89, -2374.45, -154.86)" gradientUnits="userSpaceOnUse"><stop offset="0" stop-color="#a1affe"/><stop offset="1" stop-color="#c8d1ff"/></linearGradient><linearGradient id="linear-gradient-7" x1="-2165.59" y1="1268.38" x2="-2128.94" y2="1268.38" xlink:href="#linear-gradient-6"/><linearGradient id="linear-gradient-8" x1="-1559.15" y1="182.25" x2="-1559.15" y2="122.98" gradientTransform="matrix(-1, 0, 0, 1, -1350.63, 0)" gradientUnits="userSpaceOnUse"><stop offset="0" stop-color="#07154b"/><stop offset="0.26" stop-color="#0c174e"/><stop offset="0.58" stop-color="#1b1d57"/><stop offset="0.93" stop-color="#332767"/><stop offset="1" stop-color="#39296a"/></linearGradient><linearGradient id="linear-gradient-9" x1="-1540.76" y1="118.24" x2="-1566.34" y2="118.24" gradientTransform="matrix(-1, 0, 0, 1, -1350.63, 0)" gradientUnits="userSpaceOnUse"><stop offset="0" stop-color="#740247"/><stop offset="1" stop-color="#ff4266"/></linearGradient><linearGradient id="linear-gradient-10" x1="7282.92" y1="185.29" x2="7353.65" y2="185.29" gradientTransform="translate(-7144.47)" xlink:href="#linear-gradient-8"/><linearGradient id="linear-gradient-11" x1="7312.66" y1="194.85" x2="7323.91" y2="194.85" gradientTransform="translate(-7144.47)" xlink:href="#linear-gradient-8"/><linearGradient id="linear-gradient-12" x1="7316.05" y1="207.28" x2="7320.52" y2="207.28" gradientTransform="translate(-7144.47)" xlink:href="#linear-gradient-8"/><linearGradient id="linear-gradient-13" x1="7315.42" y1="230.32" x2="7321.15" y2="230.32" gradientTransform="translate(-7144.47)" xlink:href="#linear-gradient-9"/><linearGradient id="linear-gradient-14" x1="7308.13" y1="190.64" x2="7328.43" y2="190.64" gradientTransform="translate(-7144.47)" xlink:href="#linear-gradient-8"/><linearGradient id="linear-gradient-15" x1="-332.39" y1="168.64" x2="-332.39" y2="179.35" gradientTransform="matrix(-1, 0, 0, 1, -158.58, 0)" xlink:href="#linear-gradient-9"/><linearGradient id="linear-gradient-16" x1="7288.01" y1="245.07" x2="7316.67" y2="245.07" gradientTransform="translate(-7144.47)" xlink:href="#linear-gradient-8"/><linearGradient id="linear-gradient-17" x1="7289.12" y1="254.67" x2="7296.19" y2="254.67" gradientTransform="translate(-7144.47)" xlink:href="#linear-gradient-9"/><linearGradient id="linear-gradient-18" x1="7319.89" y1="245.07" x2="7348.56" y2="245.07" gradientTransform="translate(-7144.47)" xlink:href="#linear-gradient-8"/><linearGradient id="linear-gradient-19" x1="7340.38" y1="254.67" x2="7347.45" y2="254.67" gradientTransform="translate(-7144.47)" xlink:href="#linear-gradient-9"/><linearGradient id="linear-gradient-20" x1="-1480.1" y1="88.25" x2="-1493.19" y2="97.95" gradientTransform="matrix(-1, 0, 0, 1, -1350.63, 0)" gradientUnits="userSpaceOnUse"><stop offset="0" stop-color="#071786"/><stop offset="0.15" stop-color="#05136b"/><stop offset="0.32" stop-color="#041055"/><stop offset="0.51" stop-color="#030e45"/><stop offset="0.72" stop-color="#020c3b"/><stop offset="1" stop-color="#020c38"/></linearGradient><linearGradient id="linear-gradient-21" x1="371.75" y1="-1884.65" x2="392.4" y2="-1884.65" gradientTransform="matrix(-0.99, -0.16, -0.16, 0.99, 189.98, 1991.94)" gradientUnits="userSpaceOnUse"><stop offset="0" stop-color="#ffd1c1"/><stop offset="0.49" stop-color="#ffcfbf"/><stop offset="0.66" stop-color="#ffcab8"/><stop offset="0.79" stop-color="#ffc0ad"/><stop offset="0.89" stop-color="#ffb29c"/><stop offset="0.98" stop-color="#ffa086"/><stop offset="1" stop-color="#ff9a7f"/></linearGradient><linearGradient id="linear-gradient-22" x1="380.51" y1="-1856.95" x2="346.97" y2="-1856.95" gradientTransform="matrix(-0.99, -0.16, -0.16, 0.99, 189.98, 1991.94)" gradientUnits="userSpaceOnUse"><stop offset="0" stop-color="#f9fbfc"/><stop offset="0.29" stop-color="#f1f6fd"/><stop offset="0.73" stop-color="#dde6fe"/><stop offset="1" stop-color="#cddbff"/></linearGradient><linearGradient id="linear-gradient-23" x1="-1481.29" y1="110.97" x2="-1460.87" y2="83.95" xlink:href="#linear-gradient-8"/><linearGradient id="linear-gradient-24" x1="-1440.72" y1="252.07" x2="-1440.72" y2="218.12" gradientTransform="matrix(-1, 0, 0, 1, -1350.63, 0)" gradientUnits="userSpaceOnUse"><stop offset="0" stop-color="#ffd1c1"/><stop offset="0.28" stop-color="#ffcebe"/><stop offset="0.51" stop-color="#ffc6b4"/><stop offset="0.72" stop-color="#ffb8a2"/><stop offset="0.92" stop-color="#ffa48b"/><stop offset="1" stop-color="#ff9a7f"/></linearGradient><linearGradient id="linear-gradient-25" x1="-1463.36" y1="241.56" x2="-1418.61" y2="241.56" xlink:href="#linear-gradient-8"/><linearGradient id="linear-gradient-26" x1="-1812.04" y1="3570.62" x2="-1841.42" y2="3529.46" gradientTransform="matrix(-0.81, 0.58, 0.58, 0.81, -3389.45, -1594.75)" xlink:href="#linear-gradient-24"/><linearGradient id="linear-gradient-27" x1="-1844.1" y1="3553.15" x2="-1799.35" y2="3553.15" gradientTransform="matrix(-0.81, 0.58, 0.58, 0.81, -3389.45, -1594.75)" xlink:href="#linear-gradient-8"/><linearGradient id="linear-gradient-28" x1="-1460.93" y1="125.44" x2="-1530.57" y2="165.65" gradientTransform="matrix(-1, 0, 0, 1, -1350.63, 0)" gradientUnits="userSpaceOnUse"><stop offset="0" stop-color="#2a1200"/><stop offset="0.23" stop-color="#2f1600"/><stop offset="0.51" stop-color="#3e2000"/><stop offset="0.81" stop-color="#563000"/><stop offset="1" stop-color="#6a3e00"/></linearGradient><linearGradient id="linear-gradient-29" x1="-1458.74" y1="140.16" x2="-1458.74" y2="226.76" xlink:href="#linear-gradient-28"/><linearGradient id="linear-gradient-30" x1="-1503.11" y1="172.28" x2="-1503.11" y2="135.53" xlink:href="#linear-gradient-28"/><linearGradient id="linear-gradient-31" x1="-1525.56" y1="134.04" x2="-1517.5" y2="147.23" gradientTransform="matrix(-1, 0, 0, 1, -1350.63, 0)" gradientUnits="userSpaceOnUse"><stop offset="0" stop-color="#2a1200"/><stop offset="0.29" stop-color="#321700" stop-opacity="0.88"/><stop offset="0.65" stop-color="#482700" stop-opacity="0.53"/><stop offset="1" stop-color="#6a3e00" stop-opacity="0"/></linearGradient><linearGradient id="linear-gradient-32" x1="-1519.98" y1="139.22" x2="-1519.98" y2="60.2" gradientTransform="matrix(-1, 0, 0, 1, -1350.63, 0)" gradientUnits="userSpaceOnUse"><stop offset="0" stop-color="#ffd1c1"/><stop offset="0.22" stop-color="#fcb"/><stop offset="0.51" stop-color="#ffbeab"/><stop offset="0.83" stop-color="#ffa890"/><stop offset="1" stop-color="#ff9a7f"/></linearGradient><linearGradient id="linear-gradient-33" x1="-1489.94" y1="120.55" x2="-1552.92" y2="84.19" gradientTransform="matrix(-1, 0, 0, 1, -1350.63, 0)" xlink:href="#linear-gradient-22"/><linearGradient id="linear-gradient-34" x1="-1483.85" y1="109.99" x2="-1546.83" y2="73.63" xlink:href="#linear-gradient-8"/><linearGradient id="linear-gradient-35" x1="-1518.07" y1="40.73" x2="-1518.07" y2="65.95" gradientTransform="matrix(-1, 0, 0, 1, -1350.63, 0)" gradientUnits="userSpaceOnUse"><stop offset="0" stop-color="#ffd1c1"/><stop offset="0.29" stop-color="#ffcebe"/><stop offset="0.51" stop-color="#ffc6b4"/><stop offset="0.72" stop-color="#ffb8a3"/><stop offset="0.92" stop-color="#ffa58c"/><stop offset="1" stop-color="#ff9a7f"/></linearGradient><linearGradient id="linear-gradient-36" x1="-2561.08" y1="72.35" x2="-2561.08" y2="54.84" gradientTransform="matrix(-1, 0, 0, 1, -2390.23, 0)" gradientUnits="userSpaceOnUse"><stop offset="0" stop-color="#f9fbfc"/><stop offset="0.31" stop-color="#f0f5fd"/><stop offset="0.8" stop-color="#d8e3fe"/><stop offset="1" stop-color="#cddbff"/></linearGradient><linearGradient id="linear-gradient-37" x1="-1557.85" y1="120.46" x2="-1516.1" y2="92.23" xlink:href="#linear-gradient-8"/><linearGradient id="linear-gradient-38" x1="-1498.18" y1="96.03" x2="-1535.78" y2="74.32" gradientTransform="matrix(-1, 0, 0, 1, -1350.63, 0)" gradientUnits="userSpaceOnUse"><stop offset="0" stop-color="#071786"/><stop offset="0.2" stop-color="#07167e"/><stop offset="0.5" stop-color="#051369"/><stop offset="0.86" stop-color="#030e47"/><stop offset="1" stop-color="#020c38"/></linearGradient><linearGradient id="linear-gradient-39" x1="-1541.49" y1="105.11" x2="-1522.99" y2="98.88" xlink:href="#linear-gradient-8"/><linearGradient id="linear-gradient-40" x1="-1511.63" y1="78.15" x2="-1511.63" y2="67.63" gradientTransform="matrix(-1, 0, 0, 1, -1350.63, 0)" gradientUnits="userSpaceOnUse"><stop offset="0" stop-color="#071786"/><stop offset="0.2" stop-color="#071681"/><stop offset="0.45" stop-color="#061472"/><stop offset="0.72" stop-color="#04115a"/><stop offset="1" stop-color="#020c38"/></linearGradient><linearGradient id="linear-gradient-41" x1="-1497.63" y1="107.02" x2="-1522.27" y2="92.79" xlink:href="#linear-gradient-38"/><linearGradient id="linear-gradient-42" x1="-1524.39" y1="39.86" x2="-1497.43" y2="39.86" gradientTransform="matrix(-1, 0, 0, 1, -1350.63, 0)" xlink:href="#linear-gradient-21"/><linearGradient id="linear-gradient-43" x1="-1489.81" y1="47.27" x2="-1506.66" y2="35.63" gradientTransform="matrix(-1, 0, 0, 1, -1350.63, 0)" gradientUnits="userSpaceOnUse"><stop offset="0" stop-color="#eea281"/><stop offset="0.25" stop-color="#ee9c7b"/><stop offset="0.58" stop-color="#ed8a6c"/><stop offset="0.97" stop-color="#ec6e52"/><stop offset="1" stop-color="#ec6b50"/></linearGradient><linearGradient id="linear-gradient-44" x1="-1535.68" y1="27.92" x2="-1489.73" y2="27.92" xlink:href="#linear-gradient-20"/><linearGradient id="linear-gradient-45" x1="174.04" y1="9.33" x2="170.91" y2="26.55" xlink:href="#linear-gradient"/><linearGradient id="linear-gradient-46" x1="-1522.06" y1="35.27" x2="-1528.38" y2="38.92" gradientTransform="matrix(-1, 0, 0, 1, -1350.63, 0)" gradientUnits="userSpaceOnUse"><stop offset="0" stop-color="#ffd1c1"/><stop offset="0.23" stop-color="#ffcdbc"/><stop offset="0.49" stop-color="#ffc1ae"/><stop offset="0.78" stop-color="#ffad96"/><stop offset="1" stop-color="#ff9a7f"/></linearGradient><linearGradient id="linear-gradient-47" x1="-1539.34" y1="101.31" x2="-1520.84" y2="95.08" xlink:href="#linear-gradient-8"/><linearGradient id="linear-gradient-48" x1="-1499.48" y1="71.16" x2="-1476.87" y2="71.16" gradientTransform="matrix(-1, 0, 0, 1, -1350.63, 0)" xlink:href="#linear-gradient-21"/><linearGradient id="linear-gradient-49" x1="-1488.87" y1="101.89" x2="-1529.59" y2="101.89" gradientTransform="matrix(-1, 0, 0, 1, -1350.63, 0)" xlink:href="#linear-gradient-22"/><linearGradient id="linear-gradient-50" x1="-1510.14" y1="118.48" x2="-1509.04" y2="78.45" xlink:href="#linear-gradient-8"/><linearGradient id="linear-gradient-51" x1="-1494.56" y1="217.09" x2="-1472.94" y2="118.35" xlink:href="#linear-gradient-28"/><linearGradient id="linear-gradient-52" x1="-2548.6" y1="70.48" x2="-2548.6" y2="55.77" gradientTransform="matrix(-1, 0, 0, 1, -2390.23, 0)" gradientUnits="userSpaceOnUse"><stop offset="0" stop-color="#e7e6ff"/><stop offset="0.34" stop-color="#c9d2f8"/><stop offset="0.76" stop-color="#aabdf1"/><stop offset="1" stop-color="#9eb5ee"/></linearGradient><linearGradient id="linear-gradient-53" x1="-2553.05" y1="70.48" x2="-2553.05" y2="65.98" xlink:href="#linear-gradient-52"/><linearGradient id="linear-gradient-54" x1="-1602.43" y1="199.99" x2="-1590.32" y2="199.99" xlink:href="#linear-gradient-8"/><linearGradient id="linear-gradient-55" x1="-1391.27" y1="199.99" x2="-1379.16" y2="199.99" xlink:href="#linear-gradient-8"/><linearGradient id="linear-gradient-56" x1="-1490.79" y1="166.62" x2="-1490.79" y2="85.29" gradientTransform="matrix(-1, 0, 0, 1, -1350.63, 0)" gradientUnits="userSpaceOnUse"><stop offset="0.08" stop-color="#740247"/><stop offset="0.44" stop-color="#ff4266"/></linearGradient><linearGradient id="linear-gradient-57" x1="-1490.79" y1="127.97" x2="-1490.79" y2="138.69" gradientTransform="matrix(1, 0, 0, -1, 1630.96, 270.5)" xlink:href="#linear-gradient-9"/><linearGradient id="linear-gradient-58" x1="-1432.61" y1="154.12" x2="-1477.68" y2="73.89" gradientTransform="matrix(-1, 0, 0, 1, -1350.63, 0)" gradientUnits="userSpaceOnUse"><stop offset="0" stop-color="#1d262d"/><stop offset="0.14" stop-color="#222b32"/><stop offset="0.3" stop-color="#303941"/><stop offset="0.49" stop-color="#47505a"/><stop offset="0.68" stop-color="#67717c"/><stop offset="0.88" stop-color="#8f9aa7"/><stop offset="1" stop-color="#acb7c6"/></linearGradient><linearGradient id="linear-gradient-59" x1="-1421.48" y1="125.22" x2="-1515.27" y2="55.97" xlink:href="#linear-gradient-58"/><linearGradient id="linear-gradient-60" x1="150.77" y1="45.67" x2="174.76" y2="45.67" gradientTransform="matrix(1, 0, 0, 1, 0, 0)" xlink:href="#linear-gradient-43"/><linearGradient id="linear-gradient-61" x1="150.77" y1="44.69" x2="174.76" y2="44.69" xlink:href="#linear-gradient"/><linearGradient id="linear-gradient-62" x1="165.8" y1="49.15" x2="171.62" y2="41.19" xlink:href="#linear-gradient"/><linearGradient id="linear-gradient-63" x1="168.68" y1="-65.09" x2="156.17" y2="-70.77" gradientTransform="translate(10.96 86.24) rotate(7.78)" xlink:href="#linear-gradient-9"/><linearGradient id="linear-gradient-64" x1="170.97" y1="34.43" x2="180.72" y2="40.72" gradientTransform="matrix(1, 0, 0, 1, 0, 0)" xlink:href="#linear-gradient-9"/></defs><g class="cls-1"><g id="Layer_2" data-name="Layer 2"><g id="OBJECTS"><ellipse class="cls-2" cx="136.66" cy="260.02" rx="136.66" ry="11.02"/><rect class="cls-3" x="36.79" y="50.58" width="49.05" height="23.66" rx="1.66"/><rect class="cls-4" x="41.3" y="55.63" width="31.78" height="1.16"/><rect class="cls-4" x="41.3" y="59.76" width="40.05" height="1.16"/><rect class="cls-4" x="41.3" y="63.9" width="40.05" height="1.16"/><rect class="cls-4" x="41.3" y="68.03" width="40.05" height="1.16"/><polygon class="cls-5" points="77.5 74.24 83.2 74.24 83.2 81.38 77.5 74.24"/><rect class="cls-6" x="191.11" y="1.82" width="49.05" height="23.66" rx="1.66"/><rect class="cls-4" x="195.61" y="6.87" width="31.78" height="1.16"/><rect class="cls-4" x="195.61" y="11" width="40.05" height="1.16"/><rect class="cls-4" x="195.61" y="15.13" width="40.05" height="1.16"/><rect class="cls-4" x="195.61" y="19.27" width="40.05" height="1.16"/><polygon class="cls-7" points="199.46 25.48 193.75 25.48 193.75 32.62 199.46 25.48"/><polygon class="cls-8" points="121.78 34.72 127.76 26.93 135.17 39 121.78 34.72"/><path class="cls-9" d="M105.37,1.94A18.33,18.33,0,1,0,130,10.13,18.33,18.33,0,0,0,105.37,1.94Z"/><path class="cls-4" d="M102.89,11.59l-.82,1.63a.77.77,0,0,0,.35,1l1.37.69a6.29,6.29,0,0,0-.1,1.29l-1.45.49a.77.77,0,0,0-.49,1l.58,1.73a.76.76,0,0,0,1,.48l1.45-.48a6.64,6.64,0,0,0,.86,1l-.69,1.37a.77.77,0,0,0,.34,1l1.63.82a.77.77,0,0,0,1-.34l.69-1.38a6.33,6.33,0,0,0,1.3.1l.48,1.45a.77.77,0,0,0,1,.49l1.73-.58a.76.76,0,0,0,.48-1l-.48-1.45a6.16,6.16,0,0,0,1-.86l1.37.69a.76.76,0,0,0,1-.34l.82-1.63a.77.77,0,0,0-.34-1l-1.38-.69a5.62,5.62,0,0,0,.1-1.29l1.45-.49a.77.77,0,0,0,.49-1L117,12.6a.76.76,0,0,0-1-.48l-1.45.48a6.1,6.1,0,0,0-.86-1l.69-1.37a.77.77,0,0,0-.34-1l-1.63-.82a.77.77,0,0,0-1,.34l-.69,1.38a6.24,6.24,0,0,0-1.29-.1L109,8.57a.77.77,0,0,0-1-.49l-1.73.58a.76.76,0,0,0-.48,1l.48,1.45a6.64,6.64,0,0,0-1,.86l-1.37-.69A.77.77,0,0,0,102.89,11.59Zm3.92,3a3.22,3.22,0,1,1,1.43,4.31A3.21,3.21,0,0,1,106.81,14.57Z"/><path class="cls-4" d="M115.9,21.66l-.52,1.05a.5.5,0,0,0,.22.67l.89.44a3.4,3.4,0,0,0-.06.84l-.94.31a.51.51,0,0,0-.32.63l.37,1.12a.5.5,0,0,0,.63.31l.94-.31a3.66,3.66,0,0,0,.55.63l-.44.89a.48.48,0,0,0,.22.66l1,.53a.5.5,0,0,0,.66-.22l.45-.89a4,4,0,0,0,.84.06l.31.94a.5.5,0,0,0,.63.31l1.11-.37a.48.48,0,0,0,.31-.62l-.31-.94a4.77,4.77,0,0,0,.64-.55l.88.44a.51.51,0,0,0,.67-.22l.52-1.05a.49.49,0,0,0-.22-.67l-.88-.44a4,4,0,0,0,.06-.84l.94-.31a.5.5,0,0,0,.31-.63L125,22.32a.51.51,0,0,0-.63-.32l-.94.31a4.07,4.07,0,0,0-.55-.63l.45-.89a.49.49,0,0,0-.23-.66l-1-.53a.5.5,0,0,0-.66.22l-.45.89a3.91,3.91,0,0,0-.83-.06l-.32-.94a.48.48,0,0,0-.62-.31l-1.12.37a.48.48,0,0,0-.31.62l.31.94a3.72,3.72,0,0,0-.63.56l-.89-.45A.51.51,0,0,0,115.9,21.66Zm2.54,1.93a2.07,2.07,0,1,1,.92,2.78A2.07,2.07,0,0,1,118.44,23.59Z"/><path class="cls-10" d="M200,176.94c6.22-.76,10.26-3.27,12-7.47,4.91-11.7-7.32-34.95-12.45-42.92l-.09-.14a1.14,1.14,0,0,1,.27-1.52l2.25-1.68a1.14,1.14,0,0,1,1.63.29h0c.82,1.28,20,31.34,12.9,48.17-2.53,6-7.91,9.59-16,10.57h0a1.13,1.13,0,0,1-1.27-1l-.32-3.06a1.14,1.14,0,0,1,1-1.24Z"/><path class="cls-11" d="M179.82,145.49h27.41c7.58,0,13.72-8.4,13.72-18.77v-17C221,99.39,214.81,91,207.23,91H179.82c-7.58,0-13.72,8.41-13.72,18.77v17C166.1,137.09,172.24,145.49,179.82,145.49Z"/><rect class="cls-12" x="138.45" y="182.38" width="70.72" height="5.81"/><rect class="cls-13" x="168.18" y="193.09" width="11.25" height="3.52"/><rect class="cls-14" x="171.57" y="196.61" width="4.47" height="21.34"/><rect class="cls-15" x="170.94" y="217.95" width="5.74" height="24.74"/><polygon class="cls-16" points="176.73 188.2 170.88 188.2 163.66 188.2 166.59 193.09 170.88 193.09 176.73 193.09 181.02 193.09 183.96 188.2 176.73 188.2"/><path class="cls-17" d="M170.3,162.29h.1c.23,0,.47,0,.71,0l1.27,0h2.86l1.27,0,.71,0h.09c11.63.58,35.1,3.65,30.68,20.09H139.63C135.21,165.94,158.68,162.87,170.3,162.29Z"/><path class="cls-18" d="M172.2,235.72c-10.37,4.48-25.08,11.35-27,13.69a7.38,7.38,0,0,0-1.62,5l28.66-13Z"/><path class="cls-19" d="M151.72,254.67a3.54,3.54,0,1,1-3.54-3.53A3.54,3.54,0,0,1,151.72,254.67Z"/><path class="cls-20" d="M175.42,241.39l28.66,13a7.43,7.43,0,0,0-1.62-5c-2-2.34-16.68-9.21-27-13.69Z"/><path class="cls-21" d="M195.9,254.67a3.54,3.54,0,1,0,3.54-3.53A3.53,3.53,0,0,0,195.9,254.67Z"/><path class="cls-22" d="M136.87,125.17a23.81,23.81,0,0,0,5-5.07,71.52,71.52,0,0,0,8.42-17.74,97.55,97.55,0,0,0,3.85-15.59c.74-4.64,4.13-20-5.82-18.56a8.05,8.05,0,0,0-5.46,4.07c-5.35,8.62-13.45,52.3-13.45,52.3Z"/><path class="cls-23" d="M112.15,67.89l-10-12.12s-1.56,1.88-1.08,3.55-.16,3,.06,4.49-.87,5.27.14,7.68,4.85,3.63,6,5.88,3.19,7.17,3.19,7.17l8-4.24-3.14-6.51s1.47-8.06-2.59-12.68Z"/><path class="cls-24" d="M129.38,124.58s10.84-4.78,8.16-12.39-20.26-34.94-20.26-34.94l-8.11,5.49S121,120.87,129.38,124.58Z"/><path class="cls-25" d="M131.16,126.32s10.85-4.78,8.16-12.4S120,78.36,120,78.36l-11.44,7.43S120.56,125.17,131.16,126.32Z"/><path class="cls-26" d="M70.4,244.71l.12-.11a9.47,9.47,0,0,1,1.61-1l-.62.22.64-.22A17.82,17.82,0,0,1,76,242.14l1.27-.33,4.26-1.4.23-.1c.87-.62,10-6.7,13.87-10L96,230a66.82,66.82,0,0,0,.62-11.85l13.82-.06s-2,8.3-1.73,12.71a9.33,9.33,0,0,0,.73,1.72c.17.3.35.59.51.9s.34.62.48.94a28,28,0,0,1,1.33,3,14.49,14.49,0,0,1,.46,3.65c0,.41,0,.81,0,1.22a4.68,4.68,0,0,1-.5,2.31,4.9,4.9,0,0,1-3,1.95c-2.42.72-5,1-7.4,1.58-4.51,1.11-9.08,2.88-13.76,3.62-5.18.82-10.39-.1-15.59-.26-1.37,0-3.47-.51-3.86-2.06S69.32,245.65,70.4,244.71Z"/><path class="cls-27" d="M68,248.8a2.14,2.14,0,0,0,.06.62,3,3,0,0,0,2.44,1.88,7.46,7.46,0,0,0,1.42.18c2.6.08,5.2.35,7.8.5,1,.05,2,.09,2.93.09.35,0,.69,0,1,0,.63,0,1.25,0,1.88-.09l1-.1,1-.13c1.17-.19,2.34-.44,3.49-.72,1.45-.36,2.88-.78,4.31-1.21,2-.59,4-1.2,6-1.69.61-.15,1.23-.28,1.85-.4l1.86-.34c1.24-.24,3-.48,4.22-.84a6.91,6.91,0,0,0,2.12-1,2.54,2.54,0,0,0,.36-.29,3.23,3.23,0,0,0,.57-.7,3.51,3.51,0,0,0,.33-.83l.06-.29a7.86,7.86,0,0,0,.11-1.19c0-.45,0-1.2-.06-2,0-.17,0-.35,0-.52,0-.33-.07-.65-.11-1s-.07-.48-.12-.72-.13-.61-.21-.89-.09-.31-.14-.45c-.32-.85-.85-1.6-1.22-2.42a6.88,6.88,0,0,1-.56-1.12c-4.55,2.85-13,2.26-16-2.1-4.79,3.71-11.8,8.78-12.49,9.27l-.1,0-.13.06-4.26,1.4-1.27.33-.92.26-.15,0c-.31.09-.61.18-.9.29a13.27,13.27,0,0,0-1.89.81l-.64.22.62-.22c-.21.12-.43.24-.63.37l-.26.16-.21.14-.5.38-.13.11-.21.19,0,0-.31.31a9.63,9.63,0,0,0-1,1.28c-.07.1-.13.21-.2.32a6.82,6.82,0,0,0-.34.66,5.75,5.75,0,0,0-.23.66,2.78,2.78,0,0,0-.11.63Zm13.56-8.39h0a18.68,18.68,0,0,1-3.07,1.09l-.09,0c-.34.1-.69.19-1,.27Z"/><path class="cls-28" d="M143.58,252.72c0-.06,0-.11,0-.16a9.21,9.21,0,0,1,.69-1.79l-.38.53.39-.55a18.48,18.48,0,0,1,2.33-3.38l.84-1,2.66-3.62a2.39,2.39,0,0,1,.13-.21c.34-1,4.27-11.28,5.48-16.19,0-.13.06-.28.09-.42a67.47,67.47,0,0,0-6.38-10l11.22-8.08s3.18,7.91,6,11.35a8.51,8.51,0,0,0,1.6,1l.94.44a10.46,10.46,0,0,1,.94.49,28.86,28.86,0,0,1,2.83,1.68,14.61,14.61,0,0,1,2.5,2.71c.25.32.49.65.72,1a4.71,4.71,0,0,1,.93,2.17,5,5,0,0,1-1.34,3.36c-1.55,2-3.46,3.67-5.1,5.59-3,3.52-5.72,7.61-9.1,10.93-3.74,3.68-8.51,6-12.84,8.85-1.14.77-3.13,1.6-4.34.57S143.25,254.11,143.58,252.72Z"/><path class="cls-29" d="M144,257.45a2.07,2.07,0,0,0,.41.47,3,3,0,0,0,3.07.11,6.57,6.57,0,0,0,1.27-.68c2.16-1.44,4.44-2.73,6.64-4.13.83-.52,1.64-1.06,2.44-1.62l.84-.61q.75-.57,1.47-1.17l.74-.64.71-.68c.85-.83,1.65-1.71,2.42-2.61,1-1.13,1.9-2.31,2.81-3.49,1.28-1.64,2.54-3.29,3.87-4.83.41-.48.84-.95,1.27-1.4s.88-.91,1.31-1.37c.88-.91,2.18-2.14,3-3.13a6.91,6.91,0,0,0,1.17-2,4.16,4.16,0,0,0,.12-.44,3.08,3.08,0,0,0,.06-.91,3.6,3.6,0,0,0-.21-.86l-.12-.27a6.74,6.74,0,0,0-.61-1c-.25-.36-.69-1-1.23-1.63l-.33-.4-.66-.73c-.17-.18-.34-.35-.52-.51s-.46-.43-.69-.61a3.37,3.37,0,0,0-.38-.28c-.75-.51-1.61-.81-2.39-1.26a7.17,7.17,0,0,1-1.11-.59c-2.05,5-9.29,9.42-14.25,7.6-1.74,5.8-4.5,14-4.77,14.8a.24.24,0,0,0-.06.09.75.75,0,0,0-.07.12l-2.66,3.62-.84,1-.6.74-.1.12c-.19.25-.38.51-.56.77a13.65,13.65,0,0,0-1.07,1.75l-.39.55.38-.53c-.11.21-.21.44-.3.66l-.12.28a2.25,2.25,0,0,0-.08.24c-.07.2-.14.4-.19.6l0,.17a2.33,2.33,0,0,0-.05.28h0c0,.14-.05.29-.07.44a9.44,9.44,0,0,0-.07,1.62c0,.13,0,.25,0,.38s.06.49.11.73a4.5,4.5,0,0,0,.19.68,3,3,0,0,0,.28.57Zm6.16-14.7h0a19.62,19.62,0,0,1-1.86,2.67l-.06.07-.68.81Z"/><path class="cls-30" d="M101.29,141.05c13.28-4.38,27.51-5.85,41.39-7,6.9-.55,14.93-1.76,21.84-2.33,15.26-1.26,27.1-5.64,24.76,10.16-.85,5.75-2.08,12-5.54,17-3.76,5.34-10.29,7.65-16.52,8.73-7,1.22-14.28,1-21.39.79a93.72,93.72,0,0,1-18.59-2.25c-7.66-1.83-15.29-3.82-22.82-6.12C95,150.53,101.29,141.05,101.29,141.05Z"/><path class="cls-31" d="M101.29,141.05s-3.06-.4-3.55,7.79-2.08,74.72-2.08,74.72l15.15,3.2s14.65-47.29,8-76.33C118.83,150.43,112.86,136.57,101.29,141.05Z"/><path class="cls-32" d="M109.54,146l.31-.3c2.33-2.12,5.91-2.7,8.9-3.19,21.58-3.55,44.47-5.11,66.28-6.66,3.65-.26,7.4-1.12,9.88,2.08,2,2.52,2.41,6,2.51,9.09a24.75,24.75,0,0,1-1.49,10.33,20.77,20.77,0,0,1-8.4,9.21c-8.41,5.23-18.81,6.06-28.7,5.65a141.21,141.21,0,0,1-30-4.54c-7.43-2-17.14-4.13-20.41-12.12C107.14,152.33,107,148.7,109.54,146Z"/><path class="cls-33" d="M189.07,165.5c-15.94-12.1-34.19-19.9-53.29-25.4,16.36-2,33.1-3.12,49.25-4.27,3.65-.26,7.4-1.12,9.88,2.08,2,2.52,2.41,6,2.51,9.09a24.75,24.75,0,0,1-1.49,10.33A19.81,19.81,0,0,1,189.07,165.5Z"/><path class="cls-34" d="M190.14,68.46c-3.79-6.38-10.75-8.54-17.83-8.24a52.61,52.61,0,0,0-11.41,2c-3.6,1-8.27,1.81-11,4.43-3.4,3.22-4.09,8-4.38,12.44-.32,4.76-.39,9.52-.26,14.28.24,9.19.88,18.33.56,27.52-.17,4.75-.35,10.33,4.77,12.59,2.67,1.19,5.73,1.26,8.6,1.42a99.05,99.05,0,0,1,14.16,1.64c4.38.87,8.6,2.62,13.11,2.72,3.82.09,7-1.73,7.1-5.8s-2.3-9.17-3-13.36a70.31,70.31,0,0,1-.09-24.34C192.19,86.86,195.12,76.86,190.14,68.46Z"/><path class="cls-35" d="M154,62.19a22.18,22.18,0,0,1,6.48-3l.09,11.27,16.92-12.75c.18-.22,6.32,2.7,7.07,3,15.82,7,12.26,27.9,12.21,41.71l-.06,20.36c0,3.48-.17,7,0,10.46.12,3.12-.74,4.54-3.67,6.2-3.26,1.84-6.53.64-9.84-.34a84.65,84.65,0,0,0-11.76-2.74,139.19,139.19,0,0,0-15.93-1.26c-2.94-.08-5.61.08-7.62-1.19V73.21A22.79,22.79,0,0,0,154,62.19Z"/><path class="cls-36" d="M143.38,73.46c.37-4.95,9.54-11.17,14.59-13.41-1.88,10.49-1.25,21.76-2.86,31.37-2.47,14.66-3.87,28.76-3.21,43.63-2.94-.19-5.34-.93-6.68-4.55a17.17,17.17,0,0,1-.79-6.42C144.84,104.73,142,92.83,143.38,73.46Z"/><path class="cls-37" d="M160.45,47.87l-.12,6.38s-.43,9.48.84,10.81c2.27,2.37,13.45,0,13.45-7.39l-.38-16.94Z"/><polygon class="cls-38" points="178.94 57.8 170.29 72.35 162.76 65.98 175.16 54.84 178.94 57.8"/><path class="cls-39" d="M177.32,56.53c-.5-.15-3.44,4.16-6.47,9.45s-9.3,14.71-9.3,34.65c0,9.14,3.55,37.94,3.55,37.94s25.23,4.38,32.34,19.49c0,0,3.95-2.47,3.13-16.63s-.83-44-.83-57.7S194.7,61.75,177.32,56.53Z"/><path class="cls-40" d="M175.8,58.13l.59,14.21-6.79,3.09L173,84.92s-16.15,27.42-16.1,27.3S171.26,84.7,171.26,84.7l-3.76-9.76,7.73-3.54-.47-11.78Z"/><path class="cls-41" d="M164.67,119.83c3-9.53,11.09-34,16.11-41.26,1.4-2,2.8-10.65,5.57-10.94,11.11-1.19,7.38,22,6.37,27a100.34,100.34,0,0,1-4.89,16.67,76.91,76.91,0,0,1-10.05,18.82,26.09,26.09,0,0,1-5.72,5.27l-7.26-9.88C164.76,123.73,164.71,121.82,164.67,119.83Z"/><polygon class="cls-42" points="156.89 67.63 160.15 78.16 165.1 67.87 161.87 67.78 160.53 70.48 160.57 67.74 156.89 67.63"/><polygon class="cls-43" points="159.54 75.13 161.45 75.13 163.95 119.72 158.59 124.97 153.97 119.09 159.54 75.13"/><path class="cls-44" d="M173.76,26.12l-.71,7.15L172,44.18l-.31,3.07c-9.21,10.17-20.74,9.06-23.59,4.43s.08-27,.08-27Z"/><polygon class="cls-45" points="151.13 34.11 151.37 43.75 145.87 43.89 151.13 34.11"/><path class="cls-46" d="M170.26,27c-7,1.16-27.12,5.47-30.6-8.55s10.09-15.66,16.49-8.33,12.61-5.29,20.93,4.26a7.35,7.35,0,0,1,7.55,5.08C187.5,28.15,174.45,50,174.45,50l-1.73-9.84-1.87-.51Z"/><path class="cls-47" d="M163.94,12s13.17-.82,12.89,9.31S175,35.5,175,35.5l3.41.4s10-25.83-10.41-26.39a4.8,4.8,0,0,0-3.34.83C163.39,11.45,163.94,12,163.94,12Z"/><path class="cls-48" d="M178.59,32.67c1.86,2.78-.67,8.33-6.49,10L173,32.62C173.67,31.24,177.36,30.83,178.59,32.67Z"/><path class="cls-49" d="M170.88,128.75a26.34,26.34,0,0,0,5.72-5.27,76.67,76.67,0,0,0,10.05-18.81A102.58,102.58,0,0,0,191.54,88c1-5,5.39-21.45-5.72-20.26a8.92,8.92,0,0,0-6.22,4.18c-6.29,9.09-17.33,45.13-17.33,45.13Z"/><path class="cls-50" d="M140,67.68,127.08,56.53s-1.4,2.3-.6,4,.3,3.19.8,4.79-.1,5.79,1.4,8.19,5.89,3,7.49,5.19,4.65,7.09,4.65,7.09l8-6-4.5-6.39s.3-8.89-4.89-13.08Z"/><path class="cls-51" d="M170.93,128.77s11.33-7.25,7.06-15.08S161.86,96.24,146.4,75l-8.16,7.51S161,126.26,170.93,128.77Z"/><path class="cls-52" d="M171.24,128.52s12-6.94,7.71-14.77-13.2-15.73-28.67-37L138.24,87S161.27,126,171.24,128.52Z"/><path class="cls-53" d="M108.35,150.05a5.05,5.05,0,0,0-.55,1.35c-.58,2.42,1.13,5.23,2.33,7.18,4.31,7,41.28,62.32,41.28,62.32l14.23-6.1c-2.13-6.6-4.72-13.07-7.44-19.44-5.41-12.66-11.67-25.18-19.87-36.29-5.12-6.94-10.65-14.44-20.15-14.16C114.5,145,110.29,146.75,108.35,150.05Z"/><path class="cls-54" d="M160.53,70.48l-4.38-3.43,4.11-11.28S160.74,70.27,160.53,70.48Z"/><polygon class="cls-55" points="162.76 65.98 160.53 70.48 165.1 67.87 162.76 65.98"/><polygon class="cls-56" points="251.76 263.68 251.8 264.58 246.81 264.58 239.69 135.39 246.71 135.39 251.76 263.68"/><polygon class="cls-57" points="33.61 135.39 40.64 135.39 33.52 264.58 28.53 264.58 33.61 135.39"/><path class="cls-58" d="M22.48,124H257.39a2.56,2.56,0,0,1,2.56,2.56v2.77a2.56,2.56,0,0,1-2.56,2.56H22.48a2.1,2.1,0,0,1-2.1-2.1v-3.7A2.1,2.1,0,0,1,22.48,124Z"/><rect class="cls-59" x="25.26" y="131.93" width="229.81" height="6.63" transform="translate(280.33 270.5) rotate(180)"/><polygon class="cls-60" points="121.16 85.79 131.06 120.58 150.75 121.47 150.75 123.93 78.96 123.93 68.54 85.79 121.16 85.79"/><polygon class="cls-61" points="117.77 85.79 128.3 123.93 78.96 123.93 68.54 85.79 117.77 85.79"/><path class="cls-62" d="M173,38.19c-.05.1-5,9.94-10.51,12.06a14.5,14.5,0,0,1-7.78.63,2,2,0,1,0-.78,1.89,16.94,16.94,0,0,0,3.6.38,15.75,15.75,0,0,0,5.68-1c6.23-2.41,11.36-12.61,11.58-13Z"/><path class="cls-63" d="M173,37.21c-.05.1-5,9.94-10.51,12.06a14.5,14.5,0,0,1-7.78.63,2,2,0,1,0-.78,1.89,16.94,16.94,0,0,0,3.6.38,15.75,15.75,0,0,0,5.68-1c6.23-2.41,11.36-12.61,11.58-13Z"/><path class="cls-64" d="M170,45.5a46,46,0,0,0,4.77-7.4L173,37.21A45.39,45.39,0,0,1,168.64,44Z"/><path class="cls-65" d="M182.71,38.46c-.63,4.59-4.3,7.87-8.2,7.34s-6.55-4.68-5.93-9.27,4.3-7.87,8.2-7.33S183.34,33.88,182.71,38.46Z"/><path class="cls-4" d="M181.26,38.56c-.44,3.22-3,5.52-5.76,5.15s-4.59-3.29-4.15-6.5,3-5.52,5.75-5.15S181.69,35.34,181.26,38.56Z"/><path class="cls-66" d="M180.5,38.46c-.37,2.7-2.54,4.64-4.84,4.33s-3.87-2.77-3.5-5.47S174.7,32.68,177,33,180.87,35.75,180.5,38.46Z"/></g></g></g></svg>