<svg width="50" height="50" viewBox="0 0 50 50" fill="none" xmlns="http://www.w3.org/2000/svg">
<g clip-path="url(#clip0_428_3729)">
<path d="M42.1875 37.5C41.4912 37.5035 40.8046 37.6642 40.1791 37.97L33.4595 31.25H28.125V34.375H32.1655L37.9695 40.1794C37.6642 40.805 37.5037 41.4914 37.5 42.1875C37.5 43.1146 37.7749 44.0209 38.29 44.7917C38.8051 45.5626 39.5371 46.1634 40.3937 46.5182C41.2502 46.873 42.1927 46.9658 43.102 46.7849C44.0113 46.6041 44.8465 46.1576 45.5021 45.5021C46.1576 44.8465 46.6041 44.0113 46.7849 43.102C46.9658 42.1927 46.873 41.2502 46.5182 40.3937C46.1634 39.5371 45.5626 38.8051 44.7917 38.29C44.0209 37.7749 43.1146 37.5 42.1875 37.5ZM42.1875 43.75C41.8785 43.75 41.5764 43.6584 41.3194 43.4867C41.0625 43.315 40.8622 43.071 40.7439 42.7854C40.6257 42.4999 40.5947 42.1858 40.655 41.8827C40.7153 41.5796 40.8641 41.3012 41.0826 41.0826C41.3012 40.8641 41.5796 40.7153 41.8827 40.655C42.1858 40.5947 42.4999 40.6257 42.7854 40.7439C43.071 40.8622 43.315 41.0625 43.4867 41.3194C43.6584 41.5764 43.75 41.8785 43.75 42.1875C43.7496 42.6018 43.5849 42.999 43.2919 43.2919C42.999 43.5849 42.6018 43.7496 42.1875 43.75Z" fill="white"/>
<path d="M42.1875 20.3125C41.2213 20.3154 40.2796 20.6174 39.4919 21.1769C38.7041 21.7365 38.1089 22.5261 37.788 23.4375H28.125V26.5625H37.788C38.0759 27.3704 38.5803 28.0837 39.2462 28.6243C39.9121 29.165 40.7137 29.5122 41.5635 29.628C42.4134 29.7439 43.2787 29.624 44.065 29.2813C44.8513 28.9387 45.5282 28.3865 46.022 27.6851C46.5157 26.9838 46.8071 26.1602 46.8644 25.3044C46.9217 24.4487 46.7427 23.5936 46.347 22.8326C45.9512 22.0717 45.3539 21.4342 44.6204 20.9897C43.8868 20.5453 43.0452 20.311 42.1875 20.3125ZM42.1875 26.5625C41.8785 26.5625 41.5764 26.4709 41.3194 26.2992C41.0625 26.1275 40.8622 25.8835 40.7439 25.5979C40.6257 25.3124 40.5947 24.9983 40.655 24.6952C40.7153 24.3921 40.8641 24.1137 41.0826 23.8952C41.3012 23.6766 41.5796 23.5278 41.8827 23.4675C42.1858 23.4072 42.4999 23.4382 42.7854 23.5564C43.071 23.6747 43.315 23.875 43.4867 24.1319C43.6584 24.3889 43.75 24.691 43.75 25C43.7496 25.4143 43.5849 25.8115 43.2919 26.1045C42.999 26.3974 42.6018 26.5621 42.1875 26.5625Z" fill="white"/>
<path d="M42.1875 3.125C40.9447 3.12637 39.7532 3.62066 38.8744 4.49944C37.9957 5.37823 37.5014 6.56972 37.5 7.8125C37.5054 8.56104 37.692 9.29714 38.0439 9.95781L32.1808 15.625H28.125V18.75H33.4442L40.3175 12.1056C40.956 12.3839 41.6485 12.5164 42.3447 12.4934C43.0409 12.4703 43.7231 12.2924 44.3418 11.9725C44.9605 11.6525 45.5001 11.1987 45.9214 10.6439C46.3426 10.0892 46.6348 9.44753 46.7768 8.76562C46.9188 8.08371 46.907 7.37872 46.7422 6.70196C46.5774 6.0252 46.2638 5.39369 45.8242 4.8534C45.3846 4.3131 44.8301 3.87762 44.201 3.57863C43.5719 3.27964 42.884 3.12467 42.1875 3.125ZM42.1875 9.375C41.8785 9.375 41.5764 9.28336 41.3194 9.11167C41.0625 8.93998 40.8622 8.69595 40.7439 8.41044C40.6257 8.12493 40.5947 7.81077 40.655 7.50767C40.7153 7.20458 40.8641 6.92617 41.0826 6.70765C41.3012 6.48913 41.5796 6.34031 41.8827 6.28002C42.1858 6.21973 42.4999 6.25068 42.7854 6.36894C43.071 6.4872 43.315 6.68747 43.4867 6.94442C43.6584 7.20137 43.75 7.50347 43.75 7.8125C43.7496 8.22679 43.5849 8.624 43.2919 8.91694C42.999 9.20989 42.6018 9.37463 42.1875 9.375Z" fill="white"/>
<path d="M28.125 9.375H31.25V6.25H28.125C27.2345 6.25299 26.3551 6.4474 25.5463 6.82005C24.7376 7.19271 24.0184 7.73489 23.4375 8.40984C22.8566 7.73489 22.1374 7.19271 21.3287 6.82005C20.5199 6.4474 19.6405 6.25299 18.75 6.25H17.1875C13.4592 6.25414 9.88471 7.73704 7.24838 10.3734C4.61204 13.0097 3.12914 16.5842 3.125 20.3125V29.6875C3.12914 33.4158 4.61204 36.9903 7.24838 39.6266C9.88471 42.263 13.4592 43.7459 17.1875 43.75H18.75C19.6405 43.747 20.5199 43.5526 21.3287 43.1799C22.1374 42.8073 22.8566 42.2651 23.4375 41.5902C24.0184 42.2651 24.7376 42.8073 25.5463 43.1799C26.3551 43.5526 27.2345 43.747 28.125 43.75H31.25V40.625H28.125C27.2965 40.6241 26.5022 40.2945 25.9163 39.7087C25.3305 39.1228 25.001 38.3285 25 37.5V12.5C25.001 11.6715 25.3305 10.8772 25.9163 10.2913C26.5022 9.7055 27.2965 9.37595 28.125 9.375ZM18.75 40.625H17.1875C14.56 40.6204 12.0219 39.6707 10.0367 37.9495C8.05158 36.2282 6.75186 33.8503 6.375 31.25H9.375V28.125H6.25V21.875H10.9375C12.1803 21.8736 13.3718 21.3793 14.2506 20.5006C15.1293 19.6218 15.6236 18.4303 15.625 17.1875V14.0625H12.5V17.1875C12.4996 17.6018 12.3349 17.999 12.0419 18.2919C11.749 18.5849 11.3518 18.7496 10.9375 18.75H6.375C6.75186 16.1497 8.05158 13.7718 10.0367 12.0505C12.0219 10.3293 14.56 9.3796 17.1875 9.375H18.75C19.5785 9.37595 20.3728 9.7055 20.9587 10.2913C21.5445 10.8772 21.874 11.6715 21.875 12.5V18.75H18.75V21.875H21.875V28.125H18.75C17.5072 28.1264 16.3157 28.6207 15.4369 29.4994C14.5582 30.3782 14.0639 31.5697 14.0625 32.8125V35.9375H17.1875V32.8125C17.1879 32.3982 17.3526 32.001 17.6456 31.7081C17.9385 31.4151 18.3357 31.2504 18.75 31.25H21.875V37.5C21.874 38.3285 21.5445 39.1228 20.9587 39.7087C20.3728 40.2945 19.5785 40.6241 18.75 40.625Z" fill="white"/>
</g>
<defs>
<clipPath id="clip0_428_3729">
<rect width="50" height="50" fill="white"/>
</clipPath>
</defs>
</svg>
