<svg width="50" height="50" viewBox="0 0 50 50" fill="none" xmlns="http://www.w3.org/2000/svg">
<g clip-path="url(#clip0_428_3759)">
<path d="M39 2.03145C38.7383 2.0627 38.5039 2.19942 38.3438 2.40645L35.3438 6.21895C34.7812 5.48849 33.8984 5.0002 32.9062 5.0002H30.0938C28.3945 5.0002 27 6.39474 27 8.09395V15.9065C27 17.6057 28.3945 19.0002 30.0938 19.0002H32.9062C33.8984 19.0002 34.7812 18.5119 35.3438 17.7815L38.3438 21.594C38.6367 21.9611 39.1484 22.0666 39.5625 21.844L49.4688 16.4377C49.8828 16.215 50.0742 15.7307 49.9297 15.2854C49.7812 14.8361 49.3398 14.5627 48.875 14.6252C48.7539 14.6447 48.6367 14.6877 48.5312 14.7502L39.375 19.7815L36 15.5002V8.53145L39.375 4.2502L48.5312 9.2502C48.8359 9.45724 49.2305 9.47286 49.5508 9.29317C49.8711 9.11349 50.0625 8.76974 50.043 8.40255C50.0273 8.03536 49.8047 7.71114 49.4688 7.5627L39.5625 2.15645C39.3906 2.0588 39.1953 2.01583 39 2.03145ZM9 3.0002C4.03906 3.0002 0 7.03927 0 12.0002C0 16.9611 4.03906 21.0002 9 21.0002C13.9609 21.0002 18 16.9611 18 12.0002C18 7.03927 13.9609 3.0002 9 3.0002ZM18.6875 7.0002C19.4805 8.51974 20 10.1721 20 12.0002C20 13.8283 19.4805 16.4807 18.6875 18.0002H24.9688C24.8945 17.6525 24.9062 16.3674 24.9062 16.0002V8.0002C24.9062 7.63302 24.8945 7.34786 24.9688 7.0002H18.6875ZM9 7.34395C11.5586 7.34395 13.6562 9.44161 13.6562 12.0002C13.6562 14.5588 11.5586 16.6565 9 16.6565C6.44141 16.6565 4.34375 14.5588 4.34375 12.0002C4.34375 9.44161 6.44141 7.34395 9 7.34395ZM17.8125 18.5627C15.8047 21.2424 12.6016 23.0002 9 23.0002C7.77344 23.0002 6.60156 22.7775 5.5 22.4065L14.2812 38.969H29.3438L17.8125 18.5627ZM6.875 41.0002C5.25391 41.0002 4 42.3166 4 44.0002V49.0002C4 49.5822 4.41797 50.0002 5 50.0002H39C39.582 50.0002 40 49.5822 40 49.0002V44.0002C40 42.3166 38.7461 41.0002 37.125 41.0002H6.875Z" fill="white"/>
</g>
<defs>
<clipPath id="clip0_428_3759">
<rect width="50" height="50" fill="white"/>
</clipPath>
</defs>
</svg>
