<svg xmlns="http://www.w3.org/2000/svg" xmlns:xlink="http://www.w3.org/1999/xlink" viewBox="0 0 2922.42 2184"><defs><style>.cls-1{fill:#97f9e3;}.cls-2{fill:url(#Безымянный_градиент_13);}.cls-3{fill:url(#Безымянный_градиент_13-2);}.cls-4{fill:url(#Безымянный_градиент_13-3);}.cls-5{fill:url(#Безымянный_градиент_6);}.cls-6{fill:url(#Безымянный_градиент_13-4);}.cls-7{fill:url(#Безымянный_градиент_13-5);}.cls-8{fill:url(#Безымянный_градиент_6-2);}.cls-9{fill:url(#Безымянный_градиент_13-6);}.cls-10{fill:url(#Безымянный_градиент_13-7);}.cls-11{fill:url(#Безымянный_градиент_4);}.cls-12{fill:url(#Безымянный_градиент_4-2);}.cls-13{fill:url(#Безымянный_градиент_4-3);}.cls-14{fill:#01483f;}.cls-15{fill:#01644c;}.cls-16{fill:#45391d;}.cls-17{fill:#847d3d;}.cls-18{fill:url(#Безымянный_градиент_8);}.cls-19{fill:#002822;}.cls-20{fill:url(#Безымянный_градиент_16);}.cls-21{fill:#233862;}.cls-22{fill:#ffb27d;}.cls-23{fill:#e65924;}.cls-24{fill:#679b40;}.cls-25{fill:#97c157;}.cls-26{fill:#070707;}.cls-27{fill:#f5c99d;}.cls-28{fill:#d8a982;}.cls-29{fill:#fd9c28;}.cls-30{fill:#fff;}.cls-31{fill:#bda24d;}</style><linearGradient id="Безымянный_градиент_13" x1="626.85" y1="1316.29" x2="819.48" y2="1316.29" gradientUnits="userSpaceOnUse"><stop offset="0" stop-color="#3e815b"/><stop offset="1" stop-color="#277455"/></linearGradient><linearGradient id="Безымянный_градиент_13-2" x1="613.54" y1="1331.85" x2="796.46" y2="1331.85" xlink:href="#Безымянный_градиент_13"/><linearGradient id="Безымянный_градиент_13-3" x1="587.42" y1="1387.96" x2="623.66" y2="1387.96" xlink:href="#Безымянный_градиент_13"/><linearGradient id="Безымянный_градиент_6" x1="341.83" y1="1233.12" x2="562.98" y2="1233.12" gradientUnits="userSpaceOnUse"><stop offset="0" stop-color="#cbce55"/><stop offset="1" stop-color="#217b4f"/></linearGradient><linearGradient id="Безымянный_градиент_13-4" x1="369.85" y1="1259.64" x2="543" y2="1259.64" xlink:href="#Безымянный_градиент_13"/><linearGradient id="Безымянный_градиент_13-5" x1="536.16" y1="1362.48" x2="556.37" y2="1362.48" xlink:href="#Безымянный_градиент_13"/><linearGradient id="Безымянный_градиент_6-2" x1="566.4" y1="1179.12" x2="857.92" y2="1179.12" xlink:href="#Безымянный_градиент_6"/><linearGradient id="Безымянный_градиент_13-6" x1="592.74" y1="1214.08" x2="820.99" y2="1214.08" xlink:href="#Безымянный_градиент_13"/><linearGradient id="Безымянный_градиент_13-7" x1="575.11" y1="1349.64" x2="601.75" y2="1349.64" xlink:href="#Безымянный_градиент_13"/><linearGradient id="Безымянный_градиент_4" x1="476.42" y1="1453.48" x2="740.46" y2="1453.48" gradientUnits="userSpaceOnUse"><stop offset="0" stop-color="#fdb43c"/><stop offset="1" stop-color="#f47a11"/></linearGradient><linearGradient id="Безымянный_градиент_4-2" x1="474.6" y1="1518.06" x2="742.28" y2="1518.06" xlink:href="#Безымянный_градиент_4"/><linearGradient id="Безымянный_градиент_4-3" x1="472.08" y1="1389.49" x2="743.46" y2="1389.49" xlink:href="#Безымянный_градиент_4"/><linearGradient id="Безымянный_градиент_8" x1="517.04" y1="1752.66" x2="792.75" y2="1752.66" gradientUnits="userSpaceOnUse"><stop offset="0" stop-color="#c8a34e"/><stop offset="1" stop-color="#5b9a3e"/></linearGradient><linearGradient id="Безымянный_градиент_16" x1="1715.64" y1="730.24" x2="1901.91" y2="730.24" gradientUnits="userSpaceOnUse"><stop offset="0" stop-color="#ceefe5"/><stop offset="1" stop-color="#27c888"/></linearGradient></defs><g id="Layer_2" data-name="Layer 2"><g id="Слой_1" data-name="Слой 1"><path class="cls-1" d="M2778.78,1558.2c-5.53,168.81,122.24,451.2,14.47,575.54-31.47,31.18-26.5,49.16-65.25,49.11-685.78,5.79-1705.14-12.11-2395-13-292.84-242.69-86.62-923.28,353-1150,382-197,376.68-979.64,917-933,213.2,18.41,258.93,60.09,422,6C3442-377.15,2749.18,1065.15,2778.78,1558.2Z"/><path class="cls-2" d="M641.74,1325.88s-32.14-37.49-2-61.31c0,0,22-13.34,40-12.25,0,0-25.45,42.68-17.21,46.92s24.93-49.6,24.93-49.6,50.13-4.86,66.26,2.89c0,0-42.86,35.07-33.83,37.16s55.31-32.34,55.31-32.34,46.66,7.94,44.17,36.41-18.56,37.25-25.63,36.49-48.4-16.53-49.3-10.74,24,24.71,41.41,25.59c0,0-32.9,36.28-54.76,25.81s-23.73-27.07-37.36-33.29-25.26-6.21-19.63.14,30.29,12.52,38.08,26.3,14.79,23.09-7.83,19.68-59.39-20-61-38.9Z"/><path class="cls-3" d="M796.46,1294.52s-126.73-4.88-154.72,31.36c0,0-6.19,18.54-25.23,35.42l-3,8.09s22-23.15,29.82-24.55C643.36,1344.84,631.07,1299.94,796.46,1294.52Z"/><path class="cls-4" d="M616.51,1361.3s-27.2,20.12-29.09,56.06l4.94.44s8.68-37.16,24.39-51.7S616.51,1361.3,616.51,1361.3Z"/><path class="cls-5" d="M529.37,1278.73s51.13-28.63,27.27-67.49c0,0-19.09-23.86-39.54-30,0,0,10.9,58,0,59.31s-7.5-65.44-7.5-65.44-53.86-25.91-75-23.86c0,0,33.4,56.58,22.5,55.22s-48.4-58.63-48.4-58.63-55.22-10.23-64.09,22.5,5.46,49.08,13.64,51.12,60.67,1.37,59.31,8.18-36.81,17.73-56.58,11.59c0,0,21.81,53.86,50.44,51.13s37.5-20.45,55.22-21.81,30.68,3.41,21.82,8.18-38.86,1.56-53.18,13.73-25.9,19.67.68,25.12,74.31,2.05,83.85-18.4Z"/><path class="cls-6" d="M369.85,1180.56s143.16,46.36,159.52,98.17c0,0-.68,23.18,13.63,49.76v10.23s-15-34.77-23.18-39.54C519.82,1299.18,551.86,1254.19,369.85,1180.56Z"/><path class="cls-7" d="M543,1328.49s22.08,33.53,9.49,74.34l-5.68-1.53s5.52-45-6-67.55S543,1328.49,543,1328.49Z"/><path class="cls-8" d="M610.71,1239.24s-67.4-37.74-36-89c0,0,25.17-31.45,52.12-39.54,0,0-14.37,76.38,0,78.18s9.89-86.27,9.89-86.27,71-34.15,98.85-31.45c0,0-44,74.58-29.66,72.79s63.8-77.28,63.8-77.28,72.79-13.48,84.47,29.65-7.18,64.7-18,67.4-80,1.79-78.18,10.78,48.53,23.36,74.59,15.28c0,0-28.76,71-66.5,67.39s-49.42-27-72.79-28.75-40.44,4.49-28.75,10.78,51.22,2.06,70.09,18.1,34.15,25.93-.9,33.12-98,2.7-110.53-24.26Z"/><path class="cls-9" d="M821,1109.84S632.28,1171,610.71,1239.24c0,0,.9,30.55-18,65.6v13.48s19.77-45.83,30.55-52.12C623.29,1266.2,581.05,1206.89,821,1109.84Z"/><path class="cls-10" d="M592.74,1304.84s-29.11,44.19-12.51,98l7.48-2s-7.27-59.26,8-89.06S592.74,1304.84,592.74,1304.84Z"/><path class="cls-11" d="M608.44,1519.49a132,132,0,0,0,132-132h-264A132,132,0,0,0,608.44,1519.49Z"/><path class="cls-12" d="M742.28,1526.2H474.6a16.28,16.28,0,0,1,16.28-16.28H726a16.28,16.28,0,0,1,16.29,16.28Z"/><rect class="cls-13" x="472.08" y="1387.47" width="271.38" height="4.05"/><path class="cls-14" d="M1289.66,1955h.65c5.34-.1,9.46-4.46,9-9.47l-35.58-355.4-31.06,2.77,51.1,357.31A5.78,5.78,0,0,0,1289.66,1955Z"/><path class="cls-14" d="M947,1955h-.66c-5.33-.1-9.45-4.46-9-9.47L973,1590.07l31,2.77-51.1,357.31A5.77,5.77,0,0,1,947,1955Z"/><path class="cls-14" d="M1540.72,1955h.65c5.33-.1,9.45-4.46,9-9.47l-35.59-355.4-31,2.77,51.1,357.31A5.78,5.78,0,0,0,1540.72,1955Z"/><path class="cls-14" d="M957.59,1538.37l-63.16-311.94c-8.11-42.24,26.89-80.86,72.33-79.82l121.82,2.78a96.24,96.24,0,0,1,90.25,69.47l92.42,319.51Z"/><path class="cls-15" d="M995.81,1538.37l-63.17-311.94c-8.11-42.24,26.89-80.86,72.33-79.82l121.83,2.78a96.23,96.23,0,0,1,90.24,69.47l92.42,319.51Z"/><path class="cls-14" d="M976.17,1538.37h480a18.58,18.58,0,0,1,18.58,18.58v38.31a0,0,0,0,1,0,0H976.17a18.58,18.58,0,0,1-18.58-18.58V1557A18.58,18.58,0,0,1,976.17,1538.37Z" transform="translate(2432.38 3133.63) rotate(180)"/><rect class="cls-14" x="1187.2" y="1538.37" width="335.62" height="56.89" rx="14.97" transform="translate(2710.02 3133.63) rotate(180)"/><path class="cls-16" d="M813.78,1534.31V1545c0,3.73-1.21,6.77-2.68,6.77H422.74c-1.47,0-2.68-3-2.68-6.77v-10.64c0-3.72,1.21-6.77,2.68-6.77H811.1C812.57,1527.54,813.78,1530.59,813.78,1534.31Z"/><path class="cls-17" d="M813.78,1534.31V1545c0,3.73-1.11,6.77-2.46,6.77H503c-1.35,0-2.45-3-2.45-6.77v-10.64c0-3.72,1.1-6.77,2.45-6.77H811.32C812.67,1527.54,813.78,1530.59,813.78,1534.31Z"/><rect class="cls-17" x="439.77" y="1551.72" width="275.71" height="401.87"/><rect class="cls-18" x="517.04" y="1551.72" width="275.71" height="401.87"/><path class="cls-16" d="M777.94,1931.4H531.86V1563.07H777.94Zm-243.43-2.66H775.28v-363H534.51Z"/><rect class="cls-16" x="533.18" y="1684.92" width="243.43" height="2.66"/><rect class="cls-16" x="533.18" y="1809.14" width="243.43" height="2.66"/><path class="cls-16" d="M679.84,1586.83H634.67a4,4,0,0,1-4-4h0a4,4,0,0,1,4-4h45.17a4,4,0,0,1,4,4h0A4,4,0,0,1,679.84,1586.83Z"/><path class="cls-16" d="M679.84,1708.3H634.67a4,4,0,0,1-4-4h0a4,4,0,0,1,4-4h45.17a4,4,0,0,1,4,4h0A4,4,0,0,1,679.84,1708.3Z"/><path class="cls-16" d="M679.84,1834.93H634.67a4,4,0,0,1-4-4h0a4,4,0,0,1,4-4h45.17a4,4,0,0,1,4,4h0A4,4,0,0,1,679.84,1834.93Z"/><rect class="cls-19" x="1706.81" y="631.31" width="203.94" height="197.85" rx="15.39"/><rect class="cls-20" x="1715.64" y="639.88" width="186.27" height="180.71" rx="14.06"/><path class="cls-19" d="M1804.55,657.94a4.23,4.23,0,1,1,4.22,4.22A4.22,4.22,0,0,1,1804.55,657.94Z"/><path class="cls-19" d="M1838.64,663.91a4.22,4.22,0,1,1,1.64,5.74A4.22,4.22,0,0,1,1838.64,663.91Z"/><path class="cls-19" d="M1867.84,687.11a4.22,4.22,0,1,1-1.26,5.84A4.23,4.23,0,0,1,1867.84,687.11Z"/><path class="cls-19" d="M1882.31,723a4.23,4.23,0,1,1-4.23,4.23A4.22,4.22,0,0,1,1882.31,723Z"/><path class="cls-19" d="M1874.92,764.7a4.22,4.22,0,1,1-6,0A4.22,4.22,0,0,1,1874.92,764.7Z"/><path class="cls-19" d="M1848.39,791.29a4.22,4.22,0,1,1-6,0A4.23,4.23,0,0,1,1848.39,791.29Z"/><path class="cls-19" d="M1804.55,805a4.23,4.23,0,1,1,4.22,4.23A4.22,4.22,0,0,1,1804.55,805Z"/><path class="cls-19" d="M1778.78,663.91a4.23,4.23,0,1,0-1.64,5.74A4.23,4.23,0,0,0,1778.78,663.91Z"/><path class="cls-19" d="M1749.57,687.11a4.22,4.22,0,1,0,1.26,5.84A4.23,4.23,0,0,0,1749.57,687.11Z"/><path class="cls-19" d="M1735.11,723a4.23,4.23,0,1,0,4.22,4.23A4.23,4.23,0,0,0,1735.11,723Z"/><path class="cls-19" d="M1742.49,764.7a4.22,4.22,0,1,0,6,0A4.22,4.22,0,0,0,1742.49,764.7Z"/><circle class="cls-19" cx="1772.01" cy="794.28" r="4.22"/><path class="cls-19" d="M1807.64,727.25a4.22,4.22,0,1,1,4.22,4.22A4.22,4.22,0,0,1,1807.64,727.25Z"/><rect class="cls-19" x="1811.28" y="674.47" width="1.15" height="52.77"/><rect class="cls-19" x="1807.53" y="714.46" width="35.57" height="3.46" transform="translate(-52.67 1280) rotate(-38.13)"/><path class="cls-21" d="M1377.48,1473.09c-26.08,45.38-58.87,62.9-58.87,62.9H1182.17S1397.37,1438.47,1377.48,1473.09Z"/><path class="cls-22" d="M1545.76,1924c-1.48,14.31,18.44,18,41.53,19.41s16.06,6.05,47.66,12.13,44.38-2.46,46.72-6.71c2.08-3.77-12.58-9.87-28.19-16.74-2-.86-3.94-1.75-5.9-2.63-17.58-8-27.31-23.9-40.92-38.73-12.89-14-24.79-58.7-24.79-58.7l-42.93-9.65s11.65,40.2,15.66,57.36c2.36,10.09-1.4,21.3-4.73,29.82C1548.08,1914.16,1546.27,1918.91,1545.76,1924Z"/><path class="cls-23" d="M1587.29,1943.37c23.09,1.4,16.06,6.05,47.66,12.13s44.38-2.46,46.72-6.71c2.08-3.77-12.58-9.87-28.19-16.74l-.25.26a90.19,90.19,0,0,1-48,.06c-20.88-5.91-41-18.65-55.39-22.85-1.79,4.64-3.6,9.39-4.11,14.44C1544.28,1938.27,1564.2,1942,1587.29,1943.37Z"/><path class="cls-24" d="M1480.72,1426.6c-23.1-16.22-175.9-45.13-253.88-53.5l-86.19-74.82s-73.36,108.67-73.94,191.79c-.27,38.76,17.58,42.61,17.58,42.62s276.3,2,288.41,3.3c19.82,2,46,51.43,52.51,96.41S1547,1860.33,1547,1860.33s24,7.7,35.14,7.05c12-.71,17.48-4.71,17.48-4.71S1532.81,1463.18,1480.72,1426.6Z"/><path class="cls-22" d="M1474.29,1924c-1.47,14.31,18.44,18,41.53,19.41s16.06,6.05,47.66,12.13,44.39-2.46,46.72-6.71c2.09-3.77-12.57-9.87-28.19-16.74-2-.86-3.93-1.75-5.9-2.63-17.57-8-27.31-23.9-40.92-38.73-12.89-14-24.79-58.7-24.79-58.7l-42.93-9.65s11.65,40.2,15.66,57.36c2.36,10.09-1.4,21.3-4.72,29.82C1476.62,1914.16,1474.81,1918.91,1474.29,1924Z"/><path class="cls-23" d="M1515.82,1943.37c23.1,1.4,16.06,6.05,47.66,12.13s44.39-2.46,46.72-6.71c2.09-3.77-12.57-9.87-28.19-16.74l-.25.26a90.16,90.16,0,0,1-48,.06c-20.89-5.91-41-18.65-55.39-22.85-1.79,4.64-3.6,9.39-4.12,14.44C1472.82,1938.27,1492.73,1942,1515.82,1943.37Z"/><path class="cls-25" d="M1408.62,1426.6c-20.07-14.09-80.42-25-147-33.12a44.83,44.83,0,0,1-38-33.64h0l-155-61.56S995.19,1407,994.61,1490.07c-.27,38.76,17.58,42.61,17.58,42.62s276.3,2,288.41,3.3c19.82,2,46,51.43,52.51,96.41s121.75,227.93,121.75,227.93,24,7.7,35.14,7.05c12-.71,17.48-4.71,17.48-4.71S1460.71,1463.18,1408.62,1426.6Z"/><path class="cls-26" d="M1201.25,846.82c-21.3-11.18-53.7-12.69-59-13.4-63-8.47-100.91,83.07-103.14,110.81-4.11,51.12-31.16,58.92-69.23,90.93-76.33,64.2-53.94,138.8-12.21,166.52,25,16.63,69.19,0,69.19,0,.62.44,120.71-67.14,179.91-99.73C1295.56,1089.33,1255.52,875.32,1201.25,846.82Z"/><path class="cls-27" d="M1188.11,1070.46c.28.14-28,13-48.4,6.25-19.19-6.32-36.1-35.22-35.83-35.26,8.33-1.21,16.8-9.43,19.17-58.14l3.69.93,62,15.68s-2.45,19.66-3.46,38.24C1184.45,1053.76,1184.63,1068.61,1188.11,1070.46Z"/><path class="cls-28" d="M1188.77,999.92s0,4.05-2.32,22.33c-35.08-8.85-50.55-20.48-61.46-33.8Z"/><path class="cls-27" d="M1202,1002.4s-82,13.35-89.57-37.86-23.19-84,28.87-94.68,65.13,7.35,71.8,23.84S1223.15,997.6,1202,1002.4Z"/><path class="cls-26" d="M1202.08,867.72s-37.25,58.8-70.5,72.73-49.6,6.86-49.6,6.86a140,140,0,0,0,19.07-53.75,25.2,25.2,0,0,1,15.58-20.26C1140.49,863.74,1186.66,848.67,1202.08,867.72Z"/><path class="cls-26" d="M1169.36,873.4s21.84,11.2,30.83,21.69c8.68,10.12,18.7,37.59,18,49.93,0,0,10.77-59.12-11.66-79.45C1182.72,844,1169.36,873.4,1169.36,873.4Z"/><path class="cls-17" d="M1253.74,1195.58c-2.49,166.74-.68,131.9-18.92,147.72-4.4,3.81-16.75,6.08-33,7.16-51.13,3.39-141-5-144.43-14.48-11.79-32.7-3.46-42.86-13.3-92.91-1-5.32-2.3-11.09-3.79-17.36-8.2-34.38-16.19-46.08,12.92-101.31,26.39-50,57.43-90.68,59.9-89.21,69.64,41.34,72,6.69,72,6.69S1255,1114.24,1253.74,1195.58Z"/><path class="cls-17" d="M1185.12,1041.88s71.27,12.08,79.69,42.93S1322.74,1297,1322.74,1297s-36.43,6.55-53.26-10.28-58.55-156.13-58.55-156.13Z"/><path class="cls-16" d="M1201.8,1350.46c-51.13,3.39-141-5-144.43-14.48-11.79-32.7-3.46-42.86-13.3-92.91l24.66-69.44s-4.08,77.32,18.73,97.66,93.37,39.27,104.45,56.26C1197.26,1335.71,1200.78,1343.89,1201.8,1350.46Z"/><path class="cls-27" d="M1143.22,1317.93s50.44-11.23,58.58-6.75,28,20.78,30.52,26.45-18.12-4.31-24.82-6.11c-4.34-1.16-15.77,2.81-21.43,4.7-23.8,7.93-38.39,3.85-38.39,3.85Z"/><path class="cls-17" d="M1113.1,1035.19s-71.39,4.17-94.84,36.87c-33,46-98.48,242.23-61,268.4,42.26,29.46,192.33,7.71,192.33,7.71s5-23.35-2-34.64-119.87-29.53-125.08-34.74,65.15-101.63,65.15-117.26S1113.1,1035.19,1113.1,1035.19Z"/><path class="cls-27" d="M1204.25,1325.22s10.56,13.63,14,15.26a10.29,10.29,0,0,0,5.7,1.22l-7.12-12.82Z"/><path class="cls-27" d="M1201.8,1311.18l30.73,14.92s-1.3,2.14-5.09,2-13.33-3.67-13.33-3.67Z"/><path class="cls-23" d="M1315,1346.55H1172.28a11.38,11.38,0,0,1,11.38-11.37H1315Z"/><polygon class="cls-23" points="1314.59 1191.12 1535.25 1191.12 1482.32 1346.55 1260.23 1346.55 1314.59 1191.12"/><polygon class="cls-29" points="1538.5 1191.12 1485.57 1346.55 1263.48 1346.55 1317.84 1191.12 1538.5 1191.12"/><path class="cls-30" d="M1419.53,1267.4c-1.37,5.94-7.29,10.75-13.23,10.75s-9.64-4.81-8.27-10.75,7.29-10.76,13.23-10.76S1420.9,1261.46,1419.53,1267.4Z"/><rect class="cls-19" x="1115.59" y="1346.55" width="981.7" height="34.97" rx="7.77"/><path class="cls-19" d="M2113.6,1957.56l.42-.06a8.87,8.87,0,0,0,7.83-9.87l-86.17-583.29-31.54.91,101.38,586.44A7.27,7.27,0,0,0,2113.6,1957.56Z"/><path class="cls-19" d="M1090.57,1957.56l-.41-.06a8.88,8.88,0,0,1-7.84-9.87l86.17-583.29,31.55.91-101.39,586.44A7.26,7.26,0,0,1,1090.57,1957.56Z"/><path class="cls-19" d="M1290.06,1957.56l-.42-.06a8.87,8.87,0,0,1-7.83-9.87L1368,1364.34l31.54.91-101.38,586.44A7.27,7.27,0,0,1,1290.06,1957.56Z"/><path class="cls-26" d="M1798.42,1957.08h171c8.22-10,5.19-47.07,3.95-59.16-.26-2.43-.44-3.85-.44-3.85s-58.39-46.71-66.41-10.94c-.24,1.12-.54,2.21-.86,3.29-10.11,33.45-55.43,48.66-81.6,52.89C1807,1942.07,1800.75,1950.92,1798.42,1957.08Z"/><path class="cls-17" d="M2265,1401.47c-6.17,0-292.9,53.83-340.33,112.54-23.69,29.33-27.21,368-27.21,368s29.31,36.35,92.61,15.24c0,0,46.42-231.74,43-302-1-19.43,195.91-2.81,231.94-12.13s124.06-87.71,104.67-125.89S2265,1401.47,2265,1401.47Z"/><path class="cls-27" d="M1925.9,1318.53s-57.84.78-71.51,6.64-41.43,19.32-34,21.38,42.85-.85,50.51.32,17.1-.32,21.79-.32h26.56Z"/><path class="cls-27" d="M1858.28,1179.73s-19.72-14.09-38.87-16.83c-10.92-1.56-21.54-3.5-28-5.76-17.67-6.23-53-38-50.35-41.75,8.57-12,49.85,13.34,57.05,10.63s-13.85-17.69-6.52-23c3.82-2.75,12.77,11,20.08,12.41,9.89,1.88,17.63,15.85,20.6,16.58,5.8,1.42,31.19,20.3,31.19,20.3Z"/><path class="cls-23" d="M2236.44,1015.18s-44,13.64-87.4,133.09-59.85,125.9-75.62,130.59-154.17,32.24-154.17,32.24v35.45H2132.5s80-76.06,103.94-127.27S2236.44,1015.18,2236.44,1015.18Z"/><path class="cls-19" d="M1722.85,1957.08h171c8.22-10,5.19-47.07,3.94-59.16-.25-2.43-.43-3.85-.43-3.85s-58.39-46.71-66.41-10.94c-.24,1.12-.54,2.21-.86,3.29-10.11,33.45-55.43,48.66-81.61,52.89C1731.47,1942.07,1725.18,1950.92,1722.85,1957.08Z"/><path class="cls-31" d="M2180.51,1401.47c-6.18,0-292.91,53.83-340.33,112.54-23.7,29.33-27.22,368-27.22,368s29.32,36.35,92.62,15.24c0,0,46.42-231.74,43-302-1-19.43,195.9-2.81,231.94-12.13s124.06-87.71,104.66-125.89S2180.51,1401.47,2180.51,1401.47Z"/><path class="cls-27" d="M2198.45,1053c20.63-1.7,42.25-7.2,60.94-13.26,23.37-7.59,42.2-18.67,30.07-40-11.19-19.68-29.29-63.65-28.07-100.08l-43.48,35-29.53,23.8s.12,14,3.35,38.62c.59,4.48,1.28,9.32,2.1,14.49a10.56,10.56,0,0,1-4.86,10.58l-.67.41C2173.62,1031.83,2181.17,1054.46,2198.45,1053Z"/><path class="cls-28" d="M2188.38,952.72s-1.51,5.09,1.09,23.9c26.32-4.29,50.94-25.29,50.94-25.29-13.41-3.68-18.28-18.17-28.27-16.82Z"/><path class="cls-27" d="M2164,957s101.28,16.82,110.78-46.41,29-103.65-35.28-117.06-80.48,8.82-88.79,29.15S2137.93,951,2164,957Z"/><path class="cls-16" d="M2135.85,794.71c-4.35,15.22,7.29,33.77,26.83,39.88,29,9.06,22.59,44.64,35.64,44.15s18.32-20.45,30-4.49c9.94,13.6-8.28,29.73-7,37.2,2.16,12.8,22.22,39,40.3,37.7s51.92-87.25,45.16-113.84-33.84-54.62-59.46-58.49-61.2,7.2-69.42,7.2S2138.2,786.48,2135.85,794.71Z"/><path class="cls-29" d="M2371,1102.94c-14.63-58.92-55.09-120.75-82.45-120.69-46.62.09-113.63,12.39-140.69,79.13-19.92,49.16-46.5,331.94-16.46,352,68.67,46,227.85,139.83,256.13,44.12C2413.45,1369.86,2396.42,1205.2,2371,1102.94Z"/><path class="cls-29" d="M2257.79,1044.31a55.21,55.21,0,0,0-85.44-23.8c-15.82,12.31-35.2,29.84-58.6,54.76-87,92.64-104.67,92.06-121,90.15s-154.38-31.21-154.38-31.21a41.7,41.7,0,0,0-11.23,13.64c-5.56,11.26-2.76,18.93-2.76,18.93-5.41-3.49,48.93,34,76,48.9,35.72,19.72,89.54,38.21,111,45.23a28.69,28.69,0,0,0,18.64-.27c31.82-11.47,138.67-53.26,225.65-125.78C2278.54,1115.76,2270.12,1076.38,2257.79,1044.31Z"/><path class="cls-23" d="M2293.25,982.81,2282.7,959s-94.47,7.7-110.35,61.47C2172.35,1020.51,2245.58,984,2293.25,982.81Z"/><path class="cls-15" d="M2522.61,1955h.66c5.33-.1,9.45-4.46,8.95-9.47l-35.59-355.4-31.05,2.77,51.1,357.31A5.77,5.77,0,0,0,2522.61,1955Z"/><path class="cls-15" d="M2339.45,1955h.65c5.33-.1,9.45-4.46,9-9.47l-35.59-355.4-31.05,2.77,51.1,357.31A5.78,5.78,0,0,0,2339.45,1955Z"/><path class="cls-14" d="M1995.57,1955h-.65c-5.33-.1-9.45-4.46-9-9.47l35.59-355.4,31.05,2.77-51.1,357.31A5.78,5.78,0,0,1,1995.57,1955Z"/><path class="cls-15" d="M2512.56,1539.72l33.77-296.83c4.43-42.78-9.88-84.67-71.61-87.91l-108.6-6.61c-64.36-2.66-93.42,50.91-101.57,92.15l-64.47,326.3Z"/><path class="cls-14" d="M2013.4,1538.37H2512a0,0,0,0,1,0,0v38.31a18.58,18.58,0,0,1-18.58,18.58h-480a18.58,18.58,0,0,1-18.58-18.58V1557A18.58,18.58,0,0,1,2013.4,1538.37Z"/><path class="cls-15" d="M2214.51,1538.37H2512a0,0,0,0,1,0,0v42.46a14.43,14.43,0,0,1-14.43,14.43H2214.51a14.43,14.43,0,0,1-14.43-14.43v-28A14.43,14.43,0,0,1,2214.51,1538.37Z"/><rect class="cls-26" y="1955.85" width="2804" height="6"/></g></g></svg>