<svg width="60" height="60" viewBox="0 0 60 60" fill="none" xmlns="http://www.w3.org/2000/svg">
<path d="M54.1188 6.30547C54.0989 6.2093 54.0519 6.12082 53.9834 6.05044C53.9149 5.98006 53.8277 5.93072 53.7321 5.90821C47.3594 4.34961 32.6383 9.90313 24.6543 17.8813C23.2314 19.2925 21.934 20.8248 20.7766 22.4609C18.3157 22.2383 15.8547 22.4258 13.7594 23.3398C7.84262 25.9414 6.12114 32.7359 5.64067 35.6527C5.61464 35.8126 5.62576 35.9762 5.67317 36.1311C5.72057 36.2859 5.803 36.4277 5.91405 36.5456C6.0251 36.6634 6.1618 36.7541 6.31355 36.8107C6.4653 36.8672 6.62802 36.888 6.78911 36.8715L16.2895 35.8285C16.2961 36.5451 16.3391 37.2609 16.4184 37.9731C16.468 38.4653 16.6876 38.9249 17.0395 39.2727L20.718 42.9512C21.0661 43.3033 21.5261 43.523 22.0188 43.5723C22.7267 43.6512 23.4382 43.6942 24.1504 43.7012L23.1086 53.1934C23.0924 53.3542 23.1133 53.5167 23.1699 53.6682C23.2264 53.8197 23.317 53.9562 23.4347 54.0671C23.5524 54.1779 23.694 54.2603 23.8486 54.3077C24.0032 54.3552 24.1666 54.3664 24.3262 54.3406C27.2442 53.8719 34.0528 52.1504 36.6391 46.2348C37.5532 44.1371 37.7407 41.6891 37.5297 39.2398C39.1707 38.0836 40.7074 36.7861 42.1223 35.3621C50.1356 27.3934 55.654 12.9957 54.1188 6.30547ZM34.9997 25.0391C34.2997 24.3393 33.823 23.4477 33.6299 22.477C33.4367 21.5063 33.5357 20.5001 33.9144 19.5857C34.2931 18.6713 34.9345 17.8897 35.7574 17.3398C36.5803 16.79 37.5478 16.4965 38.5375 16.4965C39.5273 16.4965 40.4948 16.79 41.3177 17.3398C42.1406 17.8897 42.782 18.6713 43.1607 19.5857C43.5394 20.5001 43.6384 21.5063 43.4452 22.477C43.2521 23.4477 42.7754 24.3393 42.0754 25.0391C41.6112 25.5043 41.0597 25.8734 40.4527 26.1252C39.8456 26.3771 39.1948 26.5067 38.5375 26.5067C37.8803 26.5067 37.2295 26.3771 36.6224 26.1252C36.0154 25.8734 35.4639 25.5043 34.9997 25.0391V25.0391Z" stroke="white" stroke-width="3.75" stroke-linecap="round" stroke-linejoin="round"/>
<path d="M12.8484 41.25C11.6802 41.3934 10.5934 41.923 9.76055 42.7547C7.6957 44.8266 7.5 52.5 7.5 52.5C7.5 52.5 15.1781 52.3043 17.2441 50.2371C18.0792 49.4056 18.6097 48.3169 18.75 47.1469" stroke="white" stroke-width="3.75" stroke-linecap="round" stroke-linejoin="round"/>
</svg>
