<svg width="60" height="60" viewBox="0 0 60 60" fill="none" xmlns="http://www.w3.org/2000/svg">
<path fill-rule="evenodd" clip-rule="evenodd" d="M52.4253 9.32172L51.1915 9.12547L50.8678 7.91797L52.729 7.41797L52.4265 9.32172H52.4253ZM35.9003 26.6092L34.8365 27.2642L34.834 27.2617L34.8303 27.2555L34.8178 27.2355L34.7753 27.1642C34.7403 27.1042 34.6878 27.0167 34.6253 26.9055C34.4501 26.5994 34.2813 26.2898 34.119 25.9767C33.6053 24.9927 33.1568 23.9759 32.7765 22.933C32.354 21.753 31.9915 20.4017 31.9353 19.0942C31.8803 17.7917 32.1228 16.378 33.0928 15.2692C33.964 14.2742 35.6065 13.358 37.3328 12.5655C39.1215 11.7417 41.2265 10.9517 43.2203 10.268C45.6899 9.42456 48.1843 8.65588 50.7003 7.96297L50.8253 7.92797L50.869 7.91547L51.194 9.12422L52.4278 9.32047L52.4203 9.36672L52.399 9.49922C52.2742 10.2661 52.1434 11.0319 52.0065 11.7967C51.6735 13.6775 51.3101 15.5527 50.9165 17.4217C50.4715 19.523 49.954 21.7255 49.4053 23.5692C49.1618 24.4125 48.8751 25.2428 48.5465 26.0567C48.2615 26.7442 47.924 27.4117 47.514 27.8817C46.6365 28.8842 45.2703 29.198 44.0765 29.278C42.8315 29.3617 41.4515 29.2105 40.2103 28.9905C39.1033 28.791 38.0069 28.5366 36.9253 28.228C36.4827 28.1033 36.0426 27.97 35.6053 27.828L35.5265 27.8005L35.5053 27.793L35.499 27.7917H35.4965L35.9015 26.608L35.9003 26.6092ZM35.9003 26.6092L34.8365 27.2642L35.0715 27.6455L35.4965 27.7917L35.9003 26.6092ZM36.7403 25.568C38.02 25.9674 39.3228 26.2888 40.6415 26.5305C41.7965 26.7342 42.9515 26.8492 43.909 26.7842C44.9203 26.7167 45.4278 26.4692 45.6315 26.2367C45.7615 26.0867 45.974 25.7317 46.2365 25.0992C46.5317 24.3658 46.7891 23.6177 47.0078 22.858C47.529 21.108 48.0303 18.9792 48.4703 16.9055C48.8925 14.8991 49.2792 12.8855 49.6303 10.8655L49.244 10.978C47.8578 11.3867 45.9853 11.963 44.0315 12.633C42.074 13.3042 40.0578 14.063 38.3765 14.8367C36.6315 15.6392 35.454 16.368 34.974 16.9167C34.5903 17.3542 34.3928 18.028 34.434 18.9867C34.474 19.9405 34.7478 21.0242 35.1303 22.088C35.5682 23.2912 36.1067 24.4553 36.7403 25.568V25.568ZM12.829 12.468L12.5053 13.6755L11.2703 13.8717L10.9678 11.9692L12.8303 12.4692L12.829 12.468ZM24.9315 27.8842L25.9953 28.538L25.9978 28.5355L26.0003 28.5305L26.0103 28.5142L26.0465 28.4542C26.235 28.1331 26.4151 27.8072 26.5865 27.4767C26.9165 26.8417 27.3378 25.9555 27.6903 24.9755C28.0378 24.0055 28.3403 22.8817 28.3865 21.7867C28.434 20.6955 28.2315 19.478 27.389 18.5155C26.644 17.663 25.2653 16.903 23.8653 16.258C22.4015 15.5842 20.6828 14.9392 19.059 14.383C17.0479 13.6961 15.0166 13.07 12.9678 12.5055L12.8653 12.478L12.829 12.468L12.5053 13.6755L11.2703 13.8717L11.2765 13.9092L11.294 14.018L11.3615 14.4255C11.6988 16.4474 12.0785 18.462 12.5003 20.468C12.8628 22.178 13.2853 23.9742 13.7328 25.4805C13.9578 26.233 14.1928 26.9342 14.439 27.5255C14.6728 28.088 14.959 28.6617 15.319 29.0717C16.094 29.9592 17.2853 30.2217 18.2715 30.2867C19.3115 30.3567 20.4528 30.2305 21.4715 30.0517C22.7506 29.8221 24.0121 29.5029 25.2465 29.0967L25.3103 29.0755L25.329 29.0692L25.3353 29.0667L24.9315 27.8842V27.8842ZM24.9315 27.8842L25.9953 28.538L25.7603 28.9205L25.3353 29.0667L24.9315 27.8842ZM24.0903 26.8417C24.5787 25.9738 24.9955 25.0674 25.3365 24.1317C25.6428 23.278 25.8578 22.4217 25.889 21.6792C25.9215 20.9317 25.764 20.4542 25.5078 20.1605C25.154 19.758 24.2415 19.183 22.8203 18.5292C21.4653 17.9055 19.8353 17.2917 18.2478 16.748C16.8649 16.2759 15.472 15.8333 14.0703 15.4205L14.0753 15.4517C14.2878 16.6517 14.5903 18.2717 14.9465 19.9505C15.3028 21.633 15.709 23.3542 16.129 24.768C16.3403 25.4755 16.5478 26.0867 16.7478 26.5667C16.9603 27.0755 17.1203 27.3342 17.2003 27.4267C17.3028 27.543 17.634 27.7392 18.439 27.793C19.1903 27.843 20.1078 27.753 21.0378 27.5892C22.0698 27.4032 23.0893 27.1531 24.0903 26.8405V26.8417ZM21.3528 38.7592C21.0353 38.7767 20.8803 38.8217 20.8403 38.8392C20.274 39.0955 18.554 39.6955 17.069 40.2017C16.3065 40.463 15.5753 40.708 15.0353 40.8892L15.0003 40.9017V47.6555C15.2203 47.6455 15.4565 47.6367 15.6978 47.628C16.7328 47.5905 17.964 47.553 18.4978 47.5755C20.7378 47.6642 22.4203 48.1942 23.9778 48.6855L24.0115 48.6967C25.4715 49.1567 26.824 49.5792 28.5953 49.713C29.0953 49.7505 29.5815 49.7992 30.0353 49.8442H30.0415C31.784 50.0192 32.9315 50.1067 33.8203 49.7842C34.5115 49.533 37.0428 48.3592 39.5953 47.0755C40.8578 46.4405 42.0953 45.7942 43.079 45.2405C43.5728 44.963 43.9915 44.7155 44.3128 44.508C44.4728 44.4042 44.6003 44.3167 44.6978 44.2455C44.7361 44.2174 44.7736 44.1882 44.8103 44.158L44.8453 44.128C44.9703 44.0017 45.1028 43.5617 44.8878 43.148C44.7866 42.9545 44.6194 42.8037 44.4165 42.723C44.1665 42.6142 43.7415 42.5305 43.0665 42.6417C41.544 42.8917 39.7253 43.6242 37.909 44.363L37.884 44.3742C36.9915 44.7367 36.0965 45.1005 35.3028 45.3655C34.5403 45.6192 33.694 45.8467 32.9565 45.803C31.944 45.7405 30.1678 45.478 28.7028 45.2405C27.8609 45.1043 27.02 44.9618 26.1803 44.813L26.0178 44.7842L25.9603 44.773L26.1978 42.293L31.9103 42.3617H31.9228C31.9895 42.3545 32.0555 42.3419 32.1203 42.3242C32.3178 42.2742 32.6565 42.1505 33.0828 41.8492C33.214 41.7555 33.3865 41.583 33.5478 41.3517C33.6102 41.2611 33.6669 41.1668 33.7178 41.0692C33.0213 41.0249 32.3293 40.9271 31.6478 40.7767C31.2767 40.6959 30.9085 40.6021 30.544 40.4955L30.5015 40.483L23.5053 38.9255L23.439 38.9142C23.0666 38.8524 22.6916 38.8065 22.3153 38.7767C21.9952 38.7502 21.6736 38.7443 21.3528 38.7592V38.7592ZM23.7503 37.7005L23.9765 36.4717L23.999 36.4755L31.1465 38.0655L31.199 38.0817L31.209 38.0855L31.2565 38.0992L31.454 38.1555C31.6278 38.203 31.8778 38.268 32.1753 38.333C32.7828 38.4642 33.5428 38.5855 34.2453 38.5855C34.949 38.5855 35.714 38.848 36.1265 39.5955C36.479 40.2355 36.3915 40.928 36.2678 41.3855C36.1529 41.79 35.9816 42.1763 35.759 42.533C36.139 42.383 36.5428 42.2205 36.9665 42.048L37.044 42.0155C38.7665 41.3155 40.8315 40.4755 42.6603 40.1742C44.7853 39.8267 46.379 40.5892 47.1078 41.9992C47.7503 43.243 47.6078 44.883 46.6265 45.8805C46.3803 46.1305 46.014 46.3842 45.664 46.6105C45.2183 46.8926 44.7648 47.1623 44.304 47.4192C43.2728 47.9992 41.9965 48.6655 40.7165 49.3092C38.189 50.5805 35.5265 51.8242 34.6715 52.1342C33.189 52.6717 31.474 52.5005 29.9503 52.348L29.7915 52.3317C29.3304 52.2844 28.8687 52.2428 28.4065 52.2067C26.3315 52.0492 24.7415 51.548 23.289 51.0905L23.2578 51.0805C21.6953 50.588 20.2878 50.1492 18.3978 50.073C17.9828 50.0567 16.8653 50.0867 15.7878 50.1267C15.181 50.1487 14.5743 50.1733 13.9678 50.2005L13.8065 50.208L12.499 50.268V39.098L13.5953 38.7342C14.4848 38.4386 15.3731 38.1394 16.2603 37.8367C17.8153 37.3055 19.3828 36.7542 19.8103 36.5617C20.269 36.3542 20.7903 36.2867 21.2078 36.2617C21.6515 36.2367 22.1078 36.2555 22.5065 36.2855C22.9865 36.323 23.4645 36.3827 23.939 36.4642L23.9653 36.4692H23.9728L23.9753 36.4705H23.9778L23.7503 37.7005Z" fill="white"/>
<path fill-rule="evenodd" clip-rule="evenodd" d="M43.9371 16.5509C44.0618 16.6576 44.1644 16.7878 44.2388 16.9341C44.3132 17.0804 44.3581 17.24 44.3709 17.4036C44.3836 17.5673 44.364 17.7319 44.3132 17.888C44.2624 18.0441 44.1813 18.1886 44.0746 18.3134C40.3483 22.6609 35.7096 29.0321 33.6621 34.2109C33.6017 34.3635 33.5118 34.5028 33.3975 34.6207C33.2833 34.7387 33.147 34.8329 32.9963 34.8982C32.8457 34.9634 32.6836 34.9983 32.5195 35.0009C32.3553 35.0035 32.1922 34.9738 32.0396 34.9134C31.8869 34.853 31.7476 34.7631 31.6297 34.6489C31.5118 34.5346 31.4175 34.3983 31.3523 34.2476C31.2871 34.097 31.2521 33.9349 31.2495 33.7708C31.2469 33.6066 31.2767 33.4435 31.3371 33.2909C33.5408 27.7171 38.4008 21.0909 42.1746 16.6871C42.3904 16.4355 42.6973 16.2799 43.0279 16.2546C43.3584 16.2293 43.6854 16.3363 43.9371 16.5521V16.5509ZM19.2246 20.5609C19.0957 20.6626 18.9881 20.7888 18.9079 20.9321C18.8278 21.0754 18.7767 21.2332 18.7576 21.3963C18.7384 21.5594 18.7516 21.7246 18.7963 21.8826C18.8411 22.0406 18.9165 22.1883 19.0183 22.3171C21.8208 25.8734 24.8808 30.4246 26.3333 34.1996C26.458 34.5009 26.6955 34.7416 26.9952 34.8702C27.2948 34.9989 27.6329 35.0053 27.9372 34.8882C28.2415 34.7711 28.4881 34.5397 28.6242 34.2434C28.7603 33.9471 28.7752 33.6093 28.6658 33.3021C27.0771 29.1721 23.8308 24.3834 20.9808 20.7696C20.7757 20.5093 20.4756 20.341 20.1465 20.3019C19.8174 20.2627 19.4863 20.3559 19.2258 20.5609H19.2246Z" fill="white"/>
<path d="M7.5 36.25H15V52.5H7.5V36.25Z" fill="white"/>
</svg>
