<svg width="60" height="60" viewBox="0 0 60 60" fill="none" xmlns="http://www.w3.org/2000/svg">
<path d="M51.0582 44.2837L37.5001 25.6406V7.5H41.2501V3.75H18.7501V7.5H22.5001V25.6406L8.94193 44.2837C8.12412 45.4077 7.6332 46.736 7.5235 48.1217C7.4138 49.5074 7.6896 50.8964 8.32037 52.135C8.95114 53.3736 9.9123 54.4136 11.0975 55.1399C12.2827 55.8661 13.6457 56.2504 15.0357 56.25H44.9626C46.3526 56.2504 47.7156 55.8661 48.9007 55.1399C50.0859 54.4136 51.0471 53.3736 51.6779 52.135C52.3086 50.8964 52.5844 49.5074 52.4747 48.1217C52.365 46.736 51.8741 45.4077 51.0563 44.2837H51.0582ZM26.2501 26.8594V7.5H33.7501V26.8594L38.7619 33.75H21.2382L26.2501 26.8594ZM44.9644 52.5H15.0376C14.3397 52.4992 13.6555 52.3057 13.0607 51.9407C12.4659 51.5757 11.9835 51.0534 11.6667 50.4315C11.35 49.8097 11.2112 49.1124 11.2657 48.4166C11.3202 47.7209 11.5659 47.0537 11.9757 46.4888L18.5119 37.5H41.4882L48.0263 46.4888C48.4361 47.0537 48.6818 47.7209 48.7363 48.4166C48.7908 49.1124 48.652 49.8097 48.3353 50.4315C48.0185 51.0534 47.5361 51.5757 46.9413 51.9407C46.3464 52.3057 45.6623 52.4992 44.9644 52.5Z" fill="white"/>
</svg>
