<svg width="60" height="60" viewBox="0 0 60 60" fill="none" xmlns="http://www.w3.org/2000/svg">
<path fill-rule="evenodd" clip-rule="evenodd" d="M41.5242 16.5125L41.4117 16.425C41.1954 14.7825 40.4092 13.0713 39.1817 11.6288C37.1879 9.285 33.9379 7.5 29.5879 7.5C25.3004 7.5 22.2792 9.455 20.4967 11.8788C19.6652 13 19.071 14.2789 18.7504 15.6375C18.692 15.8919 18.6453 16.1488 18.6104 16.4075L18.4754 16.5112C17.0704 17.6 16.0392 18.92 16.2842 20.4338C16.5192 21.8962 17.8417 22.7862 19.0717 23.33C19.3842 23.4687 19.7217 23.5987 20.0804 23.72C19.8997 25.1291 20.0213 26.5605 20.4371 27.919C20.8528 29.2774 21.5533 30.5316 22.4918 31.5982C23.4303 32.6647 24.5852 33.519 25.8797 34.1042C27.1742 34.6895 28.5785 34.9922 29.9992 34.9922C31.4198 34.9922 32.8241 34.6895 34.1186 34.1042C35.4131 33.519 36.5681 32.6647 37.5065 31.5982C38.445 30.5316 39.1455 29.2774 39.5613 27.919C39.9771 26.5605 40.0986 25.1291 39.9179 23.72C40.2767 23.5987 40.6142 23.47 40.9267 23.33C42.1567 22.7862 43.4779 21.8962 43.7142 20.4338C43.9592 18.92 42.9279 17.6 41.5229 16.5112L41.5242 16.5125ZM21.1817 18.34C21.0192 17.8725 20.9767 17.1213 21.1879 16.1925C21.3954 15.2863 21.8254 14.2925 22.5004 13.3725V16.875C22.5004 17.2065 22.6321 17.5245 22.8665 17.7589C23.1009 17.9933 23.4189 18.125 23.7504 18.125C24.0819 18.125 24.3999 17.9933 24.6343 17.7589C24.8687 17.5245 25.0004 17.2065 25.0004 16.875V11.1375C26.0292 10.5525 27.2729 10.1437 28.7504 10.0312V14.375C28.7504 14.7065 28.8821 15.0245 29.1165 15.2589C29.3509 15.4933 29.6689 15.625 30.0004 15.625C30.3319 15.625 30.6499 15.4933 30.8843 15.2589C31.1187 15.0245 31.2504 14.7065 31.2504 14.375V10.1087C32.5704 10.2751 33.8446 10.6999 35.0004 11.3587V16.875C35.0004 17.2065 35.1321 17.5245 35.3665 17.7589C35.6009 17.9933 35.9189 18.125 36.2504 18.125C36.5819 18.125 36.8999 17.9933 37.1343 17.7589C37.3687 17.5245 37.5004 17.2065 37.5004 16.875V13.5225C38.8817 15.2925 39.2054 17.2025 38.8167 18.3488C38.7204 18.6324 38.7292 18.9413 38.8414 19.2191C38.9537 19.4968 39.162 19.725 39.4285 19.8621C39.6949 19.9991 40.0016 20.036 40.2929 19.9658C40.5842 19.8957 40.8406 19.7233 41.0154 19.48C41.2617 19.8237 41.2529 20.0062 41.2479 20.035C41.2317 20.135 41.0404 20.5475 39.9167 21.045C39.4292 21.26 38.8492 21.4537 38.1979 21.625L38.1679 21.6325C37.4617 21.815 36.6754 21.97 35.8342 22.0975C34.2739 22.3225 32.7014 22.4519 31.1254 22.485C30.042 22.5121 28.958 22.5004 27.8754 22.45C26.6302 22.3943 25.3887 22.2758 24.1554 22.095C23.3737 21.9815 22.5985 21.8271 21.8329 21.6325L21.8029 21.625C21.2156 21.4773 20.6409 21.2834 20.0842 21.045C18.9604 20.5475 18.7692 20.135 18.7529 20.035C18.7479 20.0062 18.7392 19.8237 18.9854 19.48C19.1605 19.7244 19.4179 19.8975 19.7103 19.9675C20.0027 20.0376 20.3105 19.9999 20.5774 19.8614C20.8442 19.7229 21.0522 19.4928 21.1632 19.2134C21.2742 18.9339 21.2807 18.6239 21.1817 18.34ZM22.5279 24.3513C22.9429 24.4325 23.3729 24.5063 23.8129 24.5725C25.1479 24.7725 26.5854 24.9 28.0479 24.96C29.3515 25.0136 30.6568 25.0136 31.9604 24.96C33.4154 24.9 34.8479 24.7725 36.1767 24.5725C36.6105 24.5093 37.0427 24.4356 37.4729 24.3513C37.5618 25.3864 37.4346 26.4288 37.0995 27.4123C36.7643 28.3957 36.2285 29.2988 35.5259 30.0643C34.8234 30.8298 33.9694 31.4409 33.0183 31.859C32.0671 32.277 31.0394 32.4929 30.0004 32.4929C28.9614 32.4929 27.9337 32.277 26.9826 31.859C26.0314 31.4409 25.1775 30.8298 24.4749 30.0643C23.7723 29.2988 23.2365 28.3957 22.9013 27.4123C22.5662 26.4288 22.439 25.3864 22.5279 24.3513Z" fill="white"/>
<path fill-rule="evenodd" clip-rule="evenodd" d="M36.25 35.6123C37.0725 35.7561 37.91 35.9236 38.75 36.1148C45.5537 37.6686 52.5 40.7748 52.5 44.9998V52.4998H7.5V44.9998C7.5 40.7748 14.4462 37.6686 21.25 36.1148C22.0789 35.9259 22.9125 35.7584 23.75 35.6123V41.2498H36.25V35.6123ZM18.75 39.3623C19.5675 39.1123 20.4062 38.8861 21.25 38.6823V43.7498H38.75V38.6836C40.0162 38.9865 41.2676 39.3486 42.5 39.7686V49.9998H45V40.7461C45.3625 40.9073 45.7125 41.0736 46.0475 41.2448C47.4688 41.9673 48.5225 42.7123 49.19 43.4248C49.8463 44.1248 50 44.6411 50 44.9998V49.9998H10V44.9998C10 44.6411 10.1537 44.1248 10.81 43.4248C11.4775 42.7123 12.5312 41.9673 13.9525 41.2448C14.6637 40.8823 15.435 40.5423 16.25 40.2261V49.9998H18.75V39.3636V39.3623Z" fill="white"/>
</svg>
