<svg width="60" height="60" viewBox="0 0 60 60" fill="none" xmlns="http://www.w3.org/2000/svg">
<path d="M46.3477 31.2012C47.1484 32.6074 47.7441 34.0723 48.1348 35.5957C48.5254 37.1191 48.7305 38.6914 48.75 40.3125V43.3301L30 52.7344L11.25 43.3301C11.25 42.1582 11.2598 41.0645 11.2793 40.0488C11.2988 39.0332 11.3867 38.0469 11.543 37.0898C11.6992 36.1328 11.9336 35.1758 12.2461 34.2188C12.5586 33.2617 13.0273 32.2559 13.6523 31.2012L7.5 28.125V45.3223C8.06641 45.5176 8.57422 45.791 9.02344 46.1426C9.47266 46.4941 9.87305 46.9043 10.2246 47.373C10.5762 47.8418 10.8301 48.3496 10.9863 48.8965C11.1426 49.4434 11.2305 50.0195 11.25 50.625V60H0V50.625C0 50.0391 0.0878906 49.4727 0.263672 48.9258C0.439453 48.3789 0.693359 47.8613 1.02539 47.373C1.35742 46.8848 1.74805 46.4746 2.19727 46.1426C2.64648 45.8105 3.16406 45.5371 3.75 45.3223V26.25L0 24.375L30 9.375L60 24.375L46.3477 31.2012ZM7.5 50.625C7.5 50.1172 7.31445 49.6777 6.94336 49.3066C6.57227 48.9355 6.13281 48.75 5.625 48.75C5.11719 48.75 4.67773 48.9355 4.30664 49.3066C3.93555 49.6777 3.75 50.1172 3.75 50.625V56.25H7.5V50.625ZM8.37891 24.375L30 35.1855L51.6211 24.375L30 13.5645L8.37891 24.375ZM45 41.0156C45 39.5117 44.8535 38.1152 44.5605 36.8262C44.2676 35.5371 43.75 34.2188 43.0078 32.8711L30 39.375L16.9922 32.8711C16.3477 34.0039 15.8594 35.1953 15.5273 36.4453C15.1953 37.6953 15.0195 38.9844 15 40.3125V41.0156L30 48.5156L45 41.0156Z" fill="white"/>
</svg>
