<svg width="60" height="60" viewBox="0 0 60 60" fill="none" xmlns="http://www.w3.org/2000/svg">
<path d="M15 40H35V38.625C35 36.1667 33.8233 34.5317 31.47 33.72C29.115 32.9067 26.9583 32.5 25 32.5C23.0417 32.5 20.8858 32.9067 18.5325 33.72C16.1775 34.5317 15 36.1667 15 38.625V40ZM25 30C26.375 30 27.5525 29.51 28.5325 28.53C29.5108 27.5517 30 26.375 30 25C30 23.625 29.5108 22.4475 28.5325 21.4675C27.5525 20.4892 26.375 20 25 20C23.625 20 22.4483 20.4892 21.47 21.4675C20.49 22.4475 20 23.625 20 25C20 26.375 20.49 27.5517 21.47 28.53C22.4483 29.51 23.625 30 25 30ZM10 50C8.625 50 7.44833 49.5108 6.47 48.5325C5.49 47.5525 5 46.375 5 45V15C5 13.625 5.49 12.4483 6.47 11.47C7.44833 10.49 8.625 10 10 10H40C41.375 10 42.5525 10.49 43.5325 11.47C44.5108 12.4483 45 13.625 45 15V26.25L52.875 18.375C53.25 18 53.6983 17.9058 54.22 18.0925C54.74 18.2808 55 18.6667 55 19.25V40.75C55 41.3333 54.74 41.7183 54.22 41.905C53.6983 42.0933 53.25 42 52.875 41.625L45 33.75V45C45 46.375 44.5108 47.5525 43.5325 48.5325C42.5525 49.5108 41.375 50 40 50H10ZM10 45H40V15H10V45ZM10 45V15V45Z" fill="white"/>
</svg>
