<svg width="60" height="60" viewBox="0 0 60 60" fill="none" xmlns="http://www.w3.org/2000/svg">
<g clip-path="url(#clip0_423_3529)">
<path d="M58.0781 15.6563L53.5547 11.1328C53.2931 10.8712 52.9825 10.6637 52.6407 10.5221C52.2988 10.3805 51.9325 10.3076 51.5625 10.3076C51.1925 10.3076 50.8262 10.3805 50.4843 10.5221C50.1425 10.6637 49.8319 10.8712 49.5703 11.1328C49.3087 11.3944 49.1012 11.705 48.9596 12.0468C48.818 12.3887 48.7451 12.755 48.7451 13.125C48.7451 13.495 48.818 13.8613 48.9596 14.2032C49.1012 14.545 49.3087 14.8556 49.5703 15.1172L54.0938 19.6406C54.1823 19.7255 54.2528 19.8274 54.3011 19.9402C54.3494 20.0529 54.3746 20.1742 54.375 20.2969V39.375C54.375 39.6236 54.2762 39.8621 54.1004 40.0379C53.9246 40.2137 53.6861 40.3125 53.4375 40.3125H52.5C52.2514 40.3125 52.0129 40.2137 51.8371 40.0379C51.6613 39.8621 51.5625 39.6236 51.5625 39.375V30C51.5563 28.2614 50.8629 26.5958 49.6336 25.3664C48.4042 24.1371 46.7386 23.4437 45 23.4375H42.1875V13.125C42.1813 11.3864 41.4879 9.72081 40.2586 8.49143C39.0292 7.26206 37.3636 6.56868 35.625 6.5625H16.875C15.1364 6.56868 13.4708 7.26206 12.2414 8.49143C11.0121 9.72081 10.3187 11.3864 10.3125 13.125V47.8125H7.5C6.75408 47.8125 6.03871 48.1088 5.51126 48.6363C4.98382 49.1637 4.6875 49.8791 4.6875 50.625C4.6875 51.3709 4.98382 52.0863 5.51126 52.6137C6.03871 53.1412 6.75408 53.4375 7.5 53.4375H45C45.7459 53.4375 46.4613 53.1412 46.9887 52.6137C47.5162 52.0863 47.8125 51.3709 47.8125 50.625C47.8125 49.8791 47.5162 49.1637 46.9887 48.6363C46.4613 48.1088 45.7459 47.8125 45 47.8125H42.1875V29.0625H45C45.2486 29.0625 45.4871 29.1613 45.6629 29.3371C45.8387 29.5129 45.9375 29.7514 45.9375 30V39.375C45.9437 41.1136 46.6371 42.7792 47.8664 44.0086C49.0958 45.2379 50.7614 45.9313 52.5 45.9375H53.4375C55.1761 45.9313 56.8417 45.2379 58.0711 44.0086C59.3004 42.7792 59.9938 41.1136 60 39.375V20.2969C60.0026 19.4347 59.8341 18.5805 59.5042 17.7839C59.1743 16.9873 58.6896 16.2641 58.0781 15.6563ZM15.9375 47.8125V13.125C15.9375 12.8764 16.0363 12.6379 16.2121 12.4621C16.3879 12.2863 16.6264 12.1875 16.875 12.1875H35.625C35.8736 12.1875 36.1121 12.2863 36.2879 12.4621C36.4637 12.6379 36.5625 12.8764 36.5625 13.125V47.8125H15.9375ZM32.8125 26.25C32.8125 26.9959 32.5162 27.7113 31.9887 28.2387C31.4613 28.7662 30.7459 29.0625 30 29.0625H22.5C21.7541 29.0625 21.0387 28.7662 20.5113 28.2387C19.9838 27.7113 19.6875 26.9959 19.6875 26.25C19.6875 25.5041 19.9838 24.7887 20.5113 24.2613C21.0387 23.7338 21.7541 23.4375 22.5 23.4375H30C30.7459 23.4375 31.4613 23.7338 31.9887 24.2613C32.5162 24.7887 32.8125 25.5041 32.8125 26.25Z" fill="white"/>
</g>
<defs>
<clipPath id="clip0_423_3529">
<rect width="60" height="60" fill="white"/>
</clipPath>
</defs>
</svg>
