<svg width="75" height="60" viewBox="0 0 75 60" fill="none" xmlns="http://www.w3.org/2000/svg">
<path d="M64.9997 0C59.6996 0 55.4056 4.22423 55.1039 9.45336L37.5267 21.6667H6.66677C3.01635 21.6667 0 24.6835 0 28.3334C0 31.1538 1.81993 33.5411 4.32304 34.505C4.94385 40.1557 8.14325 45.0378 12.5523 48.6458C12.5163 48.8173 12.4988 48.9916 12.5 49.1666V57.4999C12.5 58.1625 12.7633 58.7985 13.2324 59.2676C13.7009 59.7361 14.3368 59.9994 15.0001 60H44.9999C45.6631 59.9994 46.299 59.7361 46.7676 59.2676C47.2367 58.7985 47.5 58.1626 47.5 57.4999V49.1666C47.4994 49.0004 47.482 48.8347 47.4483 48.6719V48.6458C51.8567 45.0378 55.0561 40.1555 55.6769 34.505C58.1805 33.5412 60 31.1538 60 28.3334C60 26.5081 59.2571 24.8562 58.0468 23.646L64.0102 20.0002C64.3508 20.0019 64.7391 20.0042 65.0263 20.0002C70.474 19.9205 74.9999 15.4935 74.9999 10.0004C74.9999 4.50667 70.4932 2.27064e-06 65.0001 2.27064e-06L64.9997 0ZM64.9997 5.00026C67.7904 5.00026 69.9994 7.20918 69.9994 10.0005C69.9994 12.7913 67.8084 14.9588 64.9736 15.0002C64.5958 15.006 64.1796 15.0002 63.3333 15.0002C62.8735 15.0002 62.423 15.1263 62.0313 15.3647L51.7967 21.667H46.2762L58.9319 12.8653C59.6038 12.3956 60.0026 11.6271 59.9997 10.8075C59.9997 10.8075 59.9974 10.167 59.9997 10.0263V10.0007C59.9997 7.20937 62.2086 5.00046 65 5.00046L64.9997 5.00026ZM6.66677 26.6668H53.3331C54.2998 26.6668 55.0002 27.3666 55.0002 28.3333C55.0002 29.3 54.2998 29.9998 53.3331 29.9998C52.6704 29.9998 52.0345 30.2631 51.5654 30.7322C51.0969 31.2007 50.8336 31.8366 50.8336 32.4999C50.8336 38.361 46.9169 43.7454 41.25 46.9791C40.5949 47.3413 40.1368 47.9789 40.0014 48.7154C39.8666 49.4519 40.0688 50.2105 40.5525 50.7819C41.0367 51.3539 41.7511 51.6782 42.5004 51.6666V54.9996H17.5005V51.6666C18.2492 51.6782 18.9636 51.3539 19.4479 50.7819C19.9315 50.2105 20.1338 49.4519 19.9989 48.7154C19.8635 47.9789 19.4054 47.3413 18.7503 46.9791C13.084 43.7455 9.16735 38.361 9.16735 32.4999C9.16676 31.8367 8.90345 31.2007 8.43493 30.7322C7.96584 30.2631 7.3299 29.9998 6.66723 29.9998C5.70055 29.9998 5.00072 29.2999 5.00072 28.3333C5.00072 27.3666 5.70058 26.6668 6.66723 26.6668H6.66677ZM26.4062 28.3333C25.7895 28.3978 25.2186 28.6896 24.8047 29.1517C24.3909 29.6133 24.1636 30.2131 24.1665 30.8334V35H19.9998C19.3372 35 18.7013 35.2634 18.2321 35.7319C17.7636 36.201 17.5003 36.8369 17.5003 37.4996V44.1664C17.5003 44.8296 17.7636 45.4655 18.2321 45.934C18.7012 46.4031 19.3372 46.6665 19.9998 46.6665H24.1665V50.8331C24.1671 51.4963 24.4304 52.1317 24.8989 52.6008C25.368 53.0699 26.0039 53.3332 26.6666 53.3332H33.3334C33.9966 53.3332 34.632 53.0699 35.1011 52.6008C35.5702 52.1317 35.8335 51.4964 35.8335 50.8331V46.6665H40.0001C40.6628 46.6665 41.2987 46.4031 41.7678 45.934C42.2363 45.4655 42.4997 44.8296 42.5002 44.1664V37.4996C42.4997 36.8369 42.2363 36.201 41.7678 35.7319C41.2987 35.2634 40.6628 35 40.0001 35H35.8335V30.8334C35.8335 30.1702 35.5702 29.5342 35.1011 29.0657C34.632 28.5966 33.9966 28.3333 33.3334 28.3333H26.6666C26.58 28.3286 26.4928 28.3286 26.4062 28.3333L26.4062 28.3333ZM29.1668 33.3329H30.8333V37.4996C30.8333 38.1628 31.0966 38.7988 31.5657 39.2673C32.0348 39.7364 32.6701 39.9997 33.3334 39.9997H37.5V41.6662H33.3334C32.6701 41.6668 32.0348 41.9301 31.5657 42.3986C31.0966 42.8677 30.8333 43.5037 30.8333 44.1663V48.333H29.1668V44.1663C29.1668 43.5037 28.9034 42.8677 28.4343 42.3986C27.9658 41.9301 27.3299 41.6668 26.6666 41.6662H22.5V39.9997H26.6666C27.3299 39.9997 27.9658 39.7364 28.4343 39.2673C28.9034 38.7988 29.1668 38.1628 29.1668 37.4996V33.3329Z" fill="white"/>
</svg>
