<svg width="60" height="60" viewBox="0 0 60 60" fill="none" xmlns="http://www.w3.org/2000/svg">
<path fill-rule="evenodd" clip-rule="evenodd" d="M48.75 10H11.25C10.9185 10 10.6005 10.1317 10.3661 10.3661C10.1317 10.6005 10 10.9185 10 11.25V48.75C10 49.0815 10.1317 49.3995 10.3661 49.6339C10.6005 49.8683 10.9185 50 11.25 50H48.75C49.0815 50 49.3995 49.8683 49.6339 49.6339C49.8683 49.3995 50 49.0815 50 48.75V11.25C50 10.9185 49.8683 10.6005 49.6339 10.3661C49.3995 10.1317 49.0815 10 48.75 10ZM11.25 7.5C10.2554 7.5 9.30161 7.89509 8.59835 8.59835C7.89509 9.30161 7.5 10.2554 7.5 11.25V48.75C7.5 49.7446 7.89509 50.6984 8.59835 51.4016C9.30161 52.1049 10.2554 52.5 11.25 52.5H48.75C49.7446 52.5 50.6984 52.1049 51.4016 51.4016C52.1049 50.6984 52.5 49.7446 52.5 48.75V11.25C52.5 10.2554 52.1049 9.30161 51.4016 8.59835C50.6984 7.89509 49.7446 7.5 48.75 7.5H11.25Z" fill="white"/>
<path d="M42.4879 43.2937C41.9679 43.82 41.4517 44.3438 40.9667 45.0088V46.25H33.7504V45.0088C33.8729 44.0425 34.4967 42.3012 34.5154 41.8175C34.5404 41.1375 35.4979 39.8962 35.4979 39.8962L38.4329 36.3613C38.4329 36.3613 39.2629 35.5237 39.7392 34.5938C40.2142 33.6637 41.2267 34.8337 41.3604 35.67C41.4942 36.5075 41.2392 36.9475 41.2392 36.9475L39.5617 40.1312C39.5617 40.1312 41.5054 37.5875 42.1092 36.565C42.4154 36.0475 42.5004 34.95 42.5967 33.725C42.6892 32.53 42.7917 31.2138 43.1167 30.19C43.7754 28.115 45.6817 28.635 46.0129 29.5613C46.3429 30.4888 46.2679 36.6138 46.1479 37.6338C46.0542 38.4338 45.5504 39.2162 44.9804 40.0975C44.8229 40.3425 44.6604 40.5938 44.5004 40.8563C43.8629 41.9 43.1717 42.6 42.4879 43.2937ZM35.0004 52.5C34.6689 52.5 34.351 52.3683 34.1166 52.1339C33.8821 51.8995 33.7504 51.5815 33.7504 51.25V48.75C33.7504 48.4185 33.8821 48.1005 34.1166 47.8661C34.351 47.6317 34.6689 47.5 35.0004 47.5H40.0004C40.332 47.5 40.6499 47.6317 40.8843 47.8661C41.1188 48.1005 41.2504 48.4185 41.2504 48.75V51.25C41.2504 51.5815 41.1188 51.8995 40.8843 52.1339C40.6499 52.3683 40.332 52.5 40.0004 52.5H35.0004ZM16.1967 43.2937C16.7179 43.82 17.2354 44.3438 17.7217 45.0088V46.25H25.0004V45.0088C24.8779 44.0425 24.6629 42.3012 24.6442 41.8175C24.6179 41.1375 23.6579 39.8962 23.6579 39.8962L20.7142 36.3613C20.7142 36.3613 19.8804 35.5237 19.4029 34.5938C18.9267 33.6637 17.9117 34.8337 17.7767 35.67C17.6417 36.5075 17.8979 36.9475 17.8979 36.9475L19.5804 40.1312C19.5804 40.1312 17.6304 37.5875 17.0242 36.565C16.7179 36.0475 16.6317 34.95 16.5367 33.725C16.4429 32.53 16.3404 31.2138 16.0142 30.19C15.3529 28.115 13.4392 28.635 13.1079 29.5613C12.7767 30.4888 12.4029 36.6138 12.5229 37.6338C12.6179 38.4338 13.1229 39.2162 13.6954 40.0975C13.8529 40.3425 14.0167 40.5938 14.1767 40.8563C14.8167 41.9 15.5104 42.6 16.1967 43.2937ZM23.7504 52.5C24.082 52.5 24.3999 52.3683 24.6343 52.1339C24.8688 51.8995 25.0004 51.5815 25.0004 51.25V48.75C25.0004 48.4185 24.8688 48.1005 24.6343 47.8661C24.3999 47.6317 24.082 47.5 23.7504 47.5H18.7504C18.4189 47.5 18.101 47.6317 17.8666 47.8661C17.6321 48.1005 17.5004 48.4185 17.5004 48.75V51.25C17.5004 51.5815 17.6321 51.8995 17.8666 52.1339C18.101 52.3683 18.4189 52.5 18.7504 52.5H23.7504ZM18.7504 21.5088C18.7504 17.4838 21.2729 13.75 24.7267 13.75C27.1242 13.75 28.9017 15.425 30.0004 17.8C31.0979 15.425 32.8767 13.75 35.2742 13.75C38.7279 13.75 41.2504 17.4838 41.2504 21.5088C41.2504 30.125 30.0004 36.25 30.0004 36.25C30.0004 36.25 18.7504 30.495 18.7504 21.5088Z" fill="white"/>
</svg>
