<svg width="60" height="60" viewBox="0 0 60 60" fill="none" xmlns="http://www.w3.org/2000/svg">
<path d="M17.5 55C16.125 55 14.9483 54.5108 13.97 53.5325C12.99 52.5525 12.5 51.375 12.5 50C12.5 48.625 12.99 47.4475 13.97 46.4675C14.9483 45.4892 16.125 45 17.5 45C18.875 45 20.0517 45.4892 21.03 46.4675C22.01 47.4475 22.5 48.625 22.5 50C22.5 51.375 22.01 52.5525 21.03 53.5325C20.0517 54.5108 18.875 55 17.5 55ZM42.5 55C41.125 55 39.9483 54.5108 38.97 53.5325C37.99 52.5525 37.5 51.375 37.5 50C37.5 48.625 37.99 47.4475 38.97 46.4675C39.9483 45.4892 41.125 45 42.5 45C43.875 45 45.0525 45.4892 46.0325 46.4675C47.0108 47.4475 47.5 48.625 47.5 50C47.5 51.375 47.0108 52.5525 46.0325 53.5325C45.0525 54.5108 43.875 55 42.5 55ZM15.375 15L21.375 27.5H38.875L45.75 15H15.375ZM13 10H49.875C50.8333 10 51.5625 10.4267 52.0625 11.28C52.5625 12.135 52.5833 13 52.125 13.875L43.25 29.875C42.7917 30.7083 42.1767 31.3542 41.405 31.8125C40.635 32.2708 39.7917 32.5 38.875 32.5H20.25L17.5 37.5H47.5V42.5H17.5C15.625 42.5 14.2083 41.6767 13.25 40.03C12.2917 38.385 12.25 36.75 13.125 35.125L16.5 29L7.5 10H2.5V5H10.625L13 10ZM21.375 27.5H38.875H21.375Z" fill="white"/>
</svg>
