<svg width="60" height="60" viewBox="0 0 60 60" fill="none" xmlns="http://www.w3.org/2000/svg">
<path d="M17.5005 35C16.4093 35.0016 15.3315 35.2414 14.3424 35.7025C13.3533 36.1637 12.4768 36.8351 11.774 37.67C11.0712 38.5048 10.5591 39.483 10.2734 40.5362C9.98764 41.5895 9.93518 42.6923 10.1197 43.7679C10.3042 44.8435 10.7212 45.8659 11.3415 46.7637C11.9619 47.6615 12.7708 48.413 13.7116 48.966C14.6524 49.5189 15.7026 49.8599 16.7888 49.9651C17.875 50.0703 18.9711 49.9371 20.0005 49.575" stroke="white" stroke-width="3.75" stroke-linecap="round" stroke-linejoin="round"/>
<path d="M10.6603 39.0125C9.16418 38.2922 7.87098 37.2107 6.8974 35.8657C5.92382 34.5206 5.30049 32.9543 5.08367 31.308C4.86685 29.6618 5.06337 27.9875 5.65549 26.4362C6.24761 24.8849 7.21669 23.5055 8.47527 22.4225M8.55027 22.22C7.73038 20.9931 7.37102 19.5157 7.53582 18.0493C7.70062 16.5829 8.37895 15.2221 9.45071 14.2078C10.5225 13.1935 11.9186 12.5912 13.3918 12.5074C14.865 12.4236 16.3204 12.8637 17.5003 13.75M18.0953 13.9125C17.6965 13.0651 17.4932 12.1389 17.5005 11.2024C17.5077 10.2658 17.7254 9.34294 18.1374 8.50185C18.5493 7.66077 19.145 6.92302 19.8804 6.34314C20.6159 5.76325 21.4722 5.35606 22.3862 5.15165C23.3002 4.94725 24.2484 4.95086 25.1608 5.16222C26.0731 5.37357 26.9264 5.78728 27.6574 6.37275C28.3884 6.95821 28.9784 7.70048 29.384 8.54467C29.7895 9.38887 30.0001 10.3134 30.0003 11.25V50M20.0003 50C20.0003 51.326 20.5271 52.5978 21.4647 53.5355C22.4024 54.4732 23.6742 55 25.0003 55C26.3264 55 27.5981 54.4732 28.5358 53.5355C29.4735 52.5978 30.0003 51.326 30.0003 50M30.0003 17.5C30.0003 19.4891 30.7904 21.3967 32.197 22.8033C33.6035 24.2098 35.5111 25 37.5003 25M51.5253 22.4225C52.6168 23.3601 53.4925 24.5228 54.0923 25.8308C54.6921 27.1388 55.0019 28.561 55.0003 30C55.0003 31.7575 54.5478 33.41 53.7503 34.845M51.4503 22.22C52.2702 20.9931 52.6295 19.5157 52.4647 18.0493C52.2999 16.5829 51.6216 15.2221 50.5498 14.2078C49.4781 13.1935 48.082 12.5912 46.6088 12.5074C45.1355 12.4236 43.6801 12.8637 42.5003 13.75M30.0003 11.25C30.0004 10.3134 30.2111 9.38887 30.6166 8.54467C31.0221 7.70048 31.6122 6.95821 32.3432 6.37275C33.0742 5.78728 33.9274 5.37357 34.8398 5.16222C35.7522 4.95086 36.7004 4.94725 37.6144 5.15165C38.5283 5.35606 39.3847 5.76325 40.1201 6.34314C40.8555 6.92302 41.4512 7.66077 41.8632 8.50185C42.2751 9.34294 42.4928 10.2658 42.5001 11.2024C42.5074 12.1389 42.3041 13.0651 41.9053 13.9125M35.0003 55C33.6742 55 32.4024 54.4732 31.4647 53.5355C30.5271 52.5978 30.0003 51.326 30.0003 50M51.2503 51.25L55.0003 55M40.0003 46.25C40.0003 47.9076 40.6588 49.4973 41.8309 50.6694C43.003 51.8415 44.5927 52.5 46.2503 52.5C47.9079 52.5 49.4976 51.8415 50.6697 50.6694C51.8418 49.4973 52.5003 47.9076 52.5003 46.25C52.5003 44.5924 51.8418 43.0026 50.6697 41.8305C49.4976 40.6584 47.9079 40 46.2503 40C44.5927 40 43.003 40.6584 41.8309 41.8305C40.6588 43.0026 40.0003 44.5924 40.0003 46.25Z" stroke="white" stroke-width="3.75" stroke-linecap="round" stroke-linejoin="round"/>
</svg>
