<svg width="60" height="60" viewBox="0 0 60 60" fill="none" xmlns="http://www.w3.org/2000/svg">
<path d="M15 35.625C18.1066 35.625 20.625 33.1066 20.625 30C20.625 26.8934 18.1066 24.375 15 24.375C11.8934 24.375 9.375 26.8934 9.375 30C9.375 33.1066 11.8934 35.625 15 35.625Z" stroke="white" stroke-width="3.75" stroke-linecap="round" stroke-linejoin="round"/>
<path d="M45 18.75C48.1066 18.75 50.625 16.2316 50.625 13.125C50.625 10.0184 48.1066 7.5 45 7.5C41.8934 7.5 39.375 10.0184 39.375 13.125C39.375 16.2316 41.8934 18.75 45 18.75Z" stroke="white" stroke-width="3.75" stroke-linecap="round" stroke-linejoin="round"/>
<path d="M45 52.5C48.1066 52.5 50.625 49.9816 50.625 46.875C50.625 43.7684 48.1066 41.25 45 41.25C41.8934 41.25 39.375 43.7684 39.375 46.875C39.375 49.9816 41.8934 52.5 45 52.5Z" stroke="white" stroke-width="3.75" stroke-linecap="round" stroke-linejoin="round"/>
<path d="M19.9023 32.7578L40.0984 44.118M40.0984 15.8828L19.9023 27.243" stroke="white" stroke-width="3.75" stroke-linecap="round" stroke-linejoin="round"/>
</svg>
