<svg width="60" height="60" viewBox="0 0 60 60" fill="none" xmlns="http://www.w3.org/2000/svg">
<path d="M30 5C16.2 5 5 16.2 5 30C5 43.8 16.2 55 30 55C43.8 55 55 43.8 55 30C55 16.2 43.8 5 30 5ZM32.5 13.25L35.875 10.875C40.3973 12.2764 44.2769 15.2347 46.825 19.225L45.85 22.575L42.475 23.725L32.5 16.75V13.25ZM24.125 10.875L27.5 13.25V16.75L17.525 23.725L14.15 22.575L13.175 19.225C15.738 15.2484 19.6119 12.2943 24.125 10.875ZM17.7 42.775L14.85 43.025C11.7161 39.4099 9.99374 34.7844 10 30C10 29.7 10.025 29.425 10.05 29.125L12.55 27.3L16 28.5L19.65 39.35L17.7 42.775ZM36.25 48.975C34.275 49.625 32.175 50 30 50C27.825 50 25.725 49.625 23.75 48.975L22.025 45.25L23.625 42.5H36.4L38 45.275L36.25 48.975ZM35.675 37.5H24.325L20.95 27.45L30 21.1L39.075 27.45L35.675 37.5ZM45.15 43.025L42.3 42.775L40.325 39.35L43.975 28.5L47.45 27.325L49.95 29.15C49.975 29.425 50 29.7 50 30C50 34.975 48.175 39.525 45.15 43.025Z" fill="white"/>
</svg>
