<svg width="60" height="60" viewBox="0 0 60 60" fill="none" xmlns="http://www.w3.org/2000/svg">
<path d="M30 54.1875C29.7083 54.1875 29.4167 54.1458 29.125 54.0625C28.8333 53.9792 28.5833 53.8333 28.375 53.625C22.2083 48.1667 17.6042 43.125 14.5625 38.5C11.5208 33.875 10 29.5417 10 25.5C10 19.25 12.0108 14.2708 16.0325 10.5625C20.0525 6.85417 24.7083 5 30 5C35.2917 5 39.9475 6.85417 43.9675 10.5625C47.9892 14.2708 50 19.25 50 25.5L53.5 22C53.9583 21.5417 54.5417 21.3125 55.25 21.3125C55.9583 21.3125 56.5417 21.5417 57 22C57.4583 22.4583 57.6875 23.0417 57.6875 23.75C57.6875 24.4583 57.4583 25.0417 57 25.5L49.25 33.25C49 33.5 48.7292 33.6767 48.4375 33.78C48.1458 33.885 47.8333 33.9375 47.5 33.9375C47.1667 33.9375 46.8542 33.885 46.5625 33.78C46.2708 33.6767 46 33.5 45.75 33.25L38 25.5C37.5417 25.0417 37.3125 24.4583 37.3125 23.75C37.3125 23.0417 37.5417 22.4583 38 22C38.4583 21.5417 39.0417 21.3125 39.75 21.3125C40.4583 21.3125 41.0417 21.5417 41.5 22L45 25.5C45 20.9583 43.5517 17.2392 40.655 14.3425C37.76 11.4475 34.2083 10 30 10C25.7917 10 22.2392 11.4475 19.3425 14.3425C16.4475 17.2392 15 20.9583 15 25.5C15 28.4583 16.2292 31.8433 18.6875 35.655C21.1458 39.4683 24.9167 43.7083 30 48.375C30.8333 47.625 31.6042 46.8958 32.3125 46.1875L34.4375 44.0625C34.2292 43.6458 34.0625 43.1975 33.9375 42.7175C33.8125 42.2392 33.75 41.75 33.75 41.25C33.75 39.5 34.3542 38.0208 35.5625 36.8125C36.7708 35.6042 38.25 35 40 35C41.75 35 43.2292 35.6042 44.4375 36.8125C45.6458 38.0208 46.25 39.5 46.25 41.25C46.25 43 45.6458 44.4792 44.4375 45.6875C43.2292 46.8958 41.75 47.5 40 47.5C39.6667 47.5 39.365 47.4792 39.095 47.4375C38.8233 47.3958 38.5417 47.3333 38.25 47.25C37.2917 48.2917 36.26 49.3442 35.155 50.4075C34.0517 51.4692 32.875 52.5417 31.625 53.625C31.4167 53.8333 31.1775 53.9792 30.9075 54.0625C30.6358 54.1458 30.3333 54.1875 30 54.1875Z" fill="white"/>
</svg>
