<svg width="80" height="80" viewBox="0 0 80 80" fill="none" xmlns="http://www.w3.org/2000/svg">
<path d="M22.5446 33.4682C22.5446 34.4527 22.651 35.2509 22.8373 35.8363C23.0501 36.4216 23.3162 37.0602 23.6887 37.752C23.8217 37.9648 23.875 38.1777 23.875 38.3639C23.875 38.63 23.7153 38.8961 23.3694 39.1622L21.6932 40.2797C21.4537 40.4393 21.2142 40.5191 21.0014 40.5191C20.7353 40.5191 20.4692 40.3861 20.2032 40.1466C19.8307 39.7475 19.5114 39.3218 19.2453 38.8961C18.9792 38.4438 18.7132 37.9382 18.4205 37.3263C16.3451 39.7741 13.7376 40.998 10.598 40.998C8.36298 40.998 6.5803 40.3595 5.27655 39.0823C3.9728 37.8052 3.30762 36.1023 3.30762 33.9738C3.30762 31.7122 4.10583 29.8763 5.72887 28.4927C7.3519 27.1091 9.50708 26.4173 12.2476 26.4173C13.1523 26.4173 14.0835 26.4971 15.068 26.6302C16.0524 26.7632 17.0635 26.9761 18.1278 27.2155V25.2732C18.1278 23.2511 17.7021 21.8409 16.8773 21.0161C16.0258 20.1913 14.5891 19.7921 12.5403 19.7921C11.6091 19.7921 10.6512 19.8986 9.66673 20.138C8.68226 20.3775 7.72441 20.6702 6.79316 21.0427C6.36744 21.2289 6.04815 21.3354 5.8619 21.3886C5.67565 21.4418 5.54262 21.4684 5.43619 21.4684C5.06369 21.4684 4.87744 21.2023 4.87744 20.6436V19.3398C4.87744 18.9141 4.93065 18.5948 5.06369 18.4086C5.19673 18.2223 5.43619 18.0361 5.80869 17.8498C6.73994 17.3709 7.85744 16.9718 9.16119 16.6525C10.4649 16.3066 11.8485 16.147 13.3119 16.147C16.4782 16.147 18.793 16.8654 20.283 18.3021C21.7464 19.7389 22.4914 21.9207 22.4914 24.8475V33.4682H22.5446ZM11.7421 37.5125C12.6201 37.5125 13.5248 37.3529 14.4826 37.0336C15.4405 36.7143 16.2919 36.1289 17.0103 35.3307C17.436 34.8252 17.7553 34.2664 17.9149 33.6279C18.0746 32.9893 18.181 32.2177 18.181 31.313V30.1955C17.4094 30.0093 16.5846 29.8497 15.7332 29.7432C14.8817 29.6368 14.0569 29.5836 13.2321 29.5836C11.4494 29.5836 10.1457 29.9295 9.26762 30.6479C8.38958 31.3663 7.96387 32.3773 7.96387 33.7077C7.96387 34.9582 8.28316 35.8895 8.94833 36.528C9.58691 37.1932 10.5182 37.5125 11.7421 37.5125ZM33.1076 40.3861C32.6287 40.3861 32.3094 40.3063 32.0966 40.12C31.8837 39.9604 31.6975 39.5879 31.5378 39.0823L25.2851 18.515C25.1255 17.9829 25.0457 17.637 25.0457 17.4507C25.0457 17.025 25.2585 16.7855 25.6842 16.7855H28.2917C28.7973 16.7855 29.1432 16.8654 29.3294 17.0516C29.5423 17.2113 29.7019 17.5838 29.8616 18.0893L34.3316 35.7032L38.4823 18.0893C38.6153 17.5571 38.775 17.2113 38.9878 17.0516C39.2007 16.892 39.5732 16.7855 40.0521 16.7855H42.1807C42.6862 16.7855 43.0321 16.8654 43.245 17.0516C43.4578 17.2113 43.6441 17.5838 43.7505 18.0893L47.9544 35.9161L52.5575 18.0893C52.7171 17.5571 52.9034 17.2113 53.0896 17.0516C53.3025 16.892 53.6484 16.7855 54.1273 16.7855H56.6018C57.0275 16.7855 57.2669 16.9984 57.2669 17.4507C57.2669 17.5838 57.2403 17.7168 57.2137 17.8764C57.1871 18.0361 57.1339 18.2489 57.0275 18.5416L50.6151 39.1089C50.4555 39.6411 50.2693 39.987 50.0564 40.1466C49.8435 40.3063 49.4977 40.4127 49.0453 40.4127H46.7571C46.2516 40.4127 45.9057 40.3329 45.6928 40.1466C45.48 39.9604 45.2937 39.6145 45.1873 39.0823L41.0632 21.9207L36.9657 39.0557C36.8326 39.5879 36.673 39.9338 36.4601 40.12C36.2473 40.3063 35.8748 40.3861 35.3959 40.3861H33.1076ZM67.2978 41.1045C65.9143 41.1045 64.5307 40.9448 63.2003 40.6255C61.87 40.3063 60.8323 39.9604 60.1405 39.5613C59.7148 39.3218 59.4221 39.0557 59.3157 38.8163C59.2093 38.5768 59.156 38.3107 59.156 38.0713V36.7143C59.156 36.1555 59.3689 35.8895 59.768 35.8895C59.9277 35.8895 60.0873 35.9161 60.2469 35.9693C60.4066 36.0225 60.646 36.1289 60.9121 36.2354C61.8168 36.6345 62.8012 36.9538 63.8389 37.1666C64.9032 37.3795 65.9409 37.4859 67.0052 37.4859C68.6814 37.4859 69.9852 37.1932 70.8898 36.6079C71.7944 36.0225 72.2734 35.1711 72.2734 34.0802C72.2734 33.3352 72.0339 32.7232 71.555 32.2177C71.0761 31.7122 70.1714 31.2598 68.8677 30.8341L65.0096 29.6368C63.0673 29.0248 61.6305 28.1202 60.7525 26.9229C59.8744 25.7521 59.4221 24.4484 59.4221 23.0648C59.4221 21.9473 59.6616 20.9629 60.1405 20.1114C60.6194 19.26 61.258 18.515 62.0562 17.9296C62.8544 17.3177 63.7591 16.8654 64.8234 16.5461C65.8877 16.2268 67.0052 16.0938 68.1759 16.0938C68.7612 16.0938 69.3732 16.1204 69.9586 16.2002C70.5705 16.28 71.1293 16.3864 71.688 16.4929C72.2202 16.6259 72.7257 16.7589 73.2046 16.9186C73.6836 17.0782 74.0561 17.2379 74.3221 17.3975C74.6946 17.6104 74.9607 17.8232 75.1203 18.0627C75.28 18.2755 75.3598 18.5682 75.3598 18.9407V20.1913C75.3598 20.75 75.1469 21.0427 74.7478 21.0427C74.535 21.0427 74.1891 20.9363 73.7368 20.7234C72.2202 20.0316 70.5173 19.6857 68.6282 19.6857C67.1116 19.6857 65.9143 19.9252 65.0894 20.4307C64.2646 20.9363 63.8389 21.7079 63.8389 22.7988C63.8389 23.5438 64.105 24.1823 64.6371 24.6879C65.1693 25.1934 66.1537 25.6989 67.5639 26.1513L71.3421 27.3486C73.2578 27.9605 74.6414 28.812 75.4662 29.9029C76.2911 30.9938 76.6902 32.2443 76.6902 33.6279C76.6902 34.772 76.4507 35.8097 75.9984 36.7143C75.5194 37.6189 74.8809 38.4172 74.0561 39.0557C73.2312 39.7209 72.2468 40.1998 71.1027 40.5457C69.9053 40.9182 68.6548 41.1045 67.2978 41.1045Z" fill="white"/>
<path d="M72.3268 54.0352C63.573 60.5008 50.8548 63.9331 39.9193 63.9331C24.5935 63.9331 10.7844 58.2658 0.354412 48.8468C-0.47041 48.1018 0.27459 47.0907 1.25906 47.6761C12.5405 54.2215 26.456 58.1859 40.8505 58.1859C50.5621 58.1859 61.2316 56.1638 71.0496 52.0131C72.513 51.3479 73.7636 52.9709 72.3268 54.0352ZM75.972 49.8845C74.8545 48.4477 68.5752 49.1927 65.7282 49.5386C64.8768 49.645 64.7437 48.9 65.5153 48.3413C70.5175 44.8291 78.7391 45.8402 79.697 47.0109C80.6548 48.2082 79.4309 56.4299 74.748 60.3677C74.0296 60.9797 73.3379 60.6604 73.6571 59.8622C74.7214 57.2281 77.0895 51.2947 75.972 49.8845Z" fill="#FF9900"/>
</svg>
