<svg width="80" height="80" viewBox="0 0 80 80" fill="none" xmlns="http://www.w3.org/2000/svg">
<path fill-rule="evenodd" clip-rule="evenodd" d="M74.64 23.9189C74.6395 22.6087 74.3593 21.4509 73.7926 20.4573C73.2359 19.4802 72.4023 18.6612 71.2842 18.0137C62.0543 12.6917 52.8155 7.38601 43.5886 2.05859C41.1011 0.622498 38.6892 0.674852 36.2202 2.13156C32.5464 4.29817 14.1531 14.8361 8.67215 18.0107C6.41493 19.3174 5.31657 21.3172 5.31603 23.9165C5.3125 34.6194 5.31603 45.3219 5.3125 56.0251C5.31304 57.3065 5.58133 58.4418 6.12305 59.4205C6.67996 60.4272 7.52523 61.2687 8.66916 61.9308C14.1504 65.1055 32.5461 75.6426 36.2191 77.8097C38.6892 79.2672 41.1011 79.3193 43.5894 77.8827C52.8166 72.555 62.0559 67.2496 71.2872 61.9276C72.4311 61.2657 73.2764 60.4237 73.8333 59.4178C74.3742 58.4391 74.643 57.3038 74.6436 56.0221C74.6436 56.0221 74.6436 34.6221 74.64 23.9189Z" fill="#5C8DBC"/>
<path fill-rule="evenodd" clip-rule="evenodd" d="M40.0841 39.8672L6.12305 59.4212C6.67996 60.4279 7.52523 61.2694 8.66916 61.9315C14.1504 65.1062 32.5461 75.6433 36.2191 77.8104C38.6892 79.268 41.1011 79.32 43.5894 77.8834C52.8166 72.5557 62.0559 67.2503 71.2872 61.9283C72.4311 61.2664 73.2764 60.4244 73.8333 59.4185L40.0841 39.8672Z" fill="#1A4674"/>
<path fill-rule="evenodd" clip-rule="evenodd" d="M30.0254 45.6593C32.0016 49.1093 35.7166 51.4362 39.9782 51.4362C44.2661 51.4362 48.0023 49.0797 49.9684 45.5928L40.0843 39.8672L30.0254 45.6593Z" fill="#1A4674"/>
<path fill-rule="evenodd" clip-rule="evenodd" d="M74.6399 23.9187C74.6394 22.6085 74.3592 21.4507 73.7925 20.457L40.084 39.8662L73.8332 59.4175C74.3741 58.4388 74.6429 57.3035 74.6434 56.0218C74.6434 56.0218 74.6434 34.6218 74.6399 23.9187Z" fill="#1B598E"/>
<path fill-rule="evenodd" clip-rule="evenodd" d="M72.7851 41.2645H70.1478V43.9023H67.51V41.2645H64.873V38.6275H67.51V35.9902H70.1478V38.6275H72.7851V41.2645Z" fill="white"/>
<path fill-rule="evenodd" clip-rule="evenodd" d="M63.1615 41.2645H60.5245V43.9023H57.8873V41.2645H55.25V38.6275H57.8873V35.9902H60.5245V38.6275H63.1615V41.2645Z" fill="white"/>
<path fill-rule="evenodd" clip-rule="evenodd" d="M49.9691 45.5923C48.003 49.0792 44.2668 51.4357 39.9789 51.4357C35.7173 51.4357 32.0023 49.1087 30.0261 45.6587C29.0661 43.9823 28.5141 42.0414 28.5141 39.9708C28.5141 33.6392 33.6472 28.5062 39.9789 28.5062C44.2131 28.5062 47.9086 30.8041 49.8945 34.2189L59.9154 28.4485C55.9324 21.5729 48.4961 16.9473 39.9789 16.9473C27.263 16.9473 16.9551 27.2554 16.9551 39.9708C16.9551 44.1424 18.0648 48.0543 20.0044 51.4286C23.9774 58.3405 31.4348 62.9946 39.9789 62.9946C48.5387 62.9946 56.0078 58.3218 59.9751 51.3895L49.9691 45.5923Z" fill="white"/>
</svg>
