<svg width="63" height="80" viewBox="0 0 63 80" fill="none" xmlns="http://www.w3.org/2000/svg">
<path d="M18.5994 49.4396C16.2289 47.5748 13.6997 45.7879 11.9718 43.2698C8.33441 38.8294 5.53459 33.6895 3.62046 28.2872C2.46319 24.7741 2.0669 21.0078 0.574108 17.6311C-0.985296 15.1777 0.842761 12.4977 3.52978 11.7183C4.72522 11.4878 6.8285 10.3592 4.28954 11.1669C2.01292 12.8362 1.79362 9.64977 4.12762 9.44797C5.72058 9.2367 6.307 7.9333 5.76167 6.75998C4.05104 5.64404 9.90816 4.41966 6.96076 2.75498C3.89252 -0.556379 11.2543 -1.19385 9.43772 2.56753C9.00349 5.45951 14.5837 2.03631 13.2878 5.3766C14.6044 6.98098 18.2165 5.7425 18.1258 7.9919C20.0431 8.12367 20.7012 9.73583 22.4991 9.85983C24.3656 10.7025 27.7458 11.3653 28.3798 13.4671C26.5296 14.9314 22.2465 10.4419 22.0396 14.496C22.5993 20.4861 22.4566 26.6564 24.6474 32.3603C25.6836 35.8137 28.197 38.532 30.4656 41.2222C32.6374 43.8562 35.5785 45.7118 38.577 47.2729C41.2064 48.5128 44.0412 49.3346 46.9077 49.8515C48.0698 48.9626 50.122 45.6576 51.9343 47.0502C52.0218 48.6181 48.337 50.3253 51.7614 50.152C53.774 49.5446 55.1683 51.7065 56.8247 49.7559C58.3511 51.5638 63.1679 48.6018 62.0823 52.2966C60.6133 53.2443 58.4719 52.6717 57.0015 53.9756C54.577 52.7641 52.6466 55.0582 49.9615 54.7689C46.9808 55.3028 43.9471 55.5177 40.9253 55.5221C35.9665 55.1309 30.9032 54.9658 26.1861 53.2392C23.528 52.467 20.9351 50.9533 18.5994 49.4396ZM22.787 51.2553C25.3816 52.3761 27.9191 53.5589 30.7632 53.9165C35.2751 54.543 39.9346 55.5095 44.4623 54.6289C42.4132 53.7038 40.2939 54.9882 38.2526 53.9676C35.8044 54.4937 33.1767 53.8324 30.6866 53.5064C27.8566 52.246 24.8015 51.3795 22.1512 49.7416C18.8379 48.532 23.8635 51.2934 24.7585 51.5178C26.8284 52.6921 22.4816 50.9149 21.8677 50.4269C20.1338 49.454 19.913 49.6574 21.6966 50.6448C22.0557 50.8548 22.4104 51.0758 22.787 51.2553ZM17.8491 47.7657C20.3642 48.6973 17.8379 45.9977 16.687 46.1538C16.1764 45.2681 14.7364 44.7084 15.7522 44.2331C13.9256 44.8676 13.838 41.8213 12.9798 42.2572C11.0465 41.6467 12.2276 39.4844 9.92397 38.1557C9.71391 36.7563 7.63616 35.5433 6.97486 33.4335C6.68238 32.3525 4.62676 29.251 5.88906 32.1376C6.96368 34.9165 8.85397 37.2984 10.428 39.6752C11.6489 41.9387 13.0926 44.3063 15.3167 45.7181C16.0672 46.4382 16.7905 47.5398 17.8491 47.7657ZM10.6062 39.8119C11.0657 40.6336 10.6932 39.4319 10.6062 39.8119ZM20.8619 48.8816C20.0606 48.567 21.4182 48.6322 20.8619 48.8816ZM22.2258 49.3796C21.6027 49.7642 22.0846 48.6925 22.2258 49.3796ZM23.935 50.0919C22.6805 49.6032 24.7473 49.3171 23.935 50.0919ZM26.8635 51.724C25.2814 51.4493 27.3577 50.9944 26.8635 51.724ZM21.2405 47.8041C19.6076 47.7927 22.5023 46.9867 21.2405 47.8041ZM22.5217 48.443C22.0654 48.6368 22.485 48.012 22.5217 48.443ZM28.9269 52.4412C29.957 53.0916 34.9413 53.8657 31.8205 52.7082C31.2971 52.8181 26.0334 51.2186 28.9269 52.4412ZM18.7586 44.5209C17.1589 44.0425 18.6585 44.0889 18.7586 44.5209ZM21.7394 46.2605C20.1289 45.8423 22.5166 45.7183 21.7394 46.2605ZM24.2479 47.7978C22.4422 47.3764 25.3624 47.3781 24.2479 47.7978ZM17.544 43.1998C18.7523 44.1264 22.4186 43.3189 19.3944 42.6467C18.0193 41.9137 14.9192 41.4116 17.0325 43.0887L17.544 43.1998ZM25.9478 48.3285C23.8363 47.8386 26.4516 47.4715 25.9478 48.3285ZM23.3943 46.2996C26.3483 47.1345 20.9096 44.43 22.6649 45.9914L23.0547 46.1679L23.3943 46.2996ZM28.514 49.2585C25.986 48.8724 31.3119 49.2852 28.514 49.2585ZM16.4679 41.5811C15.7779 41.6244 16.358 41.0598 16.4679 41.5811ZM33.2467 51.9134C32.334 52.6146 33.3213 50.9725 33.2467 51.9134ZM21.2436 44.5049C20.3693 44.4842 21.0734 44.0089 21.2436 44.5049ZM16.7332 41.2538C14.5329 40.5463 18.3393 41.1571 16.7332 41.2538ZM11.3898 37.8005C9.64267 36.4161 11.1897 37.0298 11.3898 37.8005ZM25.4169 46.7023C25.2783 46.7752 25.1227 46.3665 25.4169 46.7023ZM34.1463 52.06C33.671 52.2535 34.1195 51.5463 34.1463 52.06ZM24.6442 45.9041C23.274 45.7035 24.8018 45.2428 24.6442 45.9041ZM18.1401 41.7817C16.2243 40.974 19.3358 41.6543 18.1401 41.7817ZM29.142 48.6181C27.3264 48.2585 31.0051 47.8802 29.142 48.6181ZM23.4201 44.7342C25.5661 45.0104 20.8653 43.273 22.9479 44.5781L23.4201 44.7342ZM30.8792 49.3205C32.8842 48.1236 32.2229 52.1266 34.2802 49.6591C36.3086 48.1775 32.528 51.4906 35.0274 49.9232C36.8364 48.7131 39.5072 50.497 41.1942 51.0773C42.4069 51.0185 43.5868 52.1266 44.8314 51.4522C47.2257 50.8067 40.1481 50.4955 42.0031 49.3521C39.8125 49.99 38.1943 48.5923 37.1163 47.1885C34.6583 46.6208 31.8174 45.3651 30.5901 43.1886C30.0892 42.3732 31.3122 43.3048 30.1578 41.9693C28.6777 40.6528 27.9386 39.1566 26.9447 37.5559C25.757 36.923 25.6172 35.0583 25.4978 37.4941C25.5075 35.9566 24.0639 34.9216 23.7109 35.351C23.7045 33.8706 25.2564 34.6131 24.1704 33.5178C23.937 31.9835 23.1672 30.3844 22.9365 28.6514C22.5776 27.8168 22.8854 26.0284 21.7095 27.9184C21.2816 29.9169 21.5679 25.4638 22.2341 26.9313C23.1084 25.4337 21.919 25.6099 21.8714 25.8168C22.4408 24.5531 22.2324 22.7596 21.7221 23.4432C22.0258 22.1029 22.2023 18.5117 21.2692 19.1491C21.8349 17.747 22.3423 12.7355 19.8841 14.647C18.889 14.6611 17.1642 15.008 16.3502 15.4133C18.905 16.822 16.0925 15.9219 15.0512 15.6977C14.9161 17.0014 13.8859 16.4385 12.5981 16.4512C14.6554 16.7055 11.5964 18.5542 10.4187 17.836C8.88607 18.5673 11.7399 20.3956 10.4489 20.9614C10.6081 21.8121 8.10223 20.6534 8.29795 22.6215C6.81124 21.9947 8.09445 24.9552 8.83841 23.9538C11.3679 24.6389 10.6191 26.1986 10.6825 27.6816C10.2707 28.5447 8.64756 25.6515 10.3215 25.7852C9.00033 23.6402 8.86078 25.0092 7.76356 26.006C7.50925 26.0777 10.5617 27.4239 8.6461 28.0886C10.3312 28.3495 10.3806 29.8248 10.7241 30.7581C11.7367 31.8133 11.5281 29.5923 12.7415 30.8614C11.9733 29.7309 8.67771 27.6765 11.3314 28.3354C11.3168 27.1985 10.851 26.281 11.665 26.3031C12.4712 24.8453 10.8209 29.8994 12.6365 28.0458C13.1386 27.8265 13.2645 26.5863 14.1675 28.1635C15.4789 29.4545 14.6413 30.3888 12.7907 29.2063C13.1213 30.3302 15.2659 30.7307 14.8621 32.4877C15.2895 34.033 15.8876 33.4636 16.4088 33.3746C16.8173 34.8754 17.05 33.7721 17.0689 33.0566C18.94 33.4578 18.5012 34.564 19.0876 35.3367C20.3769 35.9182 17.242 31.3922 19.4552 33.9756C21.7838 36.0789 20.3295 36.9564 18.2391 36.6196C19.5617 36.5127 19.9874 38.4083 21.6428 38.3414C23.1514 39.0599 24.1738 41.8167 21.5728 40.6686C20.6713 39.8546 17.4771 38.8515 20.0863 40.3985C22.4933 41.5145 24.4074 42.1806 26.73 43.5815C28.3915 44.7675 29.1097 46.1263 29.7394 46.3954C28.3421 47.0628 25.5299 45.8628 27.6186 45.4956C26.315 45.2586 24.8494 44.599 26.0971 46.2221C27.1591 47.1093 29.8571 47.0152 30.3421 47.1153C29.9319 48.0185 29.2278 48.0903 30.3579 48.16C29.097 48.8325 30.7632 48.9376 30.8792 49.3205ZM28.3006 42.0377C27.5328 41.2349 27.3341 39.7326 28.1639 41.0389C28.5901 41.2108 29.5266 43.4957 28.3006 42.0377ZM36.6998 47.373C36.7139 47.7368 37.1783 47.3414 36.6998 47.373ZM27.0896 40.0696C27.3658 41.0056 27.0589 38.8564 27.0896 40.0696ZM26.2547 38.9471C27.4708 39.4749 25.2882 37.0823 26.2547 38.9471ZM16.137 31.9648C16.4169 32.9341 16.7047 31.8133 16.137 31.9648ZM24.1896 36.3286C24.5983 37.4258 24.5377 35.0201 24.1896 36.3286ZM18.5012 32.373C19.3392 33.0506 18.1007 31.6514 18.5012 32.373ZM23.3819 33.9375C22.4678 31.8899 24.0306 32.8181 23.5854 34.273L23.3819 33.9375ZM14.9639 28.3237C14.5555 27.6515 13.8796 25.68 14.0974 25.0777C14.2929 26.0585 16.1818 29.2969 15.0225 26.4196C13.743 24.0078 16.5537 27.2014 16.8431 27.8042C16.9782 28.402 16.0529 27.6405 16.6792 29.0441C15.5363 27.4463 16.005 29.9266 14.9639 28.3237ZM12.363 26.5307C12.9577 27.6021 12.4695 24.9679 12.363 26.5307ZM13.5332 26.9342C14.4789 28.5783 14.0911 25.7551 13.5332 26.9342ZM10.7175 24.7566C9.74916 23.7928 9.04799 22.9059 10.7635 24.1585C11.4233 24.184 9.29476 22.1413 10.9227 23.5098C12.6331 23.8218 11.7666 26.3162 10.7175 24.7566ZM12.196 24.7184C12.495 25.2669 12.759 24.1604 12.196 24.7184ZM13.107 25.0092C14.1419 25.6802 12.2531 23.4114 13.107 25.0092ZM11.2979 23.2813C8.48248 20.7737 14.8351 24.591 11.7574 23.7452L11.2979 23.2813ZM19.366 27.9678C18.1467 27.2379 19.0416 22.825 19.4584 25.8424C20.6429 25.459 19.3927 27.402 20.2753 27.3828C20.1372 28.6082 19.7414 29.0492 19.366 27.9678ZM22.3501 29.7324C22.6012 30.6421 22.4692 28.402 22.3501 29.7324ZM21.832 29.2189C21.8446 29.8882 21.9655 28.6514 21.832 29.2189ZM11.8493 22.4576C10.0404 19.9614 17.1069 24.982 13.0085 23.0904C12.5806 22.9776 12.0642 22.9378 11.8493 22.4576ZM17.5965 25.5039C17.9782 25.8516 17.4251 23.4021 17.5965 25.5039ZM21.9589 28.303C21.9847 29.0951 22.2959 27.1061 21.9589 28.303ZM12.1277 21.5053C13.2025 21.2748 16.5822 23.3924 13.4789 22.1094C13.1342 21.7277 12.398 21.9013 12.1277 21.5053ZM21.3593 26.1062C21.4743 23.9569 22.0022 24.8232 21.3642 26.4147L21.3593 26.1062ZM12.9273 20.7567C13.3659 20.1141 11.7632 17.8521 13.1575 19.9456C13.7605 20.4241 14.9015 20.747 13.8937 20.9488C15.4786 22.3465 13.5076 21.3273 12.9273 20.7567ZM20.903 25.4354C21.1704 26.8693 21.2055 22.9871 20.903 25.4354ZM12.0114 18.4959C12.1894 18.9422 12.3469 18.3524 12.0114 18.4959ZM14.0926 19.7343C15.0797 20.9869 14.6279 18.6101 14.0926 19.7343ZM19.9604 22.9981C20.0715 23.6261 19.9555 22.5672 19.9604 22.9981ZM19.62 22.2463C20.3786 23.3097 18.8061 20.2366 19.62 22.2463ZM19.1207 20.9281C19.585 21.9711 18.9845 20.0981 19.1207 20.9281ZM19.9346 19.6055C19.3752 18.6211 20.6409 15.2652 20.7824 17.3464C20.1924 18.968 20.6122 19.8744 21.0221 17.6994C21.7824 15.9888 20.8585 21.0779 19.9346 19.6055ZM20.771 14.6151C20.8252 14.9757 21.0146 14.3161 20.771 14.6151ZM19.374 42.1393C19.4165 42.3224 19.0431 41.85 19.374 42.1393ZM22.2514 43.5942C23.8521 44.006 23.8443 43.3459 22.3973 43.1487C21.62 42.4257 19.1637 41.6577 21.3625 43.0598C21.5074 43.4288 21.9669 43.4191 22.2514 43.5942ZM16.5695 39.8196C17.4501 40.4783 19.8904 41.6829 17.8253 40.0713C18.5216 39.2617 16.493 38.8311 17.1657 38.2892C15.4534 37.2411 15.8139 37.3349 17.0147 37.3685C14.9574 36.4477 17.3118 36.5178 17.2007 36.0458C16.4074 35.8898 13.2594 34.6464 15.1115 36.1475C13.2292 35.1886 14.663 36.5051 14.094 36.3668C12.1685 35.8421 15.8081 37.8328 13.7887 37.3383C14.8922 38.2126 16.7602 39.5799 14.2545 38.2634C13.9256 38.7387 16.0483 39.4591 16.5695 39.8196ZM19.5787 41.5495C17.7837 40.1075 23.237 42.7277 19.5787 41.5495ZM34.9841 50.8816C34.4847 51.5015 35.0317 50.1551 34.9841 50.8816ZM36.5675 51.5477C37.4117 50.7308 36.6026 52.8514 37.9665 51.3477C37.9806 50.2711 37.9252 49.6356 36.3991 50.9436C35.9775 51.1775 35.7903 52.1675 36.5675 51.5477ZM11.4328 35.7631C9.61544 34.7483 11.1734 34.7439 11.4328 35.7631ZM13.1225 36.8708C10.8824 35.9282 12.4945 35.8297 13.1225 36.8708ZM22.7425 42.672C23.6824 43.5069 27.0558 43.2842 23.8827 42.7755C23.4135 42.0807 20.9001 42.2477 22.7425 42.672ZM35.9648 50.8393C34.5644 51.3797 37.41 49.6261 35.9648 50.8393ZM38.9713 52.9041C38.3482 53.0743 38.9806 52.5147 38.9713 52.9041ZM38.9762 52.3588C37.426 52.459 40.5769 50.6642 38.9762 52.3588ZM7.27366 32.2811C5.90973 30.3351 6.42637 29.4606 5.11009 27.8708C4.86016 26.6547 2.85268 23.8979 4.07195 26.8183C5.18789 28.5274 5.5183 31.1727 7.27366 32.2811ZM38.4736 51.8198C37.2656 50.9915 41.4198 49.9166 38.4736 51.8198ZM40.7218 52.7004C39.7885 52.4364 42.1971 51.4347 40.7218 52.7004ZM10.9317 33.6114C9.8413 33.5305 11.3533 32.9834 10.9317 33.6114ZM40.2526 52.0994C41.6802 51.1792 39.9236 51.3204 39.9937 52.1835L40.2526 52.0994ZM20.876 39.8865C20.1211 39.939 20.8269 39.2634 20.876 39.8865ZM22.0732 40.575C21.4882 40.6959 21.6917 39.8055 22.0732 40.575ZM42.5436 52.7213C44.3733 51.4014 41.4356 52.4682 42.1604 52.9725L42.5436 52.7213ZM41.8426 52.3826C40.2701 52.9357 43.3337 51.1344 41.8426 52.3826ZM45.4224 54.7655C44.2065 54.5494 46.4229 54.0962 45.4224 54.7655ZM11.8493 33.1585C13.1894 33.4588 17.2082 36.4604 14.838 33.3669C13.6236 33.0075 14.3518 30.0392 13.1133 30.5639C13.9448 31.9533 13.7965 32.5429 12.0508 31.6689C9.85881 30.5972 10.8189 32.1984 11.2485 32.6404C10.6631 32.7739 12.0212 33.1478 11.8493 33.1585ZM5.73954 28.3337C5.97951 27.3398 3.52808 22.8709 4.58227 26.0935C4.96203 26.7692 4.92264 28.0487 5.73954 28.3337ZM16.9539 35.2474C16.9206 35.1648 16.2625 34.6705 16.9539 35.2474ZM18.6534 35.6437C16.7745 35.2158 18.6534 34.591 18.6534 35.6437ZM33.3911 44.9328C32.28 44.9168 33.1098 44.2139 33.3911 44.9328ZM34.0986 45.4492C33.6897 45.5272 33.9933 45.0471 34.0986 45.4492ZM39.9394 49.1296C39.2383 49.0759 40.5008 48.7149 39.9394 49.1296ZM8.79052 29.1127C7.06846 28.6689 10.3976 28.4907 8.79052 29.1127ZM32.0936 43.7925C31.0683 44.052 32.0748 42.7529 32.0936 43.7925ZM8.15596 27.6323C7.20048 27.4037 9.18778 27.2846 8.15596 27.6323ZM11.1513 29.0837C10.835 29.2143 11.1335 28.7421 11.1513 29.0837ZM47.6929 51.4921C49.0204 51.2234 52.0459 52.168 52.5338 51.141C50.9219 51.1011 46.9585 50.0024 46.7708 51.4014L47.1238 51.4573L47.6929 51.4921ZM12.1033 29.3239C11.2816 29.2843 12.1277 28.2697 12.1033 29.3239ZM4.22803 23.8597C2.86702 23.5558 3.8704 21.8515 4.22803 23.8597ZM6.10544 24.3318C4.38655 23.7515 6.12951 23.6863 6.10544 24.3318ZM7.1786 24.8597C6.93693 25.1757 6.86861 24.6083 7.1786 24.8597ZM13.9336 29.1919C13.1801 28.9758 14.2518 28.8992 13.9336 29.1919ZM6.46478 23.6705C4.28833 23.4432 6.2822 22.1539 6.46478 23.6705ZM2.61247 21.1712C2.23708 21.435 2.55825 20.4717 2.61247 21.1712ZM3.18624 20.7392C2.69343 20.8437 3.09264 19.9089 3.18624 20.7392ZM6.35051 22.6275C7.68916 22.1029 3.91294 21.54 6.077 22.5291L6.35051 22.6275ZM48.7092 48.7927C47.6217 48.5495 49.566 48.0074 48.7092 48.7927ZM53.8268 51.4444C52.9617 51.5781 54.1703 50.4303 53.8268 51.4444ZM6.67387 20.9694C5.61214 21.1649 6.81561 19.9872 6.67387 20.9694ZM2.17047 17.9522C1.9288 16.5659 1.96211 14.1318 4.27544 14.9538C1.18775 15.5674 6.41373 18.7927 5.75389 16.246C7.05266 16.3099 8.29454 15.4784 7.61233 16.7388C10.172 16.4575 11.9448 14.2383 14.4167 14.5499C16.3417 14.2942 18.4467 14.1016 20.5215 13.3258C22.2273 13.2033 23.8694 11.367 22.935 10.278C20.6091 10.0811 18.1732 10.3718 15.6026 10.8839C12.7539 11.4751 10.1659 12.6006 7.29117 13.0841C4.48818 13.461 7.854 14.1206 7.05096 14.2684C5.58978 14.7756 8.79514 15.1174 6.86181 15.653C5.66806 15.4259 4.42472 15.0158 4.93504 13.7566C2.25143 14.1062 -0.107858 15.219 2.01316 17.9503L2.17047 17.9522ZM8.63954 14.6579C9.26753 12.3402 12.0097 16.5659 9.66966 14.9664C9.39128 14.7564 8.93007 14.5862 8.63954 14.6579ZM8.76158 13.5337C9.24346 13.9139 9.66966 12.8583 8.76158 13.5337ZM9.91424 13.5531C9.99739 12.4863 12.5553 14.1174 10.3358 13.9363L9.91424 13.5531ZM11.4914 12.9188C11.6587 13.5164 12.0686 12.2444 11.4914 12.9188ZM11.8955 12.6487C12.8556 11.4961 17.3276 11.9123 14.0542 12.5354C13.1765 11.8741 12.5043 12.9249 11.8955 12.6487ZM17.7329 11.7487C20.6344 12.8663 17.5885 8.59898 17.7329 11.7487ZM19.3898 11.7389C19.9952 10.1525 21.7408 11.1017 19.6711 11.4195C19.7153 11.5897 19.6091 12.24 19.3898 11.7389ZM6.02108 20.1554C4.10039 19.1939 7.82993 19.0473 6.02108 20.1554ZM7.35948 20.526C5.97951 20.2524 7.99404 19.852 7.35948 20.526ZM3.41697 17.7295C2.19283 17.4276 4.45025 16.9345 3.41697 17.7295ZM56.8471 51.1551C56.0569 51.5699 56.8772 50.2329 56.8471 51.1551ZM51.4179 47.4491C50.7201 47.5415 51.572 46.3891 51.4179 47.4491ZM58.3399 51.513C59.7853 51.5178 62.7195 51.0627 59.575 51.0644C59.0807 51.141 56.6993 51.1252 58.3399 51.513ZM8.53621 19.8754C9.70637 19.7959 10.366 18.5858 8.30864 18.6544C5.12127 18.3254 11.1209 19.7467 7.90019 19.3398C7.46792 19.6259 8.51044 19.9549 8.53621 19.8754ZM9.56633 20.3971C9.20359 20.7958 9.44379 19.6466 9.56633 20.3971ZM10.7888 17.1378C10.0861 16.9693 11.2959 16.5081 10.7888 17.1378ZM6.89682 10.6342C8.98599 9.92523 11.8412 9.12705 12.8271 10.9843C11.8237 9.77765 12.4218 8.58828 13.3693 10.3546C14.7094 12.1401 15.3799 9.5423 14.5088 8.94276C15.5027 10.1764 16.6313 10.7601 15.1733 9.02104C16.7585 7.1147 12.0017 9.27049 10.9208 9.24812C10.401 9.48152 5.55015 10.4849 6.89682 10.6342ZM8.12095 8.29118C9.31202 7.39308 12.2402 8.82679 10.3611 7.39746C10.1768 7.23553 6.24694 8.48179 8.12095 8.29118ZM12.4629 8.47061C13.8555 8.50562 11.8622 6.59782 13.5217 7.46261C13.2499 6.57253 11.5886 6.40551 10.7764 6.04957C10.3169 6.86355 11.7107 8.48179 12.4629 8.47061ZM8.88242 4.52931C8.03683 4.86166 9.36429 3.87603 8.88242 4.52931ZM10.6572 4.95356C12.9032 4.65646 10.0844 3.98714 10.2036 4.92998L10.6572 4.95356ZM7.34344 2.36234C5.76142 0.297233 10.3181 2.70903 8.71053 0.546679C7.35778 -0.529392 6.05901 1.75987 7.34344 2.36234ZM27.6371 13.2925C28.3626 12.0076 24.6437 11.5595 27.1491 12.8374C27.3796 12.914 27.3276 13.3812 27.6371 13.2925ZM12.912 61.1446C12.7515 61.7782 12.6521 62.8414 12.6149 64.3337C12.6149 64.6269 12.4829 64.7737 12.2181 64.7737C11.9533 64.7737 11.769 64.6456 11.6647 64.3906C11.3813 63.7006 11.1128 63.2194 10.8566 62.9447C10.5546 62.6238 10.153 62.4298 9.65191 62.3636C9.11339 62.2785 7.77182 62.236 5.62697 62.236C5.13586 62.236 4.81421 62.2883 4.66347 62.3926C4.56889 62.4582 4.52173 62.6002 4.52173 62.8178V69.2385C4.52173 69.4558 4.65861 69.5594 4.93212 69.5504C5.77358 69.5407 6.99236 69.4833 8.58872 69.3802C8.9009 69.3418 9.11144 69.2404 9.21988 69.0749C9.32928 68.9095 9.43553 68.4826 9.53886 67.7924C9.6045 67.4143 9.8272 67.2677 10.205 67.3533C10.5259 67.4194 10.664 67.566 10.6166 67.7924C10.3516 69.078 10.266 70.7505 10.3606 72.8105C10.3706 73.0555 10.2147 73.1883 9.89309 73.2073C9.62808 73.2357 9.46276 73.0937 9.39711 72.7818C9.15204 71.6009 8.69521 70.9698 8.02978 70.8891C7.36362 70.8093 6.27855 70.769 4.77677 70.769C4.60658 70.769 4.52173 70.83 4.52173 70.953V77.3314C4.52173 77.804 4.69605 78.1257 5.04542 78.2951C5.32015 78.4369 5.91046 78.5648 6.81707 78.6781C7.28071 78.7252 7.48323 78.929 7.42732 79.2873C7.37018 79.5993 6.95492 79.7223 6.17935 79.6562C3.94017 79.4762 2.09242 79.486 0.637806 79.6851C0.231058 79.741 0.0285351 79.5757 0.0285351 79.1889C0.0285351 78.9426 0.231058 78.8011 0.637806 78.7634C1.56387 78.6591 2.02654 77.8463 2.02654 76.3256V64.1917C2.02654 63.5688 1.91519 63.0894 1.6937 62.7536C1.47124 62.4181 1.05768 62.113 0.453761 61.8392C0.0754582 61.669 -0.0660405 61.4378 0.028292 61.1446C0.0754582 60.9654 0.151313 60.8658 0.254641 60.8473C0.349217 60.8186 0.600122 60.8375 1.00565 60.9042C1.60131 60.9985 3.00487 61.0459 5.21561 61.0459C7.8241 61.0459 10.0771 60.9888 11.9769 60.8757C12.6098 60.8373 12.9268 60.8896 12.9268 61.0313C12.9268 61.0697 12.9219 61.1069 12.912 61.1446ZM22.1038 79.1376C22.1038 79.5156 21.8911 79.6809 21.4661 79.6335C20.1629 79.5105 18.5466 79.529 16.6191 79.6897C16.2314 79.7281 15.9933 79.7182 15.9029 79.6622C15.8129 79.6051 15.7687 79.4495 15.7687 79.1935C15.7687 78.9674 16.0257 78.7763 16.5406 78.6197C17.0563 78.4644 17.313 77.9988 17.313 77.2242V64.3964C17.313 63.6306 17.2019 63.0685 16.9804 62.7091C16.758 62.35 16.3682 62.0714 15.811 61.8735C15.5178 61.769 15.3709 61.6226 15.3709 61.4334C15.3709 61.15 15.5837 60.9375 16.0089 60.7957C16.6517 60.5879 17.3181 60.2672 18.0081 59.832C18.5751 59.4916 18.9344 59.3221 19.0849 59.3221C19.4343 59.3221 19.6098 59.5624 19.6098 60.0445C19.6098 60.0073 19.5909 60.4797 19.5524 61.4619C19.525 62.3972 19.5152 63.3184 19.525 64.2262L19.5809 76.8833C19.5809 77.46 19.7229 77.8784 20.0064 78.1383C20.2898 78.398 20.7771 78.5704 21.4661 78.6552C21.8911 78.7021 22.1038 78.8631 22.1038 79.1376ZM34.9235 78.3017C34.9235 78.5006 34.5623 78.8001 33.8397 79.2013C33.1164 79.6031 32.5375 79.804 32.1033 79.804C31.7342 79.804 31.4087 79.6248 31.1252 79.2654C30.8417 78.9064 30.6426 78.7272 30.5295 78.7272C30.4447 78.7272 29.9959 78.9209 29.1826 79.3078C28.3708 79.6955 27.553 79.8895 26.731 79.8895C25.9564 79.8895 25.3087 79.6622 24.7891 79.2095C24.2221 78.7082 23.9387 78.0279 23.9387 77.1678C23.9387 75.533 25.8098 74.3616 29.5519 73.6529C30.1938 73.5299 30.5205 73.27 30.5293 72.8732L30.5582 71.9659C30.6151 70.4164 29.93 69.6418 28.5028 69.6418C28.0963 69.6418 27.7115 70.0051 27.347 70.7325C26.984 71.4609 26.4613 71.8526 25.7811 71.9097C25.0065 71.9846 24.6187 71.6588 24.6187 70.9314C24.6187 70.4775 25.1954 69.9491 26.348 69.3438C27.5578 68.7109 28.7204 68.3939 29.8354 68.3939C31.7532 68.3939 32.7028 69.3063 32.6841 71.13L32.627 76.9691C32.6182 77.5835 32.8781 77.8903 33.4067 77.8903C33.511 77.8903 33.7096 77.867 34.0021 77.8196C34.2955 77.7724 34.4657 77.7486 34.5131 77.7486C34.7867 77.7486 34.9235 77.9336 34.9235 78.3017ZM30.5582 75.0706C30.568 74.834 30.5128 74.6774 30.3946 74.6028C30.2764 74.5272 30.0907 74.5121 29.8354 74.5595C27.5578 74.966 26.419 75.708 26.419 76.7851C26.419 77.8719 27.0096 78.415 28.1907 78.415C28.6633 78.415 29.1505 78.3255 29.6504 78.1463C30.2371 77.9377 30.5295 77.6878 30.5295 77.3944L30.5582 75.0706ZM45.4615 76.6711C45.4615 77.6727 45.0755 78.4695 44.306 79.0598C43.536 79.6506 42.485 79.9457 41.1522 79.9457C40.2643 79.9457 39.3754 79.8514 38.4875 79.6622C37.7217 79.492 37.2777 79.3364 37.1549 79.1947C37.0791 79.0617 37.0416 78.4152 37.0416 77.2526C37.0416 76.7518 37.1549 76.4916 37.382 76.4732C37.6086 76.4445 37.8026 76.5677 37.9631 76.8412C38.6716 78.0795 39.8152 78.6987 41.3933 78.6987C42.7249 78.6987 43.3913 78.2351 43.3913 77.3088C43.3913 76.9033 43.2406 76.5626 42.9377 76.2889C42.6068 75.9769 41.9652 75.613 41.0104 75.1972C39.6304 74.5834 38.709 74.0448 38.2463 73.5812C37.7452 73.0901 37.4951 72.4288 37.4951 71.5968C37.4951 70.5759 37.8872 69.7828 38.6716 69.2159C39.399 68.6674 40.3725 68.3939 41.591 68.3939C42.3568 68.3939 43.0558 68.4547 43.6897 68.5779C44.3699 68.7009 44.7241 68.8517 44.7526 69.0316C44.8275 69.5601 44.9841 70.326 45.2204 71.3281C45.2488 71.4502 45.1158 71.5496 44.8236 71.6252C44.5114 71.6914 44.3038 71.6391 44.1995 71.4697C43.4533 70.2501 42.5086 69.6409 41.3646 69.6409C40.0703 69.6409 39.4228 70.0566 39.4228 70.8881C39.4228 71.3515 39.5979 71.7196 39.9472 71.9933C40.2594 72.2297 40.9915 72.5987 42.1443 73.0998C43.3539 73.6194 44.1759 74.0871 44.6111 74.5026C45.1781 75.0409 45.4615 75.7644 45.4615 76.6711ZM62.1368 79.1517C62.1368 79.4823 61.9143 79.6574 61.4704 79.6761C60.8088 79.6858 59.9435 79.733 58.8767 79.8178C58.3472 79.9221 57.9691 79.8562 57.7428 79.6199C56.2495 78.0136 54.9828 76.3314 53.9432 74.5734C53.8586 74.4226 53.7502 74.347 53.6174 74.347C53.457 74.347 53.1786 74.4888 52.7818 74.7725C52.3369 75.0176 52.1154 75.3677 52.1154 75.8204C52.1154 76.1423 52.1241 76.6049 52.1438 77.2106C52.1628 77.8147 52.3133 78.2113 52.5968 78.4004C52.7954 78.5334 53.2544 78.6367 53.9717 78.7126C54.4158 78.7695 54.6383 78.9348 54.6383 79.2086C54.6383 79.4262 54.6028 79.5611 54.5318 79.6121C54.4613 79.6642 54.2741 79.6761 53.9717 79.6476C53.0269 79.563 51.4303 79.6102 49.1814 79.7894C48.6144 79.8365 48.3071 79.7656 48.2599 79.5767C48.2412 79.511 48.2312 79.4162 48.2312 79.2932C48.2312 79.0009 48.5198 78.7782 49.0968 78.628C49.6163 78.4947 49.876 77.8855 49.876 76.7989V64.4105C49.876 63.6359 49.8006 63.0974 49.6486 62.7952C49.441 62.4074 49.0058 62.105 48.3445 61.8876C48.0333 61.7843 47.877 61.6377 47.877 61.4485C47.877 61.1738 48.0995 60.9613 48.5432 60.8108C49.2574 60.5719 49.9385 60.2431 50.5698 59.8325C51.0899 59.4928 51.4115 59.3224 51.5336 59.3224C51.9216 59.3224 52.1154 59.5675 52.1154 60.0598C52.1154 59.9929 52.1105 60.4614 52.1006 61.4626C52.0904 62.3887 52.0858 63.3149 52.0869 64.2411L52.1154 73.1137C52.1154 73.3597 52.1813 73.4818 52.3133 73.4818C52.455 73.4818 52.6726 73.3597 52.9658 73.1137C53.7502 72.4993 54.7139 71.6962 55.8568 70.704C56.0842 70.468 56.1972 70.2788 56.1972 70.1371C56.1972 69.8823 55.8145 69.7019 55.0497 69.5988C54.719 69.5601 54.5624 69.3763 54.5809 69.0454C54.6096 68.7148 54.7752 68.5731 55.0771 68.6202C55.7584 68.715 56.7506 68.7671 58.0537 68.7768C58.9613 68.7855 59.8638 68.7906 60.7617 68.7906C61.0539 68.8004 61.2007 68.9747 61.2007 69.3153C61.2007 69.6362 60.9693 69.8113 60.5066 69.84C59.7782 69.8675 59.0931 70.0328 58.4515 70.336C57.5536 70.7415 56.594 71.4551 55.5734 72.4759C55.4985 72.5328 55.4601 72.6036 55.4601 72.6884C55.4601 72.8204 55.6205 73.1375 55.9424 73.6383C57.1235 75.4338 58.2387 76.7892 59.2871 77.7063C59.9584 78.2825 60.5864 78.5706 61.172 78.5706C61.6072 78.5706 61.8766 78.6012 61.9799 78.663C62.0845 78.7245 62.1368 78.8876 62.1368 79.1517Z" fill="white"/>
</svg>
