<svg width="100" height="80" viewBox="0 0 100 80" fill="none" xmlns="http://www.w3.org/2000/svg">
<g clip-path="url(#clip0_359_359)">
<path d="M63.0782 22.0304H66.1117L74.7538 13.3882L75.1789 9.72137C59.0988 -4.47104 34.5517 -2.9418 20.3593 13.1382C16.4133 17.6051 13.5506 22.9179 11.9922 28.6682C12.9547 28.2724 14.0215 28.2098 15.0257 28.4849L32.3058 25.6347C32.3058 25.6347 33.185 24.1805 33.6392 24.2721C41.3271 15.83 54.2653 14.8466 63.1407 22.0304H63.0782Z" fill="#EA4335"/>
<path d="M87.0625 28.6677C85.0749 21.3548 80.9997 14.7794 75.3286 9.75L63.203 21.8756C68.3241 26.0592 71.2409 32.3637 71.1159 38.9765V41.1308C77.0787 41.1308 81.9081 45.9644 81.9081 51.923C81.9081 57.8858 77.0745 62.7153 71.1159 62.7153H49.5273L47.373 64.8987V77.8452L49.5273 79.9995H71.1159C83.4915 80.0953 94.4712 72.0741 98.1464 60.2568C101.813 48.4354 97.313 35.6014 87.0625 28.6677Z" fill="#4285F4"/>
<path d="M27.9099 79.8799H49.4985V62.5998H27.9099C26.3723 62.5998 24.8514 62.2706 23.4513 61.6289L20.4178 62.5665L11.7174 71.2086L10.959 74.2421C15.8384 77.9256 21.7929 79.9049 27.9099 79.8799Z" fill="#34A853"/>
<path d="M27.9098 23.8185C15.9175 23.8894 5.29607 31.5689 1.47087 42.932C-2.35433 54.2951 1.45837 66.8374 10.963 74.1461L23.4845 61.6246C18.0509 59.1703 15.6383 52.7783 18.0926 47.3447C20.5469 41.9111 26.9389 39.4985 32.3725 41.9528C34.7643 43.0362 36.681 44.9529 37.7644 47.3447L50.2859 34.8232C44.9565 27.8604 36.6769 23.7893 27.9098 23.8185Z" fill="#FBBC05"/>
</g>
<defs>
<clipPath id="clip0_359_359">
<rect width="99.4093" height="80" fill="white"/>
</clipPath>
</defs>
</svg>
