<svg width="80" height="80" viewBox="0 0 80 80" fill="none" xmlns="http://www.w3.org/2000/svg">
<g clip-path="url(#clip0_374_2929)">
<path d="M76.9028 0H3.09722C1.38667 0 0 1.38667 0 3.09722V76.9028C0 78.6133 1.38667 80 3.09722 80H76.9028C78.6133 80 80 78.6133 80 76.9028V3.09722C80 1.38667 78.6133 0 76.9028 0Z" fill="#FEC925"/>
<path d="M23.2326 32.793V45.1579H20.3713V40.0936H14.7539V45.1579H11.8926V32.793H14.7539V37.668H20.3713V32.793H23.2326Z" fill="#161616"/>
<path d="M34.6255 42.8246V45.1569H25.2819V43.3017L30.0503 38.7972C31.1458 37.755 31.3404 37.1193 31.3404 36.5196C31.3404 35.548 30.674 34.983 29.3613 34.983C28.3018 34.983 27.4009 35.3828 26.8012 36.2184L24.7168 34.8763C25.6697 33.481 27.4009 32.5801 29.6265 32.5801C32.3826 32.5801 34.219 33.9928 34.219 36.237C34.219 37.4365 33.8832 38.532 32.152 40.1406L29.3093 42.8246H34.6255Z" fill="#161616"/>
<path d="M35.8086 38.9751C35.8086 35.3009 38.6699 32.5781 42.5734 32.5781C46.4769 32.5781 49.3383 35.2809 49.3383 38.9751C49.3383 42.6694 46.4596 45.3722 42.5734 45.3722C38.6873 45.3722 35.8086 42.6468 35.8086 38.9751ZM46.441 38.9751C46.441 36.6256 44.7804 35.0183 42.5761 35.0183C40.3718 35.0183 38.7112 36.6256 38.7112 38.9751C38.7112 41.3247 40.3718 42.932 42.5761 42.932C44.7804 42.932 46.441 41.3247 46.441 38.9751Z" fill="#161616"/>
<path d="M50.2741 43.5676C50.2741 42.5428 51.0337 41.8711 51.9866 41.8711C52.9395 41.8711 53.7005 42.5375 53.7005 43.5676C53.7069 43.7966 53.6673 44.0246 53.5841 44.238C53.5009 44.4515 53.3757 44.6461 53.216 44.8103C53.0563 44.9745 52.8652 45.1051 52.6542 45.1942C52.4432 45.2834 52.2164 45.3293 51.9873 45.3293C51.7582 45.3293 51.5314 45.2834 51.3204 45.1942C51.1094 45.1051 50.9184 44.9745 50.7586 44.8103C50.5989 44.6461 50.4737 44.4515 50.3905 44.238C50.3073 44.0246 50.2677 43.7966 50.2741 43.5676Z" fill="#54585A"/>
<path d="M64.1573 39.7349V45.1577H61.5785V43.9796C61.0668 44.8445 60.0765 45.3043 58.6812 45.3043C56.4556 45.3043 55.1309 44.0675 55.1309 42.4243C55.1309 40.7464 56.3143 39.5803 59.2116 39.5803H61.4013C61.4013 38.3982 60.6949 37.7145 59.2116 37.7145C58.2054 37.7145 57.1632 38.049 56.4742 38.5967L55.484 36.6723C56.5262 35.93 58.0628 35.5235 59.5821 35.5235C62.4794 35.5128 64.1573 36.8549 64.1573 39.7349ZM61.4013 42.1551V41.1809H59.5115C58.2227 41.1809 57.8163 41.6566 57.8163 42.2937C57.8163 42.9814 58.3987 43.4411 59.3702 43.4411C60.2885 43.4465 61.0841 43.02 61.4013 42.1551Z" fill="#54585A"/>
<path d="M66.3105 32.7925C66.3105 31.9275 66.9996 31.2559 68.0244 31.2559C69.0493 31.2559 69.7383 31.8916 69.7383 32.7392C69.7383 33.6574 69.0493 34.3291 68.0244 34.3291C66.9996 34.3291 66.3105 33.6574 66.3105 32.7925ZM66.6464 35.6538H69.4024V45.1574H66.6464V35.6538Z" fill="#54585A"/>
</g>
<defs>
<clipPath id="clip0_374_2929">
<rect width="80" height="80" fill="white"/>
</clipPath>
</defs>
</svg>
