<svg width="80" height="78" viewBox="0 0 80 78" fill="none" xmlns="http://www.w3.org/2000/svg">
<g clip-path="url(#clip0_374_2986)">
<path d="M68.1621 47.9505C67.9563 33.2596 56.401 21.0601 41.6831 20.0918L33.9158 20.5406L34.9049 24.4679L41.5418 24.2414C42.9943 24.3453 44.4135 24.5718 45.7891 24.9167C39.1002 27.2274 32.7605 32.8211 28.4883 40.1999C29.5376 41.0788 30.6556 41.9204 31.8379 42.7141C36.7979 33.8747 44.9745 27.9131 52.4904 27.9131L52.7065 27.9173C54.0239 28.7484 55.2457 29.6939 56.3657 30.7411C55.6488 30.656 54.8966 30.6144 54.1091 30.6144C53.0909 30.6144 52.0041 30.685 50.88 30.8263L48.6774 31.0985L49.6748 35.1006L51.6239 34.8866C52.4446 34.7931 53.2384 34.7453 53.9865 34.7453C57.2924 34.7453 59.7028 35.6721 60.773 37.3531C62.6015 40.231 60.7979 45.2139 56.5589 50.1822C58.4914 50.1552 60.3636 49.9806 62.1527 49.6669C62.8467 48.6237 63.4452 47.5806 63.9376 46.5479C63.9875 47.1547 64.0124 47.7573 64.0124 48.3536C64.0124 48.6653 64.0041 48.977 63.9917 49.2887C65.4524 48.9375 66.8488 48.4908 68.1621 47.9505Z" fill="#8BB7F0"/>
<path d="M42.0419 23.2386C41.3063 23.1534 40.5645 23.0993 39.8268 23.0765C38.1084 23.0245 36.3235 23.1762 34.6528 23.4692L35.083 25.4889C36.6165 25.2209 38.1894 25.1066 39.7687 25.1544C39.7749 25.1544 42.0336 25.3289 42.1479 25.3456C36.5292 28.2048 31.3697 33.2209 27.6855 39.5087C28.205 39.97 28.7432 40.4209 29.298 40.8614C34.2061 32.2754 41.8445 26.3097 49.4684 25.0422C47.1474 24.076 44.6476 23.4671 42.0419 23.2386Z" fill="#4E7AB5"/>
<path d="M36.4556 23.0101C36.5408 23.5255 36.6675 23.9951 36.8213 24.4024L39.7948 24.3005C40.013 23.3925 40.0525 22.2413 39.8613 21.0964C39.8093 20.7805 39.7408 20.4855 39.6618 20.207L36.4119 20.3961C36.2997 21.1878 36.3039 22.1 36.4556 23.0101Z" fill="#B2CFF5"/>
<path d="M35.0178 24.4641L38.1035 24.3581C38.2614 23.5145 38.2697 22.49 38.0931 21.4573C38.0225 21.0459 37.9269 20.6635 37.8126 20.3145L34.6334 20.4994C34.5149 21.2952 34.5232 22.2261 34.6832 23.1633C34.7643 23.6391 34.8786 24.0755 35.0178 24.4641Z" fill="#D8E7FA"/>
<path d="M69.1921 47.4966C68.7578 32.4629 56.8617 20.0473 41.7511 19.054C41.7511 19.054 38.4306 18.6343 33.668 19.5237L34.1708 21.5559C35.6004 21.267 37.2898 20.9221 39.8976 21.0135L41.6139 21.1278C55.8332 22.0629 67.1267 33.8966 67.1267 48.3507C67.8373 48.0909 68.5272 47.8062 69.1921 47.4966Z" fill="#4E7AB5"/>
<path d="M53.3267 29.5846C52.4997 29.6116 51.6353 29.6802 50.7501 29.7924L48.4249 30.0833L48.9257 32.0947L51.0077 31.8558C52.0862 31.7207 53.1231 31.6521 54.108 31.6521C56.1464 31.6521 57.9625 31.9493 59.4773 32.5685C57.6695 30.3202 55.4794 28.4044 53.015 26.8833C52.8405 26.8771 52.668 26.875 52.4914 26.875C44.6098 26.875 36.161 32.9051 30.9766 42.1207C31.5376 42.5197 32.1173 42.9082 32.7095 43.2843C37.4618 34.7649 45.254 29.0028 52.3979 28.9529C52.7116 29.1545 53.0212 29.3664 53.3267 29.5846Z" fill="#4E7AB5"/>
<path d="M33.7706 61.1371C21.943 55.7636 14.4313 45.5734 14.2443 36.0254C12.3347 40.6259 13.2885 46.0763 16.9498 51.4062C18.5685 53.7646 20.6506 55.9921 23.1399 58.0347C22.9841 61.054 23.2023 63.8882 23.7882 66.5085C20.8147 63.882 18.5477 60.5428 17.1513 56.7153L16.4054 54.7329L12.5176 56.2373L13.2511 58.1823C17.3654 69.4342 27.7924 76.7028 39.8132 76.7028C51.4537 76.7028 61.781 69.6981 66.1051 58.9033L66.1529 58.7766C58.9487 65.3989 45.943 66.6664 33.7706 61.1371ZM39.8132 72.5469C36.2038 72.5469 32.7358 71.7802 29.4984 70.2654C28.1456 67.5953 27.3726 64.4181 27.2272 60.9688C29.0329 62.1075 30.9384 63.1215 32.9124 63.9921C38.3067 66.3714 43.8817 67.6285 49.035 67.6285C51.2521 67.6285 53.3674 67.3875 55.3124 66.9179C50.9945 70.5355 45.542 72.5469 39.8132 72.5469Z" fill="#BAE0BD"/>
<path d="M61.6503 36.793C60.3475 34.7442 57.6025 33.7031 53.989 33.7031C53.2015 33.7031 52.3703 33.753 51.5059 33.8527L49.4238 34.0938L49.9308 36.1239L51.7428 35.9161C52.5241 35.8268 53.2805 35.781 53.989 35.781C56.9272 35.781 59.0238 36.5353 59.8966 37.9068C61.3719 40.2278 59.8301 45.0465 55.2067 50.1727C56.1397 50.1914 57.0581 50.179 57.9641 50.1312C62.0659 45.059 63.6825 39.9909 61.6503 36.793Z" fill="#4E7AB5"/>
<path d="M52.6555 59.4448C56.6721 56.3945 59.9157 53.0282 62.1536 49.6641C60.3645 49.9778 58.4923 50.1524 56.5599 50.1794C54.8103 52.2282 52.6492 54.275 50.1557 56.1721L48.7012 57.6952L50.9765 60.6625L52.6555 59.4448Z" fill="#A3CCD7"/>
<path d="M22.1563 33.2257C23.9849 32.1784 26.281 31.4761 28.9241 31.1956L30.8919 30.8195V26.8008L28.7101 27.0418C25.4166 27.3701 22.5117 28.2532 20.1387 29.5997C20.6935 30.8257 21.3688 32.0392 22.1563 33.2257Z" fill="#8BB7F0"/>
<path d="M50.7847 56.9981C53.6356 54.8329 56.0668 52.4828 57.966 50.1348C57.06 50.1826 56.1416 50.195 55.2086 50.1763C53.6606 51.8927 51.7676 53.6423 49.5276 55.3441L47.8652 56.6075L49.1348 58.2636L50.7847 56.9981Z" fill="#7496C4"/>
<path d="M28.8144 30.1638C26.0113 30.463 23.5614 31.209 21.5957 32.3456C21.9531 32.9316 22.3375 33.5114 22.749 34.0849C24.4362 33.1332 26.5702 32.4953 29.0347 32.2314L30.8923 32.034V29.9727L28.8144 30.1638Z" fill="#4E7AB5"/>
<path d="M30.8931 27.847V25.7773L28.6094 26.0059C25.2162 26.3446 22.2115 27.2506 19.7305 28.6366C19.984 29.2724 20.2707 29.9062 20.5866 30.5337C22.8536 29.2329 25.6442 28.3914 28.8151 28.0734L30.8931 27.847Z" fill="#4E7AB5"/>
<path d="M39.8128 73.5856C47.6528 73.5856 54.6658 69.9908 59.2995 64.3659C56.4653 65.8246 52.9473 66.5893 49.0346 66.5893C44.191 66.5893 38.7614 65.436 33.3317 63.0402C30.7572 61.9036 28.3551 60.5467 26.1712 59.0215C26.0632 63.462 26.9151 67.622 28.7354 71.0527C32.0892 72.6776 35.8481 73.5856 39.8128 73.5856ZM32.4923 64.9415C38.0175 67.3789 43.738 68.6672 49.0346 68.6672C49.712 68.6672 50.3811 68.6443 51.0398 68.6028C47.6466 70.4895 43.7982 71.5098 39.8128 71.5098C36.4777 71.5098 33.2715 70.8262 30.2668 69.4776C29.3297 67.5285 28.7084 65.303 28.4216 62.8989C29.739 63.6428 31.098 64.3264 32.4923 64.9415Z" fill="#5E9C76"/>
<path d="M60.7266 49.8833C62.2206 49.688 63.6627 49.3971 65.0403 49.0168C65.0466 48.7945 65.0507 48.5742 65.0507 48.3519C65.0507 46.2864 64.7744 44.2874 64.3027 42.3633C63.7977 44.7425 62.5655 47.3087 60.7266 49.8833Z" fill="#4E7AB5"/>
<path d="M68.1619 47.9499C66.8487 48.4901 65.4544 48.939 63.9915 49.286C63.8856 52.0122 63.3141 54.6886 62.3084 57.2153C60.4799 61.1073 55.4928 63.4283 48.9702 63.4283C44.3656 63.4283 39.3952 62.3083 34.591 60.1888C32.0518 59.0688 29.656 57.6953 27.4596 56.1057C27.8918 52.4278 28.9038 48.8288 30.4726 45.3982C30.8944 44.4777 31.3495 43.5821 31.8378 42.7135C30.6554 41.9197 29.5354 41.0782 28.4882 40.1992C27.8419 41.3171 27.2414 42.4745 26.6949 43.6693C25.3193 46.674 24.324 49.7971 23.7214 52.9743C22.4165 51.7067 21.2965 50.3935 20.376 49.0532C17.4939 44.8558 16.7064 40.7353 18.1567 37.446C18.9152 35.7275 20.2928 34.2958 22.1588 33.2257C21.3713 32.0392 20.696 30.8278 20.1412 29.5977C17.4793 31.1083 15.4845 33.2049 14.3541 35.7691C14.3167 35.8543 14.2814 35.9395 14.2461 36.0247C14.4331 45.5748 21.9448 55.7628 33.7723 61.1364C45.9448 66.6657 58.9505 65.3982 66.1567 58.7738L66.1983 58.6657C67.5053 55.3327 68.1702 51.8626 68.1702 48.3488C68.1661 48.2158 68.164 48.0828 68.1619 47.9499Z" fill="#A3CCD7"/>
<path d="M67.1271 48.3521C67.1271 51.8596 66.4393 55.2051 65.2279 58.2887C65.2279 58.2887 65.1884 58.4113 65.1614 58.4716C64.9245 59.0617 64.6689 59.6393 64.3926 60.2087C65.7183 59.257 66.8986 58.1557 67.9084 56.9131C68.7687 54.1204 69.205 51.2508 69.205 48.35C69.205 48.0653 69.2009 47.7806 69.1926 47.498C68.5276 47.8077 67.8378 48.0923 67.1271 48.3521Z" fill="#7496C4"/>
<path d="M15.3034 36.1898C16.3424 33.8356 18.1647 31.9239 20.5855 30.5358C20.2676 29.9083 19.9829 29.2745 19.7294 28.6387C17.4665 29.902 15.6442 31.5665 14.3621 33.5654C14.1585 35.2963 14.2125 37.0626 14.5055 38.835C14.6634 37.9228 14.9294 37.0376 15.3034 36.1898Z" fill="#7496C4"/>
<path d="M17.2058 37.0254C15.6037 40.6556 16.4266 45.1356 19.5185 49.6405C20.8338 51.5563 22.5045 53.3662 24.4328 55.0369C24.9357 51.3984 25.9975 47.6852 27.637 44.1008C28.1481 42.9849 28.7029 41.9044 29.2993 40.8613C28.7424 40.4208 28.2063 39.9698 27.6868 39.5085C26.9845 40.7075 26.3362 41.9522 25.7481 43.2363C24.6177 45.707 23.7367 48.2545 23.1133 50.8457C22.411 50.0644 21.7835 49.2686 21.2307 48.4644C18.5606 44.5745 17.8063 40.8114 19.105 37.8649C19.7824 36.3273 21.0375 35.0452 22.7476 34.081C22.3362 33.5075 21.9518 32.9278 21.5944 32.3418C19.5705 33.5117 18.0577 35.095 17.2058 37.0254Z" fill="#7496C4"/>
<path d="M60.7281 49.8823C58.5899 52.8745 55.6289 55.8791 52.0278 58.6178L50.378 59.8833L51.6372 61.5249L53.285 60.2739C57.3057 57.2173 60.5785 53.8428 62.8767 50.4475C62.6751 52.621 62.1639 54.7591 61.3452 56.8288C59.6683 60.3134 55.0491 62.3913 48.9712 62.3913C44.512 62.3913 39.6829 61.3025 35.0117 59.2391C32.7322 58.2334 30.5691 57.0178 28.5702 55.6194C29.0252 52.2594 29.9831 48.9721 31.419 45.8303C31.818 44.9576 32.2502 44.1077 32.7094 43.2828C32.1172 42.9067 31.5395 42.5181 30.9764 42.1191C30.459 43.0376 29.9748 43.9872 29.5281 44.9659C27.7785 48.7934 26.7478 52.7539 26.3613 56.5877C28.6907 58.3311 31.313 59.8791 34.1702 61.1404C39.2611 63.3867 44.4081 64.4693 48.9691 64.4693C55.7037 64.4693 61.1561 62.1088 63.2507 57.6599C64.3229 54.9711 64.9608 52.0641 65.0418 49.0178C63.6642 49.396 62.2221 49.6869 60.7281 49.8823Z" fill="#7496C4"/>
<path d="M39.9302 11.4557C38.6855 11.4557 37.6777 10.4479 37.6777 9.20322V3.29153C37.6777 2.04685 38.6855 1.03906 39.9302 1.03906C41.1749 1.03906 42.1827 2.04685 42.1827 3.29153V9.20322C42.1827 10.4479 41.1728 11.4557 39.9302 11.4557Z" fill="#8BB7F0"/>
<path d="M39.9301 12.4945C38.114 12.4945 36.6387 11.0192 36.6387 9.20312V3.29143C36.6387 1.47532 38.114 0 39.9301 0C41.7462 0 43.2215 1.47532 43.2215 3.29143V9.20312C43.2215 11.0192 41.7441 12.4945 39.9301 12.4945ZM39.9301 2.07792C39.261 2.07792 38.7166 2.62234 38.7166 3.29143V9.20312C38.7166 9.87221 39.261 10.4166 39.9301 10.4166C40.5992 10.4166 41.1436 9.87221 41.1436 9.20312V3.29143C41.1436 2.62234 40.5992 2.07792 39.9301 2.07792Z" fill="#4E7AB5"/>
<path d="M23.0373 16.1329C21.9609 16.7542 20.5833 16.3864 19.9599 15.308L17.0051 10.188C16.3838 9.11159 16.7516 7.73393 17.83 7.11055C18.9064 6.48925 20.284 6.85704 20.9074 7.93549L23.8643 13.0555C24.4856 14.1339 24.1157 15.5116 23.0373 16.1329Z" fill="#8BB7F0"/>
<path d="M21.9187 17.4747C21.632 17.4747 21.3452 17.4373 21.0605 17.3604C20.2107 17.1318 19.5021 16.5874 19.0616 15.8269L16.1068 10.7069C15.1987 9.13597 15.739 7.11831 17.312 6.21025C18.0746 5.76973 18.9597 5.65337 19.8096 5.88194C20.6595 6.11051 21.3681 6.65493 21.8086 7.41545L24.7655 12.5354C25.2039 13.298 25.3223 14.1832 25.0938 15.0331C24.8652 15.883 24.3208 16.5916 23.5603 17.0321C23.0512 17.3251 22.4881 17.4747 21.9187 17.4747ZM18.9556 7.84766C18.7457 7.84766 18.5379 7.90168 18.3509 8.01181C17.7712 8.34636 17.5717 9.09025 17.9062 9.66792L20.861 14.7879C21.0231 15.0684 21.2849 15.27 21.5966 15.3531C21.9062 15.4341 22.2366 15.3947 22.5172 15.2305C22.7977 15.0664 22.9992 14.8066 23.0823 14.4949C23.1655 14.1812 23.1239 13.8549 22.9597 13.5744L20.0029 8.45441C19.8408 8.17389 19.579 7.97233 19.2673 7.88922C19.1675 7.8622 19.0595 7.84766 18.9556 7.84766Z" fill="#4E7AB5"/>
<path d="M10.4488 28.6268C9.82754 29.7032 8.44988 30.073 7.37144 29.4517L2.25144 26.4949C1.17508 25.8736 0.805205 24.4959 1.4265 23.4175C2.0478 22.3411 3.42547 21.9712 4.50391 22.5925L9.62391 25.5494C10.7003 26.1728 11.0701 27.5504 10.4488 28.6268Z" fill="#A3CCD7"/>
<path d="M8.49203 30.795C7.92268 30.795 7.35956 30.6454 6.85047 30.3524L1.73047 27.3955C0.969949 26.9571 0.425533 26.2464 0.196962 25.3986C-0.0295316 24.5487 0.086832 23.6636 0.525274 22.901C0.963715 22.1404 1.67436 21.596 2.52423 21.3675C3.3741 21.143 4.2593 21.2594 5.0219 21.6958L10.1419 24.6526C10.9024 25.0911 11.4468 25.8017 11.6754 26.6495C11.9019 27.4994 11.7855 28.3846 11.3471 29.1472C10.9087 29.9077 10.2001 30.4521 9.35021 30.6807C9.06553 30.7576 8.77878 30.795 8.49203 30.795ZM3.38034 23.3311C3.27436 23.3311 3.16839 23.3456 3.06449 23.3726C2.75281 23.4578 2.49099 23.6573 2.32891 23.9378C2.16683 24.2184 2.1232 24.5446 2.20631 24.8584C2.29151 25.1721 2.49099 25.4319 2.77151 25.5939L7.89151 28.5508C8.17203 28.7129 8.49826 28.7524 8.81203 28.6734C9.12372 28.5882 9.38553 28.3888 9.54761 28.1082C9.70969 27.8277 9.75333 27.5015 9.67021 27.1877C9.58501 26.8739 9.38553 26.6142 9.10501 26.4521L3.98501 23.4952C3.798 23.3851 3.59021 23.3311 3.38034 23.3311Z" fill="#7496C4"/>
<path d="M56.9618 16.1016C58.0382 16.7229 59.4158 16.3551 60.0392 15.2767L62.9961 10.1567C63.6174 9.08034 63.2496 7.70268 62.1711 7.0793C61.0948 6.458 59.7171 6.82579 59.0937 7.90424L56.1369 13.0242C55.5135 14.1027 55.8834 15.4803 56.9618 16.1016Z" fill="#8BB7F0"/>
<path d="M58.0849 17.4449C57.5135 17.4449 56.9504 17.2953 56.4434 17.0023C55.6828 16.5639 55.1384 15.8532 54.9099 15.0054C54.6834 14.1556 54.7997 13.2704 55.2382 12.5078L58.195 7.38778C59.1031 5.81687 61.1187 5.27869 62.6917 6.18259C63.4522 6.62311 63.9966 7.33168 64.2252 8.18155C64.4538 9.03142 64.3353 9.91661 63.8969 10.6792L60.9421 15.7992C60.5036 16.5618 59.793 17.1041 58.9431 17.3327C58.6563 17.4075 58.3696 17.4449 58.0849 17.4449ZM61.046 7.81999C60.6262 7.81999 60.2189 8.03609 59.9945 8.42674L57.0376 13.5467C56.8756 13.8273 56.8319 14.1535 56.915 14.4652C57.0002 14.779 57.1997 15.0387 57.4802 15.2008C58.0579 15.5332 58.8018 15.3358 59.1384 14.7582L62.0932 9.63817C62.2553 9.35765 62.2989 9.03142 62.2158 8.71765C62.1306 8.40389 61.9312 8.14207 61.6506 7.98207C61.4615 7.87194 61.2517 7.81999 61.046 7.81999Z" fill="#4E7AB5"/>
<path d="M69.5496 28.5956C70.1709 29.6719 71.5485 30.0418 72.627 29.4205L77.747 26.4636C78.8233 25.8423 79.1932 24.4646 78.5719 23.3862C77.9506 22.3098 76.5729 21.94 75.4945 22.5613L70.3745 25.5182C69.2981 26.1415 68.9283 27.5192 69.5496 28.5956Z" fill="#8BB7F0"/>
<path d="M71.5083 30.7626C71.2216 30.7626 70.9348 30.7252 70.6502 30.6483C69.8003 30.4197 69.0917 29.8753 68.6512 29.1148C68.2128 28.3522 68.0943 27.467 68.3229 26.6171C68.5515 25.7673 69.0959 25.0587 69.8564 24.6182L74.9764 21.6634C75.7369 21.2229 76.6221 21.1065 77.4741 21.3351C78.3239 21.5616 79.0325 22.1081 79.473 22.8686C79.9115 23.6312 80.0299 24.5164 79.8013 25.3662C79.5728 26.2161 79.0283 26.9247 78.2678 27.3652L73.1478 30.3221C72.6408 30.613 72.0777 30.7626 71.5083 30.7626ZM76.6221 23.2987C76.4102 23.2987 76.2044 23.3527 76.0154 23.4629L70.8954 26.4177C70.6148 26.5797 70.4133 26.8416 70.3302 27.1532C70.247 27.467 70.2886 27.7932 70.4528 28.0738C70.6169 28.3543 70.8766 28.5558 71.1883 28.639C71.4979 28.7179 71.8283 28.6805 72.1089 28.5164L77.2289 25.5595C77.5094 25.3974 77.7109 25.1356 77.7941 24.8239C77.8772 24.5101 77.8356 24.1839 77.6715 23.9034C77.5094 23.6229 77.2476 23.4234 76.9359 23.3382C76.832 23.3133 76.726 23.2987 76.6221 23.2987Z" fill="#4E7AB5"/>
<path d="M28.2585 28.3774C28.1587 27.9202 28.032 27.5026 27.8865 27.1348C26.9888 27.2511 26.1223 27.4111 25.2912 27.6106C25.2184 28.4335 25.2787 29.408 25.4907 30.3722C25.6029 30.8813 25.7462 31.3405 25.9104 31.7353C26.7104 31.5275 27.5582 31.3654 28.4455 31.2511C28.5348 30.4033 28.4787 29.3852 28.2585 28.3774Z" fill="#B2CFF5"/>
<path d="M27.0643 27.2558C26.9334 28.0288 26.9106 28.9514 27.0249 29.8844C27.0934 30.4558 27.2077 30.9732 27.3511 31.4179C27.8602 31.3264 28.3859 31.2496 28.9241 31.1935L29.9402 30.9981C30.0649 30.2314 30.0877 29.3233 29.9755 28.4028C29.909 27.8584 29.803 27.3618 29.668 26.9316L28.7101 27.0376C28.1511 27.0958 27.6025 27.1685 27.0643 27.2558Z" fill="#D8E7FA"/>
<path d="M31.3396 26.7988L29.2326 27.0316C29.0684 27.7318 28.9833 28.5505 29.0082 29.3983C29.0269 30.0736 29.1121 30.6887 29.2471 31.2082C29.2908 31.204 29.3323 31.1978 29.3739 31.1936L31.3417 30.8175V26.7988H31.3396Z" fill="white"/>
<path d="M26.5391 28.3513C26.2856 27.5659 25.9656 26.9238 25.6269 26.4688C24.9225 26.6204 24.2409 26.7991 23.5822 27.0028C23.468 27.6095 23.4638 28.3742 23.576 29.1888C24.5131 28.8646 25.5085 28.6007 26.5557 28.3991C26.5474 28.3846 26.5433 28.368 26.5391 28.3513Z" fill="#4E7AB5"/>
<path d="M27.3789 26.1562C26.7368 26.2498 26.1093 26.364 25.5005 26.497C25.3155 27.0726 25.2345 27.8435 25.2698 28.6851C26.2028 28.4503 27.1815 28.2674 28.2018 28.1407C27.996 27.3053 27.7031 26.6217 27.3789 26.1562Z" fill="#89A6CE"/>
<path d="M27.3642 26.1595C27.1335 26.7185 26.9902 27.4811 26.959 28.3289C27.5616 28.2229 28.1808 28.1377 28.8146 28.0754L29.9117 27.9549C29.7704 27.1196 30.1985 26.357 29.9117 25.877L28.6089 26.0079C28.187 26.0494 27.7735 26.0993 27.3642 26.1595Z" fill="#C4D3E6"/>
<path d="M29.0566 28.0547C29.1252 28.0464 29.1938 28.038 29.2624 28.0318L31.3403 27.8053V25.6484L29.5907 25.823C29.333 26.3819 29.1439 27.2193 29.0566 28.0547Z" fill="white"/>
<path d="M25.1236 33.0475C25.6617 32.8688 26.2269 32.715 26.8171 32.5841C26.9895 32.0293 27.0394 31.2688 26.9646 30.4355C25.9402 30.6288 24.974 30.8885 24.0742 31.2085C24.3734 32.021 24.7454 32.6548 25.1236 33.0475Z" fill="#4E7AB5"/>
<path d="M26.424 32.676C26.9975 32.5368 27.598 32.4225 28.2193 32.331C28.4105 31.7783 28.5019 31.0282 28.479 30.2012C27.4608 30.3238 26.4905 30.5066 25.5762 30.7456C25.7944 31.5684 26.0957 32.2334 26.424 32.676Z" fill="#89A6CE"/>
<path d="M27.1016 30.4084C27.2491 31.2396 27.4943 31.9295 27.7873 32.397C28.1925 32.3305 28.6081 32.2723 29.034 32.2266L29.6221 32.1643C29.8527 31.6219 29.9982 30.876 30.0377 30.0469L28.8138 30.1612C28.2278 30.2256 27.6564 30.3087 27.1016 30.4084Z" fill="#C4D3E6"/>
<path d="M31.34 32.0726V29.9199L29.2621 30.1132C29.1956 30.1194 29.1291 30.1298 29.0605 30.136C29.1541 30.9797 29.3598 31.7755 29.6299 32.2534L31.34 32.0726Z" fill="white"/>
<path d="M52.1545 55.9146C52.9878 55.231 53.7794 54.5328 54.5275 53.8263C54.0142 53.2029 53.4781 52.7105 52.9919 52.4258C52.4974 52.8871 51.98 53.3505 51.4355 53.8097C51.5311 54.4144 51.7722 55.1375 52.1545 55.9146Z" fill="#7496C4"/>
<path d="M55.651 54.8318C55.1128 54.1232 54.5227 53.4832 53.9346 52.9492C53.1658 53.6869 52.345 54.4142 51.4785 55.1248C51.6406 55.3721 51.8172 55.6235 52.0105 55.877C52.7045 56.7913 53.4858 57.5913 54.2338 58.196C55.0401 57.5331 55.811 56.8557 56.5445 56.1721C56.2972 55.7399 56.0001 55.289 55.651 54.8318Z" fill="#C2DDE4"/>
<path d="M53.5019 55.9116C53.0739 55.4066 52.6167 54.9495 52.1575 54.5547C51.5154 55.1033 50.8484 55.6435 50.1544 56.1713L49.4375 56.9235C49.61 57.1646 49.8011 57.4077 50.0069 57.6508C50.7258 58.4986 51.5237 59.2092 52.2801 59.7162L52.6541 59.444C53.3835 58.8892 54.0879 58.324 54.7653 57.7526C54.4598 57.1708 54.0339 56.5412 53.5019 55.9116Z" fill="#E0EEF2"/>
<path d="M52.6523 59.4672C52.3302 58.7566 51.7941 57.9732 51.0793 57.223C50.7468 56.874 50.3998 56.556 50.0466 56.2734C49.9905 56.3171 49.9364 56.3586 49.8803 56.4023L48.4258 57.9254L50.7011 60.8927L52.3801 59.675C52.4715 59.6064 52.5608 59.5379 52.6523 59.4672Z" fill="white"/>
<path d="M54.8776 50.5332C54.302 51.1545 53.6807 51.78 53.0137 52.4054C53.2713 52.9311 53.608 53.5046 54.0173 54.101C54.0443 54.1426 54.0734 54.182 54.1025 54.2215C54.9129 53.4755 55.6734 52.7192 56.382 51.9566C55.875 51.3997 55.3617 50.9155 54.8776 50.5332Z" fill="#7496C4"/>
<path d="M53.1376 52.2871C52.454 52.9333 51.7226 53.5796 50.9434 54.2217C51.2176 54.7432 51.5771 55.3022 52.0114 55.8757C52.0363 55.9068 52.0613 55.938 52.0841 55.9713C52.9984 55.2232 53.867 54.4585 54.6774 53.6835C54.1662 53.1391 53.6405 52.6653 53.1376 52.2871Z" fill="#A2B9D8"/>
<path d="M49.9774 57.6172L50.7836 57C51.5254 56.4369 52.2382 55.8592 52.9197 55.2754C52.3961 54.7372 51.8496 54.2738 51.3197 53.9102C50.7483 54.3922 50.1519 54.8702 49.5265 55.346L48.793 55.905C49.086 56.4494 49.4849 57.0312 49.9774 57.6172Z" fill="#D1DCEB"/>
<path d="M47.5352 56.8205L48.8629 58.4953L50.5128 57.2299C50.6229 57.1467 50.731 57.0615 50.8391 56.9784C50.2946 56.4423 49.6879 55.9914 49.1289 55.6465L47.5352 56.8205Z" fill="white"/>
<path d="M56.8815 57.273C57.5464 56.6621 58.1844 56.045 58.789 55.4195C58.5334 54.9021 58.201 54.3369 57.7979 53.751C57.7563 53.6907 57.7147 53.6325 57.6732 53.5723C56.9563 54.3328 56.1895 55.0871 55.375 55.8289C55.882 56.392 56.3953 56.8845 56.8815 57.273Z" fill="#7496C4"/>
<path d="M53.4492 57.4967C54.0144 58.0432 54.5858 58.4962 55.1116 58.8203C55.7765 58.2676 56.4144 57.7066 57.0295 57.1372C56.7947 56.572 56.4393 55.9362 55.976 55.2754C55.1801 56.0276 54.3365 56.7694 53.4492 57.4967Z" fill="#A2B9D8"/>
<path d="M52.0261 58.6179L51.4297 59.0751C52.0676 59.6112 52.1964 60.4132 52.7699 60.6626L53.2832 60.2719C53.9377 59.7753 54.5715 59.2683 55.1845 58.7551C55.0141 58.1899 54.6858 57.5332 54.2183 56.8496C53.518 57.4501 52.7866 58.0403 52.0261 58.6179Z" fill="#D1DCEB"/>
<path d="M51.3627 61.7557L52.9794 60.5276C52.8983 59.9562 52.597 59.2539 52.1295 58.5391C52.0007 58.6388 50.1035 60.1141 50.1035 60.1141L51.3627 61.7557Z" fill="white"/>
<path d="M17.6409 57.957C17.1816 58.0422 16.685 58.1814 16.1676 58.3768C15.297 58.7072 14.4928 59.1539 13.832 59.6443C14.3224 60.7892 14.8793 61.8885 15.5006 62.9378C15.7603 62.8651 16.0305 62.7778 16.3048 62.6739C17.431 62.2459 18.4429 61.6266 19.1785 60.9659C18.6009 60.0079 18.0876 59.0022 17.6409 57.957Z" fill="#D1EAD3"/>
<path d="M24.2106 57.5604C21.6548 55.5241 19.4771 53.2467 17.8065 50.8155C14.9826 46.7033 13.8543 42.5433 14.5046 38.83C14.2117 37.0596 14.1597 35.2913 14.3613 33.5625C13.9976 34.1319 13.6756 34.7261 13.4013 35.3495C11.1966 40.3448 12.1524 46.2565 16.0922 51.9937C17.6797 54.3043 19.6911 56.4903 22.0787 58.5038C22.0143 60.2098 22.0662 61.8617 22.2366 63.4493C20.4766 61.3817 19.0865 58.9921 18.1285 56.3594L17.5218 54.6908L15.8657 56.2659L16.1774 57.07C18.0184 62.1235 21.3556 66.3667 25.6776 69.2778C24.3914 65.7599 23.9343 61.7433 24.2106 57.5604Z" fill="#5E9C76"/>
<path d="M17.1507 56.7148L16.7101 55.5449C16.0597 55.5844 15.3242 55.7652 14.5657 56.0976C13.932 56.3761 13.3501 56.7314 12.8535 57.1262L13.2504 58.1818C13.6514 59.2769 14.1127 60.3345 14.6281 61.3506C14.9439 61.2634 15.2701 61.147 15.5985 61.0015C16.652 60.5382 17.5559 59.867 18.1834 59.1439C17.799 58.3584 17.454 57.548 17.1507 56.7148Z" fill="#E8F5E9"/>
<path d="M16.9892 56.3027L16.2433 54.3203L12.3555 55.8247L13.089 57.7676C13.2822 58.2933 13.4879 58.8107 13.7061 59.3198C14.0448 59.2221 14.3898 59.0871 14.7326 58.9146C15.7903 58.3827 16.6381 57.591 17.1534 56.7432C17.0973 56.5956 17.0433 56.4502 16.9892 56.3027Z" fill="white"/>
<path d="M18.732 57.8603C18.1336 57.8478 17.4105 57.9642 16.625 58.2177C17.1216 59.4 17.6993 60.5325 18.3559 61.6089C19.0146 61.16 19.5569 60.6613 19.9143 60.173C19.4801 59.4291 19.0853 58.6582 18.732 57.8603Z" fill="#94BDA4"/>
<path d="M18.1271 56.3588L17.6783 55.1037C17.0799 54.9333 16.4981 55.5006 15.6523 55.7188L16.1739 57.0694C16.5292 58.044 16.9407 58.9874 17.402 59.8996C18.0648 59.3551 18.5739 58.7359 18.8544 58.1333C18.5905 57.5536 18.3474 56.9635 18.1271 56.3588Z" fill="#C9DED1"/>
<path d="M67.9089 56.9121C66.899 58.1547 65.7187 59.2539 64.393 60.2077C59.9712 69.3422 50.6247 75.6633 39.8133 75.6633C28.125 75.6633 18.0969 68.4051 14.2278 57.8243L12.6133 59.3599C17.0829 70.5495 27.6512 77.7412 39.8133 77.7412C51.8798 77.7412 62.5873 70.4809 67.0902 59.2435C67.1193 59.1708 67.1483 59.0898 67.1712 59.0274C67.4455 58.3272 67.6907 57.6228 67.9089 56.9121Z" fill="#5E9C76"/>
<path d="M17.7074 55.1862L17.2524 53.9395L15.2617 54.7208L16.0118 56.6595C16.1386 57.0065 16.2737 57.3514 16.4129 57.6922C17.1568 56.9275 17.6368 56.0174 17.7074 55.1862Z" fill="white"/>
<path d="M14.7178 59.0664C14.0446 59.455 13.4565 59.8997 13.0098 60.3547C13.4357 61.3209 13.9074 62.256 14.4248 63.1558C14.9921 63.0893 15.6321 62.9313 16.3054 62.6737C16.376 62.6467 16.4466 62.6197 16.5173 62.5906C15.8378 61.4706 15.2352 60.2924 14.7178 59.0664Z" fill="#94BDA4"/>
<path d="M14.2271 57.8237L13.7263 56.5312C13.0614 56.924 12.4837 57.3957 12.0391 57.8944L12.2759 58.5385C12.6541 59.5754 13.0863 60.579 13.5663 61.5474C14.1897 61.4954 14.8858 61.3167 15.6006 61.0029C15.6069 61.0009 15.6131 60.9967 15.6214 60.9946C15.0936 59.9744 14.6282 58.9167 14.2271 57.8237Z" fill="#C9DED1"/>
<path d="M14.6786 58.9428C14.4604 58.4399 14.2547 57.9308 14.0656 57.4114L13.3155 55.4727L11.4121 56.2082L12.1124 58.1241C12.2828 58.5916 12.4656 59.0529 12.6589 59.508C13.2968 59.4685 13.9887 59.2815 14.6786 58.9428Z" fill="white"/>
<path d="M49.6089 30.9819C49.5029 31.4972 49.4759 32.1039 49.5487 32.7606C49.6422 33.6125 49.8832 34.4084 50.2136 35.04L51.6266 34.8842C52.1731 34.8219 52.7071 34.7803 53.2245 34.7595C53.318 34.2608 53.3388 33.679 53.2702 33.0535C53.1726 32.1517 52.9066 31.3143 52.5492 30.666C52.0048 30.7013 51.4479 30.7554 50.8806 30.826L49.6089 30.9819Z" fill="#C5DBF8"/>
<path d="M47.8613 31.1653L48.7091 35.1674L50.3652 34.9534C50.4982 34.9347 50.6312 34.9201 50.7642 34.9056C50.8348 34.3342 50.8244 33.6755 50.7164 32.9814C50.5896 32.1731 50.3486 31.4375 50.0452 30.8516C49.9413 30.8661 49.8374 30.8786 49.7315 30.8952L47.8613 31.1653Z" fill="white"/>
<path d="M49.8125 34.0512C50.0681 34.8865 49.9351 35.6471 50.3881 36.0751L51.7429 35.9193C52.1169 35.8756 52.4847 35.8445 52.8442 35.8216C53.1455 35.3291 53.318 34.5873 53.3096 33.7188C52.7278 33.7395 52.1273 33.7832 51.506 33.8559L49.8125 34.0512Z" fill="#A6BCDA"/>
<path d="M48.4941 34.1774L48.9243 36.3031C48.9243 36.3031 50.4744 36.1265 50.4827 36.1265C50.7154 35.5634 50.836 34.7385 50.8006 33.8574C50.6219 33.8761 50.4432 33.899 50.2625 33.9239L48.4941 34.1774Z" fill="white"/>
<path d="M51.0063 31.8549C51.6816 31.7697 52.3403 31.7115 52.9782 31.6804C52.6956 30.8014 52.2592 30.0824 51.7689 29.6855C51.4322 29.7167 51.0915 29.75 50.7465 29.7936L49.3335 29.9702C48.9969 30.4461 49.5081 31.1214 49.506 32.0274L51.0063 31.8549Z" fill="#A6BCDA"/>
<path d="M50.5224 32.0865C50.2565 31.2449 49.7973 30.314 49.3671 29.8984L47.6445 30.1519L48.0705 32.1634L49.8097 32.5665C50.0154 32.5353 50.3209 32.1114 50.5224 32.0865Z" fill="white"/>
<path d="M36.7513 19.092C36.5185 19.6489 36.3731 20.3761 36.3398 21.174C37.3102 21.0452 38.4448 20.9663 39.8453 21.012C39.6978 20.1808 39.4505 19.4764 39.145 18.959C38.4572 18.9715 37.6531 19.0089 36.7513 19.092Z" fill="#89A6CE"/>
<path d="M34.5547 21.4797C35.5126 21.2886 36.6035 21.0933 38.0082 21.0247C37.8253 20.2122 37.5469 19.5348 37.2186 19.0527C36.5225 19.1068 35.762 19.1899 34.9495 19.3104C34.7085 19.8818 34.5692 20.6423 34.5547 21.4797Z" fill="#C4D3E6"/>
<path d="M34.0941 21.5737C34.703 21.4511 35.3596 21.3181 36.1139 21.2121C35.9102 20.4101 35.5549 19.6433 35.2141 19.1758C34.678 19.2485 34.117 19.3379 33.5352 19.4459L34.0941 21.5737Z" fill="white"/>
<path d="M37.2153 25.2209C37.9737 25.1607 38.7363 25.1357 39.5031 25.1503C39.7566 24.6121 39.9208 23.8869 39.9686 23.0827C39.9208 23.0807 39.875 23.0786 39.8273 23.0765C38.728 23.0433 37.5997 23.0931 36.4922 23.2116C36.648 24.0323 36.9057 24.7201 37.2153 25.2209Z" fill="#89A6CE"/>
<path d="M35.4678 25.4278C36.2636 25.3031 37.0698 25.2179 37.8802 25.1763C38.0922 24.6091 38.2106 23.8818 38.221 23.0859C37.047 23.1317 35.8667 23.2626 34.7363 23.4558C34.9026 24.2537 35.1623 24.9291 35.4678 25.4278Z" fill="#C4D3E6"/>
<path d="M34.998 25.647C35.3679 25.5826 35.7398 25.5264 36.1138 25.4807C36.3008 24.901 36.4027 24.0283 36.386 23.2324C35.7751 23.2989 35.1684 23.3841 34.5762 23.4859L34.998 25.647Z" fill="white"/>
<path d="M34.8289 24.4832L36.3209 24.4313C36.4269 23.6583 36.4102 22.7544 36.2482 21.8339C36.1567 21.3227 36.03 20.8531 35.8762 20.4375L33.8398 20.5559L34.8289 24.4832Z" fill="white"/>
</g>
<defs>
<clipPath id="clip0_374_2986">
<rect width="80" height="77.7489" fill="white"/>
</clipPath>
</defs>
</svg>
