<svg width="80" height="80" viewBox="0 0 80 80" fill="none" xmlns="http://www.w3.org/2000/svg">
<g clip-path="url(#clip0_374_2904)">
<path d="M80 79.997C80 79.9985 79.9985 80 79.997 80H0.00296296C0.00148148 80 0 79.9985 0 79.997V0.00296296C0 0.00148148 0.00148148 0 0.00296296 0H79.9978C79.9993 0 80.0007 0.00148148 80.0007 0.00296296V79.997H80Z" fill="white"/>
<path d="M78.6673 78.6644C78.6673 78.6658 78.6658 78.6673 78.6644 78.6673H1.33695C1.33547 78.6673 1.33398 78.6658 1.33398 78.6644V1.33695C1.33398 1.33547 1.33547 1.33398 1.33695 1.33398H78.6651C78.6666 1.33398 78.6681 1.33547 78.6681 1.33695V78.6644H78.6673Z" fill="#D00000"/>
<path d="M22.4441 61.0125C22.4441 61.071 22.4782 61.1525 22.5189 61.1932L23.8426 62.5169C23.8841 62.5584 23.9656 62.5918 24.0234 62.5918H28.553C28.6115 62.5918 28.693 62.5577 28.7337 62.5169L30.0574 61.1932C30.0989 61.1518 30.1322 61.0703 30.1322 61.0125V46.6399C30.1322 46.5814 30.1671 46.5006 30.2093 46.4606L35.9641 40.9644C36.0063 40.9244 36.0678 40.9303 36.1004 40.9792L50.6404 62.5051C50.673 62.5532 50.7478 62.5932 50.8056 62.5932H57.2226C57.2811 62.5932 57.3508 62.551 57.3774 62.4992L58.5419 60.2429C58.5685 60.191 58.5634 60.1095 58.53 60.0614L41.5226 35.4095C41.4893 35.3614 41.496 35.2888 41.5374 35.2473L57.1804 19.6777C57.2219 19.6362 57.2552 19.5555 57.2552 19.4969V19.2095C57.2552 19.151 57.236 19.0599 57.213 19.0058L56.3108 16.931C56.2878 16.8777 56.2204 16.834 56.1626 16.834H49.8197C49.7611 16.834 49.6797 16.8681 49.6389 16.9088L30.2085 36.4125C30.1671 36.454 30.1337 36.4399 30.1337 36.3814V18.4888C30.1337 18.4303 30.1011 18.3481 30.0611 18.3051L28.7626 16.9125C28.7226 16.8695 28.6426 16.8347 28.5841 16.8347H24.0234C23.9648 16.8347 23.8848 16.8695 23.8448 16.9125L22.5152 18.3481C22.4752 18.391 22.4434 18.4732 22.4434 18.5318V61.0125H22.4441Z" fill="white"/>
</g>
<defs>
<clipPath id="clip0_374_2904">
<rect width="80" height="80" fill="white"/>
</clipPath>
</defs>
</svg>
