<svg width="87" height="80" viewBox="0 0 87 80" fill="none" xmlns="http://www.w3.org/2000/svg">
<g clip-path="url(#clip0_374_2871)">
<path d="M32.9738 37.6378C29.139 35.4238 26.1418 32.0062 24.4472 27.9151C22.7527 23.8241 22.4554 19.2881 23.6014 15.0109C24.7475 10.7336 27.273 6.95407 30.786 4.25839C34.2991 1.56271 38.6035 0.101563 43.0317 0.101562C47.4598 0.101562 51.7642 1.56271 55.2773 4.25839C58.7904 6.95407 61.3158 10.7336 62.4619 15.0109C63.608 19.2881 63.3107 23.8241 61.6161 27.9151C59.9215 32.0062 56.9244 35.4238 53.0895 37.6378L47.033 27.1476C48.5586 26.2668 49.7509 24.9072 50.4251 23.2797C51.0992 21.6521 51.2175 19.8476 50.7616 18.146C50.3056 16.4444 49.3009 14.9407 47.9033 13.8683C46.5057 12.7959 44.7933 12.2146 43.0317 12.2146C41.27 12.2146 39.5576 12.7959 38.16 13.8683C36.7624 14.9407 35.7577 16.4444 35.3017 18.146C34.8458 19.8476 34.9641 21.6521 35.6382 23.2797C36.3124 24.9072 37.5047 26.2668 39.0304 27.1476L32.9738 37.6378Z" fill="#FF0101"/>
<path d="M76.0515 42.5067C79.8864 44.7208 82.8836 48.1383 84.5782 52.2294C86.2727 56.3205 86.57 60.8564 85.4239 65.1336C84.2779 69.4109 81.7524 73.1905 78.2394 75.8861C74.7263 78.5818 70.4219 80.043 65.9937 80.043C61.5656 80.043 57.2612 78.5818 53.7481 75.8861C50.235 73.1905 47.7096 69.4109 46.5635 65.1336C45.4174 60.8564 45.7147 56.3205 47.4093 52.2294C49.1039 48.1383 52.101 44.7208 55.9359 42.5067L61.9924 52.9969C60.4668 53.8777 59.2745 55.2373 58.6003 56.8649C57.9261 58.4924 57.8079 60.2969 58.2638 61.9986C58.7198 63.7002 59.7245 65.2038 61.1221 66.2762C62.5197 67.3486 64.2321 67.9299 65.9937 67.9299C67.7554 67.9299 69.4678 67.3486 70.8654 66.2762C72.263 65.2038 73.2677 63.7002 73.7236 61.9986C74.1796 60.2969 74.0613 58.4924 73.3872 56.8649C72.713 55.2373 71.5207 53.8777 69.995 52.9969L76.0515 42.5067Z" fill="#0101FF"/>
<path d="M40.621 59.9278C40.621 64.3559 39.1599 68.6603 36.4642 72.1734C33.7685 75.6865 29.989 78.2119 25.7117 79.358C21.4345 80.5041 16.8986 80.2068 12.8075 78.5122C8.71642 76.8176 5.29883 73.8205 3.08476 69.9856C0.870687 66.1507 -0.0161236 61.6924 0.561864 57.3022C1.13985 52.9119 3.15034 48.835 6.2815 45.7039C9.41267 42.5727 13.4895 40.5622 17.8798 39.9842C22.27 39.4062 26.7283 40.2931 30.5632 42.5071L24.5067 52.9973C22.9811 52.1165 21.2074 51.7637 19.4609 51.9936C17.7143 52.2236 16.0924 53.0234 14.8467 54.2691C13.601 55.5148 12.8012 57.1367 12.5713 58.8832C12.3413 60.6298 12.6941 62.4034 13.575 63.9291C14.4558 65.4547 15.8154 66.6471 17.4429 67.3212C19.0705 67.9954 20.875 68.1136 22.5766 67.6577C24.2782 67.2017 25.7819 66.1971 26.8543 64.7994C27.9267 63.4018 28.508 61.6894 28.508 59.9278L40.621 59.9278Z" fill="#01FF01"/>
</g>
<defs>
<clipPath id="clip0_374_2871">
<rect width="86.6426" height="80" fill="white"/>
</clipPath>
</defs>
</svg>
