<svg width="80" height="80" viewBox="0 0 80 80" fill="none" xmlns="http://www.w3.org/2000/svg">
<g clip-path="url(#clip0_374_2839)">
<path d="M39.616 0.3125C19.3559 0.312501 20.6211 9.0985 20.6211 9.0985L20.6437 18.2007H39.9774V20.9336H12.9644C12.9644 20.9336 0 19.4633 0 39.906C-1.445e-06 60.3486 11.3156 59.6236 11.3156 59.6236H18.0689V50.1375C18.0689 50.1375 17.7049 38.8218 29.2038 38.8218H48.3794C48.3794 38.8218 59.153 38.996 59.153 28.4096V10.9054C59.153 10.9054 60.7887 0.3125 39.616 0.3125ZM28.9554 6.43334C30.879 6.43333 32.4337 7.98803 32.4337 9.9116C32.4337 11.8352 30.879 13.3899 28.9554 13.3899C27.0318 13.3899 25.4771 11.8352 25.4771 9.9116C25.4771 7.98803 27.0318 6.43334 28.9554 6.43334Z" fill="url(#paint0_linear_374_2839)"/>
<path d="M40.1913 79.7049C60.4514 79.7049 59.1862 70.9189 59.1862 70.9189L59.1636 61.8167H39.8299V59.0838H66.8429C66.8429 59.0838 79.8073 60.5541 79.8073 40.1115C79.8073 19.6689 68.4917 20.3938 68.4917 20.3938H61.7384V29.88C61.7384 29.88 62.1025 41.1956 50.6035 41.1956H31.4279C31.4279 41.1956 20.6543 41.0215 20.6543 51.6078V69.1121C20.6543 69.1121 19.0186 79.7049 40.1913 79.7049ZM50.8519 73.5841C48.9284 73.5841 47.3737 72.0294 47.3737 70.1058C47.3737 68.1823 48.9284 66.6276 50.8519 66.6276C52.7755 66.6276 54.3302 68.1823 54.3302 70.1058C54.3302 72.0294 52.7755 73.5841 50.8519 73.5841Z" fill="url(#paint1_linear_374_2839)"/>
</g>
<defs>
<linearGradient id="paint0_linear_374_2839" x1="7.66965" y1="7.45358" x2="47.2193" y2="46.6087" gradientUnits="userSpaceOnUse">
<stop stop-color="#387EB8"/>
<stop offset="1" stop-color="#366994"/>
</linearGradient>
<linearGradient id="paint1_linear_374_2839" x1="31.9451" y1="32.597" x2="74.4173" y2="72.7472" gradientUnits="userSpaceOnUse">
<stop stop-color="#FFE052"/>
<stop offset="1" stop-color="#FFC331"/>
</linearGradient>
<clipPath id="clip0_374_2839">
<rect width="80" height="80" fill="white"/>
</clipPath>
</defs>
</svg>
