<svg width="67" height="80" viewBox="0 0 67 80" fill="none" xmlns="http://www.w3.org/2000/svg">
<path d="M55.8948 23.1474L50.176 28.8662C59.7073 38.3974 59.7073 53.9199 50.176 63.4511C40.6447 72.9823 25.1223 72.9824 15.591 63.4511C6.05969 53.9198 6.05982 38.3974 15.591 28.8662L30.8411 13.6161L32.7473 11.4375V0L9.59988 23.1474C3.45662 29.2288 0 37.5143 0 46.1586C4.39692e-05 50.4384 0.848479 54.6756 2.49625 58.6254C4.14402 62.5751 6.55843 66.1591 9.59988 69.17C12.6108 72.2114 16.1947 74.6258 20.1445 76.2736C24.0943 77.9214 28.3315 78.7698 32.6112 78.7699C41.2555 78.7699 49.541 75.3132 55.6224 69.17C68.6939 56.3707 68.6939 35.6742 55.8948 23.1474ZM40.1001 17.1563C40.1001 14.7424 42.0433 12.7991 44.4572 12.7991C46.8711 12.7991 48.8144 14.7424 48.8144 17.1563C48.8144 19.5702 46.871 21.5135 44.4572 21.5135C42.0434 21.5135 40.1001 19.5702 40.1001 17.1563Z" fill="#EE4C2C"/>
</svg>
