<svg width="80" height="80" viewBox="0 0 80 80" fill="none" xmlns="http://www.w3.org/2000/svg">
<path d="M46.6666 56.6666C30 56.6666 15.8356 48.3188 15.8356 38.3188C15.8356 28.3188 28.3334 20 45 20C66.0491 20 75.8037 28.0972 75.8037 38.0972C75.8037 48.0972 65.0516 56.6666 46.6666 56.6666ZM40 10C18.3334 10 0 21.6666 0 36.6666C0 50.8334 18.2225 62.5944 39.8894 62.5944C61.5559 62.5944 80 51.6666 80 36.6666C80 21.6666 61.6666 10 40 10Z" fill="url(#paint0_linear_374_2916)"/>
<path d="M33.1074 26.1973V70.2938H46.4334V53.1454C49.7649 53.1454 51.7493 52.4179 53.929 56.4116C57.2605 62.1279 61.4249 70.2938 61.4249 70.2938H77.2493C77.2493 70.2938 67.2549 53.962 66.4221 53.1454C64.8862 51.512 63.0905 51.512 60.5921 50.6954C65.5893 49.8788 70.248 47.8054 71.8677 43.3629C73.2837 39.2801 73.1171 34.0863 70.0821 30.6035C67.4537 27.8476 64.7565 26.1973 58.0934 26.1973H33.1074ZM46.4334 35.381H55.1784C57.2521 35.381 58.9262 37.4226 58.9262 39.4638C58.9262 41.5054 57.2605 43.547 55.1784 43.547H46.4334V35.381Z" fill="#2165B6"/>
<defs>
<linearGradient id="paint0_linear_374_2916" x1="30.3781" y1="18.9405" x2="54.9726" y2="60.6997" gradientUnits="userSpaceOnUse">
<stop stop-color="#C9CBCE"/>
<stop offset="1" stop-color="#7B7A81"/>
</linearGradient>
</defs>
</svg>
