<svg width="80" height="38" viewBox="0 0 80 38" fill="none" xmlns="http://www.w3.org/2000/svg">
<path d="M58.7812 6.88086V21.2493H62.2221V16.9167H69.6773V21.2178H73.1182V6.88086H58.7812ZM69.6773 13.4758H62.2221V10.3217H69.6773V13.4758Z" fill="#5A17EE"/>
<path d="M55.6303 14.7662V18.3504V21.2178H41.5801V17.7769H52.1894V15.7697H41.5801V12.6156V9.0314V6.88086H55.6303V10.3217H45.0209V12.3289H55.6303V14.7662Z" fill="#5A17EE"/>
<path d="M24.0859 6.88086V21.2493H27.5268V16.9167H34.982V21.2178H38.4229V6.88086H24.0859ZM34.982 13.4758H27.5268V10.3217H34.982V13.4758Z" fill="#5A17EE"/>
<path d="M16.3203 15.7525L20.7246 14.1497L20.9339 14.0665V6.88086H6.88086V21.2178H10.2787V17.9461L12.8594 17.0113L16.7447 21.2178H20.9941L16.3203 15.7525ZM10.2988 14.2844V10.3217H17.4902V11.6637L10.2988 14.2844Z" fill="#5A17EE"/>
<path d="M69.2932 24.5276H76.1491V3.85376H3.85663V24.5276H55.4695L69.2875 31.3577V24.5276H69.2932ZM0 0H80V28.3871H73.147V37.5627L54.5749 28.3871H0V0Z" fill="#5A17EE"/>
</svg>
