<svg width="80" height="44" viewBox="0 0 80 44" fill="none" xmlns="http://www.w3.org/2000/svg">
<g clip-path="url(#clip0_374_2969)">
<path d="M61.3618 36.6618C71.1322 26.892 72.7561 12.6762 64.9886 4.90923C57.2222 -2.85683 43.007 -1.23328 33.2372 8.53596C23.4673 18.3055 26.2935 36.9705 29.611 40.2885C32.2918 42.9693 51.5926 46.431 61.3618 36.6618Z" fill="#F89939"/>
<path d="M21.2726 22.545C15.6046 16.877 7.35596 15.9334 2.84852 20.4405C-1.65776 24.9471 -0.715598 33.197 4.95353 38.8641C10.6227 44.5338 21.4529 42.8938 23.3765 40.9685C24.9331 39.4145 26.9423 28.2135 21.2726 22.545Z" fill="#3499CD"/>
<path d="M40.8285 34.2667C39.8272 35.1884 38.9488 35.8686 38.1939 36.3056C37.4389 36.7441 36.7189 36.9631 36.0338 36.9631C35.2456 36.9631 34.6098 36.6576 34.1278 36.0463C33.6449 35.4344 33.4043 34.614 33.4043 33.5818C33.4043 32.0353 33.7395 30.1787 34.4099 28.014C35.0792 25.8475 35.8941 23.8513 36.8513 22.0249L39.6579 20.9858C39.7459 20.9564 39.8128 20.9414 39.8572 20.9414C40.0701 20.9414 40.2461 21.0983 40.3811 21.4108C40.5175 21.7246 40.5862 22.1464 40.5862 22.6766C40.5862 24.1793 40.2403 25.634 39.5471 27.0409C38.8542 28.4484 37.7718 29.9505 36.2989 31.549C36.2397 32.3152 36.2103 32.8413 36.2103 33.1289C36.2103 33.7702 36.328 34.2777 36.5637 34.6535C36.7997 35.03 37.1124 35.2169 37.503 35.2169C37.9014 35.2169 38.3245 35.0744 38.774 34.7871C39.2226 34.4992 39.9077 33.9032 40.8282 32.9965V34.2667H40.8285ZM36.5972 29.9473C37.5324 28.9074 38.2919 27.7411 38.8735 26.4507C39.4551 25.1598 39.7456 24.0494 39.7456 23.1191C39.7456 22.8479 39.7055 22.6275 39.625 22.462C39.5439 22.2961 39.4401 22.2127 39.3152 22.2127C39.0437 22.2127 38.6471 22.8912 38.1275 24.2485C37.608 25.6055 37.0979 27.5054 36.5972 29.9473Z" fill="white"/>
<path d="M49.0943 34.2673C48.159 35.189 47.3196 35.8692 46.5753 36.3063C45.831 36.7447 45.0106 36.9637 44.1114 36.9637C43.1096 36.9637 42.3013 36.6432 41.6854 36.0031C41.0706 35.3612 40.7637 34.5186 40.7637 33.4723C40.7637 31.911 41.3046 30.4984 42.3887 29.2351C43.4704 27.9713 44.6717 27.3398 45.99 27.3398C46.6751 27.3398 47.2232 27.5173 47.6363 27.8706C48.0488 28.2246 48.2551 28.6882 48.2551 29.2628C48.2551 30.788 46.6347 32.0247 43.3937 32.9752C43.688 34.411 44.4576 35.1299 45.7027 35.1299C46.189 35.1299 46.6526 34.9992 47.0943 34.7384C47.5371 34.4765 48.2032 33.8955 49.0946 32.9974V34.2673H49.0943ZM43.3046 32.2238C45.1898 31.693 46.1331 30.7139 46.1331 29.2848C46.1331 28.5777 45.8749 28.2243 45.36 28.2243C44.8736 28.2243 44.41 28.5939 43.9684 29.3349C43.5253 30.0749 43.3046 31.0372 43.3046 32.2238Z" fill="white"/>
<path d="M60.8937 34.2662C59.715 35.3858 58.8715 36.1159 58.3638 36.4552C57.8555 36.7939 57.3694 36.9629 56.905 36.9629C55.741 36.9629 55.1926 35.9356 55.2587 33.8803C54.5222 34.9332 53.8422 35.7103 53.2197 36.2123C52.5978 36.7131 51.9553 36.9629 51.2915 36.9629C50.6442 36.9629 50.0938 36.6597 49.64 36.0519C49.1862 35.4441 48.9609 34.6987 48.9609 33.8139C48.9609 32.7096 49.2641 31.6561 49.8714 30.6536C50.4798 29.6518 51.2586 28.8423 52.2086 28.2235C53.1586 27.6047 53.9992 27.2949 54.7276 27.2949C55.6487 27.2949 56.2934 27.7187 56.6618 28.5654L58.92 27.3174H59.5396L58.5643 30.5544C58.0635 32.1829 57.8123 33.299 57.8123 33.9027C57.8123 34.536 58.0364 34.8527 58.4861 34.8527C58.7723 34.8527 59.089 34.7001 59.4355 34.394C59.782 34.0879 60.2672 33.6221 60.8932 32.9961V34.2662H60.8937ZM52.8057 34.8746C53.5422 34.8746 54.2363 34.2469 54.8894 32.9912C55.5414 31.7349 55.8671 30.5758 55.8671 29.5153C55.8671 29.1034 55.7742 28.7806 55.591 28.5489C55.4061 28.3161 55.1594 28.2007 54.8508 28.2007C54.1137 28.2007 53.415 28.8267 52.757 30.0793C52.0978 31.3318 51.7675 32.4846 51.7675 33.537C51.7675 33.9354 51.8656 34.2576 52.0606 34.5045C52.2556 34.7514 52.5031 34.8746 52.8057 34.8746Z" fill="white"/>
<path d="M69.1481 34.2675C67.2989 36.0794 65.8733 36.9861 64.8717 36.9861C64.422 36.9861 64.0423 36.7962 63.7337 36.418C63.425 36.0384 63.2695 35.5685 63.2695 35.0083C63.2695 33.9697 63.8263 32.5781 64.9383 30.832C64.3928 31.1121 63.7968 31.3065 63.1483 31.4173C62.6695 32.3012 61.9177 33.2517 60.8942 34.2672H60.6406V33.2739C61.2147 32.6774 61.7342 32.0361 62.1984 31.351C61.564 31.0709 61.2479 30.6546 61.2479 30.103C61.2479 29.535 61.4406 28.9295 61.8283 28.2842C62.2148 27.6403 62.7468 27.3184 63.425 27.3184C63.9996 27.3184 64.2864 27.612 64.2864 28.2017C64.2864 28.6658 64.1208 29.3285 63.7888 30.1907C65.0113 30.0577 66.0796 29.1231 66.9934 27.3841L67.9985 27.3397L66.9709 30.1682C66.544 31.3616 66.2676 32.1746 66.1427 32.605C66.0178 33.0354 65.9546 33.4173 65.9546 33.7482C65.9546 34.058 66.0268 34.3055 66.1698 34.4884C66.3135 34.6739 66.5074 34.7651 66.7503 34.7651C67.0151 34.7651 67.2698 34.6745 67.5127 34.4951C67.7556 34.313 68.3008 33.8146 69.1484 32.997V34.2675H69.1481Z" fill="white"/>
<path d="M79.9989 34.2659C78.2975 36.0643 76.8381 36.9626 75.6233 36.9626C75.1297 36.9626 74.7319 36.7895 74.4299 36.4431C74.1273 36.0972 73.9764 35.6333 73.9764 35.0515C73.9764 34.2633 74.3009 33.0587 74.9494 31.4389C75.2953 30.5694 75.469 30.0161 75.469 29.7813C75.469 29.5453 75.3761 29.4273 75.1929 29.4273C75.0899 29.4273 74.9529 29.4793 74.7838 29.5817C74.6284 29.6847 74.4481 29.8295 74.2418 30.0132C74.058 30.1823 73.8512 30.3885 73.623 30.6309C73.4237 30.8389 73.2099 31.0742 72.9829 31.3385L72.3632 32.0574C72.0912 32.3885 71.9216 32.7379 71.8555 33.1066C71.7445 33.7326 71.6712 34.3078 71.634 34.8314C71.6115 35.2208 71.6008 35.747 71.6008 36.4113L69.1589 36.9848C69.0784 35.9905 69.0371 35.2499 69.0371 34.7644C69.0371 33.5785 69.1753 32.4549 69.4519 31.3945C69.728 30.3329 70.1714 29.1403 70.7833 27.8139L73.4788 27.2949C72.9119 28.8201 72.5401 30.0202 72.3632 30.8963C73.5714 29.5485 74.5291 28.6156 75.2391 28.0954C75.9478 27.5759 76.579 27.3174 77.1306 27.3174C77.5053 27.3174 77.8186 27.4588 78.0681 27.7418C78.3188 28.0251 78.4435 28.3807 78.4435 28.806C78.4435 29.5124 78.1267 30.6764 77.4941 32.2977C77.0591 33.4095 76.8415 34.1309 76.8415 34.4641C76.8415 34.9075 77.0224 35.1291 77.3842 35.1291C77.9228 35.1291 78.7951 34.418 79.9989 32.9964V34.2659Z" fill="white"/>
<path d="M45.0493 21.834C45.0675 22.0391 45.1188 22.1963 45.2031 22.3057C45.3581 22.5039 45.627 22.603 46.0098 22.603C46.2376 22.603 46.4382 22.554 46.6113 22.4561C46.7845 22.3558 46.8711 22.202 46.8711 21.9946C46.8711 21.8374 46.8016 21.7178 46.6626 21.6357C46.5737 21.5856 46.3983 21.5275 46.1362 21.4614L45.6475 21.3384C45.3353 21.2609 45.1051 21.1743 44.957 21.0786C44.6927 20.9123 44.5605 20.6821 44.5605 20.3882C44.5605 20.0418 44.6847 19.7616 44.9331 19.5474C45.1838 19.3332 45.5199 19.2261 45.9414 19.2261C46.4928 19.2261 46.8905 19.3879 47.1343 19.7114C47.2869 19.9165 47.361 20.1375 47.3564 20.3745H46.7754C46.764 20.2355 46.715 20.109 46.6284 19.9951C46.4871 19.8333 46.2422 19.7524 45.8936 19.7524C45.6611 19.7524 45.4845 19.7969 45.3638 19.8857C45.2453 19.9746 45.186 20.092 45.186 20.2378C45.186 20.3973 45.2646 20.5249 45.4219 20.6206C45.513 20.6776 45.6475 20.7277 45.8252 20.771L46.2319 20.8701C46.674 20.9772 46.9702 21.0809 47.1206 21.1812C47.3599 21.3384 47.4795 21.5856 47.4795 21.9229C47.4795 22.2487 47.3553 22.5301 47.1069 22.7671C46.8608 23.0041 46.4849 23.1226 45.979 23.1226C45.4344 23.1226 45.0482 22.9995 44.8203 22.7534C44.5947 22.505 44.474 22.1986 44.458 21.834H45.0493ZM49.5952 19.2158C50.0076 19.2158 50.3426 19.3161 50.6001 19.5166C50.8599 19.7171 51.016 20.0623 51.0684 20.5522H50.4702C50.4338 20.3267 50.3506 20.1398 50.2207 19.9917C50.0908 19.8413 49.8823 19.7661 49.5952 19.7661C49.2033 19.7661 48.923 19.9575 48.7544 20.3403C48.645 20.5887 48.5903 20.8952 48.5903 21.2598C48.5903 21.6266 48.6678 21.9354 48.8228 22.186C48.9777 22.4367 49.2215 22.562 49.5542 22.562C49.8094 22.562 50.0111 22.4845 50.1592 22.3296C50.3096 22.1724 50.4132 21.9582 50.4702 21.687H51.0684C51 22.1724 50.8291 22.5278 50.5557 22.7534C50.2822 22.9767 49.9325 23.0884 49.5063 23.0884C49.0278 23.0884 48.6462 22.9141 48.3613 22.5654C48.0765 22.2145 47.9341 21.777 47.9341 21.2529C47.9341 20.6104 48.0902 20.1102 48.4023 19.7524C48.7145 19.3947 49.1121 19.2158 49.5952 19.2158ZM51.6836 19.3389H52.3091V22.9824H51.6836V19.3389ZM51.6836 17.9614H52.3091V18.6587H51.6836V17.9614ZM53.2285 17.9614H53.8198V20.877L55.3989 19.3218H56.1851L54.7837 20.6924L56.2637 22.9824H55.4775L54.3359 21.1367L53.8198 21.6084V22.9824H53.2285V17.9614ZM56.7422 19.3389H57.3677V22.9824H56.7422V19.3389ZM56.7422 17.9614H57.3677V18.6587H56.7422V17.9614ZM58.4238 18.2998H59.0459V19.3218H59.6304V19.8242H59.0459V22.2134C59.0459 22.341 59.0892 22.4264 59.1758 22.4697C59.2236 22.4948 59.3034 22.5073 59.415 22.5073C59.4447 22.5073 59.4766 22.5073 59.5107 22.5073C59.5449 22.505 59.5848 22.5016 59.6304 22.4971V22.9824C59.5597 23.0029 59.4857 23.0177 59.4082 23.0269C59.333 23.036 59.251 23.0405 59.1621 23.0405C58.875 23.0405 58.6802 22.9676 58.5776 22.8218C58.4751 22.6737 58.4238 22.4823 58.4238 22.2476V19.8242H57.9282V19.3218H58.4238V18.2998Z" fill="white"/>
</g>
<defs>
<clipPath id="clip0_374_2969">
<rect width="80" height="43.1441" fill="white"/>
</clipPath>
</defs>
</svg>
