<svg width="80" height="29" viewBox="0 0 80 29" fill="none" xmlns="http://www.w3.org/2000/svg">
<path d="M9.90448 11.6508C8.09027 11.4358 7.95589 9.00341 5.63101 9.21842C4.50217 9.21842 3.45395 9.68877 3.45395 10.7235C3.45395 12.2824 5.85946 12.4302 7.31083 12.82C9.78354 13.5725 12.1756 14.0832 12.1756 16.7709C12.1756 20.1843 9.50132 21.3669 5.96697 21.3669C3.01048 21.3669 0.0136719 20.3187 0.0136719 17.6041C0.0136719 16.8515 0.739356 16.2603 1.43816 16.2603C2.32511 16.2603 2.6342 16.6365 2.94329 17.2547C3.62866 18.4642 4.39466 19.1092 6.30294 19.1092C7.51241 19.1092 8.74876 18.6523 8.74876 17.6041C8.74876 16.1124 7.2302 15.7899 5.65788 15.4271C2.87609 14.6476 0.484023 14.2445 0.201812 11.1536C-0.0938369 5.88565 10.8855 5.68407 11.5171 10.307C11.5037 11.1401 10.7242 11.6508 9.90448 11.6508ZM22.9668 7.02793C26.8237 7.02793 29.0142 10.2532 29.0142 14.231C29.0142 18.2223 26.8909 21.4341 22.9668 21.4341C20.7897 21.4341 19.4325 20.5068 18.4514 19.0824V24.3503C18.4514 25.936 17.9408 26.702 16.785 26.702C15.374 26.702 15.1187 25.8017 15.1187 24.3503V9.03028C15.1187 7.78049 15.6428 7.01449 16.785 7.01449C17.8601 7.01449 18.4514 7.86112 18.4514 9.03028V9.46032C19.54 8.08958 20.7897 7.02793 22.9668 7.02793ZM22.053 18.6926C24.3107 18.6926 25.3186 16.6097 25.3186 14.1773C25.3186 11.7986 24.2972 9.6619 22.053 9.6619C19.7012 9.6619 18.6127 11.5971 18.6127 14.1773C18.6127 16.6903 19.7147 18.6926 22.053 18.6926ZM31.6347 10.7907C31.6347 8.02238 34.8196 7.02793 37.9105 7.02793C42.2512 7.02793 44.0385 8.29116 44.0385 12.484V16.5156C44.0385 17.4697 44.6298 19.378 44.6298 19.9559C44.6298 20.8294 43.8235 21.3804 42.9634 21.3804C42.0093 21.3804 41.2971 20.2515 40.7864 19.4452C39.3753 20.574 37.8837 21.3804 35.5991 21.3804C33.0726 21.3804 31.0837 19.8887 31.0837 17.4294C31.0837 15.2524 32.6426 14.0026 34.524 13.5725C34.524 13.586 40.5714 12.148 40.5714 12.1346C40.5714 10.2801 39.9129 9.46032 37.9643 9.46032C36.2441 9.46032 35.3706 9.93067 34.6987 10.9654C34.1612 11.7449 34.2284 12.2152 33.1936 12.2152C32.3604 12.2018 31.6347 11.6374 31.6347 10.7907ZM36.7951 19.1092C39.4425 19.1092 40.5579 17.7116 40.5579 14.9298V14.3385C39.8457 14.5804 36.9698 15.2927 36.1904 15.4136C35.3572 15.5749 34.524 16.1931 34.524 17.1741C34.5509 18.2492 35.6528 19.1092 36.7951 19.1092ZM56.2408 1.77344C59.9767 1.77344 64.0217 4.00425 64.0217 7.55204C64.0217 8.46586 63.3364 9.21842 62.436 9.21842C61.2131 9.21842 61.0384 8.55993 60.5008 7.63267C59.6004 5.97972 58.5388 4.87775 56.2273 4.87775C52.6527 4.85087 51.0535 7.91488 51.0535 11.7314C51.0535 15.5749 52.3839 18.3432 56.0795 18.3432C58.5388 18.3432 59.8961 16.9187 60.5949 15.0777C60.8771 14.231 61.3878 13.4113 62.4494 13.4113C63.2826 13.4113 64.1158 14.2579 64.1158 15.1717C64.1158 18.9345 60.2724 21.5416 56.3214 21.5416C51.9942 21.5416 49.5484 19.714 48.2045 16.6768C47.546 15.2255 47.1294 13.7204 47.1294 11.6508C47.1025 5.81846 50.5025 1.77344 56.2408 1.77344ZM77.6082 7.02793C78.5623 7.02793 79.1133 7.64611 79.1133 8.61369C79.1133 9.00341 78.8042 9.78284 78.6833 10.1994L74.0872 22.2807C73.0659 24.9013 72.2999 26.7155 68.8193 26.7155C67.1664 26.7155 65.7284 26.5677 65.7284 25.1297C65.7284 24.2965 66.36 23.8799 67.2336 23.8799C67.3948 23.8799 67.6636 23.9606 67.8249 23.9606C68.0802 23.9606 68.2549 24.0412 68.4162 24.0412C70.1632 24.0412 70.4051 22.2539 71.0232 21.0175L66.5885 10.0382C66.3332 9.44688 66.1585 9.04372 66.1585 8.69432C66.1585 7.72674 66.911 7.02793 67.9189 7.02793C69.0478 7.02793 69.4912 7.91488 69.7735 8.88246L72.7031 17.5907L75.6327 9.54095C76.0762 8.29116 76.1165 7.02793 77.6082 7.02793Z" fill="#09A3D5"/>
</svg>
