<svg width="75" height="80" viewBox="0 0 75 80" fill="none" xmlns="http://www.w3.org/2000/svg">
<g clip-path="url(#clip0_374_2845)">
<path d="M42.6336 12.3066V24.6138L63.952 36.921V24.6138L42.6336 12.3066ZM0 24.6138V36.921L10.6592 43.0746V30.7674L0 24.6138ZM31.9744 30.7674L21.3152 36.921V73.8426L31.9744 79.9994V55.385L42.6336 61.5386V49.2314L31.9744 43.0778V30.7674Z" fill="#E55B2D"/>
<path d="M42.6346 12.3066L10.6602 30.7674V43.0746L31.9786 30.7674V43.0746L42.6378 36.921V12.3066H42.6346ZM74.609 18.4602L63.9498 24.6138V36.921L74.609 30.7674V18.4602ZM53.2938 43.0778L42.6346 49.2314V61.5386L53.2938 55.385V43.0778ZM42.6346 61.5386L31.9754 55.385V79.9994L42.6346 73.8458V61.5386Z" fill="#ED8E24"/>
<path d="M42.6336 0L0 24.6144L10.6592 30.768L42.6336 12.3072L63.952 24.6144L74.6112 18.4608L42.6336 0ZM42.6336 36.9216L31.9744 43.0752L42.6336 49.2288L53.2928 43.0752L42.6336 36.9216Z" fill="#F8BF3C"/>
</g>
<defs>
<clipPath id="clip0_374_2845">
<rect width="74.608" height="80" fill="white"/>
</clipPath>
</defs>
</svg>
