<svg width="80" height="19" viewBox="0 0 80 19" fill="none" xmlns="http://www.w3.org/2000/svg">
<g clip-path="url(#clip0_374_2949)">
<path d="M5.42275 1.32479V4.89533H10.1159V6.50084H5.42275V13.3272C5.42275 14.2553 5.5988 14.9028 5.95042 15.2695C6.30228 15.6362 6.91617 15.8196 7.79186 15.8196H10.1159V17.4702H7.5897C6.04024 17.4702 4.94754 17.1595 4.31138 16.5382C3.67497 15.9169 3.35689 14.8465 3.35689 13.3272V6.50084H0V4.89533H3.35689V1.32479H5.42275ZM24.1617 9.67808V17.4699H22.0846V9.67808C22.0846 8.54802 21.8862 7.71712 21.4893 7.18563C21.0927 6.65413 20.4714 6.3885 19.6256 6.3885C18.6601 6.3885 17.9152 6.73269 17.3914 7.42132C16.875 8.10251 16.6168 9.08311 16.6168 10.3631V17.4699H14.5509V0H16.6168V6.78132C16.9835 6.06275 17.4812 5.52024 18.1099 5.15353C18.7387 4.77916 19.4834 4.5921 20.3442 4.5921C21.6242 4.5921 22.5784 5.01509 23.2072 5.86084C23.8434 6.69916 24.1617 7.9715 24.1617 9.67808ZM47.9078 11.149H47.223C46.018 11.149 45.1085 11.3624 44.4946 11.789C43.8884 12.2081 43.5851 12.8369 43.5851 13.6752C43.5851 14.4311 43.8134 15.0187 44.2702 15.4378C44.7267 15.857 45.3593 16.0666 46.1677 16.0666C47.3054 16.0666 48.1998 15.6738 48.851 14.8877C49.502 14.0944 49.8314 13.0014 49.839 11.6093V11.149H47.9078ZM51.9162 10.2956V17.4702H49.839V15.6062C49.3974 16.3547 48.8398 16.9087 48.166 17.268C47.4999 17.6199 46.6877 17.7957 45.7296 17.7957C44.4498 17.7957 43.428 17.4364 42.6647 16.7178C41.9011 15.9919 41.5193 15.0225 41.5193 13.8098C41.5193 12.4103 41.9871 11.3473 42.9229 10.6213C43.8659 9.89533 45.2469 9.53222 47.0659 9.53222H49.839V9.20671C49.8314 8.20359 49.577 7.4776 49.0754 7.0285C48.5739 6.57198 47.7732 6.34347 46.6728 6.34347C45.9691 6.34347 45.2582 6.44455 44.5396 6.64671C43.8211 6.84886 43.1212 7.14443 42.44 7.53365V5.46778C43.2036 5.17581 43.9332 4.9588 44.6295 4.81653C45.3329 4.66683 46.0141 4.5921 46.6728 4.5921C47.7133 4.5921 48.6002 4.74563 49.3337 5.05245C50.0747 5.35928 50.6735 5.81964 51.1301 6.43329C51.4146 6.80766 51.6168 7.27162 51.7365 7.82563C51.8563 8.37198 51.9162 9.19545 51.9162 10.2956ZM65.6587 9.67808V17.4699H63.5816V9.67808C63.5816 8.54802 63.3832 7.71712 62.9863 7.18563C62.5897 6.65413 61.9684 6.3885 61.1226 6.3885C60.1571 6.3885 59.4122 6.73269 58.8884 7.42132C58.372 8.10251 58.1138 9.08311 58.1138 10.3631V17.4699H56.0479V4.89509H58.1138V6.78132C58.4805 6.06275 58.9782 5.52024 59.6069 5.15353C60.2357 4.77916 60.9804 4.5921 61.8412 4.5921C63.1212 4.5921 64.0755 5.01509 64.7042 5.86084C65.3404 6.69916 65.6587 7.9715 65.6587 9.67808ZM74.6069 6.34347C73.559 6.34347 72.7655 6.75162 72.2266 7.56742C71.6877 8.38323 71.4182 9.5921 71.4182 11.1938C71.4182 12.7883 71.6877 13.9971 72.2266 14.8204C72.7655 15.6362 73.559 16.0441 74.6069 16.0441C75.6623 16.0441 76.4594 15.6362 76.9983 14.8204C77.5372 13.9971 77.8067 12.7883 77.8067 11.1938C77.8067 9.5921 77.5372 8.38323 76.9983 7.56742C76.4594 6.75162 75.6623 6.34347 74.6069 6.34347ZM74.6069 4.5921C76.3509 4.5921 77.6833 5.15713 78.6038 6.28742C79.532 7.41772 79.9962 9.05317 79.9962 11.1938C79.9962 13.342 79.5358 14.9813 78.6151 16.1116C77.6946 17.2342 76.3583 17.7957 74.6069 17.7957C72.863 17.7957 71.5305 17.2342 70.6098 16.1116C69.6893 14.9813 69.229 13.342 69.229 11.1938C69.229 9.05317 69.6893 7.41772 70.6098 6.28742C71.5305 5.15713 72.863 4.5921 74.6069 4.5921Z" fill="#11557C" stroke="white" stroke-width="0.7" stroke-miterlimit="1.414" stroke-linejoin="round"/>
<path d="M32.1656 18.1382C30.5026 17.8151 29.5299 17.3713 28.5931 16.0292C27.9131 15.0551 27.8039 14.257 27.791 12.8846C27.7848 12.229 27.8034 12.0867 27.9371 11.7631L28.0904 11.3926L28.2729 11.7883C28.483 12.2434 28.6885 12.565 28.8236 12.6501C28.9038 12.7009 28.9249 12.595 28.9682 11.921C28.996 11.4874 29.0374 11.0089 29.0602 10.8575C29.1016 10.583 29.1026 10.5818 29.4645 10.4443C30.1541 10.1821 31.4367 10.1485 33.7469 10.3325C34.8058 10.417 37.0849 10.4635 37.3268 10.2539C37.5776 10.0364 37.608 9.93726 37.5287 9.34133C37.4351 8.63762 37.5345 8.4781 37.2365 7.8908C36.464 6.36792 35.1826 5.7193 33.4877 5.71499C31.961 5.71115 30.7366 6.26972 29.9963 7.51331C29.345 8.60744 29.0547 9.78014 28.883 12.0086L28.8348 12.6343L28.6899 12.4259C27.9955 11.4288 27.5651 9.68768 27.8638 8.36289C28.0949 7.33702 28.567 6.44577 29.3333 5.58876C29.9946 4.84888 31.083 4.42397 32.3881 4.17487C33.2286 4.01463 33.8037 4.01463 34.6444 4.17487C35.9495 4.42397 36.8954 4.89966 37.5567 5.63954C38.3148 6.48744 38.7943 7.3866 39.0178 8.37966C39.1687 9.05008 39.1931 10.0666 39.0662 10.3876C38.9551 10.6688 38.1354 11.584 38.1079 11.4575C38.0964 11.4058 38.1201 11.3164 38.1603 11.2594C38.2731 11.0992 38.1711 11.0333 37.9996 11.1557C37.8664 11.2508 37.8432 11.2534 37.7656 11.1823C37.6018 11.0326 37.5416 11.188 37.6918 11.3727C37.8655 11.5864 37.8686 11.6582 37.704 11.6582C37.6336 11.6582 37.5598 11.6783 37.5402 11.7025C37.3833 11.8951 34.9522 11.9406 33.0221 11.7868C31.5948 11.6731 30.46 11.6975 30.1946 11.8472C29.9761 11.9706 29.6868 12.4065 29.5891 12.7593C29.4964 13.0949 29.55 14.1126 29.6822 14.521C29.8157 14.933 30.2885 15.5332 30.7819 15.9167C32.161 16.9888 34.4379 17.001 35.8248 15.944C36.522 15.4125 37.0849 14.5586 36.9196 14.2829C36.8779 14.2132 36.8437 14.0774 36.8437 13.9813C36.8437 13.8065 37.0437 13.4458 37.1747 13.3842C37.3596 13.2975 37.5682 12.9516 37.5682 12.732C37.5682 12.4779 37.658 12.309 37.7931 12.309C38.0032 12.309 37.9783 11.6565 37.7574 11.377C37.5879 11.1624 37.6032 11.1181 37.7989 11.258C37.9254 11.348 37.9637 11.3574 37.9637 11.2977C37.9637 11.2551 38.0137 11.1892 38.0748 11.1514C38.1742 11.0901 38.1795 11.0934 38.1242 11.1828C38.0904 11.2379 38.0712 11.5056 38.0818 11.778C38.0992 12.2268 38.1153 12.2812 38.254 12.3643C38.3788 12.4388 38.4133 12.5179 38.4415 12.7952C38.4657 13.034 38.5392 13.2357 38.6892 13.4757C38.8626 13.7531 38.8961 13.8585 38.8688 14.0419C38.8501 14.1686 38.7773 14.315 38.7026 14.3765C38.5373 14.5126 37.8686 15.3924 37.801 15.5622C37.6789 15.8702 37.2681 16.5164 37.0001 16.8228C36.5857 17.2963 36.1383 17.5809 35.3656 17.8628C34.2109 18.2841 33.3131 18.3612 32.1656 18.1382Z" fill="#11557C" stroke="white" stroke-width="0.74"/>
</g>
<defs>
<clipPath id="clip0_374_2949">
<rect width="80" height="18.4431" fill="white"/>
</clipPath>
</defs>
</svg>
