<svg width="2860" height="780" viewBox="0 0 2860 780" fill="none" xmlns="http://www.w3.org/2000/svg">
<path d="M106.6 538.7L44.699 475.096C-5.31394 417.849 -5.81813 361.193 44.699 305.066L55.6066 293.857C76.3532 274.746 94.9068 304.111 79.1412 318.039L68.3114 328.548C34.4991 368.585 34.4149 415.716 68.2955 450.852L130.196 514.456L106.6 538.7Z" fill="#1877F2" stroke="#1877F2" stroke-width="13"/>
<path d="M106.661 538.637L130.196 514.455L270.043 658.314C293.864 683.249 313.242 676.07 316.094 645.975V630.748H349.463V647.005C347.985 710.064 287.155 727.515 240.534 676.192L106.661 538.637Z" fill="#1877F2" stroke="#1877F2" stroke-width="13"/>
<path d="M202.681 142.738L251.123 92.9642C278.203 62.5267 353.783 69.7706 349.462 141.666V149.198H316.094V142.246C317.268 111.43 296.485 98.7201 273.924 117.899L225.824 167.322L201.971 143.469L202.681 142.738Z" fill="#1877F2" stroke="#1877F2" stroke-width="13"/>
<path d="M225.823 167.322L201.97 143.469L146.065 200.911C109.958 242.026 103.963 289.261 146.065 340.102L194.707 390.081L216.985 366.845L183.519 332.458C144.004 292.131 140.509 251.696 183.519 210.79L225.823 167.322Z" fill="#1877F2" stroke="#1877F2" stroke-width="13"/>
<path d="M124.207 508.303L101.762 485.239L194.707 390.081L217.185 413.259L124.207 508.303Z" fill="#1877F2" stroke="#1877F2" stroke-width="13"/>
<path d="M316.093 630.748V561.509C317.691 534.55 314.207 511.772 298.825 497.063L276.312 474.55L299.368 451.494L324.217 476.343C342.748 492.539 349.963 513.316 350 536.998L349.461 630.748H316.093Z" fill="#1877F2" stroke="#1877F2" stroke-width="13"/>
<path d="M299.374 451.499L266.939 418.173C248.937 398.053 251.501 380.195 267.151 362.327L278.674 350.642L255.403 327.371L194.707 390.081L276.312 474.55L299.374 451.499Z" fill="#1877F2" stroke="#1877F2" stroke-width="13"/>
<path d="M255.38 327.396L300.131 280.872C310.254 269.83 315.647 257.393 316.094 242.364V149.198H349.462V230.726C350.894 255.492 347.473 278.192 331.204 295.614L278.675 350.642L255.38 327.396Z" fill="#1877F2" stroke="#1877F2" stroke-width="13"/>
<path d="M827.25 609.55C803.85 617.783 778.5 621.9 751.2 621.9C720 621.9 690.533 616.05 662.8 604.35C635.5 592.65 611.667 576.617 591.3 556.25C570.933 535.45 554.683 511.183 542.55 483.45C530.85 456.15 525 426.683 525 395.05C525 374.25 527.6 354.317 532.8 335.25C538.433 315.75 546.017 297.767 555.55 281.3C565.517 264.4 577.433 249.017 591.3 235.15C605.167 221.283 620.333 209.367 636.8 199.4C653.7 189.433 671.9 181.85 691.4 176.65C710.9 171.017 731.05 168.2 751.85 168.2C778.717 168.2 803.85 172.533 827.25 181.2C850.217 189.867 871.667 201.783 891.6 216.95L895.5 219.55L893.55 222.8C891.383 227.567 887.483 232.333 881.85 237.1C876.65 241.867 869.933 245.983 861.7 249.45C853.9 252.917 845.883 254.65 837.65 254.65C829.85 254.65 822.7 252.917 816.2 249.45C792.8 237.317 772 231.25 753.8 231.25C738.2 231.25 723.467 233.2 709.6 237.1C695.3 241 681.867 246.633 669.3 254C656.733 260.933 645.467 269.6 635.5 280C625.533 290.4 616.867 301.45 609.5 313.15C602.567 325.717 597.15 338.933 593.25 352.8C589.35 366.667 587.4 380.967 587.4 395.7C587.4 410.867 589.35 425.383 593.25 439.25C597.15 453.117 602.567 466.117 609.5 478.25C616.867 490.383 625.533 501.433 635.5 511.4C645.9 521.367 657.167 530.033 669.3 537.4C681.433 544.333 694.433 549.75 708.3 553.65C722.167 557.55 736.467 559.5 751.2 559.5C776.333 559.5 801.033 553.217 825.3 540.65C833.1 536.75 840.683 534.8 848.05 534.8C865.817 534.8 880.983 545.417 893.55 566.65L895.5 570.55L892.25 573.15C872.317 588.75 850.65 600.883 827.25 609.55ZM992.111 616.05H930.361V181.85H992.111V616.05ZM1238.82 612.8C1224.08 618 1208.05 620.6 1190.72 620.6C1169.48 620.6 1149.55 616.483 1130.92 608.25C1111.85 600.45 1095.38 589.617 1081.52 575.75C1067.65 561.883 1056.6 545.633 1048.37 527C1040.57 507.933 1036.67 487.783 1036.67 466.55C1036.67 445.317 1040.57 425.383 1048.37 406.75C1056.17 388.117 1066.78 371.867 1080.22 358C1093.65 344.133 1109.47 333.083 1127.67 324.85C1145.87 316.617 1165.15 312.5 1185.52 312.5C1205.45 312.5 1224.08 316.4 1241.42 324.2C1259.18 332 1274.57 342.617 1287.57 356.05C1301 369.483 1311.4 385.517 1318.77 404.15C1326.57 422.35 1330.47 442.067 1330.47 463.3C1330.47 475.433 1325.92 483.883 1316.82 488.65C1311.18 491.25 1304.47 492.55 1296.67 492.55H1101.02C1102.75 498.183 1104.92 503.6 1107.52 508.8C1112.72 519.2 1119.43 528.083 1127.67 535.45C1135.9 543.25 1145.43 549.317 1156.27 553.65C1166.67 557.983 1177.93 560.15 1190.07 560.15C1200.47 560.15 1210.43 558.633 1219.97 555.6L1224.52 553.65C1232.75 550.617 1239.47 549.1 1244.67 549.1C1259.83 549.1 1274.57 558.85 1288.87 578.35L1292.12 582.25L1288.22 585.5C1285.18 588.533 1282.15 590.917 1279.12 592.65C1266.55 601.317 1253.12 608.033 1238.82 612.8ZM1216.07 379.45C1206.53 375.55 1196.35 373.6 1185.52 373.6C1174.68 373.6 1164.5 375.55 1154.97 379.45C1145 383.35 1136.12 388.767 1128.32 395.7C1121.82 401.767 1115.1 410.433 1108.17 421.7C1105.13 426.467 1102.97 431.883 1101.67 437.95C1105.13 435.783 1108.38 434.7 1111.42 434.7H1266.12C1264.82 429.933 1262.87 425.383 1260.27 421.05C1255.5 411.517 1249.22 403.283 1241.42 396.35C1234.05 388.983 1225.6 383.35 1216.07 379.45ZM1499.83 616.05H1461.48L1334.08 313.15H1382.83C1394.53 313.15 1402.77 318.783 1407.53 330.05L1473.18 487.35C1476.65 495.583 1479.25 502.3 1480.98 507.5C1482.28 504.033 1484.23 498.833 1486.83 491.9L1488.78 487.35C1488.78 487.35 1490.73 482.367 1494.63 472.4C1498.97 462.433 1503.95 450.3 1509.58 436C1515.65 421.267 1521.72 406.533 1527.78 391.8C1534.28 376.633 1539.7 363.417 1544.03 352.15C1548.8 340.45 1551.83 333.517 1553.13 331.35C1558.33 319.217 1566.78 313.15 1578.48 313.15H1627.23L1499.83 616.05ZM1842.75 608.9C1823.69 616.7 1803.54 620.6 1782.3 620.6C1761.07 620.6 1741.14 616.483 1722.5 608.25C1703.87 600.45 1687.62 589.617 1673.75 575.75C1659.89 561.883 1649.05 545.633 1641.25 527C1633.02 507.933 1628.9 487.783 1628.9 466.55C1628.9 445.317 1633.02 425.383 1641.25 406.75C1649.05 388.117 1659.89 371.867 1673.75 358C1687.62 343.7 1703.87 332.65 1722.5 324.85C1741.14 316.617 1761.07 312.5 1782.3 312.5C1803.54 312.5 1823.69 316.617 1842.75 324.85C1861.39 332.65 1877.64 343.7 1891.5 358C1905.37 371.867 1916.42 388.117 1924.65 406.75C1932.45 425.383 1936.35 445.317 1936.35 466.55C1936.35 487.783 1932.45 507.933 1924.65 527C1916.42 545.633 1905.37 561.883 1891.5 575.75C1877.64 589.617 1861.39 600.667 1842.75 608.9ZM1818.7 380.75C1807.44 375.55 1795.52 372.95 1782.95 372.95C1770.39 372.95 1758.47 375.55 1747.2 380.75C1735.5 385.517 1725.32 392.233 1716.65 400.9C1708.42 409.133 1701.92 419.1 1697.15 430.8C1691.95 442.067 1689.35 454.2 1689.35 467.2C1689.35 479.767 1691.95 491.683 1697.15 502.95C1701.92 514.217 1708.64 524.183 1717.3 532.85C1725.97 541.083 1735.94 547.583 1747.2 552.35C1758.04 557.55 1769.95 560.15 1782.95 560.15C1795.52 560.15 1807.65 557.55 1819.35 552.35C1830.62 547.583 1840.37 541.083 1848.6 532.85C1857.27 524.183 1864.2 514.217 1869.4 502.95C1874.17 491.683 1876.55 479.55 1876.55 466.55C1876.55 453.983 1873.95 442.067 1868.75 430.8C1863.99 419.1 1857.27 409.133 1848.6 400.9C1840.37 392.233 1830.4 385.517 1818.7 380.75ZM1980.25 616.05V313.15H2041.35V335.9C2045.25 332.867 2049.37 330.267 2053.7 328.1C2062.37 322.9 2071.68 319 2081.65 316.4C2091.62 313.8 2101.8 312.5 2112.2 312.5C2129.53 312.5 2145.78 315.967 2160.95 322.9C2176.12 329.4 2189.12 338.5 2199.95 350.2C2211.22 361.467 2219.88 374.9 2225.95 390.5C2232.45 406.1 2235.7 422.567 2235.7 439.9V615.4H2174.6V439.25C2174.17 430.583 2172.22 421.917 2168.75 413.25C2165.28 405.45 2160.73 398.517 2155.1 392.45C2149.47 386.383 2142.75 381.617 2134.95 378.15C2127.15 374.683 2118.05 372.95 2107.65 372.95C2098.98 372.95 2090.53 374.683 2082.3 378.15C2074.5 381.617 2067.57 386.167 2061.5 391.8C2055.43 397.433 2050.45 404.15 2046.55 411.95C2043.08 419.75 2041.35 428.2 2041.35 437.3V616.05H1980.25ZM2476.61 612.8C2461.88 618 2445.84 620.6 2428.51 620.6C2407.28 620.6 2387.34 616.483 2368.71 608.25C2349.64 600.45 2333.18 589.617 2319.31 575.75C2305.44 561.883 2294.39 545.633 2286.16 527C2278.36 507.933 2274.46 487.783 2274.46 466.55C2274.46 445.317 2278.36 425.383 2286.16 406.75C2293.96 388.117 2304.58 371.867 2318.01 358C2331.44 344.133 2347.26 333.083 2365.46 324.85C2383.66 316.617 2402.94 312.5 2423.31 312.5C2443.24 312.5 2461.88 316.4 2479.21 324.2C2496.98 332 2512.36 342.617 2525.36 356.05C2538.79 369.483 2549.19 385.517 2556.56 404.15C2564.36 422.35 2568.26 442.067 2568.26 463.3C2568.26 475.433 2563.71 483.883 2554.61 488.65C2548.98 491.25 2542.26 492.55 2534.46 492.55H2338.81C2340.54 498.183 2342.71 503.6 2345.31 508.8C2350.51 519.2 2357.23 528.083 2365.46 535.45C2373.69 543.25 2383.23 549.317 2394.06 553.65C2404.46 557.983 2415.73 560.15 2427.86 560.15C2438.26 560.15 2448.23 558.633 2457.76 555.6L2462.31 553.65C2470.54 550.617 2477.26 549.1 2482.46 549.1C2497.63 549.1 2512.36 558.85 2526.66 578.35L2529.91 582.25L2526.01 585.5C2522.98 588.533 2519.94 590.917 2516.91 592.65C2504.34 601.317 2490.91 608.033 2476.61 612.8ZM2453.86 379.45C2444.33 375.55 2434.14 373.6 2423.31 373.6C2412.48 373.6 2402.29 375.55 2392.76 379.45C2382.79 383.35 2373.91 388.767 2366.11 395.7C2359.61 401.767 2352.89 410.433 2345.96 421.7C2342.93 426.467 2340.76 431.883 2339.46 437.95C2342.93 435.783 2346.18 434.7 2349.21 434.7H2503.91C2502.61 429.933 2500.66 425.383 2498.06 421.05C2493.29 411.517 2487.01 403.283 2479.21 396.35C2471.84 388.983 2463.39 383.35 2453.86 379.45ZM2845.06 616.05H2797.61C2787.64 616.05 2779.19 614.317 2772.26 610.85C2765.32 607.383 2758.61 600.667 2752.11 590.7C2740.84 574.667 2725.67 552.567 2706.61 524.4L2659.81 592C2650.27 608.033 2633.16 616.05 2608.46 616.05H2568.16L2669.56 470.45L2566.21 311.85L2611.71 312.5L2618.21 311.85C2631.64 311.85 2641.82 316.617 2648.76 326.15L2707.26 416.5C2731.96 378.8 2750.59 350.85 2763.16 332.65C2772.26 319.65 2786.56 313.15 2806.06 313.15H2854.16L2748.21 471.1L2845.06 616.05Z" fill="white"/>
</svg>
