<svg width="542" height="354" viewBox="0 0 542 354" fill="none" xmlns="http://www.w3.org/2000/svg">
<path d="M72.75 315.05C67.35 316.95 61.5 317.9 55.2 317.9C48 317.9 41.2 316.55 34.8 313.85C28.5 311.15 23 307.45 18.3 302.75C13.6 297.95 9.85 292.35 7.05 285.95C4.35 279.65 3 272.85 3 265.55C3 260.75 3.6 256.15 4.8 251.75C6.1 247.25 7.85 243.1 10.05 239.3C12.35 235.4 15.1 231.85 18.3 228.65C21.5 225.45 25 222.7 28.8 220.4C32.7 218.1 36.9 216.35 41.4 215.15C45.9 213.85 50.55 213.2 55.35 213.2C61.55 213.2 67.35 214.2 72.75 216.2C78.05 218.2 83 220.95 87.6 224.45L88.5 225.05L88.05 225.8C87.55 226.9 86.65 228 85.35 229.1C84.15 230.2 82.6 231.15 80.7 231.95C78.9 232.75 77.05 233.15 75.15 233.15C73.35 233.15 71.7 232.75 70.2 231.95C64.8 229.15 60 227.75 55.8 227.75C52.2 227.75 48.8 228.2 45.6 229.1C42.3 230 39.2 231.3 36.3 233C33.4 234.6 30.8 236.6 28.5 239C26.2 241.4 24.2 243.95 22.5 246.65C20.9 249.55 19.65 252.6 18.75 255.8C17.85 259 17.4 262.3 17.4 265.7C17.4 269.2 17.85 272.55 18.75 275.75C19.65 278.95 20.9 281.95 22.5 284.75C24.2 287.55 26.2 290.1 28.5 292.4C30.9 294.7 33.5 296.7 36.3 298.4C39.1 300 42.1 301.25 45.3 302.15C48.5 303.05 51.8 303.5 55.2 303.5C61 303.5 66.7 302.05 72.3 299.15C74.1 298.25 75.85 297.8 77.55 297.8C81.65 297.8 85.15 300.25 88.05 305.15L88.5 306.05L87.75 306.65C83.15 310.25 78.15 313.05 72.75 315.05ZM110.795 316.55H96.5449V216.35H110.795V316.55ZM167.727 315.8C164.327 317 160.627 317.6 156.627 317.6C151.727 317.6 147.127 316.65 142.827 314.75C138.427 312.95 134.627 310.45 131.427 307.25C128.227 304.05 125.677 300.3 123.777 296C121.977 291.6 121.077 286.95 121.077 282.05C121.077 277.15 121.977 272.55 123.777 268.25C125.577 263.95 128.027 260.2 131.127 257C134.227 253.8 137.877 251.25 142.077 249.35C146.277 247.45 150.727 246.5 155.427 246.5C160.027 246.5 164.327 247.4 168.327 249.2C172.427 251 175.977 253.45 178.977 256.55C182.077 259.65 184.477 263.35 186.177 267.65C187.977 271.85 188.877 276.4 188.877 281.3C188.877 284.1 187.827 286.05 185.727 287.15C184.427 287.75 182.877 288.05 181.077 288.05H135.927C136.327 289.35 136.827 290.6 137.427 291.8C138.627 294.2 140.177 296.25 142.077 297.95C143.977 299.75 146.177 301.15 148.677 302.15C151.077 303.15 153.677 303.65 156.477 303.65C158.877 303.65 161.177 303.3 163.377 302.6L164.427 302.15C166.327 301.45 167.877 301.1 169.077 301.1C172.577 301.1 175.977 303.35 179.277 307.85L180.027 308.75L179.127 309.5C178.427 310.2 177.727 310.75 177.027 311.15C174.127 313.15 171.027 314.7 167.727 315.8ZM162.477 261.95C160.277 261.05 157.927 260.6 155.427 260.6C152.927 260.6 150.577 261.05 148.377 261.95C146.077 262.85 144.027 264.1 142.227 265.7C140.727 267.1 139.177 269.1 137.577 271.7C136.877 272.8 136.377 274.05 136.077 275.45C136.877 274.95 137.627 274.7 138.327 274.7H174.027C173.727 273.6 173.277 272.55 172.677 271.55C171.577 269.35 170.127 267.45 168.327 265.85C166.627 264.15 164.677 262.85 162.477 261.95ZM227.961 316.55H219.111L189.711 246.65H200.961C203.661 246.65 205.561 247.95 206.661 250.55L221.811 286.85C222.611 288.75 223.211 290.3 223.611 291.5C223.911 290.7 224.361 289.5 224.961 287.9L225.411 286.85C225.411 286.85 225.861 285.7 226.761 283.4C227.761 281.1 228.911 278.3 230.211 275C231.611 271.6 233.011 268.2 234.411 264.8C235.911 261.3 237.161 258.25 238.161 255.65C239.261 252.95 239.961 251.35 240.261 250.85C241.461 248.05 243.411 246.65 246.111 246.65H257.361L227.961 316.55ZM307.097 314.9C302.697 316.7 298.047 317.6 293.147 317.6C288.247 317.6 283.647 316.65 279.347 314.75C275.047 312.95 271.297 310.45 268.097 307.25C264.897 304.05 262.397 300.3 260.597 296C258.697 291.6 257.747 286.95 257.747 282.05C257.747 277.15 258.697 272.55 260.597 268.25C262.397 263.95 264.897 260.2 268.097 257C271.297 253.7 275.047 251.15 279.347 249.35C283.647 247.45 288.247 246.5 293.147 246.5C298.047 246.5 302.697 247.45 307.097 249.35C311.397 251.15 315.147 253.7 318.347 257C321.547 260.2 324.097 263.95 325.997 268.25C327.797 272.55 328.697 277.15 328.697 282.05C328.697 286.95 327.797 291.6 325.997 296C324.097 300.3 321.547 304.05 318.347 307.25C315.147 310.45 311.397 313 307.097 314.9ZM301.547 262.25C298.947 261.05 296.197 260.45 293.297 260.45C290.397 260.45 287.647 261.05 285.047 262.25C282.347 263.35 279.997 264.9 277.997 266.9C276.097 268.8 274.597 271.1 273.497 273.8C272.297 276.4 271.697 279.2 271.697 282.2C271.697 285.1 272.297 287.85 273.497 290.45C274.597 293.05 276.147 295.35 278.147 297.35C280.147 299.25 282.447 300.75 285.047 301.85C287.547 303.05 290.297 303.65 293.297 303.65C296.197 303.65 298.997 303.05 301.697 301.85C304.297 300.75 306.547 299.25 308.447 297.35C310.447 295.35 312.047 293.05 313.247 290.45C314.347 287.85 314.897 285.05 314.897 282.05C314.897 279.15 314.297 276.4 313.097 273.8C311.997 271.1 310.447 268.8 308.447 266.9C306.547 264.9 304.247 263.35 301.547 262.25ZM338.827 316.55V246.65H352.927V251.9C353.827 251.2 354.777 250.6 355.777 250.1C357.777 248.9 359.927 248 362.227 247.4C364.527 246.8 366.877 246.5 369.277 246.5C373.277 246.5 377.027 247.3 380.527 248.9C384.027 250.4 387.027 252.5 389.527 255.2C392.127 257.8 394.127 260.9 395.527 264.5C397.027 268.1 397.777 271.9 397.777 275.9V316.4H383.677V275.75C383.577 273.75 383.127 271.75 382.327 269.75C381.527 267.95 380.477 266.35 379.177 264.95C377.877 263.55 376.327 262.45 374.527 261.65C372.727 260.85 370.627 260.45 368.227 260.45C366.227 260.45 364.277 260.85 362.377 261.65C360.577 262.45 358.977 263.5 357.577 264.8C356.177 266.1 355.027 267.65 354.127 269.45C353.327 271.25 352.927 273.2 352.927 275.3V316.55H338.827ZM453.371 315.8C449.971 317 446.271 317.6 442.271 317.6C437.371 317.6 432.771 316.65 428.471 314.75C424.071 312.95 420.271 310.45 417.071 307.25C413.871 304.05 411.321 300.3 409.421 296C407.621 291.6 406.721 286.95 406.721 282.05C406.721 277.15 407.621 272.55 409.421 268.25C411.221 263.95 413.671 260.2 416.771 257C419.871 253.8 423.521 251.25 427.721 249.35C431.921 247.45 436.371 246.5 441.071 246.5C445.671 246.5 449.971 247.4 453.971 249.2C458.071 251 461.621 253.45 464.621 256.55C467.721 259.65 470.121 263.35 471.821 267.65C473.621 271.85 474.521 276.4 474.521 281.3C474.521 284.1 473.471 286.05 471.371 287.15C470.071 287.75 468.521 288.05 466.721 288.05H421.571C421.971 289.35 422.471 290.6 423.071 291.8C424.271 294.2 425.821 296.25 427.721 297.95C429.621 299.75 431.821 301.15 434.321 302.15C436.721 303.15 439.321 303.65 442.121 303.65C444.521 303.65 446.821 303.3 449.021 302.6L450.071 302.15C451.971 301.45 453.521 301.1 454.721 301.1C458.221 301.1 461.621 303.35 464.921 307.85L465.671 308.75L464.771 309.5C464.071 310.2 463.371 310.75 462.671 311.15C459.771 313.15 456.671 314.7 453.371 315.8ZM448.121 261.95C445.921 261.05 443.571 260.6 441.071 260.6C438.571 260.6 436.221 261.05 434.021 261.95C431.721 262.85 429.671 264.1 427.871 265.7C426.371 267.1 424.821 269.1 423.221 271.7C422.521 272.8 422.021 274.05 421.721 275.45C422.521 274.95 423.271 274.7 423.971 274.7H459.671C459.371 273.6 458.921 272.55 458.321 271.55C457.221 269.35 455.771 267.45 453.971 265.85C452.271 264.15 450.321 262.85 448.121 261.95ZM538.398 316.55H527.448C525.148 316.55 523.198 316.15 521.598 315.35C519.998 314.55 518.448 313 516.948 310.7C514.348 307 510.848 301.9 506.448 295.4L495.648 311C493.448 314.7 489.498 316.55 483.798 316.55H474.498L497.898 282.95L474.048 246.35L484.548 246.5L486.048 246.35C489.148 246.35 491.498 247.45 493.098 249.65L506.598 270.5C512.298 261.8 516.598 255.35 519.498 251.15C521.598 248.15 524.898 246.65 529.398 246.65H540.498L516.048 283.1L538.398 316.55Z" fill="white"/>
<path d="M242.199 143.294L223.431 124.009C208.266 106.651 208.113 89.4727 223.431 72.4545L226.738 69.056C233.028 63.2614 238.654 72.165 233.874 76.388L230.59 79.5745C220.338 91.714 220.312 106.004 230.585 116.658L249.354 135.943L242.199 143.294Z" fill="#1877F2" stroke="#1877F2" stroke-width="5.00001"/>
<path d="M242.218 143.275L249.354 135.943L291.756 179.562C298.979 187.122 304.855 184.945 305.719 175.82V171.203H315.837V176.133C315.389 195.253 296.945 200.544 282.809 184.983L242.218 143.275Z" fill="#1877F2" stroke="#1877F2" stroke-width="5.00001"/>
<path d="M271.332 23.2354L286.019 8.14366C294.23 -1.0852 317.147 1.1112 315.837 22.9105V25.1941H305.719V23.0862C306.075 13.7426 299.774 9.88888 292.933 15.704L278.349 30.6894L271.116 23.4569L271.332 23.2354Z" fill="#1877F2" stroke="#1877F2" stroke-width="5.00001"/>
<path d="M278.349 30.6894L271.116 23.4569L254.165 40.8738C243.217 53.3401 241.4 67.6622 254.165 83.0775L268.914 98.2316L275.669 91.1863L265.522 80.7597C253.54 68.5326 252.481 56.2723 265.522 43.8693L278.349 30.6894Z" fill="#1877F2" stroke="#1877F2" stroke-width="5.00001"/>
<path d="M247.538 134.077L240.732 127.084L268.914 98.2316L275.729 105.259L247.538 134.077Z" fill="#1877F2" stroke="#1877F2" stroke-width="5.00001"/>
<path d="M305.719 171.203V150.21C306.204 142.036 305.147 135.129 300.483 130.669L293.657 123.843L300.648 116.852L308.182 124.387C313.801 129.298 315.989 135.597 316 142.778L315.837 171.203H305.719Z" fill="#1877F2" stroke="#1877F2" stroke-width="5.00001"/>
<path d="M300.65 116.854L290.815 106.749C285.357 100.649 286.134 95.2341 290.88 89.8162L294.373 86.2732L287.317 79.2175L268.914 98.2316L293.657 123.843L300.65 116.854Z" fill="#1877F2" stroke="#1877F2" stroke-width="5.00001"/>
<path d="M287.311 79.2251L300.879 65.1185C303.949 61.7705 305.584 57.9996 305.719 53.4428V25.1941H315.837V49.9139C316.271 57.4232 315.234 64.306 310.301 69.5884L294.374 86.2732L287.311 79.2251Z" fill="#1877F2" stroke="#1877F2" stroke-width="5.00001"/>
</svg>
