<svg width="180" height="180" viewBox="0 0 180 180" fill="none" xmlns="http://www.w3.org/2000/svg">
<rect width="180" height="180" rx="90" fill="#EEEEEE"/>
<rect x="22.0005" y="22.0006" width="135.833" height="135.833" rx="67.9167" fill="#EEEEEE" stroke="#1877F2" stroke-width="4"/>
<path d="M68.0996 112.147L58.7153 102.504C51.1332 93.8256 51.0567 85.2364 58.7153 76.7273L60.3689 75.028C63.5142 72.1307 66.327 76.5825 63.9369 78.694L62.295 80.2872C57.169 86.357 57.1562 93.5021 62.2926 98.8289L71.6769 108.471L68.0996 112.147Z" fill="#1877F2" stroke="#1877F2" stroke-width="5.00001"/>
<path d="M68.1089 112.137L71.6768 108.471L92.8782 130.281C96.4896 134.061 99.4273 132.973 99.8597 128.41V126.102H104.918V128.566C104.694 138.126 95.4725 140.772 88.4045 132.991L68.1089 112.137Z" fill="#1877F2" stroke="#1877F2" stroke-width="5.00001"/>
<path d="M82.6659 52.1177L90.0097 44.5718C94.1152 39.9574 105.573 41.0556 104.918 51.9553V53.0971H99.8595V52.0431C100.038 47.3713 96.8868 45.4444 93.4665 48.352L86.1743 55.8447L82.5581 52.2285L82.6659 52.1177Z" fill="#1877F2" stroke="#1877F2" stroke-width="5.00001"/>
<path d="M86.1744 55.8447L82.5582 52.2285L74.0827 60.9369C68.6087 67.1701 67.6999 74.3311 74.0827 82.0388L81.457 89.6158L84.8345 86.0931L79.7609 80.8798C73.7702 74.7663 73.2405 68.6361 79.7609 62.4346L86.1744 55.8447Z" fill="#1877F2" stroke="#1877F2" stroke-width="5.00001"/>
<path d="M70.7696 107.539L67.3667 104.042L81.4575 89.6158L84.8652 93.1297L70.7696 107.539Z" fill="#1877F2" stroke="#1877F2" stroke-width="5.00001"/>
<path d="M99.8596 126.102V115.605C100.102 111.518 99.5736 108.064 97.2417 105.835L93.8286 102.422L97.3241 98.9261L101.091 102.693C103.901 105.149 104.994 108.299 105 111.889L104.918 126.102H99.8596Z" fill="#1877F2" stroke="#1877F2" stroke-width="5.00001"/>
<path d="M97.3249 98.927L92.4076 93.8746C89.6784 90.8244 90.0672 88.117 92.4399 85.4081L94.1867 83.6366L90.6587 80.1088L81.457 89.6158L93.8286 102.422L97.3249 98.927Z" fill="#1877F2" stroke="#1877F2" stroke-width="5.00001"/>
<path d="M90.6553 80.1126L97.4397 73.0593C98.9743 71.3853 99.7919 69.4998 99.8597 67.2214V53.0971H104.919V65.457C105.136 69.2116 104.617 72.653 102.151 75.2942L94.1868 83.6366L90.6553 80.1126Z" fill="#1877F2" stroke="#1877F2" stroke-width="5.00001"/>
</svg>
