<svg width="174" height="54" viewBox="0 0 174 54" fill="none" xmlns="http://www.w3.org/2000/svg">
<g clip-path="url(#clip0_254_238)">
<path d="M45.24 0H8.7C3.89512 0 0 3.89945 0 8.70968V45.2903C0 50.1007 3.89512 54 8.7 54H45.24C50.045 54 53.94 50.1007 53.94 45.2903V8.70968C53.94 3.89945 50.045 0 45.24 0Z" fill="#FFD02F"/>
<path fill-rule="evenodd" clip-rule="evenodd" d="M36.54 8.70898H31.32L35.67 16.5477L26.1 8.70898H20.88L25.665 18.2896L15.66 8.70898H10.44L15.66 20.9025L10.44 45.2896H15.66L25.665 19.1606L20.88 45.2896H26.1L35.67 17.4187L31.32 45.2896H36.54L46.11 14.8058L36.54 8.70898Z" fill="#050038"/>
<path fill-rule="evenodd" clip-rule="evenodd" d="M160.08 12.1939C168.78 12.1939 174 18.6955 174 27.0004C174 35.2746 168.78 41.8068 160.08 41.8068C151.38 41.8068 146.16 35.3053 146.16 27.0004C146.16 18.6955 151.38 12.1939 160.08 12.1939ZM120.93 13.9359V40.9359H114.84V27.8713V21.3391V14.8068L120.93 13.9359ZM143.55 13.0649V19.1617L140.07 19.5972C137.025 20.0326 134.85 21.7746 134.85 25.2409V40.9359H128.76V25.2409C128.76 17.7856 133.11 14.3713 140.07 13.5004L143.55 13.0649ZM82.65 13.0649C85.26 13.0649 87.9587 14.1447 89.61 16.5488C91.2673 14.3595 93.96 13.0649 97.44 13.0649C101.79 13.0649 107.01 15.6778 107.01 24.3875V40.9359H100.92V24.3875C100.92 21.3391 99.0234 19.1617 96.135 19.1617C93.2466 19.1617 91.35 21.3391 91.35 24.3875V40.9359H85.26V24.3875C85.26 21.3391 83.3629 19.1617 80.475 19.1617C77.5352 19.1617 75.69 21.3391 75.69 24.3875V40.9359H69.6V24.3875V14.8068L75.69 13.9359V16.5488C77.3917 14.4543 79.17 13.0649 82.65 13.0649ZM160.08 18.2907C154.86 18.2907 152.25 22.191 152.25 27.0004C152.25 31.8098 154.86 35.7101 160.08 35.7101C165.3 35.7101 167.91 31.7907 167.91 27.0004C167.91 22.197 165.3 18.2907 160.08 18.2907ZM117.885 2.61328C120.06 2.61328 121.8 3.91973 121.8 6.53264C121.8 9.14554 120.06 10.452 117.885 10.452C115.71 10.452 113.97 9.14554 113.97 6.53264C113.97 3.91972 115.71 2.61328 117.885 2.61328Z" fill="#050038"/>
</g>
<defs>
<clipPath id="clip0_254_238">
<rect width="174" height="54" fill="white"/>
</clipPath>
</defs>
</svg>
