<svg width="157" height="54" viewBox="0 0 157 54" fill="none" xmlns="http://www.w3.org/2000/svg">
<g clip-path="url(#clip0_254_247)">
<path d="M141.236 21.953C143.117 21.953 144.643 20.4275 144.643 18.5458C144.643 16.6641 143.117 15.1387 141.236 15.1387C139.354 15.1387 137.829 16.6641 137.829 18.5458C137.829 20.4275 139.354 21.953 141.236 21.953Z" fill="#FF4500"/>
<path d="M92.5714 33.0754C94.2429 33.0754 95.2071 31.8218 95.1429 30.6003C95.1107 29.9575 95.0464 29.5396 94.9821 29.2182C93.9536 24.7825 90.3536 21.5039 86.0786 21.5039C81 21.5039 76.8857 26.1003 76.8857 31.7575C76.8857 37.4146 81 42.0111 86.0786 42.0111C89.2607 42.0111 91.5429 40.8539 93.1821 39.0218C93.9857 38.1218 93.825 36.7397 92.8607 36.0647C92.0571 35.5182 91.0607 35.7111 90.3214 36.3218C89.6143 36.9325 88.2643 38.1539 86.0786 38.1539C83.5071 38.1539 81.3214 35.9361 80.8393 33.0111H92.5714V33.0754ZM86.0464 25.3932C88.3607 25.3932 90.3536 27.1932 91.0929 29.6682H81C81.7393 27.161 83.7321 25.3932 86.0464 25.3932Z" fill="#222222"/>
<path d="M76.5868 23.9029C76.5868 22.9386 75.8796 22.1671 74.9796 22.0064C72.1832 21.5886 69.5475 22.6171 68.0368 24.5136V24.2564C68.0368 23.0671 67.0725 22.3279 66.1082 22.3279C65.0475 22.3279 64.1796 23.1957 64.1796 24.2564V40.0065C64.1796 41.0351 64.9511 41.9351 65.9796 41.9993C67.1046 42.0636 68.0368 41.1958 68.0368 40.0708V31.9386C68.0368 28.3386 70.7368 25.3814 74.4654 25.7993C74.5939 25.7993 74.7225 25.7993 74.8511 25.7993C75.8154 25.735 76.5868 24.8993 76.5868 23.9029Z" fill="#222222"/>
<path d="M143.164 25.5848C143.164 24.5241 142.296 23.6562 141.236 23.6562C140.175 23.6562 139.307 24.5241 139.307 25.5848C139.307 25.6491 139.307 39.0849 139.307 39.6956C139.307 40.7563 140.175 41.6241 141.236 41.6241C142.296 41.6241 143.164 40.7563 143.164 39.6956C143.164 39.117 143.164 25.6812 143.164 25.5848Z" fill="#222222"/>
<path d="M114.493 14.9149C114.493 13.8542 113.625 12.9863 112.564 12.9863C111.504 12.9863 110.636 13.8542 110.636 14.9149V23.497C109.318 22.1792 107.679 21.5363 105.718 21.5363C100.639 21.5363 96.525 26.1328 96.525 31.7899C96.525 37.4471 100.639 42.0435 105.718 42.0435C107.679 42.0435 109.35 41.3685 110.668 40.0506C110.829 40.9506 111.632 41.6256 112.564 41.6256C113.625 41.6256 114.493 40.7578 114.493 39.6971V14.9149ZM105.75 38.2185C102.793 38.2185 100.414 35.3578 100.414 31.7899C100.414 28.2542 102.793 25.3613 105.75 25.3613C108.707 25.3613 111.086 28.222 111.086 31.7899C111.086 35.3578 108.675 38.2185 105.75 38.2185Z" fill="#222222"/>
<path d="M134.614 14.9149C134.614 13.8542 133.746 12.9863 132.686 12.9863C131.625 12.9863 130.757 13.8542 130.757 14.9149V23.497C129.439 22.1792 127.8 21.5363 125.839 21.5363C120.761 21.5363 116.646 26.1328 116.646 31.7899C116.646 37.4471 120.761 42.0435 125.839 42.0435C127.8 42.0435 129.471 41.3685 130.789 40.0506C130.95 40.9506 131.754 41.6256 132.686 41.6256C133.746 41.6256 134.614 40.7578 134.614 39.6971V14.9149ZM125.839 38.2185C122.882 38.2185 120.504 35.3578 120.504 31.7899C120.504 28.2542 122.882 25.3613 125.839 25.3613C128.796 25.3613 131.175 28.222 131.175 31.7899C131.175 35.3578 128.796 38.2185 125.839 38.2185Z" fill="#222222"/>
<path d="M152.936 39.7291V25.3933H154.639C155.539 25.3933 156.343 24.7183 156.407 23.7862C156.471 22.7897 155.668 21.954 154.704 21.954H152.936V19.254C152.936 18.2255 152.164 17.3255 151.136 17.2612C150.011 17.1969 149.079 18.0647 149.079 19.1897V21.9862H147.471C146.571 21.9862 145.768 22.6612 145.704 23.5933C145.639 24.5897 146.443 25.4255 147.407 25.4255H149.046V39.7612C149.046 40.8219 149.914 41.6898 150.975 41.6898C152.1 41.6255 152.936 40.7898 152.936 39.7291Z" fill="#222222"/>
<path d="M26.9357 53.8714C41.8118 53.8714 53.8714 41.8118 53.8714 26.9357C53.8714 12.0595 41.8118 0 26.9357 0C12.0595 0 0 12.0595 0 26.9357C0 41.8118 12.0595 53.8714 26.9357 53.8714Z" fill="#FF4500"/>
<path d="M44.9036 26.9362C44.9036 24.7504 43.1357 23.0147 40.9821 23.0147C39.9214 23.0147 38.9571 23.4326 38.25 24.1076C35.55 22.179 31.8536 20.9254 27.7393 20.7647L29.5393 12.3433L35.3893 13.5969C35.4536 15.0754 36.675 16.2647 38.1857 16.2647C39.7286 16.2647 40.9821 15.0112 40.9821 13.4683C40.9821 11.9254 39.7286 10.6719 38.1857 10.6719C37.0928 10.6719 36.1286 11.3147 35.6786 12.2469L29.1536 10.8647C28.9607 10.8326 28.7679 10.8647 28.6393 10.9612C28.4786 11.0576 28.3822 11.2183 28.35 11.4112L26.3572 20.7969C22.1786 20.9254 18.4179 22.179 15.6857 24.1397C14.9786 23.4647 14.0143 23.0469 12.9536 23.0469C10.7679 23.0469 9.03217 24.8147 9.03217 26.9683C9.03217 28.5754 9.99645 29.9254 11.3465 30.5362C11.2822 30.9219 11.25 31.3076 11.25 31.7254C11.25 37.7683 18.2893 42.6862 26.9679 42.6862C35.6464 42.6862 42.6857 37.8004 42.6857 31.7254C42.6857 31.3397 42.6536 30.9219 42.5893 30.5362C43.9393 29.9254 44.9036 28.5433 44.9036 26.9362ZM17.9679 29.7326C17.9679 28.1897 19.2215 26.9362 20.7643 26.9362C22.3072 26.9362 23.5607 28.1897 23.5607 29.7326C23.5607 31.2754 22.3072 32.529 20.7643 32.529C19.2215 32.5612 17.9679 31.2754 17.9679 29.7326ZM33.6214 37.1576C31.6929 39.0862 28.0286 39.2147 26.9679 39.2147C25.875 39.2147 22.2107 39.054 20.3143 37.1576C20.025 36.8683 20.025 36.4183 20.3143 36.129C20.6036 35.8397 21.0536 35.8397 21.3429 36.129C22.5643 37.3504 25.1357 37.7683 26.9679 37.7683C28.8 37.7683 31.4036 37.3504 32.5928 36.129C32.8821 35.8397 33.3321 35.8397 33.6214 36.129C33.8786 36.4183 33.8786 36.8683 33.6214 37.1576ZM33.1071 32.5612C31.5643 32.5612 30.3107 31.3076 30.3107 29.7647C30.3107 28.2219 31.5643 26.9683 33.1071 26.9683C34.65 26.9683 35.9036 28.2219 35.9036 29.7647C35.9036 31.2754 34.65 32.5612 33.1071 32.5612Z" fill="white"/>
</g>
<defs>
<clipPath id="clip0_254_247">
<rect width="156.536" height="54" fill="white"/>
</clipPath>
</defs>
</svg>
