<svg width="578" height="423" viewBox="0 0 578 423" fill="none" xmlns="http://www.w3.org/2000/svg">
<path opacity="0.25" d="M79.2003 419.131C38.6124 374.937 -16.8606 329.311 4.89189 260.372C19.2007 215.034 54.2785 202.392 83.4389 174.438C97.8287 160.642 88.7776 140.558 88.5109 120.623C87.9013 69.5789 144.867 29.9673 197.24 30.796C253.968 31.6889 278.525 88.7216 326.112 91.7815C344.797 92.0672 361.528 81.1017 378.061 72.3912C427.047 46.5787 504.78 63.0377 508.706 125.459C509.721 159.17 471.354 213.405 509.795 231.135C540.431 245.266 571.383 250.471 576.902 301.01C584.129 367.163 545.925 403.467 496.143 420.493L79.2003 419.131Z" fill="#EBF3FA"/>
<path d="M105.744 167.566H162.224C165.581 167.566 168.801 168.9 171.175 171.274C173.549 173.648 174.883 176.868 174.883 180.225V206.554C174.883 209.911 173.549 213.131 171.175 215.505C168.801 217.879 165.581 219.213 162.224 219.213H161.805L166.329 234.4C166.376 234.546 166.375 234.704 166.325 234.849C166.276 234.994 166.181 235.12 166.055 235.207C165.928 235.294 165.777 235.338 165.624 235.332C165.47 235.327 165.323 235.272 165.203 235.176L144.277 219.222H105.744C104.082 219.222 102.435 218.895 100.9 218.259C99.3638 217.623 97.9684 216.69 96.7929 215.515C95.6174 214.339 94.685 212.944 94.0489 211.408C93.4127 209.872 93.0853 208.226 93.0853 206.564V180.225C93.0853 178.563 93.4127 176.917 94.0489 175.381C94.685 173.845 95.6174 172.449 96.7929 171.274C97.9684 170.099 99.3638 169.166 100.9 168.53C102.435 167.894 104.082 167.566 105.744 167.566Z" fill="white"/>
<path opacity="0.25" d="M162.198 189.678H107.973C107.15 189.678 106.335 189.515 105.575 189.2C104.814 188.885 104.124 188.424 103.542 187.842C102.96 187.26 102.499 186.569 102.184 185.808C101.869 185.048 101.707 184.233 101.708 183.41C101.71 181.75 102.37 180.158 103.545 178.985C104.72 177.811 106.312 177.152 107.973 177.152H162.198C163.859 177.152 165.453 177.812 166.628 178.987C167.803 180.162 168.463 181.756 168.463 183.417C168.462 185.078 167.801 186.67 166.626 187.844C165.451 189.018 163.859 189.678 162.198 189.678Z" fill="#EBF3FA"/>
<path opacity="0.25" d="M162.198 208.821H107.973C107.15 208.821 106.335 208.659 105.575 208.344C104.814 208.029 104.124 207.568 103.542 206.986C102.96 206.404 102.499 205.713 102.184 204.952C101.869 204.192 101.707 203.377 101.708 202.554C101.708 200.892 102.368 199.299 103.543 198.124C104.718 196.949 106.311 196.289 107.973 196.289H162.198C163.859 196.289 165.453 196.949 166.628 198.124C167.803 199.299 168.463 200.892 168.463 202.554C168.463 203.377 168.301 204.192 167.987 204.952C167.672 205.713 167.21 206.404 166.629 206.986C166.047 207.568 165.356 208.029 164.596 208.344C163.836 208.659 163.021 208.821 162.198 208.821Z" fill="#EBF3FA"/>
<path d="M451.393 96.4961H389.807C386.144 96.4961 382.632 97.9512 380.041 100.541C377.451 103.131 375.996 106.644 375.996 110.307V139.015C375.996 142.678 377.451 146.191 380.041 148.781C382.632 151.371 386.144 152.826 389.807 152.826H390.265L385.321 169.388C385.274 169.547 385.278 169.716 385.333 169.873C385.388 170.029 385.491 170.164 385.627 170.259C385.763 170.353 385.926 170.402 386.092 170.398C386.258 170.394 386.418 170.338 386.55 170.238L409.372 152.826H451.402C455.065 152.826 458.578 151.371 461.168 148.781C463.758 146.191 465.214 142.678 465.214 139.015V110.302C465.213 108.488 464.855 106.692 464.16 105.016C463.465 103.341 462.447 101.818 461.163 100.536C459.88 99.2541 458.356 98.2374 456.68 97.5442C455.004 96.851 453.207 96.4948 451.393 96.4961Z" fill="white"/>
<path opacity="0.25" d="M455.317 108.232H384.409C383.788 108.232 383.285 108.736 383.285 109.356V119.641C383.285 120.262 383.788 120.765 384.409 120.765H455.317C455.937 120.765 456.441 120.262 456.441 119.641V109.356C456.441 108.736 455.937 108.232 455.317 108.232Z" fill="#EBF3FA"/>
<path opacity="0.25" d="M425.74 127.182H386.416C385.795 127.182 385.292 127.685 385.292 128.306V138.59C385.292 139.211 385.795 139.714 386.416 139.714H425.74C426.36 139.714 426.864 139.211 426.864 138.59V128.306C426.864 127.685 426.36 127.182 425.74 127.182Z" fill="#EBF3FA"/>
<path d="M40.3484 309.247C42.682 307.482 45.4839 306.6 48.7541 306.602C55.8097 306.602 59.5458 310.44 59.5458 315.836C59.5458 318.951 58.0409 322.115 54.9786 325.28C51.0877 329.378 48.2874 331.402 46.5229 331.402C46.1343 331.405 45.749 331.33 45.3895 331.182C45.0301 331.035 44.7037 330.817 44.4294 330.541C44.1552 330.266 43.9386 329.939 43.7922 329.579C43.6459 329.219 43.5729 328.833 43.5773 328.445C43.5773 326.992 44.9251 325.539 47.2611 323.411C47.3844 323.274 47.5234 323.152 47.6754 323.049C50.3209 320.61 51.152 319.26 51.152 317.6C51.152 315.526 49.7518 314.383 47.7278 314.383C46.5951 314.42 45.4749 314.631 44.406 315.007C43.1106 315.422 42.1748 315.629 41.6057 315.629C40.7517 315.597 39.9451 315.228 39.3616 314.603C38.7782 313.979 38.4653 313.149 38.491 312.295C38.4791 311.216 39.103 310.181 40.3484 309.247ZM47.4563 343.853C44.2917 343.853 42.1629 341.472 42.1629 338.562C42.1629 336.072 44.2917 333.686 47.4563 333.686C50.2066 333.686 52.3331 336.067 52.3331 338.562C52.3331 341.415 50.309 343.853 47.4563 343.853Z" fill="white"/>
<path d="M464.228 192.817C465.761 191.656 467.603 191.076 469.754 191.076C474.395 191.076 476.851 193.603 476.851 197.151C476.851 199.199 475.862 201.28 473.85 203.361C471.29 206.056 469.447 207.388 468.288 207.388C468.031 207.39 467.777 207.342 467.54 207.245C467.302 207.149 467.087 207.005 466.906 206.824C466.724 206.643 466.581 206.427 466.484 206.19C466.388 205.953 466.339 205.698 466.342 205.442C466.342 204.49 467.23 203.537 468.764 202.132C468.845 202.041 468.937 201.961 469.038 201.894C470.778 200.289 471.324 199.403 471.324 198.322C471.324 196.958 470.402 196.208 469.071 196.208C468.327 196.232 467.59 196.37 466.887 196.617C466.294 196.836 465.674 196.973 465.044 197.027C464.485 197.006 463.956 196.765 463.573 196.356C463.19 195.947 462.983 195.403 462.999 194.843C462.999 194.115 463.408 193.431 464.228 192.817ZM468.902 215.577C468.441 215.589 467.983 215.508 467.555 215.337C467.127 215.166 466.738 214.91 466.413 214.585C466.087 214.259 465.831 213.87 465.66 213.442C465.49 213.014 465.408 212.556 465.421 212.095C465.421 210.457 466.821 208.888 468.902 208.888C469.748 208.904 470.554 209.247 471.152 209.845C471.75 210.443 472.093 211.25 472.109 212.095C472.109 213.972 470.769 215.577 468.902 215.577Z" fill="white"/>
<path d="M566.287 318.919H501.506C500.956 318.919 500.428 318.701 500.039 318.312C499.65 317.923 499.432 317.395 499.432 316.845V261.082C499.422 260.804 499.469 260.527 499.569 260.267C499.669 260.007 499.82 259.77 500.014 259.57C500.207 259.37 500.439 259.211 500.695 259.102C500.951 258.994 501.226 258.937 501.505 258.938C501.783 258.937 502.058 258.994 502.315 259.102C502.571 259.211 502.803 259.37 502.996 259.57C503.189 259.77 503.341 260.007 503.44 260.267C503.54 260.527 503.587 260.804 503.578 261.082V314.771H566.287C566.837 314.771 567.365 314.99 567.754 315.379C568.143 315.768 568.361 316.295 568.361 316.845C568.361 317.395 568.143 317.923 567.754 318.312C567.365 318.701 566.837 318.919 566.287 318.919Z" fill="white"/>
<path d="M506.409 305.289C506.002 305.288 505.604 305.168 505.265 304.943C504.926 304.718 504.66 304.398 504.502 304.023C504.343 303.649 504.298 303.235 504.372 302.835C504.446 302.435 504.636 302.065 504.918 301.772L525.856 280.115C526.19 279.769 526.634 279.55 527.112 279.495C527.59 279.441 528.072 279.554 528.476 279.815L538.377 286.244L548.816 274.114C549.175 273.697 549.684 273.44 550.233 273.398C550.782 273.357 551.324 273.535 551.741 273.894C552.158 274.253 552.416 274.763 552.457 275.311C552.499 275.86 552.32 276.402 551.962 276.819L540.339 290.323C540.012 290.704 539.558 290.953 539.061 291.024C538.565 291.095 538.059 290.984 537.638 290.712L527.652 284.232L507.887 304.663C507.695 304.861 507.465 305.018 507.212 305.126C506.958 305.234 506.685 305.289 506.409 305.289Z" fill="white"/>
<path d="M552.006 282.998L549.051 277.012L542.694 274.983L556.85 267.951L552.006 282.998Z" fill="white"/>
<path d="M131.063 116.7C128.581 116.7 126.155 115.964 124.091 114.585C122.028 113.206 120.419 111.246 119.469 108.953C118.52 106.66 118.271 104.137 118.755 101.702C119.239 99.2681 120.435 97.0321 122.19 95.2771C123.945 93.5221 126.181 92.3269 128.615 91.8427C131.049 91.3585 133.572 91.607 135.865 92.5568C138.159 93.5066 140.118 95.1151 141.497 97.1787C142.876 99.2424 143.612 101.669 143.612 104.151C143.608 107.478 142.285 110.667 139.933 113.02C137.58 115.373 134.39 116.696 131.063 116.7ZM131.063 95.0567C129.264 95.0562 127.506 95.5892 126.01 96.5882C124.514 97.5871 123.348 99.0072 122.66 100.669C121.971 102.331 121.791 104.159 122.141 105.923C122.492 107.687 123.358 109.308 124.63 110.58C125.901 111.852 127.522 112.719 129.286 113.07C131.05 113.421 132.878 113.241 134.54 112.553C136.202 111.864 137.623 110.699 138.622 109.203C139.621 107.708 140.155 105.949 140.155 104.151C140.152 101.74 139.194 99.4287 137.489 97.7239C135.785 96.0191 133.474 95.0599 131.063 95.0567Z" fill="white"/>
<path opacity="0.25" d="M513.914 216.578C512.096 216.578 510.319 216.039 508.807 215.029C507.296 214.019 506.118 212.584 505.422 210.904C504.726 209.225 504.544 207.377 504.899 205.594C505.254 203.811 506.129 202.173 507.414 200.887C508.7 199.602 510.338 198.727 512.121 198.372C513.904 198.017 515.752 198.199 517.431 198.895C519.111 199.591 520.546 200.769 521.556 202.28C522.566 203.792 523.105 205.569 523.105 207.387C523.103 209.824 522.134 212.16 520.41 213.883C518.687 215.607 516.351 216.576 513.914 216.578ZM513.914 200.727C512.595 200.727 511.306 201.118 510.21 201.85C509.113 202.583 508.258 203.624 507.754 204.842C507.249 206.061 507.117 207.401 507.374 208.695C507.632 209.988 508.267 211.176 509.199 212.109C510.132 213.041 511.32 213.676 512.613 213.933C513.906 214.191 515.247 214.059 516.465 213.554C517.684 213.049 518.725 212.195 519.458 211.098C520.19 210.002 520.581 208.713 520.581 207.394C520.581 206.518 520.409 205.651 520.074 204.842C519.739 204.033 519.248 203.297 518.629 202.678C518.01 202.058 517.275 201.567 516.466 201.232C515.657 200.897 514.789 200.724 513.914 200.724V200.727Z" fill="#EBF3FA"/>
<path d="M31.3637 266.966C29.7314 266.966 28.1357 266.482 26.7784 265.575C25.4212 264.668 24.3633 263.379 23.7387 261.871C23.114 260.363 22.9506 258.703 23.269 257.102C23.5875 255.501 24.3735 254.031 25.5278 252.876C26.682 251.722 28.1526 250.936 29.7536 250.618C31.3546 250.299 33.0141 250.463 34.5222 251.087C36.0302 251.712 37.3192 252.77 38.2261 254.127C39.133 255.484 39.6171 257.08 39.6171 258.712C39.6152 260.901 38.745 262.999 37.1976 264.546C35.6502 266.094 33.5521 266.964 31.3637 266.966ZM31.3637 252.733C30.1805 252.733 29.0237 253.083 28.0396 253.74C27.0556 254.397 26.2885 255.331 25.8355 256.425C25.3825 257.518 25.2638 258.721 25.4945 259.881C25.7253 261.042 26.295 262.108 27.1317 262.944C27.9684 263.781 29.0344 264.351 30.195 264.582C31.3555 264.812 32.5584 264.694 33.6515 264.241C34.7446 263.788 35.6788 263.02 36.3359 262.036C36.993 261.052 37.3435 259.896 37.343 258.712C37.3405 257.127 36.7097 255.608 35.5889 254.487C34.4681 253.366 32.9488 252.736 31.3637 252.733Z" fill="white"/>
<path d="M473.781 80.0945C473.781 80.9828 473.517 81.8512 473.024 82.5898C472.53 83.3284 471.829 83.904 471.008 84.2439C470.187 84.5837 469.284 84.6725 468.413 84.499C467.542 84.3255 466.741 83.8976 466.113 83.2693C465.485 82.641 465.058 81.8405 464.885 80.9692C464.712 80.0979 464.801 79.1948 465.141 78.3742C465.482 77.5537 466.058 76.8524 466.797 76.3592C467.535 75.866 468.404 75.603 469.292 75.6035C470.483 75.6041 471.625 76.0776 472.466 76.9197C473.308 77.7619 473.781 78.9038 473.781 80.0945Z" fill="white"/>
<path opacity="0.25" d="M77.627 169.472C81.0752 166.024 81.0752 160.433 77.627 156.985C74.1789 153.537 68.5883 153.537 65.1401 156.985C61.6919 160.433 61.6919 166.024 65.1401 169.472C68.5883 172.92 74.1788 172.92 77.627 169.472Z" fill="#EBF3FA"/>
<path opacity="0.25" d="M500.613 62.6872C500.613 64.0004 500.224 65.2842 499.495 66.3762C498.766 67.4683 497.729 68.3196 496.516 68.8224C495.303 69.3253 493.968 69.4571 492.68 69.2012C491.392 68.9453 490.209 68.3132 489.28 67.3849C488.352 66.4565 487.719 65.2736 487.463 63.9857C487.206 62.6978 487.338 61.3628 487.84 60.1496C488.342 58.9364 489.193 57.8994 490.285 57.1698C491.377 56.4402 492.661 56.0508 493.974 56.0508C495.734 56.0508 497.422 56.7499 498.667 57.9944C499.912 59.2389 500.612 60.9269 500.613 62.6872Z" fill="#EBF3FA"/>
<path opacity="0.25" d="M533.092 222.06C533.092 223.18 532.759 224.275 532.136 225.207C531.513 226.138 530.629 226.864 529.593 227.292C528.558 227.72 527.419 227.832 526.321 227.613C525.222 227.394 524.213 226.855 523.421 226.062C522.629 225.27 522.089 224.261 521.871 223.162C521.652 222.063 521.765 220.924 522.194 219.889C522.622 218.854 523.349 217.969 524.28 217.347C525.212 216.725 526.307 216.393 527.427 216.393C528.171 216.393 528.908 216.539 529.596 216.824C530.283 217.109 530.908 217.526 531.434 218.053C531.96 218.579 532.377 219.204 532.662 219.891C532.946 220.579 533.092 221.316 533.092 222.06Z" fill="#EBF3FA"/>
<path d="M484.051 97.0061C484.051 98.4029 483.637 99.7684 482.861 100.93C482.085 102.091 480.982 102.997 479.691 103.531C478.401 104.066 476.981 104.206 475.61 103.933C474.24 103.661 472.982 102.988 471.994 102C471.007 101.012 470.334 99.754 470.061 98.3839C469.789 97.0139 469.929 95.5938 470.463 94.3033C470.998 93.0127 471.903 91.9097 473.065 91.1336C474.226 90.3576 475.591 89.9434 476.988 89.9434C478.861 89.9434 480.658 90.6875 481.982 92.012C483.307 93.3365 484.051 95.1329 484.051 97.0061Z" fill="white"/>
<path d="M154.775 90.7982C158.431 89.2838 160.167 85.0925 158.653 81.4365C157.138 77.7806 152.947 76.0445 149.291 77.5588C145.635 79.0732 143.899 83.2645 145.413 86.9205C146.928 90.5764 151.119 92.3125 154.775 90.7982Z" fill="white"/>
<path d="M498.017 423H73.9331C73.2703 422.998 72.6356 422.733 72.1679 422.263C71.7002 421.794 71.4375 421.158 71.4375 420.495C71.4375 419.831 71.7015 419.194 72.1713 418.724C72.641 418.254 73.2782 417.99 73.9426 417.99H498.038C498.703 417.99 499.34 418.254 499.81 418.724C500.28 419.194 500.544 419.831 500.544 420.495C500.544 420.826 500.478 421.154 500.351 421.459C500.224 421.764 500.037 422.041 499.802 422.274C499.567 422.507 499.289 422.691 498.982 422.816C498.676 422.94 498.348 423.003 498.017 423Z" fill="#201D40"/>
<path d="M214.215 203.621H214.223L220.733 203.645L222.207 219.02L214.608 223.033L206.505 219.066L207.815 203.645L214.215 203.621Z" fill="#E49963"/>
<path d="M196.333 196.835C200.34 206.836 209.96 212.411 217.823 209.263C225.686 206.115 228.813 195.452 224.807 185.439C220.802 175.426 211.177 169.863 203.314 173.011C195.452 176.159 192.327 186.822 196.333 196.835Z" fill="#E49963"/>
<path d="M221.388 188.726C221.554 188.964 221.788 189.148 222.059 189.254C222.33 189.36 222.626 189.383 222.91 189.321C223.194 189.259 223.454 189.113 223.655 188.904C223.857 188.694 223.992 188.429 224.043 188.143C224.094 187.856 224.06 187.561 223.943 187.295C223.827 187.028 223.634 186.802 223.389 186.645C223.144 186.488 222.858 186.407 222.567 186.412C222.276 186.418 221.993 186.509 221.754 186.676C221.596 186.786 221.46 186.927 221.356 187.089C221.251 187.252 221.18 187.434 221.146 187.625C221.112 187.815 221.116 188.01 221.157 188.199C221.199 188.388 221.277 188.567 221.388 188.726Z" fill="black"/>
<path d="M210.356 193.229C210.536 193.488 210.789 193.688 211.083 193.803C211.376 193.918 211.698 193.944 212.006 193.877C212.315 193.809 212.596 193.652 212.815 193.425C213.034 193.197 213.18 192.91 213.236 192.599C213.292 192.289 213.254 191.969 213.128 191.679C213.001 191.39 212.792 191.145 212.526 190.975C212.26 190.804 211.95 190.717 211.634 190.723C211.319 190.729 211.012 190.829 210.753 191.009C210.581 191.129 210.434 191.281 210.321 191.457C210.208 191.633 210.13 191.83 210.093 192.036C210.056 192.243 210.061 192.454 210.106 192.659C210.151 192.863 210.236 193.057 210.356 193.229Z" fill="black"/>
<path d="M219.149 191.076C221.142 192.648 223.631 194.541 223.631 194.541C223.631 194.541 223.657 196.941 220.852 197.982C221.866 197.06 222.757 195.839 221.702 194.41C220.647 192.981 219.149 191.076 219.149 191.076Z" fill="#D68D5D"/>
<path d="M207.453 192.268C207.395 192.269 207.338 192.263 207.281 192.249C207.188 192.227 207.099 192.186 207.021 192.129C206.943 192.073 206.877 192.001 206.826 191.919C206.776 191.837 206.742 191.745 206.727 191.65C206.712 191.554 206.716 191.457 206.739 191.363C206.996 190.285 208.074 188.244 210.31 188.234C210.498 188.245 210.674 188.327 210.803 188.464C210.932 188.6 211.004 188.781 211.004 188.969C211.004 189.157 210.932 189.338 210.803 189.474C210.674 189.611 210.498 189.693 210.31 189.704C208.644 189.704 208.167 191.685 208.167 191.704C208.129 191.865 208.038 192.008 207.908 192.11C207.779 192.213 207.618 192.268 207.453 192.268Z" fill="#201D40"/>
<path d="M219.845 185.612C219.737 185.612 219.631 185.583 219.538 185.529C219.445 185.475 219.367 185.398 219.313 185.304C219.26 185.211 219.232 185.105 219.232 184.997C219.233 184.889 219.262 184.783 219.316 184.69C219.345 184.642 219.988 183.566 221.205 183.34C222.036 183.188 222.893 183.459 223.757 184.15C223.829 184.197 223.89 184.258 223.937 184.33C223.983 184.402 224.014 184.483 224.028 184.568C224.041 184.652 224.037 184.739 224.015 184.822C223.993 184.905 223.953 184.982 223.9 185.049C223.846 185.116 223.779 185.171 223.702 185.21C223.626 185.249 223.542 185.272 223.457 185.277C223.371 185.282 223.286 185.269 223.205 185.239C223.125 185.209 223.052 185.162 222.991 185.102C222.419 184.642 221.893 184.454 221.426 184.54C220.991 184.653 220.615 184.926 220.374 185.304C220.32 185.397 220.243 185.474 220.15 185.528C220.057 185.582 219.952 185.611 219.845 185.612Z" fill="#201D40"/>
<path d="M190.861 189.36C187.472 179.711 195.738 174.165 195.738 174.165C195.738 174.165 193.523 173.967 193.259 170.857C194.942 171.375 196.748 171.335 198.407 170.746C209.408 166.762 216.98 166.814 216.98 171.524C216.98 173.191 224.246 172.05 223.636 183.323C223.679 182.528 221.083 177.894 218.635 177.43C216.187 176.965 218.397 180.247 213.268 180.951C208.096 181.666 204.291 180.406 201.124 183.333C198.652 185.876 198.028 198.825 198.414 199.606C197.55 197.808 192.351 193.598 190.861 189.36Z" fill="#201D40"/>
<path d="M226.322 191.076C226.322 191.076 226.798 196.951 225.943 198.768C225.062 196.413 223.169 198.908 221.39 199.144C217.104 199.713 209.346 198.279 208.577 204.723C203.338 206.39 198.411 195.148 198.411 195.148C198.109 207.699 207.296 214.829 220.516 212.741C229.224 211.364 230.027 199.239 226.322 191.076Z" fill="#201D40"/>
<path d="M217.268 203.106C216.343 202.875 215.452 202.525 214.616 202.066C214.507 202.001 214.428 201.898 214.394 201.776C214.36 201.654 214.374 201.524 214.433 201.413C214.493 201.301 214.593 201.217 214.713 201.178C214.833 201.139 214.964 201.147 215.078 201.201C217.111 202.29 218.935 202.599 220.495 202.123C221.675 201.745 222.678 200.951 223.317 199.889C223.378 199.776 223.482 199.692 223.605 199.654C223.728 199.617 223.861 199.629 223.975 199.689C224.09 199.748 224.176 199.851 224.215 199.973C224.254 200.096 224.244 200.229 224.186 200.344C223.432 201.636 222.225 202.602 220.8 203.054C219.649 203.391 218.429 203.409 217.268 203.106Z" fill="#D68D5D"/>
<path d="M198.288 195.234C200.498 196.475 201.467 198.949 200.45 200.756C199.433 202.563 196.819 203.025 194.607 201.785C192.394 200.544 191.428 198.07 192.444 196.26C193.461 194.451 196.076 193.991 198.288 195.234Z" fill="#E49963"/>
<path d="M197.952 200.647C198.022 200.597 198.08 200.532 198.121 200.457C198.728 199.333 198.628 198.185 197.854 197.39C197.467 196.993 196.967 196.726 196.421 196.626C195.876 196.526 195.313 196.598 194.811 196.832C194.68 196.899 194.58 197.015 194.534 197.154C194.488 197.294 194.499 197.446 194.566 197.578C194.632 197.709 194.748 197.809 194.888 197.855C195.027 197.901 195.18 197.889 195.311 197.823C195.603 197.698 195.926 197.663 196.237 197.724C196.549 197.785 196.835 197.938 197.059 198.164C197.49 198.606 197.521 199.235 197.145 199.93C197.087 200.04 197.067 200.166 197.09 200.289C197.112 200.411 197.175 200.522 197.268 200.604C197.361 200.687 197.479 200.736 197.603 200.743C197.727 200.75 197.85 200.716 197.952 200.645V200.647Z" fill="#D68D5D"/>
<path d="M221.747 408.945C223.133 405.183 226.095 404.764 226.095 404.764C231.851 412.705 245.986 407.833 245.517 418.575C224.024 418.437 215.089 418.575 215.089 418.575C215.118 416.11 215.542 410.252 216.042 407.962L217.161 408.166L221.747 408.945Z" fill="black"/>
<path d="M189.589 409.154C190.975 405.391 193.935 404.975 193.935 404.975C199.69 412.916 213.825 408.042 213.359 418.786C191.863 418.648 182.931 418.786 182.931 418.786C182.96 416.319 183.384 410.451 183.884 408.17L185.005 408.377L189.589 409.154Z" fill="black"/>
<path d="M236.044 283.529C236.044 283.529 239.535 334.426 238.116 345.741C236.697 357.057 231.687 371.566 232.249 408.994C225.241 410.746 215.089 408.994 215.089 408.994C215.089 408.994 213.596 366.672 220.993 347.768C217.98 329.406 208.315 287.351 208.315 287.351L236.044 283.529Z" fill="#201D40"/>
<path d="M222.783 284.92C222.783 284.92 215.735 342.069 212.287 352.899C208.839 363.729 202.11 372.901 195.857 409.772C188.656 410.134 181.95 409.772 181.95 409.772C181.95 409.772 182.922 363.003 194.135 352.366C194.516 333.747 192.323 285.287 192.323 285.287L222.783 284.92Z" fill="#2E2D57"/>
<path d="M190.299 220.067C190.299 220.067 202.536 215.781 206.617 217.746C219.3 223.854 222.207 217.746 222.207 217.746C226.255 218.096 238.492 220.067 238.492 220.067C238.492 233.728 239.404 247.435 239.157 257.774C238.98 266.775 240.697 291.276 240.697 291.276C240.697 291.276 227.203 294.812 214.439 294.905C201.674 294.821 188.682 291.418 188.682 291.418C188.682 291.418 189.365 266.606 189.932 257.381C189.746 247.044 190.299 233.69 190.299 220.067Z" fill="#FC6DBD"/>
<path d="M260.247 240.367C255.196 228.313 240.207 220.648 238.492 220.064L235.016 235.542C239.4 238.142 243.558 241.108 247.443 244.408C246.557 248.715 246.705 252.942 244.212 258.39C244.212 258.39 246.379 255.402 249.05 257.169C251.648 258.89 256.432 255.38 256.432 255.38C256.432 255.38 264.107 249.573 260.247 240.367Z" fill="#D86713"/>
<path d="M257.433 270.828C257.518 270.855 257.606 270.873 257.695 270.883H257.983C258.248 270.854 258.5 270.749 258.706 270.58C258.913 270.411 259.065 270.185 259.145 269.93L272.613 226.511C272.639 226.425 272.656 226.338 272.666 226.249C272.67 226.192 272.67 226.134 272.666 226.077C272.668 226.043 272.668 226.008 272.666 225.973C272.666 225.944 272.666 225.915 272.649 225.885C272.609 225.634 272.5 225.401 272.334 225.209C272.168 225.018 271.952 224.876 271.711 224.801C271.628 224.774 271.542 224.756 271.456 224.746C271.359 224.736 271.26 224.736 271.163 224.746H237.264L223.691 270.885H257.469L257.433 270.828Z" fill="url(#paint0_linear_254_466)"/>
<path d="M237.571 224.795C237.224 224.688 236.849 224.723 236.528 224.892C236.207 225.062 235.966 225.351 235.859 225.698L222.476 269.008L222.445 269.11C222.339 269.455 222.374 269.828 222.542 270.147C222.71 270.466 222.997 270.706 223.341 270.815C223.512 270.868 223.693 270.888 223.872 270.871C224.05 270.855 224.224 270.803 224.383 270.72C224.542 270.636 224.683 270.522 224.798 270.384C224.913 270.246 225 270.086 225.053 269.915L238.471 226.503C238.577 226.157 238.542 225.783 238.373 225.464C238.204 225.144 237.916 224.904 237.571 224.795Z" fill="#5A328E"/>
<path d="M263.186 252.341C263.311 252.262 263.447 252.203 263.591 252.165L263.545 252.103C262.702 250.832 262.76 249.31 263.672 248.705C263.817 248.609 263.978 248.54 264.148 248.5C263.91 247.548 264.122 246.66 264.774 246.229C265.035 246.063 265.339 245.98 265.648 245.99C265.35 245.064 265.588 244.085 266.317 243.609C267.231 243.007 268.553 243.397 269.275 244.483C269.996 245.569 269.836 246.938 268.924 247.543C268.698 247.692 268.439 247.785 268.17 247.814C268.777 249.005 268.646 250.296 267.829 250.841C267.684 250.938 267.523 251.007 267.353 251.046C267.591 251.998 267.379 252.886 266.727 253.32C266.486 253.474 266.206 253.557 265.919 253.558C266.219 254.37 266.029 255.242 265.386 255.665C264.614 256.177 263.498 255.846 262.89 254.93C262.283 254.013 262.412 252.853 263.186 252.341Z" fill="#E49963"/>
<path d="M221.505 249.598L224.6 247.807C224.6 247.807 225.455 243.423 230.42 243.318L229.032 247.807C229.032 247.807 231.475 249.712 237.268 246.459C242.931 245.185 240.512 249.317 242.39 249.612C245.16 250.048 240.371 255.491 234.716 256.325C227.398 257.401 226.531 255.903 226.531 255.903L222.39 257.351L221.505 249.598Z" fill="#E49963"/>
<path d="M192.909 254.28C203.236 253.566 220.857 248.456 220.857 248.456C223.679 252.78 222.898 258.526 222.898 258.526C206.858 272.589 182.715 277.135 175.307 273.752C168.544 270.656 173.318 229.494 190.308 220.064C196.119 229.913 192.909 254.28 192.909 254.28Z" fill="#FC61A3"/>
<path d="M359.387 405.125C353.629 412.802 339.496 408.092 339.963 418.474C361.458 418.341 370.39 418.474 370.39 418.474C370.362 416.093 369.938 410.43 369.438 408.213L359.387 405.125Z" fill="black"/>
<path d="M391.545 405.324C385.79 413.004 371.655 408.291 372.122 418.676C393.617 418.542 402.551 418.676 402.551 418.676C402.523 416.295 402.097 410.63 401.599 408.413L391.545 405.324Z" fill="black"/>
<path d="M349.436 287.922C349.436 287.922 345.945 337.125 347.364 348.064C348.784 359.004 353.794 373.029 353.232 409.212C360.24 410.91 370.391 409.212 370.391 409.212C370.391 409.212 371.896 368.298 364.49 350.024C367.5 332.275 377.165 291.615 377.165 291.615L349.436 287.922Z" fill="#201D40"/>
<path d="M362.7 289.266C362.7 289.266 369.746 344.51 373.196 354.987C376.646 365.465 383.371 374.325 389.626 409.97C396.827 410.317 405.407 408.541 405.407 408.541C405.407 408.541 402.549 364.75 391.358 354.468C390.977 336.466 393.17 289.618 393.17 289.618L362.7 289.266Z" fill="#2E2D57"/>
<path d="M391.398 198.89C387.588 208.434 378.406 213.739 370.92 210.739C363.433 207.738 360.442 197.571 364.252 188.027C368.062 178.483 377.244 173.177 384.731 176.175C392.217 179.173 395.218 189.346 391.398 198.89Z" fill="#E49963"/>
<path d="M367.512 191.157C367.353 191.384 367.13 191.559 366.872 191.66C366.614 191.761 366.332 191.783 366.061 191.724C365.79 191.664 365.543 191.526 365.351 191.326C365.159 191.126 365.03 190.874 364.981 190.601C364.932 190.328 364.965 190.047 365.076 189.793C365.187 189.539 365.371 189.323 365.604 189.173C365.837 189.024 366.11 188.946 366.387 188.951C366.664 188.956 366.934 189.044 367.162 189.202C367.313 189.307 367.442 189.441 367.542 189.596C367.642 189.752 367.71 189.925 367.742 190.107C367.775 190.288 367.771 190.474 367.731 190.655C367.692 190.835 367.617 191.005 367.512 191.157Z" fill="black"/>
<path d="M378.03 195.452C377.858 195.698 377.617 195.889 377.337 195.998C377.058 196.108 376.752 196.132 376.459 196.068C376.165 196.004 375.897 195.854 375.689 195.638C375.481 195.422 375.341 195.148 375.288 194.853C375.235 194.557 375.27 194.252 375.39 193.977C375.51 193.702 375.709 193.468 375.961 193.306C376.214 193.143 376.509 193.059 376.809 193.065C377.11 193.07 377.402 193.164 377.649 193.335C377.98 193.565 378.206 193.918 378.277 194.315C378.349 194.712 378.26 195.121 378.03 195.452Z" fill="black"/>
<path d="M369.643 193.398C367.738 194.896 365.371 196.701 365.371 196.701C365.371 196.701 365.347 198.99 368.021 199.983C367.055 199.104 366.204 197.937 367.212 196.587C368.219 195.237 369.643 193.398 369.643 193.398Z" fill="#D68D5D"/>
<path d="M380.797 194.534C380.639 194.534 380.486 194.481 380.363 194.384C380.239 194.286 380.152 194.149 380.116 193.996C380.097 193.92 379.625 192.091 378.061 192.091C377.965 192.097 377.87 192.083 377.78 192.05C377.69 192.017 377.607 191.967 377.538 191.901C377.468 191.835 377.413 191.756 377.375 191.668C377.337 191.58 377.317 191.486 377.317 191.39C377.317 191.294 377.337 191.2 377.375 191.112C377.413 191.024 377.468 190.945 377.538 190.879C377.607 190.813 377.69 190.763 377.78 190.73C377.87 190.697 377.965 190.683 378.061 190.689C380.204 190.689 381.225 192.646 381.471 193.672C381.51 193.853 381.479 194.042 381.382 194.2C381.285 194.358 381.131 194.471 380.952 194.518C380.901 194.528 380.849 194.534 380.797 194.534Z" fill="black"/>
<path d="M368.984 188.189C368.882 188.189 368.782 188.163 368.694 188.113C368.606 188.063 368.533 187.991 368.481 187.903C368.247 187.54 367.885 187.278 367.467 187.17C367.024 187.091 366.514 187.272 365.983 187.706C365.863 187.803 365.708 187.848 365.554 187.831C365.401 187.814 365.26 187.737 365.163 187.616C365.066 187.496 365.021 187.342 365.038 187.188C365.054 187.034 365.132 186.893 365.252 186.796C366.076 186.136 366.895 185.877 367.686 186.025C368.056 186.11 368.405 186.267 368.714 186.488C369.023 186.708 369.285 186.988 369.486 187.31C369.537 187.399 369.564 187.5 369.564 187.602C369.565 187.705 369.538 187.805 369.487 187.894C369.436 187.983 369.363 188.057 369.275 188.109C369.186 188.161 369.086 188.188 368.984 188.189Z" fill="black"/>
<path d="M388.733 199.885C385.971 191.005 389.464 186.286 389.464 186.286C387.083 185.809 386.171 186.631 386.171 186.631C384.878 183.976 385.878 182.071 385.878 182.071C380.977 180.166 378.537 183.335 374.115 184.404C368.059 185.869 360.577 183.452 359.877 176.07C359.854 175.831 359.899 175.59 360.008 175.376C360.117 175.162 360.284 174.983 360.491 174.861C360.698 174.738 360.935 174.678 361.175 174.686C361.415 174.694 361.648 174.77 361.847 174.906C362.817 175.567 363.971 175.905 365.145 175.87C364.352 174.901 363.886 173.707 363.811 172.458C363.807 172.214 363.873 171.975 364.001 171.768C364.13 171.562 364.315 171.397 364.535 171.293C364.755 171.189 365.001 171.151 365.242 171.184C365.483 171.217 365.71 171.318 365.895 171.477C367.154 172.524 369.49 173.515 373.655 172.734C376.427 172.215 382.77 167.776 386.723 168.643C389.955 169.357 392.519 172.101 393.629 176.025C393.629 176.025 401.572 176.849 402.368 185.588C403.151 194.177 393.205 200.766 393.205 200.766L388.733 199.885Z" fill="black"/>
<path d="M387.65 198.404C385.547 199.595 384.633 201.957 385.609 203.678C386.585 205.4 389.078 205.821 391.181 204.631C393.283 203.44 394.2 201.076 393.224 199.356C392.248 197.637 389.752 197.213 387.65 198.404Z" fill="#E49963"/>
<path d="M387.991 203.566C387.923 203.519 387.868 203.457 387.829 203.385C387.245 202.316 387.336 201.223 388.067 200.461C388.434 200.081 388.911 199.824 389.43 199.727C389.95 199.63 390.487 199.696 390.967 199.918C391.03 199.949 391.085 199.992 391.131 200.045C391.177 200.098 391.212 200.159 391.234 200.226C391.256 200.292 391.265 200.362 391.26 200.432C391.255 200.501 391.236 200.57 391.205 200.632C391.174 200.695 391.131 200.75 391.078 200.796C391.025 200.842 390.964 200.877 390.897 200.899C390.831 200.921 390.761 200.93 390.691 200.925C390.621 200.92 390.553 200.901 390.491 200.87C390.212 200.752 389.904 200.72 389.606 200.779C389.309 200.838 389.036 200.985 388.824 201.201C388.414 201.625 388.388 202.225 388.75 202.887C388.807 202.992 388.827 203.112 388.806 203.23C388.786 203.347 388.726 203.454 388.638 203.533C388.549 203.612 388.436 203.659 388.318 203.667C388.199 203.674 388.081 203.641 387.983 203.573L387.991 203.566Z" fill="#D68D5D"/>
<path d="M365.807 203.032C365.76 202.957 365.737 202.87 365.739 202.782C365.742 202.694 365.77 202.609 365.821 202.537C365.872 202.465 365.943 202.41 366.025 202.378C366.107 202.346 366.197 202.339 366.283 202.358C369.036 202.98 371.859 203.232 374.679 203.108C374.766 203.106 374.852 203.129 374.926 203.176C375.001 203.222 375.06 203.288 375.096 203.368C375.133 203.447 375.146 203.535 375.133 203.621C375.12 203.708 375.082 203.788 375.024 203.854C374.217 204.761 372.598 206.101 370.2 205.887C367.802 205.673 366.44 204.058 365.807 203.032Z" fill="white"/>
<path d="M355.72 215.54C355.72 215.54 356.077 214.566 325.145 214.825L316.854 224.629C325.426 231.51 354.18 232.725 354.18 232.725L355.72 215.54Z" fill="#201D40"/>
<path d="M366.959 214.74L376.715 213.828L386.152 216.462L375.518 227.406L366.959 214.74Z" fill="url(#paint1_linear_254_466)"/>
<path d="M370.34 219.775C374.317 223.039 375.129 225.294 383.575 220.932L384.842 207.947L371.091 206.861L370.34 219.775Z" fill="#E49963"/>
<path d="M388.657 221.681L385.759 220.545L386.145 216.464L378.125 222.893L375.86 223.255L373.696 222.498L366.952 214.732L366.612 218.823L364.061 219.335L354.86 220.826L353.767 271.889L350.136 289.272C362.345 293.32 375.996 294.346 389.426 292.496L388.974 275.056L398.499 225.153L388.657 221.681Z" fill="url(#paint2_linear_254_466)"/>
<path d="M374.105 228.422L368.343 267.41L371.534 271.843L375.694 268.648L377.108 228.746L374.105 228.422Z" fill="#2E2D57"/>
<path d="M373.763 223.818L375.868 223.264L378.015 224.199L377.106 228.821L374.086 228.552L373.763 223.818Z" fill="#2E2D57"/>
<path d="M366.823 215.068L365.378 262.162L359.146 292.487C359.146 292.487 349.288 291.494 343.23 285.729L350.993 262.9L353.646 215.192L366.823 215.068Z" fill="#2E2D57"/>
<path d="M366.824 215.068L365.388 261.533L358.211 225.924L366.824 215.068Z" fill="#494C7F"/>
<path d="M386.89 218.08L374.091 294.432C374.091 294.432 391.079 296.518 398.065 291.924L394.274 266.826L398.906 224.214L386.89 218.08Z" fill="#2E2D57"/>
<path d="M386.89 218.08L379.408 262.83L392.805 229.067L386.89 218.08Z" fill="#494C7F"/>
<path d="M302.302 173.18C302.983 175.561 303.185 178.13 306.207 179.414C306.207 179.414 305.762 187.32 306.095 193.806C306.095 193.806 313.405 185.56 313.405 185.553C312.986 182.933 312.648 177.997 313.051 175.19C313.155 174.461 313.289 173.737 313.41 173.006C313.724 171.234 314.246 169.42 313.172 167.279C309 159.014 310.405 156.292 309.838 155.89C308.891 155.483 306.702 157.149 307.936 161.197C309.126 165.129 308.841 167.058 308.841 167.058C308.841 167.058 305.688 166.462 304.569 167.567C304.059 168.072 301.506 170.394 302.302 173.18Z" fill="#E49963"/>
<path d="M304 184.321C308.26 182.893 310.503 182.262 313.818 182.262C321.652 205.598 327.236 214.408 324.907 221.109C322.966 226.698 316.811 226.25 313.818 222.061C309.855 216.539 306.346 195.554 304 184.321Z" fill="#201D40"/>
<path d="M398.903 224.213L423.587 262.829L452.902 279.383L443.865 288.377L414.455 275.485L394.272 247.006L398.903 224.213Z" fill="#201D40"/>
<path d="M375.868 223.264C375.868 223.264 372.239 226.919 368.898 227.871L364.952 217.432L366.959 214.746L375.868 223.264Z" fill="white"/>
<path d="M375.868 223.264C377.386 225.646 379.459 227.626 381.909 229.033L387.664 219.494L386.164 216.463L375.868 223.264Z" fill="white"/>
<path d="M402.735 333.197H187.217C182.152 333.197 178.047 330.435 178.047 327.028C178.047 323.618 182.152 320.855 187.217 320.855H402.735C407.799 320.855 411.907 323.618 411.907 327.028C411.907 330.435 407.799 333.197 402.735 333.197Z" fill="url(#paint3_linear_254_466)"/>
<path d="M267.991 420.164C267.467 420.164 266.952 420.022 266.502 419.754C266.052 419.486 265.683 419.101 265.434 418.64C265.184 418.179 265.064 417.659 265.086 417.136C265.108 416.612 265.27 416.104 265.557 415.666L322.468 328.463L327.34 331.642L270.429 418.845C270.165 419.25 269.803 419.583 269.377 419.814C268.952 420.044 268.475 420.165 267.991 420.164Z" fill="url(#paint4_linear_254_466)"/>
<path d="M321.961 420.164C322.485 420.163 322.999 420.022 323.449 419.753C323.899 419.485 324.268 419.1 324.518 418.64C324.767 418.179 324.888 417.659 324.866 417.136C324.845 416.613 324.683 416.105 324.397 415.666L267.486 328.463L262.614 331.642L319.525 418.845C319.789 419.25 320.15 419.583 320.576 419.813C321.001 420.044 321.477 420.164 321.961 420.164Z" fill="url(#paint5_linear_254_466)"/>
<path d="M411.314 418.777C410.948 418.777 410.586 418.705 410.248 418.565C409.91 418.425 409.603 418.22 409.344 417.961C409.086 417.703 408.88 417.395 408.74 417.057C408.6 416.719 408.528 416.357 408.528 415.991V366.631H414.096V415.984C414.097 416.35 414.025 416.713 413.886 417.051C413.747 417.39 413.542 417.698 413.284 417.957C413.025 418.216 412.719 418.422 412.381 418.563C412.043 418.704 411.68 418.777 411.314 418.777Z" fill="#5A328E"/>
<path d="M430.862 418.777C430.123 418.777 429.414 418.484 428.892 417.961C428.369 417.439 428.076 416.73 428.076 415.991V366.631H433.648V415.984C433.649 416.351 433.577 416.714 433.438 417.052C433.298 417.391 433.093 417.699 432.834 417.959C432.576 418.218 432.268 418.424 431.93 418.565C431.591 418.705 431.228 418.777 430.862 418.777Z" fill="#5A328E"/>
<path d="M456.512 418.777C455.774 418.777 455.065 418.484 454.542 417.961C454.02 417.439 453.726 416.73 453.726 415.991V366.631H459.299V415.984C459.299 416.351 459.228 416.714 459.088 417.052C458.949 417.391 458.744 417.699 458.485 417.959C458.226 418.218 457.919 418.424 457.58 418.565C457.242 418.705 456.879 418.777 456.512 418.777Z" fill="#5A328E"/>
<path d="M476.062 418.777C475.323 418.777 474.615 418.484 474.092 417.961C473.57 417.439 473.276 416.73 473.276 415.991V366.631H478.848V415.984C478.849 416.351 478.778 416.714 478.638 417.052C478.499 417.391 478.294 417.699 478.035 417.959C477.776 418.218 477.469 418.424 477.13 418.565C476.792 418.705 476.429 418.777 476.062 418.777Z" fill="#5A328E"/>
<path d="M445.237 293.378V352.115C445.238 352.274 445.207 352.432 445.146 352.579C445.085 352.726 444.996 352.859 444.884 352.971C444.771 353.084 444.638 353.173 444.491 353.234C444.344 353.294 444.187 353.325 444.028 353.325H407.609C406.736 353.325 405.87 353.497 405.063 353.831C404.256 354.165 403.522 354.655 402.904 355.273C402.286 355.891 401.796 356.624 401.462 357.432C401.128 358.239 400.956 359.104 400.956 359.978C400.956 360.852 401.128 361.717 401.462 362.525C401.796 363.332 402.286 364.065 402.904 364.683C403.522 365.301 404.256 365.791 405.063 366.126C405.87 366.46 406.736 366.632 407.609 366.631H451.9C453.665 366.631 455.357 365.93 456.605 364.683C457.852 363.435 458.553 361.743 458.553 359.978V293.378C458.553 291.613 457.852 289.921 456.605 288.673C455.357 287.426 453.665 286.725 451.9 286.725C451.026 286.723 450.159 286.895 449.351 287.228C448.543 287.562 447.808 288.052 447.189 288.67C446.571 289.288 446.08 290.022 445.745 290.829C445.41 291.637 445.237 292.503 445.237 293.378Z" fill="url(#paint6_linear_254_466)"/>
<path d="M480.684 286.725H451.89V354.406H480.684V286.725Z" fill="url(#paint7_linear_254_466)"/>
<path d="M474.031 293.378V352.115C474.031 352.274 474 352.432 473.939 352.579C473.879 352.726 473.79 352.859 473.677 352.971C473.565 353.084 473.431 353.173 473.284 353.234C473.137 353.294 472.98 353.325 472.821 353.325H436.403C434.638 353.325 432.946 354.026 431.698 355.274C430.45 356.521 429.75 358.214 429.75 359.978C429.75 361.743 430.45 363.435 431.698 364.683C432.946 365.93 434.638 366.631 436.403 366.631H480.693C482.458 366.631 484.15 365.93 485.398 364.683C486.646 363.435 487.347 361.743 487.347 359.978V293.378C487.347 291.613 486.646 289.921 485.398 288.673C484.15 287.426 482.458 286.725 480.693 286.725C479.819 286.723 478.953 286.895 478.144 287.228C477.336 287.562 476.602 288.052 475.983 288.67C475.364 289.288 474.873 290.022 474.538 290.829C474.203 291.637 474.031 292.503 474.031 293.378Z" fill="#5A328E"/>
<path d="M175.912 418.777C176.278 418.777 176.64 418.705 176.978 418.565C177.316 418.425 177.623 418.22 177.882 417.961C178.14 417.703 178.346 417.395 178.486 417.057C178.626 416.719 178.698 416.357 178.698 415.991V366.631H173.116V415.984C173.115 416.351 173.187 416.715 173.327 417.055C173.467 417.394 173.673 417.703 173.933 417.962C174.193 418.222 174.501 418.427 174.841 418.567C175.18 418.707 175.544 418.779 175.912 418.777Z" fill="#5A328E"/>
<path d="M156.362 418.777C157.101 418.777 157.809 418.484 158.332 417.961C158.854 417.439 159.148 416.73 159.148 415.991V366.631H153.576V415.984C153.575 416.351 153.646 416.714 153.786 417.052C153.925 417.391 154.13 417.699 154.389 417.959C154.648 418.218 154.955 418.424 155.294 418.565C155.632 418.705 155.995 418.777 156.362 418.777Z" fill="#5A328E"/>
<path d="M130.711 418.777C131.45 418.777 132.159 418.484 132.681 417.961C133.204 417.439 133.497 416.73 133.497 415.991V366.631H127.925V415.984C127.924 416.351 127.996 416.714 128.135 417.052C128.275 417.391 128.48 417.699 128.739 417.959C128.998 418.218 129.305 418.424 129.644 418.565C129.982 418.705 130.345 418.777 130.711 418.777Z" fill="#5A328E"/>
<path d="M111.163 418.777C111.902 418.777 112.611 418.484 113.134 417.961C113.656 417.439 113.95 416.73 113.95 415.991V366.631H108.377V415.984C108.377 416.351 108.448 416.714 108.587 417.052C108.727 417.391 108.932 417.699 109.191 417.959C109.45 418.218 109.757 418.424 110.096 418.565C110.434 418.705 110.797 418.777 111.163 418.777Z" fill="#5A328E"/>
<path d="M141.989 293.378V352.115C141.988 352.274 142.02 352.432 142.08 352.579C142.141 352.726 142.23 352.859 142.342 352.971C142.455 353.084 142.588 353.173 142.735 353.234C142.882 353.294 143.039 353.325 143.198 353.325H179.617C181.381 353.325 183.074 354.026 184.321 355.274C185.569 356.521 186.27 358.214 186.27 359.978C186.27 361.743 185.569 363.435 184.321 364.683C183.074 365.93 181.381 366.631 179.617 366.631H135.326C134.452 366.631 133.587 366.459 132.78 366.125C131.973 365.791 131.239 365.3 130.622 364.683C130.004 364.065 129.514 363.331 129.179 362.524C128.845 361.717 128.673 360.852 128.673 359.978V293.378C128.673 292.504 128.845 291.639 129.179 290.832C129.514 290.025 130.004 289.291 130.622 288.673C131.239 288.055 131.973 287.565 132.78 287.231C133.587 286.897 134.452 286.725 135.326 286.725C136.201 286.723 137.067 286.895 137.875 287.228C138.683 287.562 139.418 288.052 140.037 288.67C140.656 289.288 141.146 290.022 141.481 290.829C141.816 291.637 141.989 292.503 141.989 293.378Z" fill="url(#paint8_linear_254_466)"/>
<path d="M106.539 354.406H135.333V286.725H106.539V354.406Z" fill="url(#paint9_linear_254_466)"/>
<path d="M113.192 293.378V352.115C113.192 352.274 113.224 352.432 113.285 352.579C113.346 352.726 113.435 352.859 113.547 352.972C113.66 353.084 113.794 353.173 113.941 353.234C114.088 353.294 114.245 353.325 114.404 353.325H150.823C152.587 353.325 154.28 354.026 155.527 355.274C156.775 356.521 157.476 358.214 157.476 359.978C157.476 361.743 156.775 363.435 155.527 364.683C154.28 365.93 152.587 366.631 150.823 366.631H106.532C105.658 366.632 104.793 366.46 103.986 366.126C103.178 365.791 102.445 365.301 101.827 364.683C101.209 364.065 100.719 363.332 100.385 362.525C100.05 361.717 99.8786 360.852 99.8789 359.978V293.378C99.8786 292.504 100.05 291.639 100.385 290.831C100.719 290.024 101.209 289.29 101.827 288.673C102.445 288.055 103.178 287.565 103.986 287.23C104.793 286.896 105.658 286.724 106.532 286.725C107.406 286.723 108.273 286.895 109.081 287.228C109.889 287.562 110.623 288.052 111.242 288.67C111.86 289.288 112.351 290.022 112.686 290.83C113.021 291.637 113.193 292.503 113.192 293.378Z" fill="#5A328E"/>
<path d="M430.416 270.933C424.273 268.716 414.781 263.868 421.089 255.012C427.397 246.156 427.235 250.011 424.966 239.265C422.697 228.518 430.345 220.044 437.636 222.184C444.928 224.325 446.79 230.228 455.734 228.735C464.677 227.242 472.102 235.6 468.737 242.851C465.373 250.102 463.935 253.59 467.071 257.603C470.207 261.615 484.394 265.937 478.481 275.552C472.569 285.168 469.859 284.577 471.912 289.504C473.964 294.431 469.228 300.043 461.01 299.267C452.793 298.491 445.351 295.393 442.339 286.218C439.327 277.043 430.416 270.933 430.416 270.933Z" fill="#2E2D57"/>
<path d="M408.678 410.67L403.823 412.12L400.168 408.382C400.342 408.122 400.168 405.62 399.608 402.95L408.678 401.445C409.04 404.21 408.678 407.891 408.678 410.67Z" fill="#E49963"/>
<path d="M403.856 411.248C402.704 408.217 400.234 407.881 400.234 407.881C395.438 414.279 383.659 410.353 384.042 419.006C401.954 418.894 409.4 419.006 409.4 419.006C409.376 417.02 409.021 412.3 408.609 410.455L407.676 410.619L403.856 411.248Z" fill="#F1A34F"/>
<path d="M376.386 411.574L371.331 411.921L368.423 408.826C368.662 408.611 369.2 404.778 369.235 402.049L377.758 402.43C377.481 405.502 377.023 408.555 376.386 411.574Z" fill="#E49963"/>
<path d="M371.879 411.248C370.726 408.217 368.257 407.881 368.257 407.881C363.461 414.279 351.681 410.353 352.065 419.006C369.976 418.894 377.422 419.006 377.422 419.006C377.399 417.02 377.044 412.3 376.632 410.455L375.698 410.619L371.879 411.248Z" fill="#F1A34F"/>
<path d="M427.511 327.035C413.712 328.893 374.834 343.302 372.667 345.907C368.19 351.291 370.55 380.587 368.423 404.761L379.725 405.43C385.137 385.742 384.706 377.246 387.154 354.665C387.154 354.665 431.571 357.999 447.621 347.159C464.168 335.989 438.672 324.39 427.511 327.035Z" fill="url(#paint10_linear_254_466)"/>
<path d="M409.526 298.338C412.789 298.895 414.051 301.51 414.832 306.329C402.406 313.649 383.947 314.171 383.947 314.171L378.063 311.261C378.063 311.261 392.865 305.929 409.526 298.338Z" fill="#D68D5D"/>
<path d="M443.504 284.564C438.065 292.464 417.234 309.457 413.786 309.993L409.607 298.301C409.607 298.301 429.948 276.289 433.658 272.398C440.051 265.645 452.405 271.686 443.504 284.564Z" fill="#D68D5D"/>
<path d="M420.594 283.298C424.954 278.6 430.633 267.994 438.025 268.749C445.416 269.504 445.949 277.345 443.721 281.567C441.492 285.789 433.8 296.198 433.8 296.198L420.594 283.298Z" fill="#FF4F78"/>
<path d="M421.932 303.176C425.066 304.254 426.854 314.129 425.98 314.875C412.55 320.194 384.609 314.441 384.609 314.441L383.125 309.381C383.125 309.381 404.278 308.086 421.932 303.176Z" fill="#E49963"/>
<path d="M466.119 335.332C463.047 319.49 461.725 313.875 460.449 306.417C457.296 287.989 466.566 275.037 450.674 266.205L439.092 268.074C429.726 277.925 423.959 286.869 423.466 293.049C422.787 301.016 430.696 305.34 430.696 305.34L427.512 327.038C427.512 327.038 426.764 328.81 439.825 331.277C452.886 333.744 466.119 335.332 466.119 335.332Z" fill="#FC6DBD"/>
<path d="M456.598 286.81C451.159 294.804 427.923 315.116 424.432 315.297L421.932 303.176C421.932 303.176 443.042 278.438 446.744 274.504C453.148 267.672 465.501 273.778 456.598 286.81Z" fill="#E49963"/>
<path d="M434.384 286.865C438.432 280.962 446.628 270.068 454.017 270.822C461.406 271.577 461.942 279.419 459.713 283.643C457.484 287.867 449.795 298.271 449.795 298.271L434.384 286.865Z" fill="#FF4F78"/>
<path d="M383.12 309.383C378.849 308.333 369.547 305.214 365.821 314.996C366.759 316.791 370.198 312.357 371.674 311.948C374.019 311.295 376.032 312.529 377.806 314.224C380.349 316.655 384.604 314.443 384.604 314.443L383.12 309.383Z" fill="#E49963"/>
<path d="M379.806 320.74H339.666V315.354H385.185C385.185 316.781 384.618 318.149 383.61 319.159C382.601 320.169 381.233 320.737 379.806 320.74Z" fill="#FF4F78"/>
<path d="M319.033 286.9L339.668 320.739L344.431 318.234L321.29 279.613C320.663 279.943 320.107 280.393 319.654 280.938C319.201 281.483 318.86 282.112 318.65 282.788C318.44 283.465 318.366 284.177 318.432 284.882C318.498 285.588 318.702 286.273 319.033 286.9Z" fill="#FF4F78"/>
<path d="M455.974 251.112C454.024 259.262 447.252 264.625 440.851 263.094C434.45 261.563 430.85 253.712 432.796 245.561C434.741 237.41 441.518 232.047 447.909 233.588C454.3 235.129 457.927 242.963 455.974 251.112Z" fill="#E49963"/>
<path d="M452.874 255.402L442.237 261.996C442.237 261.996 441.284 266.696 440.822 268.22C439.848 271.368 443.575 272.745 446.723 270.785C449.871 268.825 450.674 266.204 450.674 266.204L452.874 255.402Z" fill="#E49963"/>
<path d="M432.062 242.444C435.086 242.706 441.634 242.18 444.023 239.349C445.725 245.099 452.962 250.571 458.951 253.138C459.189 247.238 459.146 236.386 448.571 231.876C440.263 228.345 432.062 242.444 432.062 242.444Z" fill="#2E2D57"/>
<path d="M435.796 247.701C435.695 247.904 435.536 248.073 435.34 248.186C435.143 248.298 434.918 248.35 434.691 248.335C434.465 248.319 434.249 248.237 434.069 248.099C433.89 247.96 433.756 247.771 433.684 247.556C433.612 247.342 433.605 247.11 433.664 246.891C433.724 246.673 433.847 246.477 434.018 246.328C434.189 246.179 434.401 246.085 434.625 246.056C434.85 246.027 435.079 246.066 435.281 246.168C435.416 246.234 435.536 246.327 435.635 246.44C435.733 246.554 435.809 246.685 435.856 246.828C435.904 246.97 435.923 247.121 435.913 247.27C435.903 247.42 435.863 247.567 435.796 247.701Z" fill="black"/>
<path d="M444.785 249.918C444.675 250.137 444.502 250.317 444.29 250.438C444.077 250.559 443.834 250.614 443.59 250.596C443.346 250.579 443.113 250.489 442.919 250.339C442.726 250.19 442.582 249.986 442.504 249.754C442.427 249.522 442.42 249.272 442.484 249.036C442.548 248.8 442.681 248.589 442.865 248.428C443.049 248.267 443.277 248.165 443.519 248.133C443.762 248.102 444.008 248.143 444.227 248.251C444.374 248.324 444.504 248.425 444.611 248.548C444.718 248.671 444.8 248.814 444.852 248.969C444.904 249.124 444.925 249.287 444.913 249.45C444.901 249.613 444.858 249.772 444.785 249.918Z" fill="black"/>
<path d="M446.154 248.893C446.067 248.849 445.997 248.777 445.956 248.688C445.335 247.348 443.658 247.088 443.642 247.086C443.528 247.07 443.426 247.009 443.357 246.918C443.289 246.826 443.259 246.711 443.275 246.598C443.291 246.484 443.352 246.382 443.443 246.313C443.535 246.244 443.65 246.215 443.763 246.231C443.851 246.245 445.918 246.555 446.737 248.326C446.775 248.407 446.786 248.498 446.77 248.586C446.754 248.674 446.711 248.754 446.646 248.816C446.582 248.879 446.501 248.919 446.412 248.933C446.324 248.947 446.234 248.933 446.154 248.893Z" fill="#2E2D57"/>
<path d="M433.298 246.041C433.256 246.018 433.218 245.99 433.183 245.957C433.143 245.917 433.112 245.87 433.09 245.817C433.068 245.765 433.057 245.709 433.057 245.652C433.057 245.596 433.068 245.54 433.09 245.488C433.112 245.435 433.143 245.388 433.183 245.348C433.572 244.966 434.055 244.697 434.584 244.567C435.112 244.438 435.666 244.453 436.186 244.612C436.288 244.653 436.371 244.732 436.417 244.832C436.462 244.933 436.468 245.047 436.432 245.151C436.397 245.255 436.322 245.342 436.225 245.393C436.127 245.444 436.014 245.456 435.907 245.426C435.539 245.319 435.148 245.312 434.776 245.406C434.403 245.5 434.062 245.691 433.788 245.96C433.725 246.022 433.643 246.063 433.556 246.077C433.468 246.092 433.378 246.079 433.298 246.041Z" fill="#2E2D57"/>
<path d="M436.531 250.191C435.902 250.837 435.341 251.503 434.752 251.88C434.655 251.942 434.585 252.04 434.558 252.152C434.53 252.265 434.546 252.383 434.602 252.484C435.079 253.344 436.507 254.051 437.369 254.42C437.396 254.432 437.426 254.434 437.454 254.425C437.482 254.416 437.506 254.398 437.522 254.373C437.537 254.348 437.543 254.318 437.538 254.289C437.533 254.26 437.518 254.234 437.496 254.216C436.619 253.449 436.243 252.884 436.086 252.572C436.049 252.498 436.03 252.417 436.03 252.334C436.03 252.252 436.049 252.17 436.086 252.096C436.264 251.741 436.622 251.018 436.865 250.429C436.896 250.385 436.909 250.33 436.9 250.277C436.891 250.223 436.861 250.175 436.817 250.144C436.773 250.112 436.718 250.099 436.664 250.108C436.611 250.117 436.563 250.147 436.531 250.191Z" fill="#D68D5D"/>
<path d="M452.895 251.163C451.338 252.373 450.881 254.385 451.872 255.659C452.862 256.933 454.927 256.983 456.482 255.773C458.037 254.564 458.494 252.549 457.503 251.278C456.513 250.006 454.45 249.954 452.895 251.163Z" fill="#E49963"/>
<path d="M453.779 255.289C453.719 255.259 453.667 255.215 453.629 255.16C453.031 254.367 452.974 253.474 453.479 252.779C453.729 252.428 454.083 252.164 454.491 252.024C454.898 251.884 455.34 251.875 455.753 251.998C455.809 252.013 455.862 252.04 455.908 252.077C455.954 252.113 455.992 252.159 456.02 252.21C456.047 252.262 456.064 252.319 456.069 252.377C456.074 252.435 456.067 252.494 456.049 252.55C456.03 252.605 456.001 252.657 455.962 252.7C455.923 252.744 455.875 252.78 455.822 252.804C455.769 252.829 455.711 252.843 455.653 252.845C455.594 252.846 455.536 252.836 455.481 252.815C455.242 252.753 454.989 252.766 454.756 252.851C454.524 252.936 454.323 253.089 454.179 253.291C453.898 253.679 453.941 254.165 454.317 254.658C454.376 254.735 454.407 254.831 454.405 254.928C454.403 255.026 454.368 255.12 454.305 255.195C454.243 255.27 454.156 255.321 454.061 255.341C453.965 255.361 453.866 255.347 453.779 255.303V255.289Z" fill="#D68D5D"/>
<path d="M442.954 329.548C429.143 331.408 390.217 344.026 388.05 346.633C383.573 352.017 393.538 375.074 396.725 404.756H410.059C409.919 383.606 411.61 364.152 405.102 357.256C405.102 357.256 442.423 354.765 461.027 354.765C470.5 354.77 475.748 322.721 442.954 329.548Z" fill="url(#paint11_linear_254_466)"/>
<path d="M435.948 257.05C435.907 256.995 435.883 256.929 435.879 256.86C435.876 256.792 435.892 256.724 435.926 256.664C435.961 256.605 436.012 256.557 436.073 256.526C436.134 256.495 436.203 256.483 436.272 256.491C437.368 256.626 438.47 256.701 439.574 256.714C440.679 256.704 441.783 256.632 442.88 256.498C442.948 256.49 443.016 256.503 443.077 256.534C443.138 256.565 443.189 256.613 443.223 256.673C443.257 256.732 443.273 256.8 443.269 256.868C443.265 256.937 443.242 257.002 443.201 257.057C442.8 257.65 442.259 258.135 441.627 258.47C440.995 258.805 440.29 258.98 439.574 258.98C438.859 258.98 438.154 258.805 437.522 258.47C436.89 258.135 436.349 257.65 435.948 257.057V257.05Z" fill="white"/>
<path d="M170.932 306.763C168.296 308.518 169.027 318.076 170.02 318.562C183.724 320.228 206.869 308.882 206.869 308.882L207.777 303.803C207.777 303.803 188.446 307.041 170.932 306.763Z" fill="#E49963"/>
<path d="M140.819 290.191C145.732 298.025 167.163 318.282 170.496 318.594L173.332 307.11C173.332 307.11 154.066 282.697 150.685 278.802C144.827 272.041 132.797 277.416 140.819 290.191Z" fill="#E49963"/>
<path d="M152.539 248.331C153.128 240.309 150.808 233.223 144.415 229.615C137.931 225.957 129.811 229.544 129.811 229.544C129.811 229.544 122.936 227.098 116.714 233.961C110.492 240.823 115.197 246.862 112.649 251.865C111.139 254.83 103.465 255.437 105.448 265.093C106.02 267.879 109.368 269.751 112.204 269.939C117.188 270.265 121.826 268.338 123.846 270.265C130.513 276.613 145.253 274.313 147.317 268.51C147.958 266.71 161.226 270.193 159.902 257.933C159.224 251.718 152.013 255.492 152.539 248.331Z" fill="#2E2D57"/>
<path d="M140.381 274.26L129.847 272.314L125.896 277.57L134.292 294.781L146.639 284.302L140.381 274.26Z" fill="#E49963"/>
<path d="M154.035 315.763C153.856 312.486 159.148 299.04 156.361 292.27C154.333 286.824 150.944 277.682 146.794 276.158C144.834 275.444 142.822 274.937 140.381 274.253C140.381 274.253 141.757 281.114 138.89 281.345C133.366 281.788 129.842 272.308 129.842 272.308C126.865 272.022 113.207 276.511 113.214 277.632C113.247 286.417 120.384 299.232 122.717 308.729C123.634 318.985 120.057 331.26 120.043 332.427C120.043 332.427 142.012 338.601 155.047 331.431C155.314 330.443 154.285 320.285 154.035 315.763Z" fill="url(#paint12_linear_254_466)"/>
<path d="M123.348 321.896C123.348 321.896 118.498 334.134 117.317 341.834C116.136 349.535 122.808 354.481 122.808 354.481H178.321C178.321 354.481 184.274 344.844 182.553 338.189C180.831 331.533 176.904 330.476 176.904 330.476L123.348 321.896Z" fill="url(#paint13_linear_254_466)"/>
<path d="M179.069 330.136C171.982 329.136 151.415 337.125 142.636 354.482H167.162L179.069 330.136Z" fill="#D68D5D"/>
<path d="M171.294 336.522C172.246 335.44 173.077 334.258 173.773 332.995C175.84 329.352 180.826 328.735 183.641 331.84C193.88 343.118 215.68 368.83 220.55 372.031C221.924 372.936 229.939 377.55 237.559 376.638C237.559 376.638 241.321 378.067 238.814 381.055C237.525 382.594 218.161 384.182 218.161 384.182L216.651 378.496C205.379 370.161 191.346 370.752 179.447 355.5C172.889 347.102 171.294 336.522 171.294 336.522Z" fill="#D68D5D"/>
<path d="M222.076 387.461L229.867 392.519L230.939 391.243L224.619 385.349C228.208 382.515 236.525 384.873 236.525 384.873C239.249 383.113 244.559 377.408 245.098 374.35C243.352 372.176 237.544 376.646 237.544 376.646C237.756 377.615 235.923 380.97 234.463 381.542C228.117 382.911 221.793 381.108 216.635 378.489C216.644 378.496 212.332 385.032 222.076 387.461Z" fill="#F1A34F"/>
<path d="M171.18 338.054C170.485 338.24 169.86 338.626 169.383 339.164C168.905 339.702 168.597 340.369 168.496 341.081C167.941 345.017 165.074 352.987 168.953 361.338C178.478 381.833 184.093 395.34 185.091 400.628C182.605 405.286 192.52 418.011 192.668 418.84L199.812 416.606C199.812 416.606 195.716 410.515 194.242 408.129C190.732 402.45 190.158 395.48 189.587 390.077C187.151 367.012 191.339 352.454 174.652 338.919C173.656 338.121 172.401 337.723 171.18 338.054Z" fill="#E49963"/>
<path d="M181.536 410.385L182.25 419.648L183.917 419.726L184.772 411.125C189.201 412.264 192.363 420.31 192.363 420.31C195.414 421.407 203.172 422.169 205.936 420.75C206.606 418.045 199.529 416.138 199.529 416.138C198.888 416.895 195.109 417.469 193.766 416.657C188.832 412.442 186.146 406.32 185.103 400.629C185.091 400.629 177.564 401.162 181.536 410.385Z" fill="#F1A34F"/>
<path d="M137.719 265.658L129.166 264.377L129.847 272.316C129.847 272.316 131.485 275.914 133.383 276.157L140.381 274.252L137.719 265.658Z" fill="#E49963"/>
<path d="M121.25 254.179C123.46 263.399 131.121 269.471 138.364 267.735C145.608 265.999 149.689 257.12 147.482 247.897C145.275 238.675 137.612 232.605 130.368 234.339C123.124 236.072 119.043 244.956 121.25 254.179Z" fill="#E49963"/>
<path d="M144.086 250.32C144.201 250.549 144.38 250.74 144.603 250.867C144.825 250.994 145.08 251.053 145.336 251.035C145.592 251.017 145.836 250.924 146.039 250.767C146.242 250.61 146.393 250.397 146.475 250.154C146.556 249.911 146.563 249.649 146.496 249.402C146.428 249.155 146.289 248.933 146.096 248.765C145.902 248.597 145.663 248.49 145.409 248.458C145.155 248.425 144.897 248.469 144.667 248.584C144.36 248.737 144.127 249.006 144.018 249.331C143.909 249.657 143.933 250.012 144.086 250.32Z" fill="black"/>
<path d="M133.913 252.83C134.037 253.078 134.231 253.284 134.472 253.422C134.713 253.56 134.989 253.624 135.266 253.604C135.543 253.585 135.808 253.484 136.028 253.315C136.247 253.145 136.411 252.914 136.499 252.65C136.587 252.387 136.595 252.104 136.522 251.836C136.449 251.568 136.298 251.328 136.089 251.146C135.879 250.964 135.62 250.849 135.345 250.814C135.07 250.779 134.79 250.827 134.542 250.951C134.377 251.033 134.23 251.147 134.11 251.285C133.989 251.424 133.897 251.585 133.838 251.76C133.78 251.934 133.757 252.119 133.769 252.302C133.782 252.486 133.831 252.665 133.913 252.83Z" fill="black"/>
<path d="M132.363 251.669C132.464 251.618 132.543 251.534 132.587 251.431C133.302 249.914 135.188 249.619 135.207 249.616C135.335 249.598 135.45 249.529 135.528 249.426C135.606 249.322 135.639 249.192 135.621 249.064C135.603 248.936 135.534 248.82 135.431 248.742C135.327 248.664 135.197 248.631 135.068 248.649C134.968 248.664 132.628 249.016 131.701 251.031C131.651 251.122 131.631 251.228 131.647 251.331C131.662 251.435 131.711 251.53 131.786 251.603C131.861 251.676 131.958 251.722 132.062 251.735C132.166 251.747 132.271 251.725 132.361 251.671L132.363 251.669Z" fill="#2E2D57"/>
<path d="M146.922 248.443C146.97 248.419 147.014 248.387 147.053 248.35C147.144 248.258 147.195 248.134 147.195 248.005C147.195 247.875 147.144 247.751 147.053 247.659C146.614 247.228 146.066 246.923 145.468 246.776C144.87 246.63 144.244 246.647 143.655 246.826C143.533 246.868 143.432 246.957 143.375 247.073C143.318 247.19 143.309 247.324 143.351 247.446C143.393 247.569 143.482 247.67 143.599 247.727C143.715 247.784 143.849 247.792 143.972 247.75C144.386 247.631 144.824 247.623 145.242 247.729C145.66 247.834 146.043 248.048 146.351 248.35C146.422 248.426 146.517 248.476 146.621 248.493C146.724 248.51 146.83 248.492 146.922 248.443Z" fill="#2E2D57"/>
<path d="M143.253 253.133C143.967 253.864 144.589 254.619 145.265 255.038C145.375 255.11 145.454 255.22 145.485 255.348C145.516 255.475 145.498 255.61 145.434 255.724C144.886 256.696 143.291 257.496 142.305 257.912C142.289 257.922 142.272 257.928 142.254 257.931C142.236 257.933 142.218 257.932 142.2 257.928C142.182 257.924 142.166 257.916 142.151 257.905C142.136 257.894 142.124 257.88 142.115 257.865C142.105 257.849 142.099 257.832 142.096 257.814C142.094 257.796 142.095 257.777 142.099 257.76C142.103 257.742 142.111 257.725 142.122 257.711C142.133 257.696 142.147 257.684 142.162 257.674C143.153 256.805 143.577 256.165 143.755 255.815C143.799 255.729 143.822 255.634 143.822 255.537C143.822 255.441 143.799 255.346 143.755 255.26C143.55 254.857 143.148 254.041 142.874 253.355C142.868 253.308 142.876 253.261 142.897 253.219C142.917 253.177 142.95 253.142 142.99 253.119C143.031 253.095 143.077 253.084 143.124 253.086C143.17 253.089 143.215 253.105 143.253 253.133Z" fill="#D68D5D"/>
<path d="M124.737 254.238C126.496 255.607 127.015 257.886 125.894 259.326C124.772 260.767 122.439 260.824 120.679 259.455C118.919 258.086 118.4 255.807 119.522 254.366C120.643 252.926 122.977 252.876 124.737 254.238Z" fill="#E49963"/>
<path d="M123.734 258.905C123.802 258.871 123.861 258.822 123.908 258.762C124.581 257.862 124.646 256.857 124.077 256.06C123.792 255.663 123.392 255.366 122.93 255.207C122.469 255.049 121.97 255.038 121.503 255.176C121.442 255.196 121.385 255.228 121.337 255.27C121.288 255.311 121.249 255.362 121.22 255.42C121.191 255.477 121.174 255.539 121.169 255.603C121.164 255.667 121.172 255.731 121.192 255.792C121.212 255.852 121.244 255.909 121.285 255.957C121.327 256.006 121.378 256.046 121.435 256.075C121.492 256.103 121.555 256.121 121.619 256.125C121.682 256.13 121.747 256.122 121.807 256.102C122.078 256.032 122.363 256.044 122.627 256.138C122.89 256.232 123.119 256.403 123.284 256.629C123.6 257.069 123.546 257.619 123.127 258.176C123.043 258.261 122.993 258.373 122.988 258.492C122.983 258.61 123.022 258.727 123.098 258.818C123.174 258.909 123.281 258.969 123.399 258.985C123.516 259.001 123.636 258.972 123.734 258.905Z" fill="#D68D5D"/>
<path d="M135.255 260.495C135.209 260.434 135.182 260.361 135.177 260.285C135.172 260.209 135.19 260.133 135.228 260.067C135.266 260.001 135.323 259.948 135.391 259.914C135.459 259.88 135.536 259.867 135.612 259.876C138.041 260.203 140.503 260.203 142.932 259.876C143.007 259.867 143.084 259.88 143.152 259.914C143.22 259.948 143.277 260.001 143.315 260.067C143.353 260.133 143.371 260.209 143.366 260.285C143.362 260.361 143.335 260.434 143.289 260.495C142.66 261.343 141.362 262.638 139.272 262.638C137.181 262.638 135.874 261.338 135.255 260.495Z" fill="white"/>
<path d="M121.072 253.362C129.718 252.205 141.815 243.396 142.808 238.877C141.141 233.445 132.226 230.716 127.194 233.233C122.163 235.75 117.41 246.53 121.072 253.362Z" fill="#2E2D57"/>
<path d="M201.95 318.738C201.398 318.558 200.94 318.166 200.677 317.648C200.414 317.13 200.367 316.528 200.548 315.976L213.882 275.095C213.972 274.822 214.114 274.568 214.301 274.35C214.489 274.131 214.717 273.951 214.974 273.821C215.231 273.691 215.511 273.612 215.798 273.59C216.085 273.568 216.373 273.603 216.647 273.693C217.199 273.873 217.657 274.265 217.92 274.783C218.183 275.301 218.23 275.903 218.05 276.455L204.715 317.336C204.534 317.888 204.141 318.346 203.623 318.609C203.104 318.872 202.503 318.919 201.95 318.738Z" fill="white"/>
<path d="M209.039 304.088L211.759 295.754C211.759 295.754 214.114 300.545 211.759 305.093C209.404 309.641 207.158 309.856 207.158 309.856L209.039 304.088Z" fill="#E49963"/>
<path d="M205.155 301.86C204.467 300.244 202.848 296.198 204.467 296.217C206.086 296.236 206.35 298.198 206.35 298.198L205.155 301.86Z" fill="#E49963"/>
<path d="M71.4709 277.517C75.1428 273.814 72.7354 270.016 72.7354 270.016C74.7475 269.585 85.3725 285.68 89.954 295.907C97.9454 287.854 112.026 276.977 115.833 276.343C115.833 276.343 120.969 274.962 122.815 281.172C124.463 286.716 118.038 290.642 118.038 290.642C118.038 290.642 90.554 310.047 86.4893 308.321C80.1648 305.637 74.4403 282.544 71.4709 277.517Z" fill="#E49963"/>
<path d="M65.7346 277.059C67.9753 277.197 70.7495 276.088 71.6138 278.1L76.0405 275.94L76.3072 273.271C72.4973 267.177 63.2343 265.448 62.3152 265.367C59.9339 265.158 58.8243 264.912 58.6362 265.232C58.4481 265.551 57.867 267.672 61.327 268.089C65.6703 268.61 62.7867 272.082 53.9761 268.777C51.7711 267.948 47.6206 269.015 49.1208 270.634C50.7758 272.401 55.5287 276.449 65.7346 277.059Z" fill="#E49963"/>
<path d="M305.526 152.961C305.527 154.948 305.19 156.92 304.531 158.795C301.283 168.125 290.434 174.987 277.547 174.987C264.66 174.987 253.816 168.134 250.568 158.795C249.909 156.92 249.572 154.948 249.572 152.961H305.526Z" fill="url(#paint14_linear_254_466)"/>
<path d="M305.526 152.961C305.527 154.948 305.19 156.92 304.531 158.795H250.568C249.909 156.92 249.572 154.948 249.572 152.961H305.526Z" fill="url(#paint15_linear_254_466)"/>
<path d="M336.137 58.5782C336.137 26.2483 309.943 0.0334323 277.632 9.517e-05C245.757 -0.0570542 219.55 25.6316 218.969 57.5019C218.703 70.8668 223.036 83.9175 231.241 94.4704C241.243 107.348 246.788 123.121 246.788 139.423V139.711H308.31V139.425C308.31 123.097 313.898 107.324 323.897 94.4204C331.85 84.1666 336.156 71.5543 336.137 58.5782Z" fill="#ED9902"/>
<path d="M286.412 133.082C286.245 133.081 286.078 133.053 285.919 132.999C285.545 132.868 285.238 132.594 285.065 132.237C284.893 131.88 284.868 131.469 284.998 131.094C285.067 130.894 291.975 110.989 296.994 90.7205C305.895 54.7926 301.316 48.9514 298.933 48.1085C291.932 45.6296 286.355 49.2991 282.912 52.8114C281.859 53.8919 280.891 55.0509 280.014 56.2784C281.57 58.9856 282.899 61.8171 283.988 64.7437C287.084 73.0327 287.917 80.7741 286.196 85.4603C284.867 89.0703 282.045 90.899 278.247 90.6133C274.675 90.3442 272.042 88.2702 270.668 84.615C269.089 80.424 269.291 74.2614 271.225 67.7083C272.426 63.6289 274.197 59.7394 276.485 56.1546C274.42 52.8876 272.027 50.0754 269.432 48.1823C265.577 45.3724 261.955 45.2486 258.669 47.818C251.885 53.1233 251.623 69.0751 257.919 93.9494C262.769 113.128 269.889 130.858 269.96 131.035C270.108 131.404 270.103 131.817 269.946 132.182C269.789 132.548 269.493 132.836 269.123 132.984C268.754 133.131 268.341 133.126 267.976 132.969C267.61 132.812 267.322 132.516 267.174 132.147C267.101 131.968 259.914 114.073 255.011 94.7019C248.303 68.1988 248.908 51.6279 256.814 45.4486C261.157 42.053 266.26 42.1625 271.187 45.751C273.656 47.5513 276.094 50.2492 278.307 53.5472C279.071 52.553 279.894 51.6052 280.771 50.7088C286.503 44.8629 293.308 42.9341 299.933 45.2796C304.057 46.7416 305.75 52.2923 305.107 62.2529C304.631 69.599 302.878 79.4215 299.9 91.4515C294.844 111.854 287.896 131.873 287.827 132.073C287.725 132.367 287.534 132.623 287.281 132.804C287.027 132.985 286.724 133.082 286.412 133.082ZM278.19 59.0788C276.447 62.0562 275.073 65.2347 274.099 68.5441C272.373 74.3995 272.137 80.0097 273.47 83.5458C274.423 86.1009 276.068 87.432 278.471 87.613C280.95 87.7987 282.519 86.7819 283.383 84.4102C285.369 79.0191 282.96 67.9988 278.19 59.0788Z" fill="white"/>
<path d="M312.136 132.334H242.962C241.844 132.334 240.938 133.24 240.938 134.358V152.853C240.938 153.971 241.844 154.877 242.962 154.877H312.136C313.254 154.877 314.16 153.971 314.16 152.853V134.358C314.16 133.24 313.254 132.334 312.136 132.334Z" fill="url(#paint16_linear_254_466)"/>
<path d="M377.082 60.9858H357.925C356.615 60.9858 355.36 60.4658 354.434 59.54C353.508 58.6143 352.988 57.3587 352.988 56.0496C352.988 54.7404 353.508 53.4848 354.434 52.5591C355.36 51.6334 356.615 51.1133 357.925 51.1133H377.082C378.391 51.1133 379.647 51.6333 380.573 52.5589C381.499 53.4846 382.02 54.7402 382.02 56.0496C382.02 57.359 381.499 58.6145 380.573 59.5402C379.647 60.4658 378.391 60.9858 377.082 60.9858Z" fill="#ED9902"/>
<path d="M197.166 60.9858H178.014C176.705 60.9858 175.449 60.4658 174.523 59.54C173.598 58.6143 173.078 57.3587 173.078 56.0496C173.078 54.7404 173.598 53.4848 174.523 52.5591C175.449 51.6334 176.705 51.1133 178.014 51.1133H197.166C198.475 51.1133 199.731 51.6334 200.657 52.5591C201.582 53.4848 202.102 54.7404 202.102 56.0496C202.102 57.3587 201.582 58.6143 200.657 59.54C199.731 60.4658 198.475 60.9858 197.166 60.9858Z" fill="#ED9902"/>
<path d="M209.346 20.466L194.106 8.86471C193.068 8.07203 192.386 6.90014 192.21 5.60578C192.034 4.31141 192.379 3.00012 193.168 1.95917C193.56 1.44311 194.05 1.00945 194.61 0.682975C195.171 0.3565 195.79 0.143613 196.432 0.0564818C197.074 -0.0306495 197.728 0.00968339 198.355 0.175175C198.981 0.340667 199.569 0.628073 200.085 1.02096L215.325 12.6199C216.359 13.4127 217.038 14.5822 217.214 15.8735C217.39 17.1648 217.048 18.4732 216.263 19.5135C215.872 20.0304 215.382 20.4651 214.822 20.7927C214.263 21.1203 213.644 21.3345 213.002 21.423C212.359 21.5114 211.706 21.4724 211.079 21.3082C210.451 21.144 209.862 20.8579 209.346 20.466Z" fill="#ED9902"/>
<path d="M344.776 20.4662L360.016 8.86486C361.054 8.07256 361.737 6.90061 361.912 5.60605C362.088 4.3115 361.744 3.00004 360.954 1.95931C360.162 0.920532 358.99 0.238394 357.695 0.0625129C356.4 -0.113368 355.089 0.231369 354.048 1.02111L338.808 12.62C337.765 13.4117 337.078 14.5852 336.9 15.8828C336.721 17.1804 337.065 18.4958 337.856 19.5399C338.651 20.5794 339.827 21.2607 341.124 21.4344C342.422 21.6081 343.735 21.2598 344.776 20.4662Z" fill="#ED9902"/>
<path d="M209.346 97.7671L194.106 109.366C193.065 110.16 192.381 111.334 192.206 112.632C192.03 113.929 192.376 115.243 193.168 116.286C193.561 116.802 194.051 117.236 194.611 117.562C195.171 117.888 195.79 118.101 196.433 118.189C197.075 118.276 197.728 118.235 198.355 118.07C198.982 117.904 199.57 117.617 200.086 117.224L215.326 105.625C216.367 104.832 217.052 103.657 217.227 102.359C217.403 101.062 217.057 99.7474 216.264 98.7053C215.871 98.1892 215.381 97.7555 214.821 97.4291C214.261 97.1026 213.642 96.8897 212.999 96.8026C212.357 96.7154 211.704 96.7558 211.077 96.9213C210.45 97.0868 209.862 97.3742 209.346 97.7671Z" fill="#ED9902"/>
<path d="M344.776 97.7663L360.016 109.365C361.057 110.159 361.742 111.333 361.918 112.631C362.093 113.929 361.747 115.243 360.954 116.285C360.162 117.324 358.99 118.006 357.695 118.182C356.4 118.358 355.089 118.013 354.048 117.223L338.808 105.624C337.765 104.833 337.078 103.659 336.9 102.362C336.721 101.064 337.065 99.7486 337.856 98.7045C338.649 97.6627 339.824 96.9785 341.122 96.8026C342.419 96.6267 343.734 96.9733 344.776 97.7663Z" fill="#ED9902"/>
<path d="M290.255 300.092C290.255 300.092 285.85 291.781 284.088 282.964C282.554 275.432 282.628 266.436 282.814 261.628C282.824 261.391 282.91 261.164 283.059 260.979C283.209 260.795 283.413 260.663 283.643 260.604C283.872 260.544 284.115 260.56 284.335 260.649C284.555 260.738 284.74 260.895 284.864 261.097C287.636 265.621 292.651 274.739 293.777 282.971C294.583 288.65 295.102 294.367 295.332 300.099L290.255 300.092Z" fill="url(#paint17_linear_254_466)"/>
<path d="M294.863 300.092C294.863 300.092 297.799 289.932 301.03 283.152C303.378 278.225 308.724 272.325 311.47 269.47C311.582 269.352 311.729 269.274 311.89 269.247C312.05 269.22 312.215 269.246 312.359 269.32C312.504 269.395 312.62 269.514 312.691 269.66C312.762 269.807 312.784 269.972 312.753 270.132C312.039 273.889 310.422 281.295 307.753 286.355C304.052 293.384 297.887 300.092 297.887 300.092H294.863Z" fill="url(#paint18_linear_254_466)"/>
<path d="M279.759 291.078C279.665 290.896 279.627 290.69 279.651 290.487C279.675 290.283 279.759 290.092 279.893 289.937C280.027 289.781 280.204 289.67 280.401 289.616C280.599 289.562 280.808 289.569 281.002 289.635C283.231 290.387 285.286 291.578 287.046 293.138C290.332 296.124 290.941 299.527 290.941 299.527L289.813 299.908C289.813 299.908 283.69 298.791 279.759 291.078Z" fill="url(#paint19_linear_254_466)"/>
<path d="M302.75 267.318C302.733 267.087 302.645 266.867 302.499 266.687C302.353 266.508 302.155 266.377 301.932 266.314C301.709 266.251 301.472 266.258 301.253 266.334C301.035 266.41 300.844 266.552 300.709 266.739C298.416 269.93 294.565 276.221 293.306 283.929C291.729 293.552 293.565 300.098 293.565 300.098H294.863C294.863 300.098 299.644 291.049 301.509 284.899C303.269 279.105 303.042 271.414 302.75 267.318Z" fill="url(#paint20_linear_254_466)"/>
<path d="M297.892 300.09C297.892 300.09 300.642 290.932 310.051 287.443C310.173 287.398 310.306 287.39 310.434 287.42C310.561 287.449 310.677 287.515 310.767 287.609C310.858 287.703 310.919 287.821 310.944 287.95C310.968 288.078 310.955 288.211 310.905 288.331C309.665 291.358 306.129 298.587 300.157 300.088L297.892 300.09Z" fill="url(#paint21_linear_254_466)"/>
<path d="M306.226 298.541H284.445L287.241 320.855H303.433L306.226 298.541Z" fill="#5A328E"/>
<path d="M282.805 315.992V319.195H283.676C283.879 319.195 284.074 319.276 284.217 319.419C284.361 319.562 284.442 319.757 284.443 319.96V320.088C284.443 320.292 284.362 320.487 284.218 320.63C284.074 320.774 283.879 320.855 283.676 320.855H246.512C246.276 320.855 246.05 320.761 245.883 320.594C245.716 320.427 245.622 320.201 245.622 319.964V315.352C245.621 315.235 245.644 315.119 245.689 315.01C245.733 314.902 245.799 314.804 245.882 314.721C245.964 314.638 246.063 314.572 246.171 314.527C246.279 314.482 246.395 314.459 246.512 314.459H283.676C283.879 314.459 284.074 314.54 284.218 314.684C284.362 314.827 284.443 315.022 284.443 315.226C284.443 315.429 284.362 315.624 284.218 315.768C284.074 315.912 283.879 315.992 283.676 315.992H282.805Z" fill="#F1A34F"/>
<path d="M250.046 315.992H282.907V319.195H250.046C249.969 319.195 249.896 319.165 249.842 319.111C249.788 319.057 249.758 318.983 249.758 318.907V316.287C249.757 316.249 249.763 316.211 249.777 316.175C249.791 316.139 249.813 316.107 249.839 316.079C249.866 316.052 249.898 316.03 249.934 316.015C249.969 316 250.007 315.992 250.046 315.992Z" fill="white"/>
<path d="M242.335 309.07V312.614H241.457C241.243 312.625 241.043 312.721 240.9 312.88C240.757 313.039 240.682 313.248 240.692 313.461V313.604C240.682 313.818 240.757 314.027 240.9 314.186C241.043 314.345 241.243 314.44 241.457 314.452H278.628C278.875 314.436 279.107 314.324 279.273 314.14C279.44 313.956 279.527 313.714 279.518 313.466V308.361C279.527 308.113 279.44 307.871 279.273 307.687C279.107 307.503 278.875 307.391 278.628 307.375H241.457C241.243 307.387 241.043 307.482 240.9 307.641C240.757 307.8 240.682 308.009 240.692 308.223C240.682 308.436 240.757 308.645 240.9 308.804C241.043 308.963 241.243 309.059 241.457 309.07H242.335Z" fill="url(#paint22_linear_254_466)"/>
<path d="M275.061 312.627H242.224V309.084H275.061C275.145 309.084 275.227 309.117 275.286 309.177C275.346 309.237 275.38 309.318 275.38 309.403V312.31C275.379 312.394 275.345 312.475 275.286 312.534C275.226 312.594 275.145 312.627 275.061 312.627Z" fill="white"/>
<path d="M279.809 298.35H244.243C243.957 298.35 243.726 298.581 243.726 298.866V303.579C243.726 303.864 243.957 304.096 244.243 304.096H279.809C280.094 304.096 280.326 303.864 280.326 303.579V298.866C280.326 298.581 280.094 298.35 279.809 298.35Z" fill="#F1A34F"/>
<path d="M282.421 304.098H246.413C246.249 304.098 246.117 304.23 246.117 304.393V307.086C246.117 307.249 246.249 307.381 246.413 307.381H282.421C282.584 307.381 282.717 307.249 282.717 307.086V304.393C282.717 304.23 282.584 304.098 282.421 304.098Z" fill="#5A328E"/>
<defs>
<linearGradient id="paint0_linear_254_466" x1="223.679" y1="247.808" x2="272.67" y2="247.808" gradientUnits="userSpaceOnUse">
<stop stop-color="#A980F8"/>
<stop offset="1" stop-color="#8673E9"/>
</linearGradient>
<linearGradient id="paint1_linear_254_466" x1="366.959" y1="220.617" x2="386.152" y2="220.617" gradientUnits="userSpaceOnUse">
<stop stop-color="#A980F8"/>
<stop offset="1" stop-color="#8673E9"/>
</linearGradient>
<linearGradient id="paint2_linear_254_466" x1="350.136" y1="254.061" x2="398.499" y2="254.061" gradientUnits="userSpaceOnUse">
<stop stop-color="#A980F8"/>
<stop offset="1" stop-color="#8673E9"/>
</linearGradient>
<linearGradient id="paint3_linear_254_466" x1="178.047" y1="327.028" x2="411.907" y2="327.028" gradientUnits="userSpaceOnUse">
<stop stop-color="#A980F8"/>
<stop offset="1" stop-color="#8673E9"/>
</linearGradient>
<linearGradient id="paint4_linear_254_466" x1="265.078" y1="374.313" x2="327.331" y2="374.313" gradientUnits="userSpaceOnUse">
<stop stop-color="#A980F8"/>
<stop offset="1" stop-color="#8673E9"/>
</linearGradient>
<linearGradient id="paint5_linear_254_466" x1="262.621" y1="374.313" x2="324.873" y2="374.313" gradientUnits="userSpaceOnUse">
<stop stop-color="#A980F8"/>
<stop offset="1" stop-color="#8673E9"/>
</linearGradient>
<linearGradient id="paint6_linear_254_466" x1="400.956" y1="326.677" x2="458.544" y2="326.677" gradientUnits="userSpaceOnUse">
<stop stop-color="#A980F8"/>
<stop offset="1" stop-color="#8673E9"/>
</linearGradient>
<linearGradient id="paint7_linear_254_466" x1="451.89" y1="320.564" x2="480.684" y2="320.564" gradientUnits="userSpaceOnUse">
<stop stop-color="#A980F8"/>
<stop offset="1" stop-color="#8673E9"/>
</linearGradient>
<linearGradient id="paint8_linear_254_466" x1="128.682" y1="326.677" x2="186.27" y2="326.677" gradientUnits="userSpaceOnUse">
<stop stop-color="#A980F8"/>
<stop offset="1" stop-color="#8673E9"/>
</linearGradient>
<linearGradient id="paint9_linear_254_466" x1="106.542" y1="320.567" x2="135.335" y2="320.567" gradientUnits="userSpaceOnUse">
<stop stop-color="#A980F8"/>
<stop offset="1" stop-color="#8673E9"/>
</linearGradient>
<linearGradient id="paint10_linear_254_466" x1="368.423" y1="366.042" x2="453.052" y2="366.042" gradientUnits="userSpaceOnUse">
<stop stop-color="#8A3A77"/>
<stop offset="1" stop-color="#59275A"/>
</linearGradient>
<linearGradient id="paint11_linear_254_466" x1="386.912" y1="366.681" x2="468.218" y2="366.681" gradientUnits="userSpaceOnUse">
<stop stop-color="#8A3A77"/>
<stop offset="1" stop-color="#59275A"/>
</linearGradient>
<linearGradient id="paint12_linear_254_466" x1="113.218" y1="303.607" x2="157.173" y2="303.607" gradientUnits="userSpaceOnUse">
<stop stop-color="#8A3A77"/>
<stop offset="1" stop-color="#59275A"/>
</linearGradient>
<linearGradient id="paint13_linear_254_466" x1="117.181" y1="338.189" x2="182.862" y2="338.189" gradientUnits="userSpaceOnUse">
<stop stop-color="#8A3A77"/>
<stop offset="1" stop-color="#59275A"/>
</linearGradient>
<linearGradient id="paint14_linear_254_466" x1="249.572" y1="163.969" x2="305.526" y2="163.969" gradientUnits="userSpaceOnUse">
<stop stop-color="#8A3A77"/>
<stop offset="1" stop-color="#59275A"/>
</linearGradient>
<linearGradient id="paint15_linear_254_466" x1="249.572" y1="155.878" x2="305.526" y2="155.878" gradientUnits="userSpaceOnUse">
<stop stop-color="#8A3A77"/>
<stop offset="1" stop-color="#59275A"/>
</linearGradient>
<linearGradient id="paint16_linear_254_466" x1="240.938" y1="143.604" x2="314.16" y2="143.604" gradientUnits="userSpaceOnUse">
<stop stop-color="#8A3A77"/>
<stop offset="1" stop-color="#59275A"/>
</linearGradient>
<linearGradient id="paint17_linear_254_466" x1="282.716" y1="280.332" x2="295.332" y2="280.332" gradientUnits="userSpaceOnUse">
<stop stop-color="#8A3A77"/>
<stop offset="1" stop-color="#59275A"/>
</linearGradient>
<linearGradient id="paint18_linear_254_466" x1="294.863" y1="284.664" x2="312.767" y2="284.664" gradientUnits="userSpaceOnUse">
<stop stop-color="#8A3A77"/>
<stop offset="1" stop-color="#59275A"/>
</linearGradient>
<linearGradient id="paint19_linear_254_466" x1="279.642" y1="294.743" x2="290.941" y2="294.743" gradientUnits="userSpaceOnUse">
<stop stop-color="#8A3A77"/>
<stop offset="1" stop-color="#59275A"/>
</linearGradient>
<linearGradient id="paint20_linear_254_466" x1="292.667" y1="283.184" x2="302.95" y2="283.184" gradientUnits="userSpaceOnUse">
<stop stop-color="#8A3A77"/>
<stop offset="1" stop-color="#59275A"/>
</linearGradient>
<linearGradient id="paint21_linear_254_466" x1="297.894" y1="293.746" x2="310.96" y2="293.746" gradientUnits="userSpaceOnUse">
<stop stop-color="#8A3A77"/>
<stop offset="1" stop-color="#59275A"/>
</linearGradient>
<linearGradient id="paint22_linear_254_466" x1="240.697" y1="310.921" x2="279.518" y2="310.921" gradientUnits="userSpaceOnUse">
<stop stop-color="#8A3A77"/>
<stop offset="1" stop-color="#59275A"/>
</linearGradient>
</defs>
</svg>
