<svg width="183" height="54" viewBox="0 0 183 54" fill="none" xmlns="http://www.w3.org/2000/svg">
<mask id="mask0_254_242" style="mask-type:alpha" maskUnits="userSpaceOnUse" x="0" y="0" width="181" height="54">
<path d="M27.2053 0C42.2588 0 54.4105 12.06 54.4105 27C54.4105 41.9399 42.2588 54 27.2053 54C12.1517 54 0 41.9399 0 27C0 12.06 12.1517 0 27.2053 0ZM27.2053 7.20001C16.1418 7.20001 7.25473 16.02 7.25473 27C7.25473 37.9801 16.1418 46.7999 27.2053 46.7999C38.2687 46.7999 47.1557 37.9801 47.1557 27C47.1557 16.02 38.2687 7.20001 27.2053 7.20001ZM73.4542 10.62C73.8169 10.44 74.1796 10.8 74.1796 10.98V18.7199H88.6891C88.8704 18.7199 89.2332 19.0801 89.2332 19.2599L90.3213 23.76L91.4096 28.2601L91.5909 28.8001L91.7723 28.2601L94.4929 19.2599C94.4929 18.9 94.8556 18.7199 95.037 18.7199H102.292C102.473 18.7199 102.836 19.0801 102.836 19.2599L105.738 28.8001L105.919 28.2601L108.277 19.2599C108.277 18.9 108.639 18.7199 108.821 18.7199H127.32C127.502 18.7199 127.683 19.0801 127.683 19.2599V43.2C127.683 43.5599 127.32 43.74 127.139 43.74H117.889C117.527 43.74 117.345 43.3801 117.345 43.2L117.344 20.52L110.453 43.2C110.453 43.5151 110.176 43.6922 109.985 43.7316L109.909 43.74H102.292C102.11 43.74 101.748 43.3801 101.748 43.2L100.297 38.34L98.6644 33.1201L95.3997 43.2C95.3997 43.5599 95.037 43.74 94.8556 43.74H87.2381C87.0567 43.74 86.694 43.3801 86.694 43.2L79.8021 20.52V26.2799C79.8021 26.6401 79.4392 26.8199 79.2579 26.8199H73.9981V32.94C73.9981 34.7401 74.905 35.4599 76.5374 35.4599C77.2628 35.4599 78.1697 35.2801 79.0765 34.9199C79.2579 34.7401 79.6206 34.9199 79.6206 35.2801V42.4799C77.9884 43.3801 75.6306 43.9201 73.0915 43.9201C67.1063 43.9201 63.8416 41.2201 63.8416 35.2801V26.8199H61.4838C61.1211 26.8199 60.9398 26.46 60.9398 26.2799V19.44C60.9398 19.0801 61.3025 18.9 61.4838 18.9H63.8416V14.04C63.8416 13.68 64.023 13.5 64.3857 13.5L73.4542 10.62ZM167.04 18.1799C175.02 18.1799 180.824 24.1199 180.824 30.9601C180.824 37.8 175.02 43.74 166.859 43.74C158.879 43.74 153.075 37.8 153.075 30.9601C153.075 24.1199 158.879 18.1799 167.04 18.1799ZM139.472 10.62C139.835 10.62 140.016 10.8 140.016 10.98V43.0199C140.016 43.3801 139.653 43.5599 139.472 43.5599H130.222C129.86 43.5599 129.678 43.2 129.678 43.0199V11.16C129.678 10.8 130.041 10.62 130.222 10.62H139.472ZM151.624 18.7199C151.987 18.7199 152.168 19.0801 152.168 19.2599V42.8401C152.168 43.2 151.805 43.3801 151.624 43.3801H142.374C142.011 43.3801 141.83 43.0199 141.83 42.8401V19.2599C141.83 18.9 142.193 18.7199 142.374 18.7199H151.624ZM20.4945 28.08C23.5779 28.08 26.117 30.5999 26.117 33.6601C26.117 36.72 23.5779 39.2399 20.4945 39.2399C17.4113 39.2399 14.8722 36.72 14.8722 33.6601C14.8722 30.5999 17.4113 28.08 20.4945 28.08ZM33.9159 28.08C36.9992 28.08 39.5382 30.5999 39.5382 33.6601C39.5382 36.72 36.9992 39.2399 33.9159 39.2399C30.8325 39.2399 28.2934 36.72 28.2934 33.6601C28.2934 30.5999 30.8325 28.08 33.9159 28.08ZM167.04 26.8199C164.682 26.8199 163.05 28.8001 163.05 31.1399C163.05 33.48 164.864 35.4599 167.04 35.4599C169.398 35.4599 171.031 33.48 171.031 31.1399C171.031 28.62 169.217 26.6401 167.04 26.8199ZM33.9159 14.76C36.9992 14.76 39.5382 17.28 39.5382 20.3399C39.5382 23.4001 36.9992 25.92 33.9159 25.92C30.8325 25.92 28.2934 23.4001 28.2934 20.3399C28.2934 17.28 30.8325 14.76 33.9159 14.76ZM20.4945 14.76C23.5779 14.76 26.117 17.28 26.117 20.3399C26.117 23.4001 23.5779 25.92 20.4945 25.92C17.4113 25.92 14.8722 23.4001 14.8722 20.3399C14.8722 17.28 17.4113 14.76 20.4945 14.76ZM127.502 10.62C127.683 10.62 127.865 10.8 128.046 10.98V16.74C128.046 17.0999 127.683 17.28 127.502 17.28H117.889C117.527 17.28 117.345 16.9201 117.345 16.74V11.16C117.345 10.8 117.708 10.62 117.889 10.62H127.502ZM151.805 10.62C152.168 10.62 152.349 10.8 152.349 10.98V16.74C152.349 17.0999 151.987 17.28 151.805 17.28H142.193C141.83 17.28 141.649 16.9201 141.649 16.74V11.16C141.649 10.8 142.011 10.62 142.193 10.62H151.805Z" fill="white"/>
</mask>
<g mask="url(#mask0_254_242)">
<path d="M27.2053 0C42.2588 0 54.4105 12.06 54.4105 27C54.4105 41.9399 42.2588 54 27.2053 54C12.1517 54 0 41.9399 0 27C0 12.06 12.1517 0 27.2053 0ZM27.2053 7.20001C16.1418 7.20001 7.25473 16.02 7.25473 27C7.25473 37.9801 16.1418 46.7999 27.2053 46.7999C38.2687 46.7999 47.1557 37.9801 47.1557 27C47.1557 16.02 38.2687 7.20001 27.2053 7.20001ZM73.4542 10.62C73.8169 10.44 74.1796 10.8 74.1796 10.98V18.7199H88.6891C88.8704 18.7199 89.2332 19.0801 89.2332 19.2599L90.3213 23.76L91.4096 28.2601L91.5909 28.8001L91.7723 28.2601L94.4929 19.2599C94.4929 18.9 94.8556 18.7199 95.037 18.7199H102.292C102.473 18.7199 102.836 19.0801 102.836 19.2599L105.738 28.8001L105.919 28.2601L108.277 19.2599C108.277 18.9 108.639 18.7199 108.821 18.7199H127.32C127.502 18.7199 127.683 19.0801 127.683 19.2599V43.2C127.683 43.5599 127.32 43.74 127.139 43.74H117.889C117.527 43.74 117.345 43.3801 117.345 43.2L117.344 20.52L110.453 43.2C110.453 43.5151 110.176 43.6922 109.985 43.7316L109.909 43.74H102.292C102.11 43.74 101.748 43.3801 101.748 43.2L100.297 38.34L98.6644 33.1201L95.3997 43.2C95.3997 43.5599 95.037 43.74 94.8556 43.74H87.2381C87.0567 43.74 86.694 43.3801 86.694 43.2L79.8021 20.52V26.2799C79.8021 26.6401 79.4392 26.8199 79.2579 26.8199H73.9981V32.94C73.9981 34.7401 74.905 35.4599 76.5374 35.4599C77.2628 35.4599 78.1697 35.2801 79.0765 34.9199C79.2579 34.7401 79.6206 34.9199 79.6206 35.2801V42.4799C77.9884 43.3801 75.6306 43.9201 73.0915 43.9201C67.1063 43.9201 63.8416 41.2201 63.8416 35.2801V26.8199H61.4838C61.1211 26.8199 60.9398 26.46 60.9398 26.2799V19.44C60.9398 19.0801 61.3025 18.9 61.4838 18.9H63.8416V14.04C63.8416 13.68 64.023 13.5 64.3857 13.5L73.4542 10.62ZM167.04 18.1799C175.02 18.1799 180.824 24.1199 180.824 30.9601C180.824 37.8 175.02 43.74 166.859 43.74C158.879 43.74 153.075 37.8 153.075 30.9601C153.075 24.1199 158.879 18.1799 167.04 18.1799ZM139.472 10.62C139.835 10.62 140.016 10.8 140.016 10.98V43.0199C140.016 43.3801 139.653 43.5599 139.472 43.5599H130.222C129.86 43.5599 129.678 43.2 129.678 43.0199V11.16C129.678 10.8 130.041 10.62 130.222 10.62H139.472ZM151.624 18.7199C151.987 18.7199 152.168 19.0801 152.168 19.2599V42.8401C152.168 43.2 151.805 43.3801 151.624 43.3801H142.374C142.011 43.3801 141.83 43.0199 141.83 42.8401V19.2599C141.83 18.9 142.193 18.7199 142.374 18.7199H151.624ZM20.4945 28.08C23.5779 28.08 26.117 30.5999 26.117 33.6601C26.117 36.72 23.5779 39.2399 20.4945 39.2399C17.4113 39.2399 14.8722 36.72 14.8722 33.6601C14.8722 30.5999 17.4113 28.08 20.4945 28.08ZM33.9159 28.08C36.9992 28.08 39.5382 30.5999 39.5382 33.6601C39.5382 36.72 36.9992 39.2399 33.9159 39.2399C30.8325 39.2399 28.2934 36.72 28.2934 33.6601C28.2934 30.5999 30.8325 28.08 33.9159 28.08ZM167.04 26.8199C164.682 26.8199 163.05 28.8001 163.05 31.1399C163.05 33.48 164.864 35.4599 167.04 35.4599C169.398 35.4599 171.031 33.48 171.031 31.1399C171.031 28.62 169.217 26.6401 167.04 26.8199ZM33.9159 14.76C36.9992 14.76 39.5382 17.28 39.5382 20.3399C39.5382 23.4001 36.9992 25.92 33.9159 25.92C30.8325 25.92 28.2934 23.4001 28.2934 20.3399C28.2934 17.28 30.8325 14.76 33.9159 14.76ZM20.4945 14.76C23.5779 14.76 26.117 17.28 26.117 20.3399C26.117 23.4001 23.5779 25.92 20.4945 25.92C17.4113 25.92 14.8722 23.4001 14.8722 20.3399C14.8722 17.28 17.4113 14.76 20.4945 14.76ZM127.502 10.62C127.683 10.62 127.865 10.8 128.046 10.98V16.74C128.046 17.0999 127.683 17.28 127.502 17.28H117.889C117.527 17.28 117.345 16.9201 117.345 16.74V11.16C117.345 10.8 117.708 10.62 117.889 10.62H127.502ZM151.805 10.62C152.168 10.62 152.349 10.8 152.349 10.98V16.74C152.349 17.0999 151.987 17.28 151.805 17.28H142.193C141.83 17.28 141.649 16.9201 141.649 16.74V11.16C141.649 10.8 142.011 10.62 142.193 10.62H151.805Z" fill="#F22F46"/>
</g>
</svg>
