<svg width="1983" height="1217" viewBox="0 0 1983 1217" fill="none" xmlns="http://www.w3.org/2000/svg">
<path opacity="0.25" d="M271.7 1205.48C132.46 1078.38 -57.8401 947.14 16.7799 748.88C65.8599 618.49 186.21 582.14 286.24 501.73C335.61 462.05 304.56 404.29 303.64 346.96C301.55 200.15 497 86.2299 676.65 88.6099C871.26 91.1799 955.5 255.21 1118.75 264.01C1182.86 264.83 1240.26 233.29 1296.97 208.24C1465 134 1731.69 181.35 1745.17 360.87C1748.65 457.87 1617.02 613.81 1748.9 664.8C1854 705.44 1960.18 720.41 1979.12 865.8C2003.91 1056.05 1872.85 1160.47 1702.06 1209.43L271.7 1205.48Z" fill="#EBF3FA"/>
<path d="M304.12 482H466.57C476.224 482 485.482 485.835 492.308 492.661C499.135 499.488 502.97 508.746 502.97 518.4V594.1C502.97 603.754 499.135 613.012 492.308 619.839C485.482 626.665 476.224 630.5 466.57 630.5H465.36L478.36 674.18C478.486 674.599 478.476 675.047 478.331 675.46C478.186 675.873 477.914 676.23 477.555 676.479C477.195 676.727 476.765 676.856 476.328 676.845C475.89 676.835 475.467 676.686 475.12 676.42L415 630.5H304.12C294.466 630.5 285.207 626.665 278.381 619.839C271.555 613.012 267.72 603.754 267.72 594.1V518.37C267.728 508.721 271.566 499.471 278.392 492.651C285.217 485.831 294.471 482 304.12 482Z" fill="white"/>
<path d="M466.49 545.55H310.49C305.716 545.55 301.138 543.653 297.762 540.278C294.387 536.902 292.49 532.324 292.49 527.55C292.49 522.776 294.387 518.198 297.762 514.822C301.138 511.446 305.716 509.55 310.49 509.55H466.49C471.264 509.55 475.843 511.446 479.218 514.822C482.594 518.198 484.49 522.776 484.49 527.55C484.49 532.324 482.594 536.902 479.218 540.278C475.843 543.653 471.264 545.55 466.49 545.55Z" fill="#DDE8FD"/>
<path d="M466.49 600.59H310.49C305.716 600.59 301.138 598.693 297.762 595.318C294.387 591.942 292.49 587.364 292.49 582.59C292.49 577.816 294.387 573.238 297.762 569.862C301.138 566.486 305.716 564.59 310.49 564.59H466.49C471.264 564.59 475.843 566.486 479.218 569.862C482.594 573.238 484.49 577.816 484.49 582.59C484.49 587.364 482.594 591.942 479.218 595.318C475.843 598.693 471.264 600.59 466.49 600.59Z" fill="#DDE8FD"/>
<path d="M1298.23 277.57H1121.08C1115.87 277.569 1110.7 278.594 1105.88 280.589C1101.07 282.583 1096.69 285.508 1093 289.194C1089.31 292.881 1086.39 297.258 1084.39 302.075C1082.4 306.892 1081.37 312.055 1081.37 317.27V399.85C1081.37 410.382 1085.55 420.482 1093 427.929C1100.45 435.376 1110.55 439.56 1121.08 439.56H1122.39L1108.17 487.19C1108.03 487.647 1108.05 488.136 1108.2 488.587C1108.36 489.037 1108.66 489.425 1109.05 489.696C1109.45 489.967 1109.92 490.107 1110.39 490.095C1110.87 490.083 1111.33 489.92 1111.71 489.63L1177.34 439.56H1298.23C1303.44 439.56 1308.61 438.533 1313.42 436.537C1318.24 434.541 1322.62 431.616 1326.31 427.928C1329.99 424.241 1332.92 419.863 1334.91 415.045C1336.91 410.228 1337.93 405.064 1337.93 399.85V317.27C1337.93 312.056 1336.91 306.893 1334.91 302.076C1332.92 297.259 1329.99 292.881 1326.31 289.195C1322.62 285.508 1318.24 282.584 1313.42 280.589C1308.61 278.594 1303.44 277.569 1298.23 277.57Z" fill="white"/>
<path d="M1295.32 311.32H1119.78C1110.15 311.32 1102.35 319.123 1102.35 328.75V329.93C1102.35 339.556 1110.15 347.36 1119.78 347.36H1295.32C1304.95 347.36 1312.75 339.556 1312.75 329.93V328.75C1312.75 319.123 1304.95 311.32 1295.32 311.32Z" fill="#DDE8FD"/>
<path d="M1210.25 365.81H1125.55C1115.92 365.81 1108.12 373.614 1108.12 383.24V384.42C1108.12 394.046 1115.92 401.85 1125.55 401.85H1210.25C1219.88 401.85 1227.68 394.046 1227.68 384.42V383.24C1227.68 373.614 1219.88 365.81 1210.25 365.81Z" fill="#DDE8FD"/>
<path d="M116 889.44C122.72 884.367 130.776 881.83 140.17 881.83C160.47 881.83 171.17 892.83 171.17 908.39C171.17 917.39 166.85 926.45 158.04 935.55C146.85 947.34 138.79 953.16 133.72 953.16C132.598 953.173 131.486 952.963 130.447 952.54C129.409 952.117 128.465 951.49 127.672 950.697C126.879 949.905 126.253 948.961 125.83 947.922C125.407 946.884 125.196 945.771 125.21 944.65C125.21 940.48 129.09 936.3 135.81 930.18C136.163 929.798 136.563 929.462 137 929.18C144.61 922.18 147 918.29 147 913.52C147 907.52 143 904.26 137.15 904.26C133.894 904.368 130.674 904.972 127.6 906.05C125.007 907.012 122.295 907.618 119.54 907.85C117.081 907.769 114.754 906.718 113.067 904.927C111.381 903.135 110.472 900.749 110.54 898.29C110.67 895.11 112.46 892.13 116 889.44ZM136.48 989C134.466 989.055 132.462 988.699 130.591 987.954C128.719 987.208 127.019 986.089 125.595 984.665C124.17 983.24 123.051 981.541 122.306 979.669C121.56 977.798 121.205 975.794 121.26 973.78C121.26 966.62 127.38 959.78 136.48 959.78C140.169 959.857 143.685 961.356 146.294 963.965C148.903 966.574 150.403 970.091 150.48 973.78C150.51 982 144.69 989 136.48 989Z" fill="white"/>
<path d="M1335.14 554.59C1339.73 551.197 1345.33 549.437 1351.04 549.59C1364.39 549.59 1371.45 556.86 1371.45 567.06C1371.45 572.95 1368.61 578.94 1362.82 584.92C1355.46 592.68 1350.15 596.5 1346.82 596.5C1346.08 596.51 1345.35 596.371 1344.67 596.094C1343.99 595.816 1343.37 595.405 1342.85 594.884C1342.32 594.363 1341.91 593.743 1341.64 593.061C1341.36 592.378 1341.22 591.647 1341.23 590.91C1341.23 588.16 1343.78 585.41 1348.23 581.39C1348.47 581.131 1348.73 580.9 1349.02 580.7C1354.02 576.09 1355.59 573.54 1355.59 570.4C1355.59 566.47 1352.94 564.32 1349.12 564.32C1346.98 564.389 1344.86 564.784 1342.84 565.49C1341.13 566.123 1339.35 566.52 1337.54 566.67C1335.93 566.61 1334.41 565.917 1333.3 564.741C1332.2 563.565 1331.61 562.002 1331.65 560.39C1331.61 558.32 1332.79 556.36 1335.14 554.59ZM1348.59 620.05C1347.27 620.085 1345.95 619.849 1344.72 619.359C1343.49 618.869 1342.38 618.133 1341.44 617.198C1340.51 616.262 1339.77 615.146 1339.28 613.917C1338.79 612.689 1338.56 611.373 1338.59 610.05C1338.59 605.34 1342.59 600.82 1348.59 600.82C1351.02 600.869 1353.34 601.857 1355.06 603.578C1356.78 605.299 1357.76 607.618 1357.81 610.05C1357.81 615.43 1354 620.05 1348.59 620.05Z" fill="white"/>
<path d="M1648.22 581H1461.9C1460.31 581 1458.78 580.368 1457.66 579.242C1456.53 578.117 1455.9 576.591 1455.9 575V414.69C1456.06 413.219 1456.76 411.859 1457.86 410.871C1458.96 409.883 1460.39 409.337 1461.87 409.337C1463.34 409.337 1464.77 409.883 1465.87 410.871C1466.97 411.859 1467.67 413.219 1467.83 414.69V569.11H1648.19C1649.66 569.269 1651.02 569.967 1652.01 571.067C1653 572.168 1653.54 573.596 1653.54 575.075C1653.54 576.554 1653 577.981 1652.01 579.082C1651.02 580.183 1649.66 580.88 1648.19 581.04L1648.22 581Z" fill="white"/>
<path d="M1476 541.83C1474.84 541.812 1473.7 541.457 1472.74 540.807C1471.77 540.157 1471.02 539.241 1470.57 538.17C1470.11 537.098 1469.98 535.918 1470.18 534.773C1470.39 533.628 1470.92 532.567 1471.72 531.72L1531.93 469.43C1532.9 468.44 1534.17 467.813 1535.55 467.656C1536.92 467.5 1538.31 467.822 1539.47 468.57L1567.94 487L1597.94 452.11C1598.41 451.396 1599.03 450.791 1599.75 450.334C1600.47 449.877 1601.28 449.58 1602.13 449.463C1602.97 449.345 1603.83 449.409 1604.65 449.651C1605.47 449.893 1606.23 450.307 1606.88 450.866C1607.52 451.425 1608.04 452.115 1608.4 452.891C1608.76 453.666 1608.95 454.51 1608.95 455.364C1608.96 456.218 1608.78 457.064 1608.44 457.845C1608.09 458.625 1607.58 459.322 1606.94 459.89L1573.52 498.73C1572.58 499.819 1571.27 500.531 1569.84 500.737C1568.42 500.943 1566.96 500.628 1565.75 499.85L1537.03 481.21L1480.29 540C1479.73 540.576 1479.07 541.035 1478.33 541.349C1477.59 541.663 1476.8 541.827 1476 541.83Z" fill="white"/>
<path d="M1607.14 477.73L1598.65 460.51L1580.36 454.68L1621.07 434.45L1607.14 477.73Z" fill="white"/>
<path d="M376.94 335.67C369.798 335.678 362.814 333.567 356.872 329.605C350.93 325.643 346.296 320.007 343.558 313.411C340.82 306.814 340.1 299.554 341.489 292.548C342.879 285.543 346.315 279.107 351.363 274.054C356.411 269.002 362.844 265.561 369.848 264.166C376.853 262.771 384.114 263.485 390.712 266.217C397.311 268.95 402.951 273.578 406.918 279.517C410.885 285.456 413.002 292.438 413 299.58C412.989 309.143 409.188 318.312 402.428 325.077C395.669 331.842 386.503 335.652 376.94 335.67ZM376.94 273.42C371.765 273.418 366.707 274.951 362.403 277.824C358.1 280.697 354.746 284.782 352.764 289.562C350.782 294.342 350.263 299.602 351.271 304.678C352.28 309.753 354.77 314.415 358.428 318.075C362.087 321.734 366.748 324.227 371.823 325.237C376.897 326.247 382.158 325.73 386.939 323.75C391.719 321.77 395.805 318.417 398.68 314.115C401.555 309.813 403.09 304.755 403.09 299.58C403.082 292.646 400.325 285.999 395.423 281.095C390.52 276.191 383.874 273.431 376.94 273.42Z" fill="white"/>
<path d="M1478.05 622.93C1472.82 622.932 1467.71 621.383 1463.36 618.479C1459.01 615.575 1455.62 611.446 1453.62 606.615C1451.61 601.784 1451.09 596.467 1452.11 591.338C1453.13 586.208 1455.64 581.496 1459.34 577.797C1463.04 574.099 1467.75 571.58 1472.88 570.559C1478.01 569.538 1483.32 570.061 1488.16 572.061C1492.99 574.062 1497.12 577.451 1500.02 581.799C1502.93 586.148 1504.48 591.26 1504.48 596.49C1504.47 603.498 1501.68 610.217 1496.73 615.173C1491.78 620.13 1485.06 622.919 1478.05 622.93ZM1478.05 577.34C1474.26 577.338 1470.55 578.46 1467.4 580.565C1464.25 582.669 1461.79 585.662 1460.34 589.163C1458.89 592.664 1458.51 596.518 1459.25 600.235C1459.99 603.953 1461.81 607.368 1464.49 610.048C1467.17 612.728 1470.59 614.553 1474.3 615.292C1478.02 616.031 1481.88 615.651 1485.38 614.199C1488.88 612.748 1491.87 610.291 1493.97 607.138C1496.08 603.986 1497.2 600.28 1497.2 596.49C1497.19 591.413 1495.18 586.545 1491.58 582.955C1487.99 579.364 1483.13 577.345 1478.05 577.34Z" fill="#DDE8FD"/>
<path d="M90.2 767.85C85.5046 767.85 80.9148 766.458 77.0107 763.849C73.1067 761.241 70.0639 757.533 68.2671 753.195C66.4702 748.857 66.0001 744.084 66.9161 739.479C67.8321 734.874 70.0932 730.644 73.4133 727.323C76.7334 724.003 80.9634 721.742 85.5685 720.826C90.1736 719.91 94.947 720.38 99.2849 722.177C103.623 723.974 107.33 727.017 109.939 730.921C112.548 734.825 113.94 739.415 113.94 744.11C113.932 750.404 111.428 756.438 106.978 760.888C102.528 765.338 96.4938 767.842 90.2 767.85ZM90.2 726.91C86.7981 726.91 83.4727 727.919 80.6442 729.809C77.8156 731.699 75.6111 734.385 74.3092 737.528C73.0074 740.671 72.6668 744.129 73.3305 747.466C73.9941 750.802 75.6323 753.867 78.0377 756.272C80.4432 758.678 83.5079 760.316 86.8444 760.98C90.1809 761.643 93.6392 761.303 96.7821 760.001C99.925 758.699 102.611 756.494 104.501 753.666C106.391 750.837 107.4 747.512 107.4 744.11C107.395 739.55 105.581 735.178 102.356 731.954C99.1319 728.729 94.7601 726.915 90.2 726.91Z" fill="white"/>
<path d="M1362.62 230.39C1362.62 232.946 1361.87 235.446 1360.45 237.572C1359.03 239.698 1357.01 241.355 1354.65 242.335C1352.29 243.314 1349.69 243.57 1347.18 243.072C1344.67 242.574 1342.37 241.343 1340.56 239.536C1338.76 237.728 1337.53 235.425 1337.03 232.918C1336.53 230.411 1336.79 227.812 1337.76 225.451C1338.74 223.09 1340.4 221.072 1342.53 219.653C1344.65 218.234 1347.15 217.478 1349.71 217.48C1353.13 217.483 1356.41 218.844 1358.84 221.264C1361.26 223.685 1362.62 226.967 1362.62 230.39Z" fill="white"/>
<path d="M230.69 469.49C230.69 474.512 229.201 479.421 226.411 483.596C223.621 487.771 219.656 491.026 215.016 492.947C210.377 494.869 205.272 495.372 200.347 494.392C195.422 493.413 190.898 490.994 187.347 487.444C183.796 483.893 181.378 479.369 180.398 474.443C179.418 469.518 179.921 464.413 181.843 459.774C183.765 455.134 187.019 451.169 191.194 448.379C195.37 445.589 200.279 444.1 205.3 444.1C212.034 444.1 218.492 446.775 223.254 451.537C228.015 456.298 230.69 462.756 230.69 469.49Z" fill="#DDE8FD"/>
<path d="M1246.78 189C1246.8 192.779 1245.69 196.479 1243.61 199.63C1241.52 202.781 1238.54 205.242 1235.06 206.701C1231.57 208.16 1227.73 208.55 1224.02 207.824C1220.31 207.098 1216.9 205.287 1214.22 202.621C1211.54 199.954 1209.72 196.553 1208.97 192.848C1208.23 189.142 1208.6 185.299 1210.04 181.806C1211.49 178.312 1213.93 175.325 1217.07 173.224C1220.22 171.122 1223.91 170 1227.69 170C1232.74 170 1237.58 171.999 1241.16 175.559C1244.73 179.12 1246.76 183.953 1246.78 189Z" fill="#DDE8FD"/>
<path d="M1533.2 638.69C1533.2 641.912 1532.24 645.061 1530.45 647.74C1528.66 650.419 1526.12 652.507 1523.14 653.74C1520.17 654.973 1516.89 655.295 1513.73 654.667C1510.57 654.038 1507.67 652.487 1505.39 650.209C1503.11 647.93 1501.56 645.028 1500.93 641.868C1500.3 638.708 1500.63 635.433 1501.86 632.456C1503.09 629.479 1505.18 626.935 1507.86 625.145C1510.54 623.355 1513.69 622.4 1516.91 622.4C1521.23 622.4 1525.37 624.116 1528.43 627.171C1531.48 630.226 1533.2 634.37 1533.2 638.69Z" fill="#DDE8FD"/>
<path d="M1392.16 279C1392.16 283.02 1390.97 286.95 1388.74 290.293C1386.51 293.636 1383.33 296.242 1379.62 297.781C1375.91 299.32 1371.82 299.724 1367.88 298.94C1363.94 298.156 1360.31 296.221 1357.47 293.378C1354.63 290.536 1352.69 286.914 1351.91 282.972C1351.13 279.029 1351.53 274.943 1353.07 271.229C1354.61 267.516 1357.21 264.342 1360.56 262.11C1363.9 259.878 1367.83 258.688 1371.85 258.69C1377.24 258.693 1382.4 260.833 1386.21 264.642C1390.02 268.45 1392.16 273.614 1392.16 279Z" fill="white"/>
<path d="M457.86 242.14C457.86 246.216 456.651 250.201 454.386 253.59C452.122 256.979 448.903 259.621 445.137 261.181C441.371 262.741 437.227 263.149 433.229 262.354C429.231 261.559 425.559 259.596 422.676 256.713C419.794 253.831 417.831 250.159 417.036 246.161C416.24 242.163 416.649 238.019 418.208 234.253C419.768 230.487 422.41 227.268 425.799 225.003C429.189 222.739 433.173 221.53 437.25 221.53C439.957 221.528 442.637 222.061 445.138 223.096C447.639 224.131 449.912 225.649 451.826 227.563C453.74 229.477 455.258 231.75 456.293 234.251C457.329 236.752 457.861 239.433 457.86 242.14Z" fill="white"/>
<path d="M1768.2 1217H279.796C274.934 1217 271 1213.64 271 1209.49C271 1205.33 274.934 1202 279.796 1202H1768.2C1773.07 1202 1777 1205.35 1777 1209.49C1777.04 1213.64 1773.07 1217 1768.2 1217Z" fill="#060534"/>
<path d="M616.1 585.66H616.12L634.84 585.73L639.08 629.95L617.23 641.49L593.92 630.08L597.69 585.73L616.1 585.66Z" fill="#F37A50"/>
<path d="M564.66 566.15C576.19 594.94 603.86 610.94 626.47 601.89C649.08 592.84 658.08 562.17 646.55 533.37C635.02 504.57 607.36 488.58 584.75 497.63C562.14 506.68 553.14 537.35 564.66 566.15Z" fill="#F37A50"/>
<path d="M636.72 542.83C637.199 543.519 637.871 544.05 638.652 544.357C639.432 544.663 640.286 544.732 641.106 544.553C641.925 544.374 642.673 543.956 643.255 543.352C643.837 542.749 644.227 541.986 644.375 541.16C644.523 540.335 644.424 539.484 644.088 538.715C643.753 537.946 643.197 537.294 642.491 536.841C641.785 536.389 640.961 536.155 640.122 536.171C639.284 536.187 638.469 536.451 637.78 536.93C636.858 537.572 636.228 538.554 636.029 539.661C635.83 540.767 636.079 541.907 636.72 542.83Z" fill="black"/>
<path d="M605 555.77C605.518 556.514 606.243 557.087 607.086 557.418C607.929 557.748 608.851 557.822 609.736 557.629C610.621 557.436 611.428 556.985 612.057 556.333C612.685 555.681 613.106 554.858 613.267 553.967C613.428 553.076 613.321 552.157 612.959 551.327C612.598 550.496 611.998 549.792 611.237 549.302C610.475 548.812 609.586 548.559 608.68 548.575C607.775 548.591 606.894 548.874 606.15 549.39C605.153 550.085 604.472 551.147 604.256 552.343C604.041 553.539 604.308 554.771 605 555.77Z" fill="black"/>
<path d="M630.29 549.58C636.02 554.1 643.18 559.58 643.18 559.58C643.18 559.58 643.25 566.48 635.18 569.47C638.1 566.83 640.66 563.3 637.63 559.23C634.6 555.16 630.29 549.58 630.29 549.58Z" fill="#DE623C"/>
<path d="M596.65 553C596.33 553 596.014 552.927 595.726 552.787C595.439 552.648 595.186 552.445 594.988 552.194C594.79 551.942 594.651 551.65 594.582 551.338C594.513 551.025 594.516 550.701 594.59 550.39C595.33 547.29 598.43 541.39 604.88 541.39C605.415 541.427 605.917 541.666 606.284 542.058C606.65 542.451 606.854 542.968 606.854 543.505C606.854 544.042 606.65 544.559 606.284 544.952C605.917 545.344 605.415 545.583 604.88 545.62C600.1 545.62 598.69 551.31 598.68 551.37C598.571 551.829 598.312 552.238 597.944 552.533C597.577 552.829 597.121 552.993 596.65 553Z" fill="#060534"/>
<path d="M632.28 533.86C631.97 533.863 631.665 533.78 631.4 533.62C631.199 533.504 631.024 533.35 630.883 533.165C630.742 532.981 630.64 532.771 630.581 532.547C630.523 532.322 630.509 532.089 630.542 531.859C630.574 531.63 630.652 531.409 630.77 531.21C631.373 530.238 632.163 529.395 633.093 528.729C634.023 528.063 635.076 527.588 636.19 527.33C638.58 526.89 641.05 527.67 643.53 529.66C643.711 529.804 643.861 529.983 643.973 530.186C644.084 530.388 644.155 530.611 644.18 530.841C644.206 531.07 644.186 531.303 644.121 531.525C644.057 531.747 643.949 531.954 643.805 532.135C643.661 532.316 643.482 532.466 643.279 532.577C643.077 532.689 642.854 532.76 642.624 532.785C642.395 532.811 642.162 532.791 641.94 532.726C641.718 532.662 641.511 532.554 641.33 532.41C639.69 531.09 638.17 530.55 636.83 530.8C635.59 531.126 634.519 531.908 633.83 532.99C633.671 533.259 633.444 533.481 633.172 533.634C632.9 533.786 632.592 533.865 632.28 533.86Z" fill="#060534"/>
<path d="M548.93 544.64C539.18 516.9 562.93 500.95 562.93 500.95C562.93 500.95 556.56 500.37 555.8 491.43C560.643 492.921 565.837 492.809 570.61 491.11C602.25 479.65 624.04 479.81 624.04 493.35C624.04 498.17 644.94 494.86 643.19 527.28C643.31 524.99 635.84 511.67 628.79 510.34C621.74 509.01 628.1 518.44 613.35 520.46C598.6 522.48 587.53 518.89 578.44 527.28C571.33 534.6 569.57 571.84 570.65 574.08C568.16 568.94 553.21 556.83 548.93 544.64Z" fill="#060534"/>
<path d="M650.91 549.58C650.91 549.58 652.26 566.48 649.82 571.7C647.29 564.93 641.82 572.11 636.73 572.78C624.38 574.42 602.09 570.3 599.88 588.83C584.78 593.61 570.64 561.29 570.64 561.29C569.77 597.39 596.19 617.9 634.21 611.89C659.26 607.93 661.59 573.06 650.91 549.58Z" fill="#060534"/>
<path d="M624.87 584.2C622.211 583.532 619.65 582.524 617.25 581.2C617.087 581.113 616.943 580.995 616.825 580.853C616.708 580.71 616.62 580.546 616.566 580.37C616.512 580.193 616.494 580.008 616.511 579.825C616.529 579.641 616.583 579.463 616.67 579.3C616.756 579.137 616.874 578.993 617.017 578.876C617.159 578.758 617.323 578.67 617.499 578.616C617.676 578.562 617.861 578.544 618.045 578.562C618.228 578.579 618.407 578.633 618.57 578.72C624.42 581.84 629.67 582.72 634.16 581.36C637.554 580.277 640.437 577.995 642.27 574.94C642.443 574.608 642.742 574.359 643.099 574.248C643.456 574.136 643.843 574.171 644.175 574.345C644.506 574.518 644.755 574.817 644.867 575.174C644.978 575.531 644.943 575.918 644.77 576.25C642.602 579.965 639.131 582.742 635.03 584.04C631.72 585.015 628.208 585.07 624.87 584.2Z" fill="#DE623C"/>
<path d="M570.28 561.53C576.64 565.1 579.43 572.21 576.5 577.42C573.57 582.63 566.06 583.94 559.7 580.42C553.34 576.9 550.56 569.74 553.48 564.53C556.4 559.32 563.93 558 570.28 561.53Z" fill="#F37A50"/>
<path d="M569.32 577.12C569.517 576.973 569.681 576.786 569.8 576.57C571.55 573.33 571.26 570.03 569.04 567.75C567.927 566.606 566.486 565.836 564.916 565.548C563.347 565.259 561.726 565.466 560.28 566.14C559.93 566.346 559.672 566.678 559.558 567.068C559.443 567.458 559.482 567.877 559.665 568.239C559.848 568.602 560.163 568.881 560.544 569.02C560.926 569.16 561.346 569.149 561.72 568.99C562.558 568.638 563.482 568.545 564.373 568.724C565.264 568.902 566.081 569.343 566.72 569.99C567.96 571.26 568.05 573.07 566.97 575.07C566.869 575.254 566.807 575.455 566.784 575.664C566.762 575.872 566.782 576.082 566.841 576.283C566.901 576.483 566.999 576.67 567.131 576.833C567.263 576.996 567.426 577.13 567.61 577.23C567.876 577.374 568.178 577.441 568.481 577.421C568.783 577.402 569.074 577.297 569.32 577.12Z" fill="#DE623C"/>
<path d="M637.76 1176.18C641.76 1165.36 650.26 1164.18 650.26 1164.18C666.81 1187.02 707.47 1173 706.12 1203.89C644.3 1203.5 618.61 1203.89 618.61 1203.89C618.69 1196.8 619.91 1179.96 621.34 1173.37L624.56 1173.96L637.76 1176.18Z" fill="black"/>
<path d="M545.27 1176.78C549.27 1165.96 557.77 1164.78 557.77 1164.78C574.32 1187.62 614.97 1173.6 613.63 1204.49C551.81 1204.1 526.12 1204.49 526.12 1204.49C526.2 1197.4 527.42 1180.56 528.85 1173.97L532.07 1174.56L545.27 1176.78Z" fill="black"/>
<path d="M678.879 815.47C678.879 815.47 688.879 961.86 684.879 994.4C680.879 1026.94 666.359 1068.67 667.999 1176.32C647.849 1181.32 618.649 1176.32 618.649 1176.32C618.649 1176.32 614.319 1054.6 635.649 1000.23C626.989 947.42 599.189 826.47 599.189 826.47L678.879 815.47Z" fill="#060534"/>
<path d="M640.73 819.48C640.73 819.48 620.47 983.82 610.55 1015C600.63 1046.18 581.28 1072.53 563.32 1178.57C542.61 1179.57 523.32 1178.57 523.32 1178.57C523.32 1178.57 526.12 1044.06 558.32 1013.47C559.41 959.92 553.11 820.54 553.11 820.54L640.73 819.48Z" fill="#08074D"/>
<path d="M547.31 633C547.31 633 582.5 620.68 594.24 626.33C630.71 643.89 639.08 626.33 639.08 626.33C650.73 627.33 685.92 633 685.92 633C685.92 672.29 688.54 711.71 687.82 741.45C687.32 767.34 692.26 837.8 692.26 837.8C692.26 837.8 653.45 847.97 616.74 848.24C580.02 848 542.66 838.24 542.66 838.24C542.66 838.24 544.66 766.88 546.25 740.35C545.72 710.55 547.31 672.14 547.31 633Z" fill="#FD7166"/>
<path d="M748.49 691.35C734 656.69 690.84 634.64 685.92 633L675.92 677.5C688.529 684.979 700.485 693.51 711.66 703C709.11 715.39 709.54 727.54 702.37 743.22C702.37 743.22 708.6 734.62 716.28 739.71C723.75 744.65 737.49 734.56 737.49 734.56C737.49 734.56 759.58 717.83 748.49 691.35Z" fill="#C95A51"/>
<path d="M1023.47 1163.25C1008.81 1182.81 972.12 1174.16 973.31 1200.62C1028.08 1200.28 1051.93 1200.77 1051.93 1200.77C1051.86 1194.69 1050.36 1171.95 1049.1 1166.3L1023.47 1163.25Z" fill="black"/>
<path d="M1118.21 1163.25C1132.87 1182.81 1169.56 1174.16 1168.37 1200.62C1113.6 1200.28 1089.75 1200.77 1089.75 1200.77C1089.82 1194.69 1091.32 1171.95 1092.58 1166.3L1118.21 1163.25Z" fill="black"/>
<path d="M990.87 629.54C990.87 629.54 946.36 653.69 918 676L902.64 722.53C932.27 719 1005.64 686.9 1005.64 686.9L990.87 629.54Z" fill="#060534"/>
<path d="M893.81 579.31C895.18 586.42 895.12 593.94 903.59 598.45C903.59 598.45 900.27 621.34 899.59 640.3C899.59 640.3 922.97 618.17 922.97 618.15C922.42 610.43 922.69 595.96 924.58 587.9C925.07 585.8 925.67 583.73 926.18 581.63C927.55 576.55 929.53 571.41 926.93 564.91C916.93 539.79 921.67 532.23 920.1 530.91C917.49 529.47 910.67 533.75 913.25 545.91C915.75 557.66 914.39 563.19 914.39 563.19C914.39 563.19 905.39 560.66 901.83 563.58C900.22 564.89 892.2 571 893.81 579.31Z" fill="#F37A50"/>
<path d="M896.91 602.61L926.39 607L940.75 690.08L902.62 722.54C894.37 706.28 887.26 638.81 896.91 602.61Z" fill="#060534"/>
<path d="M1126.43 808.69C1088.43 813.316 1050.02 813.42 1012 809L1003.26 997.68C1003.26 997.68 1008.14 1122.5 1014.73 1166.3L1056.18 1166.21C1053.47 1115.28 1061.34 997.55 1061.34 997.55L1069.61 889.92L1077.91 997.52C1077.91 997.52 1086.07 1115.2 1083.59 1166.15L1126.78 1166.06C1133.18 1122.23 1135.91 997.39 1135.91 997.39L1126.43 808.69Z" fill="#060534"/>
<path d="M1140.09 630.21C1140.09 630.21 1165.49 681.44 1180.89 714.11L1166.82 759.4C1141.89 743 1101.25 675 1101.25 675L1140.09 630.21Z" fill="#060534"/>
<path d="M1089.87 617.93L1038.28 620.22L1033.08 670.69L1038.7 814.73L1093.11 814.05L1107.33 652.81L1089.87 617.93Z" fill="#95A6DB"/>
<path d="M1033.27 540.19C1040.46 531.94 1046.12 539.95 1056.37 529.72C1066.62 519.49 1074.83 512.14 1083.6 522.93C1092.37 533.72 1096.88 535.23 1103.26 534.61C1109.64 533.99 1109.61 560.24 1109.61 560.24C1109.61 560.24 1134.72 553.96 1131.35 535.63C1127.62 515.32 1118.35 521.13 1113.21 504.63C1108.07 488.13 1088.08 478.88 1078.94 482.83C1069.31 487 1064.26 491.58 1050.23 488.18C1036.2 484.78 1024.13 488.9 1024.15 507.08C1024.17 525.26 1002.79 519.84 1009.64 542.55C1012.29 551.35 1019.73 559.46 1023.19 558.75C1027.82 557.85 1028.64 545.51 1033.27 540.19Z" fill="#08074D"/>
<path d="M1092.27 808.08H1041.61V823.19H1092.27V808.08Z" fill="#2D2C61"/>
<path d="M1046.73 630.63L1064.68 644.83L1082.89 630.63L1085.31 595.94H1044.32L1046.73 630.63Z" fill="#DE623C"/>
<path d="M990.75 629.63L991.68 855.2C1009.24 869.62 1043.68 873.56 1043.68 873.56L1037.42 623.56L990.75 629.63Z" fill="#08074D"/>
<path d="M1140.16 629.63L1139.22 855.2C1121.66 869.62 1087.22 873.56 1087.22 873.56L1093.48 623.56L1140.16 629.63Z" fill="#08074D"/>
<path d="M1012.2 653.25L1041.85 781.18L1037.35 621.32L1012.2 653.25Z" fill="#2D2C61"/>
<path d="M1120.27 644.39L1089.87 782.65L1093.49 623.58L1120.27 644.39Z" fill="#2D2C61"/>
<path d="M1068.82 505.44C1015.92 504.2 1028 575.44 1031.82 586.65C1033.92 592.76 1047.34 616.17 1068.93 616.51C1090.51 616.17 1103.64 592.76 1105.75 586.65C1109.65 575.46 1123.56 506.28 1068.82 505.44Z" fill="#F37A50"/>
<path d="M1062.48 552.6C1063.04 552.306 1063.46 551.808 1063.65 551.21C1063.85 550.595 1063.8 549.924 1063.51 549.345C1063.22 548.766 1062.71 548.325 1062.1 548.12C1061.71 548 1052.55 545.12 1044.22 551.06C1043.96 551.247 1043.73 551.484 1043.56 551.758C1043.39 552.031 1043.28 552.335 1043.22 552.653C1043.17 552.971 1043.18 553.297 1043.25 553.611C1043.32 553.925 1043.46 554.222 1043.65 554.485C1043.83 554.748 1044.07 554.971 1044.34 555.142C1044.62 555.313 1044.92 555.428 1045.24 555.482C1045.56 555.535 1045.88 555.525 1046.2 555.453C1046.51 555.381 1046.81 555.247 1047.07 555.06C1049.02 553.723 1051.24 552.828 1053.57 552.436C1055.9 552.044 1058.29 552.165 1060.57 552.79C1060.88 552.89 1061.22 552.925 1061.54 552.892C1061.87 552.86 1062.19 552.76 1062.48 552.6Z" fill="#08074D"/>
<path d="M1085.47 551.91C1085.05 551.683 1084.7 551.338 1084.48 550.917C1084.25 550.496 1084.15 550.018 1084.19 549.542C1084.24 549.066 1084.42 548.612 1084.71 548.237C1085.01 547.861 1085.41 547.581 1085.86 547.43C1088.87 546.565 1092.04 546.38 1095.13 546.888C1098.22 547.397 1101.16 548.586 1103.74 550.37C1104.27 550.748 1104.63 551.321 1104.74 551.963C1104.84 552.606 1104.69 553.264 1104.32 553.795C1103.94 554.325 1103.36 554.684 1102.72 554.792C1102.08 554.9 1101.42 554.748 1100.89 554.37C1098.94 553.031 1096.72 552.136 1094.39 551.745C1092.06 551.355 1089.67 551.479 1087.39 552.11C1087.07 552.205 1086.74 552.237 1086.41 552.203C1086.08 552.168 1085.76 552.069 1085.47 551.91Z" fill="#08074D"/>
<path d="M1096.19 560.86C1096.19 561.712 1095.94 562.546 1095.46 563.254C1094.99 563.963 1094.32 564.516 1093.53 564.842C1092.74 565.168 1091.88 565.253 1091.04 565.087C1090.2 564.921 1089.44 564.51 1088.83 563.907C1088.23 563.305 1087.82 562.537 1087.65 561.701C1087.49 560.865 1087.57 559.998 1087.9 559.21C1088.22 558.423 1088.78 557.75 1089.49 557.276C1090.19 556.803 1091.03 556.55 1091.88 556.55C1093.02 556.55 1094.12 557.004 1094.93 557.812C1095.74 558.62 1096.19 559.717 1096.19 560.86Z" fill="black"/>
<path d="M1059.19 560.86C1059.19 561.715 1058.94 562.552 1058.47 563.264C1057.99 563.976 1057.32 564.531 1056.53 564.859C1055.74 565.187 1054.87 565.274 1054.03 565.107C1053.19 564.941 1052.42 564.529 1051.82 563.925C1051.21 563.32 1050.8 562.549 1050.63 561.71C1050.47 560.871 1050.55 560.002 1050.88 559.212C1051.21 558.422 1051.76 557.748 1052.48 557.274C1053.19 556.8 1054.02 556.548 1054.88 556.55C1056.02 556.55 1057.12 557.004 1057.93 557.812C1058.74 558.62 1059.19 559.717 1059.19 560.86Z" fill="black"/>
<path d="M1076.84 565C1080.31 570.51 1084.71 577.23 1084.71 577.23C1084.71 577.23 1082.71 583.06 1075.02 583.17C1078.27 581.81 1081.48 579.61 1080.14 575.28C1078.8 570.95 1076.84 565 1076.84 565Z" fill="#DE623C"/>
<path d="M1069.39 658.1L1078.43 779.6L1064.87 795.61L1051.3 779.6L1060.55 658.41L1069.39 658.1Z" fill="#FD7166"/>
<path d="M1074.35 645.04L1065.33 642.67L1056.1 645.45L1060.54 658.64L1069.42 658.48L1074.35 645.04Z" fill="#FD7166"/>
<path d="M1064.87 642.7C1060.53 648.539 1054.84 653.24 1048.28 656.4L1030.49 629.4L1038.28 620.22L1064.87 642.7Z" fill="white"/>
<path d="M1064.87 642.7C1064.87 642.7 1073.52 652.79 1081.92 655.81L1098 626.67L1090.41 617.93L1064.87 642.7Z" fill="white"/>
<path d="M1247 704.93L1239.94 677.93L1171.1 708L1166.82 759.41C1185 757.65 1221.6 732.46 1247 704.93Z" fill="#060534"/>
<path d="M1087.12 592.72C1087.82 591.55 1087.19 589.86 1086.12 589.99C1078.3 591.066 1070.35 590.727 1062.65 588.99C1061.57 588.77 1060.79 590.4 1061.39 591.62C1063.25 595.37 1067.17 601.11 1073.88 601.4C1080.59 601.69 1085 596.29 1087.12 592.72Z" fill="white"/>
<path d="M1027 553C1033 555 1034.67 512.23 1057.91 527.72C1074.28 538.63 1104.43 541.35 1098.34 526.56C1102.02 529.436 1105.5 532.557 1108.76 535.9L1100.15 507.37C1100.15 507.37 1055.79 493.43 1040.04 507.55C1024.29 521.67 1027 553 1027 553Z" fill="#08074D"/>
<path d="M1038 557.86C1041.51 564.76 1039.46 572.86 1033.42 575.93C1027.38 579 1019.62 575.93 1016.1 569.02C1012.58 562.11 1014.63 554.02 1020.68 550.95C1026.73 547.88 1034.5 551 1038 557.86Z" fill="#F37A50"/>
<path d="M1028.86 572.33C1028.7 572.331 1028.55 572.308 1028.4 572.26C1028.2 572.201 1028.01 572.101 1027.85 571.968C1027.68 571.835 1027.55 571.67 1027.45 571.484C1027.35 571.297 1027.29 571.093 1027.27 570.883C1027.25 570.673 1027.28 570.461 1027.34 570.26C1028.62 566.03 1028.51 562.84 1027.01 561.02C1025.01 558.58 1020.9 559.02 1020.85 559.02C1020.43 559.066 1020.01 558.944 1019.68 558.679C1019.35 558.415 1019.14 558.03 1019.09 557.61C1019.04 557.19 1019.17 556.768 1019.43 556.438C1019.69 556.108 1020.08 555.896 1020.5 555.85C1020.73 555.85 1026.31 555.24 1029.44 559.01C1031.71 561.72 1032.02 565.83 1030.38 571.21C1030.28 571.535 1030.08 571.818 1029.8 572.02C1029.53 572.222 1029.2 572.33 1028.86 572.33Z" fill="#DE623C"/>
<path d="M1294.94 661.07L1291.26 675.81L1286.09 696.48L1282.16 712.17L1251.18 708.55L1250.98 692.38L1250.72 671.07L1250.53 655.88L1294.94 661.07Z" fill="#FD7166"/>
<path d="M1246.08 655.36L1299.4 661.59L1299.17 655.9L1247.61 649.88L1246.08 655.36Z" fill="#D66056"/>
<path d="M1295.1 655.43L1251.68 650.35L1253.2 645.02L1294.85 649.89L1295.1 655.43Z" fill="#D66056"/>
<path d="M1282.16 712.17L1280.79 717.67L1251.25 714.22L1251.18 708.55L1282.16 712.17Z" fill="#D66056"/>
<path d="M1291.26 675.81L1286.09 696.48L1250.98 692.38L1250.72 671.07L1291.26 675.81Z" fill="#D66056"/>
<path d="M1280.84 693.61C1281.16 693.384 1281.52 693.212 1281.9 693.1C1281.86 693.042 1281.82 692.988 1281.77 692.94C1279.4 689.65 1279.4 685.61 1281.77 683.94C1282.15 683.668 1282.58 683.468 1283.04 683.35C1282.32 680.87 1282.79 678.46 1284.47 677.25C1285.15 676.78 1285.95 676.522 1286.77 676.51C1286.29 675.426 1286.18 674.216 1286.46 673.064C1286.73 671.912 1287.37 670.881 1288.29 670.13C1290.65 668.43 1294.2 669.32 1296.22 672.13C1298.24 674.94 1297.98 678.59 1295.62 680.29C1295.03 680.712 1294.34 680.987 1293.62 681.09C1295.36 684.16 1295.17 687.62 1293.03 689.15C1292.65 689.426 1292.22 689.626 1291.76 689.74C1292.49 692.22 1292.02 694.63 1290.34 695.84C1289.72 696.28 1288.98 696.534 1288.22 696.57C1288.69 697.507 1288.83 698.577 1288.61 699.603C1288.4 700.629 1287.84 701.552 1287.03 702.22C1285.03 703.65 1282.03 702.9 1280.33 700.53C1278.63 698.16 1278.85 695 1280.84 693.61Z" fill="#F37A50"/>
<path d="M1251.23 683.35C1253.52 682.45 1256.43 679.61 1257.95 674.35C1259.47 669.09 1271.77 665.7 1267.35 662.88C1262.93 660.06 1249.35 662.42 1244.22 674.21C1242.96 675.612 1241.52 676.845 1239.94 677.88L1246.23 702.2L1251.12 701.12L1251.23 683.35Z" fill="#F37A50"/>
<path d="M740.39 779C740.639 779.07 740.893 779.12 741.15 779.15H742C742.762 779.063 743.483 778.758 744.077 778.272C744.671 777.786 745.113 777.14 745.35 776.41L784.08 651.53C784.159 651.283 784.21 651.028 784.23 650.77C784.24 650.607 784.24 650.443 784.23 650.28C784.23 650.18 784.23 650.08 784.23 649.98C784.23 649.88 784.23 649.81 784.18 649.73C784.063 649.01 783.749 648.338 783.272 647.787C782.795 647.236 782.175 646.828 781.48 646.61C781.241 646.535 780.997 646.482 780.75 646.45C780.47 646.42 780.189 646.42 779.91 646.45H682.38L643.31 779.15H740.46L740.39 779Z" fill="#95A6DB"/>
<path d="M683.27 646.57C682.776 646.415 682.256 646.36 681.741 646.406C681.226 646.453 680.725 646.6 680.267 646.841C679.809 647.082 679.403 647.41 679.072 647.808C678.741 648.206 678.492 648.666 678.34 649.16L639.85 773.72L639.77 774.01C639.462 775.002 639.56 776.075 640.042 776.995C640.523 777.915 641.35 778.607 642.34 778.92C642.833 779.075 643.353 779.13 643.868 779.084C644.383 779.037 644.884 778.889 645.343 778.649C645.801 778.408 646.207 778.08 646.537 777.682C646.868 777.284 647.117 776.824 647.27 776.33L685.86 651.48C686.163 650.485 686.061 649.411 685.576 648.491C685.091 647.572 684.262 646.881 683.27 646.57Z" fill="#768FDB"/>
<path d="M756.93 725.79C757.293 725.563 757.687 725.391 758.1 725.28C758.1 725.22 758.01 725.17 757.97 725.1C755.55 721.45 755.71 717.1 758.33 715.33C758.758 715.052 759.232 714.852 759.73 714.74C759.05 712.04 759.66 709.45 761.54 708.21C762.284 707.722 763.16 707.474 764.05 707.5C763.2 704.84 763.88 702.05 765.98 700.66C768.6 698.92 772.41 700.04 774.48 703.16C776.55 706.28 776.1 710.23 773.48 711.97C772.829 712.399 772.085 712.666 771.31 712.75C773.06 716.16 772.7 719.88 770.31 721.46C769.882 721.737 769.408 721.933 768.91 722.04C769.59 724.75 768.98 727.34 767.11 728.58C766.416 729.031 765.608 729.274 764.78 729.28C765.65 731.61 765.1 734.12 763.26 735.34C761.04 736.81 757.82 735.87 756.07 733.23C754.32 730.59 754.72 727.26 756.93 725.79Z" fill="#F37A50"/>
<path d="M637.06 717.9L645.95 712.75C645.95 712.75 648.41 700.14 662.68 699.84C661.05 705.13 658.68 712.75 658.68 712.75C658.68 712.75 665.68 718.2 682.37 708.87C698.66 705.21 691.7 717.08 697.1 717.94C705.1 719.2 691.29 734.85 675.03 737.24C654.03 740.34 651.49 736.04 651.49 736.04L639.58 740.2L637.06 717.9Z" fill="#F37A50"/>
<path d="M554.81 731.37C584.52 729.29 635.2 714.62 635.2 714.62C643.31 727.06 641.07 743.62 641.07 743.62C594.93 784 525.49 797.1 504.19 787.37C484.74 778.48 498.47 660.08 547.31 632.96C564.05 661.29 554.81 731.37 554.81 731.37Z" fill="#C95A51"/>
<path d="M1158.29 958.33H538.45C523.88 958.33 512.07 950.33 512.07 940.58C512.07 930.77 523.88 922.83 538.45 922.83H1158.29C1172.86 922.83 1184.66 930.77 1184.66 940.58C1184.66 950.38 1172.86 958.33 1158.29 958.33Z" fill="#95A6DB"/>
<path d="M770.76 1208.45C769.254 1208.45 767.776 1208.04 766.482 1207.27C765.188 1206.49 764.127 1205.39 763.41 1204.06C762.694 1202.74 762.348 1201.24 762.409 1199.74C762.471 1198.23 762.938 1196.77 763.76 1195.51L927.42 944.71L941.42 953.85L777.76 1204.65C777.001 1205.82 775.964 1206.77 774.742 1207.44C773.519 1208.1 772.151 1208.45 770.76 1208.45Z" fill="#95A6DB"/>
<path d="M926 1208.45C927.507 1208.45 928.985 1208.04 930.278 1207.27C931.572 1206.49 932.633 1205.39 933.35 1204.06C934.067 1202.74 934.413 1201.24 934.351 1199.74C934.29 1198.23 933.823 1196.77 933 1195.51L769.32 944.71L755.32 953.85L919 1204.65C919.76 1205.82 920.797 1206.77 922.019 1207.44C923.242 1208.1 924.61 1208.45 926 1208.45Z" fill="#95A6DB"/>
<path d="M505.931 1204.47C506.981 1204.47 508.022 1204.26 508.992 1203.86C509.963 1203.46 510.845 1202.87 511.588 1202.13C512.33 1201.38 512.92 1200.5 513.322 1199.53C513.724 1198.56 513.931 1197.52 513.931 1196.47V1054.47H497.931V1196.47C497.931 1198.59 498.774 1200.63 500.274 1202.13C501.774 1203.63 503.809 1204.47 505.931 1204.47Z" fill="#768FDB"/>
<path d="M449.71 1204.47C451.832 1204.47 453.867 1203.63 455.367 1202.13C456.867 1200.63 457.71 1198.59 457.71 1196.47V1054.47H441.71V1196.47C441.71 1198.59 442.553 1200.63 444.053 1202.13C445.553 1203.63 447.588 1204.47 449.71 1204.47Z" fill="#768FDB"/>
<path d="M375.931 1204.47C378.052 1204.47 380.087 1203.63 381.588 1202.13C383.088 1200.63 383.931 1198.59 383.931 1196.47V1054.47H367.931V1196.47C367.931 1198.59 368.774 1200.63 370.274 1202.13C371.774 1203.63 373.809 1204.47 375.931 1204.47Z" fill="#768FDB"/>
<path d="M319.71 1204.47C321.832 1204.47 323.867 1203.63 325.367 1202.13C326.867 1200.63 327.71 1198.59 327.71 1196.47V1054.47H311.71V1196.47C311.71 1198.59 312.553 1200.63 314.053 1202.13C315.553 1203.63 317.588 1204.47 319.71 1204.47Z" fill="#768FDB"/>
<path d="M408.36 843.81V1012.75C408.36 1013.21 408.45 1013.66 408.625 1014.08C408.8 1014.5 409.056 1014.89 409.379 1015.21C409.702 1015.53 410.086 1015.79 410.508 1015.97C410.93 1016.14 411.383 1016.23 411.84 1016.23H516.59C521.663 1016.23 526.527 1018.25 530.114 1021.84C533.701 1025.42 535.717 1030.29 535.72 1035.36C535.72 1040.43 533.705 1045.3 530.117 1048.89C526.53 1052.48 521.664 1054.5 516.59 1054.5H389.23C384.154 1054.5 379.285 1052.48 375.696 1048.89C372.106 1045.3 370.09 1040.44 370.09 1035.36V843.81C370.092 838.736 372.11 833.87 375.699 830.283C379.289 826.695 384.155 824.68 389.23 824.68C394.303 824.68 399.169 826.696 402.757 830.283C406.344 833.871 408.36 838.737 408.36 843.81Z" fill="#95A6DB"/>
<path d="M306.42 1019.33H389.23V824.68H306.42V1019.33Z" fill="#95A6DB"/>
<path d="M325.55 843.81V1012.75C325.55 1013.67 325.917 1014.56 326.57 1015.21C327.222 1015.86 328.107 1016.23 329.03 1016.23H433.77C438.845 1016.23 443.712 1018.25 447.301 1021.83C450.89 1025.42 452.908 1030.29 452.91 1035.36C452.91 1040.44 450.894 1045.3 447.304 1048.89C443.715 1052.48 438.847 1054.5 433.77 1054.5H306.41C301.336 1054.5 296.47 1052.48 292.883 1048.89C289.295 1045.3 287.28 1040.43 287.28 1035.36V843.81C287.283 838.737 289.299 833.873 292.886 830.286C296.473 826.699 301.337 824.683 306.41 824.68C311.485 824.68 316.352 826.695 319.941 830.283C323.53 833.87 325.548 838.736 325.55 843.81Z" fill="#768FDB"/>
<path d="M491.61 882.31C484.03 887.31 486.12 914.84 488.99 916.24C528.4 921.05 594.99 888.4 594.99 888.4L597.6 873.79C597.6 873.79 542 883.11 491.61 882.31Z" fill="#F37A50"/>
<path d="M405 834.65C419.08 857.18 480.76 915.44 490.33 916.31L498.48 883.31C498.48 883.31 443.12 813.12 433.37 801.92C416.53 782.45 381.93 797.91 405 834.65Z" fill="#F37A50"/>
<path d="M438.71 714.25C440.4 691.18 433.71 670.8 415.34 660.42C396.7 649.9 373.34 660.22 373.34 660.22C373.34 660.22 353.57 653.22 335.65 672.92C317.73 692.62 331.29 710 324 724.42C319.66 732.94 297.59 734.7 303.29 762.42C304.94 770.42 314.57 775.82 322.72 776.36C337.05 777.3 350.4 771.76 356.21 777.3C375.35 795.55 417.77 788.95 423.71 772.25C425.55 767.07 463.71 777.09 459.9 741.83C457.94 724 437.2 734.87 438.71 714.25Z" fill="#08074D"/>
<path d="M403.74 788.83L373.44 783.23L362.08 798.35L386.23 847.85L421.74 817.71L403.74 788.83Z" fill="#F37A50"/>
<path d="M443 908.18C442.49 898.76 457.71 860.09 449.7 840.62C443.86 824.96 434.11 798.62 422.17 794.28C416.54 792.21 410.75 790.77 403.73 788.83C403.73 788.83 407.73 808.56 399.44 809.22C383.56 810.5 373.44 783.22 373.44 783.22C364.88 782.41 325.6 795.31 325.62 798.54C325.72 823.8 346.24 860.66 352.95 887.97C355.59 917.47 345.3 952.77 345.26 956.13C345.26 956.13 408.45 973.89 445.91 953.27C446.69 950.41 443.73 921.19 443 908.18Z" fill="#7C9AF2"/>
<path d="M354.77 925.83C354.77 925.83 340.82 961 337.42 983.17C334.02 1005.34 353.21 1019.54 353.21 1019.54H512.86C512.86 1019.54 530 991.82 525 972.68C520 953.54 508.75 950.5 508.75 950.5L354.77 925.83Z" fill="#7C9AF2"/>
<path d="M515 949.52C494.62 946.65 435.46 969.62 410.24 1019.52H480.8L515 949.52Z" fill="#DE623C"/>
<path d="M492.65 967.89C495.389 964.78 497.78 961.38 499.78 957.75C501.135 955.31 503.051 953.226 505.37 951.672C507.689 950.118 510.345 949.138 513.117 948.813C515.89 948.487 518.7 948.826 521.315 949.801C523.931 950.776 526.277 952.359 528.16 954.42C557.58 986.86 620.31 1060.81 634.29 1070.02C638.29 1072.62 661.29 1085.89 683.21 1083.27C683.21 1083.27 694.03 1087.38 686.82 1095.98C683.11 1100.4 627.42 1104.98 627.42 1104.98L623.08 1088.63C590.66 1064.63 550.3 1066.36 516.08 1022.49C497.24 998.32 492.65 967.89 492.65 967.89Z" fill="#DE623C"/>
<path d="M638.7 1114.4L661.11 1128.94L664.19 1125.27L646.01 1108.27C656.34 1100.12 680.26 1106.92 680.26 1106.92C688.09 1101.86 703.36 1085.45 704.94 1076.66C699.94 1070.4 683.22 1083.26 683.22 1083.26C683.83 1086.05 678.55 1095.7 674.35 1097.34C656.1 1101.28 637.92 1096.1 623.08 1088.56C623.08 1088.61 610.68 1107.4 638.7 1114.4Z" fill="#FD7166"/>
<path d="M492.32 972.3C490.323 972.835 488.526 973.945 487.154 975.491C485.782 977.038 484.893 978.953 484.6 981C483.01 992.33 474.76 1015.25 485.92 1039.27C513.3 1098.21 529.46 1137.05 532.33 1152.27C525.18 1165.66 553.7 1202.27 554.12 1204.65L574.65 1198.22C574.65 1198.22 562.87 1180.7 558.65 1173.84C548.55 1157.51 546.9 1137.46 545.26 1121.92C538.26 1055.59 550.26 1013.7 502.26 974.79C500.921 973.614 499.32 972.775 497.591 972.342C495.862 971.908 494.055 971.894 492.32 972.3Z" fill="#F37A50"/>
<path d="M522.11 1180.33L524.11 1206.97L528.9 1207.19L531.36 1182.46C544.1 1185.73 553.19 1208.87 553.19 1208.87C561.97 1212.03 584.28 1214.22 592.19 1210.14C594.12 1202.36 573.76 1196.87 573.76 1196.87C571.92 1199.05 561.05 1200.7 557.19 1198.37C542.99 1186.24 535.28 1168.64 532.27 1152.27C532.33 1152.27 510.68 1153.8 522.11 1180.33Z" fill="#FD7166"/>
<path d="M396.089 764.08L371.479 760.4L373.479 783.23C373.479 783.23 378.189 793.58 383.649 794.23L403.779 788.78L396.089 764.08Z" fill="#F37A50"/>
<path d="M348.72 731.07C355.07 757.59 377.11 775.07 397.94 770.07C418.77 765.07 430.51 739.54 424.16 713.01C417.81 686.48 395.77 669.01 374.94 674.01C354.11 679.01 342.37 704.54 348.72 731.07Z" fill="#F37A50"/>
<path d="M414.4 720C414.729 720.66 415.247 721.208 415.888 721.574C416.528 721.941 417.263 722.108 417.999 722.057C418.735 722.005 419.44 721.736 420.023 721.284C420.606 720.832 421.042 720.218 421.276 719.518C421.51 718.818 421.531 718.064 421.336 717.352C421.142 716.641 420.74 716.002 420.183 715.519C419.626 715.035 418.937 714.728 418.205 714.635C417.473 714.543 416.73 714.67 416.07 715C415.631 715.218 415.24 715.52 414.919 715.89C414.597 716.259 414.352 716.688 414.196 717.153C414.041 717.618 413.979 718.108 414.014 718.597C414.049 719.085 414.18 719.562 414.4 720Z" fill="black"/>
<path d="M385.14 727.19C385.497 727.893 386.055 728.474 386.742 728.86C387.428 729.247 388.214 729.422 389 729.364C389.786 729.306 390.538 729.016 391.16 728.532C391.782 728.049 392.247 727.392 392.497 726.644C392.748 725.897 392.771 725.092 392.565 724.331C392.36 723.57 391.934 722.887 391.341 722.367C390.748 721.848 390.015 721.515 389.234 721.41C388.453 721.306 387.658 721.435 386.95 721.78C386.473 722.013 386.046 722.339 385.696 722.738C385.346 723.137 385.079 723.602 384.911 724.106C384.742 724.609 384.676 725.142 384.715 725.671C384.754 726.201 384.899 726.717 385.14 727.19Z" fill="black"/>
<path d="M380.68 723.85C380.967 723.707 381.196 723.471 381.33 723.18C383.33 718.82 388.81 717.97 388.86 717.97C389.228 717.916 389.56 717.718 389.783 717.42C390.005 717.122 390.102 716.749 390.05 716.38C389.998 716.013 389.802 715.682 389.506 715.458C389.21 715.235 388.837 715.139 388.47 715.19C388.18 715.19 381.47 716.19 378.78 722C378.654 722.264 378.614 722.561 378.665 722.849C378.717 723.138 378.857 723.402 379.067 723.606C379.277 723.811 379.545 723.944 379.834 723.988C380.124 724.031 380.419 723.983 380.68 723.85Z" fill="#08074D"/>
<path d="M422.52 714.57C422.721 714.473 422.896 714.328 423.029 714.148C423.163 713.969 423.251 713.76 423.286 713.539C423.322 713.318 423.303 713.092 423.232 712.88C423.162 712.668 423.041 712.476 422.88 712.32C421.619 711.077 420.045 710.198 418.325 709.776C416.606 709.353 414.804 709.403 413.11 709.92C412.936 709.98 412.775 710.073 412.638 710.195C412.5 710.317 412.387 710.465 412.306 710.63C412.226 710.795 412.178 710.975 412.167 711.158C412.155 711.342 412.18 711.526 412.24 711.7C412.3 711.874 412.393 712.035 412.515 712.172C412.637 712.31 412.785 712.423 412.95 712.504C413.115 712.585 413.295 712.632 413.478 712.643C413.662 712.655 413.846 712.63 414.02 712.57C415.22 712.225 416.49 712.204 417.7 712.51C418.91 712.816 420.018 713.437 420.91 714.31C421.117 714.517 421.384 714.654 421.673 714.701C421.962 714.748 422.258 714.702 422.52 714.57Z" fill="#08074D"/>
<path d="M412 728.07C414.05 730.17 415.84 732.34 417.79 733.57C418.115 733.775 418.348 734.098 418.439 734.471C418.531 734.844 418.474 735.238 418.28 735.57C416.7 738.36 412.1 740.66 409.28 741.86C409.194 741.892 409.1 741.894 409.013 741.864C408.926 741.835 408.852 741.777 408.803 741.7C408.754 741.623 408.732 741.531 408.743 741.44C408.753 741.349 408.794 741.264 408.86 741.2C410.709 739.722 412.266 737.911 413.45 735.86C413.575 735.612 413.641 735.338 413.641 735.06C413.641 734.782 413.575 734.508 413.45 734.26C412.87 733.11 411.71 730.75 410.92 728.81C410.847 728.667 410.828 728.503 410.868 728.347C410.907 728.192 411.002 728.056 411.134 727.965C411.267 727.874 411.427 727.835 411.587 727.854C411.746 727.874 411.893 727.95 412 728.07Z" fill="#DE623C"/>
<path d="M358.75 731.24C363.81 735.17 365.3 741.72 362.08 745.87C358.86 750.02 352.14 750.17 347.08 746.24C342.02 742.31 340.52 735.75 343.75 731.6C346.98 727.45 353.69 727.3 358.75 731.24Z" fill="#F37A50"/>
<path d="M355.87 744.66C356.064 744.564 356.232 744.424 356.36 744.25C358.3 741.67 358.49 738.76 356.85 736.48C356.033 735.341 354.882 734.484 353.556 734.029C352.23 733.574 350.795 733.543 349.45 733.94C349.097 734.057 348.805 734.309 348.639 734.641C348.472 734.973 348.443 735.357 348.56 735.71C348.677 736.063 348.929 736.355 349.261 736.522C349.593 736.689 349.977 736.717 350.33 736.6C351.107 736.397 351.927 736.433 352.683 736.702C353.439 736.972 354.097 737.462 354.57 738.11C355.48 739.38 355.32 740.97 354.12 742.57C353.931 742.823 353.832 743.132 353.841 743.448C353.849 743.763 353.964 744.067 354.167 744.309C354.37 744.551 354.648 744.717 354.957 744.781C355.267 744.845 355.588 744.802 355.87 744.66Z" fill="#DE623C"/>
<path d="M389 749.22C388.867 749.048 388.788 748.84 388.772 748.623C388.757 748.406 388.805 748.19 388.912 748C389.018 747.81 389.178 747.656 389.372 747.557C389.565 747.457 389.783 747.417 390 747.44C396.988 748.373 404.071 748.373 411.059 747.44C411.274 747.421 411.49 747.465 411.68 747.565C411.871 747.666 412.029 747.819 412.134 748.007C412.24 748.195 412.289 748.41 412.276 748.625C412.262 748.84 412.187 749.047 412.059 749.22C410.781 751.107 409.06 752.652 407.047 753.72C405.033 754.789 402.789 755.347 400.51 755.347C398.23 755.347 395.986 754.789 393.972 753.72C391.959 752.652 390.238 751.107 388.959 749.22H389Z" fill="white"/>
<path d="M348.21 728.72C373.07 725.39 407.86 700.06 410.72 687.06C405.91 671.44 380.28 663.59 365.81 670.83C351.34 678.07 337.68 709.07 348.21 728.72Z" fill="#08074D"/>
<path d="M580.82 916.75C580.031 916.489 579.301 916.075 578.672 915.531C578.044 914.987 577.529 914.324 577.157 913.581C576.786 912.838 576.565 912.028 576.507 911.199C576.449 910.37 576.555 909.538 576.82 908.75L615.2 791.18C615.461 790.391 615.875 789.661 616.419 789.033C616.963 788.404 617.625 787.889 618.369 787.518C619.112 787.146 619.921 786.925 620.75 786.867C621.579 786.809 622.412 786.915 623.2 787.18C624.782 787.708 626.09 788.84 626.84 790.33C627.589 791.819 627.719 793.545 627.2 795.13L588.77 912.71C588.25 914.299 587.121 915.617 585.631 916.375C584.14 917.132 582.41 917.267 580.82 916.75Z" fill="white"/>
<path d="M601.2 874.61L609.02 850.61C609.02 850.61 615.8 864.39 609.02 877.47C602.24 890.55 595.8 891.13 595.8 891.13L601.2 874.61Z" fill="#F37A50"/>
<path d="M590 868.2C588 863.55 583.36 851.92 588 851.97C592.64 852.02 593.41 857.67 593.41 857.67L590 868.2Z" fill="#F37A50"/>
<path d="M205.56 798.19C216.11 787.54 209.19 776.62 209.19 776.62C214.98 775.38 245.53 821.62 258.71 851.08C281.71 827.92 322.19 796.64 333.14 794.81C333.14 794.81 347.91 790.81 353.22 808.7C357.96 824.64 339.48 835.94 339.48 835.94C339.48 835.94 260.48 891.75 248.75 886.79C230.55 879.07 214.09 812.65 205.56 798.19Z" fill="#F37A50"/>
<path d="M189.05 796.87C195.5 797.26 203.48 794.08 205.96 799.87L218.69 793.66L219.46 785.99C208.52 768.46 181.86 763.48 179.22 763.25C172.36 762.65 169.22 761.94 168.64 762.86C168.06 763.78 166.43 769.86 176.38 771.08C188.87 772.58 180.58 782.56 155.24 773.08C148.89 770.7 136.95 773.79 141.24 778.42C146 783.5 159.7 795.08 189.05 796.87Z" fill="#F37A50"/>
<path d="M878.71 440C878.711 445.715 877.744 451.388 875.85 456.78C866.5 483.61 835.3 503.32 798.24 503.32C761.18 503.32 729.99 483.61 720.64 456.78C718.746 451.388 717.779 445.715 717.78 440H878.71Z" fill="#7C9AF2"/>
<path d="M878.71 440C878.711 445.715 877.744 451.388 875.85 456.78H720.64C718.746 451.388 717.779 445.715 717.78 440H878.71Z" fill="#6A86CE"/>
<path d="M966.75 168.51C966.753 123.861 949.035 81.0361 917.486 49.441C885.938 17.8458 843.139 0.0637665 798.49 0.000171299C706.81 -0.129829 631.41 73.7502 629.77 165.42C629.007 203.856 641.465 241.389 665.06 271.74C693.91 308.663 709.641 354.143 709.77 401V401.82H886.71V401C886.71 354 902.79 308.68 931.54 271.56C954.41 242.081 966.799 205.82 966.75 168.51Z" fill="#A7C1E9"/>
<path d="M823.74 382.78C823.256 382.784 822.776 382.702 822.32 382.54C821.786 382.355 821.293 382.066 820.871 381.69C820.449 381.314 820.104 380.859 819.858 380.35C819.612 379.841 819.469 379.288 819.436 378.724C819.404 378.159 819.483 377.594 819.67 377.06C819.87 376.49 839.74 319.24 854.17 260.94C879.77 157.61 866.6 140.81 859.75 138.39C839.61 131.26 823.57 141.81 813.67 151.91C810.641 155.025 807.856 158.368 805.34 161.91C809.812 169.696 813.635 177.837 816.77 186.25C825.69 210.09 828.06 232.35 823.11 245.81C819.29 256.19 811.17 261.46 800.25 260.64C789.95 259.86 782.41 253.89 778.45 243.38C773.91 231.33 774.45 213.6 780.06 194.75C783.508 183.018 788.602 171.833 795.19 161.53C789.19 152.12 782.36 144.04 774.9 138.59C763.81 130.51 753.4 130.16 743.9 137.59C724.39 152.84 723.64 198.72 741.74 270.26C755.74 325.42 776.18 376.41 776.38 376.92C776.592 377.446 776.698 378.007 776.693 378.574C776.688 379.14 776.572 379.7 776.35 380.222C776.129 380.743 775.807 381.216 775.403 381.613C774.998 382.01 774.52 382.323 773.995 382.535C773.47 382.747 772.908 382.854 772.341 382.849C771.775 382.844 771.215 382.727 770.693 382.506C770.172 382.284 769.699 381.962 769.302 381.558C768.905 381.154 768.592 380.676 768.38 380.15C768.17 379.63 747.5 328.15 733.38 272.45C714.09 196.23 715.83 148.57 738.57 130.8C751.06 121.04 765.74 121.35 779.9 131.67C787 136.85 794.02 144.6 800.38 154.09C802.571 151.237 804.928 148.516 807.44 145.94C823.93 129.13 843.5 123.58 862.55 130.33C874.42 134.53 879.28 150.49 877.43 179.14C876.06 200.27 871.03 228.52 862.43 263.14C848 321.74 828 379.32 827.81 379.89C827.515 380.735 826.965 381.467 826.236 381.984C825.507 382.502 824.634 382.78 823.74 382.78ZM800.09 170C795.079 178.563 791.126 187.704 788.32 197.22C783.32 214.06 782.68 230.22 786.51 240.38C789.28 247.73 793.99 251.55 800.9 252.07C808.03 252.61 812.52 249.69 815.02 242.87C820.73 227.3 813.8 195.6 800.09 170Z" fill="white"/>
<path d="M872.18 380.64H724.31C706.991 380.64 692.95 394.68 692.95 412V414.11C692.95 431.43 706.991 445.47 724.31 445.47H872.18C889.5 445.47 903.54 431.43 903.54 414.11V412C903.54 394.68 889.5 380.64 872.18 380.64Z" fill="#7C9AF2"/>
<path d="M1084.51 175.43H1029.41C1027.55 175.43 1025.7 175.063 1023.98 174.349C1022.25 173.635 1020.69 172.589 1019.37 171.27C1018.05 169.952 1017.01 168.386 1016.3 166.663C1015.58 164.941 1015.22 163.094 1015.22 161.23C1015.21 159.363 1015.58 157.514 1016.29 155.787C1017 154.061 1018.04 152.492 1019.36 151.17C1020.68 149.848 1022.25 148.8 1023.97 148.084C1025.69 147.368 1027.54 147 1029.41 147H1084.51C1086.37 146.999 1088.22 147.365 1089.94 148.077C1091.67 148.79 1093.23 149.835 1094.55 151.153C1095.87 152.47 1096.91 154.035 1097.63 155.757C1098.34 157.48 1098.71 159.326 1098.71 161.19C1098.72 163.058 1098.35 164.909 1097.64 166.636C1096.93 168.364 1095.88 169.934 1094.56 171.257C1093.25 172.58 1091.68 173.629 1089.95 174.345C1088.23 175.061 1086.38 175.43 1084.51 175.43Z" fill="#A7C1E9"/>
<path d="M567.07 175.43H512C508.234 175.43 504.622 173.934 501.959 171.271C499.296 168.608 497.8 164.996 497.8 161.23C497.795 159.362 498.158 157.512 498.869 155.785C499.581 154.058 500.626 152.489 501.945 151.167C503.265 149.845 504.832 148.796 506.557 148.081C508.283 147.366 510.132 146.999 512 147H567.09C568.954 146.999 570.8 147.365 572.523 148.077C574.246 148.79 575.811 149.835 577.13 151.153C578.449 152.47 579.495 154.035 580.209 155.757C580.923 157.48 581.29 159.326 581.29 161.19C581.295 163.06 580.931 164.912 580.219 166.641C579.506 168.37 578.459 169.941 577.138 171.264C575.817 172.587 574.247 173.636 572.519 174.351C570.792 175.066 568.94 175.433 567.07 175.43Z" fill="#A7C1E9"/>
<path d="M602.09 58.86L558.24 25.5C556.756 24.3707 555.509 22.9601 554.57 21.3488C553.632 19.7375 553.019 17.9571 552.769 16.1092C552.518 14.2613 552.634 12.3821 553.109 10.579C553.585 8.77577 554.411 7.08393 555.54 5.60001C556.669 4.11603 558.08 2.86903 559.691 1.93022C561.303 0.991403 563.083 0.379156 564.931 0.128436C566.779 -0.122284 568.658 -0.00656623 570.461 0.468981C572.264 0.944529 573.956 1.77059 575.44 2.90001L619.28 36.26C620.764 37.3893 622.011 38.7999 622.95 40.4112C623.889 42.0225 624.501 43.8029 624.752 45.6508C625.002 47.4987 624.887 49.3779 624.411 51.1811C623.936 52.9842 623.11 54.6761 621.98 56.16C620.852 57.6436 619.442 58.8904 617.832 59.8291C616.221 60.7678 614.442 61.38 612.595 61.6307C610.747 61.8815 608.869 61.7658 607.067 61.2904C605.264 60.815 603.573 59.9891 602.09 58.86Z" fill="#A7C1E9"/>
<path d="M991.59 58.86L1035.44 25.5C1036.92 24.3707 1038.17 22.9601 1039.11 21.3488C1040.05 19.7375 1040.66 17.9571 1040.91 16.1092C1041.16 14.2613 1041.05 12.3821 1040.57 10.579C1040.1 8.77577 1039.27 7.08393 1038.14 5.60001C1037.01 4.11603 1035.6 2.86903 1033.99 1.93022C1032.38 0.991403 1030.6 0.379156 1028.75 0.128436C1026.9 -0.122284 1025.02 -0.00656623 1023.22 0.468981C1021.42 0.944529 1019.72 1.77059 1018.24 2.90001L974.4 36.26C972.915 37.3886 971.667 38.7986 970.727 40.4096C969.788 42.0205 969.174 43.8007 968.923 45.6487C968.671 47.4966 968.786 49.376 969.261 51.1796C969.736 52.9831 970.561 54.6755 971.69 56.16C972.819 57.644 974.23 58.891 975.841 59.8298C977.452 60.7686 979.233 61.3809 981.081 61.6316C982.929 61.8823 984.808 61.7666 986.611 61.291C988.414 60.8155 990.106 59.9894 991.59 58.86Z" fill="#A7C1E9"/>
<path d="M602.09 281.21L558.24 314.58C556.756 315.709 555.509 317.12 554.57 318.731C553.632 320.343 553.019 322.123 552.769 323.971C552.518 325.819 552.634 327.698 553.109 329.501C553.585 331.304 554.411 332.996 555.54 334.48C557.823 337.475 561.2 339.441 564.931 339.948C568.663 340.454 572.442 339.458 575.44 337.18L619.28 303.81C620.764 302.682 622.011 301.272 622.949 299.662C623.888 298.051 624.5 296.272 624.751 294.424C625.002 292.577 624.886 290.699 624.411 288.897C623.935 287.094 623.109 285.403 621.98 283.92C620.853 282.435 619.444 281.186 617.834 280.246C616.224 279.305 614.445 278.692 612.597 278.44C610.75 278.188 608.871 278.303 607.068 278.779C605.265 279.254 603.573 280.08 602.09 281.21Z" fill="#A7C1E9"/>
<path d="M991.59 281.21L1035.44 314.58C1036.92 315.709 1038.17 317.12 1039.11 318.731C1040.05 320.342 1040.66 322.123 1040.91 323.971C1041.16 325.819 1041.05 327.698 1040.57 329.501C1040.1 331.304 1039.27 332.996 1038.14 334.48C1035.86 337.475 1032.48 339.441 1028.75 339.947C1025.02 340.454 1021.24 339.458 1018.24 337.18L974.4 303.81C972.916 302.682 971.668 301.273 970.728 299.663C969.789 298.053 969.176 296.274 968.924 294.426C968.672 292.579 968.787 290.701 969.262 288.898C969.736 287.095 970.561 285.404 971.69 283.92C972.818 282.434 974.227 281.185 975.838 280.245C977.449 279.304 979.23 278.691 981.078 278.439C982.926 278.187 984.806 278.302 986.61 278.778C988.414 279.253 990.106 280.08 991.59 281.21Z" fill="#A7C1E9"/>
<path d="M834.79 863.12C834.79 863.12 822.12 839.21 817.05 813.86C812.64 792.19 812.85 766.32 813.39 752.49C813.418 751.808 813.664 751.154 814.092 750.623C814.521 750.092 815.108 749.713 815.768 749.542C816.428 749.37 817.126 749.415 817.758 749.671C818.391 749.926 818.924 750.378 819.28 750.96C827.28 763.96 841.68 790.2 844.91 813.87C847.238 830.207 848.733 846.651 849.39 863.14L834.79 863.12Z" fill="#7C9AF2"/>
<path d="M848 863.12C848 863.12 856.45 833.89 865.74 814.4C872.49 800.23 887.87 783.25 895.74 775.04C896.063 774.702 896.487 774.478 896.948 774.401C897.409 774.324 897.882 774.397 898.298 774.611C898.714 774.824 899.05 775.166 899.255 775.586C899.461 776.006 899.526 776.481 899.44 776.94C897.44 787.75 892.73 809.06 885.07 823.6C874.43 843.83 856.7 863.12 856.7 863.12H848Z" fill="#7C9AF2"/>
<path d="M804.6 837.19C804.355 836.666 804.266 836.083 804.344 835.51C804.422 834.936 804.665 834.398 805.042 833.96C805.419 833.521 805.915 833.201 806.47 833.038C807.025 832.875 807.616 832.875 808.17 833.04C814.583 835.203 820.497 838.63 825.56 843.12C835.01 851.7 836.77 861.49 836.77 861.49L833.51 862.58C833.51 862.58 815.91 859.38 804.6 837.19Z" fill="#6A86CE"/>
<path d="M870.72 768.86C870.672 768.197 870.421 767.564 870.001 767.048C869.581 766.532 869.012 766.158 868.372 765.977C867.732 765.796 867.051 765.816 866.423 766.035C865.795 766.254 865.249 766.66 864.86 767.2C858.26 776.37 847.19 794.46 843.56 816.64C839.03 844.31 844.31 863.14 844.31 863.14H848C848 863.14 861.75 837.08 867.12 819.42C872.22 802.76 871.57 780.64 870.72 768.86Z" fill="#6A86CE"/>
<path d="M856.76 863.12C856.76 863.12 864.67 836.77 891.76 826.74C892.113 826.611 892.497 826.587 892.863 826.672C893.23 826.757 893.564 826.947 893.824 827.218C894.085 827.489 894.261 827.83 894.331 828.2C894.402 828.57 894.363 828.952 894.22 829.3C890.65 838 880.48 858.79 863.3 863.11L856.76 863.12Z" fill="#6A86CE"/>
<path d="M880.71 858.66H818.07L826.07 922.84H872.63L880.71 858.66Z" fill="#768FDB"/>
<path d="M813.359 908.85V918.06H815.869C816.158 918.06 816.444 918.117 816.711 918.227C816.978 918.338 817.221 918.5 817.425 918.704C817.629 918.909 817.791 919.151 817.902 919.418C818.013 919.685 818.069 919.971 818.069 920.26V920.63C818.071 920.92 818.015 921.207 817.905 921.475C817.795 921.743 817.633 921.987 817.429 922.192C817.224 922.397 816.981 922.56 816.714 922.672C816.446 922.783 816.159 922.84 815.869 922.84H708.999C708.32 922.837 707.668 922.565 707.189 922.084C706.709 921.602 706.439 920.95 706.439 920.27V907C706.439 906.321 706.709 905.67 707.189 905.19C707.669 904.71 708.32 904.44 708.999 904.44H815.869C816.158 904.44 816.444 904.497 816.711 904.607C816.978 904.718 817.221 904.88 817.425 905.084C817.629 905.289 817.791 905.531 817.902 905.798C818.013 906.065 818.069 906.351 818.069 906.64C818.071 906.93 818.015 907.217 817.905 907.485C817.795 907.753 817.633 907.997 817.429 908.202C817.224 908.407 816.981 908.57 816.714 908.682C816.446 908.793 816.159 908.85 815.869 908.85H813.359Z" fill="#FD7166"/>
<path d="M721.23 908.85H813.67V918.06H721.23C720.459 918.06 719.718 917.754 719.173 917.208C718.627 916.662 718.32 915.922 718.32 915.15V911.77C718.319 911.387 718.393 911.008 718.539 910.653C718.685 910.299 718.899 909.977 719.169 909.706C719.439 909.435 719.761 909.219 720.114 909.073C720.468 908.926 720.847 908.85 721.23 908.85Z" fill="white"/>
<path d="M697 889V899.19H694.49C694.185 899.205 693.887 899.281 693.611 899.412C693.335 899.543 693.088 899.727 692.884 899.954C692.679 900.18 692.522 900.445 692.42 900.733C692.318 901.02 692.274 901.325 692.29 901.63V902C692.274 902.305 692.318 902.61 692.42 902.897C692.522 903.185 692.679 903.45 692.884 903.677C693.088 903.903 693.335 904.087 693.611 904.218C693.887 904.349 694.185 904.425 694.49 904.44H801.35C802.066 904.401 802.737 904.081 803.216 903.549C803.696 903.016 803.945 902.316 803.91 901.6V886.92C803.945 886.204 803.696 885.504 803.216 884.972C802.737 884.439 802.066 884.119 801.35 884.08H694.46C694.155 884.095 693.857 884.171 693.581 884.302C693.305 884.433 693.058 884.617 692.854 884.844C692.649 885.07 692.492 885.335 692.39 885.623C692.288 885.91 692.244 886.215 692.26 886.52C692.244 886.825 692.288 887.13 692.39 887.417C692.492 887.705 692.649 887.97 692.854 888.197C693.058 888.423 693.305 888.607 693.581 888.738C693.857 888.869 694.155 888.945 694.46 888.96L697 889Z" fill="#7C9AF2"/>
<path d="M788.95 899.11H696.66V888.92H788.94C789.343 888.92 789.742 888.999 790.115 889.154C790.487 889.308 790.826 889.534 791.111 889.819C791.396 890.104 791.622 890.443 791.776 890.815C791.93 891.187 792.01 891.587 792.01 891.99V896.11C791.994 896.911 791.665 897.674 791.093 898.235C790.52 898.796 789.751 899.11 788.95 899.11Z" fill="white"/>
<path d="M707 858.11H800.13C801.74 858.11 803.283 858.749 804.422 859.888C805.56 861.026 806.2 862.57 806.2 864.18V868.58C806.2 870.187 805.561 871.728 804.425 872.865C803.288 874.001 801.747 874.64 800.14 874.64H707C705.39 874.64 703.846 874 702.708 872.862C701.569 871.724 700.93 870.18 700.93 868.57V864.17C700.93 863.373 701.087 862.584 701.392 861.849C701.697 861.113 702.144 860.444 702.708 859.881C703.272 859.318 703.941 858.872 704.678 858.568C705.414 858.264 706.203 858.109 707 858.11Z" fill="#FD7166"/>
<path d="M808.54 874.64H712.42C709.896 874.64 707.85 876.686 707.85 879.21V879.52C707.85 882.044 709.896 884.09 712.42 884.09H808.54C811.064 884.09 813.11 882.044 813.11 879.52V879.21C813.11 876.686 811.064 874.64 808.54 874.64Z" fill="#768FDB"/>
<path d="M1446.74 480.17C1411.66 470.26 1336.74 501.98 1357.12 629.59C1377.5 757.2 1474.12 736.15 1474.12 736.15C1474.12 736.15 1516.23 722.92 1520.01 641.84C1523.79 560.76 1505.75 496.81 1446.74 480.17Z" fill="black"/>
<path d="M1417.5 635.16C1417.5 635.16 1410.41 707.92 1350.08 745.3C1339.49 742.41 1329.38 717.7 1329.38 717.7L1362.3 638C1362.3 638 1374.1 620.78 1394.93 621.07C1413.07 621.31 1417.5 635.16 1417.5 635.16Z" fill="#D66056"/>
<path d="M1416.27 596.07L1442.42 592.15L1440.34 616.43C1440.34 616.43 1427.1 640.29 1414.53 636.18C1401.96 632.07 1408.09 621.53 1408.09 621.53L1416.27 596.07Z" fill="#F37A50"/>
<path d="M1463.35 556.69C1459.1 585.37 1437.35 605.91 1414.86 602.57C1392.37 599.23 1377.52 573.28 1381.77 544.57C1386.02 515.86 1407.77 495.34 1430.26 498.68C1452.75 502.02 1467.6 528 1463.35 556.69Z" fill="#F37A50"/>
<path d="M1434.46 548.73C1434.13 548.634 1433.85 548.429 1433.66 548.15C1430.74 543.96 1424.87 544.08 1424.81 544.08C1424.61 544.086 1424.42 544.054 1424.23 543.985C1424.05 543.915 1423.88 543.811 1423.73 543.676C1423.59 543.541 1423.47 543.38 1423.39 543.2C1423.31 543.021 1423.27 542.827 1423.26 542.63C1423.25 542.433 1423.29 542.237 1423.35 542.052C1423.42 541.868 1423.53 541.698 1423.66 541.555C1423.8 541.411 1423.96 541.295 1424.14 541.213C1424.32 541.132 1424.51 541.086 1424.71 541.08C1425.02 541.08 1432.25 540.89 1436.11 546.43C1436.33 546.754 1436.42 547.153 1436.35 547.541C1436.28 547.929 1436.06 548.274 1435.74 548.5C1435.56 548.631 1435.35 548.72 1435.13 548.76C1434.9 548.8 1434.68 548.789 1434.46 548.73Z" fill="black"/>
<path d="M1384.23 547.9C1384.08 547.839 1383.94 547.754 1383.81 547.65C1383.51 547.394 1383.32 547.028 1383.28 546.632C1383.25 546.237 1383.37 545.844 1383.63 545.54C1384.85 544.109 1386.44 543.033 1388.22 542.426C1390 541.819 1391.92 541.703 1393.76 542.09C1394.14 542.186 1394.48 542.43 1394.68 542.769C1394.88 543.109 1394.95 543.516 1394.85 543.9C1394.75 544.285 1394.51 544.616 1394.17 544.82C1393.83 545.024 1393.42 545.086 1393.04 544.99C1391.74 544.73 1390.39 544.823 1389.14 545.259C1387.88 545.695 1386.77 546.458 1385.91 547.47C1385.71 547.706 1385.44 547.873 1385.14 547.95C1384.84 548.027 1384.52 548.01 1384.23 547.9Z" fill="black"/>
<path d="M1405 560C1403.13 562.3 1401.51 564.65 1399.65 566.06C1399.36 566.294 1399.16 566.63 1399.11 567C1399.05 567.37 1399.13 567.748 1399.34 568.06C1401.18 570.74 1406.02 572.65 1408.98 573.61C1409.07 573.637 1409.17 573.632 1409.25 573.596C1409.34 573.559 1409.41 573.493 1409.45 573.41C1409.49 573.327 1409.51 573.231 1409.49 573.14C1409.47 573.048 1409.41 572.967 1409.34 572.91C1407.34 571.572 1405.61 569.877 1404.23 567.91C1404.08 567.67 1404 567.4 1403.97 567.12C1403.95 566.841 1403.99 566.56 1404.1 566.3C1404.58 565.08 1405.55 562.61 1406.17 560.57C1406.2 560.423 1406.18 560.27 1406.12 560.136C1406.05 560.001 1405.94 559.892 1405.81 559.826C1405.67 559.76 1405.52 559.742 1405.37 559.773C1405.23 559.805 1405.1 559.885 1405 560Z" fill="#DE623C"/>
<path d="M1423.9 581.7C1424.03 581.506 1424.1 581.278 1424.1 581.045C1424.1 580.812 1424.03 580.584 1423.9 580.389C1423.78 580.194 1423.59 580.041 1423.38 579.949C1423.17 579.857 1422.93 579.829 1422.7 579.87C1415.35 581.314 1407.83 581.765 1400.36 581.21C1400.12 581.182 1399.87 581.23 1399.66 581.346C1399.44 581.462 1399.27 581.642 1399.16 581.86C1399.05 582.078 1399.01 582.325 1399.05 582.567C1399.08 582.808 1399.19 583.033 1399.36 583.21C1400.84 585.133 1402.76 586.664 1404.97 587.67C1407.17 588.677 1409.59 589.127 1412.01 588.982C1414.43 588.837 1416.78 588.101 1418.85 586.838C1420.92 585.576 1422.64 583.825 1423.88 581.74L1423.9 581.7Z" fill="white"/>
<path d="M1472.51 554.06C1445.87 552.85 1410.83 528.27 1406.6 514.76C1410.23 497.76 1423.6 488.18 1439.6 494.49C1455.6 500.8 1481.83 532.27 1472.51 554.06Z" fill="black"/>
<path d="M1412.68 521.59C1412.68 521.59 1396.83 537.71 1380.77 541.39C1386.39 522.59 1390.41 508.34 1400.04 503.73C1406.45 500.826 1413.3 498.995 1420.31 498.31L1412.68 521.59Z" fill="black"/>
<path d="M1457.12 552.23C1452.12 556.88 1451.12 563.95 1454.96 568.04C1458.8 572.13 1465.88 571.67 1470.88 567.04C1475.88 562.41 1476.88 555.32 1473.04 551.23C1469.2 547.14 1462.11 547.59 1457.12 552.23Z" fill="#F37A50"/>
<path d="M1461.42 566.18C1461.2 566.098 1461.01 565.964 1460.86 565.79C1458.56 563.24 1458.1 560.18 1459.62 557.61C1460.38 556.328 1461.52 555.313 1462.88 554.707C1464.24 554.102 1465.76 553.935 1467.22 554.23C1467.41 554.27 1467.6 554.348 1467.77 554.461C1467.93 554.574 1468.07 554.718 1468.18 554.886C1468.29 555.054 1468.36 555.242 1468.39 555.438C1468.43 555.635 1468.42 555.836 1468.37 556.03C1468.33 556.225 1468.24 556.408 1468.13 556.569C1468.01 556.73 1467.86 556.866 1467.69 556.968C1467.52 557.071 1467.33 557.138 1467.13 557.166C1466.93 557.194 1466.73 557.181 1466.54 557.13C1465.7 556.986 1464.83 557.099 1464.05 557.456C1463.27 557.813 1462.62 558.396 1462.18 559.13C1461.34 560.56 1461.65 562.22 1463.08 563.8C1463.34 564.095 1463.48 564.482 1463.46 564.878C1463.44 565.273 1463.26 565.644 1462.97 565.91C1462.76 566.092 1462.51 566.214 1462.23 566.261C1461.96 566.309 1461.68 566.281 1461.42 566.18Z" fill="#DE623C"/>
<path d="M1431.6 553.12C1431.6 554.026 1431.33 554.911 1430.83 555.665C1430.32 556.418 1429.61 557.005 1428.77 557.351C1427.94 557.698 1427.01 557.789 1426.13 557.612C1425.24 557.435 1424.42 556.999 1423.78 556.359C1423.14 555.718 1422.7 554.902 1422.53 554.014C1422.35 553.125 1422.44 552.204 1422.79 551.367C1423.13 550.53 1423.72 549.815 1424.47 549.312C1425.23 548.809 1426.11 548.54 1427.02 548.54C1428.23 548.54 1429.4 549.023 1430.26 549.882C1431.12 550.74 1431.6 551.905 1431.6 553.12Z" fill="black"/>
<path d="M1398.24 553.12C1398.24 554.026 1397.97 554.911 1397.47 555.665C1396.97 556.418 1396.25 557.005 1395.41 557.351C1394.58 557.698 1393.66 557.789 1392.77 557.612C1391.88 557.435 1391.06 556.999 1390.42 556.359C1389.78 555.718 1389.34 554.902 1389.17 554.014C1388.99 553.125 1389.08 552.204 1389.43 551.367C1389.78 550.53 1390.36 549.815 1391.12 549.312C1391.87 548.809 1392.75 548.54 1393.66 548.54C1394.87 548.54 1396.04 549.023 1396.9 549.882C1397.76 550.74 1398.24 551.905 1398.24 553.12Z" fill="black"/>
<path d="M1391.79 1145.73C1393.54 1128.26 1384.53 995.34 1384.53 995.34C1359.04 878.48 1369.05 794.83 1369.05 794.83L1412.86 797.91L1430.12 863.91L1421.93 974.18C1421.93 974.18 1425.01 982.67 1426.63 989.46C1435.42 1026.27 1426.63 1070.27 1421.25 1099.59C1418.74 1113.18 1414.83 1141.74 1414.73 1148.23L1425.73 1162.45C1425.73 1162.45 1385.9 1206.53 1379.73 1206.81C1367.82 1207.34 1371.33 1195.55 1371.33 1195.55C1387.75 1178.78 1391.29 1150.73 1391.79 1145.73Z" fill="#F37A50"/>
<path d="M1426.42 1178.11L1424.23 1206.43L1419.14 1206.66L1416.56 1180.36C1403.01 1183.82 1393.31 1208.41 1393.31 1208.41C1383.97 1211.75 1360.25 1214.05 1351.81 1209.7C1349.81 1201.42 1371.42 1195.62 1371.42 1195.62C1373.37 1197.94 1384.93 1199.71 1389.03 1197.23C1404.14 1184.37 1411.51 1165.66 1414.73 1148.23C1414.73 1148.27 1438.61 1149.93 1426.42 1178.11Z" fill="#FD7166"/>
<path d="M1406.6 803.33L1468.31 794.83C1491.91 848.24 1499.61 941.23 1506.02 974.35C1531.74 1017.48 1539.91 1148.27 1539.91 1148.27L1550.91 1162.49C1550.91 1162.49 1511.08 1206.57 1504.91 1206.85C1493 1207.38 1496.51 1195.59 1496.51 1195.59C1512.88 1178.78 1516.07 1156.45 1517.13 1151.53C1518.72 1144.15 1467.13 999.06 1467.13 999.06L1461.63 985.29C1398.63 881.29 1388.35 802.71 1388.35 802.71L1406.6 803.33Z" fill="#F37A50"/>
<path d="M1551.59 1178.11L1549.4 1206.43L1544.31 1206.66L1541.74 1180.36C1528.19 1183.82 1518.48 1208.41 1518.48 1208.41C1509.15 1211.75 1485.48 1214.05 1476.98 1209.7C1474.98 1201.42 1496.59 1195.62 1496.59 1195.62C1498.59 1197.94 1510.1 1199.71 1514.21 1197.23C1529.32 1184.37 1536.69 1165.66 1539.91 1148.23C1539.91 1148.27 1563.78 1149.93 1551.59 1178.11Z" fill="#FD7166"/>
<path d="M1521.32 968.28C1515.16 947.67 1517.84 800.08 1463.44 759.95L1369.82 769.82C1348.19 804.82 1356.12 895.95 1363.41 970.94C1407.43 986.66 1442.42 993 1521.32 968.28Z" fill="#070635"/>
<path d="M1368.68 746.72C1368.68 726.21 1350.91 695.5 1359.43 674.8C1365.63 658.16 1377.82 620.59 1391.1 618.06C1396.49 617.06 1402.41 618.06 1409.87 616C1409.87 616 1405.97 633.39 1414.74 634.09C1431.63 635.45 1440.5 613.8 1440.5 613.8C1449.6 612.93 1481.35 622.41 1481.33 625.8C1481.23 652.66 1473.2 689.92 1466.07 718.95C1464.74 733.74 1468.15 745.69 1469.64 754.06C1472.34 762.78 1476.75 772.41 1476.78 774.29C1476.78 774.29 1406.93 796.6 1367.12 774.68C1367.12 774.71 1368.68 760.56 1368.68 746.72Z" fill="#FD7166"/>
<path d="M1414.74 634.09C1413.24 641.09 1417.32 649.54 1429.09 645.59C1443.18 640.86 1449.76 614.41 1449.76 614.41L1440.93 609.62C1440.93 609.62 1434.22 627.89 1414.74 634.09Z" fill="white"/>
<path d="M1414.74 634.09C1413 637.71 1403.09 646.99 1398.39 641.46C1393.69 635.93 1400.79 617.46 1400.79 617.46L1410.07 614.8C1410.07 614.8 1405.68 629.07 1414.74 634.09Z" fill="white"/>
<path d="M1480.85 624.67C1480.85 624.67 1534.19 690.53 1525.76 723.84C1502.4 740.95 1490.51 721.05 1490.51 721.05L1459.51 670.16C1459.51 670.16 1446.51 652.43 1456.37 635.01C1464.9 619.83 1480.85 624.67 1480.85 624.67Z" fill="#D66056"/>
<path d="M1408.76 774H1385.16C1384.23 773.999 1383.34 773.645 1382.66 773.01C1381.99 772.375 1381.58 771.506 1381.52 770.58L1378.09 716C1378.07 715.7 1378.11 715.398 1378.21 715.115C1378.32 714.832 1378.48 714.572 1378.68 714.353C1378.89 714.134 1379.14 713.959 1379.41 713.84C1379.69 713.721 1379.99 713.659 1380.29 713.66H1413.78C1414.08 713.655 1414.38 713.713 1414.66 713.831C1414.94 713.948 1415.19 714.122 1415.4 714.342C1415.61 714.562 1415.77 714.823 1415.88 715.109C1415.98 715.394 1416.02 715.697 1416 716L1412.43 770.52C1412.39 771.463 1411.98 772.352 1411.3 773.001C1410.61 773.651 1409.7 774.009 1408.76 774Z" fill="white"/>
<path d="M1413.3 728.48L1410.77 769.06C1410.73 769.901 1410.38 770.696 1409.78 771.284C1409.17 771.873 1408.37 772.211 1407.53 772.23H1386.53C1385.69 772.21 1384.88 771.869 1384.28 771.277C1383.68 770.684 1383.32 769.884 1383.29 769.04L1381 729.47C1385.27 727.95 1391.2 727.06 1397 730.14C1402.54 733.05 1410.2 730 1413.3 728.48Z" fill="#809DF2"/>
<path d="M1429.33 743.11C1429.33 743.11 1466.09 725.41 1478.12 718.66C1490.7 711.59 1505.89 702.21 1525.76 723.84C1519.63 747.6 1490.26 761.14 1428.76 760.2C1429.4 754.527 1429.59 748.813 1429.33 743.11Z" fill="#F37A50"/>
<path d="M1429.33 743.11C1421.92 739.78 1420.73 726.51 1415.04 729.51C1414.75 735.51 1414.5 737.98 1414.36 741.24C1414.18 745.52 1387.03 742.78 1379.36 740.66C1373.26 746.57 1373.36 753.54 1378.59 762.36C1382.88 769.6 1398.03 778.68 1428.75 760.2C1431.26 750.09 1429.33 743.11 1429.33 743.11Z" fill="#F37A50"/>
<path d="M1260.57 763.82C1260.57 763.82 1317.97 720.17 1331.57 717.7C1337.57 716.61 1344.12 730.2 1350.11 745.3C1330.37 762.3 1301.6 775.48 1262.66 780.79C1262.41 775.087 1261.71 769.413 1260.57 763.82Z" fill="#F37A50"/>
<path d="M1251.24 792.78C1255.85 788.26 1258.65 780.98 1265.52 780.36L1268.71 768.64L1263.53 762.92C1243.2 759.3 1221.65 775.74 1219.71 777.54C1214.71 782.22 1212.01 784.11 1212.33 785.12C1212.65 786.13 1216.06 791.47 1223.61 784.89C1233.09 776.63 1234.94 789.47 1210.91 801.89C1204.91 805 1199.19 815.89 1205.52 815.83C1212.5 815.73 1230.25 813.35 1251.24 792.78Z" fill="#F37A50"/>
<path d="M1721.92 585.46H1683.16C1641.09 585.46 1606.99 619.562 1606.99 661.63V767.48C1606.99 809.547 1641.09 843.65 1683.16 843.65H1721.92C1763.99 843.65 1798.09 809.547 1798.09 767.48V661.63C1798.09 619.562 1763.99 585.46 1721.92 585.46Z" fill="#809DF2"/>
<path d="M1797.3 641.43H1607.79C1606.13 641.43 1604.54 640.771 1603.36 639.597C1602.19 638.423 1601.53 636.83 1601.53 635.17C1601.53 633.51 1602.19 631.918 1603.36 630.744C1604.54 629.57 1606.13 628.91 1607.79 628.91H1797.3C1798.12 628.91 1798.94 629.072 1799.69 629.387C1800.45 629.702 1801.14 630.163 1801.72 630.744C1802.3 631.326 1802.76 632.016 1803.08 632.775C1803.39 633.535 1803.55 634.349 1803.55 635.17C1803.55 635.992 1803.39 636.806 1803.08 637.565C1802.76 638.324 1802.3 639.015 1801.72 639.596C1801.14 640.177 1800.45 640.639 1799.69 640.953C1798.94 641.268 1798.12 641.43 1797.3 641.43Z" fill="#768FDB"/>
<path d="M1797.3 800.19H1607.79C1606.13 800.19 1604.54 799.531 1603.36 798.357C1602.19 797.183 1601.53 795.59 1601.53 793.93C1601.53 793.109 1601.69 792.295 1602.01 791.536C1602.32 790.777 1602.78 790.088 1603.36 789.507C1603.95 788.927 1604.64 788.467 1605.4 788.153C1606.15 787.84 1606.97 787.679 1607.79 787.68H1797.3C1798.96 787.68 1800.55 788.339 1801.72 789.511C1802.89 790.683 1803.55 792.273 1803.55 793.93C1803.55 794.752 1803.39 795.566 1803.08 796.325C1802.76 797.084 1802.3 797.775 1801.72 798.356C1801.14 798.938 1800.45 799.399 1799.69 799.714C1798.94 800.028 1798.12 800.19 1797.3 800.19Z" fill="#768FDB"/>
<path d="M1728.33 841.77H1676.75V851.34H1728.33V841.77Z" fill="#809DF2"/>
<path d="M1767.63 851.34H1639.97C1623.25 851.34 1609.7 864.892 1609.7 881.61V1174.31C1609.7 1191.03 1623.25 1204.58 1639.97 1204.58H1767.63C1784.35 1204.58 1797.9 1191.03 1797.9 1174.31V881.61C1797.9 864.892 1784.35 851.34 1767.63 851.34Z" fill="#B4C2F0"/>
<path d="M1760.18 889.56H1648.87C1639.49 889.56 1631.88 897.167 1631.88 906.55V1001.72C1631.88 1011.1 1639.49 1018.71 1648.87 1018.71H1760.18C1769.56 1018.71 1777.17 1011.1 1777.17 1001.72V906.55C1777.17 897.167 1769.56 889.56 1760.18 889.56Z" fill="#768FDB"/>
<path d="M1757.93 898.72H1651.12C1646.18 898.72 1642.18 902.722 1642.18 907.66V1000.61C1642.18 1005.55 1646.18 1009.55 1651.12 1009.55H1757.93C1762.87 1009.55 1766.87 1005.55 1766.87 1000.61V907.66C1766.87 902.722 1762.87 898.72 1757.93 898.72Z" fill="#B4C2F0"/>
<path d="M1686.61 933.34C1686.61 935.664 1685.92 937.934 1684.62 939.865C1683.33 941.796 1681.5 943.301 1679.35 944.189C1677.2 945.076 1674.84 945.308 1672.56 944.853C1670.28 944.399 1668.19 943.279 1666.55 941.635C1664.91 939.991 1663.79 937.898 1663.33 935.619C1662.88 933.34 1663.12 930.978 1664 928.831C1664.89 926.685 1666.4 924.85 1668.33 923.56C1670.26 922.269 1672.54 921.58 1674.86 921.58C1676.4 921.58 1677.93 921.884 1679.36 922.475C1680.78 923.067 1682.08 923.933 1683.17 925.025C1684.26 926.117 1685.13 927.414 1685.72 928.84C1686.31 930.267 1686.61 931.796 1686.61 933.34Z" fill="#08074D"/>
<path d="M1674.86 955.49C1673.71 955.49 1672.6 955.032 1671.78 954.216C1670.97 953.4 1670.51 952.294 1670.51 951.14V940.53C1670.51 939.377 1670.97 938.27 1671.78 937.454C1672.6 936.639 1673.71 936.18 1674.86 936.18C1676.01 936.18 1677.12 936.639 1677.94 937.454C1678.75 938.27 1679.21 939.377 1679.21 940.53V951.14C1679.21 952.294 1678.75 953.4 1677.94 954.216C1677.12 955.032 1676.01 955.49 1674.86 955.49Z" fill="#08074D"/>
<path d="M1680.23 909.08V923.46C1680.23 924.599 1679.78 925.691 1678.97 926.497C1678.17 927.303 1677.08 927.758 1675.94 927.76H1673.79C1672.65 927.758 1671.56 927.304 1670.75 926.498C1669.95 925.692 1669.49 924.6 1669.49 923.46V909.08C1669.49 907.94 1669.94 906.846 1670.75 906.04C1671.56 905.233 1672.65 904.78 1673.79 904.78H1675.94C1676.5 904.78 1677.06 904.892 1677.58 905.108C1678.11 905.324 1678.58 905.641 1678.98 906.04C1679.38 906.44 1679.69 906.914 1679.91 907.435C1680.12 907.957 1680.23 908.516 1680.23 909.08Z" fill="white"/>
<path d="M1680.23 909.08V914.33H1669.49V909.08C1669.49 907.94 1669.94 906.846 1670.75 906.04C1671.56 905.233 1672.65 904.78 1673.79 904.78H1675.94C1676.5 904.78 1677.06 904.892 1677.58 905.108C1678.11 905.324 1678.58 905.641 1678.98 906.04C1679.38 906.44 1679.69 906.914 1679.91 907.435C1680.12 907.957 1680.23 908.516 1680.23 909.08Z" fill="#FD7166"/>
<path d="M1738 933.34C1738 935.666 1737.31 937.94 1736.02 939.875C1734.72 941.809 1732.89 943.316 1730.74 944.206C1728.59 945.096 1726.22 945.328 1723.94 944.873C1721.66 944.419 1719.56 943.298 1717.92 941.652C1716.28 940.006 1715.16 937.91 1714.7 935.628C1714.25 933.346 1714.49 930.981 1715.38 928.833C1716.27 926.684 1717.78 924.848 1719.71 923.557C1721.65 922.266 1723.92 921.578 1726.25 921.58C1727.79 921.58 1729.32 921.884 1730.75 922.475C1732.17 923.067 1733.47 923.933 1734.56 925.025C1735.65 926.117 1736.52 927.414 1737.11 928.84C1737.7 930.267 1738 931.796 1738 933.34Z" fill="#08074D"/>
<path d="M1726.26 955.49C1725.11 955.49 1724 955.032 1723.18 954.217C1722.36 953.401 1721.9 952.295 1721.9 951.14V940.53C1721.9 939.376 1722.36 938.269 1723.18 937.454C1724 936.638 1725.11 936.18 1726.26 936.18C1727.41 936.18 1728.52 936.639 1729.34 937.454C1730.15 938.27 1730.61 939.377 1730.61 940.53V951.14C1730.61 952.294 1730.15 953.4 1729.34 954.216C1728.52 955.032 1727.41 955.49 1726.26 955.49Z" fill="#08074D"/>
<path d="M1731.63 909.08V923.46C1731.63 924.6 1731.17 925.692 1730.37 926.498C1729.56 927.304 1728.47 927.758 1727.33 927.76H1725.19C1724.05 927.76 1722.95 927.308 1722.15 926.501C1721.34 925.695 1720.88 924.602 1720.88 923.46V909.08C1720.88 908.515 1720.99 907.955 1721.21 907.432C1721.42 906.91 1721.74 906.436 1722.14 906.036C1722.54 905.637 1723.02 905.32 1723.54 905.105C1724.06 904.889 1724.62 904.779 1725.19 904.78H1727.33C1728.47 904.78 1729.56 905.233 1730.37 906.04C1731.18 906.846 1731.63 907.94 1731.63 909.08Z" fill="white"/>
<path d="M1731.63 909.08V914.33H1720.88V909.08C1720.88 908.515 1720.99 907.955 1721.21 907.432C1721.42 906.91 1721.74 906.436 1722.14 906.036C1722.54 905.637 1723.02 905.32 1723.54 905.105C1724.06 904.889 1724.62 904.779 1725.19 904.78H1727.33C1728.47 904.78 1729.56 905.233 1730.37 906.04C1731.18 906.846 1731.63 907.94 1731.63 909.08Z" fill="#809DF2"/>
<path d="M1766.87 1000.61C1766.87 1001.78 1766.64 1002.95 1766.19 1004.03C1765.74 1005.12 1765.08 1006.1 1764.25 1006.93C1763.42 1007.76 1762.44 1008.42 1761.35 1008.87C1760.27 1009.32 1759.1 1009.55 1757.93 1009.55H1651.12C1648.75 1009.55 1646.47 1008.61 1644.8 1006.93C1643.12 1005.25 1642.18 1002.98 1642.18 1000.61H1766.87Z" fill="#08074D"/>
<path d="M1771.72 1056.8H1636.31C1634.84 1056.8 1633.43 1056.22 1632.4 1055.18C1631.36 1054.14 1630.77 1052.74 1630.77 1051.27C1630.77 1049.8 1631.35 1048.39 1632.39 1047.35C1633.43 1046.31 1634.84 1045.73 1636.31 1045.73H1771.72C1772.45 1045.73 1773.17 1045.87 1773.84 1046.15C1774.51 1046.43 1775.12 1046.84 1775.63 1047.35C1776.15 1047.87 1776.55 1048.48 1776.83 1049.15C1777.11 1049.82 1777.25 1050.54 1777.25 1051.27C1777.25 1052.74 1776.67 1054.14 1775.63 1055.18C1774.59 1056.22 1773.19 1056.8 1771.72 1056.8Z" fill="#768FDB"/>
<path d="M1670.82 771.13C1674.52 771.13 1677.52 768.13 1677.52 764.43C1677.52 760.73 1674.52 757.73 1670.82 757.73C1667.12 757.73 1664.12 760.73 1664.12 764.43C1664.12 768.13 1667.12 771.13 1670.82 771.13Z" fill="#9EB7FF"/>
<path d="M1659.27 737.87C1660.13 737.917 1660.94 738.292 1661.53 738.918C1662.13 739.544 1662.46 740.373 1662.46 741.235C1662.46 742.097 1662.13 742.926 1661.53 743.552C1660.94 744.178 1660.13 744.553 1659.27 744.6C1658.83 744.601 1658.39 744.513 1657.98 744.341C1657.57 744.169 1657.2 743.917 1656.89 743.6C1656.42 743.13 1656.1 742.531 1655.97 741.878C1655.84 741.225 1655.9 740.548 1656.16 739.933C1656.41 739.318 1656.85 738.793 1657.4 738.424C1657.95 738.055 1658.6 737.858 1659.27 737.86V737.87ZM1659.27 735.69C1657.99 735.691 1656.75 736.137 1655.76 736.951C1654.77 737.765 1654.09 738.897 1653.84 740.154C1653.59 741.411 1653.79 742.716 1654.39 743.846C1655 744.975 1655.97 745.86 1657.16 746.35C1658.34 746.839 1659.66 746.903 1660.89 746.53C1662.11 746.157 1663.17 745.371 1663.88 744.304C1664.6 743.238 1664.91 741.958 1664.79 740.683C1664.66 739.408 1664.1 738.216 1663.19 737.31C1662.68 736.795 1662.06 736.387 1661.39 736.109C1660.72 735.831 1660 735.689 1659.27 735.69Z" fill="#9EB7FF"/>
<path d="M1717.14 727.45C1718.08 728.387 1718.72 729.581 1718.98 730.881C1719.23 732.181 1719.1 733.528 1718.6 734.753C1718.09 735.977 1717.23 737.024 1716.13 737.761C1715.03 738.497 1713.73 738.891 1712.41 738.891C1711.08 738.891 1709.78 738.497 1708.68 737.761C1707.58 737.024 1706.72 735.977 1706.21 734.753C1705.71 733.528 1705.58 732.181 1705.83 730.881C1706.09 729.581 1706.73 728.387 1707.67 727.45C1708.29 726.828 1709.03 726.334 1709.84 725.997C1710.65 725.66 1711.53 725.486 1712.41 725.486C1713.28 725.486 1714.16 725.66 1714.97 725.997C1715.78 726.334 1716.52 726.828 1717.14 727.45Z" fill="#9EB7FF"/>
<path d="M1740.43 677.74C1741.37 678.677 1742.01 679.87 1742.27 681.17C1742.53 682.47 1742.39 683.818 1741.89 685.042C1741.38 686.267 1740.52 687.314 1739.42 688.05C1738.32 688.787 1737.02 689.18 1735.7 689.18C1734.37 689.18 1733.07 688.787 1731.97 688.05C1730.87 687.314 1730.01 686.267 1729.5 685.042C1729 683.818 1728.87 682.47 1729.12 681.17C1729.38 679.87 1730.02 678.677 1730.96 677.74C1732.22 676.487 1733.92 675.784 1735.7 675.784C1737.47 675.784 1739.17 676.487 1740.43 677.74Z" fill="#9EB7FF"/>
<path d="M1722.74 824.6C1723.4 825.259 1723.85 826.098 1724.03 827.012C1724.21 827.925 1724.11 828.871 1723.76 829.731C1723.4 830.591 1722.79 831.326 1722.02 831.843C1721.25 832.36 1720.34 832.636 1719.41 832.636C1718.47 832.636 1717.56 832.36 1716.79 831.843C1716.02 831.326 1715.41 830.591 1715.06 829.731C1714.7 828.871 1714.6 827.925 1714.78 827.012C1714.97 826.098 1715.41 825.259 1716.07 824.6C1716.51 824.161 1717.03 823.813 1717.6 823.576C1718.17 823.338 1718.79 823.216 1719.41 823.216C1720.02 823.216 1720.64 823.338 1721.21 823.576C1721.78 823.813 1722.3 824.161 1722.74 824.6Z" fill="#9EB7FF"/>
<path d="M1729.24 815.03C1731.84 815.03 1733.95 812.921 1733.95 810.32C1733.95 807.719 1731.84 805.61 1729.24 805.61C1726.64 805.61 1724.53 807.719 1724.53 810.32C1724.53 812.921 1726.64 815.03 1729.24 815.03Z" fill="#9EB7FF"/>
<path d="M1681.26 613.41C1681.92 614.07 1682.37 614.911 1682.55 615.827C1682.74 616.743 1682.64 617.692 1682.29 618.555C1681.93 619.418 1681.32 620.155 1680.55 620.674C1679.77 621.193 1678.86 621.47 1677.93 621.47C1676.99 621.47 1676.08 621.193 1675.3 620.674C1674.53 620.155 1673.92 619.418 1673.56 618.555C1673.21 617.692 1673.11 616.743 1673.3 615.827C1673.48 614.911 1673.93 614.07 1674.59 613.41C1675.47 612.527 1676.67 612.03 1677.93 612.03C1679.18 612.03 1680.38 612.527 1681.26 613.41Z" fill="#9EB7FF"/>
</svg>
