<svg xmlns="http://www.w3.org/2000/svg" viewBox="0 0 2551.48 1307.96"><defs><style>.cls-1{fill:#dde8fd;}.cls-2{fill:#fa7269;}.cls-3{fill:#6d89cf;}.cls-4{fill:#3662c1;}.cls-5{fill:#af4e4e;}.cls-6{fill:#e75755;}.cls-7{fill:#a83f3f;}.cls-8{fill:#93b3f4;}.cls-9{fill:#3e4dce;}.cls-10{fill:#bed2fa;}.cls-11{fill:#ef7674;}.cls-12{fill:#fc9796;}.cls-13{fill:#ea8888;}.cls-14{fill:#0b0754;}.cls-15{fill:#060632;}.cls-16{fill:#fc9290;}.cls-17{fill:#9e332e;}.cls-18{fill:#ed6966;}.cls-19{fill:#120e59;}.cls-20{fill:#010117;}</style></defs><g id="Layer_2" data-name="Layer 2"><g id="_Layer_" data-name="&lt;Layer&gt;"><path class="cls-1" d="M127.45,1307.56S-146.64,723.88,393.56,723.88c285.42,0,167.84-160.14,361.89-345.47S1628.13,45,1772.57,402.89,1560,1032.5,1905,985.89c414.5-56,578.24,321.67,578.24,321.67Z"/><path class="cls-2" d="M2347.3,1233.5c-25.58-18.69-77.84-6.07-116.42,7.43a176,176,0,0,0-21.2-24.6c83.1-53.53,197.87-167.69,137-177.36-52.88-8.4-124.25,94.36-162.38,156.91-39.61-26.64-100.3-46.23-193-39.43-240.47,17.63-428.32-137.48-566.79-85.75-110.1,41.13-211,64.18-308.31,56.3,4.19-71.08,5.1-210.65-50.72-225.13-56.67-14.7-1.08,143.8,29.81,222.95q-10.87-1.39-21.7-3.32c-20-39.45-53-91.07-89.17-92.83-34.09-1.67,8,44.74,49.39,84.06-119-25-260.16,71.75-262.5,186.12H2257s-2.63-16.69-14.29-38.7C2300.17,1259,2375.08,1253.81,2347.3,1233.5Z"/><rect class="cls-3" x="703.91" y="1210.45" width="391.56" height="88.42"/><rect class="cls-4" x="583.18" y="1210.45" width="391.56" height="88.42"/><rect class="cls-5" x="1249.51" y="891.33" width="291.56" height="407.53" transform="translate(2790.57 2190.18) rotate(180)"/><rect class="cls-6" x="1159.61" y="891.33" width="291.56" height="407.53" transform="translate(2610.77 2190.18) rotate(180)"/><polygon class="cls-7" points="1451.17 891.33 1541.07 952.52 1541.07 891.33 1451.17 891.33"/><path class="cls-8" d="M551.15,981.6s-54.53,40.54-65.16,38.08,39.85-43.76,39.85-43.76c-19-9.14-78.05-3.41-78.05-3.41s-19.66,63.43-29.36,58.43,20.28-55.28,20.28-55.28c-21.16-1.27-47.11,14.44-47.11,14.44-35.52,28,2.34,72.22,2.34,72.22s-7.29,21.83-29.73,41.72c0,0-32,23.69-34.26,66l5.81.52s9.22-39.43,26-58.08c.65-.68,1.6-1.65,2.77-2.83,2.73-2.52,4.64-4.42,5.93-5.83,8.33-8,19.86-18.22,25.41-19.21a10.67,10.67,0,0,1-.24-2.79c.08.89.15,1.81.24,2.79,1.9,22.32,45.21,41.82,71.85,45.83s18.4-6.94,9.22-23.18-38.23-23.51-44.85-31,7.07-7.5,23.12-.17,18.25,26.88,44,39.21,64.49-30.4,64.49-30.4c-20.52-1-49.83-23.33-48.77-30.14s49.75,11.76,58.07,12.65,27.27-9.46,30.19-43S551.15,981.6,551.15,981.6Z"/><path class="cls-8" d="M261.57,1006.77s60.22-33.72,32.12-79.49c0,0-22.48-28.11-46.57-35.33,0,0,12.84,68.25,0,69.86s-8.84-77.09-8.84-77.09-63.43-30.51-88.32-28.1c0,0,39.34,66.64,26.49,65s-57-69.06-57-69.06-65-12-75.48,26.5S50.39,936.92,60,939.32s71.47,1.61,69.86,9.64-43.36,20.88-66.65,13.65c0,0,25.7,63.43,59.42,60.22s44.17-24.09,65-25.69,36.13,4,25.69,9.63-45.77,1.85-62.63,16.18-30.51,23.17.8,29.59,87.53,2.41,98.77-21.68Z"/><path class="cls-9" d="M277.63,1065.39c-16.86-31.32-16.06-58.62-16.06-58.62-19.27-61-187.9-115.63-187.9-115.63,214.4,86.73,176.66,139.72,176.66,139.72,5.77,3.37,14.44,19.44,20.45,31.77.86,2.1,2.21,5,4.23,8.95h0c.81,1.78,1.47,3.24,1.92,4.26,11,27.62,5.19,75.31,5.19,75.31l6.69,1.8C303.63,1104.88,277.63,1065.39,277.63,1065.39Z"/><path class="cls-10" d="M357.38,960.26S278,915.81,315,855.47c0,0,29.64-37,61.39-46.57,0,0-16.93,90,0,92.09s11.64-101.62,11.64-101.62,83.62-40.22,116.44-37c0,0-51.87,87.85-34.93,85.73s75.15-91,75.15-91,85.73-15.88,99.5,34.92-8.47,76.21-21.17,79.39-94.21,2.12-92.09,12.7,57.16,27.52,87.85,18c0,0-33.87,83.62-78.32,79.38s-58.22-31.75-85.74-33.87-47.63,5.29-33.87,12.7,60.33,2.43,82.56,21.33,40.22,30.54-1.06,39S387,1023.77,372.2,992Z"/><path class="cls-9" d="M605.06,807.84s-222.28,72-247.68,152.42c0,0,1.06,36-21.17,77.27,0,0-34.28,52-14.74,115.42l8.82-2.37s-7.71-62.87,6.85-99.28c.59-1.34,1.45-3.26,2.53-5.61h0c2.65-5.2,4.44-9,5.57-11.79,7.92-16.26,19.34-37.44,27-41.88C372.2,992,322.45,922.16,605.06,807.84Z"/><path class="cls-11" d="M354.7,1290.36a155.5,155.5,0,0,0,155.51-155.5h-311A155.5,155.5,0,0,0,354.7,1290.36Z"/><path class="cls-12" d="M393,1289.17a155.61,155.61,0,0,1-174.82-154.32h38.63A155.53,155.53,0,0,0,393,1289.17Z"/><path class="cls-11" d="M493.17,1279.67H216.24a19.19,19.19,0,0,0-19.19,19.18h315.3A19.18,19.18,0,0,0,493.17,1279.67Z"/><path class="cls-5" d="M511.36,1134.85H196.47a2.39,2.39,0,0,0,0,4.77H511.36a2.39,2.39,0,0,0,0-4.77Z"/><path class="cls-13" d="M1711.31,316c-4.51-.68-18.09,11.87-18.09,11.87h0c-29,3.35-71.4,11.06-86.67,14-10.82,2.09-39.92-7.83-68.35-19.22-33.8-13.56-66.65-29.19-66.65-29.19-18.76-1-40.07,33.27-2,55,5.8,3.32,27.62,9,52.75,14.17h0c34.66,7.14,75.61,13.34,89.54,11.17,16.2-2.54,62-19.3,89.29-32.14h0l.07,0,.3-.14c1.64-.76,8.31-3.74,12.77-3.47,5.1.3,16.48-9.05,16.83-11.54S1715.82,316.68,1711.31,316Z"/><path class="cls-14" d="M1675.9,747.15l-16,3.24s-73.08-82.1-84.35-116.65c-6-18.47-44.61-26.45-84.93-36.87-35.09-9.07-71.5-20-88.89-41.33-37.37-45.83,23.47-102.14,23.47-102.14s64.7,38.45,120.5,78.17c39,27.76,73.69,56.14,78.91,72.45C1637.33,643.69,1664.23,719.08,1675.9,747.15Z"/><path class="cls-15" d="M1654.52,774.23h9c3-.47,5.23-1.34,8.31-1.74,4.69-.62,6.85,1.3,7.28,1.74l.08.09h38.15c1-1.37,0-4.54-.86-6.88a5.41,5.41,0,0,0-3.57-3.26c-4.05-1.18-12-2.22-19.33-8.83-4.11-3.72-19.84-13.66-19.84-13.66l-.09,0c-.34,0-2,.51-9.15,6.56-3.7,3.12-10-4.41-10-4.41a8.9,8.9,0,0,0-2.07,2.81,9.49,9.49,0,0,0-.82,5.86c.57,3.43-1.27,9.82-2.74,14.14-.88,2.62-1.63,4.48-1.63,4.48S1646.8,773.27,1654.52,774.23Z"/><path class="cls-15" d="M1545.73,531.57l-55.08,65.3c-35.09-9.07-71.5-20-88.89-41.33-37.37-45.83,23.47-102.14,23.47-102.14S1489.93,491.85,1545.73,531.57Z"/><path class="cls-14" d="M1495.68,497.47s-4.45,14-11.67,35.07c-9.15,26.64-22.76,64.58-37.53,99.75-3.25,7.73-6.55,15.33-9.88,22.65-12.28,27.07-24.85,50.28-35.92,62.07-19.9,21.2-68.25,157.49-68.25,157.49l-12-3.34s-16.8-116.37,42.71-182.6a4.19,4.19,0,0,0,1.2-2.47,0,0,0,0,0,0,0c.79-9.8,3.63-53.7,9.79-98.18,1.51-10.91,3.23-21.85,5.15-32.34.12-.67.25-1.33.37-2,9.06-48.47,17.73-70,28.92-80.88l82.28,23.42Z"/><path class="cls-15" d="M1319,891.24h9c3-.48,5.23-1.35,8.32-1.75,4.69-.61,6.84,1.3,7.27,1.75a.61.61,0,0,1,.09.09h38.15c1-1.37,0-4.55-.86-6.88a5.41,5.41,0,0,0-3.58-3.27c-4-1.17-12-2.22-19.32-8.83-4.11-3.71-19.85-13.65-19.85-13.65l-.08,0c-.35,0-2,.51-9.15,6.55-3.7,3.12-10-4.4-10-4.4a9.1,9.1,0,0,0-2.07,2.8,9.56,9.56,0,0,0-.81,5.86c.57,3.44-1.27,9.83-2.74,14.15-.89,2.62-1.64,4.47-1.64,4.47S1311.3,890.27,1319,891.24Z"/><path class="cls-16" d="M1336.68,339.19s-13.77,33.68-29.64,66.46c-13.35,27.56-28.19,54.49-37.59,60.23-13.27,8.11-49.8,31-73.5,48,0,0-18.5-.14-21.37,3.4s-9.51,19.45-7.57,21.06,16.64.86,20.21-2.8c3.12-3.19,10-5.49,11.78-6l.32-.1.07,0h0c28.8-8.86,74-27.32,87.66-36.35,11.77-7.77,37.87-39.93,58.7-68.54h0c15.09-20.74,27.41-39.62,29.47-46C1388.7,336.82,1349.91,325.86,1336.68,339.19Z"/><path class="cls-14" d="M1408.68,207.12a72.08,72.08,0,0,0-4.93-6.37,15.61,15.61,0,0,0,6.07-.91c4.83-2,7-17.34,6.31-21.89s-7.43-17.71-15.71-19-16.83,7.88-16.83,7.88c1.53-6.64,15.53-10.46,15.53-10.46-28.85,5.31-27.38,24.56-27.18,26.33C1345.54,173.27,1330,223,1330,223l68.4,40.31s.18-11,6.71-10.27C1415.32,254.14,1423.79,229.15,1408.68,207.12Z"/><path class="cls-16" d="M1413,311.46c-15.7,7.4-36.53-3.25-36.41-3.37,1.34-1.34.87-5.37-.36-10.64-1.24-5.49-4.15-13-9.53-22-1.12-1.91-2.25-3.81-3.59-5.83l1.79-.67,30.5-12.22s4.93,8.85,10.08,16.92c4.38,6.73,9,12.78,11,12.56C1416.62,286.13,1436.8,300,1413,311.46Z"/><path class="cls-13" d="M1395.44,259.78c-.79,10.88-4.49,30.5-19.17,37.67-1.24-5.49-4.15-13-9.53-22Z"/><path class="cls-16" d="M1365,287.85s39.7-15.64,29.57-40.22-11.82-43.14-37.59-34.18-26.8,20.34-25.42,29.36S1354.36,291.29,1365,287.85Z"/><path class="cls-14" d="M1379.76,242c18.33-2.59,23.68-10,23.68-10a50.75,50.75,0,0,1-26.8-21.37s-20.61-6.95-35.87,4.67a10.14,10.14,0,0,0-1.93,4.3c-3.5-1.15-8.77-.85-11.8,9-4.56,14.86,11.67,31.08,11.67,31.08,3.93-1.11-.51-14.35-1.13-21.42-.45-5.2,2.35-11.85,3.86-15,2,2.52,21.29,26.82,44.89,27.79a99.8,99.8,0,0,1-23.82-12.79C1368.15,241.09,1374.16,242.82,1379.76,242Z"/><path class="cls-4" d="M1488.62,362.09c-.34-1.18-.7-2.41-1.08-3.68a92.91,92.91,0,0,0,10-30c2.69-18.16-1.9-29.37-1.9-29.37s-27.54-14.6-39.7-16.46l-.15-.05-.49,0c-12.27-1.7-38.84,3.73-38.84,3.73s5.12,13.65-9.34,22.74-29.9-2.33-29.9-2.33c-.47.31-1,.66-1.47,1h0s-38,25.1-41.46,30.84-18,34.14-18,34.14,4.64,23.85,56,25.85c4.22,10.24,7.46,20.24,8.51,28.58,4.08,32.37-.65,57.9,4.1,76.8s90.52,8.12,106,4.48,12-20.22,13.24-36.33C1505.69,451.75,1493.68,380,1488.62,362.09Z"/><path class="cls-9" d="M1497.56,328.39a93.15,93.15,0,0,1-10.09,30.16c-1.34-5.94-6.84-27.69-15.69-37.56C1471.78,321,1486.69,322.34,1497.56,328.39Z"/><path class="cls-13" d="M1148.37,540.54s16-19.36,19.41-21.65,18.54-6.3,19.4-5.49.9,2-1,3.63-9,5.82-8,6.29,22.55-10.25,25.66-6.65-1.76,18.49-10.06,25.62-33.06,10.18-34.62,11.18C1146,561.91,1148.37,540.54,1148.37,540.54Z"/><path class="cls-16" d="M867.07,495.84s22.95,27.23,52.18,15.84c0,0,6.29-15.21,6.38-26.42,0-1.38,0-2.72,0-4,.16-12.63.59-19.71.59-19.71h0c-1.33-.55-44.69-18.35-44.65-16.87C882.32,478.82,867.07,495.84,867.07,495.84Z"/><path class="cls-13" d="M885.93,452.82c4.18,7.75,18.53,22.91,39.74,28.45.16-12.63.59-19.71.59-19.71h0C925,461.23,884.69,450.53,885.93,452.82Z"/><path class="cls-16" d="M935.34,460.25s-48.76,11.46-55.43-19-17.46-49.52,13.39-58.13,39.46,1.7,44.16,11.32S947.85,456.48,935.34,460.25Z"/><path class="cls-17" d="M881.58,449.54c-.67.43-11.16,3.65-31-35.93-3.12-6.21-5.24-19.66,2-31.53s33-21.22,54.46-25.28,26.56,8,31.61,20.1c5.29,12.71,20.58,23.18,20.58,23.18-18.46,10.32-40.71-4.44-48.42-2s-10.43,14.57-11,18.47-1.47,7.12-11.16,3.65-4.38,13.73-2.83,17C885.82,437.21,887.14,446,881.58,449.54Z"/><path class="cls-15" d="M756,1210.45H726.45c-6.18,0-13.06-6.27-14.78-17.77s-14.45-17.78-17.2-27.19,11.35-22.66,11.35-22.66l2.36-3.07,2.45-3.2,23.39,5.57s.58,5.64.94,12.83c.25,5.19.38,11.19.09,16.45-.69,12.55,3.47,26.07,14.47,28.51S756,1210.45,756,1210.45Z"/><path class="cls-15" d="M961.5,1210.74H883.25a6.91,6.91,0,0,1-1.67-.5c-5.22-2.69-3.58-23.29-3-29.65.12-1.18.21-1.87.21-1.87s27.52-22.66,31.31-5.31c.12.54.25,1.08.4,1.6h0c4.78,16.23,26.13,23.6,38.47,25.66C958.43,1202.26,960.88,1207.91,961.5,1210.74Z"/><path class="cls-18" d="M945.73,758.19s-4.18,52.14-9.09,114.82c-6.68,85.14-14.71,189.73-15.5,209.54-1.37,34.4-6.88,89.43-6.88,89.43s-13.07,13.08-39.21,7.57c0,0-23.31-78.56-30-161.68-.1-1.37-.21-2.74-.31-4.11C838.59,929.14,829,751,829,751Z"/><path class="cls-6" d="M945.73,758.19s-4.18,52.14-9.09,114.82l-91.55,144.86c-.1-1.37-.21-2.74-.31-4.11C838.59,929.14,829,751,829,751Z"/><path class="cls-18" d="M926.65,764.38S851.32,953.22,801.78,1042s-65,113.51-65,113.51-28.38-11.35-31-19.09c0,0,18.94-171.32,52.11-213.09,18.74-23.59,40.76-94.41,41.79-119.18s6.71-73.78,6.71-73.78Z"/><path class="cls-13" d="M754.17,732.93s-1.95,23.58-3.38,27.21-10.95,14.84-12,14.68-1.76-1-1.21-3.33,3.85-9.34,2.81-9.16-11.94,20.07-16.29,18.95-8.58-15.26-6-25.25,20.12-25.66,20.79-27.27C744.51,715.11,754.17,732.93,754.17,732.93Z"/><path class="cls-15" d="M746.09,738.91c8.34,2.68,9.67,2.07,9.67,2.07s40.58-73.88,44.7-80.64,86.16-82.86,86.16-82.86l-21.09-78.63S772.21,619.7,762.13,637c-16.65,28.66-26.41,95.21-26.41,95.21A24.35,24.35,0,0,0,746.09,738.91Z"/><path class="cls-19" d="M961.63,608.35c-.29,16.15-1.23,34.31-2.49,52.74l-.24,3.28c-.8,11.42-1.68,22.87-2.69,34-.4,4.47-.83,8.9-1.28,13.24l-.07.59c0,1.63-.23,3.39-.41,5-4.12,41.81-8.43,74.85-9.23,75.36a4.77,4.77,0,0,1-3.21.82c-11-1.38-43.68,1.11-70.47-4.72-22.6-4.77-42.06-13.81-62.69-26-2.74-1.62-9-5.9-8.47-9.1.5-3.52,1.42-8.61,2.59-15,4.07-22.24,11.08-60.5,13.47-105.27q.7-12.51,2-24.68a373.65,373.65,0,0,1,10.92-58.94c9.18-33.07,22.68-58.39,39.61-68.29,2.21-1.24,14.12,6.33,25,13.34a48.16,48.16,0,0,0,31.06,7.36l9.1,10.07c11,12.8,22.75,29.86,25.95,54.09q.36,2.68.62,5.72A354.44,354.44,0,0,1,961.63,608.35Z"/><path class="cls-15" d="M961.63,608.35c-.29,16.15-1.23,34.31-2.49,52.74l-.24,3.28c-62.63-39.2-72.28-111-72.28-111,30.81,1.35,55.29,8.44,74.16,18.57A354.44,354.44,0,0,1,961.63,608.35Z"/><path class="cls-19" d="M1157.87,542.48c-3.23-8.73-8.25-8.16-8.25-8.16s-93.13,23.2-101.48,24.2-100.29-35.9-100.29-35.9-36.19-16.23-53.14-1.41c-14.72,12.89-15.39,29.21-12,42.92a41,41,0,0,0,34.64,30.53c37.5,4.78,112.33,13.77,128,11.59,34.9-4.87,114-50.52,114-50.52A29.33,29.33,0,0,0,1157.87,542.48Z"/><g id="man"><path class="cls-14" d="M2076.19,713.18s12.94,12,10.41,20.51-14.2,14.2-15.78,24.62-7.89,16.09-13.57,16.09h-27.08s-4.18-7.33,5.92-9.53,13.91-14.45,13.27-25.81.95-26.51.95-26.51l21.46-5Z"/><path class="cls-14" d="M1914.93,773c-1.31.66-5.93,1.12-12.26,1.42h-61.24c.21-1.82,1.63-8.31,11.65-9.93,11.31-1.84,30.91-8.41,35.28-22.89.15-.46.27-.94.38-1.41,3.47-15.46,28.71,4.73,28.71,4.73s.07.62.18,1.67C1918.23,752.26,1919.72,770.59,1914.93,773Z"/><path class="cls-3" d="M1856.08,359.39s3.83,47.84,8.34,105.34c6.12,78.12,13.49,174.07,14.22,192.25,1.26,31.56,6.31,82,6.31,82s12,12,36,6.94c0,0,21.38-72.08,27.48-148.34.1-1.24.19-2.5.29-3.76,5.68-77.64,14.51-241.11,14.51-241.11Z"/><path class="cls-4" d="M1856.08,359.39s3.83,47.84,8.34,105.34l84,132.9c.1-1.24.19-2.5.29-3.76,5.68-77.64,14.51-241.11,14.51-241.11Z"/><path class="cls-3" d="M1873.59,365.07s69.11,173.25,114.55,254.67,59.65,104.14,59.65,104.14,26-10.41,28.4-17.51c0,0-17.38-157.19-47.81-195.5-17.2-21.65-37.4-86.63-38.34-109.35s-6.16-67.69-6.16-67.69Z"/><path class="cls-16" d="M1660.42,271.11s-18.75-4.29-21.9-4.08-14.19,4.84-14.34,5.73.38,1.63,2.28,1.75,8.19-.68,7.79.09-18.48,4.31-18.68,7.95,9.71,10.4,18.08,10.85,24.82-9.27,26.23-9.39C1671.85,283,1660.42,271.11,1660.42,271.11Z"/><path class="cls-6" d="M1652.39,275.87c-2.68-8.57-2.05-9.93-2.05-9.93s76-41.09,82.94-45.26S1818.77,133,1818.77,133l80.43,22.14s-124.47,94.82-142.31,105c-29.47,16.87-97.74,26.42-97.74,26.42A25,25,0,0,1,1652.39,275.87Z"/><path class="cls-16" d="M1843.14,92.32s-28.2,49.62-55.76,56.09c0,0,1.15-16.66,7.86-28.06q-4.12-4.87-7.25-8.89a166.71,166.71,0,0,1-10.24-14.33L1787.11,72l6.34-17.06a82.42,82.42,0,0,0,9.92,14.29C1821.44,90,1843.14,92.32,1843.14,92.32Z"/><path class="cls-13" d="M1803.37,69.21s3.37,24.86-15.38,42.25a166.71,166.71,0,0,1-10.24-14.33L1787.11,72C1797.14,68.92,1803.37,69.21,1803.37,69.21Z"/><path class="cls-16" d="M1770.32,100.79s42.13-16.42,31.5-42.5-12.36-45.77-39.7-36.38-28.49,21.45-27.06,31S1759.09,104.4,1770.32,100.79Z"/><path class="cls-18" d="M1988,346.92c-17,24.44-144.07,57.09-142.57,40.17a183.08,183.08,0,0,0,0-33.36q-.48-5.43-1.36-11.52c-3.22-22.23-10.89-50.8-28-83.88q-1.92-3.72-4-7.51a259.16,259.16,0,0,1-17.62-39.58c-8.8-25.45-12.35-49.79-7.91-65.7,0-.08,0-.15.07-.23,26.56-12.28,36.86-59.91,36.86-59.91s90.62,16.26,141.38,137.06C1964.81,222.46,2002.76,325.66,1988,346.92Z"/><path class="cls-6" d="M1845.39,353.73q-.48-5.43-1.36-11.52c-3.22-22.23-10.89-50.8-28-83.88,2.94-17.8,7-32.61,11.45-39.27,18.07-27.09,28.6-31.32,28.6-31.32S1883.18,302.05,1845.39,353.73Z"/><path class="cls-16" d="M1702.53,326.54s-25.06,1.31-29,2.71-16.09,11.14-16,12.32,1.05,1.9,3.49,1.38,10-3.77,9.81-2.68-21.66,12-20.61,16.66,15.9,9.59,26.58,7.17,27.85-20.51,29.58-21.17C1721.12,337.35,1702.53,326.54,1702.53,326.54Z"/><path class="cls-18" d="M1697.81,336c-5-8.11-1.41-11.81-1.41-11.81s77.45-60.64,83.52-66.76,34.19-103.67,34.19-103.67,9.68-39.47,32.34-43.82c19.69-3.79,33.31,6,42.21,17.38a42,42,0,0,1,2.85,47.23c-19.78,33.32-59.66,99.46-71.31,110.76-25.92,25.14-112.66,60.29-112.66,60.29A30,30,0,0,1,1697.81,336Z"/><path class="cls-14" d="M1807.87,9.84c.29-.58,1.15-1.2,3.24-1.84a8.76,8.76,0,0,0-4.24-.16C1805.69,5,1802.81,0,1797.42,0a6.62,6.62,0,0,1,4.23,3.9c-7.39-4.68-21.08-6-55.28,5.35-45.07,15-22.55,41.17-15.72,43.27s19.4-11.36,30.71-13.2,17.43,13.92,21.74,15.22,1.86-2.28,6.38-5.87,7.11,4.86,7,10.79,8.7,11.56,8.7,11.56l5.17-9.47c5.16-9.48,3.76-43.86-1.18-50Z"/></g><rect class="cls-20" y="1298.85" width="2551.48" height="9.1" rx="3.46"/><polygon class="cls-10" points="1095.47 1209.46 1095.47 1260.47 974.73 1209.46 1095.47 1209.46"/><rect class="cls-3" x="1729.44" y="774.4" width="399.29" height="524.45"/><rect class="cls-4" x="1606.32" y="774.4" width="399.29" height="524.45"/><polygon class="cls-10" points="2128.73 774.4 2128.73 852.83 2005.62 774.4 2128.73 774.4"/></g></g></svg>